<?xml version="1.0" standalone="no"?>
<!DOCTYPE svg PUBLIC "-//W3C//DTD SVG 1.1//EN" "http://www.w3.org/Graphics/SVG/1.1/DTD/svg11.dtd" >
<svg xmlns="http://www.w3.org/2000/svg" xmlns:xlink="http://www.w3.org/1999/xlink" version="1.1">
<metadata>
Created by FontForge 20170731 at Mon Sep 26 11:52:37 2022
 By Aleksey,,,
Copyright (c) 2017 by Alexander Slobzheninov. All rights reserved.

</metadata>
<defs>
<font id="Objective-BlackItalic" horiz-adv-x="1314" >
  <font-face 
    font-family="Objective Black"
    font-weight="900"
    font-style="italic"
    font-stretch="normal"
    units-per-em="2048"
    panose-1="0 0 0 0 0 0 0 0 0 0"
    ascent="1638"
    descent="-410"
    x-height="1065"
    cap-height="1475"
    bbox="-139 -821 3297.57 2355"
    underline-thickness="102"
    underline-position="-358"
    unicode-range="U+000D-F6C3"
  />
<missing-glyph horiz-adv-x="1024" 
 />
    <glyph glyph-name=".notdef" horiz-adv-x="1024" 
 />
    <glyph glyph-name=".null" horiz-adv-x="0" 
 />
    <glyph glyph-name="nonmarkingreturn" horiz-adv-x="682" 
 />
    <glyph glyph-name="NULL" horiz-adv-x="1519" 
d="M1524 1475l-129 -1475h-1270l129 1475h1270zM565 348h451l67 778h-450z" />
    <glyph glyph-name="NULL" horiz-adv-x="1519" 
d="M1524 1475l-129 -1475h-1270l129 1475h1270zM565 348h451l67 778h-450z" />
    <glyph glyph-name="CR" unicode="&#xd;" horiz-adv-x="61" 
 />
    <glyph glyph-name="space" unicode=" " horiz-adv-x="614" 
 />
    <glyph glyph-name="exclam" unicode="!" horiz-adv-x="761" 
d="M143 205q9 107 87.5 176.5t189.5 69.5q112 0 178 -69.5t57 -176.5t-87.5 -176.5t-190.5 -69.5q-110 0 -176.5 69.5t-57.5 176.5zM709 1065l-168 -533h-226l-77 533l36 410h471z" />
    <glyph glyph-name="quotedbl" unicode="&#x22;" horiz-adv-x="925" 
d="M391 696h-205l-18 492l25 287h327l-24 -287zM862 696h-205l-18 492l25 287h327l-24 -287z" />
    <glyph glyph-name="numbersign" unicode="#" horiz-adv-x="1867" 
d="M1343 369l-133 -369h-397l133 369h-217l-133 -369h-397l133 369h-236l27 307h319l66 184h-266l26 307h350l134 369h397l-135 -369h219l133 369h397l-135 -369h279l-27 -307h-360l-68 -184h309l-26 -307h-392zM1057 676l65 184h-217l-67 -184h219z" />
    <glyph glyph-name="dollar" unicode="$" horiz-adv-x="1501" 
d="M997 -16l-20 -236h-492l21 229q-193 53 -299.5 190.5t-89.5 321.5h454q-6 -74 54 -123t155 -49q72 0 120.5 29t53.5 74q3 34 -24 55.5t-74.5 33t-109.5 20t-130.5 20t-136.5 28t-128 49.5t-104.5 80t-66.5 123t-14 175q15 183 142.5 314t330.5 181l16 180h492l-17 -192
q174 -58 270 -186.5t81 -294.5h-434q6 66 -49.5 108.5t-145.5 42.5q-69 0 -117 -26t-53 -66q-3 -32 24.5 -52.5t75 -31t110 -18t131 -18t137 -26.5t128.5 -49t104.5 -79.5t66.5 -123t14 -175.5q-17 -183 -145 -317.5t-331 -190.5z" />
    <glyph glyph-name="percent" unicode="%" horiz-adv-x="2318" 
d="M1864 901q204 0 325.5 -133.5t102.5 -337.5q-17 -204 -162.5 -337.5t-349.5 -133.5t-325.5 133.5t-104.5 337.5q19 204 164.5 337.5t349.5 133.5zM1833 553q-54 0 -92.5 -34.5t-42.5 -88.5q-5 -54 26.5 -88.5t85.5 -34.5t92 34.5t42 88.5q5 54 -26 88.5t-85 34.5z
M672 1577q204 0 326.5 -133.5t103.5 -337.5q-17 -204 -162.5 -337.5t-349.5 -133.5t-325.5 133.5t-104.5 337.5q19 204 163.5 337.5t348.5 133.5zM641 1229q-54 0 -91 -34.5t-42 -88.5q-4 -54 27.5 -88.5t85.5 -34.5t91 34.5t42 88.5q4 54 -27.5 88.5t-85.5 34.5zM1995 1536
l-1153 -1536h-383l1153 1536h383z" />
    <glyph glyph-name="ampersand" unicode="&#x26;" horiz-adv-x="1804" 
d="M1733 0h-492l-80 76q-233 -127 -497 -127q-272 0 -422.5 121.5t-130.5 339.5q13 150 96 243t221 152q-68 130 -57 256q19 202 179.5 333.5t385.5 131.5q139 0 252.5 -53t180 -148t71.5 -213l-396 -68q-8 68 -45 111t-88 43q-50 0 -87.5 -40.5t-43.5 -102.5
q-9 -102 92 -201q13 -14 164.5 -164.5t165.5 -163.5q45 57 101 170h407q-81 -215 -270 -407q54 -50 293 -289zM776 297q67 0 133 16q-10 10 -126 120t-126 120q-28 -14 -47 -44t-22 -65q-6 -63 47.5 -105t140.5 -42z" />
    <glyph glyph-name="quotesingle" unicode="'" horiz-adv-x="454" 
d="M391 696h-205l-18 492l25 287h327l-24 -287z" />
    <glyph glyph-name="parenleft" unicode="(" horiz-adv-x="811" 
d="M115 584q25 288 137 545.5t274 406.5h418q-169 -182 -283 -439t-137 -513q-23 -253 46 -511t204 -442h-416q-135 149 -202 407.5t-41 545.5z" />
    <glyph glyph-name="parenright" unicode=")" horiz-adv-x="808" 
d="M799 584q-26 -289 -138 -547t-274 -406h-416q168 182 281.5 440t136.5 513q23 253 -46.5 510.5t-205.5 441.5h418q135 -149 202 -406.5t42 -545.5z" />
    <glyph glyph-name="asterisk" unicode="*" horiz-adv-x="1060" 
d="M901 666l-168 127l2 -220h-307l39 220l-193 -127l-129 266l207 92l-190 92l176 266l170 -127l-2 220h307l-39 -220l191 127l131 -266l-207 -92l190 -92z" />
    <glyph glyph-name="plus" unicode="+" horiz-adv-x="1089" 
d="M776 184h-430l25 287h-267l29 328h266l25 286h430l-25 -286h267l-29 -328h-266z" />
    <glyph glyph-name="comma" unicode="," horiz-adv-x="638" 
d="M82 205q9 106 85.5 176t180.5 70q120 0 184.5 -95t51.5 -252q-10 -129 -92.5 -268.5t-196.5 -224.5l-225 41q89 76 149.5 163t65.5 144q-98 0 -155 69.5t-48 176.5z" />
    <glyph glyph-name="hyphen" unicode="-" horiz-adv-x="966" 
d="M975 819l-33 -368h-840l33 368h840z" />
    <glyph glyph-name="period" unicode="." horiz-adv-x="638" 
d="M82 205q9 107 87 176.5t189 69.5q112 0 178.5 -69.5t57.5 -176.5t-87.5 -176.5t-191.5 -69.5q-110 0 -176 69.5t-57 176.5z" />
    <glyph glyph-name="slash" unicode="/" horiz-adv-x="1064" 
d="M1192 1475l-834 -1946h-397l834 1946h397z" />
    <glyph glyph-name="zero" unicode="0" horiz-adv-x="1599" 
d="M150 737q19 226 126.5 406t280 281.5t377.5 101.5t360.5 -101.5t231.5 -281.5t57 -406q-20 -226 -128 -406t-280.5 -281t-377.5 -101t-360 101t-231 281t-56 406zM662 737q-13 -148 36 -243t138 -95t155 95t80 243q12 148 -37.5 243t-138.5 95t-155 -95t-78 -243z" />
    <glyph glyph-name="one" unicode="1" horiz-adv-x="1067" 
d="M494 942l-371 -252l43 477l436 308h451l-129 -1475h-512z" />
    <glyph glyph-name="two" unicode="2" horiz-adv-x="1386" 
d="M848 1526q249 0 406 -143.5t139 -368.5q-12 -139 -91 -249.5t-210 -172.5l-469 -223h673l-32 -369h-1190l37 430l643 348q83 45 121.5 92t44.5 107q4 65 -27.5 102t-87.5 37q-63 0 -116.5 -60.5t-72.5 -154.5l-448 86q27 155 123 278t242 192t315 69z" />
    <glyph glyph-name="three" unicode="3" horiz-adv-x="1384" 
d="M190 1106l33 369h1168l-23 -267l-309 -282q140 -46 218.5 -172t65.5 -285q-13 -150 -105 -269t-242 -185t-332 -66q-282 0 -437 156t-149 407l469 63q0 -99 37.5 -158t113.5 -59q62 0 107 46t51 116q6 69 -30.5 112.5t-98.5 43.5q-67 0 -111 -23l-73 258l258 195h-611z
" />
    <glyph glyph-name="four" unicode="4" horiz-adv-x="1452" 
d="M72 553l571 922h717l-72 -820h160l-33 -368h-160l-24 -287h-533l25 287h-676zM793 1085l-242 -430h205z" />
    <glyph glyph-name="five" unicode="5" horiz-adv-x="1413" 
d="M354 1475h1014l-33 -369h-647l-22 -143h268q214 0 341.5 -135t108.5 -345q-22 -238 -213.5 -386t-468.5 -148q-282 0 -436.5 156t-148.5 407l469 63q0 -99 37.5 -158t113.5 -59q62 0 107 44.5t51 109.5q6 72 -41 118t-125 46h-496z" />
    <glyph glyph-name="six" unicode="6" horiz-adv-x="1437" 
d="M272 872l453 603h567l-381 -484q63 13 115 13q195 0 304.5 -131.5t90.5 -342.5q-15 -171 -110 -303t-254.5 -205t-358.5 -73q-288 0 -450 155t-139 410q7 84 53.5 179t109.5 179zM643 532q-8 -78 22 -126t85 -48t93 48t46 126q6 74 -24 119t-85 45t-93 -45t-44 -119z" />
    <glyph glyph-name="seven" unicode="7" horiz-adv-x="1110" 
d="M637 0h-543l529 1065h-508l37 410h1085l-27 -308z" />
    <glyph glyph-name="eight" unicode="8" horiz-adv-x="1476" 
d="M874 1536q170 0 301 -53.5t199 -150.5t58 -220q-11 -111 -79.5 -206.5t-162.5 -127.5q116 -24 184.5 -128.5t57.5 -233.5q-19 -199 -215.5 -328t-481.5 -129q-188 0 -332.5 58.5t-219 163t-62.5 235.5q11 128 97.5 232.5t205.5 129.5q-89 32 -140 126.5t-42 205.5
q11 122 96 219.5t225.5 152t310.5 54.5zM791 594q-54 0 -91.5 -33t-42.5 -84q-4 -52 27.5 -85.5t85.5 -33.5t91.5 33.5t41.5 85.5q5 51 -26.5 84t-85.5 33zM840 1137q-54 0 -92 -33t-41 -82q-5 -53 26.5 -87t85.5 -34t91 34t42 87q3 50 -28 82.5t-84 32.5z" />
    <glyph glyph-name="nine" unicode="9" horiz-adv-x="1437" 
d="M1294 602l-452 -602h-568l381 483q-61 -12 -116 -12q-194 0 -303.5 131t-90.5 342q15 171 110 303.5t254.5 205.5t358.5 73q288 0 450.5 -155t139.5 -410q-13 -153 -164 -359zM924 942q8 78 -22 126t-85 48t-93 -48t-46 -126q-6 -74 23.5 -119t84.5 -45q56 0 94 45.5
t44 118.5z" />
    <glyph glyph-name="colon" unicode=":" horiz-adv-x="638" 
d="M82 205q9 107 87 176.5t189 69.5q112 0 178.5 -69.5t57.5 -176.5t-87.5 -176.5t-191.5 -69.5q-110 0 -176 69.5t-57 176.5zM143 901q9 107 87.5 176.5t189.5 69.5q112 0 178 -69.5t57 -176.5q-11 -108 -88.5 -177t-189.5 -69q-111 0 -177.5 69.5t-56.5 176.5z" />
    <glyph glyph-name="semicolon" unicode=";" horiz-adv-x="638" 
d="M82 205q9 106 85.5 176t180.5 70q120 0 184.5 -95t51.5 -252q-10 -129 -92.5 -268.5t-196.5 -224.5l-225 41q89 76 149.5 163t65.5 144q-98 0 -155 69.5t-48 176.5zM143 901q9 107 87.5 176.5t189.5 69.5q112 0 178 -69.5t57 -176.5q-11 -108 -88.5 -177t-189.5 -69
q-111 0 -177.5 69.5t-56.5 176.5z" />
    <glyph glyph-name="less" unicode="&#x3c;" horiz-adv-x="864" 
d="M834 369l-35 -394l-768 353l37 409l827 350l-33 -391l-483 -164z" />
    <glyph glyph-name="equal" unicode="=" horiz-adv-x="1089" 
d="M111 532h962l-31 -348h-962zM156 1065h962l-28 -348h-963z" />
    <glyph glyph-name="greater" unicode="&#x3e;" horiz-adv-x="862" 
d="M158 1087l770 -350l-37 -409l-830 -353l35 394l484 163l-455 164z" />
    <glyph glyph-name="question" unicode="?" horiz-adv-x="1374" 
d="M440 205q9 107 87.5 176.5t189.5 69.5q112 0 178 -69.5t57 -176.5t-87.5 -176.5t-190.5 -69.5q-110 0 -176.5 69.5t-57.5 176.5zM926 492h-410q12 145 66 235t172 162q30 18 46 28t40 29.5t36.5 41t14.5 46.5q4 44 -24.5 73.5t-75.5 29.5q-62 0 -110 -53.5t-65 -139.5
l-462 86q36 218 227.5 357t466.5 139q170 0 301.5 -55.5t200 -156t57.5 -227.5q-10 -119 -86 -215t-191 -147q-48 -21 -78 -39t-60 -44.5t-46 -63.5t-20 -86z" />
    <glyph glyph-name="at" unicode="@" horiz-adv-x="2131" 
d="M438 532q-15 -168 36.5 -302t157.5 -209.5t247 -75.5q83 0 174 23t157 59l-26 -306q-66 -35 -157.5 -57t-174.5 -22q-174 0 -320 66.5t-244 183.5t-146 283t-31 357t106.5 356.5t232 283t335 184.5t407.5 67t396 -67t303 -184.5t183 -283t44 -356.5q-11 -119 -48 -214.5
t-101.5 -167.5t-163 -111t-226.5 -39q-134 0 -224 56t-102 147q-53 -54 -137 -87.5t-168 -33.5q-164 0 -254 124t-71 326q11 129 83 232t189 161t258 58q221 0 345.5 -130t105.5 -341l-13 -147q-9 -73 0 -100q14 -40 64 -40q60 0 91 79.5t44 227.5q23 271 -153.5 448
t-469.5 177q-145 0 -274.5 -47t-225.5 -129.5t-157 -198.5t-72 -250zM1124 655q-54 0 -91 -34.5t-42 -88.5q-4 -54 27.5 -88t85.5 -34t91.5 34t41.5 88t-27.5 88.5t-85.5 34.5z" />
    <glyph glyph-name="A" unicode="A" horiz-adv-x="1646" 
d="M1341 1475l304 -1475h-555l-31 184h-438l-64 -184h-555l561 1475h778zM913 1026l-163 -473h245z" />
    <glyph glyph-name="B" unicode="B" horiz-adv-x="1640" 
d="M985 0h-860l129 1475h805q261 0 413.5 -116.5t137.5 -293.5q-9 -121 -71.5 -205t-160.5 -112q111 -26 169 -122.5t46 -236.5q-17 -182 -182 -285.5t-426 -103.5zM913 594h-204l-19 -225h205q65 0 107 28t45 74q4 55 -32.5 89t-101.5 34zM918 1106h-164l-17 -205h164
q64 0 105.5 28.5t46.5 74.5q3 46 -34 74t-101 28z" />
    <glyph glyph-name="C" unicode="C" horiz-adv-x="1724" 
d="M1225 621l487 -52q-24 -178 -139.5 -319.5t-297.5 -221t-396 -79.5q-176 0 -323 59.5t-246 163t-147.5 250t-33.5 315.5q14 169 88.5 315.5t191 250.5t274 163.5t333.5 59.5q209 0 375 -79.5t257.5 -221.5t88.5 -320l-496 -51q-7 96 -77 158.5t-169 62.5
q-138 0 -229.5 -93t-103.5 -245q-13 -152 62 -245t210 -93q98 0 180.5 62.5t110.5 159.5z" />
    <glyph glyph-name="D" unicode="D" horiz-adv-x="1681" 
d="M125 0l129 1475h655q249 0 432 -92t273 -259.5t72 -386.5q-19 -219 -138.5 -386.5t-319 -259t-448.5 -91.5h-655zM1153 737q12 157 -64.5 252.5t-214.5 95.5h-143l-59 -696h143q138 0 231.5 95.5t106.5 252.5z" />
    <glyph glyph-name="E" unicode="E" horiz-adv-x="1271" 
d="M674 410h573l-37 -410h-1085l129 1475h1065l-37 -410h-553l-12 -143h471l-29 -349h-471z" />
    <glyph glyph-name="F" unicode="F" horiz-adv-x="1251" 
d="M1126 451h-430l-39 -451h-532l129 1475h1085l-39 -451h-552l-17 -184h430z" />
    <glyph glyph-name="G" unicode="G" horiz-adv-x="1763" 
d="M1241 573h-307l24 287h814q4 -195 -59 -364.5t-178 -289.5t-279.5 -188.5t-356.5 -68.5q-180 0 -331 59.5t-252.5 163t-151.5 250t-35 315.5q14 169 90 315.5t195 250.5t280.5 163.5t341.5 59.5q140 0 262 -39t210.5 -107.5t144.5 -165.5t69 -210l-497 -82
q-14 68 -78.5 110.5t-153.5 42.5q-132 0 -225.5 -95t-105.5 -243q-14 -148 69 -243t227 -95q103 0 183.5 49.5t99.5 124.5z" />
    <glyph glyph-name="H" unicode="H" horiz-adv-x="1699" 
d="M655 0h-532l129 1475h532l-45 -512h389l46 512h532l-129 -1475h-533l50 553h-389z" />
    <glyph glyph-name="I" unicode="I" horiz-adv-x="782" 
d="M786 1475l-129 -1475h-532l129 1475h532z" />
    <glyph glyph-name="J" unicode="J" horiz-adv-x="1048" 
d="M463 573l78 902h532l-86 -983q-22 -237 -191.5 -385t-412.5 -148q-195 0 -320 41l35 389q68 -20 162 -20q83 0 138.5 56t64.5 148z" />
    <glyph glyph-name="K" unicode="K" horiz-adv-x="1628" 
d="M254 1475h532l-47 -545l396 545h620l-559 -697l430 -778h-620l-295 604l-54 -604h-532z" />
    <glyph glyph-name="L" unicode="L" horiz-adv-x="1189" 
d="M1128 0h-1003l129 1475h532l-90 -1024h471z" />
    <glyph glyph-name="M" unicode="M" horiz-adv-x="2195" 
d="M637 0h-512l129 1475h668l223 -938l375 938h680l-129 -1475h-512l73 848l-340 -848h-389l-192 848z" />
    <glyph glyph-name="N" unicode="N" horiz-adv-x="1703" 
d="M786 1475l357 -834l74 834h491l-129 -1475h-532l-359 829l-72 -829h-491l129 1475h532z" />
    <glyph glyph-name="O" unicode="O" horiz-adv-x="1804" 
d="M129 737q15 175 88.5 322.5t191 250t279 159.5t348.5 57q249 0 431.5 -98t271.5 -277.5t69 -413.5q-21 -234 -141 -413t-319.5 -277t-448.5 -98q-250 0 -432 98t-270.5 277t-67.5 413zM662 737q-14 -152 62 -245t214 -93t231.5 93t106.5 245q12 152 -64.5 245t-214.5 93
t-230.5 -93t-104.5 -245z" />
    <glyph glyph-name="P" unicode="P" horiz-adv-x="1558" 
d="M915 369h-245l-33 -369h-512l129 1475h764q283 0 442.5 -152t136.5 -401q-22 -249 -209 -401t-473 -152zM877 1106h-144l-31 -369h144q92 0 152.5 51t66.5 134q7 83 -44.5 133.5t-143.5 50.5z" />
    <glyph glyph-name="Q" unicode="Q" horiz-adv-x="1804" 
d="M129 737q15 175 88.5 322.5t191 250t279 159.5t348.5 57q249 0 431.5 -98t271.5 -277.5t69 -413.5q-19 -199 -110 -360t-240 -266l242 -398h-471l-150 250q-100 -14 -180 -14q-250 0 -432 98t-270.5 277t-67.5 413zM662 737q-14 -152 62 -245t214 -93t231.5 93t106.5 245
q12 152 -64.5 245t-214.5 93t-230.5 -93t-104.5 -245z" />
    <glyph glyph-name="R" unicode="R" horiz-adv-x="1648" 
d="M125 0l129 1475h784q285 0 444.5 -146t137.5 -387q-12 -146 -97.5 -256t-226.5 -170l291 -516h-581l-187 451h-123l-39 -451h-532zM897 1106h-143l-29 -328h143q87 0 150 44.5t69 119.5q7 75 -48 119.5t-142 44.5z" />
    <glyph glyph-name="S" unicode="S" horiz-adv-x="1501" 
d="M729 -51q-287 0 -459.5 152.5t-152.5 387.5h454q-6 -74 54 -123t155 -49q72 0 120.5 29t53.5 74q3 34 -24 55.5t-74.5 33t-109.5 20t-130.5 20t-136.5 28t-128 49.5t-104.5 80t-66.5 123t-14 175q20 234 216 378t484 144q189 0 334.5 -67t219.5 -185.5t61 -267.5h-434
q6 66 -49.5 108.5t-145.5 42.5q-69 0 -117 -26t-53 -66q-3 -32 24.5 -52.5t75 -31t110 -18t131 -18t137 -26.5t128.5 -49t104.5 -79.5t66.5 -123t14 -175.5q-22 -242 -230.5 -392.5t-513.5 -150.5z" />
    <glyph glyph-name="T" unicode="T" horiz-adv-x="1355" 
d="M504 1044h-389l37 431h1310l-37 -431h-389l-92 -1044h-532z" />
    <glyph glyph-name="U" unicode="U" horiz-adv-x="1662" 
d="M1083 645l72 830h533l-74 -850q-28 -305 -244 -490.5t-543 -185.5q-216 0 -374 84t-234.5 237.5t-58.5 354.5l73 850h533l-72 -830q-8 -97 34 -168t138 -78q88 0 147 67.5t70 178.5z" />
    <glyph glyph-name="V" unicode="V" horiz-adv-x="1636" 
d="M680 1475l172 -1084l360 1084h551l-536 -1475h-819l-277 1475h549z" />
    <glyph glyph-name="W" unicode="W" horiz-adv-x="2629" 
d="M1872 487l330 988h534l-520 -1475h-717l-119 756l-250 -756h-716l-262 1475h534l160 -988l352 988h492z" />
    <glyph glyph-name="X" unicode="X" horiz-adv-x="1828" 
d="M557 778l-403 697h608l239 -422l314 422h618l-557 -697l430 -778h-620l-234 487l-319 -487h-610z" />
    <glyph glyph-name="Y" unicode="Y" horiz-adv-x="1521" 
d="M545 492l-416 983h551l170 -533l242 533h559l-574 -983l-43 -492h-532z" />
    <glyph glyph-name="Z" unicode="Z" horiz-adv-x="1396" 
d="M115 348l594 717h-512l36 410h1188l-30 -349l-568 -716h527l-37 -410h-1229z" />
    <glyph glyph-name="bracketleft" unicode="[" horiz-adv-x="843" 
d="M682 1229l-113 -1290h267l-27 -308h-717l168 1905h717l-29 -307h-266z" />
    <glyph glyph-name="backslash" unicode="\" horiz-adv-x="1064" 
d="M131 1475h397l494 -1946h-397z" />
    <glyph glyph-name="bracketright" unicode="]" horiz-adv-x="843" 
d="M686 -369h-717l27 308h266l113 1290h-266l28 307h717z" />
    <glyph glyph-name="asciicircum" unicode="^" horiz-adv-x="1294" 
d="M559 819h-424l416 656h450l302 -656h-420l-131 373z" />
    <glyph glyph-name="underscore" unicode="_" horiz-adv-x="1024" 
d="M-27 0h1024l-26 -307h-1024z" />
    <glyph glyph-name="grave" unicode="`" horiz-adv-x="755" 
d="M199 1536h403l193 -369h-308z" />
    <glyph glyph-name="a" unicode="a" horiz-adv-x="1398" 
d="M905 938l10 127h471l-92 -1065h-471l11 127q-59 -80 -140 -124t-172 -44q-209 0 -321.5 157.5t-89.5 415.5q22 258 162.5 416t349.5 158q92 0 164.5 -44t117.5 -124zM711 369q63 0 107 46t50 117t-30 117.5t-99 46.5t-107 -46.5t-50 -117.5t30 -117t99 -46z" />
    <glyph glyph-name="b" unicode="b" horiz-adv-x="1376" 
d="M240 1536h471l-52 -569q123 139 299 139q202 0 313 -158t89 -416q-23 -258 -161 -415.5t-341 -157.5q-178 0 -274 135l-9 -94h-471zM889 532q6 71 -30 117.5t-99 46.5t-107.5 -46.5t-50.5 -117.5t30 -117t99 -46t107.5 46t50.5 117z" />
    <glyph glyph-name="c" unicode="c" horiz-adv-x="1304" 
d="M1309 649l-437 -55q-6 54 -42 88.5t-87 34.5q-63 0 -109 -53t-52 -132q-8 -80 28.5 -132t100.5 -52q51 0 93.5 34.5t57.5 88.5l426 -51q-40 -199 -216.5 -330t-401.5 -131q-172 0 -305 73.5t-200.5 205t-53.5 294.5q22 249 208 411.5t451 162.5q148 0 270 -58.5
t194 -163.5t75 -235z" />
    <glyph glyph-name="d" unicode="d" horiz-adv-x="1376" 
d="M885 967l51 569h471l-135 -1536h-471l8 94q-122 -135 -299 -135q-203 0 -312.5 157.5t-86.5 415.5q22 258 159 416t340 158q175 0 275 -139zM582 532q-6 -71 30 -117t99 -46t107 46t50 117t-30 117.5t-99 46.5t-107 -46.5t-50 -117.5z" />
    <glyph glyph-name="e" unicode="e" horiz-adv-x="1335" 
d="M723 287q96 0 131 82l406 -52q-29 -102 -115 -184t-212.5 -128t-268.5 -46q-269 0 -422.5 158t-130.5 415q22 257 207 415.5t456 158.5q272 0 419 -159t124 -421q-4 -73 -14 -116h-717q25 -123 137 -123zM598 635h258q5 56 -28.5 99.5t-88.5 43.5q-100 0 -141 -143z" />
    <glyph glyph-name="f" unicode="f" horiz-adv-x="905" 
d="M997 1536l-34 -379q-45 10 -91 10q-51 0 -84 -22.5t-36 -59.5l-2 -20h204l-28 -348h-205l-64 -717h-471l64 717h-123l29 348h123l4 41q19 212 143.5 341.5t310.5 129.5q135 0 260 -41z" />
    <glyph glyph-name="g" unicode="g" horiz-adv-x="1376" 
d="M96 -82l408 41q4 -54 43.5 -88.5t93.5 -34.5q65 0 110 50.5t52 133.5l8 107q-124 -127 -301 -127q-195 0 -308 147.5t-91 384.5q22 256 161 415t334 159q181 0 279 -137l8 96h471l-92 -1065q-20 -230 -196 -371t-443 -141q-236 0 -388 121.5t-149 308.5zM711 369
q63 0 107 46t50 117t-30 117.5t-99 46.5t-107 -46.5t-50 -117.5t30 -117t99 -46z" />
    <glyph glyph-name="h" unicode="h" 
d="M971 1106q159 0 248.5 -107.5t74.5 -281.5l-63 -717h-471l51 573q4 55 -19 89t-65 34q-41 0 -68 -33.5t-32 -89.5l-52 -573h-471l136 1536h471l-52 -575q56 70 138.5 107.5t173.5 37.5z" />
    <glyph glyph-name="i" unicode="i" horiz-adv-x="720" 
d="M688 1065l-92 -1065h-471l92 1065h471zM225 1393q10 107 89 176t190 69q112 0 178 -69t55 -176q-9 -108 -86.5 -177t-189.5 -69q-111 0 -178 69.5t-58 176.5z" />
    <glyph glyph-name="j" unicode="j" horiz-adv-x="741" 
d="M147 20l91 1045h471l-97 -1106q-17 -202 -147.5 -326.5t-325.5 -124.5q-153 0 -278 41l30 359q48 -10 113 -10q60 0 99.5 33.5t43.5 88.5zM246 1393q10 107 89 176t189 69q113 0 178.5 -69t55.5 -176q-9 -107 -87 -176.5t-190 -69.5q-111 0 -177.5 69.5t-57.5 176.5z" />
    <glyph glyph-name="k" unicode="k" horiz-adv-x="1386" 
d="M240 1536h471l-74 -834l297 363h541l-441 -512l352 -553h-544l-232 401l-35 -401h-471z" />
    <glyph glyph-name="l" unicode="l" horiz-adv-x="675" 
d="M709 1536l-136 -1536h-471l136 1536h471z" />
    <glyph glyph-name="m" unicode="m" horiz-adv-x="1990" 
d="M104 0l93 1065h450l-10 -137q53 85 143 131.5t191 46.5q102 0 177 -45t112 -125q51 77 153.5 123.5t206.5 46.5q173 0 269 -107t81 -282l-63 -717h-471l51 573q3 50 -21 84.5t-73 38.5q-47 0 -76.5 -33.5t-34.5 -89.5l-51 -573h-471l51 573q5 56 -18 89.5t-66 33.5
q-42 0 -68.5 -33.5t-31.5 -89.5l-52 -573h-471z" />
    <glyph glyph-name="n" unicode="n" 
d="M979 1106q151 0 239.5 -116t73.5 -294l-61 -696h-471l51 573q4 55 -18.5 89t-63.5 34t-69.5 -34t-32.5 -89l-52 -573h-471l93 1065h450l-12 -160q146 201 344 201z" />
    <glyph glyph-name="o" unicode="o" horiz-adv-x="1351" 
d="M1337 532q-23 -258 -205.5 -415.5t-459.5 -157.5t-431.5 157.5t-131.5 415.5q22 258 204 416t459 158t432 -158t133 -416zM866 532q6 74 -29.5 119t-99.5 45t-107.5 -45t-49.5 -119t29.5 -118.5t99.5 -44.5q65 0 108 45t49 118z" />
    <glyph glyph-name="p" unicode="p" horiz-adv-x="1376" 
d="M584 98l-49 -569h-472l134 1536h471l-9 -94q122 135 299 135q202 0 313 -158t89 -416q-23 -258 -161 -415.5t-341 -157.5q-178 0 -274 139zM889 532q6 71 -30 117.5t-99 46.5t-107.5 -46.5t-50.5 -117.5t30 -117t99 -46t107.5 46t50.5 117z" />
    <glyph glyph-name="q" unicode="q" horiz-adv-x="1376" 
d="M1231 -471h-471l49 569q-126 -139 -299 -139q-203 0 -312.5 157.5t-86.5 415.5q22 258 159 416t340 158q179 0 275 -135l8 94h471zM582 532q-6 -71 30 -117t99 -46t107 46t50 117t-30 117.5t-99 46.5t-107 -46.5t-50 -117.5z" />
    <glyph glyph-name="r" unicode="r" horiz-adv-x="964" 
d="M928 1106q58 0 110 -25l-37 -415q-99 47 -192 47q-77 0 -128.5 -50t-57.5 -131l-48 -532h-471l93 1065h450l-10 -135q47 79 127.5 127.5t163.5 48.5z" />
    <glyph glyph-name="s" unicode="s" horiz-adv-x="1191" 
d="M573 -51q-224 0 -359 111.5t-120 283.5h371q-5 -47 35.5 -77.5t107.5 -30.5q48 0 82 20.5t37 52.5q2 30 -23.5 46.5t-70 21.5t-101 10.5t-115.5 11t-114 26t-96.5 52.5t-63.5 93.5t-14 146.5q15 173 169.5 286t377.5 113q226 0 364 -106.5t125 -270.5h-391
q3 39 -32.5 64.5t-90.5 25.5q-46 0 -76.5 -17.5t-31.5 -45.5q-2 -26 25 -42.5t74 -23t107 -15.5t122.5 -17t121.5 -29.5t104 -52.5t69 -86t18 -129q-17 -187 -185.5 -304.5t-425.5 -117.5z" />
    <glyph glyph-name="t" unicode="t" horiz-adv-x="905" 
d="M203 430l26 287h-123l29 348h144l67 287h410l-27 -287h205l-29 -348h-205l-20 -225q-5 -56 23 -89.5t79 -33.5q44 0 92 10l-32 -379q-131 -41 -267 -41q-184 0 -286.5 133t-85.5 338z" />
    <glyph glyph-name="u" unicode="u" 
d="M428 -41q-151 0 -238.5 115.5t-72.5 294.5l59 696h471l-49 -573q-4 -55 18.5 -89t63.5 -34t69.5 34t32.5 89l49 573h472l-93 -1065h-450l14 160q-146 -201 -346 -201z" />
    <glyph glyph-name="v" unicode="v" horiz-adv-x="1353" 
d="M340 0l-246 1065h502l113 -713l235 713h502l-430 -1065h-676z" />
    <glyph glyph-name="w" unicode="w" horiz-adv-x="1980" 
d="M305 0l-190 1065h487l76 -588l211 588h387l129 -602l180 602h467l-375 -1065h-573l-68 512l-157 -512h-574z" />
    <glyph glyph-name="x" unicode="x" horiz-adv-x="1456" 
d="M596 0h-573l397 553l-291 512h559l111 -260l155 260h559l-376 -512l299 -553h-574l-108 291z" />
    <glyph glyph-name="y" unicode="y" horiz-adv-x="1345" 
d="M199 -451l26 318q30 -10 103 -10q35 0 50.5 0.5t42 3.5t40 10.5t31.5 20t30 33.5t23 50l-451 1090h512l162 -498l186 498h482l-498 -1126q-105 -235 -224.5 -333t-273.5 -98q-138 0 -241 41z" />
    <glyph glyph-name="z" unicode="z" horiz-adv-x="1189" 
d="M535 696h-369l31 369h983l-27 -307l-375 -389h363l-33 -369h-1024l27 307z" />
    <glyph glyph-name="braceleft" unicode="{" horiz-adv-x="944" 
d="M815 -61h123l-27 -308h-430q-129 0 -200.5 79t-59.5 208l29 328q5 65 -31 104t-100 39h-21l35 410h21q65 0 108 39.5t47 103.5l27 307q12 129 98 208t215 79h430l-28 -307h-123q-64 0 -107 -39.5t-49 -104.5l-14 -184q-12 -129 -99 -213.5t-217 -91.5l-20 -2l20 -2
q129 -7 200.5 -91.5t59.5 -213.5l-16 -205q-6 -65 29.5 -104t99.5 -39z" />
    <glyph glyph-name="bar" unicode="|" horiz-adv-x="659" 
d="M260 1536h410l-176 -2007h-410z" />
    <glyph glyph-name="braceright" unicode="}" horiz-adv-x="944" 
d="M399 -369h-430l27 308h123q65 0 108 39.5t49 103.5l17 205q12 129 98 213.5t215 91.5l21 2l-21 2q-127 7 -198.5 91.5t-59.5 213.5l14 184q6 64 -30 104t-101 40h-122l28 307h430q129 0 200.5 -79t59.5 -208l-26 -307q-5 -65 31 -104t100 -39h20l-34 -410h-21
q-65 0 -108.5 -39.5t-47.5 -103.5l-28 -328q-12 -129 -98.5 -208t-215.5 -79z" />
    <glyph glyph-name="asciitilde" unicode="~" horiz-adv-x="1294" 
d="M479 901q54 0 114 -21t111 -51t99.5 -60.5t96.5 -51.5t85 -21q51 0 105 23t92 59l90 -307q-79 -73 -176 -118.5t-172 -45.5q-55 0 -116.5 21t-115.5 51.5t-105.5 60.5t-102 51t-89.5 21q-42 0 -91.5 -23t-90.5 -59l-84 307q79 73 176.5 118.5t173.5 45.5z" />
    <glyph glyph-name="exclamdown" unicode="&#xa1;" horiz-adv-x="757" 
d="M705 799q-9 -107 -87.5 -176.5t-189.5 -69.5q-112 0 -178 69.5t-57 176.5t87 176t191 69q111 0 177 -69t57 -176zM137 -61l170 532h225l76 -532l-35 -410h-471z" />
    <glyph glyph-name="cent" unicode="&#xa2;" horiz-adv-x="1304" 
d="M831 -23l-18 -223h-389l20 244q-168 61 -259 203.5t-74 330.5q17 190 132.5 333t295.5 204l16 201h389l-16 -183q167 -42 272 -160.5t109 -277.5l-437 -55q-6 54 -42 88.5t-87 34.5q-63 0 -109 -53t-52 -132q-8 -80 28.5 -132t100.5 -52q51 0 93.5 34.5t57.5 88.5
l426 -51q-32 -161 -158 -281t-299 -162z" />
    <glyph glyph-name="sterling" unicode="&#xa3;" horiz-adv-x="1437" 
d="M963 1137q-35 0 -62 -32t-31 -81l-12 -143h389l-24 -267h-416q-38 -76 -113.5 -140t-175.5 -105h889l-33 -369h-1311l37 410q79 26 140 80.5t90 123.5h-193l25 267h205l14 163q19 211 177 346.5t390 135.5q148 0 266.5 -57.5t185.5 -160.5t68 -231l-415 -63
q-3 54 -28 88.5t-62 34.5z" />
    <glyph glyph-name="currency" unicode="&#xa4;" horiz-adv-x="1470" 
d="M1114 1012l115 135l254 -205l-127 -149q57 -114 45 -261q-11 -140 -90 -262l106 -153l-295 -199l-92 133q-133 -51 -291 -51q-163 0 -282 49l-133 -131l-250 199l141 153q-55 113 -43 262q12 146 88 261l-98 149l289 205l90 -133q133 51 290 51q162 0 283 -53zM930 532
q6 84 -28.5 134.5t-98.5 50.5q-65 0 -109.5 -51t-50.5 -134q-7 -83 27.5 -133.5t99.5 -50.5t109 50.5t51 133.5z" />
    <glyph glyph-name="yen" unicode="&#xa5;" horiz-adv-x="1648" 
d="M518 659l-366 816h571l188 -574l265 574h579l-500 -816h244l-18 -204h-344l-7 -86h345l-19 -205h-344l-14 -164h-533l15 164h-353l19 205h352l6 86h-352l18 204h248z" />
    <glyph glyph-name="section" unicode="&#xa7;" horiz-adv-x="1353" 
d="M791 1444q207 0 340 -85t159 -243l-387 -53q-2 59 -41.5 97t-103.5 38q-47 0 -79.5 -20.5t-35.5 -51.5t32.5 -54t83.5 -36t127 -31q5 -1 7 -1q47 -11 72 -16.5t70.5 -18t71.5 -22t64 -25.5t60 -32t47.5 -39t38 -47.5t20 -56t4.5 -67.5q-9 -101 -84 -175.5t-194 -107.5
q164 -94 145 -293q-15 -182 -180.5 -301.5t-400.5 -119.5q-213 0 -350.5 97t-145.5 249l381 53q3 -58 48.5 -95.5t111.5 -37.5q48 0 83 18t38 47q1 19 -6 35t-28 29.5t-37.5 22.5t-55 20.5t-58.5 17t-69 17.5t-77 19t-75 20.5t-75 26.5t-65 32.5t-58.5 42t-41.5 51t-27 64.5
t-3 77q7 96 70.5 169t164.5 106q-144 87 -125 280q15 181 168.5 290.5t395.5 109.5zM604 684q-26 -4 -45 -24.5t-22 -43.5q-1 -30 30 -55t84 -37q6 -2 162 -39q35 4 60 23.5t28 44.5q1 24 -20 44.5t-56 29.5q-21 5 -113 29t-108 28z" />
    <glyph glyph-name="dieresis" unicode="&#xa8;" horiz-adv-x="1130" 
d="M377 1126q-94 0 -149.5 58t-47.5 147q7 89 73.5 147t160.5 58t149 -58t47 -147q-7 -89 -73 -147t-160 -58zM950 1126q-94 0 -149 58t-47 147q7 89 73 147t160 58t149.5 -58t47.5 -147q-7 -89 -73.5 -147t-160.5 -58z" />
    <glyph glyph-name="copyright" unicode="&#xa9;" horiz-adv-x="2172" 
d="M111 543q25 286 171.5 504.5t389.5 338t547 119.5q228 0 412.5 -69.5t307 -194.5t181 -304.5t39.5 -393.5q-19 -219 -109 -402t-234.5 -311t-341.5 -199t-425 -71t-412.5 71t-306.5 199t-180 311t-39 402zM418 543q-18 -213 57 -376t230 -252t368 -89q322 0 536 197
t242 520q18 207 -57 365t-230 244.5t-368 86.5q-323 0 -536.5 -191.5t-241.5 -504.5zM1679 647l-319 -47q-8 87 -59.5 143t-126.5 56q-87 0 -153.5 -74.5t-76.5 -192.5q-10 -115 42.5 -190.5t139.5 -75.5q75 0 137 56.5t85 144.5l305 -55q-31 -188 -188 -310t-369 -122
q-237 0 -379 153t-121 399q20 241 186.5 397t403.5 156q211 0 349.5 -123.5t143.5 -314.5z" />
    <glyph glyph-name="guillemotleft" unicode="&#xab;" horiz-adv-x="1556" 
d="M952 1065l-389 -512l297 -553h-469l-278 553l370 512h469zM1587 1065l-389 -512l297 -553h-469l-278 553l370 512h469z" />
    <glyph glyph-name="logicalnot" unicode="&#xac;" 
d="M913 143l27 308h-838l33 368h1168l-60 -676h-330z" />
    <glyph glyph-name="registered" unicode="&#xae;" horiz-adv-x="2172" 
d="M111 543q25 286 171.5 504.5t389.5 338t547 119.5q228 0 412.5 -69.5t307 -194.5t181 -304.5t39.5 -393.5q-19 -219 -109 -402t-234.5 -311t-341.5 -199t-425 -71t-412.5 71t-306.5 199t-180 311t-39 402zM1851 543q18 207 -57 365t-230 244.5t-368 86.5
q-323 0 -536.5 -191.5t-241.5 -504.5q-18 -213 57 -376t230 -252t368 -89q322 0 536 197t242 520zM967 20h-328l90 1045h518q191 0 300.5 -90t97.5 -238q-9 -103 -78 -180.5t-181 -116.5l177 -420h-371l-111 390h-80zM1305 727q5 62 -31 97.5t-113 35.5h-121l-24 -266h121
q69 0 115.5 35t52.5 98z" />
    <glyph glyph-name="macron" unicode="&#xaf;" horiz-adv-x="884" 
d="M950 1475l-22 -267h-758l23 267h757z" />
    <glyph glyph-name="degree" unicode="&#xb0;" horiz-adv-x="1150" 
d="M633 645q-230 0 -360 129.5t-111 341.5t171 341.5t382 129.5t360 -129.5t111 -341.5t-171 -341.5t-382 -129.5zM690 1300q-84 0 -139.5 -50.5t-61.5 -133.5q-7 -83 39 -133.5t129 -50.5t138.5 50.5t62.5 133.5q6 84 -39.5 134t-128.5 50z" />
    <glyph glyph-name="plusminus" unicode="&#xb1;" horiz-adv-x="1089" 
d="M88 287h963l-25 -287h-963zM756 410h-348l14 184h-307l26 287h308l14 184h348l-14 -184h307l-27 -287h-307z" />
    <glyph glyph-name="acute" unicode="&#xb4;" horiz-adv-x="796" 
d="M827 1536l-354 -369h-307l258 369h403z" />
    <glyph glyph-name="paragraph" unicode="&#xb6;" horiz-adv-x="1806" 
d="M1802 1147h-205l-135 -1557h-409l135 1557h-144l-135 -1557h-409l86 983q-214 0 -333 124.5t-99 326.5q19 203 159 327t351 124h1167z" />
    <glyph glyph-name="periodcentered" unicode="&#xb7;" horiz-adv-x="638" 
d="M356 410q-111 0 -177.5 69t-57.5 176t88 176.5t190 69.5q112 0 177.5 -69t56.5 -177q-9 -107 -87 -176t-190 -69z" />
    <glyph glyph-name="cedilla" unicode="&#xb8;" horiz-adv-x="634" 
d="M205 -266h-103l91 327h225l-62 -225q91 0 141.5 -51.5t43.5 -136.5q-7 -90 -90 -145.5t-209 -55.5q-75 0 -134 34t-81 89l110 102q10 -28 35.5 -44.5t56.5 -16.5t50 16.5t22 44.5t-23.5 45t-72.5 17z" />
    <glyph glyph-name="guillemotright" unicode="&#xbb;" horiz-adv-x="1554" 
d="M907 553l-377 -553h-469l396 553l-303 512h469zM1542 553l-377 -553h-469l396 553l-304 512h469z" />
    <glyph glyph-name="questiondown" unicode="&#xbf;" horiz-adv-x="1374" 
d="M541 532h409q-14 -147 -67.5 -236t-171.5 -161q-32 -19 -46.5 -28t-39 -28.5t-36.5 -41t-14 -47.5q-4 -44 24.5 -73.5t74.5 -29.5q64 0 111.5 53.5t62.5 139.5l465 -86q-37 -219 -229 -357.5t-466 -138.5q-260 0 -419 123.5t-142 315.5q10 120 86.5 215.5t192.5 146.5
q38 17 63.5 30.5t52.5 33.5t44 42.5t29 55t16 71.5zM1036 819q-9 -107 -87 -176.5t-189 -69.5q-112 0 -178.5 69.5t-57.5 176.5t87 176.5t190 69.5q111 0 177.5 -69.5t57.5 -176.5z" />
    <glyph glyph-name="Agrave" unicode="&#xc0;" horiz-adv-x="1646" 
d="M1341 1475l304 -1475h-555l-31 184h-438l-64 -184h-555l561 1475h778zM913 1026l-163 -473h245zM797 1618l-295 328h405l209 -328h-319z" />
    <glyph glyph-name="Aacute" unicode="&#xc1;" horiz-adv-x="1646" 
d="M1341 1475l304 -1475h-555l-31 184h-438l-64 -184h-555l561 1475h778zM913 1026l-163 -473h245zM1450 1946l-352 -328h-322l268 328h406z" />
    <glyph glyph-name="Acircumflex" unicode="&#xc2;" horiz-adv-x="1646" 
d="M1341 1475l304 -1475h-555l-31 184h-438l-64 -184h-555l561 1475h778zM913 1026l-163 -473h245zM840 1618h-287l213 328h451l155 -328h-287l-108 164z" />
    <glyph glyph-name="Atilde" unicode="&#xc3;" horiz-adv-x="1646" 
d="M1341 1475l304 -1475h-555l-31 184h-438l-64 -184h-555l561 1475h778zM913 1026l-163 -473h245zM711 1686l-203 106q39 98 132.5 167t193.5 69q63 0 120.5 -26t100.5 -51.5t69 -25.5q28 0 58 21.5t49 54.5l207 -107q-39 -97 -137.5 -166t-202.5 -69q-52 0 -100.5 16
t-78 35t-61 35t-53.5 16q-49 0 -94 -75z" />
    <glyph glyph-name="Adieresis" unicode="&#xc4;" horiz-adv-x="1646" 
d="M1341 1475l304 -1475h-555l-31 184h-438l-64 -184h-555l561 1475h778zM913 1026l-163 -473h245zM674 1597q-94 0 -149.5 60.5t-47.5 154.5q9 94 75.5 155t160.5 61t148.5 -61t45.5 -155q-7 -94 -73 -154.5t-160 -60.5zM1247 1597q-94 0 -149 60.5t-47 154.5q9 94 75 155
t160 61t149 -61t46 -155q-7 -94 -73.5 -154.5t-160.5 -60.5z" />
    <glyph glyph-name="Aring" unicode="&#xc5;" horiz-adv-x="1646" 
d="M1341 1475l304 -1475h-555l-31 184h-438l-64 -184h-555l561 1475h778zM913 1026l-163 -473h245zM961 1567q-143 0 -223 76t-70 200t104.5 200.5t237.5 76.5q142 0 223 -76t70 -201q-10 -124 -104.5 -200t-237.5 -76zM991 1915q-32 0 -53.5 -20t-24.5 -52t15.5 -51.5
t50.5 -19.5t53.5 19.5t24.5 51.5t-15.5 52t-50.5 20z" />
    <glyph glyph-name="AE" unicode="&#xc6;" horiz-adv-x="2148" 
d="M2124 410l-37 -410h-983l16 184h-428l-100 -184h-590l842 1475h1351l-36 -410h-492l-12 -143h409l-28 -349h-410l-14 -163h512zM1151 532l51 590l-319 -590h268z" />
    <glyph glyph-name="Ccedilla" unicode="&#xc7;" horiz-adv-x="1724" 
d="M819 -266h-102l59 221q-207 21 -361 126t-229.5 276t-56.5 380q14 169 88.5 315.5t191 250.5t274 163.5t333.5 59.5q209 0 375 -79.5t257.5 -221.5t88.5 -320l-496 -51q-7 96 -77 158.5t-169 62.5q-138 0 -229.5 -93t-103.5 -245q-13 -152 62 -245t210 -93
q98 0 180.5 62.5t110.5 159.5l487 -52q-34 -243 -230.5 -411.5t-480.5 -200.5l-30 -121q91 0 141.5 -51.5t42.5 -136.5q-7 -90 -90 -145.5t-209 -55.5q-75 0 -134 34t-81 89l111 102q10 -28 35.5 -44.5t56.5 -16.5q30 0 49 16.5t22 44.5t-23.5 45t-72.5 17z" />
    <glyph glyph-name="Egrave" unicode="&#xc8;" horiz-adv-x="1271" 
d="M674 410h573l-37 -410h-1085l129 1475h1065l-37 -410h-553l-12 -143h471l-29 -349h-471zM674 1618l-295 328h405l209 -328h-319z" />
    <glyph glyph-name="Eacute" unicode="&#xc9;" horiz-adv-x="1271" 
d="M674 410h573l-37 -410h-1085l129 1475h1065l-37 -410h-553l-12 -143h471l-29 -349h-471zM1286 1946l-352 -328h-322l269 328h405z" />
    <glyph glyph-name="Ecircumflex" unicode="&#xca;" horiz-adv-x="1271" 
d="M674 410h573l-37 -410h-1085l129 1475h1065l-37 -410h-553l-12 -143h471l-29 -349h-471zM676 1618h-287l213 328h451l155 -328h-286l-109 164z" />
    <glyph glyph-name="Edieresis" unicode="&#xcb;" horiz-adv-x="1271" 
d="M674 410h573l-37 -410h-1085l129 1475h1065l-37 -410h-553l-12 -143h471l-29 -349h-471zM510 1597q-94 0 -149.5 60.5t-47.5 154.5q9 94 75.5 155t160.5 61t148.5 -61t45.5 -155q-7 -94 -73 -154.5t-160 -60.5zM1083 1597q-94 0 -149 60.5t-47 154.5q9 94 75 155t160 61
t149 -61t46 -155q-7 -94 -73.5 -154.5t-160.5 -60.5z" />
    <glyph glyph-name="Igrave" unicode="&#xcc;" horiz-adv-x="780" 
d="M784 1475l-129 -1475h-532l129 1475h532zM365 1618l-295 328h405l209 -328h-319z" />
    <glyph glyph-name="Iacute" unicode="&#xcd;" horiz-adv-x="788" 
d="M786 1475l-129 -1475h-532l129 1475h532zM1020 1946l-352 -328h-322l268 328h406z" />
    <glyph glyph-name="Icircumflex" unicode="&#xce;" horiz-adv-x="782" 
d="M786 1475l-129 -1475h-532l129 1475h532zM410 1618h-287l213 328h450l156 -328h-287l-108 164z" />
    <glyph glyph-name="Idieresis" unicode="&#xcf;" horiz-adv-x="761" 
d="M776 1475l-129 -1475h-532l129 1475h532zM233 1597q-94 0 -149 60.5t-47 154.5q9 94 75 155t160 61t149 -61t46 -155q-7 -94 -73.5 -154.5t-160.5 -60.5zM807 1597q-94 0 -149.5 60.5t-47.5 154.5q9 94 75.5 155t160.5 61t148.5 -61t45.5 -155q-7 -94 -73 -154.5
t-160 -60.5z" />
    <glyph glyph-name="Ntilde" unicode="&#xd1;" horiz-adv-x="1703" 
d="M786 1475l357 -834l74 834h491l-129 -1475h-532l-359 829l-72 -829h-491l129 1475h532zM745 1686l-202 106q39 98 132 167t193 69q63 0 121 -26t101 -51.5t69 -25.5q28 0 58 21.5t49 54.5l207 -107q-39 -97 -137.5 -166t-202.5 -69q-52 0 -100.5 16t-78 35t-61 35
t-53.5 16q-50 0 -95 -75z" />
    <glyph glyph-name="Ograve" unicode="&#xd2;" horiz-adv-x="1804" 
d="M129 737q15 175 88.5 322.5t191 250t279 159.5t348.5 57q249 0 431.5 -98t271.5 -277.5t69 -413.5q-21 -234 -141 -413t-319.5 -277t-448.5 -98q-250 0 -432 98t-270.5 277t-67.5 413zM662 737q-14 -152 62 -245t214 -93t231.5 93t106.5 245q12 152 -64.5 245t-214.5 93
t-230.5 -93t-104.5 -245zM879 1618l-295 328h405l209 -328h-319z" />
    <glyph glyph-name="Oacute" unicode="&#xd3;" horiz-adv-x="1804" 
d="M129 737q15 175 88.5 322.5t191 250t279 159.5t348.5 57q249 0 431.5 -98t271.5 -277.5t69 -413.5q-21 -234 -141 -413t-319.5 -277t-448.5 -98q-250 0 -432 98t-270.5 277t-67.5 413zM662 737q-14 -152 62 -245t214 -93t231.5 93t106.5 245q12 152 -64.5 245t-214.5 93
t-230.5 -93t-104.5 -245zM1532 1946l-352 -328h-322l268 328h406z" />
    <glyph glyph-name="Ocircumflex" unicode="&#xd4;" horiz-adv-x="1804" 
d="M129 737q15 175 88.5 322.5t191 250t279 159.5t348.5 57q249 0 431.5 -98t271.5 -277.5t69 -413.5q-21 -234 -141 -413t-319.5 -277t-448.5 -98q-250 0 -432 98t-270.5 277t-67.5 413zM662 737q-14 -152 62 -245t214 -93t231.5 93t106.5 245q12 152 -64.5 245t-214.5 93
t-230.5 -93t-104.5 -245zM922 1618h-287l213 328h450l156 -328h-287l-108 164z" />
    <glyph glyph-name="Otilde" unicode="&#xd5;" horiz-adv-x="1804" 
d="M129 737q15 175 88.5 322.5t191 250t279 159.5t348.5 57q249 0 431.5 -98t271.5 -277.5t69 -413.5q-21 -234 -141 -413t-319.5 -277t-448.5 -98q-250 0 -432 98t-270.5 277t-67.5 413zM662 737q-14 -152 62 -245t214 -93t231.5 93t106.5 245q12 152 -64.5 245t-214.5 93
t-230.5 -93t-104.5 -245zM793 1686l-203 106q39 98 132 167t193 69q63 0 121 -26t101 -51.5t69 -25.5q28 0 58 21.5t49 54.5l207 -107q-39 -97 -137.5 -166t-202.5 -69q-52 0 -100.5 16t-78 35t-61 35t-53.5 16q-49 0 -94 -75z" />
    <glyph glyph-name="Odieresis" unicode="&#xd6;" horiz-adv-x="1804" 
d="M129 737q15 175 88.5 322.5t191 250t279 159.5t348.5 57q249 0 431.5 -98t271.5 -277.5t69 -413.5q-21 -234 -141 -413t-319.5 -277t-448.5 -98q-250 0 -432 98t-270.5 277t-67.5 413zM662 737q-14 -152 62 -245t214 -93t231.5 93t106.5 245q12 152 -64.5 245t-214.5 93
t-230.5 -93t-104.5 -245zM756 1597q-94 0 -149.5 60.5t-47.5 154.5q9 94 75.5 155t160.5 61t148.5 -61t45.5 -155q-7 -94 -73 -154.5t-160 -60.5zM1329 1597q-94 0 -149 60.5t-47 154.5q9 94 75 155t160 61t149 -61t46 -155q-7 -94 -73.5 -154.5t-160.5 -60.5z" />
    <glyph glyph-name="multiply" unicode="&#xd7;" horiz-adv-x="1028" 
d="M344 164l-244 266l201 184l-168 185l289 266l170 -184l199 184l245 -264l-202 -187l167 -184l-288 -266l-168 184z" />
    <glyph glyph-name="Oslash" unicode="&#xd8;" horiz-adv-x="1763" 
d="M1280 1487l166 274h258l-227 -368q155 -106 231.5 -276.5t58.5 -379.5q-20 -226 -141 -406t-317 -281t-430 -101q-140 0 -265 39l-165 -275h-259l226 369q-154 104 -230.5 274.5t-56.5 380.5q14 169 88.5 315.5t191 250.5t274 163.5t333.5 59.5q136 0 264 -39zM662 737
q-12 -117 32 -200l328 534q-28 4 -45 4q-125 0 -214 -95.5t-101 -242.5zM1235 737q9 114 -37 201l-328 -535q14 -4 48 -4q125 0 214.5 95t102.5 243z" />
    <glyph glyph-name="Ugrave" unicode="&#xd9;" horiz-adv-x="1662" 
d="M1083 645l72 830h533l-74 -850q-28 -305 -244 -490.5t-543 -185.5q-216 0 -374 84t-234.5 237.5t-58.5 354.5l73 850h533l-72 -830q-8 -97 34 -168t138 -78q88 0 147 67.5t70 178.5zM807 1618l-295 328h406l208 -328h-319z" />
    <glyph glyph-name="Uacute" unicode="&#xda;" horiz-adv-x="1662" 
d="M1083 645l72 830h533l-74 -850q-28 -305 -244 -490.5t-543 -185.5q-216 0 -374 84t-234.5 237.5t-58.5 354.5l73 850h533l-72 -830q-8 -97 34 -168t138 -78q88 0 147 67.5t70 178.5zM1460 1946l-352 -328h-322l269 328h405z" />
    <glyph glyph-name="Ucircumflex" unicode="&#xdb;" horiz-adv-x="1662" 
d="M1083 645l72 830h533l-74 -850q-28 -305 -244 -490.5t-543 -185.5q-216 0 -374 84t-234.5 237.5t-58.5 354.5l73 850h533l-72 -830q-8 -97 34 -168t138 -78q88 0 147 67.5t70 178.5zM850 1618h-287l213 328h451l155 -328h-286l-109 164z" />
    <glyph glyph-name="Udieresis" unicode="&#xdc;" horiz-adv-x="1662" 
d="M1083 645l72 830h533l-74 -850q-28 -305 -244 -490.5t-543 -185.5q-216 0 -374 84t-234.5 237.5t-58.5 354.5l73 850h533l-72 -830q-8 -97 34 -168t138 -78q88 0 147 67.5t70 178.5zM684 1597q-94 0 -149.5 60.5t-47.5 154.5q9 94 75.5 155t160.5 61t149 -61t46 -155
q-7 -94 -73.5 -154.5t-160.5 -60.5zM1257 1597q-94 0 -149 60.5t-47 154.5q9 94 75 155t160 61t149 -61t46 -155q-7 -94 -73.5 -154.5t-160.5 -60.5z" />
    <glyph glyph-name="Yacute" unicode="&#xdd;" horiz-adv-x="1521" 
d="M545 492l-416 983h551l170 -533l242 533h559l-574 -983l-43 -492h-532zM1391 1946l-353 -328h-319l266 328h406z" />
    <glyph glyph-name="germandbls" unicode="&#xdf;" horiz-adv-x="1660" 
d="M725 1004l-88 -1004h-533l86 983q22 245 231 394t531 149q292 0 453.5 -126.5t142.5 -334.5q-6 -84 -63 -149t-152 -101q131 -37 212.5 -154t68.5 -272q-17 -192 -167 -316t-364 -124q-85 0 -188 23t-176 57l98 295q66 -37 125 -37q56 0 96.5 44t46.5 111
q8 86 -46.5 139.5t-151.5 53.5h-94l24 266h103q66 0 108 33.5t47 89.5q6 72 -38 116t-122 44t-130.5 -49t-59.5 -131z" />
    <glyph glyph-name="agrave" unicode="&#xe0;" horiz-adv-x="1398" 
d="M905 938l10 127h471l-92 -1065h-471l11 127q-59 -80 -140 -124t-172 -44q-209 0 -321.5 157.5t-89.5 415.5q22 258 162.5 416t349.5 158q92 0 164.5 -44t117.5 -124zM711 369q63 0 107 46t50 117t-30 117.5t-99 46.5t-107 -46.5t-50 -117.5t30 -117t99 -46zM365 1556h403
l195 -368h-308z" />
    <glyph glyph-name="aacute" unicode="&#xe1;" horiz-adv-x="1398" 
d="M905 938l10 127h471l-92 -1065h-471l11 127q-59 -80 -140 -124t-172 -44q-209 0 -321.5 157.5t-89.5 415.5q22 258 162.5 416t349.5 158q92 0 164.5 -44t117.5 -124zM711 369q63 0 107 46t50 117t-30 117.5t-99 46.5t-107 -46.5t-50 -117.5t30 -117t99 -46zM856 1556h404
l-353 -368h-307z" />
    <glyph glyph-name="acircumflex" unicode="&#xe2;" horiz-adv-x="1398" 
d="M905 938l10 127h471l-92 -1065h-471l11 127q-59 -80 -140 -124t-172 -44q-209 0 -321.5 157.5t-89.5 415.5q22 258 162.5 416t349.5 158q92 0 164.5 -44t117.5 -124zM711 369q63 0 107 46t50 117t-30 117.5t-99 46.5t-107 -46.5t-50 -117.5t30 -117t99 -46zM662 1188
h-302l230 368h450l168 -368h-301l-106 205z" />
    <glyph glyph-name="atilde" unicode="&#xe3;" horiz-adv-x="1398" 
d="M905 938l10 127h471l-92 -1065h-471l11 127q-59 -80 -140 -124t-172 -44q-209 0 -321.5 157.5t-89.5 415.5q22 258 162.5 416t349.5 158q92 0 164.5 -44t117.5 -124zM711 369q63 0 107 46t50 117t-30 117.5t-99 46.5t-107 -46.5t-50 -117.5t30 -117t99 -46zM551 1235
l-205 106q40 99 133 167.5t193 68.5q49 0 97 -16t78.5 -35t63 -35t54.5 -16q28 0 57 20.5t49 54.5l207 -106q-41 -97 -138.5 -166.5t-201.5 -69.5q-52 0 -100.5 16t-78 35.5t-61 35.5t-53.5 16q-48 0 -94 -76z" />
    <glyph glyph-name="adieresis" unicode="&#xe4;" horiz-adv-x="1398" 
d="M905 938l10 127h471l-92 -1065h-471l11 127q-59 -80 -140 -124t-172 -44q-209 0 -321.5 157.5t-89.5 415.5q22 258 162.5 416t349.5 158q92 0 164.5 -44t117.5 -124zM711 369q63 0 107 46t50 117t-30 117.5t-99 46.5t-107 -46.5t-50 -117.5t30 -117t99 -46zM496 1174
q-94 0 -149.5 57.5t-47.5 146.5q7 89 73 147t160 58t149.5 -58t47.5 -147q-7 -89 -73 -146.5t-160 -57.5zM1069 1174q-94 0 -149.5 57.5t-47.5 146.5q7 89 73.5 147t160.5 58t149.5 -58t47.5 -147q-7 -89 -73.5 -146.5t-160.5 -57.5z" />
    <glyph glyph-name="aring" unicode="&#xe5;" horiz-adv-x="1398" 
d="M905 938l10 127h471l-92 -1065h-471l11 127q-59 -80 -140 -124t-172 -44q-209 0 -321.5 157.5t-89.5 415.5q22 258 162.5 416t349.5 158q92 0 164.5 -44t117.5 -124zM711 369q63 0 107 46t50 117t-30 117.5t-99 46.5t-107 -46.5t-50 -117.5t30 -117t99 -46zM782 1167
q-157 0 -245 85t-76 223t115 222.5t260 84.5t245 -84.5t76 -222.5t-115 -223t-260 -85zM817 1577q-46 0 -75.5 -28t-34.5 -74q-4 -46 22 -74.5t72 -28.5q45 0 75 28.5t35 74.5q4 46 -22 74t-72 28z" />
    <glyph glyph-name="ae" unicode="&#xe6;" horiz-adv-x="2113" 
d="M2099 543q-5 -76 -16 -133h-723q5 -54 44 -88.5t99 -34.5q47 0 88 23.5t54 58.5l391 -56q-60 -154 -212 -254t-325 -100q-124 0 -222 51.5t-138 134.5l-13 -145h-266l12 139q-65 -87 -153.5 -133.5t-190.5 -46.5q-212 0 -327 157.5t-92 415.5q22 258 165 416t355 158
q101 0 181 -47t132 -133l10 139h267l-13 -156q58 89 168.5 143t243.5 54q152 0 266.5 -72t171.5 -200.5t43 -290.5zM580 532q-8 -92 32 -148t113 -56q74 0 124.5 56t57.5 148q8 92 -32 148.5t-113 56.5q-74 0 -124.5 -56.5t-57.5 -148.5zM1374 614h260q0 60 -32.5 102
t-83.5 42t-88.5 -36t-55.5 -108z" />
    <glyph glyph-name="ccedilla" unicode="&#xe7;" horiz-adv-x="1304" 
d="M571 -266h-102l66 237q-208 42 -325.5 195t-98.5 366q22 249 208 411.5t451 162.5q148 0 270 -58.5t194 -163.5t75 -235l-437 -55q-6 54 -42 88.5t-87 34.5q-63 0 -109 -53t-52 -132q-8 -80 28.5 -132t100.5 -52q51 0 93.5 34.5t57.5 88.5l426 -51q-35 -179 -183 -304.5
t-347 -150.5l-35 -129q91 0 141.5 -51.5t42.5 -136.5q-7 -90 -90 -145.5t-209 -55.5q-75 0 -134 34t-81 89l111 102q10 -28 35.5 -44.5t56.5 -16.5t50 16.5t22 44.5t-24 45t-73 17z" />
    <glyph glyph-name="egrave" unicode="&#xe8;" horiz-adv-x="1335" 
d="M723 287q96 0 131 82l406 -52q-29 -102 -115 -184t-212.5 -128t-268.5 -46q-269 0 -422.5 158t-130.5 415q22 257 207 415.5t456 158.5q272 0 419 -159t124 -421q-4 -73 -14 -116h-717q25 -123 137 -123zM598 635h258q5 56 -28.5 99.5t-88.5 43.5q-100 0 -141 -143z
M362 1556h404l195 -368h-308z" />
    <glyph glyph-name="eacute" unicode="&#xe9;" horiz-adv-x="1335" 
d="M723 287q96 0 131 82l406 -52q-29 -102 -115 -184t-212.5 -128t-268.5 -46q-269 0 -422.5 158t-130.5 415q22 257 207 415.5t456 158.5q272 0 419 -159t124 -421q-4 -73 -14 -116h-717q25 -123 137 -123zM598 635h258q5 56 -28.5 99.5t-88.5 43.5q-100 0 -141 -143z
M854 1556h403l-352 -368h-307z" />
    <glyph glyph-name="ecircumflex" unicode="&#xea;" horiz-adv-x="1335" 
d="M723 287q96 0 131 82l406 -52q-29 -102 -115 -184t-212.5 -128t-268.5 -46q-269 0 -422.5 158t-130.5 415q22 257 207 415.5t456 158.5q272 0 419 -159t124 -421q-4 -73 -14 -116h-717q25 -123 137 -123zM598 635h258q5 56 -28.5 99.5t-88.5 43.5q-100 0 -141 -143z
M659 1188h-301l230 368h450l168 -368h-301l-106 205z" />
    <glyph glyph-name="edieresis" unicode="&#xeb;" horiz-adv-x="1335" 
d="M723 287q96 0 131 82l406 -52q-29 -102 -115 -184t-212.5 -128t-268.5 -46q-269 0 -422.5 158t-130.5 415q22 257 207 415.5t456 158.5q272 0 419 -159t124 -421q-4 -73 -14 -116h-717q25 -123 137 -123zM598 635h258q5 56 -28.5 99.5t-88.5 43.5q-100 0 -141 -143z
M494 1174q-94 0 -149.5 57.5t-47.5 146.5q7 89 73 147t160 58t149.5 -58t47.5 -147q-7 -89 -73 -146.5t-160 -57.5zM1067 1174q-94 0 -149.5 57.5t-47.5 146.5q7 89 73.5 147t160.5 58t149 -58t47 -147q-7 -89 -73 -146.5t-160 -57.5z" />
    <glyph glyph-name="igrave" unicode="&#xec;" horiz-adv-x="688" 
d="M678 1065l-92 -1065h-471l92 1065h471zM35 1556h403l195 -368h-307z" />
    <glyph glyph-name="iacute" unicode="&#xed;" horiz-adv-x="684" 
d="M668 1065l-93 -1065h-471l93 1065h471zM518 1556h404l-353 -368h-309z" />
    <glyph glyph-name="icircumflex" unicode="&#xee;" horiz-adv-x="688" 
d="M672 1065l-92 -1065h-471l92 1065h471zM326 1188h-301l229 368h451l167 -368h-301l-106 205z" />
    <glyph glyph-name="idieresis" unicode="&#xef;" horiz-adv-x="679" 
d="M668 1065l-93 -1065h-471l93 1065h471zM156 1174q-94 0 -149.5 57.5t-47.5 146.5q7 89 73.5 147t160.5 58t149 -58t47 -147q-7 -89 -73 -146.5t-160 -57.5zM729 1174q-94 0 -149.5 57.5t-47.5 146.5q7 89 73.5 147t160.5 58t149.5 -58t47.5 -147q-7 -89 -73.5 -146.5
t-160.5 -57.5z" />
    <glyph glyph-name="ntilde" unicode="&#xf1;" 
d="M979 1106q151 0 239.5 -116t73.5 -294l-61 -696h-471l51 573q4 55 -18.5 89t-63.5 34t-69.5 -34t-32.5 -89l-52 -573h-471l93 1065h450l-12 -160q146 201 344 201zM518 1235l-205 106q40 99 133 167.5t193 68.5q49 0 97 -16t78.5 -35t63 -35t54.5 -16q28 0 57 20.5
t49 54.5l207 -106q-41 -97 -138.5 -166.5t-201.5 -69.5q-52 0 -100.5 16t-78 35.5t-61 35.5t-53.5 16q-48 0 -94 -76z" />
    <glyph glyph-name="ograve" unicode="&#xf2;" horiz-adv-x="1355" 
d="M1339 532q-23 -258 -205.5 -415.5t-459.5 -157.5t-431.5 157.5t-131.5 415.5q22 258 204 416t459 158t432 -158t133 -416zM868 532q6 74 -29.5 119t-99.5 45t-107.5 -45t-49.5 -119t29.5 -118.5t99.5 -44.5q65 0 108 45t49 118zM362 1556h404l195 -368h-308z" />
    <glyph glyph-name="oacute" unicode="&#xf3;" horiz-adv-x="1355" 
d="M1339 532q-23 -258 -205.5 -415.5t-459.5 -157.5t-431.5 157.5t-131.5 415.5q22 258 204 416t459 158t432 -158t133 -416zM868 532q6 74 -29.5 119t-99.5 45t-107.5 -45t-49.5 -119t29.5 -118.5t99.5 -44.5q65 0 108 45t49 118zM854 1556h403l-352 -368h-307z" />
    <glyph glyph-name="ocircumflex" unicode="&#xf4;" horiz-adv-x="1355" 
d="M1339 532q-23 -258 -205.5 -415.5t-459.5 -157.5t-431.5 157.5t-131.5 415.5q22 258 204 416t459 158t432 -158t133 -416zM868 532q6 74 -29.5 119t-99.5 45t-107.5 -45t-49.5 -119t29.5 -118.5t99.5 -44.5q65 0 108 45t49 118zM659 1188h-301l230 368h450l168 -368h-301
l-106 205z" />
    <glyph glyph-name="otilde" unicode="&#xf5;" horiz-adv-x="1355" 
d="M1339 532q-23 -258 -205.5 -415.5t-459.5 -157.5t-431.5 157.5t-131.5 415.5q22 258 204 416t459 158t432 -158t133 -416zM868 532q6 74 -29.5 119t-99.5 45t-107.5 -45t-49.5 -119t29.5 -118.5t99.5 -44.5q65 0 108 45t49 118zM549 1235l-205 106q40 99 133 167.5
t193 68.5q49 0 97 -16t78.5 -35t63 -35t54.5 -16q28 0 57 20.5t49 54.5l207 -106q-41 -97 -138.5 -166.5t-201.5 -69.5q-52 0 -100.5 16t-78 35.5t-61 35.5t-53.5 16q-48 0 -94 -76z" />
    <glyph glyph-name="odieresis" unicode="&#xf6;" horiz-adv-x="1355" 
d="M1339 532q-23 -258 -205.5 -415.5t-459.5 -157.5t-431.5 157.5t-131.5 415.5q22 258 204 416t459 158t432 -158t133 -416zM868 532q6 74 -29.5 119t-99.5 45t-107.5 -45t-49.5 -119t29.5 -118.5t99.5 -44.5q65 0 108 45t49 118zM494 1174q-94 0 -149.5 57.5t-47.5 146.5
q7 89 73 147t160 58t149.5 -58t47.5 -147q-7 -89 -73 -146.5t-160 -57.5zM1067 1174q-94 0 -149.5 57.5t-47.5 146.5q7 89 73.5 147t160.5 58t149 -58t47 -147q-7 -89 -73 -146.5t-160 -57.5z" />
    <glyph glyph-name="divide" unicode="&#xf7;" horiz-adv-x="1048" 
d="M528 41q-94 0 -149.5 58t-46.5 147q8 89 72.5 147t158.5 58t150 -58t49 -147q-9 -89 -74.5 -147t-159.5 -58zM137 840h922l-29 -328h-921zM604 901q-94 0 -150 58t-48 147q7 89 73 147t160 58t149.5 -58t47.5 -147t-73 -147t-159 -58z" />
    <glyph glyph-name="oslash" unicode="&#xf8;" horiz-adv-x="1396" 
d="M983 1083l88 146h207l-131 -211q124 -73 185 -199t48 -287q-23 -258 -211.5 -415.5t-474.5 -157.5q-91 0 -188 23l-88 -146h-209l131 209q-124 73 -184 198.5t-45 288.5q22 258 210 416t474 158q94 0 188 -23zM520 532q-9 -89 27 -153l248 399h-29q-98 0 -167.5 -68.5
t-78.5 -177.5zM971 532q6 89 -29 152l-246 -395q8 -2 27 -2q101 0 169 67.5t79 177.5z" />
    <glyph glyph-name="ugrave" unicode="&#xf9;" 
d="M428 -41q-151 0 -238.5 115.5t-72.5 294.5l59 696h471l-49 -573q-4 -55 18.5 -89t63.5 -34t69.5 34t32.5 89l49 573h472l-93 -1065h-450l14 160q-146 -201 -346 -201zM332 1556h403l195 -368h-307z" />
    <glyph glyph-name="uacute" unicode="&#xfa;" 
d="M428 -41q-151 0 -238.5 115.5t-72.5 294.5l59 696h471l-49 -573q-4 -55 18.5 -89t63.5 -34t69.5 34t32.5 89l49 573h472l-93 -1065h-450l14 160q-146 -201 -346 -201zM823 1556h404l-353 -368h-307z" />
    <glyph glyph-name="ucircumflex" unicode="&#xfb;" 
d="M428 -41q-151 0 -238.5 115.5t-72.5 294.5l59 696h471l-49 -573q-4 -55 18.5 -89t63.5 -34t69.5 34t32.5 89l49 573h472l-93 -1065h-450l14 160q-146 -201 -346 -201zM629 1188h-301l229 368h451l168 -368h-302l-106 205z" />
    <glyph glyph-name="udieresis" unicode="&#xfc;" 
d="M428 -41q-151 0 -238.5 115.5t-72.5 294.5l59 696h471l-49 -573q-4 -55 18.5 -89t63.5 -34t69.5 34t32.5 89l49 573h472l-93 -1065h-450l14 160q-146 -201 -346 -201zM463 1174q-94 0 -149.5 57.5t-47.5 146.5q7 89 73.5 147t160.5 58t149 -58t47 -147q-7 -89 -73 -146.5
t-160 -57.5zM1036 1174q-94 0 -149 57.5t-47 146.5q7 89 73 147t160 58t149.5 -58t47.5 -147q-7 -89 -73.5 -146.5t-160.5 -57.5z" />
    <glyph glyph-name="yacute" unicode="&#xfd;" horiz-adv-x="1345" 
d="M199 -451l26 318q30 -10 103 -10q35 0 50.5 0.5t42 3.5t40 10.5t31.5 20t30 33.5t23 50l-451 1090h512l162 -498l186 498h482l-498 -1126q-105 -235 -224.5 -333t-273.5 -98q-138 0 -241 41zM850 1556h403l-352 -368h-307z" />
    <glyph glyph-name="ydieresis" unicode="&#xff;" horiz-adv-x="1345" 
d="M199 -451l26 318q30 -10 103 -10q35 0 50.5 0.5t42 3.5t40 10.5t31.5 20t30 33.5t23 50l-451 1090h512l162 -498l186 498h482l-498 -1126q-105 -235 -224.5 -333t-273.5 -98q-138 0 -241 41zM489 1174q-94 0 -149 57.5t-47 146.5q7 89 73 147t160 58t149.5 -58t47.5 -147
q-7 -89 -73.5 -146.5t-160.5 -57.5zM1063 1174q-94 0 -149.5 57.5t-47.5 146.5q7 89 73.5 147t160.5 58t149 -58t47 -147q-7 -89 -73 -146.5t-160 -57.5z" />
    <glyph glyph-name="Amacron" unicode="&#x100;" horiz-adv-x="1646" 
d="M1341 1475l304 -1475h-555l-31 184h-438l-64 -184h-555l561 1475h778zM913 1026l-163 -473h245zM1368 1925l-22 -266h-758l22 266h758z" />
    <glyph glyph-name="amacron" unicode="&#x101;" horiz-adv-x="1398" 
d="M905 938l10 127h471l-92 -1065h-471l11 127q-59 -80 -140 -124t-172 -44q-209 0 -321.5 157.5t-89.5 415.5q22 258 162.5 416t349.5 158q92 0 164.5 -44t117.5 -124zM711 369q63 0 107 46t50 117t-30 117.5t-99 46.5t-107 -46.5t-50 -117.5t30 -117t99 -46zM1149 1495
l-25 -266h-757l24 266h758z" />
    <glyph glyph-name="Abreve" unicode="&#x102;" horiz-adv-x="1646" 
d="M1341 1475l304 -1475h-555l-31 184h-438l-64 -184h-555l561 1475h778zM913 1026l-163 -473h245zM1073 1946h266q-12 -148 -115.5 -238t-260.5 -90t-244.5 90t-75.5 238h266q-4 -46 16.5 -74.5t57.5 -28.5q36 0 60.5 28.5t29.5 74.5z" />
    <glyph glyph-name="abreve" unicode="&#x103;" horiz-adv-x="1398" 
d="M905 938l10 127h471l-92 -1065h-471l11 127q-59 -80 -140 -124t-172 -44q-209 0 -321.5 157.5t-89.5 415.5q22 258 162.5 416t349.5 158q92 0 164.5 -44t117.5 -124zM711 369q63 0 107 46t50 117t-30 117.5t-99 46.5t-107 -46.5t-50 -117.5t30 -117t99 -46zM856 1556h266
q-14 -179 -105 -273.5t-274 -94.5q-182 0 -256.5 94.5t-60.5 273.5h266q-5 -65 14 -104t56 -39t63.5 39.5t30.5 103.5z" />
    <glyph glyph-name="Aogonek" unicode="&#x104;" horiz-adv-x="1699" 
d="M1395 0h-305l-31 184h-438l-64 -184h-555l561 1475h778l304 -1475h-9q-205 -76 -213 -197q-8 -78 59.5 -129t182.5 -51l-16 -194q-229 0 -363.5 88t-122.5 225q7 85 69 153t163 105zM913 1026l-163 -473h245z" />
    <glyph glyph-name="aogonek" unicode="&#x105;" horiz-adv-x="1447" 
d="M1042 0h-219l11 127q-59 -80 -140 -124t-172 -44q-209 0 -321.5 157.5t-89.5 415.5q22 258 162.5 416t349.5 158q92 0 164.5 -44t117.5 -124l10 127h471l-92 -1065h-10q-205 -75 -213 -197q-8 -78 59.5 -129t182.5 -51l-17 -194q-229 0 -363 88t-122 225q7 85 68.5 153
t162.5 105zM711 369q63 0 107 46t50 117t-30 117.5t-99 46.5t-107 -46.5t-50 -117.5t30 -117t99 -46z" />
    <glyph glyph-name="Cacute" unicode="&#x106;" horiz-adv-x="1724" 
d="M1225 621l487 -52q-24 -178 -139.5 -319.5t-297.5 -221t-396 -79.5q-176 0 -323 59.5t-246 163t-147.5 250t-33.5 315.5q14 169 88.5 315.5t191 250.5t274 163.5t333.5 59.5q209 0 375 -79.5t257.5 -221.5t88.5 -320l-496 -51q-7 96 -77 158.5t-169 62.5
q-138 0 -229.5 -93t-103.5 -245q-13 -152 62 -245t210 -93q98 0 180.5 62.5t110.5 159.5zM1511 1946l-352 -328h-321l268 328h405z" />
    <glyph glyph-name="cacute" unicode="&#x107;" horiz-adv-x="1304" 
d="M1309 649l-437 -55q-6 54 -42 88.5t-87 34.5q-63 0 -109 -53t-52 -132q-8 -80 28.5 -132t100.5 -52q51 0 93.5 34.5t57.5 88.5l426 -51q-40 -199 -216.5 -330t-401.5 -131q-172 0 -305 73.5t-200.5 205t-53.5 294.5q22 249 208 411.5t451 162.5q148 0 270 -58.5
t194 -163.5t75 -235zM831 1556h404l-352 -368h-308z" />
    <glyph glyph-name="Ccircumflex" unicode="&#x108;" horiz-adv-x="1724" 
d="M1225 621l487 -52q-24 -178 -139.5 -319.5t-297.5 -221t-396 -79.5q-176 0 -323 59.5t-246 163t-147.5 250t-33.5 315.5q14 169 88.5 315.5t191 250.5t274 163.5t333.5 59.5q209 0 375 -79.5t257.5 -221.5t88.5 -320l-496 -51q-7 96 -77 158.5t-169 62.5
q-138 0 -229.5 -93t-103.5 -245q-13 -152 62 -245t210 -93q98 0 180.5 62.5t110.5 159.5zM901 1618h-287l213 328h451l156 -328h-287l-109 164z" />
    <glyph glyph-name="ccircumflex" unicode="&#x109;" horiz-adv-x="1304" 
d="M1309 649l-437 -55q-6 54 -42 88.5t-87 34.5q-63 0 -109 -53t-52 -132q-8 -80 28.5 -132t100.5 -52q51 0 93.5 34.5t57.5 88.5l426 -51q-40 -199 -216.5 -330t-401.5 -131q-172 0 -305 73.5t-200.5 205t-53.5 294.5q22 249 208 411.5t451 162.5q148 0 270 -58.5
t194 -163.5t75 -235zM637 1188h-301l229 368h451l168 -368h-301l-107 205z" />
    <glyph glyph-name="Cdotaccent" unicode="&#x10a;" horiz-adv-x="1724" 
d="M1225 621l487 -52q-24 -178 -139.5 -319.5t-297.5 -221t-396 -79.5q-176 0 -323 59.5t-246 163t-147.5 250t-33.5 315.5q14 169 88.5 315.5t191 250.5t274 163.5t333.5 59.5q209 0 375 -79.5t257.5 -221.5t88.5 -320l-496 -51q-7 96 -77 158.5t-169 62.5
q-138 0 -229.5 -93t-103.5 -245q-13 -152 62 -245t210 -93q98 0 180.5 62.5t110.5 159.5zM1024 1618q-103 0 -163.5 63.5t-51.5 161.5q7 98 79 161.5t175 63.5t164 -63.5t53 -161.5q-9 -98 -81 -161.5t-175 -63.5z" />
    <glyph glyph-name="cdotaccent" unicode="&#x10b;" horiz-adv-x="1304" 
d="M1309 649l-437 -55q-6 54 -42 88.5t-87 34.5q-63 0 -109 -53t-52 -132q-8 -80 28.5 -132t100.5 -52q51 0 93.5 34.5t57.5 88.5l426 -51q-40 -199 -216.5 -330t-401.5 -131q-172 0 -305 73.5t-200.5 205t-53.5 294.5q22 249 208 411.5t451 162.5q148 0 270 -58.5
t194 -163.5t75 -235zM760 1208q-101 0 -162.5 64t-54.5 162q9 98 81.5 161.5t174.5 63.5q104 0 164 -63t51 -162q-8 -99 -79 -162.5t-175 -63.5z" />
    <glyph glyph-name="Ccaron" unicode="&#x10c;" horiz-adv-x="1724" 
d="M1225 621l487 -52q-24 -178 -139.5 -319.5t-297.5 -221t-396 -79.5q-176 0 -323 59.5t-246 163t-147.5 250t-33.5 315.5q14 169 88.5 315.5t191 250.5t274 163.5t333.5 59.5q209 0 375 -79.5t257.5 -221.5t88.5 -320l-496 -51q-7 96 -77 158.5t-169 62.5
q-138 0 -229.5 -93t-103.5 -245q-13 -152 62 -245t210 -93q98 0 180.5 62.5t110.5 159.5zM1180 1987h301l-232 -369h-450l-166 369h301l104 -205z" />
    <glyph glyph-name="ccaron" unicode="&#x10d;" horiz-adv-x="1304" 
d="M1309 649l-437 -55q-6 54 -42 88.5t-87 34.5q-63 0 -109 -53t-52 -132q-8 -80 28.5 -132t100.5 -52q51 0 93.5 34.5t57.5 88.5l426 -51q-40 -199 -216.5 -330t-401.5 -131q-172 0 -305 73.5t-200.5 205t-53.5 294.5q22 249 208 411.5t451 162.5q148 0 270 -58.5
t194 -163.5t75 -235zM913 1556h301l-229 -368h-450l-168 368h301l106 -204z" />
    <glyph glyph-name="Dcaron" unicode="&#x10e;" horiz-adv-x="1681" 
d="M125 0l129 1475h655q249 0 432 -92t273 -259.5t72 -386.5q-19 -219 -138.5 -386.5t-319 -259t-448.5 -91.5h-655zM1153 737q12 157 -64.5 252.5t-214.5 95.5h-143l-59 -696h143q138 0 231.5 95.5t106.5 252.5zM1067 1987h301l-231 -369h-451l-166 369h301l105 -205z" />
    <glyph glyph-name="dcaron" unicode="&#x10f;" horiz-adv-x="1736" 
d="M885 967l51 569h471l-135 -1536h-471l8 94q-122 -135 -299 -135q-203 0 -312.5 157.5t-86.5 415.5q22 258 159 416t340 158q175 0 275 -139zM582 532q-6 -71 30 -117t99 -46t107 46t50 117t-30 117.5t-99 46.5t-107 -46.5t-50 -117.5zM1591 1147q-73 0 -114 54t-33 138
q7 89 65 143t144 54q98 0 151.5 -68.5t44.5 -181.5q-11 -119 -77 -239.5t-158 -186.5l-187 41q66 52 113 121t51 125z" />
    <glyph glyph-name="Dcroat" unicode="&#x110;" horiz-adv-x="1722" 
d="M246 901l49 574h655q249 0 432 -92t272.5 -259.5t71.5 -386.5q-19 -219 -138.5 -386.5t-318.5 -259t-448 -91.5h-655l55 635h-164l25 266h164zM1194 737q12 157 -64.5 252.5t-214.5 95.5h-143l-14 -184h143l-24 -266h-144l-20 -246h143q138 0 231.5 95.5t106.5 252.5z
" />
    <glyph glyph-name="dcroat" unicode="&#x111;" horiz-adv-x="1394" 
d="M885 967l18 200h-246l19 226h246l14 143h471l-14 -143h123l-19 -226h-123l-102 -1167h-471l8 94q-122 -135 -299 -135q-203 0 -312.5 157.5t-86.5 415.5q22 258 159 416t340 158q175 0 275 -139zM582 532q-6 -71 30 -117t99 -46t107 46t50 117t-30 117.5t-99 46.5
t-107 -46.5t-50 -117.5z" />
    <glyph glyph-name="Emacron" unicode="&#x112;" horiz-adv-x="1271" 
d="M674 410h573l-37 -410h-1085l129 1475h1065l-37 -410h-553l-12 -143h471l-29 -349h-471zM1204 1925l-22 -266h-758l22 266h758z" />
    <glyph glyph-name="emacron" unicode="&#x113;" horiz-adv-x="1335" 
d="M723 287q96 0 131 82l406 -52q-29 -102 -115 -184t-212.5 -128t-268.5 -46q-269 0 -422.5 158t-130.5 415q22 257 207 415.5t456 158.5q272 0 419 -159t124 -421q-4 -73 -14 -116h-717q25 -123 137 -123zM598 635h258q5 56 -28.5 99.5t-88.5 43.5q-100 0 -141 -143z
M1188 1495l-25 -266h-757l24 266h758z" />
    <glyph glyph-name="Ebreve" unicode="&#x114;" horiz-adv-x="1271" 
d="M674 410h573l-37 -410h-1085l129 1475h1065l-37 -410h-553l-12 -143h471l-29 -349h-471zM909 1946h267q-12 -148 -116 -238t-261 -90t-244.5 90t-75.5 238h266q-4 -46 16.5 -74.5t57.5 -28.5q36 0 60.5 28.5t29.5 74.5z" />
    <glyph glyph-name="ebreve" unicode="&#x115;" horiz-adv-x="1335" 
d="M723 287q96 0 131 82l406 -52q-29 -102 -115 -184t-212.5 -128t-268.5 -46q-269 0 -422.5 158t-130.5 415q22 257 207 415.5t456 158.5q272 0 419 -159t124 -421q-4 -73 -14 -116h-717q25 -123 137 -123zM598 635h258q5 56 -28.5 99.5t-88.5 43.5q-100 0 -141 -143z
M895 1556h266q-14 -179 -105 -273.5t-274 -94.5q-182 0 -256.5 94.5t-60.5 273.5h266q-5 -65 14 -104t56 -39t63.5 39.5t30.5 103.5z" />
    <glyph glyph-name="Edotaccent" unicode="&#x116;" horiz-adv-x="1271" 
d="M674 410h573l-37 -410h-1085l129 1475h1065l-37 -410h-553l-12 -143h471l-29 -349h-471zM799 1618q-103 0 -163.5 63.5t-51.5 161.5q7 98 79 161.5t175 63.5t164 -63.5t53 -161.5q-9 -98 -81 -161.5t-175 -63.5z" />
    <glyph glyph-name="edotaccent" unicode="&#x117;" horiz-adv-x="1335" 
d="M723 287q96 0 131 82l406 -52q-29 -102 -115 -184t-212.5 -128t-268.5 -46q-269 0 -422.5 158t-130.5 415q22 257 207 415.5t456 158.5q272 0 419 -159t124 -421q-4 -73 -14 -116h-717q25 -123 137 -123zM598 635h258q5 56 -28.5 99.5t-88.5 43.5q-100 0 -141 -143z
M782 1208q-101 0 -162.5 64t-54.5 162q9 98 81.5 161.5t174.5 63.5q104 0 164 -63t51 -162q-8 -99 -79 -162.5t-175 -63.5z" />
    <glyph glyph-name="Eogonek" unicode="&#x118;" horiz-adv-x="1271" 
d="M907 0h-782l129 1475h1065l-37 -410h-553l-12 -143h471l-29 -349h-471l-14 -163h573l-37 -410h-61q-205 -76 -213 -197q-8 -78 59.5 -129t182.5 -51l-17 -194q-229 0 -363 88t-122 225q7 85 68.5 153t162.5 105z" />
    <glyph glyph-name="eogonek" unicode="&#x119;" horiz-adv-x="1335" 
d="M614 -39q-249 15 -387 170.5t-116 400.5q22 257 207 415.5t456 158.5q272 0 419 -159t124 -421q-4 -73 -14 -116h-717q25 -123 137 -123q96 0 131 82l406 -52q-31 -105 -119.5 -188t-216.5 -127l18 -2q-211 -76 -219 -199q-8 -78 59.5 -129t182.5 -51l-17 -194
q-229 0 -363 88t-122 225t151 221zM598 635h258q5 56 -28.5 99.5t-88.5 43.5q-100 0 -141 -143z" />
    <glyph glyph-name="Ecaron" unicode="&#x11a;" horiz-adv-x="1271" 
d="M674 410h573l-37 -410h-1085l129 1475h1065l-37 -410h-553l-12 -143h471l-29 -349h-471zM954 1987h301l-231 -369h-451l-165 369h301l104 -205z" />
    <glyph glyph-name="ecaron" unicode="&#x11b;" horiz-adv-x="1335" 
d="M723 287q96 0 131 82l406 -52q-29 -102 -115 -184t-212.5 -128t-268.5 -46q-269 0 -422.5 158t-130.5 415q22 257 207 415.5t456 158.5q272 0 419 -159t124 -421q-4 -73 -14 -116h-717q25 -123 137 -123zM598 635h258q5 56 -28.5 99.5t-88.5 43.5q-100 0 -141 -143z
M936 1556h301l-229 -368h-451l-168 368h301l107 -204z" />
    <glyph glyph-name="Gcircumflex" unicode="&#x11c;" horiz-adv-x="1763" 
d="M1241 573h-307l24 287h814q4 -195 -59 -364.5t-178 -289.5t-279.5 -188.5t-356.5 -68.5q-180 0 -331 59.5t-252.5 163t-151.5 250t-35 315.5q14 169 90 315.5t195 250.5t280.5 163.5t341.5 59.5q140 0 262 -39t210.5 -107.5t144.5 -165.5t69 -210l-497 -82
q-14 68 -78.5 110.5t-153.5 42.5q-132 0 -225.5 -95t-105.5 -243q-14 -148 69 -243t227 -95q103 0 183.5 49.5t99.5 124.5zM922 1618h-287l213 328h450l156 -328h-287l-108 164z" />
    <glyph glyph-name="gcircumflex" unicode="&#x11d;" horiz-adv-x="1376" 
d="M96 -82l408 41q4 -54 43.5 -88.5t93.5 -34.5q65 0 110 50.5t52 133.5l8 107q-124 -127 -301 -127q-195 0 -308 147.5t-91 384.5q22 256 161 415t334 159q181 0 279 -137l8 96h471l-92 -1065q-20 -230 -196 -371t-443 -141q-236 0 -388 121.5t-149 308.5zM711 369
q63 0 107 46t50 117t-30 117.5t-99 46.5t-107 -46.5t-50 -117.5t30 -117t99 -46zM649 1188h-301l230 368h450l168 -368h-301l-107 205z" />
    <glyph glyph-name="Gbreve" unicode="&#x11e;" horiz-adv-x="1763" 
d="M1241 573h-307l24 287h814q4 -195 -59 -364.5t-178 -289.5t-279.5 -188.5t-356.5 -68.5q-180 0 -331 59.5t-252.5 163t-151.5 250t-35 315.5q14 169 90 315.5t195 250.5t280.5 163.5t341.5 59.5q140 0 262 -39t210.5 -107.5t144.5 -165.5t69 -210l-497 -82
q-14 68 -78.5 110.5t-153.5 42.5q-132 0 -225.5 -95t-105.5 -243q-14 -148 69 -243t227 -95q103 0 183.5 49.5t99.5 124.5zM1155 1946h266q-12 -148 -116 -238t-261 -90q-156 0 -243.5 90t-75.5 238h266q-4 -46 16.5 -74.5t57.5 -28.5q36 0 60.5 28.5t29.5 74.5z" />
    <glyph glyph-name="gbreve" unicode="&#x11f;" horiz-adv-x="1376" 
d="M96 -82l408 41q4 -54 43.5 -88.5t93.5 -34.5q65 0 110 50.5t52 133.5l8 107q-124 -127 -301 -127q-195 0 -308 147.5t-91 384.5q22 256 161 415t334 159q181 0 279 -137l8 96h471l-92 -1065q-20 -230 -196 -371t-443 -141q-236 0 -388 121.5t-149 308.5zM711 369
q63 0 107 46t50 117t-30 117.5t-99 46.5t-107 -46.5t-50 -117.5t30 -117t99 -46zM885 1556h266q-14 -179 -105 -273.5t-274 -94.5q-182 0 -256.5 94.5t-60.5 273.5h266q-5 -65 14 -104t56 -39t63.5 39.5t30.5 103.5z" />
    <glyph glyph-name="Gdotaccent" unicode="&#x120;" horiz-adv-x="1763" 
d="M1241 573h-307l24 287h814q4 -195 -59 -364.5t-178 -289.5t-279.5 -188.5t-356.5 -68.5q-180 0 -331 59.5t-252.5 163t-151.5 250t-35 315.5q14 169 90 315.5t195 250.5t280.5 163.5t341.5 59.5q140 0 262 -39t210.5 -107.5t144.5 -165.5t69 -210l-497 -82
q-14 68 -78.5 110.5t-153.5 42.5q-132 0 -225.5 -95t-105.5 -243q-14 -148 69 -243t227 -95q103 0 183.5 49.5t99.5 124.5zM1044 1618q-103 0 -163.5 63.5t-51.5 161.5q7 98 79 161.5t175 63.5t164 -63.5t53 -161.5q-9 -98 -81 -161.5t-175 -63.5z" />
    <glyph glyph-name="gdotaccent" unicode="&#x121;" horiz-adv-x="1376" 
d="M96 -82l408 41q4 -54 43.5 -88.5t93.5 -34.5q65 0 110 50.5t52 133.5l8 107q-124 -127 -301 -127q-195 0 -308 147.5t-91 384.5q22 256 161 415t334 159q181 0 279 -137l8 96h471l-92 -1065q-20 -230 -196 -371t-443 -141q-236 0 -388 121.5t-149 308.5zM711 369
q63 0 107 46t50 117t-30 117.5t-99 46.5t-107 -46.5t-50 -117.5t30 -117t99 -46zM772 1208q-101 0 -162.5 64t-54.5 162q9 98 81.5 161.5t174.5 63.5q104 0 164 -63t51 -162q-8 -99 -79 -162.5t-175 -63.5z" />
    <glyph glyph-name="Gcommaaccent" unicode="&#x122;" horiz-adv-x="1763" 
d="M1241 573h-307l24 287h814q4 -195 -59 -364.5t-178 -289.5t-279.5 -188.5t-356.5 -68.5q-180 0 -331 59.5t-252.5 163t-151.5 250t-35 315.5q14 169 90 315.5t195 250.5t280.5 163.5t341.5 59.5q140 0 262 -39t210.5 -107.5t144.5 -165.5t69 -210l-497 -82
q-14 68 -78.5 110.5t-153.5 42.5q-132 0 -225.5 -95t-105.5 -243q-14 -148 69 -243t227 -95q103 0 183.5 49.5t99.5 124.5zM829 -532q-73 0 -113 54t-34 138q9 89 66 143t143 54q98 0 152 -69t44 -181q-11 -119 -77 -239.5t-158 -186.5l-186 41q67 51 113 120t50 126z" />
    <glyph glyph-name="gcommaaccent" unicode="&#x123;" horiz-adv-x="1376" 
d="M96 -82l408 41q4 -54 43.5 -88.5t93.5 -34.5q65 0 110 50.5t52 133.5l8 107q-124 -127 -301 -127q-195 0 -308 147.5t-91 384.5q22 256 161 415t334 159q181 0 279 -137l8 96h471l-92 -1065q-20 -230 -196 -371t-443 -141q-236 0 -388 121.5t-149 308.5zM711 369
q63 0 107 46t50 117t-30 117.5t-99 46.5t-107 -46.5t-50 -117.5t30 -117t99 -46zM817 1556q73 0 114.5 -54t33.5 -138q-7 -89 -64 -143t-143 -54q-98 0 -152.5 69t-44.5 181q9 118 75.5 239t158.5 187l188 -41q-67 -51 -113.5 -120t-52.5 -126z" />
    <glyph glyph-name="Itilde" unicode="&#x128;" horiz-adv-x="761" 
d="M786 1475l-129 -1475h-532l129 1475h532zM281 1686l-203 106q39 98 132 167t193 69q63 0 121 -26t101 -51.5t69 -25.5q28 0 58 21.5t49 54.5l207 -107q-39 -97 -137.5 -166t-202.5 -69q-52 0 -100.5 16t-78 35t-61 35t-53.5 16q-49 0 -94 -75z" />
    <glyph glyph-name="itilde" unicode="&#x129;" horiz-adv-x="679" 
d="M657 1065l-92 -1065h-471l92 1065h471zM201 1235l-205 106q40 99 133 167.5t193 68.5q49 0 97 -16t78 -35t62.5 -35t54.5 -16q28 0 57.5 20.5t49.5 54.5l207 -106q-41 -97 -138.5 -166.5t-201.5 -69.5q-52 0 -100.5 16t-78 35.5t-61 35.5t-53.5 16q-48 0 -94 -76z" />
    <glyph glyph-name="Imacron" unicode="&#x12a;" horiz-adv-x="782" 
d="M786 1475l-129 -1475h-532l129 1475h532zM938 1925l-23 -266h-757l22 266h758z" />
    <glyph glyph-name="imacron" unicode="&#x12b;" horiz-adv-x="720" 
d="M688 1065l-92 -1065h-471l92 1065h471zM870 1495l-24 -266h-758l25 266h757z" />
    <glyph glyph-name="Iogonek" unicode="&#x12e;" horiz-adv-x="835" 
d="M410 0h-285l129 1475h532l-129 -1475h-6q-207 -76 -215 -197q-8 -78 59.5 -129t182.5 -51l-16 -194q-229 0 -363.5 88t-122.5 225q7 85 70 153t164 105z" />
    <glyph glyph-name="iogonek" unicode="&#x12f;" horiz-adv-x="753" 
d="M346 0h-221l92 1065h471l-92 -1065h-8q-205 -76 -213 -197q-8 -78 59 -129t182 -51l-16 -194q-229 0 -363 88t-122 225q7 85 68.5 153t162.5 105zM225 1393q10 107 89 176t190 69q112 0 178 -69t55 -176q-9 -108 -86.5 -177t-189.5 -69q-111 0 -178 69.5t-58 176.5z" />
    <glyph glyph-name="Idotaccent" unicode="&#x130;" horiz-adv-x="782" 
d="M786 1475l-129 -1475h-532l129 1475h532zM532 1618q-103 0 -163.5 63.5t-51.5 161.5q7 98 79 161.5t175 63.5t164 -63.5t53 -161.5q-9 -98 -81 -161.5t-175 -63.5z" />
    <glyph glyph-name="dotlessi" unicode="&#x131;" horiz-adv-x="679" 
d="M668 1065l-93 -1065h-471l93 1065h471z" />
    <glyph glyph-name="IJ" unicode="&#x132;" horiz-adv-x="1806" 
d="M786 1475l-129 -1475h-532l129 1475h532zM1202 573l78 902h532l-86 -983q-22 -237 -191.5 -385t-412.5 -148q-194 0 -319 41l35 389q68 -20 161 -20q83 0 138.5 56t64.5 148z" />
    <glyph glyph-name="ij" unicode="&#x133;" horiz-adv-x="1417" 
d="M688 1065l-92 -1065h-471l92 1065h471zM825 20l90 1045h471l-96 -1106q-17 -202 -147.5 -326.5t-325.5 -124.5q-153 0 -278 41l30 359q48 -10 113 -10q60 0 99.5 33.5t43.5 88.5zM225 1393q10 107 89 176t190 69q112 0 178 -69t55 -176q-9 -108 -86.5 -177t-189.5 -69
q-111 0 -178 69.5t-58 176.5zM924 1393q10 107 89 176t189 69q113 0 178.5 -69t55.5 -176q-9 -107 -87 -176.5t-190 -69.5q-111 0 -177.5 69.5t-57.5 176.5z" />
    <glyph glyph-name="Kcommaaccent" unicode="&#x136;" horiz-adv-x="1628" 
d="M254 1475h532l-47 -545l396 545h620l-559 -697l430 -778h-620l-295 604l-54 -604h-532zM748 -532q-73 0 -113.5 54t-34.5 138q9 89 66 143t143 54q98 0 152.5 -69t44.5 -181q-11 -119 -77.5 -239.5t-158.5 -186.5l-186 41q67 52 113.5 121t50.5 125z" />
    <glyph glyph-name="kcommaaccent" unicode="&#x137;" horiz-adv-x="1386" 
d="M240 1536h471l-74 -834l297 363h541l-441 -512l352 -553h-544l-232 401l-35 -401h-471zM614 -532q-73 0 -113 54t-34 138q9 89 66 143t143 54q98 0 152 -69t44 -181q-11 -119 -77 -239.5t-158 -186.5l-186 41q67 51 113 120t50 126z" />
    <glyph glyph-name="Lacute" unicode="&#x139;" horiz-adv-x="1189" 
d="M1128 0h-1003l129 1475h532l-90 -1024h471zM1008 1946l-353 -328h-319l266 328h406z" />
    <glyph glyph-name="lacute" unicode="&#x13a;" horiz-adv-x="878" 
d="M711 1536l-136 -1536h-471l136 1536h471zM946 1966l-354 -369h-307l258 369h403z" />
    <glyph glyph-name="Lcommaaccent" unicode="&#x13b;" horiz-adv-x="1189" 
d="M1128 0h-1003l129 1475h532l-90 -1024h471zM543 -532q-73 0 -113.5 54t-34.5 138q9 89 66 143t143 54q98 0 152.5 -69t44.5 -181q-11 -119 -77.5 -239.5t-158.5 -186.5l-186 41q67 52 113.5 121t50.5 125z" />
    <glyph glyph-name="lcommaaccent" unicode="&#x13c;" horiz-adv-x="679" 
d="M711 1536l-136 -1536h-471l136 1536h471zM254 -532q-73 0 -113.5 54t-34.5 138q9 89 66 143t143 54q98 0 152.5 -69t44.5 -181q-11 -119 -77.5 -239.5t-158.5 -186.5l-186 41q67 52 113.5 121t50.5 125z" />
    <glyph glyph-name="Lcaron" unicode="&#x13d;" horiz-adv-x="1204" 
d="M1128 0h-1003l129 1475h532l-90 -1024h471zM997 1147q-73 0 -114 54t-33 138q7 89 65 143t144 54q98 0 151.5 -68.5t44.5 -181.5q-11 -119 -77 -239.5t-158 -186.5l-186 41q66 52 112.5 121t50.5 125z" />
    <glyph glyph-name="lcaron" unicode="&#x13e;" horiz-adv-x="1067" 
d="M711 1536l-136 -1536h-471l136 1536h471zM922 1147q-73 0 -114.5 54t-33.5 138q7 89 65 143t144 54q98 0 152 -68.5t45 -181.5q-11 -119 -77.5 -239.5t-158.5 -186.5l-186 41q66 52 113 121t51 125z" />
    <glyph glyph-name="Lslash" unicode="&#x141;" horiz-adv-x="1067" 
d="M57 635l217 129l62 711h532l-32 -375l454 272l-35 -383l-452 -272l-25 -266h471l-39 -451h-1003l33 381l-215 -129z" />
    <glyph glyph-name="lslash" unicode="&#x142;" horiz-adv-x="1044" 
d="M823 750l-65 -750h-471l39 451l-258 -158l32 383l260 158l62 702h471l-37 -403l260 157l-33 -383z" />
    <glyph glyph-name="Nacute" unicode="&#x143;" horiz-adv-x="1703" 
d="M786 1475l357 -834l74 834h491l-129 -1475h-532l-359 829l-72 -829h-491l129 1475h532zM1485 1946l-352 -328h-322l268 328h406z" />
    <glyph glyph-name="nacute" unicode="&#x144;" 
d="M979 1106q151 0 239.5 -116t73.5 -294l-61 -696h-471l51 573q4 55 -18.5 89t-63.5 34t-69.5 -34t-32.5 -89l-52 -573h-471l93 1065h450l-12 -160q146 201 344 201zM905 1556h404l-353 -368h-307z" />
    <glyph glyph-name="Ncommaaccent" unicode="&#x145;" horiz-adv-x="1703" 
d="M786 1475l357 -834l74 834h491l-129 -1475h-532l-359 829l-72 -829h-491l129 1475h532zM778 -532q-73 0 -113 54t-34 138q9 89 66 143t143 54q98 0 152 -69t44 -181q-11 -119 -76 -240t-157 -186l-189 41q68 51 114 120t50 126z" />
    <glyph glyph-name="ncommaaccent" unicode="&#x146;" 
d="M979 1106q151 0 239.5 -116t73.5 -294l-61 -696h-471l51 573q4 55 -18.5 89t-63.5 34t-69.5 -34t-32.5 -89l-52 -573h-471l93 1065h450l-12 -160q146 201 344 201zM590 -532q-73 0 -113.5 54t-34.5 138q9 89 66 143t143 54q98 0 152.5 -69t44.5 -181
q-11 -119 -77.5 -239.5t-158.5 -186.5l-186 41q67 52 113.5 121t50.5 125z" />
    <glyph glyph-name="Ncaron" unicode="&#x147;" horiz-adv-x="1703" 
d="M786 1475l357 -834l74 834h491l-129 -1475h-532l-359 829l-72 -829h-491l129 1475h532zM1153 1987h301l-231 -369h-451l-166 369h301l105 -205z" />
    <glyph glyph-name="ncaron" unicode="&#x148;" 
d="M979 1106q151 0 239.5 -116t73.5 -294l-61 -696h-471l51 573q4 55 -18.5 89t-63.5 34t-69.5 -34t-32.5 -89l-52 -573h-471l93 1065h450l-12 -160q146 201 344 201zM987 1556h301l-229 -368h-451l-168 368h301l107 -204z" />
    <glyph glyph-name="Omacron" unicode="&#x14c;" horiz-adv-x="1804" 
d="M129 737q15 175 88.5 322.5t191 250t279 159.5t348.5 57q249 0 431.5 -98t271.5 -277.5t69 -413.5q-21 -234 -141 -413t-319.5 -277t-448.5 -98q-250 0 -432 98t-270.5 277t-67.5 413zM662 737q-14 -152 62 -245t214 -93t231.5 93t106.5 245q12 152 -64.5 245t-214.5 93
t-230.5 -93t-104.5 -245zM1450 1925l-23 -266h-757l22 266h758z" />
    <glyph glyph-name="omacron" unicode="&#x14d;" horiz-adv-x="1355" 
d="M1339 532q-23 -258 -205.5 -415.5t-459.5 -157.5t-431.5 157.5t-131.5 415.5q22 258 204 416t459 158t432 -158t133 -416zM868 532q6 74 -29.5 119t-99.5 45t-107.5 -45t-49.5 -119t29.5 -118.5t99.5 -44.5q65 0 108 45t49 118zM1188 1495l-25 -266h-757l24 266h758z" />
    <glyph glyph-name="Obreve" unicode="&#x14e;" horiz-adv-x="1804" 
d="M129 737q15 175 88.5 322.5t191 250t279 159.5t348.5 57q249 0 431.5 -98t271.5 -277.5t69 -413.5q-21 -234 -141 -413t-319.5 -277t-448.5 -98q-250 0 -432 98t-270.5 277t-67.5 413zM662 737q-14 -152 62 -245t214 -93t231.5 93t106.5 245q12 152 -64.5 245t-214.5 93
t-230.5 -93t-104.5 -245zM1155 1946h266q-12 -148 -116 -238t-261 -90q-156 0 -243.5 90t-75.5 238h266q-4 -46 16.5 -74.5t57.5 -28.5q36 0 60.5 28.5t29.5 74.5z" />
    <glyph glyph-name="obreve" unicode="&#x14f;" horiz-adv-x="1355" 
d="M1339 532q-23 -258 -205.5 -415.5t-459.5 -157.5t-431.5 157.5t-131.5 415.5q22 258 204 416t459 158t432 -158t133 -416zM868 532q6 74 -29.5 119t-99.5 45t-107.5 -45t-49.5 -119t29.5 -118.5t99.5 -44.5q65 0 108 45t49 118zM895 1556h266q-14 -179 -105 -273.5
t-274 -94.5q-182 0 -256.5 94.5t-60.5 273.5h266q-5 -65 14 -104t56 -39t63.5 39.5t30.5 103.5z" />
    <glyph glyph-name="Ohungarumlaut" unicode="&#x150;" horiz-adv-x="1804" 
d="M129 737q15 175 88.5 322.5t191 250t279 159.5t348.5 57q249 0 431.5 -98t271.5 -277.5t69 -413.5q-21 -234 -141 -413t-319.5 -277t-448.5 -98q-250 0 -432 98t-270.5 277t-67.5 413zM662 737q-14 -152 62 -245t214 -93t231.5 93t106.5 245q12 152 -64.5 245t-214.5 93
t-230.5 -93t-104.5 -245zM893 1946h389l-295 -328h-311zM1364 1946h389l-336 -328h-311z" />
    <glyph glyph-name="ohungarumlaut" unicode="&#x151;" horiz-adv-x="1351" 
d="M1337 532q-23 -258 -205.5 -415.5t-459.5 -157.5t-431.5 157.5t-131.5 415.5q22 258 204 416t459 158t432 -158t133 -416zM866 532q6 74 -29.5 119t-99.5 45t-107.5 -45t-49.5 -119t29.5 -118.5t99.5 -44.5q65 0 108 45t49 118zM612 1556h404l-311 -368h-293zM1083 1556
h424l-372 -368h-308z" />
    <glyph glyph-name="OE" unicode="&#x152;" horiz-adv-x="2131" 
d="M129 737q15 178 77.5 323t165.5 249t251.5 160.5t330.5 56.5q125 0 242 -51h983l-37 -410h-471l-12 -143h389l-29 -349h-389l-14 -163h491l-36 -410h-1000q-122 -51 -254 -51q-242 0 -405.5 99t-234 275t-48.5 414zM1108 473l47 528q-71 74 -178 74q-125 0 -214 -95.5
t-101 -242.5q-13 -147 59 -242.5t197 -95.5q107 0 190 74z" />
    <glyph glyph-name="oe" unicode="&#x153;" horiz-adv-x="2095" 
d="M1481 287q91 0 135 82l377 -78q-33 -95 -114.5 -171t-196 -118.5t-238.5 -42.5q-259 0 -377 143q-140 -143 -393 -143q-277 0 -431.5 157.5t-131.5 415.5q22 258 204 416t459 158q254 0 371 -145q148 145 409 145q258 0 402 -159.5t121 -420.5q-4 -67 -15 -116h-716
q25 -123 135 -123zM868 532q6 74 -29.5 119t-99.5 45t-107.5 -45t-49.5 -119t29.5 -118.5t99.5 -44.5q65 0 108 45t49 118zM1358 635h258q5 56 -28.5 99.5t-88.5 43.5q-100 0 -141 -143z" />
    <glyph glyph-name="Racute" unicode="&#x154;" horiz-adv-x="1648" 
d="M125 0l129 1475h784q285 0 444.5 -146t137.5 -387q-12 -146 -97.5 -256t-226.5 -170l291 -516h-581l-187 451h-123l-39 -451h-532zM897 1106h-143l-29 -328h143q87 0 150 44.5t69 119.5q7 75 -48 119.5t-142 44.5zM1430 1946l-353 -328h-321l268 328h406z" />
    <glyph glyph-name="racute" unicode="&#x155;" horiz-adv-x="991" 
d="M928 1106q58 0 110 -25l-37 -415q-99 47 -192 47q-77 0 -128.5 -50t-57.5 -131l-48 -532h-471l93 1065h450l-10 -135q47 79 127.5 127.5t163.5 48.5zM700 1556h404l-352 -368h-308z" />
    <glyph glyph-name="Rcommaaccent" unicode="&#x156;" horiz-adv-x="1648" 
d="M125 0l129 1475h784q285 0 444.5 -146t137.5 -387q-12 -146 -97.5 -256t-226.5 -170l291 -516h-581l-187 451h-123l-39 -451h-532zM897 1106h-143l-29 -328h143q87 0 150 44.5t69 119.5q7 75 -48 119.5t-142 44.5zM745 -532q-73 0 -113 54t-34 138q9 89 66 143t143 54
q98 0 152.5 -69t44.5 -181q-11 -120 -76.5 -240.5t-157.5 -187.5l-188 43q67 49 112.5 118.5t50.5 127.5z" />
    <glyph glyph-name="rcommaaccent" unicode="&#x157;" horiz-adv-x="964" 
d="M928 1106q58 0 110 -25l-37 -415q-99 47 -192 47q-77 0 -128.5 -50t-57.5 -131l-48 -532h-471l93 1065h450l-10 -135q47 79 127.5 127.5t163.5 48.5zM266 -532q-73 0 -113 54t-34 138q9 89 66 143t143 54q98 0 152 -69t44 -181q-11 -119 -77 -239.5t-158 -186.5l-187 41
q67 52 113.5 121t50.5 125z" />
    <glyph glyph-name="Rcaron" unicode="&#x158;" horiz-adv-x="1648" 
d="M125 0l129 1475h784q285 0 444.5 -146t137.5 -387q-12 -146 -97.5 -256t-226.5 -170l291 -516h-581l-187 451h-123l-39 -451h-532zM897 1106h-143l-29 -328h143q87 0 150 44.5t69 119.5q7 75 -48 119.5t-142 44.5zM1098 1987h301l-232 -369h-450l-166 369h301l104 -205z
" />
    <glyph glyph-name="rcaron" unicode="&#x159;" horiz-adv-x="964" 
d="M928 1106q58 0 110 -25l-37 -415q-99 47 -192 47q-77 0 -128.5 -50t-57.5 -131l-48 -532h-471l93 1065h450l-10 -135q47 79 127.5 127.5t163.5 48.5zM782 1556h301l-229 -368h-451l-167 368h301l106 -204z" />
    <glyph glyph-name="Sacute" unicode="&#x15a;" horiz-adv-x="1501" 
d="M729 -51q-287 0 -459.5 152.5t-152.5 387.5h454q-6 -74 54 -123t155 -49q72 0 120.5 29t53.5 74q3 34 -24 55.5t-74.5 33t-109.5 20t-130.5 20t-136.5 28t-128 49.5t-104.5 80t-66.5 123t-14 175q20 234 216 378t484 144q189 0 334.5 -67t219.5 -185.5t61 -267.5h-434
q6 66 -49.5 108.5t-145.5 42.5q-69 0 -117 -26t-53 -66q-3 -32 24.5 -52.5t75 -31t110 -18t131 -18t137 -26.5t128.5 -49t104.5 -79.5t66.5 -123t14 -175.5q-22 -242 -230.5 -392.5t-513.5 -150.5zM1362 1946l-352 -328h-320l266 328h406z" />
    <glyph glyph-name="sacute" unicode="&#x15b;" horiz-adv-x="1191" 
d="M573 -51q-224 0 -359 111.5t-120 283.5h371q-5 -47 35.5 -77.5t107.5 -30.5q48 0 82 20.5t37 52.5q2 30 -23.5 46.5t-70 21.5t-101 10.5t-115.5 11t-114 26t-96.5 52.5t-63.5 93.5t-14 146.5q15 173 169.5 286t377.5 113q226 0 364 -106.5t125 -270.5h-391
q3 39 -32.5 64.5t-90.5 25.5q-46 0 -76.5 -17.5t-31.5 -45.5q-2 -26 25 -42.5t74 -23t107 -15.5t122.5 -17t121.5 -29.5t104 -52.5t69 -86t18 -129q-17 -187 -185.5 -304.5t-425.5 -117.5zM774 1556h404l-353 -368h-307z" />
    <glyph glyph-name="Scircumflex" unicode="&#x15c;" horiz-adv-x="1501" 
d="M729 -51q-287 0 -459.5 152.5t-152.5 387.5h454q-6 -74 54 -123t155 -49q72 0 120.5 29t53.5 74q3 34 -24 55.5t-74.5 33t-109.5 20t-130.5 20t-136.5 28t-128 49.5t-104.5 80t-66.5 123t-14 175q20 234 216 378t484 144q189 0 334.5 -67t219.5 -185.5t61 -267.5h-434
q6 66 -49.5 108.5t-145.5 42.5q-69 0 -117 -26t-53 -66q-3 -32 24.5 -52.5t75 -31t110 -18t131 -18t137 -26.5t128.5 -49t104.5 -79.5t66.5 -123t14 -175.5q-22 -242 -230.5 -392.5t-513.5 -150.5zM752 1618h-287l213 328h450l156 -328h-287l-108 164z" />
    <glyph glyph-name="scircumflex" unicode="&#x15d;" horiz-adv-x="1191" 
d="M573 -51q-224 0 -359 111.5t-120 283.5h371q-5 -47 35.5 -77.5t107.5 -30.5q48 0 82 20.5t37 52.5q2 30 -23.5 46.5t-70 21.5t-101 10.5t-115.5 11t-114 26t-96.5 52.5t-63.5 93.5t-14 146.5q15 173 169.5 286t377.5 113q226 0 364 -106.5t125 -270.5h-391
q3 39 -32.5 64.5t-90.5 25.5q-46 0 -76.5 -17.5t-31.5 -45.5q-2 -26 25 -42.5t74 -23t107 -15.5t122.5 -17t121.5 -29.5t104 -52.5t69 -86t18 -129q-17 -187 -185.5 -304.5t-425.5 -117.5zM580 1188h-301l229 368h450l168 -368h-301l-106 205z" />
    <glyph glyph-name="Scedilla" unicode="&#x15e;" horiz-adv-x="1501" 
d="M629 -266h-103l62 225q-229 37 -359.5 181.5t-111.5 348.5h454q-6 -74 54 -123t155 -49q72 0 120.5 29t53.5 74q3 34 -24 55.5t-74.5 33t-109.5 20t-130.5 20t-136.5 28t-128 49.5t-104.5 80t-66.5 123t-14 175q20 234 216 378t484 144q189 0 334.5 -67t219.5 -185.5
t61 -267.5h-434q6 66 -49.5 108.5t-145.5 42.5q-69 0 -117 -26t-53 -66q-3 -32 24.5 -52.5t75 -31t110 -18t131 -18t137 -26.5t128.5 -49t104.5 -79.5t66.5 -123t14 -175.5q-13 -149 -102 -267.5t-234.5 -188.5t-325.5 -83l-31 -117q91 0 141.5 -51.5t43.5 -136.5
q-7 -90 -90 -145.5t-209 -55.5q-75 0 -134 34t-81 89l110 102q10 -28 35.5 -44.5t56.5 -16.5t50 16.5t22 44.5t-23.5 45t-72.5 17z" />
    <glyph glyph-name="scedilla" unicode="&#x15f;" horiz-adv-x="1191" 
d="M535 -266h-103l60 219q-191 20 -301 127.5t-97 263.5h371q-5 -47 35.5 -77.5t107.5 -30.5q48 0 82 20.5t37 52.5q2 30 -23.5 46.5t-70 21.5t-101 10.5t-115.5 11t-114 26t-96.5 52.5t-63.5 93.5t-14 146.5q15 173 169.5 286t377.5 113q226 0 364 -106.5t125 -270.5h-391
q3 39 -32.5 64.5t-90.5 25.5q-46 0 -76.5 -17.5t-31.5 -45.5q-2 -26 25 -42.5t74 -23t107 -15.5t122.5 -17t121.5 -29.5t104 -52.5t69 -86t18 -129q-13 -157 -139.5 -268.5t-325.5 -143.5l-33 -123q91 0 141.5 -51.5t42.5 -136.5q-7 -90 -90 -145.5t-209 -55.5
q-75 0 -134 34t-81 89l111 102q10 -28 35.5 -44.5t56.5 -16.5t50 16.5t22 44.5t-23.5 45t-72.5 17z" />
    <glyph glyph-name="Scaron" unicode="&#x160;" horiz-adv-x="1501" 
d="M729 -51q-287 0 -459.5 152.5t-152.5 387.5h454q-6 -74 54 -123t155 -49q72 0 120.5 29t53.5 74q3 34 -24 55.5t-74.5 33t-109.5 20t-130.5 20t-136.5 28t-128 49.5t-104.5 80t-66.5 123t-14 175q20 234 216 378t484 144q189 0 334.5 -67t219.5 -185.5t61 -267.5h-434
q6 66 -49.5 108.5t-145.5 42.5q-69 0 -117 -26t-53 -66q-3 -32 24.5 -52.5t75 -31t110 -18t131 -18t137 -26.5t128.5 -49t104.5 -79.5t66.5 -123t14 -175.5q-22 -242 -230.5 -392.5t-513.5 -150.5zM1030 1987h301l-231 -369h-451l-166 369h301l105 -205z" />
    <glyph glyph-name="scaron" unicode="&#x161;" horiz-adv-x="1191" 
d="M573 -51q-224 0 -359 111.5t-120 283.5h371q-5 -47 35.5 -77.5t107.5 -30.5q48 0 82 20.5t37 52.5q2 30 -23.5 46.5t-70 21.5t-101 10.5t-115.5 11t-114 26t-96.5 52.5t-63.5 93.5t-14 146.5q15 173 169.5 286t377.5 113q226 0 364 -106.5t125 -270.5h-391
q3 39 -32.5 64.5t-90.5 25.5q-46 0 -76.5 -17.5t-31.5 -45.5q-2 -26 25 -42.5t74 -23t107 -15.5t122.5 -17t121.5 -29.5t104 -52.5t69 -86t18 -129q-17 -187 -185.5 -304.5t-425.5 -117.5zM815 1556h301l-229 -368h-451l-170 368h303l107 -204z" />
    <glyph glyph-name="Tcommaaccent" unicode="&#x162;" horiz-adv-x="1355" 
d="M504 1044h-389l37 431h1310l-37 -431h-389l-92 -1044h-532zM600 -532q-73 0 -113 54t-34 138q9 89 66 143t143 54q98 0 152 -69t44 -181q-10 -120 -76 -240t-157 -186l-189 41q68 51 114 120t50 126z" />
    <glyph glyph-name="tcommaaccent" unicode="&#x163;" horiz-adv-x="905" 
d="M203 430l26 287h-123l29 348h144l67 287h410l-27 -287h205l-29 -348h-205l-20 -225q-5 -56 23 -89.5t79 -33.5q44 0 92 10l-32 -379q-131 -41 -267 -41q-184 0 -286.5 133t-85.5 338zM449 -532q-73 0 -113.5 54t-34.5 138q9 89 66 143t143 54q98 0 152.5 -69t44.5 -181
q-11 -119 -77.5 -239.5t-158.5 -186.5l-186 41q67 52 113.5 121t50.5 125z" />
    <glyph glyph-name="Tcaron" unicode="&#x164;" horiz-adv-x="1355" 
d="M504 1044h-389l37 431h1310l-37 -431h-389l-92 -1044h-532zM975 1987h301l-232 -369h-450l-166 369h301l105 -205z" />
    <glyph glyph-name="tcaron" unicode="&#x165;" horiz-adv-x="1062" 
d="M203 430l26 287h-123l29 348h144l67 287h410l-27 -287h205l-29 -348h-205l-20 -225q-5 -56 23 -89.5t79 -33.5q44 0 92 10l-32 -379q-131 -41 -267 -41q-184 0 -286.5 133t-85.5 338zM942 1434q-73 0 -113 54t-34 138q9 89 66 143t143 54q98 0 152 -69t44 -181
q-11 -119 -77 -239.5t-158 -186.5l-187 41q67 52 113.5 121t50.5 125z" />
    <glyph glyph-name="Utilde" unicode="&#x168;" horiz-adv-x="1662" 
d="M1083 645l72 830h533l-74 -850q-28 -305 -244 -490.5t-543 -185.5q-216 0 -374 84t-234.5 237.5t-58.5 354.5l73 850h533l-72 -830q-8 -97 34 -168t138 -78q88 0 147 67.5t70 178.5zM721 1686l-203 106q39 98 132.5 167t193.5 69q63 0 121 -26t101 -51.5t69 -25.5
q28 0 57.5 21t48.5 55l207 -107q-39 -97 -137.5 -166t-202.5 -69q-52 0 -100.5 16t-78 35t-61 35t-53.5 16q-49 0 -94 -75z" />
    <glyph glyph-name="utilde" unicode="&#x169;" 
d="M428 -41q-151 0 -238.5 115.5t-72.5 294.5l59 696h471l-49 -573q-4 -55 18.5 -89t63.5 -34t69.5 34t32.5 89l49 573h472l-93 -1065h-450l14 160q-146 -201 -346 -201zM518 1235l-205 106q40 99 133 167.5t193 68.5q49 0 97 -16t78.5 -35t63 -35t54.5 -16q28 0 57 20.5
t49 54.5l207 -106q-41 -97 -138.5 -166.5t-201.5 -69.5q-52 0 -100.5 16t-78 35.5t-61 35.5t-53.5 16q-48 0 -94 -76z" />
    <glyph glyph-name="Umacron" unicode="&#x16a;" horiz-adv-x="1662" 
d="M1083 645l72 830h533l-74 -850q-28 -305 -244 -490.5t-543 -185.5q-216 0 -374 84t-234.5 237.5t-58.5 354.5l73 850h533l-72 -830q-8 -97 34 -168t138 -78q88 0 147 67.5t70 178.5zM1378 1925l-22 -266h-758l23 266h757z" />
    <glyph glyph-name="umacron" unicode="&#x16b;" 
d="M428 -41q-151 0 -238.5 115.5t-72.5 294.5l59 696h471l-49 -573q-4 -55 18.5 -89t63.5 -34t69.5 34t32.5 89l49 573h472l-93 -1065h-450l14 160q-146 -201 -346 -201zM1157 1495l-24 -266h-758l24 266h758z" />
    <glyph glyph-name="Ubreve" unicode="&#x16c;" horiz-adv-x="1662" 
d="M1083 645l72 830h533l-74 -850q-28 -305 -244 -490.5t-543 -185.5q-216 0 -374 84t-234.5 237.5t-58.5 354.5l73 850h533l-72 -830q-8 -97 34 -168t138 -78q88 0 147 67.5t70 178.5zM1083 1946h267q-12 -148 -116 -238t-261 -90t-244.5 90t-75.5 238h267q-4 -46 16 -74.5
t57 -28.5q36 0 60.5 28.5t29.5 74.5z" />
    <glyph glyph-name="ubreve" unicode="&#x16d;" 
d="M428 -41q-151 0 -238.5 115.5t-72.5 294.5l59 696h471l-49 -573q-4 -55 18.5 -89t63.5 -34t69.5 34t32.5 89l49 573h472l-93 -1065h-450l14 160q-146 -201 -346 -201zM864 1556h266q-14 -179 -104.5 -273.5t-273.5 -94.5q-182 0 -257 94.5t-61 273.5h266q-5 -65 14 -104
t56 -39t63.5 39.5t30.5 103.5z" />
    <glyph glyph-name="Uring" unicode="&#x16e;" horiz-adv-x="1662" 
d="M1083 645l72 830h533l-74 -850q-28 -305 -244 -490.5t-543 -185.5q-216 0 -374 84t-234.5 237.5t-58.5 354.5l73 850h533l-72 -830q-8 -97 34 -168t138 -78q88 0 147 67.5t70 178.5zM971 1597q-157 0 -245.5 85t-76.5 223t115 222.5t260 84.5t245.5 -84.5t76.5 -222.5
t-115 -223t-260 -85zM1008 2007q-46 0 -77.5 -28t-35.5 -74q-3 -46 22.5 -74.5t71.5 -28.5t77 28.5t34 74.5q4 46 -21 74t-71 28z" />
    <glyph glyph-name="uring" unicode="&#x16f;" 
d="M428 -41q-151 0 -238.5 115.5t-72.5 294.5l59 696h471l-49 -573q-4 -55 18.5 -89t63.5 -34t69.5 34t32.5 89l49 573h472l-93 -1065h-450l14 160q-146 -201 -346 -201zM750 1167q-157 0 -245.5 85t-76.5 223t115 222.5t260 84.5t245 -84.5t76 -222.5t-115 -223t-259 -85z
M784 1577q-46 0 -75.5 -28t-34.5 -74q-4 -46 22 -74.5t72 -28.5t76 28.5t35 74.5q4 45 -22.5 73.5t-72.5 28.5z" />
    <glyph glyph-name="Uhungarumlaut" unicode="&#x170;" horiz-adv-x="1662" 
d="M1083 645l72 830h533l-74 -850q-28 -305 -244 -490.5t-543 -185.5q-216 0 -374 84t-234.5 237.5t-58.5 354.5l73 850h533l-72 -830q-8 -97 34 -168t138 -78q88 0 147 67.5t70 178.5zM811 1946h389l-295 -328h-311zM1282 1946h389l-336 -328h-311z" />
    <glyph glyph-name="uhungarumlaut" unicode="&#x171;" horiz-adv-x="1302" 
d="M428 -41q-151 0 -238.5 115.5t-72.5 294.5l59 696h471l-49 -573q-4 -55 18.5 -89t63.5 -34t69.5 34t32.5 89l49 573h472l-93 -1065h-450l14 160q-146 -201 -346 -201zM563 1556h402l-310 -368h-293zM1034 1556h422l-371 -368h-307z" />
    <glyph glyph-name="Uogonek" unicode="&#x172;" horiz-adv-x="1662" 
d="M743 -47q-291 23 -449.5 205.5t-133.5 466.5l73 850h533l-72 -830q-8 -97 34 -168t138 -78q88 0 147 67.5t70 178.5l72 830h533l-74 -850q-23 -261 -189 -437.5t-426 -224.5q-127 -64 -133 -162q-8 -78 59.5 -129t182.5 -51l-16 -194q-229 0 -363.5 88t-122.5 225
q12 130 137 213z" />
    <glyph glyph-name="uogonek" unicode="&#x173;" horiz-adv-x="1355" 
d="M950 0h-190l14 160q-146 -201 -346 -201q-151 0 -238.5 115.5t-72.5 294.5l59 696h471l-49 -573q-4 -55 18.5 -89t63.5 -34t69.5 34t32.5 89l49 573h472l-93 -1065h-18q-205 -75 -213 -197q-8 -78 59.5 -129t182.5 -51l-17 -194q-229 0 -363 88t-122 225q7 85 68.5 153
t162.5 105z" />
    <glyph glyph-name="Wcircumflex" unicode="&#x174;" horiz-adv-x="2629" 
d="M1872 487l330 988h534l-520 -1475h-717l-119 756l-250 -756h-716l-262 1475h534l160 -988l352 988h492zM1331 1618h-287l213 328h451l156 -328h-287l-109 164z" />
    <glyph glyph-name="wcircumflex" unicode="&#x175;" horiz-adv-x="1980" 
d="M305 0l-190 1065h487l76 -588l211 588h387l129 -602l180 602h467l-375 -1065h-573l-68 512l-157 -512h-574zM973 1188h-301l229 368h451l168 -368h-301l-107 205z" />
    <glyph glyph-name="Ycircumflex" unicode="&#x176;" horiz-adv-x="1521" 
d="M545 492l-416 983h551l170 -533l242 533h559l-574 -983l-43 -492h-532zM780 1618h-286l213 328h450l156 -328h-287l-108 164z" />
    <glyph glyph-name="ycircumflex" unicode="&#x177;" horiz-adv-x="1345" 
d="M199 -451l26 318q30 -10 103 -10q35 0 50.5 0.5t42 3.5t40 10.5t31.5 20t30 33.5t23 50l-451 1090h512l162 -498l186 498h482l-498 -1126q-105 -235 -224.5 -333t-273.5 -98q-138 0 -241 41zM655 1188h-301l230 368h450l168 -368h-301l-106 205z" />
    <glyph glyph-name="Ydieresis" unicode="&#x178;" horiz-adv-x="1521" 
d="M545 492l-416 983h551l170 -533l242 533h559l-574 -983l-43 -492h-532zM614 1597q-94 0 -149 60.5t-47 154.5q9 94 75 155t160 61t149 -61t46 -155q-7 -94 -73.5 -154.5t-160.5 -60.5zM1188 1597q-94 0 -149.5 60.5t-47.5 154.5q9 94 75.5 155t160.5 61t148.5 -61
t45.5 -155q-7 -94 -73 -154.5t-160 -60.5z" />
    <glyph glyph-name="Zacute" unicode="&#x179;" horiz-adv-x="1396" 
d="M115 348l594 717h-512l36 410h1188l-30 -349l-568 -716h527l-37 -410h-1229zM1327 1946l-352 -328h-322l269 328h405z" />
    <glyph glyph-name="zacute" unicode="&#x17a;" horiz-adv-x="1189" 
d="M535 696h-369l31 369h983l-27 -307l-375 -389h363l-33 -369h-1024l27 307zM774 1556h404l-353 -368h-309z" />
    <glyph glyph-name="Zdotaccent" unicode="&#x17b;" horiz-adv-x="1396" 
d="M115 348l594 717h-512l36 410h1188l-30 -349l-568 -716h527l-37 -410h-1229zM840 1618q-103 0 -163.5 63.5t-51.5 161.5q7 98 79 161.5t175 63.5t164 -63.5t53 -161.5q-9 -98 -81 -161.5t-175 -63.5z" />
    <glyph glyph-name="zdotaccent" unicode="&#x17c;" horiz-adv-x="1189" 
d="M535 696h-369l31 369h983l-27 -307l-375 -389h363l-33 -369h-1024l27 307zM702 1208q-103 0 -164 64t-53 162q9 98 81 161.5t175 63.5t163.5 -63.5t51.5 -161.5q-7 -98 -79 -162t-175 -64z" />
    <glyph glyph-name="Zcaron" unicode="&#x17d;" horiz-adv-x="1396" 
d="M115 348l594 717h-512l36 410h1188l-30 -349l-568 -716h527l-37 -410h-1229zM995 1987h301l-231 -369h-451l-165 369h301l104 -205z" />
    <glyph glyph-name="zcaron" unicode="&#x17e;" horiz-adv-x="1189" 
d="M535 696h-369l31 369h983l-27 -307l-375 -389h363l-33 -369h-1024l27 307zM854 1556h301l-229 -368h-451l-168 368h301l107 -204z" />
    <glyph glyph-name="Aacutering" unicode="&#x1fa;" horiz-adv-x="1646" 
d="M1341 1475l304 -1475h-555l-31 184h-438l-64 -184h-555l561 1475h778zM913 1026l-163 -473h245zM956 1516q-143 0 -223.5 76t-68.5 200q10 124 103.5 200t236.5 76t223.5 -76t70.5 -200q-12 -125 -106 -200.5t-236 -75.5zM987 1864q-33 0 -55 -20t-23 -52
q-3 -32 14.5 -52t49.5 -20t54.5 20t25.5 52q2 33 -16 52.5t-50 19.5zM1448 2355l-305 -246h-320l260 246h365z" />
    <glyph glyph-name="aacutering" unicode="&#x1fb;" horiz-adv-x="1398" 
d="M905 938l10 127h471l-92 -1065h-471l11 127q-59 -80 -140 -124t-172 -44q-209 0 -321.5 157.5t-89.5 415.5q22 258 162.5 416t349.5 158q92 0 164.5 -44t117.5 -124zM711 369q63 0 107 46t50 117t-30 117.5t-99 46.5t-107 -46.5t-50 -117.5t30 -117t99 -46zM788 1126
q-142 0 -222.5 76t-69.5 201q10 124 104.5 200t237.5 76q142 0 222.5 -75.5t69.5 -200.5q-10 -124 -104.5 -200.5t-237.5 -76.5zM819 1475q-32 0 -53.5 -20t-24.5 -52t15.5 -52t50.5 -20t53.5 20t24.5 52t-15.5 52t-50.5 20zM1309 1946l-242 -226h-299l197 226h344z" />
    <glyph glyph-name="AEacute" unicode="&#x1fc;" horiz-adv-x="2148" 
d="M2124 410l-37 -410h-983l16 184h-428l-100 -184h-590l842 1475h1351l-36 -410h-492l-12 -143h409l-28 -349h-410l-14 -163h512zM1151 532l51 590l-319 -590h268zM1839 1905l-352 -328h-320l267 328h405z" />
    <glyph glyph-name="aeacute" unicode="&#x1fd;" horiz-adv-x="2113" 
d="M2099 543q-5 -76 -16 -133h-723q5 -54 44 -88.5t99 -34.5q47 0 88 23.5t54 58.5l391 -56q-60 -154 -212 -254t-325 -100q-124 0 -222 51.5t-138 134.5l-13 -145h-266l12 139q-65 -87 -153.5 -133.5t-190.5 -46.5q-212 0 -327 157.5t-92 415.5q22 258 165 416t355 158
q101 0 181 -47t132 -133l10 139h267l-13 -156q58 89 168.5 143t243.5 54q152 0 266.5 -72t171.5 -200.5t43 -290.5zM580 532q-8 -92 32 -148t113 -56q74 0 124.5 56t57.5 148q8 92 -32 148.5t-113 56.5q-74 0 -124.5 -56.5t-57.5 -148.5zM1374 614h260q0 60 -32.5 102
t-83.5 42t-88.5 -36t-55.5 -108zM1202 1536h404l-355 -369h-307z" />
    <glyph glyph-name="Oslashacute" unicode="&#x1fe;" horiz-adv-x="1763" 
d="M1280 1487l166 274h258l-227 -368q155 -106 231.5 -276.5t58.5 -379.5q-20 -226 -141 -406t-317 -281t-430 -101q-140 0 -265 39l-165 -275h-259l226 369q-154 104 -230.5 274.5t-56.5 380.5q14 169 88.5 315.5t191 250.5t274 163.5t333.5 59.5q136 0 264 -39zM662 737
q-12 -117 32 -200l328 534q-28 4 -45 4q-125 0 -214 -95.5t-101 -242.5zM1235 737q9 114 -37 201l-328 -535q14 -4 48 -4q125 0 214.5 95t102.5 243zM1516 1925l-353 -328h-319l266 328h406z" />
    <glyph glyph-name="oslashacute" unicode="&#x1ff;" horiz-adv-x="1396" 
d="M983 1083l88 146h207l-131 -211q124 -73 185 -199t48 -287q-23 -258 -211.5 -415.5t-474.5 -157.5q-91 0 -188 23l-88 -146h-209l131 209q-124 73 -184 198.5t-45 288.5q22 258 210 416t474 158q94 0 188 -23zM547 379l248 399h-29q-98 0 -167.5 -68.5t-78.5 -177.5
q-9 -89 27 -153zM971 532q6 89 -29 152l-246 -395q8 -2 27 -2q101 0 169 67.5t79 177.5zM1278 1556l-352 -368h-308l256 368h404z" />
    <glyph glyph-name="Scommaaccent" unicode="&#x218;" horiz-adv-x="1501" 
d="M729 -51q-287 0 -459.5 152.5t-152.5 387.5h454q-6 -74 54 -123t155 -49q72 0 120.5 29t53.5 74q3 34 -24 55.5t-74.5 33t-109.5 20t-130.5 20t-136.5 28t-128 49.5t-104.5 80t-66.5 123t-14 175q20 234 216 378t484 144q189 0 334.5 -67t219.5 -185.5t61 -267.5h-434
q6 66 -49.5 108.5t-145.5 42.5q-69 0 -117 -26t-53 -66q-3 -32 24.5 -52.5t75 -31t110 -18t131 -18t137 -26.5t128.5 -49t104.5 -79.5t66.5 -123t14 -175.5q-22 -242 -230.5 -392.5t-513.5 -150.5zM649 -532q-73 0 -113 54t-34 138q9 90 66.5 143.5t144.5 53.5
q97 0 150.5 -69t43.5 -181q-11 -119 -76 -240t-157 -186l-189 41q68 51 113.5 120t50.5 126z" />
    <glyph glyph-name="scommaaccent" unicode="&#x219;" horiz-adv-x="1191" 
d="M573 -51q-224 0 -359 111.5t-120 283.5h371q-5 -47 35.5 -77.5t107.5 -30.5q48 0 82 20.5t37 52.5q2 30 -23.5 46.5t-70 21.5t-101 10.5t-115.5 11t-114 26t-96.5 52.5t-63.5 93.5t-14 146.5q15 173 169.5 286t377.5 113q226 0 364 -106.5t125 -270.5h-391
q3 39 -32.5 64.5t-90.5 25.5q-46 0 -76.5 -17.5t-31.5 -45.5q-2 -26 25 -42.5t74 -23t107 -15.5t122.5 -17t121.5 -29.5t104 -52.5t69 -86t18 -129q-17 -187 -185.5 -304.5t-425.5 -117.5zM524 -532q-73 0 -113 54t-34 138q9 89 66 143t143 54q98 0 152 -69t44 -181
q-11 -119 -77 -239.5t-158 -186.5l-187 41q67 52 113.5 121t50.5 125z" />
    <glyph glyph-name="circumflex" unicode="&#x2c6;" horiz-adv-x="974" 
d="M166 1167l231 369h451l166 -369h-301l-105 205l-141 -205h-301z" />
    <glyph glyph-name="caron" unicode="&#x2c7;" horiz-adv-x="974" 
d="M745 1536h302l-232 -369h-450l-166 369h301l104 -205z" />
    <glyph glyph-name="breve" unicode="&#x2d8;" horiz-adv-x="823" 
d="M629 1536h266q-16 -179 -107 -274t-274 -95q-182 0 -256.5 95t-58.5 274h266q-6 -65 12 -104t55 -39t64 39.5t33 103.5z" />
    <glyph glyph-name="dotaccent" unicode="&#x2d9;" horiz-adv-x="598" 
d="M399 1147q-102 0 -163 63.5t-52 161.5q7 98 79.5 161.5t174.5 63.5q103 0 164 -63.5t53 -161.5q-9 -98 -81 -161.5t-175 -63.5z" />
    <glyph glyph-name="ring" unicode="&#x2da;" horiz-adv-x="823" 
d="M510 1116q-157 0 -245.5 84.5t-76.5 222.5t115 223t260 85t245.5 -85t76.5 -223t-115 -222.5t-260 -84.5zM545 1526q-46 0 -77 -28.5t-34 -74.5q-4 -46 21 -74t71 -28t77.5 28t35.5 74q3 46 -22.5 74.5t-71.5 28.5z" />
    <glyph glyph-name="ogonek" unicode="&#x2db;" horiz-adv-x="638" 
d="M352 20l168 -20q-211 -76 -219 -199q-8 -78 59.5 -129t182.5 -51l-17 -194q-229 0 -363 88t-122 225q9 102 93 177t218 103z" />
    <glyph glyph-name="tilde" unicode="&#x2dc;" horiz-adv-x="1048" 
d="M381 1194l-203 106q39 98 132.5 167t193.5 69q49 0 96.5 -16t78 -35t62.5 -35t54 -16q28 0 57.5 21t48.5 54l207 -106q-39 -97 -137.5 -166.5t-202.5 -69.5q-52 0 -100.5 16t-78 35.5t-61 35.5t-53.5 16q-48 0 -94 -76z" />
    <glyph glyph-name="hungarumlaut" unicode="&#x2dd;" horiz-adv-x="1189" 
d="M369 1536h401l-311 -369h-293zM840 1536h422l-373 -369h-307z" />
    <glyph glyph-name="Wgrave" unicode="&#x1e80;" horiz-adv-x="2629" 
d="M1872 487l330 988h534l-520 -1475h-717l-119 756l-250 -756h-716l-262 1475h534l160 -988l352 988h492zM1288 1618l-295 328h406l209 -328h-320z" />
    <glyph glyph-name="wgrave" unicode="&#x1e81;" horiz-adv-x="1980" 
d="M305 0l-190 1065h487l76 -588l211 588h387l129 -602l180 602h467l-375 -1065h-573l-68 512l-157 -512h-574zM676 1556h403l195 -368h-307z" />
    <glyph glyph-name="Wacute" unicode="&#x1e82;" horiz-adv-x="2629" 
d="M1872 487l330 988h534l-520 -1475h-717l-119 756l-250 -756h-716l-262 1475h534l160 -988l352 988h492zM1942 1946l-353 -328h-321l268 328h406z" />
    <glyph glyph-name="wacute" unicode="&#x1e83;" horiz-adv-x="1980" 
d="M305 0l-190 1065h487l76 -588l211 588h387l129 -602l180 602h467l-375 -1065h-573l-68 512l-157 -512h-574zM1167 1556h404l-352 -368h-308z" />
    <glyph glyph-name="Wdieresis" unicode="&#x1e84;" horiz-adv-x="2629" 
d="M1872 487l330 988h534l-520 -1475h-717l-119 756l-250 -756h-716l-262 1475h534l160 -988l352 988h492zM1165 1597q-94 0 -149 60.5t-47 154.5q9 94 75 155t160 61t149 -61t46 -155q-7 -94 -73.5 -154.5t-160.5 -60.5zM1739 1597q-94 0 -149.5 60.5t-47.5 154.5
q9 94 75.5 155t160.5 61t148.5 -61t45.5 -155q-7 -94 -73 -154.5t-160 -60.5z" />
    <glyph glyph-name="wdieresis" unicode="&#x1e85;" horiz-adv-x="1980" 
d="M305 0l-190 1065h487l76 -588l211 588h387l129 -602l180 602h467l-375 -1065h-573l-68 512l-157 -512h-574zM807 1174q-94 0 -149.5 57.5t-47.5 146.5q7 89 73.5 147t160.5 58t149 -58t47 -147q-7 -89 -73 -146.5t-160 -57.5zM1380 1174q-94 0 -149 57.5t-47 146.5
q7 89 73 147t160 58t149.5 -58t47.5 -147q-7 -89 -73.5 -146.5t-160.5 -57.5z" />
    <glyph glyph-name="Germandbls" unicode="&#x1e9e;" horiz-adv-x="1660" 
d="M725 1004l-88 -1004h-533l86 983q22 245 231 394t531 149q292 0 453.5 -126.5t142.5 -334.5q-6 -84 -63 -149t-152 -101q131 -37 212.5 -154t68.5 -272q-17 -192 -167 -316t-364 -124q-85 0 -188 23t-176 57l98 295q66 -37 125 -37q56 0 96.5 44t46.5 111
q8 86 -46.5 139.5t-151.5 53.5h-94l24 266h103q66 0 108 33.5t47 89.5q6 72 -38 116t-122 44t-130.5 -49t-59.5 -131z" />
    <glyph glyph-name="Ygrave" unicode="&#x1ef2;" horiz-adv-x="1521" 
d="M545 492l-416 983h551l170 -533l242 533h559l-574 -983l-43 -492h-532zM737 1618l-295 328h406l209 -328h-320z" />
    <glyph glyph-name="ygrave" unicode="&#x1ef3;" horiz-adv-x="1345" 
d="M199 -451l26 318q30 -10 103 -10q35 0 50.5 0.5t42 3.5t40 10.5t31.5 20t30 33.5t23 50l-451 1090h512l162 -498l186 498h482l-498 -1126q-105 -235 -224.5 -333t-273.5 -98q-138 0 -241 41zM358 1556h404l194 -368h-307z" />
    <glyph glyph-name="endash" unicode="&#x2013;" horiz-adv-x="1294" 
d="M1303 819l-33 -368h-1168l33 368h1168z" />
    <glyph glyph-name="emdash" unicode="&#x2014;" horiz-adv-x="1662" 
d="M115 819h1577l-33 -368h-1577z" />
    <glyph glyph-name="quoteleft" unicode="&#x2018;" horiz-adv-x="638" 
d="M657 932q-9 -106 -86.5 -176t-181.5 -70q-120 0 -184.5 94.5t-50.5 251.5q11 130 92 270t196 224l226 -41q-88 -76 -148.5 -162.5t-66.5 -144.5q98 0 155.5 -69.5t48.5 -176.5z" />
    <glyph glyph-name="quoteright" unicode="&#x2019;" horiz-adv-x="638" 
d="M178 1311q9 106 85.5 175.5t180.5 69.5q120 0 185.5 -95t52.5 -251q-12 -129 -94 -268.5t-195 -224.5l-227 41q89 76 149.5 163t65.5 144q-98 0 -155 69.5t-48 176.5z" />
    <glyph glyph-name="quotesinglbase" unicode="&#x201a;" horiz-adv-x="638" 
d="M82 205q9 106 85.5 176t180.5 70q120 0 184.5 -95t51.5 -252q-10 -129 -92.5 -268.5t-196.5 -224.5l-225 41q89 76 149.5 163t65.5 144q-98 0 -155 69.5t-48 176.5z" />
    <glyph glyph-name="quotedblleft" unicode="&#x201c;" horiz-adv-x="1261" 
d="M662 932q-9 -106 -87 -176t-182 -70q-120 0 -184.5 94.5t-50.5 251.5q11 130 92 270t196 224l226 -41q-88 -76 -148.5 -163t-66.5 -144q98 0 156 -69.5t49 -176.5zM1276 932q-9 -106 -86.5 -176t-181.5 -70q-120 0 -184.5 94.5t-51.5 251.5q11 129 92.5 269.5
t196.5 224.5l225 -41q-88 -76 -148.5 -163t-66.5 -144q98 0 156 -69.5t49 -176.5z" />
    <glyph glyph-name="quotedblright" unicode="&#x201d;" horiz-adv-x="1255" 
d="M184 1331q9 106 86 176t181 70q120 0 185 -95t52 -251q-12 -129 -93.5 -269.5t-195.5 -224.5l-227 41q89 76 149.5 163t65.5 144q-98 0 -155 69.5t-48 176.5zM799 1331q9 106 85.5 176t180.5 70q120 0 185.5 -95t52.5 -251q-12 -129 -93.5 -269.5t-195.5 -224.5l-228 41
q89 76 149.5 163t65.5 144q-98 0 -154.5 69t-47.5 177z" />
    <glyph glyph-name="quotedblbase" unicode="&#x201e;" horiz-adv-x="1255" 
d="M86 205q9 106 85.5 176t180.5 70q120 0 184.5 -95t51.5 -252q-11 -129 -92.5 -268.5t-196.5 -224.5l-225 41q89 76 149.5 163t65.5 144q-98 0 -155 69.5t-48 176.5zM700 205q9 106 86 176t181 70q120 0 184.5 -95t50.5 -252q-11 -129 -92.5 -268.5t-196.5 -224.5l-225 41
q89 76 149.5 163t65.5 144q-98 0 -155 69.5t-48 176.5z" />
    <glyph glyph-name="bullet" unicode="&#x2022;" horiz-adv-x="802" 
d="M428 307q-147 0 -234 92.5t-75 235.5t115 235.5t251 92.5q147 0 234.5 -92.5t75.5 -235.5t-115.5 -235.5t-251.5 -92.5z" />
    <glyph glyph-name="ellipsis" unicode="&#x2026;" horiz-adv-x="1867" 
d="M82 205q9 107 87 176.5t189 69.5q112 0 178.5 -69.5t57.5 -176.5t-87.5 -176.5t-191.5 -69.5q-110 0 -176 69.5t-57 176.5zM696 205q9 107 87.5 176.5t189.5 69.5q112 0 178 -69.5t57 -176.5t-87.5 -176.5t-190.5 -69.5q-110 0 -176.5 69.5t-57.5 176.5zM1311 205
q9 107 87 176.5t189 69.5q112 0 178.5 -69.5t57.5 -176.5t-87.5 -176.5t-191.5 -69.5q-110 0 -176 69.5t-57 176.5z" />
    <glyph glyph-name="perthousand" unicode="&#x2030;" horiz-adv-x="3321" 
d="M1350 430q19 204 164.5 337.5t349.5 133.5t325.5 -133.5t102.5 -337.5q-17 -204 -162.5 -337.5t-349.5 -133.5t-325.5 133.5t-104.5 337.5zM1944 430q5 54 -26 88.5t-85 34.5t-92.5 -34.5t-42.5 -88.5q-5 -54 26.5 -88.5t85.5 -34.5t92 34.5t42 88.5zM2353 430
q19 204 164.5 337.5t349.5 133.5t325.5 -133.5t102.5 -337.5q-17 -204 -162.5 -337.5t-349.5 -133.5t-325.5 133.5t-104.5 337.5zM2947 430q5 54 -26 88.5t-85 34.5t-92.5 -34.5t-42.5 -88.5t27.5 -88.5t85.5 -34.5t91 34.5t42 88.5zM160 1106q19 204 163.5 337.5
t348.5 133.5t326.5 -133.5t103.5 -337.5q-17 -204 -162.5 -337.5t-349.5 -133.5t-325.5 133.5t-104.5 337.5zM754 1106q4 54 -27.5 88.5t-85.5 34.5t-91 -34.5t-42 -88.5q-4 -54 27.5 -88.5t85.5 -34.5t91 34.5t42 88.5zM1612 1536h383l-1153 -1536h-383z" />
    <glyph glyph-name="guilsinglleft" unicode="&#x2039;" horiz-adv-x="862" 
d="M891 1065l-389 -512l297 -553h-469l-279 553l371 512h469z" />
    <glyph glyph-name="guilsinglright" unicode="&#x203a;" horiz-adv-x="860" 
d="M909 553l-377 -553h-469l396 553l-303 512h469z" />
    <glyph glyph-name="lira" unicode="&#x20a4;" horiz-adv-x="1437" 
d="M145 942h226l10 102q19 210 177.5 346t385.5 136q242 0 378.5 -123t147.5 -324l-419 -65q-14 123 -84 123q-40 0 -67 -37t-32 -96l-6 -62h389l-16 -205h-389q-2 -22 -10 -61h393l-19 -205h-489q-83 -89 -207 -143h889l-29 -328h-1311l37 410q82 28 142 82h-136l17 184
h225l6 61h-225z" />
    <glyph glyph-name="Euro" unicode="&#x20ac;" horiz-adv-x="1847" 
d="M1348 621l487 -52q-24 -178 -139.5 -319.5t-298 -221t-396.5 -79.5q-290 0 -489.5 152t-247.5 403h-176l16 205h144l4 28q0 21 2 31h-143l18 205h176q95 251 320 402t514 151q209 0 375 -79.5t257.5 -221.5t88.5 -320l-496 -51q-7 96 -77 158.5t-169 62.5
q-149 0 -237 -102h231l-18 -205h-308q-2 -10 -2 -31q-1 -5 -2 -14.5t-2 -13.5h307l-16 -205h-233q75 -105 219 -105q98 0 180.5 62.5t110.5 159.5z" />
    <glyph glyph-name="trademark" unicode="&#x2122;" horiz-adv-x="2523" 
d="M295 307l74 840h-246l29 328h880l-28 -328h-246l-74 -840h-389zM2109 905l-258 -598h-266l-151 598l-54 -598h-368l102 1168h442l203 -674l314 674h454l-102 -1168h-369z" />
    <glyph glyph-name="minus" unicode="&#x2212;" horiz-adv-x="966" 
d="M135 819h840l-33 -368h-840z" />
    <glyph glyph-name="notequal" unicode="&#x2260;" horiz-adv-x="1089" 
d="M1090 717h-318l-70 -185h371l-31 -348h-475l-100 -266h-262l102 266h-227l31 348h331l72 185h-387l29 348h493l105 266h256l-105 -266h213z" />
    <glyph glyph-name="lessequal" unicode="&#x2264;" horiz-adv-x="925" 
d="M887 287l-25 -287h-799l25 287h799zM143 922l811 143l-22 -266l-555 -82l541 -82l-23 -266l-786 143z" />
    <glyph glyph-name="greaterequal" unicode="&#x2265;" horiz-adv-x="925" 
d="M88 287h799l-25 -287h-799zM119 635l557 82l-543 82l23 266l786 -143l-35 -410l-811 -143z" />
    <glyph glyph-name="commaaccent" unicode="&#xf6c3;" horiz-adv-x="536" 
d="M221 -82q-73 0 -114 54.5t-33 138.5q7 89 64 142.5t143 53.5q98 0 152 -69t44 -181q-9 -118 -76 -239t-159 -187l-187 41q66 51 113 120t53 126z" />
    <glyph glyph-name="IJacute" horiz-adv-x="1812" 
d="M784 1475l-129 -1475h-532l129 1475h532zM1200 573l78 902h532l-86 -983q-22 -237 -191.5 -385t-412.5 -148q-194 0 -319 41l35 389q68 -20 161 -20q83 0 138.5 56t64.5 148zM1018 1946l-352 -328h-320l266 328h406zM2044 1946l-352 -328h-320l266 328h406z" />
    <glyph glyph-name="acute.case" horiz-adv-x="770" 
d="M489 1208h-319l266 328h406z" />
    <glyph glyph-name="breve.case" horiz-adv-x="823" 
d="M629 1536h266q-14 -148 -117 -238t-260 -90t-244.5 90t-74.5 238h266q-4 -46 15.5 -74t56.5 -28t62.5 28t29.5 74z" />
    <glyph glyph-name="caron.case" horiz-adv-x="946" 
d="M731 1536h287l-213 -328h-451l-155 328h286l109 -164z" />
    <glyph glyph-name="circumflex.case" horiz-adv-x="946" 
d="M170 1208l213 328h451l155 -328h-287l-108 164l-137 -164h-287z" />
    <glyph glyph-name="dieresis.case" horiz-adv-x="1130" 
d="M375 1106q-94 0 -149.5 60.5t-47.5 154.5q9 94 75.5 154.5t160.5 60.5t148.5 -60.5t45.5 -154.5q-7 -94 -73 -154.5t-160 -60.5zM948 1106q-94 0 -149 60.5t-47 154.5q9 94 75 154.5t160 60.5t149 -60.5t46 -154.5q-7 -94 -73.5 -154.5t-160.5 -60.5z" />
    <glyph glyph-name="dotaccent.case" horiz-adv-x="598" 
d="M399 1147q-103 0 -163.5 63.5t-51.5 161.5q7 98 79 161.5t175 63.5t164 -63.5t53 -161.5q-9 -98 -81 -161.5t-175 -63.5z" />
    <glyph glyph-name="grave.case" horiz-adv-x="770" 
d="M528 1618l-295 328h406l209 -328h-320z" />
    <glyph glyph-name="hungarumlaut.case" horiz-adv-x="1175" 
d="M387 1536h389l-295 -328h-311zM858 1536h389l-336 -328h-311z" />
    <glyph glyph-name="ijacute" horiz-adv-x="1390" 
d="M197 1065h471l-93 -1065h-471zM823 20l90 1045h471l-92 -1065q-19 -203 -148.5 -327t-324.5 -124q-157 0 -278 41l26 318q48 -10 113 -10q60 0 99.5 33.5t43.5 88.5zM522 1536h404l-355 -369h-309zM1223 1536h403l-354 -369h-307z" />
    <glyph glyph-name="ring.case" horiz-adv-x="761" 
d="M477 1106q-143 0 -223 76t-70 200t104.5 200.5t237.5 76.5q142 0 223 -76t70 -201q-10 -124 -104.5 -200t-237.5 -76zM508 1454q-32 0 -53.5 -20t-24.5 -52t15.5 -51.5t50.5 -19.5t53 19.5t24 51.5t-15 52t-50 20z" />
    <glyph glyph-name="tilde.case" horiz-adv-x="1048" 
d="M385 1235l-205 106q40 99 133 167.5t193 68.5q49 0 97 -16t78.5 -35t63 -35t54.5 -16q28 0 57 20.5t49 54.5l207 -106q-41 -97 -138.5 -166.5t-201.5 -69.5q-52 0 -100.5 16t-78 35.5t-61 35.5t-53.5 16q-48 0 -94 -76z" />
    </font>
</defs>
</svg>
