<?xml version="1.0" standalone="no"?>
<!DOCTYPE svg PUBLIC "-//W3C//DTD SVG 1.1//EN" "http://www.w3.org/Graphics/SVG/1.1/DTD/svg11.dtd" >
<svg xmlns="http://www.w3.org/2000/svg" xmlns:xlink="http://www.w3.org/1999/xlink" version="1.1">
<metadata>
Created by FontForge 20170731 at Mon Sep 26 11:52:38 2022
 By Aleksey,,,
Copyright (c) 2017 by Alexander Slobzheninov. All rights reserved.
</metadata>
<defs>
<font id="Objective-ThinItalic" horiz-adv-x="1232" >
  <font-face 
    font-family="Objective Thin"
    font-weight="250"
    font-style="italic"
    font-stretch="normal"
    units-per-em="2048"
    panose-1="0 0 0 0 0 0 0 0 0 0"
    ascent="1638"
    descent="-410"
    x-height="1024"
    cap-height="1434"
    bbox="-137 -573 2997.85 2007"
    underline-thickness="102"
    underline-position="-358"
    unicode-range="U+000D-F6C3"
  />
<missing-glyph horiz-adv-x="1024" 
 />
    <glyph glyph-name=".notdef" horiz-adv-x="1024" 
 />
    <glyph glyph-name=".null" horiz-adv-x="0" 
 />
    <glyph glyph-name="nonmarkingreturn" horiz-adv-x="682" 
 />
    <glyph glyph-name="NULL" horiz-adv-x="1417" 
d="M1356 1434l-125 -1434h-1045l125 1434h1045zM252 61h926l114 1311h-925z" />
    <glyph glyph-name="NULL" horiz-adv-x="1417" 
d="M1356 1434l-125 -1434h-1045l125 1434h1045zM252 61h926l114 1311h-925z" />
    <glyph glyph-name="CR" unicode="&#xd;" horiz-adv-x="61" 
 />
    <glyph glyph-name="space" unicode=" " horiz-adv-x="614" 
 />
    <glyph glyph-name="exclam" unicode="!" horiz-adv-x="331" 
d="M109 41q2 27 20 44t45 17q26 0 42.5 -17.5t14.5 -43.5q-3 -26 -22 -43.5t-45 -17.5q-28 0 -43 16.5t-12 44.5zM322 1434l-93 -1065h-61l92 1065h62z" />
    <glyph glyph-name="quotedbl" unicode="&#x22;" horiz-adv-x="557" 
d="M238 817h-62l53 615h62zM524 817h-61l53 615h62z" />
    <glyph glyph-name="numbersign" unicode="#" horiz-adv-x="1935" 
d="M1202 500l-176 -502h-63l176 502h-437l-178 -502h-63l178 502h-492l7 61h508l153 430h-522l6 62h539l159 454h64l-160 -454h434l160 454h64l-160 -454h522l-4 -62h-541l-151 -430h553l-9 -61h-567zM1161 561l152 430h-434l-154 -430h436z" />
    <glyph glyph-name="dollar" unicode="$" horiz-adv-x="1411" 
d="M731 -51l-18 -201h-62l19 201q-231 12 -368 153.5t-118 352.5h62q-17 -196 114.5 -320.5t352.5 -124.5q212 0 361 102.5t163 252.5q6 72 -25 126t-88 87.5t-132 58.5t-159 44.5t-167.5 39t-158.5 48t-131.5 66.5t-86.5 99t-23 141q14 168 165.5 286t371.5 124l18 194h62
l-19 -196q147 -7 259.5 -68.5t170 -166t45.5 -232.5h-61q15 177 -115 292t-346 115q-200 0 -338.5 -99t-150.5 -243q-6 -71 24.5 -124t87 -86t131.5 -58t158.5 -44.5t167 -39.5t158.5 -49.5t131.5 -68.5t87 -101.5t24.5 -144.5q-17 -178 -176 -294t-391 -122z" />
    <glyph glyph-name="percent" unicode="%" horiz-adv-x="2084" 
d="M1638 799q179 0 285.5 -116t91.5 -294q-17 -179 -142.5 -294t-305.5 -115t-287 115.5t-90 293.5q15 178 141.5 294t306.5 116zM1636 737q-156 0 -265.5 -98t-121.5 -248q-13 -152 79 -251t247 -99q152 0 259.5 99t121.5 251q12 151 -78 248.5t-242 97.5zM653 1516
q178 0 284 -115.5t91 -294.5t-140.5 -294.5t-305.5 -115.5t-288 116t-93 294t143.5 294t308.5 116zM649 1454q-155 0 -264 -97.5t-123 -248.5q-12 -153 79.5 -251.5t246.5 -98.5q153 0 261 99t120 251q13 151 -77.5 248.5t-242.5 97.5zM1720 1495l-1147 -1495h-73l1147 1495
h73z" />
    <glyph glyph-name="ampersand" unicode="&#x26;" horiz-adv-x="1564" 
d="M1419 0h-92l-207 201q-103 -125 -225 -188.5t-277 -63.5q-207 0 -332 112.5t-110 284.5q7 83 39 150t86 116t112 84t136 68q-176 188 -162 360q12 148 123.5 243t275.5 95q150 0 245 -93.5t106 -244.5l-60 -10q-9 129 -87.5 209t-203.5 80q-140 0 -233 -78t-104 -201
q-7 -92 42.5 -176t145.5 -180q153 -153 481 -473q99 144 211 401h66q-127 -293 -236 -442q8 -8 260 -254zM623 10q265 0 454 234q-79 78 -241 236.5t-244 238.5q-76 -31 -130.5 -62t-106.5 -75t-81.5 -103.5t-35.5 -132.5q-14 -146 95 -241t290 -95z" />
    <glyph glyph-name="quotesingle" unicode="'" horiz-adv-x="270" 
d="M238 819h-62l53 615h62z" />
    <glyph glyph-name="parenleft" unicode="(" horiz-adv-x="618" 
d="M176 575q23 277 136 537.5t272 407.5h84q-174 -157 -290.5 -412.5t-139.5 -532.5q-26 -283 45.5 -537t218.5 -407h-84q-133 147 -200 407t-42 537z" />
    <glyph glyph-name="parenright" unicode=")" horiz-adv-x="618" 
d="M545 575q-25 -278 -137.5 -538t-272.5 -406h-84q173 152 289.5 406t142.5 538q23 279 -48.5 533.5t-217.5 411.5h84q133 -146 200 -406t44 -539z" />
    <glyph glyph-name="asterisk" unicode="*" horiz-adv-x="1019" 
d="M948 731l-325 199l-35 -398h-62l35 398l-362 -199l-25 53l361 199l-328 199l37 53l325 -199l35 398h62l-35 -398l362 199l25 -53l-361 -199l328 -199z" />
    <glyph glyph-name="plus" unicode="+" horiz-adv-x="1171" 
d="M631 184h-60l39 439h-450l4 61h450l35 401h62l-35 -401h450l-4 -61h-452z" />
    <glyph glyph-name="comma" unicode="," horiz-adv-x="348" 
d="M115 41q2 27 20 44t45 17q31 0 50 -24t16 -60q-6 -73 -44 -142t-91 -101l-23 30q34 24 60 73t30 102q-31 0 -48.5 17.5t-14.5 43.5z" />
    <glyph glyph-name="hyphen" unicode="-" horiz-adv-x="1048" 
d="M1004 678l-7 -62h-839l6 62h840z" />
    <glyph glyph-name="period" unicode="." horiz-adv-x="331" 
d="M109 41q2 27 20 44t45 17q26 0 42.5 -17.5t14.5 -43.5q-3 -26 -22 -43.5t-45 -17.5q-28 0 -43 16.5t-12 44.5z" />
    <glyph glyph-name="slash" unicode="/" horiz-adv-x="849" 
d="M891 1434l-785 -1905h-63l782 1905h66z" />
    <glyph glyph-name="zero" unicode="0" horiz-adv-x="1437" 
d="M209 717q19 220 107.5 395.5t227.5 274t304 98.5q164 0 287 -98.5t181.5 -274t39.5 -395.5q-19 -219 -108 -394.5t-229 -274.5t-304 -99q-165 0 -287.5 99t-180 274.5t-38.5 394.5zM270 717q-18 -202 33 -364t160 -252.5t256 -90.5q110 0 210 53t175.5 146t125.5 224.5
t64 283.5q17 202 -34.5 363.5t-160 252t-255.5 90.5t-272 -90.5t-205 -252t-97 -363.5z" />
    <glyph glyph-name="one" unicode="1" horiz-adv-x="657" 
d="M508 1337l-350 -270l6 80l373 287h41l-125 -1434h-62z" />
    <glyph glyph-name="two" unicode="2" horiz-adv-x="1212" 
d="M758 1485q191 0 304.5 -124.5t96.5 -316.5q-14 -152 -104.5 -273.5t-268.5 -262.5l-565 -447h832l-6 -61h-902l9 82l639 508q141 111 217 221t88 233q14 165 -82 272t-258 107q-168 0 -295.5 -104.5t-165.5 -274.5l-59 11q37 187 185 308.5t335 121.5z" />
    <glyph glyph-name="three" unicode="3" horiz-adv-x="1253" 
d="M328 1372l4 62h819l-4 -41l-522 -535q23 2 65 2q217 0 344.5 -126t110.5 -324q-19 -201 -166 -331t-356 -130q-195 0 -321 127.5t-122 322.5l60 11q-6 -173 104 -286.5t285 -113.5q182 0 310.5 113.5t143.5 286.5q14 172 -97 280.5t-300 108.5q-54 0 -104.5 -11
t-75.5 -28l-19 43l560 569h-719z" />
    <glyph glyph-name="four" unicode="4" horiz-adv-x="1130" 
d="M80 430l764 1004h102l-86 -983h184l-4 -62h-184l-35 -389h-61l35 389h-717zM881 1386l-711 -935h629z" />
    <glyph glyph-name="five" unicode="5" horiz-adv-x="1255" 
d="M457 1434h676l-5 -62h-620l-86 -512h211q242 0 386.5 -127t127.5 -323q-19 -201 -166 -331t-356 -130q-195 0 -320.5 126.5t-124.5 321.5l62 13q-5 -173 105.5 -286.5t283.5 -113.5q182 0 310.5 113.5t143.5 286.5q14 169 -115.5 279t-342.5 110h-279z" />
    <glyph glyph-name="six" unicode="6" horiz-adv-x="1169" 
d="M268 696l590 738h78l-520 -648q44 32 117 53t139 21q204 0 326.5 -127t105.5 -323q-19 -201 -163.5 -331t-348.5 -130q-215 0 -342.5 128.5t-110.5 325.5q12 152 129 293zM201 403q-14 -172 96 -282.5t299 -110.5q178 0 304.5 113.5t141.5 286.5q14 169 -92 279t-284 110
q-188 0 -320 -111.5t-145 -284.5z" />
    <glyph glyph-name="seven" unicode="7" horiz-adv-x="1028" 
d="M399 0h-67l698 1372h-887l4 62h963l-4 -41z" />
    <glyph glyph-name="eight" unicode="8" horiz-adv-x="1314" 
d="M786 1485q195 0 314 -105t106 -266q-12 -128 -104 -222t-230 -124q161 -29 252 -137.5t78 -259.5q-17 -184 -171.5 -303t-377.5 -119t-357.5 118.5t-117.5 301.5q13 153 122 261.5t275 137.5q-134 29 -208 122.5t-62 223.5q14 161 149.5 266t331.5 105zM723 737
q-196 0 -332.5 -104t-150.5 -264t103.5 -264.5t313.5 -104.5q128 0 236 47.5t173.5 132t74.5 189.5t-41.5 189t-149.5 131.5t-227 47.5zM782 1423q-169 0 -287 -87t-128 -222q-12 -137 89.5 -226t270.5 -89t287.5 89.5t130.5 225.5q10 135 -92 222t-271 87z" />
    <glyph glyph-name="nine" unicode="9" horiz-adv-x="1171" 
d="M1024 676l-586 -676h-80l471 543q-94 -51 -211 -51q-205 0 -326 138.5t-102 352.5q19 218 164.5 360t350.5 142q214 0 340.5 -142t107.5 -360q-6 -75 -42.5 -161.5t-86.5 -145.5zM1092 983q17 192 -93.5 316t-298.5 124q-178 0 -304.5 -124t-143.5 -316
q-17 -187 88.5 -308.5t284.5 -121.5q187 0 318.5 121t148.5 309z" />
    <glyph glyph-name="colon" unicode=":" horiz-adv-x="331" 
d="M109 41q2 27 20 44t45 17q26 0 42.5 -17.5t14.5 -43.5q-3 -26 -22 -43.5t-45 -17.5q-28 0 -43 16.5t-12 44.5zM184 901q2 27 20.5 44.5t45.5 17.5q26 0 42.5 -18t14.5 -44q-3 -26 -22 -43.5t-45 -17.5q-28 0 -43.5 16.5t-12.5 44.5z" />
    <glyph glyph-name="semicolon" unicode=";" horiz-adv-x="348" 
d="M184 901q2 27 20.5 44.5t45.5 17.5q26 0 42.5 -18t14.5 -44q-3 -26 -22 -43.5t-45 -17.5q-28 0 -43.5 16.5t-12.5 44.5zM115 41q2 27 20 44t45 17q31 0 50 -24t16 -60q-6 -73 -44 -142t-91 -101l-23 30q34 24 60 73t30 102q-31 0 -48.5 17.5t-14.5 43.5z" />
    <glyph glyph-name="less" unicode="&#x3c;" horiz-adv-x="970" 
d="M852 72l-6 -72l-719 485l4 54l805 485l-6 -72l-729 -440z" />
    <glyph glyph-name="equal" unicode="=" horiz-adv-x="1171" 
d="M141 424h963l-6 -62h-963zM186 938h963l-6 -61h-963z" />
    <glyph glyph-name="greater" unicode="&#x3e;" horiz-adv-x="970" 
d="M215 1024l719 -485l-4 -54l-805 -485l6 72l729 440l-651 440z" />
    <glyph glyph-name="question" unicode="?" horiz-adv-x="1163" 
d="M489 41q2 26 20 43.5t46 17.5q27 0 43 -17t14 -44q-3 -27 -21.5 -44t-45.5 -17q-28 0 -43.5 16.5t-12.5 44.5zM606 328h-61q7 80 24 136t53.5 102t80.5 79.5t120 79.5q39 23 57.5 35t52 36.5t51 45.5t38 51.5t31.5 67t14 79.5q15 164 -86 273.5t-270 109.5t-284 -113
t-153 -298l-59 12q44 206 177.5 333.5t324.5 127.5q195 0 311.5 -128.5t99.5 -318.5q-4 -50 -16.5 -92.5t-36 -78t-45.5 -61.5t-61.5 -55.5t-65.5 -47t-74 -46.5q-82 -48 -123.5 -86.5t-66.5 -95.5t-33 -147z" />
    <glyph glyph-name="at" unicode="@" horiz-adv-x="2054" 
d="M233 532q-16 -176 29 -328t138 -260t232 -169.5t306 -61.5q71 0 150 21.5t131 54.5l-7 -72q-59 -29 -136 -47t-146 -18q-144 0 -269.5 42t-220.5 121t-160 186.5t-93 243.5t-15 287q17 190 99 355.5t211 283t302.5 185t366.5 67.5q194 0 356 -67t270 -184.5t161 -283
t36 -356.5q-15 -164 -54.5 -283t-113.5 -191t-176 -72q-221 0 -207 325q-58 -104 -160.5 -164.5t-228.5 -60.5q-187 0 -297.5 126t-93.5 320q17 197 149.5 324t321.5 127q186 0 297 -119t96 -303l-20 -254q-21 -260 149 -260q63 0 112 37.5t82 105.5t53 152.5t30 189.5
q15 179 -34.5 333t-150.5 263.5t-251.5 171.5t-331.5 62q-240 0 -441 -106.5t-326 -296.5t-145 -427zM1108 922q-164 0 -276 -109t-127 -283q-15 -169 78 -276t257 -107q160 0 275.5 108t130.5 275q15 180 -77 286t-261 106z" />
    <glyph glyph-name="A" unicode="A" horiz-adv-x="1306" 
d="M819 1434l445 -1434h-66l-121 389h-780l-188 -389h-66l694 1434h82zM774 1372l-448 -921h733z" />
    <glyph glyph-name="B" unicode="B" horiz-adv-x="1314" 
d="M698 0h-512l125 1434h533q178 0 285.5 -102t93.5 -257q-10 -121 -95.5 -209t-214.5 -116q141 -28 222 -126.5t69 -234.5q-15 -169 -158.5 -279t-347.5 -110zM762 717h-451l-57 -656h451q178 0 301 92.5t137 235.5q12 143 -95.5 235.5t-285.5 92.5zM840 1372h-471
l-54 -594h471q152 0 258.5 84t116.5 213q11 129 -79.5 213t-241.5 84z" />
    <glyph glyph-name="C" unicode="C" horiz-adv-x="1679" 
d="M1536 467l57 -14q-64 -214 -265 -359t-449 -145q-217 0 -382 99t-246.5 274.5t-62.5 394.5q19 220 131.5 395.5t294 274t398.5 98.5q247 0 423 -150.5t201 -371.5l-59 -11q-28 200 -187.5 335.5t-381.5 135.5q-199 0 -366 -89.5t-271 -251t-121 -365.5q-18 -202 57 -364
t226 -252.5t350 -90.5q228 0 411.5 131.5t241.5 325.5z" />
    <glyph glyph-name="D" unicode="D" horiz-adv-x="1499" 
d="M186 0l125 1434h348q249 0 432.5 -89t274 -252t72.5 -376q-19 -213 -138 -376t-317.5 -252t-447.5 -89h-349zM1376 717q16 195 -67.5 343.5t-253 230t-400.5 81.5h-286l-115 -1311h287q173 0 322 47.5t257.5 133t175.5 207.5t80 268z" />
    <glyph glyph-name="E" unicode="E" horiz-adv-x="1273" 
d="M254 61h922l-7 -61h-983l125 1434h963l-4 -62h-901l-54 -594h820l-5 -61h-819z" />
    <glyph glyph-name="F" unicode="F" horiz-adv-x="1130" 
d="M979 635h-676l-55 -635h-62l125 1434h860l-4 -62h-798l-60 -676h676z" />
    <glyph glyph-name="G" unicode="G" horiz-adv-x="1744" 
d="M1622 717h-676l4 61h736q-5 -178 -68.5 -332t-170 -263t-253.5 -171.5t-315 -62.5q-217 0 -382 99t-246.5 274.5t-62.5 394.5q19 220 131.5 395.5t294 274t398.5 98.5q163 0 300.5 -65.5t224 -182t103.5 -262.5l-61 -12q-29 200 -190.5 330t-380.5 130q-199 1 -366 -89
t-271 -252t-121 -365q-18 -200 57 -362t226 -253.5t350 -91.5q294 0 502.5 198t236.5 509z" />
    <glyph glyph-name="H" unicode="H" horiz-adv-x="1413" 
d="M246 0h-62l125 1434h62l-58 -656h922l57 656h62l-125 -1434h-62l64 717h-922z" />
    <glyph glyph-name="I" unicode="I" horiz-adv-x="434" 
d="M373 1434l-125 -1434h-62l125 1434h62z" />
    <glyph glyph-name="J" unicode="J" horiz-adv-x="884" 
d="M674 430l88 1004h61l-88 -1004q-20 -228 -139.5 -349.5t-298.5 -121.5q-113 0 -234 41l7 63q134 -43 241 -43q149 0 247 104t116 306z" />
    <glyph glyph-name="K" unicode="K" horiz-adv-x="1107" 
d="M311 1434h62l-56 -637l746 637h92l-795 -676l684 -758h-86l-647 717l-63 -717h-62z" />
    <glyph glyph-name="L" unicode="L" horiz-adv-x="1130" 
d="M1067 0h-881l125 1434h62l-119 -1373h819z" />
    <glyph glyph-name="M" unicode="M" horiz-adv-x="1826" 
d="M248 0h-62l125 1434h90l519 -1356l753 1356h92l-125 -1434h-61l119 1354l-754 -1354h-61l-516 1350z" />
    <glyph glyph-name="N" unicode="N" horiz-adv-x="1417" 
d="M393 1434l783 -1354l118 1354h62l-125 -1434h-82l-782 1352l-119 -1352h-62l125 1434h82z" />
    <glyph glyph-name="O" unicode="O" horiz-adv-x="1765" 
d="M188 717q19 220 131.5 395.5t294 274t398.5 98.5q216 0 381 -98.5t247.5 -274t63.5 -395.5q-19 -219 -132 -394.5t-295 -274.5t-398 -99q-217 0 -382 99t-246.5 274.5t-62.5 394.5zM250 717q-18 -201 57 -363t226 -253t350 -91t366 90.5t271 252.5t122 364
q17 202 -58 363.5t-226 252t-350 90.5t-366 -90.5t-271 -252t-121 -363.5z" />
    <glyph glyph-name="P" unicode="P" horiz-adv-x="1294" 
d="M750 573h-451l-51 -573h-62l125 1434h512q214 0 343 -121.5t112 -308.5q-17 -188 -166 -309.5t-362 -121.5zM819 1372h-450l-66 -737h451q187 0 318 104.5t145 264.5t-98.5 264t-299.5 104z" />
    <glyph glyph-name="Q" unicode="Q" horiz-adv-x="1765" 
d="M188 717q19 220 131.5 395.5t294 274t398.5 98.5q216 0 381 -98.5t247.5 -274t63.5 -395.5q-19 -207 -120 -374.5t-263 -268.5l289 -402h-80l-264 369q-182 -92 -387 -92q-217 0 -382 99t-246.5 274.5t-62.5 394.5zM250 717q-18 -201 57 -363t226 -253t350 -91t366 90.5
t271 252.5t122 364q17 202 -58 363.5t-226 252t-350 90.5t-366 -90.5t-271 -252t-121 -363.5z" />
    <glyph glyph-name="R" unicode="R" horiz-adv-x="1396" 
d="M186 0l125 1434h594q221 0 346.5 -115.5t108.5 -304.5q-13 -165 -128 -275.5t-296 -136.5l321 -602h-73l-318 594h-567l-51 -594h-62zM901 1372h-532l-64 -717h533q193 0 319.5 99t140.5 260t-95 259.5t-302 98.5z" />
    <glyph glyph-name="S" unicode="S" horiz-adv-x="1411" 
d="M707 -51q-162 0 -286 65t-186.5 180.5t-50.5 260.5h62q-17 -196 114.5 -320.5t352.5 -124.5q212 0 361 102.5t163 252.5q6 72 -25 126t-88 87.5t-132 58.5t-159 44.5t-167.5 39t-158.5 48t-131.5 66.5t-86.5 99t-23 141q15 173 171.5 291.5t383.5 118.5q158 0 280.5 -60
t186 -167.5t51.5 -241.5h-61q15 177 -115 292t-346 115q-200 0 -338.5 -99t-150.5 -243q-6 -71 24.5 -124t87 -86t131.5 -58t158.5 -44.5t167 -39.5t158.5 -49.5t131.5 -68.5t87 -101.5t24.5 -144.5q-11 -120 -90.5 -215t-210.5 -148t-290 -53z" />
    <glyph glyph-name="T" unicode="T" horiz-adv-x="1171" 
d="M676 1372h-512l4 62h1085l-4 -62h-512l-121 -1372h-61z" />
    <glyph glyph-name="U" unicode="U" horiz-adv-x="1417" 
d="M1241 573l74 861h61l-73 -861q-26 -282 -190 -453t-408 -171q-245 0 -379.5 171.5t-108.5 452.5l74 861h61l-73 -861q-23 -257 93.5 -410t336.5 -153t364.5 153t167.5 410z" />
    <glyph glyph-name="V" unicode="V" horiz-adv-x="1306" 
d="M236 1434l423 -1371l662 1371h68l-695 -1434h-82l-444 1434h68z" />
    <glyph glyph-name="W" unicode="W" horiz-adv-x="1998" 
d="M1456 74l541 1360h63l-569 -1434h-82l-291 1354l-528 -1354h-82l-320 1434h64l303 -1360l528 1360h82z" />
    <glyph glyph-name="X" unicode="X" horiz-adv-x="1208" 
d="M629 758l-422 676h76l391 -627l504 627h75l-542 -676l434 -758h-74l-405 707l-529 -707h-74z" />
    <glyph glyph-name="Y" unicode="Y" horiz-adv-x="1138" 
d="M590 594l-422 840h72l387 -772l522 772h72l-570 -840l-51 -594h-61z" />
    <glyph glyph-name="Z" unicode="Z" 
d="M68 41l1110 1331h-973l4 62h1065l-4 -41l-1108 -1332h1014l-7 -61h-1106z" />
    <glyph glyph-name="bracketleft" unicode="[" horiz-adv-x="884" 
d="M373 1434l-152 -1741h553l-8 -62h-612l163 1864h615l-6 -61h-553z" />
    <glyph glyph-name="backslash" unicode="\" horiz-adv-x="849" 
d="M209 1434h65l451 -1905h-63z" />
    <glyph glyph-name="bracketright" unicode="]" horiz-adv-x="884" 
d="M666 -369h-615l6 62h553l152 1741h-553l6 61h614z" />
    <glyph glyph-name="asciicircum" unicode="^" horiz-adv-x="1167" 
d="M231 819h-75l512 615h82l405 -615h-76l-374 567z" />
    <glyph glyph-name="underscore" unicode="_" horiz-adv-x="1024" 
d="M-6 0h1024l-6 -61h-1024z" />
    <glyph glyph-name="grave" unicode="`" horiz-adv-x="516" 
d="M236 1495h86l200 -225h-86z" />
    <glyph glyph-name="a" unicode="a" horiz-adv-x="1355" 
d="M1174 756l24 268h62l-91 -1024h-61l22 268q-67 -141 -200 -225t-297 -84q-233 0 -369 155.5t-114 397.5t184 397.5t395 155.5q164 0 283 -84t162 -225zM639 20q200 0 347.5 140t166.5 352q12 139 -40.5 252t-154.5 176.5t-233 63.5q-205 0 -350 -139t-164 -353t102 -353
t326 -139z" />
    <glyph glyph-name="b" unicode="b" horiz-adv-x="1355" 
d="M317 1495h62l-66 -739q67 141 200 225t298 84q232 0 369.5 -156t115.5 -397t-185.5 -397t-395.5 -156q-165 0 -283.5 84t-161.5 225l-22 -268h-62zM1235 512q19 214 -102.5 353t-325.5 139q-205 0 -350 -139t-164 -353t102 -353t326 -139q204 0 349.5 139t164.5 353z" />
    <glyph glyph-name="c" unicode="c" horiz-adv-x="1216" 
d="M1174 707l-62 -11q-25 134 -133.5 221t-253.5 87q-205 0 -350 -139t-164 -353t102 -353t326 -139q147 0 270.5 81t167.5 206l60 -12q-51 -146 -193 -241t-311 -95q-232 0 -368.5 156t-114.5 397q22 242 184.5 397.5t394.5 155.5q171 0 297 -101t148 -257z" />
    <glyph glyph-name="d" unicode="d" horiz-adv-x="1355" 
d="M1174 756l65 739h61l-131 -1495h-61l22 268q-67 -141 -200 -225t-297 -84q-232 0 -368.5 156t-114.5 397q22 242 184.5 397.5t394.5 155.5q164 0 283 -84t162 -225zM211 512q-19 -214 102 -353t326 -139q204 0 349.5 139t164.5 353t-102.5 353t-325.5 139
q-205 0 -350 -139t-164 -353z" />
    <glyph glyph-name="e" unicode="e" horiz-adv-x="1294" 
d="M659 20q148 0 280 83t187 212l62 -10q-63 -150 -214.5 -248t-320.5 -98q-159 0 -279 70.5t-179 197t-45 285.5q22 242 190.5 397.5t409.5 155.5q233 0 370 -156t115 -397q0 -3 -1 -9.5t-1 -10.5h-1024q-12 -206 114 -339t336 -133zM215 553h961q3 199 -117 325t-314 126
q-204 0 -351.5 -126.5t-178.5 -324.5z" />
    <glyph glyph-name="f" unicode="f" horiz-adv-x="700" 
d="M770 1516l-6 -62q-69 21 -141 21q-76 0 -124 -45.5t-57 -139.5l-22 -266h287l-7 -61h-286l-84 -963h-62l84 963h-184l6 61h184l23 266q10 120 78 183t170 63q79 0 141 -20z" />
    <glyph glyph-name="g" unicode="g" horiz-adv-x="1355" 
d="M117 -113l63 9q5 -151 128.5 -249t309.5 -98q195 -1 334 126.5t156 324.5l22 260q-74 -140 -205.5 -220.5t-291.5 -80.5q-232 0 -368.5 156t-114.5 397q22 242 184.5 397.5t394.5 155.5q159 0 277 -81t170 -220l22 260h62l-91 -1024q-20 -223 -177 -367.5t-380 -144.5
q-209 0 -348 112.5t-147 286.5zM639 20q205 0 350 139t164 353q19 213 -103 352.5t-325 139.5q-208 0 -351.5 -138.5t-162.5 -353.5q-12 -140 39.5 -253t153.5 -176t235 -63z" />
    <glyph glyph-name="h" unicode="h" 
d="M739 1065q191 0 294.5 -132t84.5 -339l-51 -594h-61l51 594q17 181 -72 295.5t-256 114.5q-164 0 -288.5 -111.5t-139.5 -278.5l-53 -614h-62l131 1495h62l-60 -682q57 115 170.5 183.5t249.5 68.5z" />
    <glyph glyph-name="i" unicode="i" horiz-adv-x="454" 
d="M348 1024l-90 -1024h-61l90 1024h61zM281 1311q2 26 20.5 43.5t46.5 17.5q26 0 41.5 -17t13.5 -44q-1 -26 -21 -44t-46 -18q-27 0 -42 17.5t-13 44.5z" />
    <glyph glyph-name="j" unicode="j" horiz-adv-x="446" 
d="M168 -227l111 1251h61l-111 -1249q-7 -98 -73 -162t-158 -64q-59 0 -135 27l6 64q81 -29 131 -29q67 0 114.5 45.5t53.5 116.5zM272 1311q3 28 21.5 44.5t46.5 16.5q27 0 42.5 -17t12.5 -44q-1 -26 -21 -44t-46 -18q-27 0 -43 17.5t-13 44.5z" />
    <glyph glyph-name="k" unicode="k" horiz-adv-x="1011" 
d="M317 1495h62l-82 -926l588 455h96l-637 -492l563 -532h-92l-524 494l-43 -494h-62z" />
    <glyph glyph-name="l" unicode="l" horiz-adv-x="430" 
d="M377 1495l-131 -1495h-62l131 1495h62z" />
    <glyph glyph-name="m" unicode="m" horiz-adv-x="1888" 
d="M186 0l90 1024h62l-14 -168q50 98 145 153.5t219 55.5q139 0 229 -73.5t107 -198.5q40 126 146.5 199t254.5 73q175 0 272.5 -118.5t80.5 -311.5l-56 -635h-61l55 635q15 166 -66 267.5t-229 101.5q-157 0 -261.5 -101.5t-119.5 -267.5l-55 -635h-61l55 635
q15 166 -66 267.5t-229 101.5q-157 0 -261.5 -101.5t-119.5 -267.5l-55 -635h-62z" />
    <glyph glyph-name="n" unicode="n" 
d="M756 1065q190 0 285.5 -130.5t76.5 -340.5l-51 -594h-61l51 594q18 184 -61.5 297t-243.5 113q-168 0 -302 -112.5t-149 -277.5l-53 -614h-62l90 1024h62l-19 -205q58 112 178 179t259 67z" />
    <glyph glyph-name="o" unicode="o" horiz-adv-x="1269" 
d="M1212 512q-22 -241 -185.5 -397t-395.5 -156t-369 156t-115 397q22 242 185 397.5t395 155.5t369.5 -156t115.5 -397zM1151 512q19 214 -102.5 353t-325.5 139t-349.5 -139t-164.5 -353t102.5 -353t325.5 -139t349.5 139t164.5 353z" />
    <glyph glyph-name="p" unicode="p" horiz-adv-x="1355" 
d="M270 268l-63 -739h-62l131 1495h62l-25 -268q67 141 200 225t298 84q232 0 369.5 -156t115.5 -397t-185.5 -397t-395.5 -156q-165 0 -283.5 84t-161.5 225zM1235 512q19 214 -102.5 353t-325.5 139q-205 0 -350 -139t-164 -353t102 -353t326 -139q204 0 349.5 139
t164.5 353z" />
    <glyph glyph-name="q" unicode="q" horiz-adv-x="1355" 
d="M1128 -471h-61l63 739q-67 -141 -200 -225t-297 -84q-232 0 -368.5 156t-114.5 397q22 242 184.5 397.5t394.5 155.5q164 0 283 -84t162 -225l24 268h62zM211 512q-19 -214 102 -353t326 -139q204 0 349.5 139t164.5 353t-102.5 353t-325.5 139q-205 0 -350 -139
t-164 -353z" />
    <glyph glyph-name="r" unicode="r" horiz-adv-x="780" 
d="M631 1065q85 0 157 -35l-6 -69q-73 43 -153 43q-133 0 -223 -112.5t-107 -297.5l-51 -594h-62l90 1024h62l-16 -182q45 106 124 164.5t185 58.5z" />
    <glyph glyph-name="s" unicode="s" horiz-adv-x="1034" 
d="M526 -41q-186 0 -296.5 101.5t-96.5 258.5h62q-12 -132 82 -215.5t253 -83.5q147 0 249.5 70.5t111.5 175.5q6 64 -30.5 107.5t-99 66.5t-139 40.5t-152.5 36.5t-138 46.5t-98 79t-29 125.5q10 127 123.5 212t273.5 85q171 0 275 -95.5t92 -242.5h-62q10 122 -77.5 199.5
t-229.5 77.5q-133 0 -229 -67t-105 -165q-5 -61 31.5 -103t99 -64t139 -39t153 -37t138.5 -48t98 -81.5t29 -129.5q-12 -135 -134 -223t-294 -88z" />
    <glyph glyph-name="t" unicode="t" horiz-adv-x="720" 
d="M266 205l66 758h-185l7 61h184l20 229h62l-21 -229h287l-6 -61h-287l-65 -758q-8 -82 33 -133.5t122 -51.5q63 0 138 21l-7 -61q-61 -21 -145 -21q-101 0 -157 68t-46 178z" />
    <glyph glyph-name="u" unicode="u" 
d="M565 -41q-190 0 -285 130.5t-77 340.5l53 594h61l-53 -594q-16 -184 63.5 -297t243.5 -113q168 0 302 112.5t149 277.5l53 614h62l-90 -1024h-62l19 205q-61 -112 -181.5 -179t-257.5 -67z" />
    <glyph glyph-name="v" unicode="v" horiz-adv-x="1138" 
d="M528 0l-354 1024h66l331 -969l508 969h66l-535 -1024h-82z" />
    <glyph glyph-name="w" unicode="w" horiz-adv-x="1777" 
d="M469 0l-274 1024h65l256 -956l420 956h82l256 -956l424 956h65l-454 -1024h-82l-256 954l-420 -954h-82z" />
    <glyph glyph-name="x" unicode="x" horiz-adv-x="1011" 
d="M180 0h-76l408 532l-297 492h76l266 -442l346 442h74l-383 -492l313 -532h-73l-285 483z" />
    <glyph glyph-name="y" unicode="y" horiz-adv-x="1146" 
d="M88 -430l4 61q65 -20 119 -20q43 0 82.5 20t70.5 49.5t69 87t65 107t71 135.5l-395 1014h70l366 -940l477 940h66l-520 -1024q-47 -93 -80 -152t-76.5 -122t-82 -97.5t-87.5 -57t-104 -22.5q-64 0 -115 21z" />
    <glyph glyph-name="z" unicode="z" horiz-adv-x="1110" 
d="M971 963h-762l6 61h860l-4 -41l-862 -922h803l-6 -61h-902l5 41z" />
    <glyph glyph-name="braceleft" unicode="{" horiz-adv-x="686" 
d="M473 -307h102l-8 -62h-100q-98 0 -155 69.5t-48 176.5l43 492q6 67 -27.5 111t-89.5 44h-20l10 97h21q56 0 95.5 44t45.5 113l41 471q9 107 79.5 176.5t168.5 69.5h102l-6 -61h-102q-72 0 -122.5 -52.5t-58.5 -132.5l-41 -471q-6 -82 -51.5 -139.5t-107.5 -63.5l-21 -2
l19 -2q62 -6 97.5 -62.5t29.5 -139.5l-43 -492q-8 -80 33.5 -132t113.5 -52z" />
    <glyph glyph-name="bar" unicode="|" horiz-adv-x="434" 
d="M317 1495h62l-172 -1966h-62z" />
    <glyph glyph-name="braceright" unicode="}" horiz-adv-x="686" 
d="M154 -369h-103l6 62h103q70 0 121 52t59 132l43 492q6 83 51.5 139.5t108.5 62.5l22 2l-20 2q-63 6 -98 62.5t-29 140.5l41 471q7 79 -35 132t-113 53h-102l6 61h102q98 0 155 -69.5t48 -176.5l-41 -471q-6 -69 27 -113t90 -44h20l-10 -97h-20q-57 0 -96.5 -43.5
t-45.5 -111.5l-43 -492q-9 -107 -79 -176.5t-168 -69.5z" />
    <glyph glyph-name="asciitilde" unicode="~" horiz-adv-x="1179" 
d="M406 799q56 0 114.5 -25.5t108.5 -61.5t98.5 -72t101.5 -61.5t101 -25.5q88 0 166 63l30 -51q-103 -73 -204 -73q-55 -1 -113 24t-107.5 61.5t-97.5 72.5t-102 61.5t-103 25.5q-103 0 -200 -84l-33 52q118 94 240 94z" />
    <glyph glyph-name="exclamdown" unicode="&#xa1;" horiz-adv-x="327" 
d="M92 -471l92 1065h62l-92 -1065h-62zM305 922q-2 -27 -20 -44.5t-45 -17.5t-43.5 17.5t-14.5 44.5q3 27 22 44t46 17q28 0 43 -16.5t12 -44.5z" />
    <glyph glyph-name="cent" unicode="&#xa2;" horiz-adv-x="1216" 
d="M674 -39l-15 -166h-61l14 164q-223 8 -353.5 163.5t-108.5 389.5q20 235 177.5 390t381.5 163l14 164h61l-14 -166q159 -12 271.5 -111t132.5 -245l-62 -11q-25 134 -133.5 221t-253.5 87q-205 0 -350 -139t-164 -353t102 -353t326 -139q147 0 270.5 81t167.5 206l60 -12
q-46 -137 -175.5 -230.5t-287.5 -103.5z" />
    <glyph glyph-name="sterling" unicode="&#xa3;" horiz-adv-x="1150" 
d="M793 1423q-119 0 -207 -95.5t-101 -242.5l-28 -327h553l-4 -62h-553q-29 -292 -96 -441.5t-167 -193.5h863l-6 -61h-943l9 102q52 6 93 37.5t78 97.5t64 181t43 278h-205l4 62h205l29 327q15 173 120.5 286.5t250.5 113.5q151 0 245.5 -122t89.5 -310l-61 -9
q6 164 -71.5 271.5t-204.5 107.5z" />
    <glyph glyph-name="currency" unicode="&#xa4;" horiz-adv-x="1527" 
d="M1217 903l239 223l39 -43l-242 -225q106 -141 88 -346q-18 -206 -149 -346l203 -225l-45 -43l-203 223q-160 -141 -385 -141q-227 0 -359 141l-241 -223l-43 41l246 227q-107 142 -89 346q18 205 150 346l-205 225l47 43l205 -223q154 141 383 141q223 0 361 -141z
M1280 512q19 205 -102.5 338t-327.5 133q-203 0 -348 -133t-164 -338q-19 -204 103 -337.5t327 -133.5t349 133t163 338z" />
    <glyph glyph-name="yen" unicode="&#xa5;" horiz-adv-x="1304" 
d="M647 573l-459 861h72l445 -836l587 836h72l-606 -861h508l-6 -61h-533l-25 -287h533l-6 -61h-533l-14 -164h-61l14 164h-533l7 61h532l25 287h-533l6 61h508z" />
    <glyph glyph-name="section" unicode="&#xa7;" horiz-adv-x="1212" 
d="M721 1444q170 0 271 -105t87 -268l-61 -6q12 138 -73 227.5t-228 89.5q-146 0 -243.5 -77t-108.5 -199q-5 -60 15 -104t46.5 -68t87 -42.5t97 -24.5t115.5 -16q5 -1 7 -1q41 -5 61 -8t57.5 -9.5t57.5 -12.5t51 -15t48 -20t39.5 -26t34 -33.5t22.5 -41t14 -50.5t0 -61
q-9 -103 -82 -170.5t-200 -87.5q65 -20 108 -50.5t68 -87t18 -136.5q-13 -156 -140.5 -257t-309.5 -101q-184 0 -294 104t-96 264l64 8q-12 -140 78.5 -227.5t251.5 -87.5q158 0 265.5 83t119.5 214q4 51 -7 90t-37 64.5t-59 43t-78 28t-89 17t-97 12.5q-8 1 -12 1
q-45 5 -69 8t-65 9.5t-64 13t-56 18.5t-51.5 25.5t-39.5 33.5t-30.5 43.5t-15 55.5t-2.5 69q8 99 82.5 168t205.5 90q-95 32 -143.5 96.5t-38.5 178.5q13 148 131 243t287 95zM639 799q-171 -6 -272 -66t-109 -160q-5 -50 13 -87t42 -57t78.5 -35.5t89 -21t107.5 -14.5
q11 -1 16 -2q44 -4 68 -8q178 6 277 63.5t108 161.5q2 28 -3 52.5t-13.5 42.5t-26.5 33.5t-33 26t-41.5 19.5t-44 14t-48.5 10t-47 7t-47 5.5t-42 4.5q-13 2 -36 5.5t-36 5.5z" />
    <glyph glyph-name="dieresis" unicode="&#xa8;" horiz-adv-x="741" 
d="M279 1280q-28 0 -43.5 16.5t-14.5 44.5q3 28 21.5 45t46.5 17t43 -17t12 -45q-1 -28 -19 -44.5t-46 -16.5zM688 1280q-28 0 -43.5 16.5t-13.5 44.5q3 28 21 45t46 17t43.5 -17t12.5 -45q-1 -28 -19.5 -44.5t-46.5 -16.5z" />
    <glyph glyph-name="copyright" unicode="&#xa9;" horiz-adv-x="1806" 
d="M170 512q19 218 134 395.5t302 280t410 102.5t392 -100t253 -277.5t65 -400.5t-134.5 -400.5t-301.5 -277.5t-409 -100q-224 0 -393 100t-253 277.5t-65 400.5zM231 512q-18 -205 59.5 -369t233.5 -256t361 -92t377 92t278.5 256t124.5 369q17 200 -60.5 363.5
t-234 258.5t-360.5 95q-153 0 -292 -55.5t-241 -151.5t-167.5 -228.5t-78.5 -281.5zM1440 766l-58 -18q-40 118 -145 187t-246 69q-204 0 -349.5 -139t-164.5 -353q-19 -217 101 -354.5t327 -137.5q137 0 260 74t178 189l54 -25q-61 -130 -202.5 -214.5t-297.5 -84.5
q-114 0 -208.5 41.5t-158 114t-94.5 175.5t-20 222q22 242 185 397.5t396 155.5q159 0 284 -84.5t159 -214.5z" />
    <glyph glyph-name="guillemotleft" unicode="&#xab;" horiz-adv-x="1167" 
d="M682 1024l-473 -512l383 -512h-82l-381 512l473 512h80zM1133 1024l-474 -512l383 -512h-81l-381 512l473 512h80z" />
    <glyph glyph-name="logicalnot" unicode="&#xac;" horiz-adv-x="1284" 
d="M1110 143l43 488h-993l6 61h1055l-50 -549h-61z" />
    <glyph glyph-name="registered" unicode="&#xae;" horiz-adv-x="1806" 
d="M170 518q19 218 134 395.5t302 280t410 102.5t392 -100t253 -277.5t65 -400.5t-134.5 -400.5t-301.5 -277.5t-409 -100q-224 0 -393 100t-253 277.5t-65 400.5zM1665 518q17 200 -60 363.5t-233 258.5t-360 95t-377.5 -95t-280 -259t-123.5 -363q-18 -205 60 -369
t234.5 -256t361.5 -92t376.5 92t277.5 256t124 369zM659 27h-61l88 1003h416q131 0 208.5 -84t65.5 -213q-9 -115 -90.5 -198t-198.5 -97l218 -411h-72l-215 409h-322zM1315 733q9 104 -53.5 170t-171.5 66h-349l-41 -471h349q106 0 181.5 66.5t84.5 168.5z" />
    <glyph glyph-name="macron" unicode="&#xaf;" horiz-adv-x="770" 
d="M788 1413l-4 -61h-561l4 61h561z" />
    <glyph glyph-name="degree" unicode="&#xb0;" horiz-adv-x="1030" 
d="M578 711q-186 0 -289 109t-88 288q17 180 138.5 289.5t307.5 109.5q185 0 288.5 -109.5t86.5 -289.5q-15 -178 -137 -287.5t-307 -109.5zM645 1446q-158 0 -264 -93t-119 -245q-12 -151 77 -243.5t247 -92.5q157 0 260 92.5t115 243.5q14 152 -72.5 245t-243.5 93z" />
    <glyph glyph-name="plusminus" unicode="&#xb1;" horiz-adv-x="1130" 
d="M111 61h921l-6 -61h-922zM629 381h-62l27 305h-430l6 62h430l25 276h61l-24 -276h430l-7 -62h-430z" />
    <glyph glyph-name="acute" unicode="&#xb4;" horiz-adv-x="516" 
d="M543 1495l-242 -225h-86l242 225h86z" />
    <glyph glyph-name="paragraph" unicode="&#xb6;" horiz-adv-x="1312" 
d="M1270 1372h-185l-161 -1843h-62l162 1843h-287l-162 -1843h-61l102 1167q-203 0 -318 101.5t-101 267.5q15 166 148.5 267.5t334.5 101.5h594z" />
    <glyph glyph-name="periodcentered" unicode="&#xb7;" horiz-adv-x="331" 
d="M213 535q-27 0 -43 17t-14 44q3 27 21.5 44t45.5 17q26 0 42.5 -17.5t13.5 -43.5q-1 -26 -20.5 -43.5t-45.5 -17.5z" />
    <glyph glyph-name="cedilla" unicode="&#xb8;" horiz-adv-x="632" 
d="M276 -184h-71l37 188h61l-24 -127q111 0 169.5 -62.5t49.5 -162.5q-8 -90 -72.5 -147.5t-157.5 -57.5q-82 0 -135 47.5t-61 124.5l59 12q8 -56 46.5 -89.5t98.5 -33.5q66 0 110.5 40.5t49.5 103.5q6 75 -37.5 119.5t-122.5 44.5z" />
    <glyph glyph-name="guillemotright" unicode="&#xbb;" horiz-adv-x="1163" 
d="M676 512l-471 -512h-82l473 512l-383 512h80zM1126 512l-471 -512h-82l474 512l-383 512h79z" />
    <glyph glyph-name="questiondown" unicode="&#xbf;" horiz-adv-x="1163" 
d="M641 655h61q-7 -80 -24 -136t-53.5 -102t-80.5 -79.5t-120 -79.5q-45 -27 -68.5 -42.5t-60 -46t-56 -59t-36.5 -72.5t-21 -95q-15 -164 86.5 -273.5t270.5 -109.5t283.5 112.5t152.5 298.5l59 -12q-44 -206 -177.5 -333.5t-324.5 -127.5q-195 0 -311.5 128.5t-99.5 318.5
q5 60 24 110.5t43 85t67.5 71.5t75.5 58t89 56q119 70 164 134.5t57 194.5zM760 942q-2 -26 -20 -43.5t-46 -17.5q-26 0 -42.5 17.5t-14.5 43.5q3 26 22.5 44t45.5 18q28 0 43 -17t12 -45z" />
    <glyph glyph-name="Agrave" unicode="&#xc0;" horiz-adv-x="1306" 
d="M819 1434l445 -1434h-66l-121 389h-780l-188 -389h-66l694 1434h82zM774 1372l-448 -921h733zM748 1618l-164 184h86l164 -184h-86z" />
    <glyph glyph-name="Aacute" unicode="&#xc1;" horiz-adv-x="1306" 
d="M819 1434l445 -1434h-66l-121 389h-780l-188 -389h-66l694 1434h82zM774 1372l-448 -921h733zM1034 1802l-196 -184h-86l196 184h86z" />
    <glyph glyph-name="Acircumflex" unicode="&#xc2;" horiz-adv-x="1306" 
d="M819 1434l445 -1434h-66l-121 389h-780l-188 -389h-66l694 1434h82zM774 1372l-448 -921h733zM641 1618h-92l219 184h82l184 -184h-92l-137 137z" />
    <glyph glyph-name="Atilde" unicode="&#xc3;" horiz-adv-x="1306" 
d="M819 1434l445 -1434h-66l-121 389h-780l-188 -389h-66l694 1434h82zM774 1372l-448 -921h733zM559 1649l-47 30q23 45 76 74t112 29q42 0 75.5 -16t53 -35.5t50.5 -35.5t69 -16q45 0 81.5 21.5t55.5 56.5l54 -26q-27 -50 -82 -81.5t-119 -31.5q-43 0 -77 16t-53.5 35
t-49.5 35t-64 16q-42 0 -78 -19.5t-57 -51.5z" />
    <glyph glyph-name="Adieresis" unicode="&#xc4;" horiz-adv-x="1306" 
d="M819 1434l445 -1434h-66l-121 389h-780l-188 -389h-66l694 1434h82zM774 1372l-448 -921h733zM592 1669q-26 0 -42 18t-13 44q1 26 20.5 43.5t46.5 17.5q26 0 41.5 -17t13.5 -44q-3 -26 -22 -44t-45 -18zM1001 1669q-26 0 -42 18t-13 44q1 26 21 43.5t47 17.5
q26 0 41.5 -17t13.5 -44q-3 -26 -22.5 -44t-45.5 -18z" />
    <glyph glyph-name="Aring" unicode="&#xc5;" horiz-adv-x="1306" 
d="M819 1434l445 -1434h-66l-121 389h-780l-188 -389h-66l694 1434h82zM774 1372l-448 -921h733zM786 1538q-75 0 -120 49.5t-39 124.5t59.5 123.5t128.5 48.5t120.5 -48.5t39.5 -123.5t-60.5 -124.5t-128.5 -49.5zM811 1823q-49 0 -83.5 -31t-39.5 -78q-5 -51 23.5 -83
t79.5 -32q50 0 85 32t39 83q5 48 -24 78.5t-80 30.5z" />
    <glyph glyph-name="AE" unicode="&#xc6;" horiz-adv-x="1787" 
d="M1688 61l-7 -61h-839l28 328h-557l-202 -328h-68l883 1434h860l-4 -60h-758l-55 -616h676l-5 -62h-675l-56 -635h779zM877 389l86 989l-611 -989h525z" />
    <glyph glyph-name="Ccedilla" unicode="&#xc7;" horiz-adv-x="1679" 
d="M891 -184h-72l27 133q-156 6 -285.5 66t-216 160.5t-128.5 241t-28 300.5q19 220 131.5 395.5t294 274t398.5 98.5q247 0 423 -150.5t201 -371.5l-59 -11q-28 200 -187.5 335.5t-381.5 135.5q-199 0 -366 -89.5t-271 -251t-121 -365.5q-18 -202 57 -364t226 -252.5
t350 -90.5q228 0 411.5 131.5t241.5 325.5l57 -14q-61 -207 -253.5 -351t-432.5 -153l-14 -72q111 0 169.5 -62.5t49.5 -162.5q-8 -90 -72 -147.5t-157 -57.5q-83 0 -136 47.5t-61 124.5l59 12q8 -56 47 -89.5t99 -33.5q66 0 110.5 40.5t49.5 103.5q6 75 -37.5 119.5
t-122.5 44.5z" />
    <glyph glyph-name="Egrave" unicode="&#xc8;" horiz-adv-x="1273" 
d="M254 61h922l-7 -61h-983l125 1434h963l-4 -62h-901l-54 -594h820l-5 -61h-819zM774 1618l-164 184h86l164 -184h-86z" />
    <glyph glyph-name="Eacute" unicode="&#xc9;" horiz-adv-x="1273" 
d="M254 61h922l-7 -61h-983l125 1434h963l-4 -62h-901l-54 -594h820l-5 -61h-819zM1061 1802l-197 -184h-86l197 184h86z" />
    <glyph glyph-name="Ecircumflex" unicode="&#xca;" horiz-adv-x="1273" 
d="M254 61h922l-7 -61h-983l125 1434h963l-4 -62h-901l-54 -594h820l-5 -61h-819zM668 1618h-93l220 184h82l184 -184h-92l-138 137z" />
    <glyph glyph-name="Edieresis" unicode="&#xcb;" horiz-adv-x="1273" 
d="M254 61h922l-7 -61h-983l125 1434h963l-4 -62h-901l-54 -594h820l-5 -61h-819zM618 1669q-26 0 -42 18t-13 44q1 26 21 43.5t47 17.5q26 0 41.5 -17t13.5 -44q-3 -26 -22.5 -44t-45.5 -18zM1028 1669q-26 0 -42 18t-13 44q1 26 20.5 43.5t46.5 17.5q26 0 42 -17.5
t14 -43.5q-3 -26 -22.5 -44t-45.5 -18z" />
    <glyph glyph-name="Igrave" unicode="&#xcc;" horiz-adv-x="454" 
d="M383 1434l-125 -1434h-61l125 1434h61zM324 1618l-164 184h86l164 -184h-86z" />
    <glyph glyph-name="Iacute" unicode="&#xcd;" horiz-adv-x="454" 
d="M383 1434l-125 -1434h-61l125 1434h61zM610 1802l-196 -184h-86l196 184h86z" />
    <glyph glyph-name="Icircumflex" unicode="&#xce;" horiz-adv-x="407" 
d="M360 1434l-124 -1434h-62l125 1434h61zM195 1618h-93l220 184h81l185 -184h-92l-138 137z" />
    <glyph glyph-name="Idieresis" unicode="&#xcf;" horiz-adv-x="434" 
d="M373 1434l-125 -1434h-62l125 1434h62zM158 1669q-26 0 -42.5 18t-13.5 44q1 26 21 43.5t47 17.5q26 0 41.5 -17t13.5 -44q-3 -26 -22 -44t-45 -18zM567 1669q-26 0 -42 18t-13 44q1 26 21 43.5t47 17.5q26 0 41.5 -17t13.5 -44q-3 -26 -22.5 -44t-45.5 -18z" />
    <glyph glyph-name="Ntilde" unicode="&#xd1;" horiz-adv-x="1417" 
d="M393 1434l783 -1354l118 1354h62l-125 -1434h-82l-782 1352l-119 -1352h-62l125 1434h82zM606 1649l-47 30q23 45 76 74t113 29q42 0 75.5 -16t52.5 -35.5t50 -35.5t69 -16q45 0 82 21.5t56 56.5l53 -26q-27 -50 -82 -81.5t-119 -31.5q-43 0 -77 16t-53.5 35t-49.5 35
t-64 16q-42 0 -78 -19.5t-57 -51.5z" />
    <glyph glyph-name="Ograve" unicode="&#xd2;" horiz-adv-x="1765" 
d="M188 717q19 220 131.5 395.5t294 274t398.5 98.5q216 0 381 -98.5t247.5 -274t63.5 -395.5q-19 -219 -132 -394.5t-295 -274.5t-398 -99q-217 0 -382 99t-246.5 274.5t-62.5 394.5zM250 717q-18 -201 57 -363t226 -253t350 -91t366 90.5t271 252.5t122 364
q17 202 -58 363.5t-226 252t-350 90.5t-366 -90.5t-271 -252t-121 -363.5zM979 1618l-164 184h86l164 -184h-86z" />
    <glyph glyph-name="Oacute" unicode="&#xd3;" horiz-adv-x="1765" 
d="M188 717q19 220 131.5 395.5t294 274t398.5 98.5q216 0 381 -98.5t247.5 -274t63.5 -395.5q-19 -219 -132 -394.5t-295 -274.5t-398 -99q-217 0 -382 99t-246.5 274.5t-62.5 394.5zM250 717q-18 -201 57 -363t226 -253t350 -91t366 90.5t271 252.5t122 364
q17 202 -58 363.5t-226 252t-350 90.5t-366 -90.5t-271 -252t-121 -363.5zM1266 1802l-197 -184h-86l197 184h86z" />
    <glyph glyph-name="Ocircumflex" unicode="&#xd4;" horiz-adv-x="1765" 
d="M188 717q19 220 131.5 395.5t294 274t398.5 98.5q216 0 381 -98.5t247.5 -274t63.5 -395.5q-19 -219 -132 -394.5t-295 -274.5t-398 -99q-217 0 -382 99t-246.5 274.5t-62.5 394.5zM250 717q-18 -201 57 -363t226 -253t350 -91t366 90.5t271 252.5t122 364
q17 202 -58 363.5t-226 252t-350 90.5t-366 -90.5t-271 -252t-121 -363.5zM877 1659h-93l220 184h81l185 -184h-92l-138 137z" />
    <glyph glyph-name="Otilde" unicode="&#xd5;" horiz-adv-x="1765" 
d="M188 717q19 220 131.5 395.5t294 274t398.5 98.5q216 0 381 -98.5t247.5 -274t63.5 -395.5q-19 -219 -132 -394.5t-295 -274.5t-398 -99q-217 0 -382 99t-246.5 274.5t-62.5 394.5zM250 717q-18 -201 57 -363t226 -253t350 -91t366 90.5t271 252.5t122 364
q17 202 -58 363.5t-226 252t-350 90.5t-366 -90.5t-271 -252t-121 -363.5zM770 1649l-47 30q23 45 76 74t112 29q42 0 75.5 -16t53 -35.5t50.5 -35.5t69 -16q45 0 81.5 21.5t55.5 56.5l54 -26q-27 -50 -82 -81.5t-119 -31.5q-43 0 -77 16t-53.5 35t-49.5 35t-64 16
q-42 0 -78 -19.5t-57 -51.5z" />
    <glyph glyph-name="Odieresis" unicode="&#xd6;" horiz-adv-x="1765" 
d="M188 717q19 220 131.5 395.5t294 274t398.5 98.5q216 0 381 -98.5t247.5 -274t63.5 -395.5q-19 -219 -132 -394.5t-295 -274.5t-398 -99q-217 0 -382 99t-246.5 274.5t-62.5 394.5zM250 717q-18 -201 57 -363t226 -253t350 -91t366 90.5t271 252.5t122 364
q17 202 -58 363.5t-226 252t-350 90.5t-366 -90.5t-271 -252t-121 -363.5zM823 1669q-26 0 -42 18t-13 44q1 26 21 43.5t47 17.5q26 0 41.5 -17t13.5 -44q-3 -26 -22.5 -44t-45.5 -18zM1233 1669q-26 0 -42 18t-13 44q1 26 20.5 43.5t46.5 17.5q26 0 41.5 -17t13.5 -44
q-3 -26 -22 -44t-45 -18z" />
    <glyph glyph-name="multiply" unicode="&#xd7;" horiz-adv-x="747" 
d="M176 328l-39 41l248 245l-205 246l47 41l203 -242l248 242l43 -41l-252 -246l207 -245l-49 -41l-205 241z" />
    <glyph glyph-name="Oslash" unicode="&#xd8;" horiz-adv-x="1724" 
d="M1329 1405l211 356h70l-230 -387q150 -100 225.5 -271.5t57.5 -385.5q-19 -219 -129 -394.5t-287.5 -274.5t-388.5 -99q-159 0 -291 57l-172 -293h-71l188 320q-170 94 -257.5 274t-66.5 410q19 220 128.5 395.5t286.5 274t388 98.5q184 0 338 -80zM250 717
q-20 -210 60.5 -375.5t236.5 -253.5l749 1262q-137 73 -309 73q-194 0 -356.5 -90.5t-263 -252t-117.5 -363.5zM1602 717q17 195 -51.5 352.5t-204.5 249.5l-744 -1258q117 -51 260 -51q145 0 275 53t228 145.5t160.5 224.5t76.5 284z" />
    <glyph glyph-name="Ugrave" unicode="&#xd9;" horiz-adv-x="1417" 
d="M1241 573l74 861h61l-73 -861q-26 -282 -190 -453t-408 -171q-245 0 -379.5 171.5t-108.5 452.5l74 861h61l-73 -861q-23 -257 93.5 -410t336.5 -153t364.5 153t167.5 410zM825 1618l-163 184h86l163 -184h-86z" />
    <glyph glyph-name="Uacute" unicode="&#xda;" horiz-adv-x="1417" 
d="M1241 573l74 861h61l-73 -861q-26 -282 -190 -453t-408 -171q-245 0 -379.5 171.5t-108.5 452.5l74 861h61l-73 -861q-23 -257 93.5 -410t336.5 -153t364.5 153t167.5 410zM1071 1802l-197 -184h-86l197 184h86z" />
    <glyph glyph-name="Ucircumflex" unicode="&#xdb;" horiz-adv-x="1417" 
d="M1241 573l74 861h61l-73 -861q-26 -282 -190 -453t-408 -171q-245 0 -379.5 171.5t-108.5 452.5l74 861h61l-73 -861q-23 -257 93.5 -410t336.5 -153t364.5 153t167.5 410zM702 1659h-92l219 184h82l185 -184h-92l-138 137z" />
    <glyph glyph-name="Udieresis" unicode="&#xdc;" horiz-adv-x="1417" 
d="M1241 573l74 861h61l-73 -861q-26 -282 -190 -453t-408 -171q-245 0 -379.5 171.5t-108.5 452.5l74 861h61l-73 -861q-23 -257 93.5 -410t336.5 -153t364.5 153t167.5 410zM649 1669q-26 0 -42 18t-13 44q1 26 21 43.5t47 17.5q26 0 41.5 -17t13.5 -44q-3 -26 -22.5 -44
t-45.5 -18zM1059 1669q-26 0 -42 18t-13 44q1 26 20.5 43.5t46.5 17.5q26 0 41.5 -17t13.5 -44q-3 -26 -22 -44t-45 -18z" />
    <glyph glyph-name="Yacute" unicode="&#xdd;" horiz-adv-x="1138" 
d="M590 594l-422 840h72l387 -772l522 772h72l-570 -840l-51 -594h-61zM932 1802l-197 -184h-86l197 184h86z" />
    <glyph glyph-name="germandbls" unicode="&#xdf;" horiz-adv-x="1294" 
d="M313 983l-86 -983h-61l86 983q19 209 160.5 345t339.5 136q171 0 276.5 -108t93.5 -262q-12 -134 -106 -216t-248 -108q203 -27 315 -134.5t97 -285.5q-15 -174 -139.5 -287.5t-299.5 -113.5q-89 0 -168.5 28t-132.5 72l39 49q109 -88 264 -88q153 0 257.5 95t117.5 247
q13 177 -124.5 281t-370.5 104h-64l4 62h70q177 0 296.5 80t131.5 213q11 129 -79 220t-237 91q-172 0 -294.5 -118.5t-137.5 -301.5z" />
    <glyph glyph-name="agrave" unicode="&#xe0;" horiz-adv-x="1355" 
d="M1174 756l24 268h62l-91 -1024h-61l22 268q-67 -141 -200 -225t-297 -84q-233 0 -369 155.5t-114 397.5t184 397.5t395 155.5q164 0 283 -84t162 -225zM639 20q200 0 347.5 140t166.5 352q12 139 -40.5 252t-154.5 176.5t-233 63.5q-205 0 -350 -139t-164 -353t102 -353
t326 -139zM520 1475h86l201 -226h-86z" />
    <glyph glyph-name="aacute" unicode="&#xe1;" horiz-adv-x="1355" 
d="M1174 756l24 268h62l-91 -1024h-61l22 268q-67 -141 -200 -225t-297 -84q-233 0 -369 155.5t-114 397.5t184 397.5t395 155.5q164 0 283 -84t162 -225zM639 20q200 0 347.5 140t166.5 352q12 139 -40.5 252t-154.5 176.5t-233 63.5q-205 0 -350 -139t-164 -353t102 -353
t326 -139zM926 1475h86l-242 -226h-86z" />
    <glyph glyph-name="acircumflex" unicode="&#xe2;" horiz-adv-x="1355" 
d="M1174 756l24 268h62l-91 -1024h-61l22 268q-67 -141 -200 -225t-297 -84q-233 0 -369 155.5t-114 397.5t184 397.5t395 155.5q164 0 283 -84t162 -225zM639 20q200 0 347.5 140t166.5 352q12 139 -40.5 252t-154.5 176.5t-233 63.5q-205 0 -350 -139t-164 -353t102 -353
t326 -139zM590 1249h-80l215 226h82l174 -226h-80l-139 178z" />
    <glyph glyph-name="atilde" unicode="&#xe3;" horiz-adv-x="1355" 
d="M1174 756l24 268h62l-91 -1024h-61l22 268q-67 -141 -200 -225t-297 -84q-233 0 -369 155.5t-114 397.5t184 397.5t395 155.5q164 0 283 -84t162 -225zM639 20q200 0 347.5 140t166.5 352q12 139 -40.5 252t-154.5 176.5t-233 63.5q-205 0 -350 -139t-164 -353t102 -353
t326 -139zM535 1286l-50 33q26 44 76.5 73t100.5 29q33 0 63 -12.5t53 -30.5t45 -36.5t47.5 -31t51.5 -12.5q41 0 79.5 22t57.5 56l53 -26q-26 -50 -79.5 -81.5t-110.5 -31.5q-35 0 -65.5 12.5t-53.5 30.5t-44.5 36.5t-47 31t-52.5 12.5q-37 0 -70 -20.5t-54 -53.5z" />
    <glyph glyph-name="adieresis" unicode="&#xe4;" horiz-adv-x="1355" 
d="M1174 756l24 268h62l-91 -1024h-61l22 268q-67 -141 -200 -225t-297 -84q-233 0 -369 155.5t-114 397.5t184 397.5t395 155.5q164 0 283 -84t162 -225zM639 20q200 0 347.5 140t166.5 352q12 139 -40.5 252t-154.5 176.5t-233 63.5q-205 0 -350 -139t-164 -353t102 -353
t326 -139zM541 1249q-28 0 -43.5 17t-12.5 45t21.5 44.5t46.5 16.5t43 -16.5t12 -44.5t-21 -45t-46 -17zM950 1249q-28 0 -43 17t-12 45t21.5 44.5t46.5 16.5t43 -16.5t12 -44.5t-21.5 -45t-46.5 -17z" />
    <glyph glyph-name="aring" unicode="&#xe5;" horiz-adv-x="1355" 
d="M1174 756l24 268h62l-91 -1024h-61l22 268q-67 -141 -200 -225t-297 -84q-233 0 -369 155.5t-114 397.5t184 397.5t395 155.5q164 0 283 -84t162 -225zM639 20q200 0 347.5 140t166.5 352q12 139 -40.5 252t-154.5 176.5t-233 63.5q-205 0 -350 -139t-164 -353t102 -353
t326 -139zM762 1188q-103 0 -164.5 66.5t-52.5 168.5q9 103 82 169.5t176 66.5q101 0 161.5 -66.5t51.5 -169.5t-81 -169t-173 -66zM795 1597q-75 0 -129 -49.5t-60 -124.5t38.5 -124.5t119.5 -49.5t129.5 49.5t60.5 124.5t-39 124.5t-120 49.5z" />
    <glyph glyph-name="ae" unicode="&#xe6;" horiz-adv-x="2256" 
d="M2200 532q-1 -7 -4.5 -27.5t-4.5 -33.5h-979q2 -202 114 -326.5t298 -124.5q152 0 282 81.5t185 211.5l55 -18q-55 -146 -204.5 -241t-323.5 -95q-156 0 -269 79t-157 220l-23 -258h-61l22 260q-75 -139 -206.5 -220t-290.5 -81q-232 0 -368.5 156t-114.5 397
q22 242 184.5 397.5t394.5 155.5q159 0 277 -81t170 -220l22 260h62l-23 -246q74 131 202 209t273 78q232 0 370 -150.5t118 -382.5zM211 512q-19 -212 102.5 -351t325.5 -141q204 0 349.5 139t164.5 353t-102.5 353t-325.5 139q-205 0 -350 -139t-164 -353zM1217 532h921
q17 203 -106.5 337.5t-323.5 134.5q-194 0 -334 -136.5t-157 -335.5z" />
    <glyph glyph-name="ccedilla" unicode="&#xe7;" horiz-adv-x="1216" 
d="M645 -184h-72l27 143q-217 12 -343.5 167t-106.5 386q22 242 184.5 397.5t394.5 155.5q171 0 297 -101t148 -257l-62 -11q-25 134 -133.5 221t-253.5 87q-205 0 -350 -139t-164 -353t102 -353t326 -139q147 0 270.5 81t167.5 206l60 -12q-46 -139 -179 -233t-296 -103
l-15 -82q111 0 169.5 -62.5t49.5 -162.5q-8 -90 -72 -147.5t-157 -57.5q-83 0 -136 47.5t-61 124.5l60 12q8 -56 46.5 -89.5t98.5 -33.5q66 0 110.5 40.5t49.5 103.5q6 75 -37.5 119.5t-122.5 44.5z" />
    <glyph glyph-name="egrave" unicode="&#xe8;" horiz-adv-x="1294" 
d="M659 20q148 0 280 83t187 212l62 -10q-63 -150 -214.5 -248t-320.5 -98q-159 0 -279 70.5t-179 197t-45 285.5q22 242 190.5 397.5t409.5 155.5q233 0 370 -156t115 -397q0 -3 -1 -9.5t-1 -10.5h-1024q-12 -206 114 -339t336 -133zM215 553h961q3 199 -117 325t-314 126
q-204 0 -351.5 -126.5t-178.5 -324.5zM541 1475h86l200 -226h-86z" />
    <glyph glyph-name="eacute" unicode="&#xe9;" horiz-adv-x="1294" 
d="M659 20q148 0 280 83t187 212l62 -10q-63 -150 -214.5 -248t-320.5 -98q-159 0 -279 70.5t-179 197t-45 285.5q22 242 190.5 397.5t409.5 155.5q233 0 370 -156t115 -397q0 -3 -1 -9.5t-1 -10.5h-1024q-12 -206 114 -339t336 -133zM215 553h961q3 199 -117 325t-314 126
q-204 0 -351.5 -126.5t-178.5 -324.5zM946 1475h86l-241 -226h-86z" />
    <glyph glyph-name="ecircumflex" unicode="&#xea;" horiz-adv-x="1294" 
d="M659 20q148 0 280 83t187 212l62 -10q-63 -150 -214.5 -248t-320.5 -98q-159 0 -279 70.5t-179 197t-45 285.5q22 242 190.5 397.5t409.5 155.5q233 0 370 -156t115 -397q0 -3 -1 -9.5t-1 -10.5h-1024q-12 -206 114 -339t336 -133zM215 553h961q3 199 -117 325t-314 126
q-204 0 -351.5 -126.5t-178.5 -324.5zM610 1249h-80l215 226h82l174 -226h-79l-140 178z" />
    <glyph glyph-name="edieresis" unicode="&#xeb;" horiz-adv-x="1294" 
d="M659 20q148 0 280 83t187 212l62 -10q-63 -150 -214.5 -248t-320.5 -98q-159 0 -279 70.5t-179 197t-45 285.5q22 242 190.5 397.5t409.5 155.5q233 0 370 -156t115 -397q0 -3 -1 -9.5t-1 -10.5h-1024q-12 -206 114 -339t336 -133zM215 553h961q3 199 -117 325t-314 126
q-204 0 -351.5 -126.5t-178.5 -324.5zM561 1249q-28 0 -43 17t-12 45t21 44.5t46 16.5t43.5 -16.5t12.5 -44.5t-21.5 -45t-46.5 -17zM971 1249q-28 0 -43.5 17t-12.5 45t21.5 44.5t46.5 16.5t43 -16.5t12 -44.5t-21 -45t-46 -17z" />
    <glyph glyph-name="igrave" unicode="&#xec;" horiz-adv-x="444" 
d="M336 1024l-90 -1024h-62l90 1024h62zM100 1475h86l201 -226h-86z" />
    <glyph glyph-name="iacute" unicode="&#xed;" horiz-adv-x="444" 
d="M348 1024l-90 -1024h-61l90 1024h61zM516 1475h86l-242 -226h-86z" />
    <glyph glyph-name="icircumflex" unicode="&#xee;" horiz-adv-x="352" 
d="M297 1024l-90 -1024h-62l91 1024h61zM129 1249h-80l215 226h82l174 -226h-80l-139 178z" />
    <glyph glyph-name="idieresis" unicode="&#xef;" horiz-adv-x="352" 
d="M297 1024l-90 -1024h-62l91 1024h61zM80 1249q-28 0 -43 17t-12 45t21 44.5t46 16.5t43 -16.5t12 -44.5t-21 -45t-46 -17zM489 1249q-28 0 -43 17t-12 45t21.5 44.5t46.5 16.5t43 -16.5t12 -44.5t-21.5 -45t-46.5 -17z" />
    <glyph glyph-name="ntilde" unicode="&#xf1;" 
d="M756 1065q190 0 285.5 -130.5t76.5 -340.5l-51 -594h-61l51 594q18 184 -61.5 297t-243.5 113q-168 0 -302 -112.5t-149 -277.5l-53 -614h-62l90 1024h62l-19 -205q58 112 178 179t259 67zM459 1286l-49 33q28 45 77.5 73.5t100.5 28.5q33 0 63 -12.5t52.5 -30.5
t44 -36.5t47 -31t51.5 -12.5q41 0 79.5 22t57.5 56l53 -26q-25 -50 -78.5 -81.5t-111.5 -31.5q-35 0 -65.5 12.5t-53 30.5t-44 36.5t-47 31t-52.5 12.5q-36 0 -70 -20.5t-55 -53.5z" />
    <glyph glyph-name="ograve" unicode="&#xf2;" horiz-adv-x="1273" 
d="M1214 512q-22 -241 -185.5 -397t-395.5 -156t-368.5 156t-114.5 397q22 242 184.5 397.5t394.5 155.5t369.5 -156t115.5 -397zM1153 512q19 214 -102.5 353t-325.5 139q-205 0 -350 -139t-164 -353t102 -353t326 -139q204 0 349.5 139t164.5 353zM520 1475h86l201 -226
h-86z" />
    <glyph glyph-name="oacute" unicode="&#xf3;" horiz-adv-x="1273" 
d="M1214 512q-22 -241 -185.5 -397t-395.5 -156t-368.5 156t-114.5 397q22 242 184.5 397.5t394.5 155.5t369.5 -156t115.5 -397zM1153 512q19 214 -102.5 353t-325.5 139q-205 0 -350 -139t-164 -353t102 -353t326 -139q204 0 349.5 139t164.5 353zM926 1475h86l-242 -226
h-86z" />
    <glyph glyph-name="ocircumflex" unicode="&#xf4;" horiz-adv-x="1273" 
d="M1214 512q-22 -241 -185.5 -397t-395.5 -156t-368.5 156t-114.5 397q22 242 184.5 397.5t394.5 155.5t369.5 -156t115.5 -397zM1153 512q19 214 -102.5 353t-325.5 139q-205 0 -350 -139t-164 -353t102 -353t326 -139q204 0 349.5 139t164.5 353zM590 1249h-80l215 226
h82l174 -226h-80l-139 178z" />
    <glyph glyph-name="otilde" unicode="&#xf5;" horiz-adv-x="1273" 
d="M1214 512q-22 -241 -185.5 -397t-395.5 -156t-368.5 156t-114.5 397q22 242 184.5 397.5t394.5 155.5t369.5 -156t115.5 -397zM1153 512q19 214 -102.5 353t-325.5 139q-205 0 -350 -139t-164 -353t102 -353t326 -139q204 0 349.5 139t164.5 353zM514 1286l-49 33
q26 44 76 73t100 29q33 0 63 -12.5t53 -30.5t45 -36.5t47.5 -31t51.5 -12.5q41 0 79.5 22t57.5 56l54 -26q-26 -49 -80 -81t-111 -32q-35 0 -65.5 12.5t-53 30.5t-44 36.5t-47 31t-52.5 12.5q-37 0 -70.5 -20.5t-54.5 -53.5z" />
    <glyph glyph-name="odieresis" unicode="&#xf6;" horiz-adv-x="1273" 
d="M1214 512q-22 -241 -185.5 -397t-395.5 -156t-368.5 156t-114.5 397q22 242 184.5 397.5t394.5 155.5t369.5 -156t115.5 -397zM1153 512q19 214 -102.5 353t-325.5 139q-205 0 -350 -139t-164 -353t102 -353t326 -139q204 0 349.5 139t164.5 353zM541 1249
q-28 0 -43.5 17t-12.5 45t21.5 44.5t46.5 16.5t43 -16.5t12 -44.5t-21 -45t-46 -17zM950 1249q-28 0 -43 17t-12 45t21.5 44.5t46.5 16.5t43 -16.5t12 -44.5t-21.5 -45t-46.5 -17z" />
    <glyph glyph-name="divide" unicode="&#xf7;" horiz-adv-x="1130" 
d="M569 41q-28 0 -43.5 16.5t-13.5 44.5q3 28 21.5 45t46.5 17t43 -17t12 -45q-1 -28 -19.5 -44.5t-46.5 -16.5zM154 553h921l-6 -61h-922zM639 840q-28 0 -43 16.5t-12 44.5q2 28 19.5 45t45.5 17t44 -17t14 -45q-3 -28 -21.5 -44.5t-46.5 -16.5z" />
    <glyph glyph-name="oslash" unicode="&#xf8;" horiz-adv-x="1273" 
d="M973 1008l131 221h70l-150 -252q102 -72 152 -193.5t38 -271.5q-22 -241 -185.5 -397t-395.5 -156q-105 0 -195 35l-94 -158h-70l109 184q-123 67 -185.5 196.5t-47.5 295.5q22 242 184.5 397.5t394.5 155.5q136 0 244 -57zM211 512q-13 -145 42 -260t163 -176l524 876
q-96 52 -215 52q-205 0 -350 -139t-164 -353zM1153 512q10 131 -33 237t-131 171l-518 -871q79 -29 168 -29q204 0 349.5 139t164.5 353z" />
    <glyph glyph-name="ugrave" unicode="&#xf9;" 
d="M565 -41q-190 0 -285 130.5t-77 340.5l53 594h61l-53 -594q-16 -184 63.5 -297t243.5 -113q168 0 302 112.5t149 277.5l53 614h62l-90 -1024h-62l19 205q-61 -112 -181.5 -179t-257.5 -67zM510 1475h86l201 -226h-86z" />
    <glyph glyph-name="uacute" unicode="&#xfa;" 
d="M565 -41q-190 0 -285 130.5t-77 340.5l53 594h61l-53 -594q-16 -184 63.5 -297t243.5 -113q168 0 302 112.5t149 277.5l53 614h62l-90 -1024h-62l19 205q-61 -112 -181.5 -179t-257.5 -67zM874 1475h87l-242 -226h-86z" />
    <glyph glyph-name="ucircumflex" unicode="&#xfb;" 
d="M565 -41q-190 0 -285 130.5t-77 340.5l53 594h61l-53 -594q-16 -184 63.5 -297t243.5 -113q168 0 302 112.5t149 277.5l53 614h62l-90 -1024h-62l19 205q-61 -112 -181.5 -179t-257.5 -67zM559 1249h-80l215 226h82l174 -226h-80l-139 178z" />
    <glyph glyph-name="udieresis" unicode="&#xfc;" 
d="M565 -41q-190 0 -285 130.5t-77 340.5l53 594h61l-53 -594q-16 -184 63.5 -297t243.5 -113q168 0 302 112.5t149 277.5l53 614h62l-90 -1024h-62l19 205q-61 -112 -181.5 -179t-257.5 -67zM510 1249q-28 0 -43 17t-12 45t21 44.5t46 16.5t43.5 -16.5t12.5 -44.5
t-21.5 -45t-46.5 -17zM920 1249q-28 0 -43.5 17t-12.5 45t21.5 44.5t46.5 16.5t43 -16.5t12 -44.5t-21 -45t-46 -17z" />
    <glyph glyph-name="yacute" unicode="&#xfd;" horiz-adv-x="1146" 
d="M88 -430l4 61q65 -20 119 -20q43 0 82.5 20t70.5 49.5t69 87t65 107t71 135.5l-395 1014h70l366 -940l477 940h66l-520 -1024q-47 -93 -80 -152t-76.5 -122t-82 -97.5t-87.5 -57t-104 -22.5q-64 0 -115 21zM844 1475h86l-242 -226h-86z" />
    <glyph glyph-name="ydieresis" unicode="&#xff;" horiz-adv-x="1146" 
d="M88 -430l4 61q65 -20 119 -20q43 0 82.5 20t70.5 49.5t69 87t65 107t71 135.5l-395 1014h70l366 -940l477 940h66l-520 -1024q-47 -93 -80 -152t-76.5 -122t-82 -97.5t-87.5 -57t-104 -22.5q-64 0 -115 21zM479 1249q-28 0 -43 17t-12 45t21.5 44.5t46.5 16.5t43 -16.5
t12 -44.5t-21.5 -45t-46.5 -17zM889 1249q-28 0 -43 17t-12 45t21 44.5t46 16.5t43 -16.5t12 -44.5t-21 -45t-46 -17z" />
    <glyph glyph-name="Amacron" unicode="&#x100;" horiz-adv-x="1306" 
d="M819 1434l445 -1434h-66l-121 389h-780l-188 -389h-66l694 1434h82zM774 1372l-448 -921h733zM1085 1761l-4 -61h-561l4 61h561z" />
    <glyph glyph-name="amacron" unicode="&#x101;" horiz-adv-x="1355" 
d="M1174 756l24 268h62l-91 -1024h-61l22 268q-67 -141 -200 -225t-297 -84q-233 0 -369 155.5t-114 397.5t184 397.5t395 155.5q164 0 283 -84t162 -225zM639 20q200 0 347.5 140t166.5 352q12 139 -40.5 252t-154.5 176.5t-233 63.5q-205 0 -350 -139t-164 -353t102 -353
t326 -139zM1034 1331l-6 -61h-561l6 61h561z" />
    <glyph glyph-name="Abreve" unicode="&#x102;" horiz-adv-x="1306" 
d="M819 1434l445 -1434h-66l-121 389h-780l-188 -389h-66l694 1434h82zM774 1372l-448 -921h733zM977 1843h59q-6 -89 -74.5 -147t-166.5 -58t-156.5 58t-50.5 147h61q-6 -63 37.5 -103t114.5 -40t120.5 40t55.5 103z" />
    <glyph glyph-name="abreve" unicode="&#x103;" horiz-adv-x="1355" 
d="M1174 756l24 268h62l-91 -1024h-61l22 268q-67 -141 -200 -225t-297 -84q-233 0 -369 155.5t-114 397.5t184 397.5t395 155.5q164 0 283 -84t162 -225zM639 20q200 0 347.5 140t166.5 352q12 139 -40.5 252t-154.5 176.5t-233 63.5q-205 0 -350 -139t-164 -353t102 -353
t326 -139zM989 1475h62q-7 -107 -84 -176.5t-185 -69.5q-106 0 -168.5 69.5t-54.5 176.5h62q-6 -80 41 -132.5t126 -52.5q81 0 138 52.5t63 132.5z" />
    <glyph glyph-name="Aogonek" unicode="&#x104;" horiz-adv-x="1402" 
d="M1184 45l-107 344h-780l-188 -389h-66l694 1434h82l445 -1434h-66q-89 -27 -151 -95t-68 -151q-11 -114 84.5 -189t251.5 -75l-4 -61q-184 0 -297 91.5t-99 229.5q9 103 85 186t184 109zM774 1372l-448 -921h733z" />
    <glyph glyph-name="aogonek" unicode="&#x105;" horiz-adv-x="1480" 
d="M1112 41l18 227q-67 -141 -200 -225t-297 -84q-233 0 -369 155.5t-114 397.5t184 397.5t395 155.5q164 0 283 -84t162 -225l24 268h62l-91 -1024h-30q-91 -26 -155 -95t-73 -153q-9 -114 86.5 -189t253.5 -75l-4 -61q-184 0 -296.5 91.5t-100.5 229.5q10 103 83 184
t179 109zM639 20q200 0 347.5 140t166.5 352q12 139 -40.5 252t-154.5 176.5t-233 63.5q-205 0 -350 -139t-164 -353t102 -353t326 -139z" />
    <glyph glyph-name="Cacute" unicode="&#x106;" horiz-adv-x="1679" 
d="M1536 467l57 -14q-64 -214 -265 -359t-449 -145q-217 0 -382 99t-246.5 274.5t-62.5 394.5q19 220 131.5 395.5t294 274t398.5 98.5q247 0 423 -150.5t201 -371.5l-59 -11q-28 200 -187.5 335.5t-381.5 135.5q-199 0 -366 -89.5t-271 -251t-121 -365.5q-18 -202 57 -364
t226 -252.5t350 -90.5q228 0 411.5 131.5t241.5 325.5zM1249 1843l-196 -184h-86l196 184h86z" />
    <glyph glyph-name="cacute" unicode="&#x107;" horiz-adv-x="1216" 
d="M1174 707l-62 -11q-25 134 -133.5 221t-253.5 87q-205 0 -350 -139t-164 -353t102 -353t326 -139q147 0 270.5 81t167.5 206l60 -12q-51 -146 -193 -241t-311 -95q-232 0 -368.5 156t-114.5 397q22 242 184.5 397.5t394.5 155.5q171 0 297 -101t148 -257zM926 1475h86
l-242 -226h-86z" />
    <glyph glyph-name="Ccircumflex" unicode="&#x108;" horiz-adv-x="1679" 
d="M1536 467l57 -14q-64 -214 -265 -359t-449 -145q-217 0 -382 99t-246.5 274.5t-62.5 394.5q19 220 131.5 395.5t294 274t398.5 98.5q247 0 423 -150.5t201 -371.5l-59 -11q-28 200 -187.5 335.5t-381.5 135.5q-199 0 -366 -89.5t-271 -251t-121 -365.5q-18 -202 57 -364
t226 -252.5t350 -90.5q228 0 411.5 131.5t241.5 325.5zM877 1659h-93l220 184h81l185 -184h-92l-138 137z" />
    <glyph glyph-name="ccircumflex" unicode="&#x109;" horiz-adv-x="1216" 
d="M1174 707l-62 -11q-25 134 -133.5 221t-253.5 87q-205 0 -350 -139t-164 -353t102 -353t326 -139q147 0 270.5 81t167.5 206l60 -12q-51 -146 -193 -241t-311 -95q-232 0 -368.5 156t-114.5 397q22 242 184.5 397.5t394.5 155.5q171 0 297 -101t148 -257zM590 1249h-80
l215 226h82l174 -226h-80l-139 178z" />
    <glyph glyph-name="Cdotaccent" unicode="&#x10a;" horiz-adv-x="1679" 
d="M1536 467l57 -14q-64 -214 -265 -359t-449 -145q-217 0 -382 99t-246.5 274.5t-62.5 394.5q19 220 131.5 395.5t294 274t398.5 98.5q247 0 423 -150.5t201 -371.5l-59 -11q-28 200 -187.5 335.5t-381.5 135.5q-199 0 -366 -89.5t-271 -251t-121 -365.5q-18 -202 57 -364
t226 -252.5t350 -90.5q228 0 411.5 131.5t241.5 325.5zM1028 1673q-27 0 -42 17.5t-13 44.5q3 28 21 44.5t46 16.5q27 0 43 -17t13 -44q-1 -26 -21.5 -44t-46.5 -18z" />
    <glyph glyph-name="cdotaccent" unicode="&#x10b;" horiz-adv-x="1216" 
d="M1174 707l-62 -11q-25 134 -133.5 221t-253.5 87q-205 0 -350 -139t-164 -353t102 -353t326 -139q147 0 270.5 81t167.5 206l60 -12q-51 -146 -193 -241t-311 -95q-232 0 -368.5 156t-114.5 397q22 242 184.5 397.5t394.5 155.5q171 0 297 -101t148 -257zM748 1249
q-27 0 -42.5 17.5t-13.5 44.5q3 28 21.5 44.5t46.5 16.5q27 0 42.5 -17t12.5 -44q-1 -26 -21 -44t-46 -18z" />
    <glyph glyph-name="Ccaron" unicode="&#x10c;" horiz-adv-x="1679" 
d="M1536 467l57 -14q-64 -214 -265 -359t-449 -145q-217 0 -382 99t-246.5 274.5t-62.5 394.5q19 220 131.5 395.5t294 274t398.5 98.5q247 0 423 -150.5t201 -371.5l-59 -11q-28 200 -187.5 335.5t-381.5 135.5q-199 0 -366 -89.5t-271 -251t-121 -365.5q-18 -202 57 -364
t226 -252.5t350 -90.5q228 0 411.5 131.5t241.5 325.5zM1176 1802h92l-217 -184h-84l-185 184h92l138 -137z" />
    <glyph glyph-name="ccaron" unicode="&#x10d;" horiz-adv-x="1216" 
d="M1174 707l-62 -11q-25 134 -133.5 221t-253.5 87q-205 0 -350 -139t-164 -353t102 -353t326 -139q147 0 270.5 81t167.5 206l60 -12q-51 -146 -193 -241t-311 -95q-232 0 -368.5 156t-114.5 397q22 242 184.5 397.5t394.5 155.5q171 0 297 -101t148 -257zM922 1475h79
l-215 -226h-81l-175 226h80l140 -179z" />
    <glyph glyph-name="Dcaron" unicode="&#x10e;" horiz-adv-x="1499" 
d="M186 0l125 1434h348q249 0 432.5 -89t274 -252t72.5 -376q-19 -213 -138 -376t-317.5 -252t-447.5 -89h-349zM1376 717q16 195 -67.5 343.5t-253 230t-400.5 81.5h-286l-115 -1311h287q173 0 322 47.5t257.5 133t175.5 207.5t80 268zM1012 1802h92l-217 -184h-84
l-185 184h93l137 -137z" />
    <glyph glyph-name="dcaron" unicode="&#x10f;" horiz-adv-x="1540" 
d="M1174 756l65 739h61l-131 -1495h-61l22 268q-67 -141 -200 -225t-297 -84q-232 0 -368.5 156t-114.5 397q22 242 184.5 397.5t394.5 155.5q164 0 283 -84t162 -225zM211 512q-19 -214 102 -353t326 -139q204 0 349.5 139t164.5 353t-102.5 353t-325.5 139
q-205 0 -350 -139t-164 -353zM1524 1352h-6q-29 0 -46.5 17.5t-15.5 45.5q3 28 21 45t43 17q29 0 45.5 -27t13.5 -68q-7 -91 -94 -192l-31 24q28 32 47.5 71t22.5 67z" />
    <glyph glyph-name="Dcroat" unicode="&#x110;" horiz-adv-x="1601" 
d="M365 866l49 568h348q187 0 339 -52t253 -145t150.5 -227t35.5 -293q-19 -213 -138 -376t-317.5 -252t-447.5 -89h-348l69 805h-245l6 61h246zM1479 717q16 195 -67.5 343.5t-253 230t-400.5 81.5h-287l-45 -506h512l-6 -61h-512l-64 -744h287q231 0 415 81.5t294 230.5
t127 344z" />
    <glyph glyph-name="dcroat" unicode="&#x111;" horiz-adv-x="1464" 
d="M1174 756l47 530h-510l6 62h510l12 147h61l-12 -147h211l-6 -62h-211l-113 -1286h-61l22 268q-67 -141 -200 -225t-297 -84q-232 0 -368.5 156t-114.5 397q22 242 184.5 397.5t394.5 155.5q164 0 283 -84t162 -225zM211 512q-19 -214 102 -353t326 -139q204 0 349.5 139
t164.5 353t-102.5 353t-325.5 139q-205 0 -350 -139t-164 -353z" />
    <glyph glyph-name="Emacron" unicode="&#x112;" horiz-adv-x="1273" 
d="M254 61h922l-7 -61h-983l125 1434h963l-4 -62h-901l-54 -594h820l-5 -61h-819zM1112 1761l-4 -61h-561l4 61h561z" />
    <glyph glyph-name="emacron" unicode="&#x113;" horiz-adv-x="1294" 
d="M659 20q148 0 280 83t187 212l62 -10q-63 -150 -214.5 -248t-320.5 -98q-159 0 -279 70.5t-179 197t-45 285.5q22 242 190.5 397.5t409.5 155.5q233 0 370 -156t115 -397q0 -3 -1 -9.5t-1 -10.5h-1024q-12 -206 114 -339t336 -133zM215 553h961q3 199 -117 325t-314 126
q-204 0 -351.5 -126.5t-178.5 -324.5zM1055 1331l-6 -61h-562l7 61h561z" />
    <glyph glyph-name="Ebreve" unicode="&#x114;" horiz-adv-x="1273" 
d="M254 61h922l-7 -61h-983l125 1434h963l-4 -62h-901l-54 -594h820l-5 -61h-819zM999 1802h60q-6 -89 -74.5 -147t-167.5 -58q-98 0 -156.5 58t-50.5 147h62q-6 -63 37 -103t114 -40t120.5 40t55.5 103z" />
    <glyph glyph-name="ebreve" unicode="&#x115;" horiz-adv-x="1294" 
d="M659 20q148 0 280 83t187 212l62 -10q-63 -150 -214.5 -248t-320.5 -98q-159 0 -279 70.5t-179 197t-45 285.5q22 242 190.5 397.5t409.5 155.5q233 0 370 -156t115 -397q0 -3 -1 -9.5t-1 -10.5h-1024q-12 -206 114 -339t336 -133zM215 553h961q3 199 -117 325t-314 126
q-204 0 -351.5 -126.5t-178.5 -324.5zM969 1475h61q-7 -107 -83.5 -176.5t-184.5 -69.5q-106 0 -168.5 69.5t-54.5 176.5h61q-6 -80 41.5 -132.5t126.5 -52.5q81 0 138 52.5t63 132.5z" />
    <glyph glyph-name="Edotaccent" unicode="&#x116;" horiz-adv-x="1273" 
d="M254 61h922l-7 -61h-983l125 1434h963l-4 -62h-901l-54 -594h820l-5 -61h-819zM823 1673q-27 0 -42 17.5t-13 44.5q3 28 21.5 44.5t46.5 16.5q27 0 42.5 -17t12.5 -44q-1 -26 -21.5 -44t-46.5 -18z" />
    <glyph glyph-name="edotaccent" unicode="&#x117;" horiz-adv-x="1294" 
d="M659 20q148 0 280 83t187 212l62 -10q-63 -150 -214.5 -248t-320.5 -98q-159 0 -279 70.5t-179 197t-45 285.5q22 242 190.5 397.5t409.5 155.5q233 0 370 -156t115 -397q0 -3 -1 -9.5t-1 -10.5h-1024q-12 -206 114 -339t336 -133zM215 553h961q3 199 -117 325t-314 126
q-204 0 -351.5 -126.5t-178.5 -324.5zM768 1249q-27 0 -42 17.5t-13 44.5q3 28 21 44.5t46 16.5q27 0 43 -17t13 -44q-1 -26 -21.5 -44t-46.5 -18z" />
    <glyph glyph-name="Eogonek" unicode="&#x118;" horiz-adv-x="1273" 
d="M887 0h-701l125 1434h963l-4 -62h-901l-54 -594h820l-5 -61h-819l-57 -656h922l-7 -61h-163q-89 -27 -150.5 -95.5t-67.5 -150.5q-12 -114 83.5 -189t252.5 -75l-4 -61q-184 0 -296.5 91.5t-98.5 229.5q7 75 51 141.5t111 108.5z" />
    <glyph glyph-name="eogonek" unicode="&#x119;" horiz-adv-x="1294" 
d="M672 -41q-251 0 -398 151.5t-124 401.5q22 242 190.5 397.5t409.5 155.5q233 0 370 -156t115 -397q0 -3 -1 -9.5t-1 -10.5h-1024q-12 -206 114 -339t336 -133q148 0 280 83t187 212l62 -10q-51 -120 -159 -209t-241 -121q-68 -34 -113 -93.5t-52 -129.5
q-9 -114 86.5 -189t253.5 -75l-5 -61q-184 0 -296.5 91.5t-100.5 229.5q15 121 111 211zM215 553h961q3 199 -117 325t-314 126q-204 0 -351.5 -126.5t-178.5 -324.5z" />
    <glyph glyph-name="Ecaron" unicode="&#x11a;" horiz-adv-x="1273" 
d="M254 61h922l-7 -61h-983l125 1434h963l-4 -62h-901l-54 -594h820l-5 -61h-819zM991 1802h80l-215 -225h-82l-174 225h80l139 -178z" />
    <glyph glyph-name="ecaron" unicode="&#x11b;" horiz-adv-x="1294" 
d="M659 20q148 0 280 83t187 212l62 -10q-63 -150 -214.5 -248t-320.5 -98q-159 0 -279 70.5t-179 197t-45 285.5q22 242 190.5 397.5t409.5 155.5q233 0 370 -156t115 -397q0 -3 -1 -9.5t-1 -10.5h-1024q-12 -206 114 -339t336 -133zM215 553h961q3 199 -117 325t-314 126
q-204 0 -351.5 -126.5t-178.5 -324.5zM942 1475h80l-215 -226h-82l-174 226h80l139 -179z" />
    <glyph glyph-name="Gcircumflex" unicode="&#x11c;" horiz-adv-x="1744" 
d="M1622 717h-676l4 61h736q-5 -178 -68.5 -332t-170 -263t-253.5 -171.5t-315 -62.5q-217 0 -382 99t-246.5 274.5t-62.5 394.5q19 220 131.5 395.5t294 274t398.5 98.5q163 0 300.5 -65.5t224 -182t103.5 -262.5l-61 -12q-29 200 -190.5 330t-380.5 130q-199 1 -366 -89
t-271 -252t-121 -365q-18 -200 57 -362t226 -253.5t350 -91.5q294 0 502.5 198t236.5 509zM872 1618h-92l219 184h82l185 -184h-92l-138 137z" />
    <glyph glyph-name="gcircumflex" unicode="&#x11d;" horiz-adv-x="1355" 
d="M117 -113l63 9q5 -151 128.5 -249t309.5 -98q195 -1 334 126.5t156 324.5l22 260q-74 -140 -205.5 -220.5t-291.5 -80.5q-232 0 -368.5 156t-114.5 397q22 242 184.5 397.5t394.5 155.5q159 0 277 -81t170 -220l22 260h62l-91 -1024q-20 -223 -177 -367.5t-380 -144.5
q-209 0 -348 112.5t-147 286.5zM639 20q205 0 350 139t164 353q19 213 -103 352.5t-325 139.5q-208 0 -351.5 -138.5t-162.5 -353.5q-12 -140 39.5 -253t153.5 -176t235 -63zM590 1249h-80l215 226h82l174 -226h-80l-139 178z" />
    <glyph glyph-name="Gbreve" unicode="&#x11e;" horiz-adv-x="1744" 
d="M1622 717h-676l4 61h736q-5 -178 -68.5 -332t-170 -263t-253.5 -171.5t-315 -62.5q-217 0 -382 99t-246.5 274.5t-62.5 394.5q19 220 131.5 395.5t294 274t398.5 98.5q163 0 300.5 -65.5t224 -182t103.5 -262.5l-61 -12q-29 200 -190.5 330t-380.5 130q-199 1 -366 -89
t-271 -252t-121 -365q-18 -200 57 -362t226 -253.5t350 -91.5q294 0 502.5 198t236.5 509zM1204 1802h60q-6 -89 -74.5 -147t-167.5 -58q-98 0 -156.5 58t-50.5 147h62q-6 -63 37 -103t114 -40t120.5 40t55.5 103z" />
    <glyph glyph-name="gbreve" unicode="&#x11f;" horiz-adv-x="1355" 
d="M117 -113l63 9q5 -151 128.5 -249t309.5 -98q195 -1 334 126.5t156 324.5l22 260q-74 -140 -205.5 -220.5t-291.5 -80.5q-232 0 -368.5 156t-114.5 397q22 242 184.5 397.5t394.5 155.5q159 0 277 -81t170 -220l22 260h62l-91 -1024q-20 -223 -177 -367.5t-380 -144.5
q-209 0 -348 112.5t-147 286.5zM639 20q205 0 350 139t164 353q19 213 -103 352.5t-325 139.5q-208 0 -351.5 -138.5t-162.5 -353.5q-12 -140 39.5 -253t153.5 -176t235 -63zM971 1475h61q-9 -107 -85.5 -176.5t-182.5 -69.5q-107 0 -169.5 69.5t-53.5 176.5h61
q-7 -79 40.5 -132t127.5 -53q79 0 136 52.5t65 132.5z" />
    <glyph glyph-name="Gdotaccent" unicode="&#x120;" horiz-adv-x="1744" 
d="M1622 717h-676l4 61h736q-5 -178 -68.5 -332t-170 -263t-253.5 -171.5t-315 -62.5q-217 0 -382 99t-246.5 274.5t-62.5 394.5q19 220 131.5 395.5t294 274t398.5 98.5q163 0 300.5 -65.5t224 -182t103.5 -262.5l-61 -12q-29 200 -190.5 330t-380.5 130q-199 1 -366 -89
t-271 -252t-121 -365q-18 -200 57 -362t226 -253.5t350 -91.5q294 0 502.5 198t236.5 509zM1028 1673q-27 0 -42 17.5t-13 44.5q3 28 21 44.5t46 16.5q27 0 43 -17t13 -44q-1 -26 -21.5 -44t-46.5 -18z" />
    <glyph glyph-name="gdotaccent" unicode="&#x121;" horiz-adv-x="1355" 
d="M117 -113l63 9q5 -151 128.5 -249t309.5 -98q195 -1 334 126.5t156 324.5l22 260q-74 -140 -205.5 -220.5t-291.5 -80.5q-232 0 -368.5 156t-114.5 397q22 242 184.5 397.5t394.5 155.5q159 0 277 -81t170 -220l22 260h62l-91 -1024q-20 -223 -177 -367.5t-380 -144.5
q-209 0 -348 112.5t-147 286.5zM639 20q205 0 350 139t164 353q19 213 -103 352.5t-325 139.5q-208 0 -351.5 -138.5t-162.5 -353.5q-12 -140 39.5 -253t153.5 -176t235 -63zM748 1249q-27 0 -42.5 17.5t-13.5 44.5q3 28 21.5 44.5t46.5 16.5q27 0 42.5 -17t12.5 -44
q-1 -26 -21 -44t-46 -18z" />
    <glyph glyph-name="Gcommaaccent" unicode="&#x122;" horiz-adv-x="1744" 
d="M1622 717h-676l4 61h736q-5 -178 -68.5 -332t-170 -263t-253.5 -171.5t-315 -62.5q-217 0 -382 99t-246.5 274.5t-62.5 394.5q19 220 131.5 395.5t294 274t398.5 98.5q163 0 300.5 -65.5t224 -182t103.5 -262.5l-61 -12q-29 200 -190.5 330t-380.5 130q-199 1 -366 -89
t-271 -252t-121 -365q-18 -200 57 -362t226 -253.5t350 -91.5q294 0 502.5 198t236.5 509zM860 -369h-4q-30 0 -47 18t-14 46t20.5 44.5t42.5 16.5q29 0 46 -26.5t14 -67.5q-10 -95 -97 -192l-30 24q28 33 48 71.5t21 65.5z" />
    <glyph glyph-name="gcommaaccent" unicode="&#x123;" horiz-adv-x="1355" 
d="M117 -113l63 9q5 -151 128.5 -249t309.5 -98q195 -1 334 126.5t156 324.5l22 260q-74 -140 -205.5 -220.5t-291.5 -80.5q-232 0 -368.5 156t-114.5 397q22 242 184.5 397.5t394.5 155.5q159 0 277 -81t170 -220l22 260h62l-91 -1024q-20 -223 -177 -367.5t-380 -144.5
q-209 0 -348 112.5t-147 286.5zM639 20q205 0 350 139t164 353q19 213 -103 352.5t-325 139.5q-208 0 -351.5 -138.5t-162.5 -353.5q-12 -140 39.5 -253t153.5 -176t235 -63zM748 1354h4q29 0 46.5 -19t14.5 -47q-1 -26 -19.5 -42.5t-43.5 -16.5q-29 0 -45.5 26.5
t-12.5 67.5q8 96 94 193l31 -25q-66 -80 -69 -137z" />
    <glyph glyph-name="Itilde" unicode="&#x128;" horiz-adv-x="401" 
d="M352 1434l-125 -1434h-61l125 1434h61zM84 1649l-47 30q23 45 76 74t112 29q42 0 75.5 -16t53 -35.5t50.5 -35.5t69 -16q45 0 81.5 21.5t55.5 56.5l54 -26q-27 -50 -82 -81.5t-119 -31.5q-43 0 -77 16t-53.5 35t-49.5 35t-64 16q-42 0 -78 -19.5t-57 -51.5z" />
    <glyph glyph-name="itilde" unicode="&#x129;" horiz-adv-x="442" 
d="M338 1024l-90 -1024h-62l90 1024h62zM74 1286l-49 33q26 44 76 73t100 29q33 0 63 -12.5t53 -30.5t45 -36.5t47.5 -31t51.5 -12.5q41 0 79.5 22t57.5 56l53 -26q-26 -50 -79.5 -81.5t-110.5 -31.5q-35 0 -65.5 12.5t-53 30.5t-44 36.5t-47 31t-52.5 12.5
q-37 0 -70.5 -20.5t-54.5 -53.5z" />
    <glyph glyph-name="Imacron" unicode="&#x12a;" horiz-adv-x="401" 
d="M356 1434l-125 -1434h-61l125 1434h61zM635 1761l-4 -61h-561l4 61h561z" />
    <glyph glyph-name="imacron" unicode="&#x12b;" horiz-adv-x="360" 
d="M301 1024l-90 -1024h-61l90 1024h61zM578 1331l-7 -61h-561l6 61h562z" />
    <glyph glyph-name="Iogonek" unicode="&#x12e;" horiz-adv-x="436" 
d="M186 35l123 1399h62l-125 -1434h-10q-91 -27 -155 -95.5t-71 -152.5q-11 -114 85 -189t253 -75l-4 -61q-184 0 -296.5 91.5t-98.5 229.5q9 97 75 175.5t162 111.5z" />
    <glyph glyph-name="iogonek" unicode="&#x12f;" horiz-adv-x="425" 
d="M186 35l88 989h62l-90 -1024h-10q-91 -27 -155 -95.5t-71 -152.5q-11 -114 85 -189t253 -75l-4 -61q-184 0 -296.5 91.5t-98.5 229.5q9 96 75 175t162 112zM268 1311q1 26 20.5 43.5t47.5 17.5q26 0 41.5 -17t13.5 -44q-1 -26 -21 -44t-46 -18q-27 0 -42.5 17.5
t-13.5 44.5z" />
    <glyph glyph-name="Idotaccent" unicode="&#x130;" horiz-adv-x="434" 
d="M373 1434l-125 -1434h-62l125 1434h62zM362 1673q-27 0 -42 17.5t-13 44.5q3 28 21.5 44.5t46.5 16.5q27 0 42.5 -17t12.5 -44q-1 -26 -21.5 -44t-46.5 -18z" />
    <glyph glyph-name="dotlessi" unicode="&#x131;" horiz-adv-x="393" 
d="M317 1024l-90 -1024h-61l90 1024h61z" />
    <glyph glyph-name="IJ" unicode="&#x132;" horiz-adv-x="1296" 
d="M373 1434l-125 -1434h-62l125 1434h62zM1106 430l88 1004h61l-88 -1004q-20 -227 -140 -349t-298 -122q-112 0 -233 41l6 63q134 -43 241 -43q147 0 246 104t117 306z" />
    <glyph glyph-name="ij" unicode="&#x133;" horiz-adv-x="712" 
d="M348 1024l-90 -1024h-61l90 1024h61zM580 -227l110 1251h62l-111 -1249q-7 -98 -73 -162t-158 -64q-60 0 -136 27l7 64q81 -29 131 -29q67 0 114.5 45.5t53.5 116.5zM281 1311q2 26 20.5 43.5t46.5 17.5q26 0 41.5 -17t13.5 -44q-1 -26 -21 -44t-46 -18q-27 0 -42 17.5
t-13 44.5zM684 1311q3 28 21.5 44.5t46.5 16.5q27 0 42.5 -17t12.5 -44q-1 -26 -21.5 -44t-46.5 -18q-27 0 -42.5 17.5t-12.5 44.5z" />
    <glyph glyph-name="Kcommaaccent" unicode="&#x136;" horiz-adv-x="1107" 
d="M311 1434h62l-56 -637l746 637h92l-795 -676l684 -758h-86l-647 717l-63 -717h-62zM559 -391h-4q-29 0 -46.5 18.5t-14.5 46.5q3 26 20.5 43t42.5 17q29 0 45.5 -26.5t13.5 -67.5q-10 -97 -96 -193l-31 25q67 81 70 137z" />
    <glyph glyph-name="kcommaaccent" unicode="&#x137;" horiz-adv-x="1011" 
d="M317 1495h62l-82 -926l588 455h96l-637 -492l563 -532h-92l-524 494l-43 -494h-62zM524 -371h-4q-29 0 -46.5 18t-14.5 46q1 27 19.5 44t43.5 17q29 0 45.5 -26.5t12.5 -67.5q-7 -94 -95 -192l-30 24q28 33 48 71.5t21 65.5z" />
    <glyph glyph-name="Lacute" unicode="&#x139;" horiz-adv-x="1130" 
d="M1067 0h-881l125 1434h62l-119 -1373h819zM610 1802l-196 -184h-86l196 184h86z" />
    <glyph glyph-name="lacute" unicode="&#x13a;" horiz-adv-x="606" 
d="M379 1495l-131 -1495h-62l131 1495h62zM594 1796l-197 -184h-86l197 184h86z" />
    <glyph glyph-name="Lcommaaccent" unicode="&#x13b;" horiz-adv-x="1130" 
d="M1067 0h-881l125 1434h62l-119 -1373h819zM614 -391h-4q-30 0 -47 18.5t-14 46.5q3 26 20.5 43t42.5 17q29 0 46 -26.5t14 -67.5q-10 -96 -97 -193l-30 25q66 80 69 137z" />
    <glyph glyph-name="lcommaaccent" unicode="&#x13c;" horiz-adv-x="442" 
d="M379 1495l-131 -1495h-62l131 1495h62zM197 -371q-31 0 -50 17t-16 47q1 26 20 43.5t44 17.5q29 0 45.5 -27t11.5 -67q-8 -101 -92 -195l-33 27q29 32 48.5 70.5t21.5 66.5z" />
    <glyph glyph-name="Lcaron" unicode="&#x13d;" horiz-adv-x="1130" 
d="M1067 0h-881l125 1434h62l-119 -1373h819zM709 1350h-7q-29 0 -46 17.5t-15 45.5q3 28 21 45t43 17q29 0 45.5 -27t13.5 -68q-7 -91 -94 -192l-31 24q28 32 47.5 71t22.5 67z" />
    <glyph glyph-name="lcaron" unicode="&#x13e;" horiz-adv-x="620" 
d="M379 1495l-131 -1495h-62l131 1495h62zM604 1350h-6q-29 0 -46 17.5t-15 45.5q3 28 20.5 45t42.5 17q29 0 45.5 -27t13.5 -68q-7 -91 -94 -192l-30 24q27 32 46.5 71t22.5 67z" />
    <glyph glyph-name="Lslash" unicode="&#x141;" horiz-adv-x="987" 
d="M88 512l238 141l67 781h62l-66 -744l670 397l-6 -71l-670 -398l-47 -557h819l-6 -61h-881l51 582l-237 -142z" />
    <glyph glyph-name="lslash" unicode="&#x142;" horiz-adv-x="757" 
d="M479 803l-69 -803h-62l68 764l-369 -227l6 77l369 228l57 653h62l-54 -614l367 227l-6 -78z" />
    <glyph glyph-name="Nacute" unicode="&#x143;" horiz-adv-x="1417" 
d="M393 1434l783 -1354l118 1354h62l-125 -1434h-82l-782 1352l-119 -1352h-62l125 1434h82zM1102 1802l-197 -184h-86l197 184h86z" />
    <glyph glyph-name="nacute" unicode="&#x144;" 
d="M756 1065q190 0 285.5 -130.5t76.5 -340.5l-51 -594h-61l51 594q18 184 -61.5 297t-243.5 113q-168 0 -302 -112.5t-149 -277.5l-53 -614h-62l90 1024h62l-19 -205q58 112 178 179t259 67zM911 1475h86l-241 -226h-86z" />
    <glyph glyph-name="Ncommaaccent" unicode="&#x145;" horiz-adv-x="1417" 
d="M393 1434l783 -1354l118 1354h62l-125 -1434h-82l-782 1352l-119 -1352h-62l125 1434h82zM692 -391h-4q-29 0 -46.5 18.5t-14.5 46.5q3 26 20.5 43t42.5 17q30 0 46.5 -26t13.5 -68q-10 -98 -95 -193l-32 25q66 76 69 137z" />
    <glyph glyph-name="ncommaaccent" unicode="&#x146;" 
d="M756 1065q190 0 285.5 -130.5t76.5 -340.5l-51 -594h-61l51 594q18 184 -61.5 297t-243.5 113q-168 0 -302 -112.5t-149 -277.5l-53 -614h-62l90 1024h62l-19 -205q58 112 178 179t259 67zM618 -391h-4q-29 0 -46.5 17.5t-14.5 45.5t20.5 45t42.5 17q29 0 46 -26.5
t14 -67.5q-10 -97 -96 -193l-31 25q28 33 48 71.5t21 65.5z" />
    <glyph glyph-name="Ncaron" unicode="&#x147;" horiz-adv-x="1417" 
d="M393 1434l783 -1354l118 1354h62l-125 -1434h-82l-782 1352l-119 -1352h-62l125 1434h82zM1032 1802h92l-217 -184h-84l-184 184h92l137 -137z" />
    <glyph glyph-name="ncaron" unicode="&#x148;" 
d="M756 1065q190 0 285.5 -130.5t76.5 -340.5l-51 -594h-61l51 594q18 184 -61.5 297t-243.5 113q-168 0 -302 -112.5t-149 -277.5l-53 -614h-62l90 1024h62l-19 -205q58 112 178 179t259 67zM928 1475h80l-215 -226h-82l-174 226h79l140 -179z" />
    <glyph glyph-name="Omacron" unicode="&#x14c;" horiz-adv-x="1765" 
d="M188 717q19 220 131.5 395.5t294 274t398.5 98.5q216 0 381 -98.5t247.5 -274t63.5 -395.5q-19 -219 -132 -394.5t-295 -274.5t-398 -99q-217 0 -382 99t-246.5 274.5t-62.5 394.5zM250 717q-18 -201 57 -363t226 -253t350 -91t366 90.5t271 252.5t122 364
q17 202 -58 363.5t-226 252t-350 90.5t-366 -90.5t-271 -252t-121 -363.5zM1317 1761l-4 -61h-561l4 61h561z" />
    <glyph glyph-name="omacron" unicode="&#x14d;" horiz-adv-x="1273" 
d="M1214 512q-22 -241 -185.5 -397t-395.5 -156t-368.5 156t-114.5 397q22 242 184.5 397.5t394.5 155.5t369.5 -156t115.5 -397zM1153 512q19 214 -102.5 353t-325.5 139q-205 0 -350 -139t-164 -353t102 -353t326 -139q204 0 349.5 139t164.5 353zM1034 1331l-6 -61h-561
l6 61h561z" />
    <glyph glyph-name="Obreve" unicode="&#x14e;" horiz-adv-x="1765" 
d="M188 717q19 220 131.5 395.5t294 274t398.5 98.5q216 0 381 -98.5t247.5 -274t63.5 -395.5q-19 -219 -132 -394.5t-295 -274.5t-398 -99q-217 0 -382 99t-246.5 274.5t-62.5 394.5zM250 717q-18 -201 57 -363t226 -253t350 -91t366 90.5t271 252.5t122 364
q17 202 -58 363.5t-226 252t-350 90.5t-366 -90.5t-271 -252t-121 -363.5zM1204 1802h60q-6 -89 -74.5 -147t-167.5 -58q-98 0 -156.5 58t-50.5 147h62q-6 -63 37 -103t114 -40t120.5 40t55.5 103z" />
    <glyph glyph-name="obreve" unicode="&#x14f;" horiz-adv-x="1273" 
d="M1214 512q-22 -241 -185.5 -397t-395.5 -156t-368.5 156t-114.5 397q22 242 184.5 397.5t394.5 155.5t369.5 -156t115.5 -397zM1153 512q19 214 -102.5 353t-325.5 139q-205 0 -350 -139t-164 -353t102 -353t326 -139q204 0 349.5 139t164.5 353zM948 1475h62
q-7 -107 -84 -176.5t-185 -69.5q-106 0 -168.5 69.5t-54.5 176.5h62q-6 -80 41.5 -132.5t126.5 -52.5q81 0 137.5 52.5t62.5 132.5z" />
    <glyph glyph-name="Ohungarumlaut" unicode="&#x150;" horiz-adv-x="1765" 
d="M188 717q19 220 131.5 395.5t294 274t398.5 98.5q216 0 381 -98.5t247.5 -274t63.5 -395.5q-19 -219 -132 -394.5t-295 -274.5t-398 -99q-217 0 -382 99t-246.5 274.5t-62.5 394.5zM250 717q-18 -201 57 -363t226 -253t350 -91t366 90.5t271 252.5t122 364
q17 202 -58 363.5t-226 252t-350 90.5t-366 -90.5t-271 -252t-121 -363.5zM1006 1802h84l-185 -184h-86zM1331 1802h86l-186 -184h-84z" />
    <glyph glyph-name="ohungarumlaut" unicode="&#x151;" horiz-adv-x="1269" 
d="M1212 512q-22 -241 -185.5 -397t-395.5 -156t-369 156t-115 397q22 242 185 397.5t395 155.5t369.5 -156t115.5 -397zM1151 512q19 214 -102.5 353t-325.5 139t-349.5 -139t-164.5 -353t102.5 -353t325.5 -139t349.5 139t164.5 353zM772 1475h92l-231 -226h-94z
M1100 1475h92l-231 -226h-95z" />
    <glyph glyph-name="OE" unicode="&#x152;" horiz-adv-x="2154" 
d="M188 717q19 220 131.5 395.5t294 274t398.5 98.5q131 0 252 -51h890l-4 -62h-839l-56 -614h758l-4 -62h-758l-55 -635h860l-6 -61h-913q-130 -51 -258 -51q-217 0 -382 99t-246.5 274.5t-62.5 394.5zM1135 59l114 1315q-110 49 -241 49q-199 0 -366 -90.5t-271 -252
t-121 -363.5q-18 -202 57 -364t226 -252.5t350 -90.5q133 0 252 49z" />
    <glyph glyph-name="oe" unicode="&#x153;" horiz-adv-x="2297" 
d="M1663 20q148 0 280 83t187 212l61 -10q-63 -151 -214 -248.5t-320 -97.5q-187 0 -318.5 97.5t-171.5 260.5q-70 -164 -212.5 -261t-321.5 -97q-232 0 -368.5 156t-114.5 397q22 242 184.5 397.5t394.5 155.5q179 0 305 -97.5t166 -260.5q70 163 218 260.5t335 97.5
q233 0 370 -156t115 -397q0 -3 -1 -9.5t-1 -10.5h-1024q-12 -206 114.5 -339t336.5 -133zM1153 512q19 214 -102.5 353t-325.5 139q-205 0 -350 -139t-164 -353t102 -353t326 -139q204 0 349.5 139t164.5 353zM1219 553h960q3 199 -116.5 325t-313.5 126
q-204 0 -351.5 -126.5t-178.5 -324.5z" />
    <glyph glyph-name="Racute" unicode="&#x154;" horiz-adv-x="1396" 
d="M186 0l125 1434h594q221 0 346.5 -115.5t108.5 -304.5q-13 -165 -128 -275.5t-296 -136.5l321 -602h-73l-318 594h-567l-51 -594h-62zM901 1372h-532l-64 -717h533q193 0 319.5 99t140.5 260t-95 259.5t-302 98.5zM1020 1802l-197 -184h-86l197 184h86z" />
    <glyph glyph-name="racute" unicode="&#x155;" horiz-adv-x="780" 
d="M631 1065q85 0 157 -35l-6 -69q-73 43 -153 43q-133 0 -223 -112.5t-107 -297.5l-51 -594h-62l90 1024h62l-16 -182q45 106 124 164.5t185 58.5zM731 1475h86l-242 -226h-86z" />
    <glyph glyph-name="Rcommaaccent" unicode="&#x156;" horiz-adv-x="1396" 
d="M186 0l125 1434h594q221 0 346.5 -115.5t108.5 -304.5q-13 -165 -128 -275.5t-296 -136.5l321 -602h-73l-318 594h-567l-51 -594h-62zM901 1372h-532l-64 -717h533q193 0 319.5 99t140.5 260t-95 259.5t-302 98.5zM682 -391h-4q-29 0 -47 18.5t-15 46.5q3 26 21 43t43 17
q29 0 45.5 -26.5t13.5 -67.5q-10 -100 -94 -193l-33 25q67 77 70 137z" />
    <glyph glyph-name="rcommaaccent" unicode="&#x157;" horiz-adv-x="753" 
d="M631 1065q85 0 157 -35l-6 -69q-73 43 -153 43q-133 0 -223 -112.5t-107 -297.5l-51 -594h-62l90 1024h62l-16 -182q45 106 124 164.5t185 58.5zM197 -369h-4q-29 0 -47 18t-15 46q3 27 21 44t43 17q29 0 45.5 -26.5t13.5 -67.5q-10 -96 -96 -192l-31 24q29 33 49 71.5
t21 65.5z" />
    <glyph glyph-name="Rcaron" unicode="&#x158;" horiz-adv-x="1396" 
d="M186 0l125 1434h594q221 0 346.5 -115.5t108.5 -304.5q-13 -165 -128 -275.5t-296 -136.5l321 -602h-73l-318 594h-567l-51 -594h-62zM901 1372h-532l-64 -717h533q193 0 319.5 99t140.5 260t-95 259.5t-302 98.5zM971 1802h92l-217 -184h-84l-184 184h92l137 -137z" />
    <glyph glyph-name="rcaron" unicode="&#x159;" horiz-adv-x="780" 
d="M631 1065q85 0 157 -35l-6 -69q-73 43 -153 43q-133 0 -223 -112.5t-107 -297.5l-51 -594h-62l90 1024h62l-16 -182q45 106 124 164.5t185 58.5zM727 1475h80l-215 -226h-82l-174 226h80l139 -179z" />
    <glyph glyph-name="Sacute" unicode="&#x15a;" horiz-adv-x="1411" 
d="M707 -51q-162 0 -286 65t-186.5 180.5t-50.5 260.5h62q-17 -196 114.5 -320.5t352.5 -124.5q212 0 361 102.5t163 252.5q6 72 -25 126t-88 87.5t-132 58.5t-159 44.5t-167.5 39t-158.5 48t-131.5 66.5t-86.5 99t-23 141q15 173 171.5 291.5t383.5 118.5q158 0 280.5 -60
t186 -167.5t51.5 -241.5h-61q15 177 -115 292t-346 115q-200 0 -338.5 -99t-150.5 -243q-6 -71 24.5 -124t87 -86t131.5 -58t158.5 -44.5t167 -39.5t158.5 -49.5t131.5 -68.5t87 -101.5t24.5 -144.5q-11 -120 -90.5 -215t-210.5 -148t-290 -53zM1077 1802l-196 -184h-86
l196 184h86z" />
    <glyph glyph-name="sacute" unicode="&#x15b;" horiz-adv-x="1034" 
d="M526 -41q-186 0 -296.5 101.5t-96.5 258.5h62q-12 -132 82 -215.5t253 -83.5q147 0 249.5 70.5t111.5 175.5q6 64 -30.5 107.5t-99 66.5t-139 40.5t-152.5 36.5t-138 46.5t-98 79t-29 125.5q10 127 123.5 212t273.5 85q171 0 275 -95.5t92 -242.5h-62q10 122 -77.5 199.5
t-229.5 77.5q-133 0 -229 -67t-105 -165q-5 -61 31.5 -103t99 -64t139 -39t153 -37t138.5 -48t98 -81.5t29 -129.5q-12 -135 -134 -223t-294 -88zM795 1475h86l-242 -226h-86z" />
    <glyph glyph-name="Scircumflex" unicode="&#x15c;" horiz-adv-x="1411" 
d="M707 -51q-162 0 -286 65t-186.5 180.5t-50.5 260.5h62q-17 -196 114.5 -320.5t352.5 -124.5q212 0 361 102.5t163 252.5q6 72 -25 126t-88 87.5t-132 58.5t-159 44.5t-167.5 39t-158.5 48t-131.5 66.5t-86.5 99t-23 141q15 173 171.5 291.5t383.5 118.5q158 0 280.5 -60
t186 -167.5t51.5 -241.5h-61q15 177 -115 292t-346 115q-200 0 -338.5 -99t-150.5 -243q-6 -71 24.5 -124t87 -86t131.5 -58t158.5 -44.5t167 -39.5t158.5 -49.5t131.5 -68.5t87 -101.5t24.5 -144.5q-11 -120 -90.5 -215t-210.5 -148t-290 -53zM684 1618h-92l217 184h84
l184 -184h-92l-139 137z" />
    <glyph glyph-name="scircumflex" unicode="&#x15d;" horiz-adv-x="1034" 
d="M526 -41q-186 0 -296.5 101.5t-96.5 258.5h62q-12 -132 82 -215.5t253 -83.5q147 0 249.5 70.5t111.5 175.5q6 64 -30.5 107.5t-99 66.5t-139 40.5t-152.5 36.5t-138 46.5t-98 79t-29 125.5q10 127 123.5 212t273.5 85q171 0 275 -95.5t92 -242.5h-62q10 122 -77.5 199.5
t-229.5 77.5q-133 0 -229 -67t-105 -165q-5 -61 31.5 -103t99 -64t139 -39t153 -37t138.5 -48t98 -81.5t29 -129.5q-12 -135 -134 -223t-294 -88zM459 1249h-80l215 226h82l174 -226h-80l-139 178z" />
    <glyph glyph-name="Scedilla" unicode="&#x15e;" horiz-adv-x="1411" 
d="M702 -184h-71l26 135q-226 15 -358 155t-115 349h62q-17 -196 114.5 -320.5t352.5 -124.5q212 0 361 102.5t163 252.5q6 72 -25 126t-88 87.5t-132 58.5t-159 44.5t-167.5 39t-158.5 48t-131.5 66.5t-86.5 99t-23 141q15 173 171.5 291.5t383.5 118.5q158 0 280.5 -60
t186 -167.5t51.5 -241.5h-61q15 177 -115 292t-346 115q-200 0 -338.5 -99t-150.5 -243q-6 -71 24.5 -124t87 -86t131.5 -58t158.5 -44.5t167 -39.5t158.5 -49.5t131.5 -68.5t87 -101.5t24.5 -144.5q-17 -181 -179.5 -297t-399.5 -119l-14 -72q111 0 169.5 -62.5
t49.5 -162.5q-7 -89 -72.5 -147t-157.5 -58q-82 0 -135 47.5t-61 124.5l59 12q8 -56 46.5 -89.5t96.5 -33.5q67 0 112 40.5t50 103.5q6 75 -37.5 119.5t-122.5 44.5z" />
    <glyph glyph-name="scedilla" unicode="&#x15f;" horiz-adv-x="1034" 
d="M514 -184h-72l29 145q-163 15 -257 114.5t-81 243.5h62q-12 -132 82 -215.5t253 -83.5q147 0 249.5 70.5t111.5 175.5q6 64 -30.5 107.5t-99 66.5t-139 40.5t-152.5 36.5t-138 46.5t-98 79t-29 125.5q10 127 123.5 212t273.5 85q171 0 275 -95.5t92 -242.5h-62
q10 122 -77.5 199.5t-229.5 77.5q-133 0 -229 -67t-105 -165q-5 -61 31.5 -103t99 -64t139 -39t153 -37t138.5 -48t98 -81.5t29 -129.5q-12 -133 -132 -221t-292 -90l-14 -82q111 0 169.5 -62.5t49.5 -162.5q-8 -90 -72 -147.5t-157 -57.5q-83 0 -136 47.5t-61 124.5l60 12
q8 -56 46.5 -89.5t98.5 -33.5q66 0 110.5 40.5t49.5 103.5q6 75 -37.5 119.5t-122.5 44.5z" />
    <glyph glyph-name="Scaron" unicode="&#x160;" horiz-adv-x="1411" 
d="M707 -51q-162 0 -286 65t-186.5 180.5t-50.5 260.5h62q-17 -196 114.5 -320.5t352.5 -124.5q212 0 361 102.5t163 252.5q6 72 -25 126t-88 87.5t-132 58.5t-159 44.5t-167.5 39t-158.5 48t-131.5 66.5t-86.5 99t-23 141q15 173 171.5 291.5t383.5 118.5q158 0 280.5 -60
t186 -167.5t51.5 -241.5h-61q15 177 -115 292t-346 115q-200 0 -338.5 -99t-150.5 -243q-6 -71 24.5 -124t87 -86t131.5 -58t158.5 -44.5t167 -39.5t158.5 -49.5t131.5 -68.5t87 -101.5t24.5 -144.5q-11 -120 -90.5 -215t-210.5 -148t-290 -53zM1008 1802h90l-215 -184h-84
l-187 184h95l137 -137z" />
    <glyph glyph-name="scaron" unicode="&#x161;" horiz-adv-x="1034" 
d="M526 -41q-186 0 -296.5 101.5t-96.5 258.5h62q-12 -132 82 -215.5t253 -83.5q147 0 249.5 70.5t111.5 175.5q6 64 -30.5 107.5t-99 66.5t-139 40.5t-152.5 36.5t-138 46.5t-98 79t-29 125.5q10 127 123.5 212t273.5 85q171 0 275 -95.5t92 -242.5h-62q10 122 -77.5 199.5
t-229.5 77.5q-133 0 -229 -67t-105 -165q-5 -61 31.5 -103t99 -64t139 -39t153 -37t138.5 -48t98 -81.5t29 -129.5q-12 -135 -134 -223t-294 -88zM791 1475h79l-215 -226h-82l-174 226h80l139 -179z" />
    <glyph glyph-name="Tcommaaccent" unicode="&#x162;" horiz-adv-x="1171" 
d="M676 1372h-512l4 62h1085l-4 -62h-512l-121 -1372h-61zM565 -391h-4q-29 0 -46.5 17.5t-14.5 45.5q1 26 19.5 44t43.5 18q29 0 46 -27t14 -67q-10 -96 -95 -195l-32 27q28 33 48 71.5t21 65.5z" />
    <glyph glyph-name="tcommaaccent" unicode="&#x163;" horiz-adv-x="720" 
d="M266 205l66 758h-185l7 61h184l20 229h62l-21 -229h287l-6 -61h-287l-65 -758q-8 -82 33 -133.5t122 -51.5q63 0 138 21l-7 -61q-61 -21 -145 -21q-101 0 -157 68t-46 178zM432 -391h-4q-31 0 -47.5 17.5t-13.5 45.5t20.5 45t42.5 17q29 0 45.5 -26.5t13.5 -67.5
q-10 -97 -96 -193l-31 25q29 33 49 71.5t21 65.5z" />
    <glyph glyph-name="Tcaron" unicode="&#x164;" horiz-adv-x="1171" 
d="M676 1372h-512l4 62h1085l-4 -62h-512l-121 -1372h-61zM893 1802h92l-217 -184h-84l-184 184h92l137 -137z" />
    <glyph glyph-name="tcaron" unicode="&#x165;" horiz-adv-x="720" 
d="M266 205l66 758h-185l7 61h184l20 229h62l-21 -229h287l-6 -61h-287l-65 -758q-8 -82 33 -133.5t122 -51.5q63 0 138 21l-7 -61q-61 -21 -145 -21q-101 0 -157 68t-46 178zM664 1352h-7q-29 0 -46 17.5t-15 45.5q3 28 20.5 45t42.5 17q29 0 46 -27t14 -68
q-7 -91 -94 -192l-31 24q28 32 47.5 71t22.5 67z" />
    <glyph glyph-name="Utilde" unicode="&#x168;" horiz-adv-x="1417" 
d="M1241 573l74 861h61l-73 -861q-26 -282 -190 -453t-408 -171q-245 0 -379.5 171.5t-108.5 452.5l74 861h61l-73 -861q-23 -257 93.5 -410t336.5 -153t364.5 153t167.5 410zM596 1649l-47 30q23 45 76 74t112 29q42 0 75.5 -16t53 -35.5t50.5 -35.5t69 -16q45 0 81.5 21.5
t55.5 56.5l54 -26q-27 -50 -82 -81.5t-119 -31.5q-43 0 -77 16t-53.5 35t-49.5 35t-64 16q-42 0 -78 -19.5t-57 -51.5z" />
    <glyph glyph-name="utilde" unicode="&#x169;" 
d="M565 -41q-190 0 -285 130.5t-77 340.5l53 594h61l-53 -594q-16 -184 63.5 -297t243.5 -113q168 0 302 112.5t149 277.5l53 614h62l-90 -1024h-62l19 205q-61 -112 -181.5 -179t-257.5 -67zM483 1286l-49 33q26 44 76 73t100 29q33 0 63 -12.5t53 -30.5t45 -36.5t47.5 -31
t51.5 -12.5q41 0 80 22t58 56l53 -26q-26 -49 -80 -81t-111 -32q-35 0 -65.5 12.5t-53 30.5t-44 36.5t-47 31t-52.5 12.5q-37 0 -70.5 -20.5t-54.5 -53.5z" />
    <glyph glyph-name="Umacron" unicode="&#x16a;" horiz-adv-x="1417" 
d="M1241 573l74 861h61l-73 -861q-26 -282 -190 -453t-408 -171q-245 0 -379.5 171.5t-108.5 452.5l74 861h61l-73 -861q-23 -257 93.5 -410t336.5 -153t364.5 153t167.5 410zM1143 1761l-4 -61h-561l4 61h561z" />
    <glyph glyph-name="umacron" unicode="&#x16b;" 
d="M565 -41q-190 0 -285 130.5t-77 340.5l53 594h61l-53 -594q-16 -184 63.5 -297t243.5 -113q168 0 302 112.5t149 277.5l53 614h62l-90 -1024h-62l19 205q-61 -112 -181.5 -179t-257.5 -67zM1004 1331l-7 -61h-561l6 61h562z" />
    <glyph glyph-name="Ubreve" unicode="&#x16c;" horiz-adv-x="1417" 
d="M1241 573l74 861h61l-73 -861q-26 -282 -190 -453t-408 -171q-245 0 -379.5 171.5t-108.5 452.5l74 861h61l-73 -861q-23 -257 93.5 -410t336.5 -153t364.5 153t167.5 410zM1030 1802h60q-6 -89 -74.5 -147t-167.5 -58q-98 0 -156.5 58t-50.5 147h61q-6 -63 37.5 -103
t114.5 -40t120.5 40t55.5 103z" />
    <glyph glyph-name="ubreve" unicode="&#x16d;" 
d="M565 -41q-190 0 -285 130.5t-77 340.5l53 594h61l-53 -594q-16 -184 63.5 -297t243.5 -113q168 0 302 112.5t149 277.5l53 614h62l-90 -1024h-62l19 205q-61 -112 -181.5 -179t-257.5 -67zM913 1434h62q-7 -107 -82.5 -176.5t-183.5 -69.5q-106 0 -169.5 69.5
t-56.5 176.5h62q-5 -80 42 -132.5t126 -52.5q82 0 138.5 52.5t61.5 132.5z" />
    <glyph glyph-name="Uring" unicode="&#x16e;" horiz-adv-x="1417" 
d="M1241 573l74 861h61l-73 -861q-26 -282 -190 -453t-408 -171q-245 0 -379.5 171.5t-108.5 452.5l74 861h61l-73 -861q-23 -257 93.5 -410t336.5 -153t364.5 153t167.5 410zM844 1538q-75 0 -120.5 49.5t-39.5 124.5t59.5 123.5t128.5 48.5t120.5 -48.5t39.5 -123.5
t-60 -124.5t-128 -49.5zM868 1823q-49 0 -83.5 -31t-39.5 -78q-5 -51 23.5 -83t79.5 -32q50 0 85.5 32t39.5 83q5 47 -24.5 78t-80.5 31z" />
    <glyph glyph-name="uring" unicode="&#x16f;" 
d="M565 -41q-190 0 -285 130.5t-77 340.5l53 594h61l-53 -594q-16 -184 63.5 -297t243.5 -113q168 0 302 112.5t149 277.5l53 614h62l-90 -1024h-62l19 205q-61 -112 -181.5 -179t-257.5 -67zM705 1126q-103 0 -165 67t-53 169q9 103 82 169t176 66q101 0 161.5 -66
t51.5 -169t-80.5 -169.5t-172.5 -66.5zM739 1536q-75 0 -129.5 -49.5t-60.5 -124.5t39.5 -124.5t120.5 -49.5t128.5 49.5t59.5 124.5t-38.5 124.5t-119.5 49.5z" />
    <glyph glyph-name="Uhungarumlaut" unicode="&#x170;" horiz-adv-x="1417" 
d="M1241 573l74 861h61l-73 -861q-26 -282 -190 -453t-408 -171q-245 0 -379.5 171.5t-108.5 452.5l74 861h61l-73 -861q-23 -257 93.5 -410t336.5 -153t364.5 153t167.5 410zM838 1864h84l-185 -185h-86zM1163 1864h86l-186 -185h-84z" />
    <glyph glyph-name="uhungarumlaut" unicode="&#x171;" 
d="M565 -41q-190 0 -285 130.5t-77 340.5l53 594h61l-53 -594q-16 -184 63.5 -297t243.5 -113q168 0 302 112.5t149 277.5l53 614h62l-90 -1024h-62l19 205q-61 -112 -181.5 -179t-257.5 -67zM743 1475h93l-232 -226h-94zM1071 1475h92l-231 -226h-94z" />
    <glyph glyph-name="Uogonek" unicode="&#x172;" horiz-adv-x="1417" 
d="M748 -49q-14 -2 -43 -2q-245 0 -379.5 171.5t-108.5 452.5l74 861h61l-73 -861q-23 -257 93.5 -410t336.5 -153t364.5 153t167.5 410l74 861h61l-73 -861q-22 -232 -140.5 -392.5t-302.5 -211.5q-64 -36 -105 -93t-48 -124q-9 -114 86.5 -189t253.5 -75l-5 -61
q-184 0 -296.5 91.5t-100.5 229.5q15 115 103 203z" />
    <glyph glyph-name="uogonek" unicode="&#x173;" horiz-adv-x="1378" 
d="M989 37l15 168q-61 -112 -181.5 -179t-257.5 -67q-190 0 -285 130.5t-77 340.5l53 594h61l-53 -594q-16 -184 63.5 -297t243.5 -113q168 0 302 112.5t149 277.5l53 614h62l-90 -1024h-19q-87 -27 -148.5 -95.5t-68.5 -150.5q-11 -114 84.5 -189t253.5 -75l-4 -61
q-184 0 -296.5 91.5t-100.5 229.5q10 97 76.5 175.5t164.5 111.5z" />
    <glyph glyph-name="Wcircumflex" unicode="&#x174;" horiz-adv-x="1998" 
d="M1456 74l541 1360h63l-569 -1434h-82l-291 1354l-528 -1354h-82l-320 1434h64l303 -1360l528 1360h82zM985 1618h-92l219 184h82l184 -184h-92l-137 137z" />
    <glyph glyph-name="wcircumflex" unicode="&#x175;" horiz-adv-x="1777" 
d="M469 0l-274 1024h65l256 -956l420 956h82l256 -956l424 956h65l-454 -1024h-82l-256 954l-420 -954h-82zM842 1249h-80l215 226h82l174 -226h-80l-139 178z" />
    <glyph glyph-name="Ycircumflex" unicode="&#x176;" horiz-adv-x="1138" 
d="M590 594l-422 840h72l387 -772l522 772h72l-570 -840l-51 -594h-61zM559 1618h-92l219 184h82l184 -184h-92l-137 137z" />
    <glyph glyph-name="ycircumflex" unicode="&#x177;" horiz-adv-x="1146" 
d="M88 -430l4 61q65 -20 119 -20q43 0 82.5 20t70.5 49.5t69 87t65 107t71 135.5l-395 1014h70l366 -940l477 940h66l-520 -1024q-47 -93 -80 -152t-76.5 -122t-82 -97.5t-87.5 -57t-104 -22.5q-64 0 -115 21zM528 1249h-79l215 226h81l175 -226h-80l-140 178z" />
    <glyph glyph-name="Ydieresis" unicode="&#x178;" horiz-adv-x="1138" 
d="M590 594l-422 840h72l387 -772l522 772h72l-570 -840l-51 -594h-61zM510 1669q-26 0 -42 18t-13 44q1 26 20.5 43.5t46.5 17.5q26 0 42 -17.5t14 -43.5q-3 -26 -22.5 -44t-45.5 -18zM920 1669q-26 0 -42.5 18t-13.5 44q1 26 21 43.5t47 17.5q26 0 41.5 -17t13.5 -44
q-3 -26 -22 -44t-45 -18z" />
    <glyph glyph-name="Zacute" unicode="&#x179;" 
d="M68 41l1110 1331h-973l4 62h1065l-4 -41l-1108 -1332h1014l-7 -61h-1106zM999 1802l-196 -184h-86l196 184h86z" />
    <glyph glyph-name="zacute" unicode="&#x17a;" horiz-adv-x="1110" 
d="M971 963h-762l6 61h860l-4 -41l-862 -922h803l-6 -61h-902l5 41zM844 1475h86l-242 -226h-86z" />
    <glyph glyph-name="Zdotaccent" unicode="&#x17b;" 
d="M68 41l1110 1331h-973l4 62h1065l-4 -41l-1108 -1332h1014l-7 -61h-1106zM762 1673q-27 0 -42 17.5t-13 44.5q3 28 21 44.5t46 16.5q27 0 42.5 -17t12.5 -44q-1 -26 -21 -44t-46 -18z" />
    <glyph glyph-name="zdotaccent" unicode="&#x17c;" horiz-adv-x="1110" 
d="M971 963h-762l6 61h860l-4 -41l-862 -922h803l-6 -61h-902l5 41zM666 1249q-27 0 -42.5 17.5t-13.5 44.5q3 28 21.5 44.5t46.5 16.5q27 0 42.5 -17t12.5 -44q-1 -26 -21 -44t-46 -18z" />
    <glyph glyph-name="Zcaron" unicode="&#x17d;" 
d="M68 41l1110 1331h-973l4 62h1065l-4 -41l-1108 -1332h1014l-7 -61h-1106zM930 1802h92l-217 -184h-84l-184 184h92l137 -137z" />
    <glyph glyph-name="zcaron" unicode="&#x17e;" horiz-adv-x="1110" 
d="M971 963h-762l6 61h860l-4 -41l-862 -922h803l-6 -61h-902l5 41zM840 1475h80l-215 -226h-82l-174 226h79l140 -179z" />
    <glyph glyph-name="Aacutering" unicode="&#x1fa;" horiz-adv-x="1306" 
d="M819 1434l445 -1434h-66l-121 389h-780l-188 -389h-66l694 1434h82zM774 1372l-448 -921h733zM776 1456q-75 0 -120 49.5t-38 124.5q6 75 60 123.5t129 48.5t120.5 -48.5t39.5 -123.5q-7 -75 -62 -124.5t-129 -49.5zM801 1741q-49 0 -83.5 -31t-37.5 -78q-5 -51 23 -82.5
t79 -31.5q50 0 85.5 31.5t39.5 82.5q3 48 -26 78.5t-80 30.5zM1018 2007l-166 -184h-76l166 184h76z" />
    <glyph glyph-name="aacutering" unicode="&#x1fb;" horiz-adv-x="1355" 
d="M1174 756l24 268h62l-91 -1024h-61l22 268q-67 -141 -200 -225t-297 -84q-233 0 -369 155.5t-114 397.5t184 397.5t395 155.5q164 0 283 -84t162 -225zM639 20q200 0 347.5 140t166.5 352q12 139 -40.5 252t-154.5 176.5t-233 63.5q-205 0 -350 -139t-164 -353t102 -353
t326 -139zM770 1149q-75 0 -120 49.5t-38 124.5q6 75 60 123.5t129 48.5t120.5 -48.5t39.5 -123.5q-7 -75 -62 -124.5t-129 -49.5zM795 1434q-49 0 -83.5 -31t-37.5 -78q-5 -51 23 -83t79 -32q50 0 85.5 32t39.5 83q3 48 -26 78.5t-80 30.5zM1102 1802l-197 -184h-86
l197 184h86z" />
    <glyph glyph-name="AEacute" unicode="&#x1fc;" horiz-adv-x="1787" 
d="M1688 61l-7 -61h-839l28 328h-557l-202 -328h-68l883 1434h860l-4 -60h-758l-55 -616h676l-5 -62h-675l-56 -635h779zM877 389l86 989l-611 -989h525zM1468 1782l-196 -185h-86l196 185h86z" />
    <glyph glyph-name="aeacute" unicode="&#x1fd;" horiz-adv-x="2256" 
d="M2200 532q-1 -7 -4.5 -27.5t-4.5 -33.5h-979q2 -202 114 -326.5t298 -124.5q152 0 282 81.5t185 211.5l55 -18q-55 -146 -204.5 -241t-323.5 -95q-156 0 -269 79t-157 220l-23 -258h-61l22 260q-75 -139 -206.5 -220t-290.5 -81q-232 0 -368.5 156t-114.5 397
q22 242 184.5 397.5t394.5 155.5q159 0 277 -81t170 -220l22 260h62l-23 -246q74 131 202 209t273 78q232 0 370 -150.5t118 -382.5zM211 512q-19 -212 102.5 -351t325.5 -141q204 0 349.5 139t164.5 353t-102.5 353t-325.5 139q-205 0 -350 -139t-164 -353zM1217 532h921
q17 203 -106.5 337.5t-323.5 134.5q-194 0 -334 -136.5t-157 -335.5zM1417 1495h86l-241 -225h-86z" />
    <glyph glyph-name="Oslashacute" unicode="&#x1fe;" horiz-adv-x="1724" 
d="M1329 1405l211 356h70l-230 -387q150 -100 225.5 -271.5t57.5 -385.5q-19 -219 -129 -394.5t-287.5 -274.5t-388.5 -99q-159 0 -291 57l-172 -293h-71l188 320q-170 94 -257.5 274t-66.5 410q19 220 128.5 395.5t286.5 274t388 98.5q184 0 338 -80zM250 717
q-20 -210 60.5 -375.5t236.5 -253.5l749 1262q-137 73 -309 73q-194 0 -356.5 -90.5t-263 -252t-117.5 -363.5zM1602 717q17 195 -51.5 352.5t-204.5 249.5l-744 -1258q117 -51 260 -51q145 0 275 53t228 145.5t160.5 224.5t76.5 284zM1286 1802l-196 -184h-86l196 184h86z
" />
    <glyph glyph-name="oslashacute" unicode="&#x1ff;" horiz-adv-x="1273" 
d="M973 1008l131 221h70l-150 -252q102 -72 152 -193.5t38 -271.5q-22 -241 -185.5 -397t-395.5 -156q-105 0 -195 35l-94 -158h-70l109 184q-123 67 -185.5 196.5t-47.5 295.5q22 242 184.5 397.5t394.5 155.5q136 0 244 -57zM416 76l524 876q-96 52 -215 52
q-205 0 -350 -139t-164 -353q-13 -145 42 -260t163 -176zM1153 512q10 131 -33 237t-131 171l-518 -871q79 -29 168 -29q204 0 349.5 139t164.5 353zM1032 1475l-207 -226h-80l207 226h80z" />
    <glyph glyph-name="Scommaaccent" unicode="&#x218;" horiz-adv-x="1411" 
d="M707 -51q-162 0 -286 65t-186.5 180.5t-50.5 260.5h62q-17 -196 114.5 -320.5t352.5 -124.5q212 0 361 102.5t163 252.5q6 72 -25 126t-88 87.5t-132 58.5t-159 44.5t-167.5 39t-158.5 48t-131.5 66.5t-86.5 99t-23 141q15 173 171.5 291.5t383.5 118.5q158 0 280.5 -60
t186 -167.5t51.5 -241.5h-61q15 177 -115 292t-346 115q-200 0 -338.5 -99t-150.5 -243q-6 -71 24.5 -124t87 -86t131.5 -58t158.5 -44.5t167 -39.5t158.5 -49.5t131.5 -68.5t87 -101.5t24.5 -144.5q-11 -120 -90.5 -215t-210.5 -148t-290 -53zM672 -391h-4q-31 0 -48 18
t-14 47q3 27 20.5 43.5t43.5 16.5q29 0 45.5 -26.5t13.5 -67.5q-10 -97 -96 -193l-31 25q67 81 70 137z" />
    <glyph glyph-name="scommaaccent" unicode="&#x219;" horiz-adv-x="1034" 
d="M526 -41q-186 0 -296.5 101.5t-96.5 258.5h62q-12 -132 82 -215.5t253 -83.5q147 0 249.5 70.5t111.5 175.5q6 64 -30.5 107.5t-99 66.5t-139 40.5t-152.5 36.5t-138 46.5t-98 79t-29 125.5q10 127 123.5 212t273.5 85q171 0 275 -95.5t92 -242.5h-62q10 122 -77.5 199.5
t-229.5 77.5q-133 0 -229 -67t-105 -165q-5 -61 31.5 -103t99 -64t139 -39t153 -37t138.5 -48t98 -81.5t29 -129.5q-12 -135 -134 -223t-294 -88zM483 -391h-4q-31 0 -47.5 17.5t-13.5 45.5t20.5 45t42.5 17q29 0 46 -26.5t14 -67.5q-10 -96 -97 -193l-30 25q28 33 48 71.5
t21 65.5z" />
    <glyph glyph-name="circumflex" unicode="&#x2c6;" horiz-adv-x="679" 
d="M215 1270l215 225h82l174 -225h-80l-139 178l-172 -178h-80z" />
    <glyph glyph-name="caron" unicode="&#x2c7;" horiz-adv-x="679" 
d="M627 1495h80l-215 -225h-82l-174 225h79l140 -178z" />
    <glyph glyph-name="breve" unicode="&#x2d8;" horiz-adv-x="700" 
d="M666 1495h61q-9 -107 -85 -176.5t-183 -69.5t-169.5 69.5t-53.5 176.5h61q-7 -79 40.5 -131.5t127.5 -52.5q79 0 136 52t65 132z" />
    <glyph glyph-name="dotaccent" unicode="&#x2d9;" horiz-adv-x="331" 
d="M266 1147q-27 0 -42.5 17t-12.5 44q2 28 19.5 45t45.5 17q27 0 43 -17.5t15 -44.5q-3 -26 -22.5 -43.5t-45.5 -17.5z" />
    <glyph glyph-name="ring" unicode="&#x2da;" horiz-adv-x="679" 
d="M438 1106q-104 0 -165 66t-52 169t81.5 169.5t176.5 66.5q101 0 161.5 -66.5t51.5 -169.5t-81 -169t-173 -66zM473 1516q-75 0 -128.5 -50t-61.5 -125q-6 -75 39 -124.5t120 -49.5t129 49.5t60 124.5q7 75 -38 125t-120 50z" />
    <glyph glyph-name="ogonek" unicode="&#x2db;" horiz-adv-x="630" 
d="M352 43l17 -43q-91 -27 -155 -95.5t-71 -152.5q-11 -114 85 -189t253 -75l-4 -61q-184 0 -296.5 91.5t-98.5 229.5q9 105 85 187.5t185 107.5z" />
    <glyph glyph-name="tilde" unicode="&#x2dc;" horiz-adv-x="831" 
d="M268 1286l-49 33q26 44 76 73t100 29q33 0 63 -12.5t53 -30.5t45 -36.5t47.5 -31t51.5 -12.5q41 0 80 22t58 56l53 -26q-26 -49 -80 -81t-111 -32q-35 0 -65.5 12.5t-53 30.5t-44 36.5t-47 31t-52.5 12.5q-37 0 -70.5 -20.5t-54.5 -53.5z" />
    <glyph glyph-name="hungarumlaut" unicode="&#x2dd;" horiz-adv-x="839" 
d="M449 1495h92l-232 -225h-94zM776 1495h92l-231 -225h-94z" />
    <glyph glyph-name="Wgrave" unicode="&#x1e80;" horiz-adv-x="1998" 
d="M1456 74l541 1360h63l-569 -1434h-82l-291 1354l-528 -1354h-82l-320 1434h64l303 -1360l528 1360h82zM1092 1618l-164 184h86l164 -184h-86z" />
    <glyph glyph-name="wgrave" unicode="&#x1e81;" horiz-adv-x="1777" 
d="M469 0l-274 1024h65l256 -956l420 956h82l256 -956l424 956h65l-454 -1024h-82l-256 954l-420 -954h-82zM772 1475h86l201 -226h-86z" />
    <glyph glyph-name="Wacute" unicode="&#x1e82;" horiz-adv-x="1998" 
d="M1456 74l541 1360h63l-569 -1434h-82l-291 1354l-528 -1354h-82l-320 1434h64l303 -1360l528 1360h82zM1378 1802l-196 -184h-86l196 184h86z" />
    <glyph glyph-name="wacute" unicode="&#x1e83;" horiz-adv-x="1777" 
d="M469 0l-274 1024h65l256 -956l420 956h82l256 -956l424 956h65l-454 -1024h-82l-256 954l-420 -954h-82zM1178 1475h86l-242 -226h-86z" />
    <glyph glyph-name="Wdieresis" unicode="&#x1e84;" horiz-adv-x="1998" 
d="M1456 74l541 1360h63l-569 -1434h-82l-291 1354l-528 -1354h-82l-320 1434h64l303 -1360l528 1360h82zM915 1669q-26 0 -42 18t-13 44q1 26 21 43.5t47 17.5q26 0 41.5 -17t13.5 -44q-3 -26 -22.5 -44t-45.5 -18zM1366 1669q-26 0 -42 18t-13 44q1 26 20.5 43.5
t46.5 17.5q26 0 42 -17.5t14 -43.5q-3 -26 -22.5 -44t-45.5 -18z" />
    <glyph glyph-name="wdieresis" unicode="&#x1e85;" horiz-adv-x="1777" 
d="M469 0l-274 1024h65l256 -956l420 956h82l256 -956l424 956h65l-454 -1024h-82l-256 954l-420 -954h-82zM793 1249q-28 0 -43.5 17t-12.5 45t21.5 44.5t46.5 16.5t43 -16.5t12 -44.5t-21 -45t-46 -17zM1202 1249q-28 0 -43 17t-12 45t21 44.5t46 16.5t43.5 -16.5
t12.5 -44.5t-21.5 -45t-46.5 -17z" />
    <glyph glyph-name="Germandbls" unicode="&#x1e9e;" horiz-adv-x="1294" 
d="M313 983l-86 -983h-61l86 983q19 209 160.5 345t339.5 136q171 0 276.5 -108t93.5 -262q-12 -134 -106 -216t-248 -108q203 -27 315 -134.5t97 -285.5q-15 -174 -139.5 -287.5t-299.5 -113.5q-89 0 -168.5 28t-132.5 72l39 49q109 -88 264 -88q153 0 257.5 95t117.5 247
q13 177 -124.5 281t-370.5 104h-64l4 62h70q177 0 296.5 80t131.5 213q11 129 -79 220t-237 91q-172 0 -294.5 -118.5t-137.5 -301.5z" />
    <glyph glyph-name="Ygrave" unicode="&#x1ef2;" horiz-adv-x="1138" 
d="M590 594l-422 840h72l387 -772l522 772h72l-570 -840l-51 -594h-61zM686 1618l-164 184h86l164 -184h-86z" />
    <glyph glyph-name="ygrave" unicode="&#x1ef3;" horiz-adv-x="1060" 
d="M45 -430l4 61q65 -20 119 -20q31 0 60 10.5t53.5 26t51 46t47 58t48.5 75.5t48 84.5t52 98.5l-397 1014h70l366 -940l477 940h66l-520 -1024q-39 -77 -67 -128t-63.5 -108t-66.5 -92t-68 -65.5t-77.5 -44t-85.5 -13.5q-66 0 -117 21zM436 1475h86l201 -226h-86z" />
    <glyph glyph-name="endash" unicode="&#x2013;" horiz-adv-x="1335" 
d="M1311 678l-6 -62h-1168l6 62h1168z" />
    <glyph glyph-name="emdash" unicode="&#x2014;" horiz-adv-x="1662" 
d="M102 678h1577l-6 -62h-1577z" />
    <glyph glyph-name="quoteleft" unicode="&#x2018;" horiz-adv-x="348" 
d="M344 1229q-2 -26 -20.5 -44t-44.5 -18q-32 0 -50.5 23.5t-15.5 60.5q8 74 45.5 143t89.5 101l25 -31q-37 -23 -62 -71.5t-30 -102.5q29 0 47.5 -17.5t15.5 -43.5z" />
    <glyph glyph-name="quoteright" unicode="&#x2019;" horiz-adv-x="348" 
d="M233 1413q3 27 22 44.5t46 17.5q31 0 49.5 -24t14.5 -60q-6 -74 -44 -143t-90 -101l-24 31q36 24 62 72.5t30 101.5q-31 0 -49.5 17.5t-16.5 43.5z" />
    <glyph glyph-name="quotesinglbase" unicode="&#x201a;" horiz-adv-x="348" 
d="M115 41q2 27 20 44t45 17q31 0 50 -24t16 -60q-6 -73 -44 -142t-91 -101l-23 30q34 24 60 73t30 102q-31 0 -48.5 17.5t-14.5 43.5z" />
    <glyph glyph-name="quotedblleft" unicode="&#x201c;" horiz-adv-x="591" 
d="M348 1229q-2 -26 -20.5 -44t-44.5 -18q-31 0 -50 24t-16 60q8 74 45.5 143t89.5 101l25 -31q-36 -24 -62 -72.5t-30 -101.5q31 0 48.5 -17.5t14.5 -43.5zM584 1229q-2 -27 -20.5 -44.5t-45.5 -17.5q-31 0 -49.5 23.5t-15.5 60.5q8 74 45.5 143t89.5 101l24 -31
q-36 -24 -62 -72.5t-30 -101.5q31 0 49 -17.5t15 -43.5z" />
    <glyph glyph-name="quotedblright" unicode="&#x201d;" horiz-adv-x="583" 
d="M238 1413q3 26 22 44t45 18q31 0 49.5 -24t14.5 -60q-6 -74 -43.5 -143t-89.5 -101l-25 31q36 24 62 72.5t30 101.5q-30 0 -48.5 17t-16.5 44zM471 1413q3 26 22.5 44t45.5 18q32 0 50 -23.5t13 -60.5q-6 -74 -43.5 -143t-89.5 -101l-25 31q37 23 63 71.5t30 102.5
q-29 0 -48 17.5t-18 43.5z" />
    <glyph glyph-name="quotedblbase" unicode="&#x201e;" horiz-adv-x="585" 
d="M113 41q1 26 20 43.5t45 17.5q31 0 50 -24t16 -60q-6 -73 -44 -142t-91 -101l-23 30q34 24 60 73t30 102q-31 0 -48.5 17.5t-14.5 43.5zM348 41q2 26 20 43.5t46 17.5q31 0 49.5 -23.5t15.5 -60.5q-6 -73 -44 -142t-91 -101l-22 30q34 24 60 73t30 102q-31 0 -49 17.5
t-15 43.5z" />
    <glyph glyph-name="bullet" unicode="&#x2022;" horiz-adv-x="331" 
d="M217 573q-27 0 -43 17.5t-14 44.5q3 27 21.5 44t45.5 17q26 0 42.5 -17.5t13.5 -43.5q-1 -26 -20.5 -44t-45.5 -18z" />
    <glyph glyph-name="ellipsis" unicode="&#x2026;" horiz-adv-x="864" 
d="M109 41q2 27 20 44t45 17q26 0 42.5 -17.5t14.5 -43.5q-3 -26 -22 -43.5t-45 -17.5q-28 0 -43 16.5t-12 44.5zM375 41q2 27 20 44t45 17q26 0 42.5 -17.5t15.5 -43.5q-3 -26 -22.5 -43.5t-45.5 -17.5q-28 0 -43 16.5t-12 44.5zM641 41q2 26 20 43.5t46 17.5
q26 0 42.5 -17.5t14.5 -43.5q-3 -26 -22.5 -43.5t-45.5 -17.5q-28 0 -43 16.5t-12 44.5z" />
    <glyph glyph-name="perthousand" unicode="&#x2030;" horiz-adv-x="3065" 
d="M1188 389q15 178 141.5 294t306.5 116t287 -116t92 -294q-17 -179 -143.5 -294t-306.5 -115t-287 115.5t-90 293.5zM1954 391q12 151 -78 248.5t-242 97.5q-156 0 -265.5 -98t-121.5 -248q-13 -152 79 -251t247 -99q152 0 259.5 99t121.5 251zM2169 387q15 178 142.5 294
t307.5 116q179 0 285.5 -116t91.5 -294q-17 -179 -143 -294.5t-307 -115.5q-180 0 -287 116t-90 294zM2937 389q12 151 -79 248.5t-245 97.5t-262.5 -98t-120.5 -248q-13 -152 78.5 -251t245.5 -99t261.5 99t121.5 251zM201 1106q15 178 142.5 294t307.5 116t286 -115.5
t91 -294.5q-15 -178 -141.5 -294t-306.5 -116t-287 116t-92 294zM967 1108q13 151 -77.5 248.5t-242.5 97.5q-155 0 -264 -97.5t-123 -248.5q-12 -153 79.5 -251.5t246.5 -98.5q153 0 261 99t120 251zM1649 1495h69l-1153 -1495h-67z" />
    <glyph glyph-name="guilsinglleft" unicode="&#x2039;" horiz-adv-x="696" 
d="M682 1024l-473 -512l383 -512h-82l-381 512l473 512h80z" />
    <glyph glyph-name="guilsinglright" unicode="&#x203a;" horiz-adv-x="696" 
d="M657 512l-473 -512h-80l474 512l-383 512h79z" />
    <glyph glyph-name="lira" unicode="&#x20a4;" horiz-adv-x="1157" 
d="M190 758h205l29 327q15 173 124 286.5t257 113.5q152 0 247 -119.5t93 -306.5l-62 -10q-2 164 -79.5 269t-202.5 105q-121 0 -212 -96t-104 -242l-28 -327h553l-4 -62h-553q-5 -65 -19 -143h559l-6 -61h-563q-63 -356 -234 -431h863l-6 -61h-943l9 102q89 11 151 99.5
t98 290.5h-194l6 61h199q15 111 18 143h-205z" />
    <glyph glyph-name="Euro" unicode="&#x20ac;" horiz-adv-x="1800" 
d="M1659 467l55 -14q-41 -140 -145 -254.5t-254.5 -182t-315.5 -67.5q-285 0 -473.5 167t-214.5 437h-157l4 61h147q0 68 4 103q2 39 19 123h-150l6 61h162q77 263 291.5 423.5t495.5 160.5q123 0 233.5 -41t192 -111t134.5 -166t66 -204l-61 -11q-27 200 -186.5 335.5
t-383.5 135.5q-254 0 -449.5 -143t-270.5 -379h800l-6 -61h-811q-17 -68 -20 -123q-4 -35 -4 -103h815l-4 -61h-805q29 -245 200.5 -394t430.5 -149q228 0 412.5 131.5t242.5 325.5z" />
    <glyph glyph-name="trademark" unicode="&#x2122;" horiz-adv-x="2134" 
d="M377 307l94 1065h-328l4 62h717l-4 -62h-328l-94 -1065h-61zM2025 1368l-522 -1061h-61l-338 1061l-92 -1061h-62l99 1127h102l330 -1041l510 1041h102l-98 -1127h-62z" />
    <glyph glyph-name="minus" unicode="&#x2212;" horiz-adv-x="1048" 
d="M164 678h840l-7 -62h-839z" />
    <glyph glyph-name="notequal" unicode="&#x2260;" horiz-adv-x="1171" 
d="M1143 856h-359l-200 -432h520l-6 -62h-543l-203 -444h-67l202 444h-352l6 62h377l201 432h-539l4 62h561l181 385h65l-180 -385h336z" />
    <glyph glyph-name="lessequal" unicode="&#x2264;" horiz-adv-x="864" 
d="M745 61l-6 -61h-696l6 61h696zM102 676l729 368l-6 -69l-673 -340l614 -342l-6 -70l-666 371z" />
    <glyph glyph-name="greaterequal" unicode="&#x2265;" horiz-adv-x="864" 
d="M131 61h696l-6 -61h-696zM152 293l671 342l-612 340l6 69l664 -368l-9 -82l-727 -371z" />
    <glyph glyph-name="commaaccent" unicode="&#xf6c3;" horiz-adv-x="331" 
d="M168 -102h-6q-29 0 -46.5 17.5t-15.5 45.5q3 28 21 45t43 17q29 0 45.5 -27t13.5 -68q-7 -91 -94 -192l-31 24q28 32 47.5 71t22.5 67z" />
    <glyph glyph-name="IJacute" horiz-adv-x="1277" 
d="M371 1434l-125 -1434h-62l125 1434h62zM1104 430l88 1004h61l-88 -1004q-20 -228 -139.5 -349.5t-298.5 -121.5q-112 0 -233 41l6 63q134 -43 241 -43q149 0 247 104t116 306zM618 1802l-196 -184h-86l196 184h86zM1477 1802l-195 -184h-88l199 184h84z" />
    <glyph glyph-name="acute.case" horiz-adv-x="475" 
d="M299 1249h-86l197 185h86z" />
    <glyph glyph-name="breve.case" horiz-adv-x="657" 
d="M625 1495h59q-6 -89 -74.5 -147t-167.5 -58q-98 0 -156 58t-50 147h61q-6 -63 37.5 -103t114.5 -40t120.5 40t55.5 103z" />
    <glyph glyph-name="caron.case" horiz-adv-x="694" 
d="M621 1413h92l-217 -184h-82l-187 184h92l142 -137z" />
    <glyph glyph-name="circumflex.case" horiz-adv-x="694" 
d="M217 1290l219 185h82l184 -185h-92l-137 137l-164 -137h-92z" />
    <glyph glyph-name="dieresis.case" horiz-adv-x="741" 
d="M279 1280q-26 0 -42.5 17.5t-15.5 43.5q3 26 22.5 44t45.5 18t42 -18t13 -44q-1 -26 -20 -43.5t-45 -17.5zM688 1280q-26 0 -42.5 17.5t-14.5 43.5q3 26 22 44t45 18t42.5 -18t13.5 -44q-1 -26 -20.5 -43.5t-45.5 -17.5z" />
    <glyph glyph-name="dotaccent.case" horiz-adv-x="331" 
d="M270 1202q-27 0 -42.5 17.5t-12.5 44.5q3 28 21.5 44.5t46.5 16.5q27 0 42.5 -17t12.5 -44q-3 -26 -22.5 -44t-45.5 -18z" />
    <glyph glyph-name="grave.case" horiz-adv-x="475" 
d="M395 1270l-164 184h86l164 -184h-86z" />
    <glyph glyph-name="hungarumlaut.case" horiz-adv-x="788" 
d="M406 1495h83l-184 -184h-86zM731 1495h86l-186 -184h-84z" />
    <glyph glyph-name="ijacute" horiz-adv-x="792" 
d="M268 1024h62l-90 -1024h-62zM559 -227l111 1251h61l-110 -1249q-8 -98 -73 -162t-159 -64q-59 0 -135 27l6 64q81 -29 131 -29q69 0 115.5 45.5t52.5 116.5zM504 1495h80l-230 -246h-80zM903 1495h80l-229 -246h-80z" />
    <glyph glyph-name="ring.case" horiz-adv-x="557" 
d="M375 1108q-75 0 -120 49.5t-38 124.5q6 75 60 123.5t129 48.5q76 0 120.5 -48.5t38.5 -123.5q-7 -75 -61.5 -124.5t-128.5 -49.5zM401 1393q-50 0 -83.5 -30.5t-38.5 -78.5q-5 -51 24 -83t80 -32q48 0 83.5 32.5t39.5 82.5q4 47 -25.5 78t-79.5 31z" />
    <glyph glyph-name="tilde.case" horiz-adv-x="831" 
d="M264 1239l-49 31q25 45 78 73.5t113 28.5q42 0 75 -16t52 -35t49.5 -35t68.5 -16q45 0 83 21.5t57 56.5l51 -27q-25 -50 -80 -81.5t-119 -31.5q-43 0 -77 16t-53.5 35.5t-49.5 35.5t-64 16q-42 0 -78 -20t-57 -52z" />
    </font>
</defs>
</svg>
