<?xml version="1.0" standalone="no"?>
<!DOCTYPE svg PUBLIC "-//W3C//DTD SVG 1.1//EN" "http://www.w3.org/Graphics/SVG/1.1/DTD/svg11.dtd" >
<svg xmlns="http://www.w3.org/2000/svg" xmlns:xlink="http://www.w3.org/1999/xlink" version="1.1">
<metadata>
Created by FontForge 20170731 at Mon Sep 26 11:52:36 2022
 By Aleksey,,,
Copyright (c) 2017 by Alexander Slobzheninov. All rights reserved.
</metadata>
<defs>
<font id="Objective-Thin" horiz-adv-x="1232" >
  <font-face 
    font-family="Objective Thin"
    font-weight="250"
    font-stretch="normal"
    units-per-em="2048"
    panose-1="0 0 0 0 0 0 0 0 0 0"
    ascent="1638"
    descent="-410"
    x-height="1024"
    cap-height="1434"
    bbox="-111 -573 2961 2007"
    underline-thickness="102"
    underline-position="-358"
    unicode-range="U+000D-F6C3"
  />
<missing-glyph horiz-adv-x="1024" 
 />
    <glyph glyph-name=".notdef" horiz-adv-x="1024" 
 />
    <glyph glyph-name=".null" horiz-adv-x="0" 
 />
    <glyph glyph-name="nonmarkingreturn" horiz-adv-x="682" 
 />
    <glyph glyph-name="NULL" horiz-adv-x="1417" 
d="M1231 1434v-1434h-1045v1434h1045zM246 61h925v1311h-925v-1311z" />
    <glyph glyph-name="NULL" horiz-adv-x="1417" 
d="M1231 1434v-1434h-1045v1434h1045zM246 61h925v1311h-925v-1311z" />
    <glyph glyph-name="CR" unicode="&#xd;" horiz-adv-x="61" 
 />
    <glyph glyph-name="space" unicode=" " horiz-adv-x="614" 
 />
    <glyph glyph-name="exclam" unicode="!" horiz-adv-x="331" 
d="M104 41q0 27 17 44t45 17q26 0 43.5 -17.5t17.5 -43.5t-17.5 -43.5t-43.5 -17.5q-28 0 -45 16.5t-17 44.5zM197 1434v-1065h-62v1065h62z" />
    <glyph glyph-name="quotedbl" unicode="&#x22;" horiz-adv-x="557" 
d="M166 817h-62v615h62v-615zM453 817h-62v615h62v-615z" />
    <glyph glyph-name="numbersign" unicode="#" horiz-adv-x="1935" 
d="M1159 500l-133 -502h-63l133 502h-437l-135 -502h-63l135 502h-492v61h508l117 430h-522v62h538l121 454h64l-121 -454h434l121 454h63l-120 -454h522l2 -62h-541l-114 -430h553l-3 -61h-567zM1112 561l115 430h-434l-117 -430h436z" />
    <glyph glyph-name="dollar" unicode="$" horiz-adv-x="1411" 
d="M735 -51v-201h-61v201q-232 12 -380.5 153t-148.5 353h62q0 -196 142.5 -320.5t363.5 -124.5q212 0 351.5 102.5t139.5 252.5q0 65 -29 115.5t-79 82.5t-116 58.5t-140 43t-152.5 36t-153 37.5t-140 48t-115 66.5t-78.5 93.5t-29 129q0 168 141 286t361 124v194h61v-196
q224 -11 370 -142t146 -325h-61q0 177 -140.5 292t-357.5 115q-200 0 -329.5 -99t-129.5 -243q0 -71 35 -124t95 -86t137 -58t162.5 -44.5t171 -39.5t163 -49.5t137.5 -68.5t95.5 -101.5t36.5 -144.5q0 -178 -149 -294t-382 -122z" />
    <glyph glyph-name="percent" unicode="%" horiz-adv-x="2084" 
d="M1569 799q179 0 295 -116t116 -294q0 -179 -115.5 -294t-295.5 -115t-297 115.5t-117 293.5t117 294t297 116zM1571 737q-155 0 -256 -97.5t-101 -248.5q0 -152 101 -251t256 -99q152 0 251 99t99 251q0 151 -99 248.5t-251 97.5zM520 1516q179 0 295.5 -116t116.5 -294
q0 -179 -116 -294.5t-296 -115.5t-298 116t-118 294t118 294t298 116zM522 1454q-155 0 -255.5 -97.5t-100.5 -248.5q0 -152 100.5 -251t255.5 -99q152 0 251 99t99 251q0 151 -99 248.5t-251 97.5zM1589 1495l-1016 -1495h-73l1016 1495h73z" />
    <glyph glyph-name="ampersand" unicode="&#x26;" horiz-adv-x="1564" 
d="M1419 0h-92l-225 201q-92 -128 -208 -190t-271 -62q-207 0 -342.5 112.5t-135.5 284.5q0 67 18 124t47.5 99t75 79.5t91 63.5t104.5 52q-192 188 -192 360q0 148 103 243t267 95q150 0 252 -93t127 -245l-59 -10q-21 129 -105.5 209t-209.5 80q-140 0 -227 -78.5
t-87 -200.5q1 -92 58 -176t161 -180q91 -84 270.5 -245t252.5 -228q90 146 176 401h65q-96 -287 -196 -442q105 -96 282 -254zM623 10q266 0 434 234q-85 77 -262 235.5t-267 239.5q-73 -31 -125 -62t-99.5 -75t-72 -103.5t-24.5 -132.5q0 -146 117.5 -241t298.5 -95z" />
    <glyph glyph-name="quotesingle" unicode="'" horiz-adv-x="270" 
d="M166 819h-62v615h62v-615z" />
    <glyph glyph-name="parenleft" unicode="(" horiz-adv-x="618" 
d="M125 575q0 278 90 538.5t236 406.5h84q-160 -157 -254.5 -412t-94.5 -533q0 -283 94.5 -537t254.5 -407h-84q-146 146 -236 406t-90 538z" />
    <glyph glyph-name="parenright" unicode=")" horiz-adv-x="618" 
d="M494 575q0 -278 -90 -538t-236 -406h-84q160 153 254 407t94 537q0 278 -94 533t-254 412h84q146 -146 236 -406.5t90 -538.5z" />
    <glyph glyph-name="asterisk" unicode="*" horiz-adv-x="1019" 
d="M885 731l-344 199v-398h-62v398l-344 -199l-31 53l345 199l-345 199l31 53l344 -199v398h62v-398l344 199l30 -53l-344 -199l344 -199z" />
    <glyph glyph-name="plus" unicode="+" horiz-adv-x="1171" 
d="M614 184h-59v439h-451v61h451v401h61v-401h451v-61h-453v-439z" />
    <glyph glyph-name="comma" unicode="," horiz-adv-x="348" 
d="M111 41q0 27 17 44t44 17q31 0 51.5 -23.5t20.5 -60.5q0 -74 -32 -142.5t-81 -100.5l-27 30q33 24 54.5 73t21.5 102q-31 0 -50 17.5t-19 43.5z" />
    <glyph glyph-name="hyphen" unicode="-" horiz-adv-x="1048" 
d="M944 678v-62h-840v62h840z" />
    <glyph glyph-name="period" unicode="." horiz-adv-x="331" 
d="M104 41q0 27 17 44t45 17q26 0 43.5 -17.5t17.5 -43.5t-17.5 -43.5t-43.5 -17.5q-28 0 -45 16.5t-17 44.5z" />
    <glyph glyph-name="slash" unicode="/" horiz-adv-x="849" 
d="M766 1434l-619 -1905h-63l616 1905h66z" />
    <glyph glyph-name="zero" unicode="0" horiz-adv-x="1437" 
d="M145 717q0 220 73.5 395.5t204.5 274t296 98.5q164 0 295 -98.5t204.5 -274t73.5 -395.5q0 -219 -73.5 -394.5t-204.5 -274.5t-295 -99q-165 0 -296 99t-204.5 274.5t-73.5 394.5zM207 717q0 -202 65.5 -364t182.5 -252.5t264 -90.5t264 90.5t182.5 252.5t65.5 364
t-65.5 363.5t-182.5 252t-264 90.5t-264 -90.5t-182.5 -252t-65.5 -363.5z" />
    <glyph glyph-name="one" unicode="1" horiz-adv-x="657" 
d="M391 1337l-328 -270v80l349 287h41v-1434h-62v1337z" />
    <glyph glyph-name="two" unicode="2" horiz-adv-x="1212" 
d="M629 1485q191 0 314.5 -124.5t123.5 -316.5q0 -79 -21.5 -149.5t-66.5 -136t-100.5 -123.5t-137.5 -127l-526 -447h832v-61h-902v82l596 508q132 111 198.5 221.5t66.5 232.5q0 165 -105.5 272t-267.5 107q-167 0 -285 -104.5t-143 -274.5l-60 11q20 186 158.5 308
t325.5 122z" />
    <glyph glyph-name="three" unicode="3" horiz-adv-x="1253" 
d="M207 1372v62h819v-41l-477 -535q23 2 65 2q217 0 355.5 -126t138.5 -324q0 -201 -136 -331t-345 -130q-195 0 -332.5 127.5t-149.5 322.5l58 11q9 -173 130 -286.5t296 -113.5q181 0 299.5 113.5t118.5 286.5q0 171 -121 280t-310 109q-54 0 -103.5 -11t-72.5 -28l-22 43
l508 569h-719z" />
    <glyph glyph-name="four" unicode="4" horiz-adv-x="1130" 
d="M43 430l676 1004h102v-983h185v-62h-185v-389h-61v389h-717v41zM760 1386l-629 -935h629v935z" />
    <glyph glyph-name="five" unicode="5" horiz-adv-x="1255" 
d="M332 1434h676v-62h-621l-41 -512h211q241 0 397 -126.5t156 -323.5q0 -201 -136 -331t-345 -130q-195 0 -332 126.5t-152 321.5l60 13q10 -173 131.5 -286.5t294.5 -113.5q181 0 299.5 113.5t118.5 286.5q0 169 -139 279t-353 110h-278z" />
    <glyph glyph-name="six" unicode="6" horiz-adv-x="1169" 
d="M207 696l526 738h78l-465 -648q43 32 113.5 53t136.5 21q204 0 337.5 -127t133.5 -323q0 -201 -133.5 -331t-337.5 -130q-215 0 -353.5 128.5t-138.5 325.5q0 148 103 293zM166 403q0 -171 120 -282t310 -111q178 0 294 113.5t116 286.5q0 169 -116 279t-294 110
q-188 0 -309.5 -111.5t-120.5 -284.5z" />
    <glyph glyph-name="seven" unicode="7" horiz-adv-x="1028" 
d="M399 0h-67l577 1372h-886v62h962v-41z" />
    <glyph glyph-name="eight" unicode="8" horiz-adv-x="1314" 
d="M657 1485q195 0 323 -105t128 -266q0 -128 -83.5 -222.5t-219.5 -123.5q164 -29 264 -137.5t100 -259.5q0 -184 -144.5 -303t-367.5 -119t-367.5 118.5t-144.5 301.5q0 152 100 260.5t263 138.5q-136 30 -218.5 123.5t-82.5 222.5q0 161 127 266t323 105zM657 737
q-196 0 -323 -104t-127 -264t127 -264.5t323 -104.5q195 0 323 104.5t128 264.5t-128 264t-323 104zM657 1423q-169 0 -279 -87t-110 -222q0 -137 110 -226t279 -89t279.5 89.5t110.5 225.5q0 135 -110.5 222t-279.5 87z" />
    <glyph glyph-name="nine" unicode="9" horiz-adv-x="1171" 
d="M965 676l-527 -676h-80l424 543q-91 -51 -207 -51q-205 0 -338 138.5t-133 352.5q0 218 133 360t338 142q214 0 353 -142t139 -360q0 -75 -29 -161.5t-73 -145.5zM1006 983q0 192 -121.5 316t-309.5 124q-178 0 -293.5 -124t-115.5 -316q0 -188 115.5 -309t293.5 -121
q188 0 309.5 121.5t121.5 308.5z" />
    <glyph glyph-name="colon" unicode=":" horiz-adv-x="331" 
d="M104 41q0 27 17 44t45 17q26 0 43.5 -17.5t17.5 -43.5t-17.5 -43.5t-43.5 -17.5q-28 0 -45 16.5t-17 44.5zM104 901q0 27 17.5 44.5t44.5 17.5q26 0 43.5 -18t17.5 -44t-17.5 -43.5t-43.5 -17.5q-28 0 -45 16.5t-17 44.5z" />
    <glyph glyph-name="semicolon" unicode=";" horiz-adv-x="348" 
d="M104 901q0 27 17.5 44.5t44.5 17.5q26 0 43.5 -18t17.5 -44t-17.5 -43.5t-43.5 -17.5q-28 0 -45 16.5t-17 44.5zM111 41q0 27 17 44t44 17q31 0 51.5 -23.5t20.5 -60.5q0 -74 -32 -142.5t-81 -100.5l-27 30q33 24 54.5 73t21.5 102q-31 0 -50 17.5t-19 43.5z" />
    <glyph glyph-name="less" unicode="&#x3c;" horiz-adv-x="970" 
d="M846 72v-72l-762 485v54l762 485v-72l-690 -440z" />
    <glyph glyph-name="equal" unicode="=" horiz-adv-x="1171" 
d="M104 424h963v-62h-963v62zM104 938h963v-61h-963v61z" />
    <glyph glyph-name="greater" unicode="&#x3e;" horiz-adv-x="970" 
d="M125 1024l762 -485v-54l-762 -485v72l690 440l-690 440v72z" />
    <glyph glyph-name="question" unicode="?" horiz-adv-x="1163" 
d="M485 41q0 27 17.5 44t44.5 17t44 -17t17 -44t-17 -44t-44 -17q-28 0 -45 16.5t-17 44.5zM578 328h-62q0 80 12.5 136t45.5 102t73.5 79.5t112.5 79.5q32 20 46 29.5t42.5 31t42 36.5t33.5 40.5t29.5 49.5t16.5 57.5t7 70.5q0 164 -111 273.5t-280 109.5t-273.5 -112.5
t-126.5 -298.5l-61 12q27 206 149.5 333.5t313.5 127.5q195 0 322.5 -128.5t127.5 -318.5q0 -59 -15.5 -110t-36 -85.5t-61.5 -71.5t-70 -58t-83 -56q-77 -48 -115.5 -86.5t-58.5 -96t-20 -146.5z" />
    <glyph glyph-name="at" unicode="@" horiz-adv-x="2054" 
d="M186 532q0 -176 58.5 -328t160.5 -260t246.5 -169.5t311.5 -61.5q71 0 148.5 21.5t125.5 54.5v-72q-56 -29 -131.5 -47t-144.5 -18q-179 0 -334.5 66t-265.5 182t-173 279.5t-63 352.5q0 190 68 355.5t186.5 283t286 185t360.5 67.5q259 0 465 -114.5t321.5 -318
t114.5 -458.5q0 -122 -16.5 -219.5t-51.5 -172t-92.5 -114.5t-134.5 -40q-221 0 -235 325q-48 -104 -146.5 -164.5t-224.5 -60.5q-187 0 -308.5 126t-121.5 320q0 197 121.5 324t310.5 127q186 0 308 -119t122 -303l2 -254q0 -128 44 -194t128 -66q63 0 109 37.5t73 105
t39.5 153t12.5 189.5q0 238 -107.5 428t-299.5 296t-433 106q-179 0 -335.5 -62.5t-267 -171.5t-174 -263.5t-63.5 -332.5zM1028 922q-164 0 -267.5 -109.5t-103.5 -282.5q0 -169 103.5 -276t267.5 -107q160 0 265.5 108t105.5 275q0 180 -101 286t-270 106z" />
    <glyph glyph-name="A" unicode="A" horiz-adv-x="1306" 
d="M694 1434l570 -1434h-66l-156 389h-780l-153 -389h-66l569 1434h82zM653 1372l-366 -921h733z" />
    <glyph glyph-name="B" unicode="B" horiz-adv-x="1314" 
d="M698 0h-512v1434h533q178 0 293.5 -101.5t115.5 -257.5q0 -122 -77 -209.5t-203 -115.5q144 -28 232.5 -126t88.5 -235q0 -169 -133.5 -279t-337.5 -110zM698 717h-450v-656h450q178 0 294 92.5t116 235.5t-116 235.5t-294 92.5zM719 1372h-471v-594h471q152 0 250 84
t98 213t-98.5 213t-249.5 84z" />
    <glyph glyph-name="C" unicode="C" horiz-adv-x="1679" 
d="M1495 467l59 -14q-45 -214 -234 -359t-437 -145q-217 0 -390.5 99t-270.5 274.5t-97 394.5q0 220 97 395.5t270.5 274t390.5 98.5q123 0 237 -41t201 -111t148 -166t83 -204l-59 -11q-45 200 -216.5 335.5t-393.5 135.5q-199 0 -358 -89.5t-249 -251t-90 -365.5
q0 -152 52.5 -283.5t144.5 -224.5t221.5 -146t278.5 -53q228 0 400 131.5t212 325.5z" />
    <glyph glyph-name="D" unicode="D" horiz-adv-x="1499" 
d="M186 0v1434h349q249 0 440 -89t295 -252t104 -376t-104 -376t-295 -252t-440 -89h-349zM1313 717q0 195 -96.5 343.5t-273.5 230t-408 81.5h-287v-1311h287q231 0 408 81.5t273.5 230.5t96.5 344z" />
    <glyph glyph-name="E" unicode="E" horiz-adv-x="1273" 
d="M248 61h921v-61h-983v1434h963v-62h-901v-594h819v-61h-819v-656z" />
    <glyph glyph-name="F" unicode="F" horiz-adv-x="1130" 
d="M924 635h-676v-635h-62v1434h861v-62h-799v-676h676v-61z" />
    <glyph glyph-name="G" unicode="G" horiz-adv-x="1744" 
d="M1559 717h-676v61h735q13 -237 -76.5 -426.5t-262 -296t-396.5 -106.5q-217 0 -390.5 99t-270.5 274.5t-97 394.5q0 220 97 395.5t270.5 274t390.5 98.5q247 0 437 -144.5t234 -365.5l-59 -12q-46 200 -219 330t-393 130q-149 1 -278.5 -52t-221.5 -145.5t-144.5 -224.5
t-52.5 -284q0 -150 52.5 -281.5t144.5 -225t221.5 -147t278.5 -53.5q194 0 348 89.5t241 251t87 366.5z" />
    <glyph glyph-name="H" unicode="H" horiz-adv-x="1413" 
d="M246 0h-62v1434h62v-656h921v656h62v-1434h-62v717h-921v-717z" />
    <glyph glyph-name="I" unicode="I" horiz-adv-x="434" 
d="M248 1434v-1434h-62v1434h62z" />
    <glyph glyph-name="J" unicode="J" horiz-adv-x="884" 
d="M637 430v1004h61v-1004q0 -228 -109 -349.5t-288 -121.5q-113 0 -238 41v63q137 -43 246 -43q149 0 238.5 104t89.5 306z" />
    <glyph glyph-name="K" unicode="K" horiz-adv-x="1107" 
d="M186 1434h62v-637l690 637h92l-735 -676l749 -758h-86l-710 717v-717h-62v1434z" />
    <glyph glyph-name="L" unicode="L" horiz-adv-x="1130" 
d="M1067 0h-881v1434h62v-1373h819v-61z" />
    <glyph glyph-name="M" unicode="M" horiz-adv-x="1826" 
d="M248 0h-62v1434h90l637 -1356l635 1356h92v-1434h-61v1354l-635 -1354h-61l-635 1350v-1350z" />
    <glyph glyph-name="N" unicode="N" horiz-adv-x="1417" 
d="M268 1434l901 -1354v1354h62v-1434h-82l-901 1352v-1352h-62v1434h82z" />
    <glyph glyph-name="O" unicode="O" horiz-adv-x="1765" 
d="M125 717q0 220 97 395.5t270.5 274t390.5 98.5q216 0 389 -98.5t270.5 -274t97.5 -395.5q0 -219 -97.5 -394.5t-270.5 -274.5t-389 -99q-217 0 -390.5 99t-270.5 274.5t-97 394.5zM186 717q0 -151 52.5 -282.5t144.5 -224.5t221.5 -146.5t278.5 -53.5q199 0 358 90.5
t248.5 252.5t89.5 364t-89.5 363.5t-248.5 252t-358 90.5t-358.5 -90.5t-249 -252t-89.5 -363.5z" />
    <glyph glyph-name="P" unicode="P" horiz-adv-x="1294" 
d="M698 573h-450v-573h-62v1434h512q214 0 353 -121.5t139 -308.5t-139 -309t-353 -122zM698 1372h-450v-737h450q187 0 308.5 104.5t121.5 264.5t-121.5 264t-308.5 104z" />
    <glyph glyph-name="Q" unicode="Q" horiz-adv-x="1765" 
d="M125 717q0 220 97 395.5t270.5 274t390.5 98.5q216 0 389 -98.5t270.5 -274t97.5 -395.5q0 -207 -86 -374.5t-239 -268.5l323 -402h-79l-297 369q-173 -92 -379 -92q-217 0 -390.5 99t-270.5 274.5t-97 394.5zM186 717q0 -151 52.5 -282.5t144.5 -224.5t221.5 -146.5
t278.5 -53.5q199 0 358 90.5t248.5 252.5t89.5 364t-89.5 363.5t-248.5 252t-358 90.5t-358.5 -90.5t-249 -252t-89.5 -363.5z" />
    <glyph glyph-name="R" unicode="R" horiz-adv-x="1396" 
d="M186 0v1434h594q221 0 356.5 -115.5t135.5 -304.5q0 -165 -105 -275.5t-284 -136.5l374 -602h-73l-369 594h-567v-594h-62zM780 1372h-532v-717h532q193 0 311.5 99t118.5 260t-118 259.5t-312 98.5z" />
    <glyph glyph-name="S" unicode="S" horiz-adv-x="1411" 
d="M711 -51q-246 0 -406 143t-160 363h62q0 -196 142.5 -320.5t363.5 -124.5q212 0 351.5 102.5t139.5 252.5q0 65 -29 115.5t-79 82.5t-116 58.5t-140 43t-152.5 36t-153 37.5t-140 48t-115 66.5t-78.5 93.5t-29 129q0 173 146.5 291.5t373.5 118.5q240 0 399.5 -133
t159.5 -336h-61q0 177 -140.5 292t-357.5 115q-200 0 -329.5 -99t-129.5 -243q0 -71 35 -124t95 -86t137 -58t162.5 -44.5t171 -39.5t163 -49.5t137.5 -68.5t95.5 -101.5t36.5 -144.5q0 -120 -71 -215.5t-198 -148t-286 -52.5z" />
    <glyph glyph-name="T" unicode="T" horiz-adv-x="1171" 
d="M555 1372h-512v62h1085v-62h-512v-1372h-61v1372z" />
    <glyph glyph-name="U" unicode="U" horiz-adv-x="1417" 
d="M1190 573v861h61v-861q0 -281 -149 -452.5t-393 -171.5q-245 0 -394 171.5t-149 452.5v861h61v-861q0 -257 131 -410t351 -153t350.5 153t130.5 410z" />
    <glyph glyph-name="V" unicode="V" horiz-adv-x="1306" 
d="M111 1434l542 -1371l543 1371h68l-570 -1434h-82l-569 1434h68z" />
    <glyph glyph-name="W" unicode="W" horiz-adv-x="1998" 
d="M1450 74l422 1360h63l-444 -1434h-82l-410 1354l-409 -1354h-82l-445 1434h64l422 -1360l409 1360h82z" />
    <glyph glyph-name="X" unicode="X" horiz-adv-x="1208" 
d="M563 758l-481 676h76l446 -627l449 627h75l-483 -676l500 -758h-74l-467 707l-467 -707h-74z" />
    <glyph glyph-name="Y" unicode="Y" horiz-adv-x="1138" 
d="M539 594l-496 840h72l454 -772l455 772h72l-496 -840v-594h-61v594z" />
    <glyph glyph-name="Z" unicode="Z" 
d="M63 41l994 1331h-973v62h1065v-41l-993 -1332h1013v-61h-1106v41z" />
    <glyph glyph-name="bracketleft" unicode="[" horiz-adv-x="884" 
d="M248 1434v-1741h553l-2 -62h-613v1864h615v-61h-553z" />
    <glyph glyph-name="backslash" unicode="\" horiz-adv-x="849" 
d="M84 1434h66l616 -1905h-64z" />
    <glyph glyph-name="bracketright" unicode="]" horiz-adv-x="884" 
d="M698 -369h-614v62h553v1741h-553v61h614v-1864z" />
    <glyph glyph-name="asciicircum" unicode="^" horiz-adv-x="1167" 
d="M160 819h-76l459 615h82l458 -615h-75l-424 567z" />
    <glyph glyph-name="underscore" unicode="_" horiz-adv-x="1024" 
d="M0 0h1024v-61h-1024v61z" />
    <glyph glyph-name="grave" unicode="`" horiz-adv-x="516" 
d="M104 1495h86l222 -225h-86z" />
    <glyph glyph-name="a" unicode="a" horiz-adv-x="1355" 
d="M1108 756v268h61v-1024h-61v268q-56 -141 -181.5 -225t-289.5 -84q-233 0 -383 155.5t-150 397.5t150 397.5t383 155.5q164 0 289.5 -84t181.5 -225zM637 20q200 0 335.5 140t135.5 352q0 211 -136 351.5t-335 140.5q-205 0 -338 -139t-133 -353t133 -353t338 -139z" />
    <glyph glyph-name="b" unicode="b" horiz-adv-x="1355" 
d="M186 1495h62v-739q55 141 180.5 225t290.5 84q232 0 382 -156t150 -397t-150 -397t-382 -156q-165 0 -290.5 84t-180.5 225v-268h-62v1495zM1190 512q0 214 -133.5 353t-337.5 139q-205 0 -338 -139t-133 -353t133 -353t338 -139q204 0 337.5 139t133.5 353z" />
    <glyph glyph-name="c" unicode="c" horiz-adv-x="1216" 
d="M1112 707l-61 -11q-35 134 -151.5 221t-262.5 87q-205 0 -338 -139t-133 -353t133 -353t338 -139q147 0 263.5 81t150.5 206l59 -12q-37 -146 -170.5 -241t-302.5 -95q-232 0 -382.5 156t-150.5 397t150.5 397t382.5 156q171 0 305.5 -101t169.5 -257z" />
    <glyph glyph-name="d" unicode="d" horiz-adv-x="1355" 
d="M1108 756v739h61v-1495h-61v268q-56 -141 -181.5 -225t-289.5 -84q-232 0 -382.5 156t-150.5 397t150.5 397t382.5 156q164 0 289.5 -84t181.5 -225zM166 512q0 -214 133 -353t338 -139q204 0 337.5 139t133.5 353t-133.5 353t-337.5 139q-205 0 -338 -139t-133 -353z
" />
    <glyph glyph-name="e" unicode="e" horiz-adv-x="1294" 
d="M657 20q148 0 273.5 83t169.5 212l61 -10q-49 -150 -192 -248t-312 -98q-241 0 -397 155.5t-156 397.5t156 397.5t397 155.5q233 0 383 -155.5t150 -397.5v-20h-1024q6 -206 143.5 -339t347.5 -133zM166 553h960q-14 199 -144.5 325t-324.5 126q-204 0 -340.5 -126.5
t-150.5 -324.5z" />
    <glyph glyph-name="f" unicode="f" horiz-adv-x="700" 
d="M637 1516v-62q-73 21 -143 21q-76 0 -120 -45.5t-44 -139.5v-266h286v-61h-286v-963h-62v963h-184v61h184v266q0 120 62 183t164 63q81 0 143 -20z" />
    <glyph glyph-name="g" unicode="g" horiz-adv-x="1355" 
d="M127 -113l61 9q19 -151 151 -249t318 -98q195 -1 323 127t128 324v260q-62 -139 -186.5 -220t-284.5 -81q-232 0 -382.5 156t-150.5 397t150.5 397t382.5 156q159 0 284 -81t187 -220v260h61v-1024q0 -223 -144.5 -367.5t-367.5 -144.5q-209 0 -358 112.5t-172 286.5z
M637 20q205 0 338 139t133 353q0 213 -134 352.5t-337 139.5q-208 0 -339.5 -138.5t-131.5 -353.5q0 -213 134.5 -352.5t336.5 -139.5z" />
    <glyph glyph-name="h" unicode="h" 
d="M647 1065q191 0 305.5 -132t114.5 -339v-594h-61v594q0 181 -99.5 295.5t-265.5 114.5q-164 0 -278.5 -111.5t-114.5 -278.5v-614h-62v1495h62v-682q48 115 155.5 183.5t243.5 68.5z" />
    <glyph glyph-name="i" unicode="i" horiz-adv-x="454" 
d="M258 1024v-1024h-61v1024h61zM166 1311q0 27 17 44t44 17q26 0 44 -17.5t18 -43.5t-18 -44t-44 -18q-27 0 -44 17.5t-17 44.5z" />
    <glyph glyph-name="j" unicode="j" horiz-adv-x="446" 
d="M188 -227v1251h62v-1249q0 -98 -60.5 -162t-152.5 -64q-58 0 -137 27v64q85 -29 135 -29q67 0 110 45.5t43 116.5zM158 1311q0 28 16.5 44.5t44.5 16.5q27 0 44.5 -17t17.5 -44q0 -26 -18 -44t-44 -18q-27 0 -44 17.5t-17 44.5z" />
    <glyph glyph-name="k" unicode="k" horiz-adv-x="1011" 
d="M186 1495h62v-926l547 455h96l-594 -492l610 -532h-92l-567 494v-494h-62v1495z" />
    <glyph glyph-name="l" unicode="l" horiz-adv-x="430" 
d="M246 1495v-1495h-62v1495h62z" />
    <glyph glyph-name="m" unicode="m" horiz-adv-x="1888" 
d="M186 0v1024h62v-168q42 98 132.5 153.5t215.5 55.5q139 0 234.5 -73.5t123.5 -198.5q29 126 130 199t249 73q175 0 282 -118.5t107 -311.5v-635h-61v635q0 166 -90 267.5t-238 101.5q-157 0 -252.5 -101.5t-95.5 -267.5v-635h-61v635q0 166 -90 267.5t-238 101.5
q-157 0 -252.5 -101.5t-95.5 -267.5v-635h-62z" />
    <glyph glyph-name="n" unicode="n" 
d="M664 1065q190 0 296.5 -130.5t106.5 -340.5v-594h-61v594q0 184 -89 297t-253 113q-168 0 -292 -112.5t-124 -277.5v-614h-62v1024h62v-205q49 112 163 179t253 67z" />
    <glyph glyph-name="o" unicode="o" horiz-adv-x="1269" 
d="M1167 512q0 -241 -150 -397t-382 -156t-382.5 156t-150.5 397t150.5 397t382.5 156t382 -156t150 -397zM1106 512q0 214 -133.5 353t-337.5 139t-337.5 -139t-133.5 -353t133.5 -353t337.5 -139t337.5 139t133.5 353z" />
    <glyph glyph-name="p" unicode="p" horiz-adv-x="1355" 
d="M248 268v-739h-62v1495h62v-268q55 141 180.5 225t290.5 84q232 0 382 -156t150 -397t-150 -397t-382 -156q-165 0 -290.5 84t-180.5 225zM1190 512q0 214 -133.5 353t-337.5 139q-205 0 -338 -139t-133 -353t133 -353t338 -139q204 0 337.5 139t133.5 353z" />
    <glyph glyph-name="q" unicode="q" horiz-adv-x="1355" 
d="M1169 -471h-61v739q-56 -141 -181.5 -225t-289.5 -84q-232 0 -382.5 156t-150.5 397t150.5 397t382.5 156q164 0 289.5 -84t181.5 -225v268h61v-1495zM166 512q0 -214 133 -353t338 -139q204 0 337.5 139t133.5 353t-133.5 353t-337.5 139q-205 0 -338 -139t-133 -353z
" />
    <glyph glyph-name="r" unicode="r" horiz-adv-x="780" 
d="M539 1065q84 0 159 -35v-69q-76 43 -157 43q-133 0 -213 -112.5t-80 -297.5v-594h-62v1024h62v-182q36 106 110.5 164.5t180.5 58.5z" />
    <glyph glyph-name="s" unicode="s" horiz-adv-x="1034" 
d="M530 -41q-186 0 -306 101.5t-120 258.5h62q0 -132 101.5 -215.5t260.5 -83.5q147 0 243.5 70.5t96.5 175.5q0 64 -40.5 107.5t-105 66.5t-142.5 40.5t-155.5 36.5t-142 46.5t-105 79t-40.5 125.5q0 127 106.5 212t266.5 85q171 0 283 -95.5t112 -242.5h-61
q0 122 -94.5 199.5t-237.5 77.5q-133 0 -223 -67t-90 -165q0 -61 40.5 -103t105 -64t142 -39t155.5 -37t142.5 -48t105 -81.5t40.5 -129.5q0 -135 -114 -223t-286 -88z" />
    <glyph glyph-name="t" unicode="t" horiz-adv-x="720" 
d="M248 205v758h-185v61h185v229h61v-229h287v-61h-287v-758q0 -82 45.5 -133.5t126.5 -51.5q63 0 135 21v-61q-61 -21 -143 -21q-101 0 -163 68t-62 178z" />
    <glyph glyph-name="u" unicode="u" 
d="M569 -41q-190 0 -296.5 130.5t-106.5 340.5v594h61v-594q0 -184 89 -297t253 -113q168 0 292 112.5t124 277.5v614h62v-1024h-62v205q-51 -112 -165 -179t-251 -67z" />
    <glyph glyph-name="v" unicode="v" horiz-adv-x="1138" 
d="M528 0l-444 1024h66l417 -969l422 969h66l-445 -1024h-82z" />
    <glyph glyph-name="w" unicode="w" horiz-adv-x="1777" 
d="M469 0l-365 1024h66l340 -956l336 956h82l340 -956l340 956h65l-364 -1024h-82l-340 954l-336 -954h-82z" />
    <glyph glyph-name="x" unicode="x" horiz-adv-x="1011" 
d="M180 0h-76l361 532l-340 492h76l305 -442l307 442h74l-340 -492l360 -532h-73l-328 483z" />
    <glyph glyph-name="y" unicode="y" horiz-adv-x="1146" 
d="M125 -430v61q65 -20 121 -20q31 0 59 10.5t51 26t47 45.5t42 58.5t41.5 75.5t40 84.5t42.5 98.5l-485 1014h70l448 -940l395 940h66l-430 -1024q-39 -93 -67 -152t-65.5 -122t-73.5 -97.5t-83 -57t-102 -22.5q-63 0 -117 21z" />
    <glyph glyph-name="z" unicode="z" horiz-adv-x="1110" 
d="M887 963h-762v61h860v-41l-782 -922h803v-61h-902v41z" />
    <glyph glyph-name="braceleft" unicode="{" horiz-adv-x="686" 
d="M500 -307h102l-2 -62h-100q-98 0 -162 69.5t-64 176.5v492q0 67 -36.5 111t-92.5 44h-20v97h20q56 0 92.5 44t36.5 113v471q0 107 64 176.5t162 69.5h102v-61h-102q-72 0 -118 -52.5t-46 -132.5v-471q0 -83 -40.5 -140t-102.5 -63l-21 -2l21 -2q62 -6 102.5 -62.5
t40.5 -139.5v-492q0 -80 46 -132t118 -52z" />
    <glyph glyph-name="bar" unicode="|" horiz-adv-x="434" 
d="M186 1495h62v-1966h-62v1966z" />
    <glyph glyph-name="braceright" unicode="}" horiz-adv-x="686" 
d="M186 -369h-102v62h102q71 0 117.5 52.5t46.5 131.5v492q0 83 40.5 139.5t103.5 62.5l20 2l-20 2q-63 6 -103.5 63t-40.5 140v471q0 80 -47 132.5t-117 52.5h-102v61h102q98 0 162 -69.5t64 -176.5v-471q0 -69 36 -113t93 -44h20v-97h-20q-57 0 -93 -43.5t-36 -111.5v-492
q0 -107 -64 -176.5t-162 -69.5z" />
    <glyph glyph-name="asciitilde" unicode="~" horiz-adv-x="1179" 
d="M336 799q56 0 117 -25.5t114 -61.5t104.5 -72t106.5 -61.5t103 -25.5q86 0 161 63l35 -51q-95 -73 -198 -73q-55 -1 -115 24t-113 61.5t-104.5 72.5t-107.5 61.5t-105 25.5q-48 0 -99.5 -22.5t-93.5 -61.5l-37 52q108 94 232 94z" />
    <glyph glyph-name="exclamdown" unicode="&#xa1;" horiz-adv-x="327" 
d="M133 -471v1065h62v-1065h-62zM225 922q0 -27 -17 -44.5t-44 -17.5t-44.5 17.5t-17.5 44.5q0 26 17 43.5t45 17.5t44.5 -16.5t16.5 -44.5z" />
    <glyph glyph-name="cent" unicode="&#xa2;" horiz-adv-x="1216" 
d="M678 -39v-166h-62v164q-224 8 -368 163t-144 390t144 390t368 163v164h62v-166q158 -12 279 -111t155 -245l-61 -11q-35 134 -151.5 221t-262.5 87q-205 0 -338 -139t-133 -353t133 -353t338 -139q147 0 263.5 81t150.5 206l59 -12q-34 -137 -154.5 -230.5t-277.5 -103.5
z" />
    <glyph glyph-name="sterling" unicode="&#xa3;" horiz-adv-x="1150" 
d="M668 1423q-119 0 -198 -95.5t-79 -242.5v-327h553v-62h-553q-3 -292 -56.5 -441.5t-150.5 -193.5h863v-61h-943v102q51 6 89.5 37.5t70 97.5t48.5 181t18 278h-205v62h205v327q0 173 95.5 286.5t240.5 113.5q150 0 255 -122t117 -310l-61 -9q-8 163 -95 271t-214 108z
" />
    <glyph glyph-name="currency" unicode="&#xa4;" horiz-adv-x="1527" 
d="M1137 903l221 223l43 -43l-223 -225q118 -140 118 -346t-118 -346l223 -225l-43 -43l-221 223q-147 -141 -373 -141q-227 0 -371 141l-223 -223l-45 41l225 227q-119 141 -119 346t119 346l-223 225l43 43l223 -223q144 141 371 141q226 0 373 -141zM1235 512
q0 206 -132.5 338.5t-338.5 132.5q-203 0 -337 -133t-134 -338q0 -204 133 -337.5t338 -133.5t338 133.5t133 337.5z" />
    <glyph glyph-name="yen" unicode="&#xa5;" horiz-adv-x="1304" 
d="M596 573l-533 861h72l516 -836l516 836h72l-532 -861h507v-61h-532v-287h532v-61h-532v-164h-61v164h-533v61h533v287h-533v61h508z" />
    <glyph glyph-name="section" unicode="&#xa7;" horiz-adv-x="1212" 
d="M594 1444q170 0 280.5 -105t110.5 -268l-59 -6q0 138 -93.5 227.5t-236.5 89.5q-146 0 -237 -77t-91 -199q0 -60 24 -104t52.5 -68t90.5 -42.5t99.5 -24.5t117.5 -16q5 -1 7 -1q45 -6 68 -9.5t64.5 -11t64 -14t56.5 -18.5t52.5 -25.5t41 -33.5t34 -43.5t19.5 -54.5t8 -67
q0 -103 -67 -170.5t-191 -87.5q103 -31 160 -94.5t57 -179.5q0 -156 -118 -257t-300 -101q-184 0 -303 104t-119 264l62 8q0 -140 98.5 -227.5t259.5 -87.5q158 0 258.5 83t100.5 214q0 51 -14.5 90t-43 64.5t-62.5 43t-80.5 28t-90.5 17t-99 12.5h-3.5t-4 0.5t-4.5 0.5
q-82 9 -125 15.5t-109 25.5t-99 45.5t-59 75t-26 114.5q0 99 69.5 168t197.5 90q-97 32 -151 96.5t-54 178.5q0 148 109 243t278 95zM569 799q-171 -6 -266.5 -66t-95.5 -160q0 -50 21 -87t47 -57t82 -35.5t90.5 -21t109.5 -14.5q11 -1 16 -2q44 -4 68 -8q177 6 271 63.5
t94 161.5q0 28 -7 52.5t-17.5 42.5t-29.5 33.5t-35 26t-43 19.5t-45.5 14t-49.5 10t-47.5 7t-48 5.5t-42.5 4.5q-13 2 -36.5 5.5t-35.5 5.5z" />
    <glyph glyph-name="dieresis" unicode="&#xa8;" horiz-adv-x="741" 
d="M166 1280q-28 0 -45 16.5t-17 44.5t17 45t45 17t44.5 -17t16.5 -45t-16.5 -44.5t-44.5 -16.5zM575 1280q-28 0 -44.5 16.5t-16.5 44.5t16.5 45t44.5 17t45 -17t17 -45t-17 -44.5t-45 -16.5z" />
    <glyph glyph-name="copyright" unicode="&#xa9;" horiz-adv-x="1806" 
d="M125 512q0 163 58.5 307t160.5 247.5t247 163.5t312 60q223 0 400.5 -100t277.5 -277.5t100 -400.5t-100 -400.5t-277.5 -277.5t-400.5 -100t-401 100t-277.5 277.5t-99.5 400.5zM186 512q0 -205 92 -369t256 -256t369 -92t369 92t256 256t92 369q0 200 -91.5 363.5
t-256.5 258.5t-369 95t-369 -95t-256.5 -258.5t-91.5 -363.5zM1372 766l-55 -18q-51 119 -162 187.5t-252 68.5q-204 0 -337.5 -139t-133.5 -353q0 -217 132 -354.5t339 -137.5q137 0 253.5 74t162.5 189l55 -25q-51 -130 -184.5 -214.5t-288.5 -84.5q-231 0 -380.5 156
t-149.5 397q0 242 150.5 397.5t383.5 155.5q159 0 291 -84.5t176 -214.5z" />
    <glyph glyph-name="guillemotleft" unicode="&#xab;" horiz-adv-x="1167" 
d="M592 1024l-428 -512l428 -512h-82l-426 512l428 512h80zM1042 1024l-428 -512l428 -512h-81l-426 512l428 512h79z" />
    <glyph glyph-name="logicalnot" unicode="&#xac;" horiz-adv-x="1284" 
d="M1098 143v488h-994v61h1055v-549h-61z" />
    <glyph glyph-name="registered" unicode="&#xae;" horiz-adv-x="1806" 
d="M125 518q0 163 58.5 307t160.5 247.5t247 163.5t312 60q223 0 400.5 -100t277.5 -277.5t100 -400.5t-100 -400.5t-277.5 -277.5t-400.5 -100t-401 100t-277.5 277.5t-99.5 400.5zM1620 518q0 200 -91.5 363.5t-256.5 258.5t-369 95t-369 -95t-256.5 -258.5t-91.5 -363.5
q0 -205 92 -369t256 -256t369 -92t369 92t256 256t92 369zM657 27h-61v1003h416q131 0 216 -84t85 -213q0 -116 -74.5 -199t-189.5 -96l254 -411h-72l-252 409h-322v-409zM1251 733q0 104 -68 170t-177 66h-349v-471h349q106 0 175.5 66.5t69.5 168.5z" />
    <glyph glyph-name="macron" unicode="&#xaf;" horiz-adv-x="770" 
d="M666 1413v-61h-562v61h562z" />
    <glyph glyph-name="degree" unicode="&#xb0;" horiz-adv-x="1030" 
d="M516 711q-186 0 -299 109t-113 288q0 180 113 289.5t299 109.5q185 0 297.5 -109.5t112.5 -289.5q0 -179 -113 -288t-297 -109zM518 1446q-158 0 -255 -93t-97 -245q0 -151 97 -243.5t255 -92.5q156 0 251 92.5t95 243.5q0 152 -94.5 245t-251.5 93z" />
    <glyph glyph-name="plusminus" unicode="&#xb1;" horiz-adv-x="1130" 
d="M104 61h922v-61h-922v61zM596 381h-61v305h-431v62h431v276h61v-276h430v-62h-430v-305z" />
    <glyph glyph-name="acute" unicode="&#xb4;" horiz-adv-x="516" 
d="M412 1495l-222 -225h-86l222 225h86z" />
    <glyph glyph-name="paragraph" unicode="&#xb6;" horiz-adv-x="1312" 
d="M1149 1372h-184v-1843h-62v1843h-287v-1843h-61v1167q-204 0 -327.5 101.5t-123.5 267.5q0 165 125 267t326 102h594v-62z" />
    <glyph glyph-name="periodcentered" unicode="&#xb7;" horiz-adv-x="331" 
d="M166 535q-28 0 -45 17.5t-17 43.5t17 43.5t45 17.5q26 0 43.5 -17.5t17.5 -43.5t-17.5 -43.5t-43.5 -17.5z" />
    <glyph glyph-name="cedilla" unicode="&#xb8;" horiz-adv-x="632" 
d="M293 -184h-72l21 188h61l-14 -127q111 0 175 -62.5t64 -162.5q0 -90 -59 -147.5t-152 -57.5q-82 0 -140 47.5t-73 124.5l60 12q12 -56 53.5 -89.5t101.5 -33.5q66 0 107 40.5t41 103.5q0 75 -47 119.5t-127 44.5z" />
    <glyph glyph-name="guillemotright" unicode="&#xbb;" horiz-adv-x="1163" 
d="M631 512l-426 -512h-82l428 512l-428 512h80zM1081 512l-426 -512h-82l428 512l-428 512h80z" />
    <glyph glyph-name="questiondown" unicode="&#xbf;" horiz-adv-x="1163" 
d="M584 655h61q0 -80 -12.5 -136t-45.5 -102t-73.5 -79.5t-112.5 -79.5q-43 -28 -64.5 -42.5t-55.5 -45.5t-51 -59.5t-30.5 -72.5t-13.5 -95q0 -164 111.5 -273.5t280.5 -109.5q168 0 272.5 112.5t126.5 298.5l61 -12q-27 -206 -149.5 -333.5t-313.5 -127.5
q-195 0 -322.5 128.5t-127.5 318.5q0 60 15 110.5t36 85t61 71.5t70 58t84 56q77 48 115 86.5t58 95.5t20 147zM678 942q0 -26 -17 -43.5t-45 -17.5q-26 0 -43.5 17.5t-17.5 43.5t17.5 44t43.5 18q28 0 45 -17t17 -45z" />
    <glyph glyph-name="Agrave" unicode="&#xc0;" horiz-adv-x="1306" 
d="M694 1434l570 -1434h-66l-156 389h-780l-153 -389h-66l569 1434h82zM653 1372l-366 -921h733zM606 1618l-180 184h86l180 -184h-86z" />
    <glyph glyph-name="Aacute" unicode="&#xc1;" horiz-adv-x="1306" 
d="M694 1434l570 -1434h-66l-156 389h-780l-153 -389h-66l569 1434h82zM653 1372l-366 -921h733zM877 1802l-181 -184h-86l181 184h86z" />
    <glyph glyph-name="Acircumflex" unicode="&#xc2;" horiz-adv-x="1306" 
d="M694 1434l570 -1434h-66l-156 389h-780l-153 -389h-66l569 1434h82zM653 1372l-366 -921h733zM500 1618h-92l202 184h82l201 -184h-92l-150 137z" />
    <glyph glyph-name="Atilde" unicode="&#xc3;" horiz-adv-x="1306" 
d="M694 1434l570 -1434h-66l-156 389h-780l-153 -389h-66l569 1434h82zM653 1372l-366 -921h733zM416 1649l-51 30q20 45 70.5 74t109.5 29q42 0 77 -16t55.5 -35.5t53 -35.5t70.5 -16q45 0 80.5 21.5t50.5 56.5l55 -26q-22 -50 -74 -81.5t-116 -31.5q-43 0 -78.5 16t-56 35
t-52 35t-65.5 16q-42 0 -76.5 -19.5t-52.5 -51.5z" />
    <glyph glyph-name="Adieresis" unicode="&#xc4;" horiz-adv-x="1306" 
d="M694 1434l570 -1434h-66l-156 389h-780l-153 -389h-66l569 1434h82zM653 1372l-366 -921h733zM446 1669q-26 0 -43.5 18t-17.5 44t17.5 43.5t43.5 17.5t44 -17.5t18 -43.5t-18 -44t-44 -18zM856 1669q-26 0 -43.5 18t-17.5 44t17.5 43.5t43.5 17.5t44 -17.5t18 -43.5
t-18 -44t-44 -18z" />
    <glyph glyph-name="Aring" unicode="&#xc5;" horiz-adv-x="1306" 
d="M694 1434l570 -1434h-66l-156 389h-780l-153 -389h-66l569 1434h82zM653 1372l-366 -921h733zM651 1538q-75 0 -124.5 49.5t-49.5 124.5t49.5 123.5t124.5 48.5t124.5 -48.5t49.5 -123.5t-50 -124.5t-124 -49.5zM651 1823q-49 0 -80.5 -31t-31.5 -78q0 -51 30.5 -83
t81.5 -32q50 0 82.5 32t32.5 83q0 48 -32 78.5t-83 30.5z" />
    <glyph glyph-name="AE" unicode="&#xc6;" horiz-adv-x="1787" 
d="M1681 61v-61h-839v328h-557l-174 -328h-68l758 1434h860v-60h-758v-616h676v-62h-676v-635h778zM842 389v989l-525 -989h525z" />
    <glyph glyph-name="Ccedilla" unicode="&#xc7;" horiz-adv-x="1679" 
d="M907 -184h-71l14 133q-156 6 -291 66t-230 161t-149.5 241t-54.5 300q0 220 97 395.5t270.5 274t390.5 98.5q123 0 237 -41t201 -111t148 -166t83 -204l-59 -11q-45 200 -216.5 335.5t-393.5 135.5q-199 0 -358 -89.5t-249 -251t-90 -365.5q0 -152 52.5 -283.5
t144.5 -224.5t221.5 -146t278.5 -53q228 0 400 131.5t212 325.5l59 -14q-43 -207 -223 -351t-420 -153l-8 -72q111 0 175.5 -62.5t64.5 -162.5q0 -90 -59 -147.5t-152 -57.5q-82 0 -140 47.5t-73 124.5l59 12q12 -56 54 -89.5t102 -33.5q66 0 106.5 40.5t40.5 103.5
q0 75 -47 119.5t-127 44.5z" />
    <glyph glyph-name="Egrave" unicode="&#xc8;" horiz-adv-x="1273" 
d="M248 61h921v-61h-983v1434h963v-62h-901v-594h819v-61h-819v-656zM633 1618l-180 184h86l180 -184h-86z" />
    <glyph glyph-name="Eacute" unicode="&#xc9;" horiz-adv-x="1273" 
d="M248 61h921v-61h-983v1434h963v-62h-901v-594h819v-61h-819v-656zM903 1802l-180 -184h-86l180 184h86z" />
    <glyph glyph-name="Ecircumflex" unicode="&#xca;" horiz-adv-x="1273" 
d="M248 61h921v-61h-983v1434h963v-62h-901v-594h819v-61h-819v-656zM526 1618h-92l203 184h82l201 -184h-93l-149 137z" />
    <glyph glyph-name="Edieresis" unicode="&#xcb;" horiz-adv-x="1273" 
d="M248 61h921v-61h-983v1434h963v-62h-901v-594h819v-61h-819v-656zM473 1669q-26 0 -43.5 18t-17.5 44t17.5 43.5t43.5 17.5t44 -17.5t18 -43.5t-18 -44t-44 -18zM883 1669q-26 0 -44 18t-18 44t18 43.5t44 17.5t43.5 -17.5t17.5 -43.5t-17.5 -44t-43.5 -18z" />
    <glyph glyph-name="Igrave" unicode="&#xcc;" horiz-adv-x="454" 
d="M258 1434v-1434h-61v1434h61zM182 1618l-180 184h86l180 -184h-86z" />
    <glyph glyph-name="Iacute" unicode="&#xcd;" horiz-adv-x="454" 
d="M258 1434v-1434h-61v1434h61zM453 1802l-181 -184h-86l181 184h86z" />
    <glyph glyph-name="Icircumflex" unicode="&#xce;" horiz-adv-x="407" 
d="M236 1434v-1434h-62v1434h62zM53 1618h-92l203 184h82l200 -184h-92l-149 137z" />
    <glyph glyph-name="Idieresis" unicode="&#xcf;" horiz-adv-x="434" 
d="M248 1434v-1434h-62v1434h62zM12 1669q-26 0 -43.5 18t-17.5 44t17.5 43.5t43.5 17.5t44 -17.5t18 -43.5t-18 -44t-44 -18zM422 1669q-26 0 -44 18t-18 44t18 43.5t44 17.5t43.5 -17.5t17.5 -43.5t-17.5 -44t-43.5 -18z" />
    <glyph glyph-name="Ntilde" unicode="&#xd1;" horiz-adv-x="1417" 
d="M268 1434l901 -1354v1354h62v-1434h-82l-901 1352v-1352h-62v1434h82zM463 1649l-51 30q20 45 70.5 74t109.5 29q42 0 77 -16t55.5 -35.5t53 -35.5t70.5 -16q45 0 80.5 21.5t50.5 56.5l55 -26q-22 -50 -74 -81.5t-116 -31.5q-43 0 -78.5 16t-56 35t-52 35t-65.5 16
q-42 0 -76.5 -19.5t-52.5 -51.5z" />
    <glyph glyph-name="Ograve" unicode="&#xd2;" horiz-adv-x="1765" 
d="M125 717q0 220 97 395.5t270.5 274t390.5 98.5q216 0 389 -98.5t270.5 -274t97.5 -395.5q0 -219 -97.5 -394.5t-270.5 -274.5t-389 -99q-217 0 -390.5 99t-270.5 274.5t-97 394.5zM186 717q0 -151 52.5 -282.5t144.5 -224.5t221.5 -146.5t278.5 -53.5q199 0 358 90.5
t248.5 252.5t89.5 364t-89.5 363.5t-248.5 252t-358 90.5t-358.5 -90.5t-249 -252t-89.5 -363.5zM838 1618l-181 184h86l181 -184h-86z" />
    <glyph glyph-name="Oacute" unicode="&#xd3;" horiz-adv-x="1765" 
d="M125 717q0 220 97 395.5t270.5 274t390.5 98.5q216 0 389 -98.5t270.5 -274t97.5 -395.5q0 -219 -97.5 -394.5t-270.5 -274.5t-389 -99q-217 0 -390.5 99t-270.5 274.5t-97 394.5zM186 717q0 -151 52.5 -282.5t144.5 -224.5t221.5 -146.5t278.5 -53.5q199 0 358 90.5
t248.5 252.5t89.5 364t-89.5 363.5t-248.5 252t-358 90.5t-358.5 -90.5t-249 -252t-89.5 -363.5zM1108 1802l-180 -184h-86l180 184h86z" />
    <glyph glyph-name="Ocircumflex" unicode="&#xd4;" horiz-adv-x="1765" 
d="M125 717q0 220 97 395.5t270.5 274t390.5 98.5q216 0 389 -98.5t270.5 -274t97.5 -395.5q0 -219 -97.5 -394.5t-270.5 -274.5t-389 -99q-217 0 -390.5 99t-270.5 274.5t-97 394.5zM186 717q0 -151 52.5 -282.5t144.5 -224.5t221.5 -146.5t278.5 -53.5q199 0 358 90.5
t248.5 252.5t89.5 364t-89.5 363.5t-248.5 252t-358 90.5t-358.5 -90.5t-249 -252t-89.5 -363.5zM731 1659h-92l203 184h82l200 -184h-92l-149 137z" />
    <glyph glyph-name="Otilde" unicode="&#xd5;" horiz-adv-x="1765" 
d="M125 717q0 220 97 395.5t270.5 274t390.5 98.5q216 0 389 -98.5t270.5 -274t97.5 -395.5q0 -219 -97.5 -394.5t-270.5 -274.5t-389 -99q-217 0 -390.5 99t-270.5 274.5t-97 394.5zM186 717q0 -151 52.5 -282.5t144.5 -224.5t221.5 -146.5t278.5 -53.5q199 0 358 90.5
t248.5 252.5t89.5 364t-89.5 363.5t-248.5 252t-358 90.5t-358.5 -90.5t-249 -252t-89.5 -363.5zM627 1649l-52 30q20 45 71 74t110 29q42 0 77 -16t55.5 -35.5t53 -35.5t70.5 -16q45 0 80.5 21.5t50.5 56.5l55 -26q-22 -50 -74 -81.5t-116 -31.5q-43 0 -78.5 16t-56 35
t-52 35t-65.5 16q-42 0 -76.5 -19.5t-52.5 -51.5z" />
    <glyph glyph-name="Odieresis" unicode="&#xd6;" horiz-adv-x="1765" 
d="M125 717q0 220 97 395.5t270.5 274t390.5 98.5q216 0 389 -98.5t270.5 -274t97.5 -395.5q0 -219 -97.5 -394.5t-270.5 -274.5t-389 -99q-217 0 -390.5 99t-270.5 274.5t-97 394.5zM186 717q0 -151 52.5 -282.5t144.5 -224.5t221.5 -146.5t278.5 -53.5q199 0 358 90.5
t248.5 252.5t89.5 364t-89.5 363.5t-248.5 252t-358 90.5t-358.5 -90.5t-249 -252t-89.5 -363.5zM678 1669q-26 0 -44 18t-18 44t18 43.5t44 17.5t43.5 -17.5t17.5 -43.5t-17.5 -44t-43.5 -18zM1087 1669q-26 0 -43.5 18t-17.5 44t17.5 43.5t43.5 17.5t44 -17.5t18 -43.5
t-18 -44t-44 -18z" />
    <glyph glyph-name="multiply" unicode="&#xd7;" horiz-adv-x="747" 
d="M147 328l-43 41l228 245l-228 246l43 41l226 -242l225 242l47 -41l-229 -246l227 -245l-45 -41l-225 241z" />
    <glyph glyph-name="Oslash" unicode="&#xd8;" horiz-adv-x="1724" 
d="M1206 1405l180 356h70l-196 -387q159 -100 249 -271.5t90 -385.5q0 -219 -94.5 -394.5t-263 -274.5t-379.5 -99q-159 0 -295 57l-147 -293h-72l162 320q-179 93 -282 273t-103 411q0 220 94.5 395.5t263 274t379.5 98.5q184 0 344 -80zM186 717q0 -211 94.5 -376
t258.5 -253l639 1262q-143 73 -316 73q-194 0 -348.5 -90.5t-241 -252t-86.5 -363.5zM1538 717q0 195 -82 352.5t-225 249.5l-635 -1258q124 -51 266 -51q145 0 270.5 53t214.5 145.5t140 224.5t51 284z" />
    <glyph glyph-name="Ugrave" unicode="&#xd9;" horiz-adv-x="1417" 
d="M1190 573v861h61v-861q0 -281 -149 -452.5t-393 -171.5q-245 0 -394 171.5t-149 452.5v861h61v-861q0 -257 131 -410t351 -153t350.5 153t130.5 410zM684 1618l-180 184h86l180 -184h-86z" />
    <glyph glyph-name="Uacute" unicode="&#xda;" horiz-adv-x="1417" 
d="M1190 573v861h61v-861q0 -281 -149 -452.5t-393 -171.5q-245 0 -394 171.5t-149 452.5v861h61v-861q0 -257 131 -410t351 -153t350.5 153t130.5 410zM913 1802l-180 -184h-86l180 184h86z" />
    <glyph glyph-name="Ucircumflex" unicode="&#xdb;" horiz-adv-x="1417" 
d="M1190 573v861h61v-861q0 -281 -149 -452.5t-393 -171.5q-245 0 -394 171.5t-149 452.5v861h61v-861q0 -257 131 -410t351 -153t350.5 153t130.5 410zM557 1659h-92l203 184h82l200 -184h-92l-149 137z" />
    <glyph glyph-name="Udieresis" unicode="&#xdc;" horiz-adv-x="1417" 
d="M1190 573v861h61v-861q0 -281 -149 -452.5t-393 -171.5q-245 0 -394 171.5t-149 452.5v861h61v-861q0 -257 131 -410t351 -153t350.5 153t130.5 410zM504 1669q-26 0 -44 18t-18 44t18 43.5t44 17.5t43.5 -17.5t17.5 -43.5t-17.5 -44t-43.5 -18zM913 1669q-26 0 -43.5 18
t-17.5 44t17.5 43.5t43.5 17.5t44 -17.5t18 -43.5t-18 -44t-44 -18z" />
    <glyph glyph-name="Yacute" unicode="&#xdd;" horiz-adv-x="1138" 
d="M539 594l-496 840h72l454 -772l455 772h72l-496 -840v-594h-61v594zM774 1802l-180 -184h-86l180 184h86z" />
    <glyph glyph-name="germandbls" unicode="&#xdf;" horiz-adv-x="1294" 
d="M227 983v-983h-61v983q0 209 129.5 345t327.5 136q172 0 287.5 -108t115.5 -262q0 -134 -86.5 -216t-239.5 -108q207 -27 328 -134.5t121 -285.5q0 -174 -114.5 -287.5t-289.5 -113.5q-89 0 -171 28t-138 72l35 49q117 -88 272 -88q152 0 248 95t96 247q-1 118 -70 206
t-188 133.5t-272 45.5h-63v62h69q177 0 289.5 80t112.5 213q0 129 -97.5 220t-244.5 91q-172 0 -284 -118.5t-112 -301.5z" />
    <glyph glyph-name="agrave" unicode="&#xe0;" horiz-adv-x="1355" 
d="M1108 756v268h61v-1024h-61v268q-56 -141 -181.5 -225t-289.5 -84q-233 0 -383 155.5t-150 397.5t150 397.5t383 155.5q164 0 289.5 -84t181.5 -225zM637 20q200 0 335.5 140t135.5 352q0 211 -136 351.5t-335 140.5q-205 0 -338 -139t-133 -353t133 -353t338 -139z
M391 1475h86l221 -226h-86z" />
    <glyph glyph-name="aacute" unicode="&#xe1;" horiz-adv-x="1355" 
d="M1108 756v268h61v-1024h-61v268q-56 -141 -181.5 -225t-289.5 -84q-233 0 -383 155.5t-150 397.5t150 397.5t383 155.5q164 0 289.5 -84t181.5 -225zM637 20q200 0 335.5 140t135.5 352q0 211 -136 351.5t-335 140.5q-205 0 -338 -139t-133 -353t133 -353t338 -139z
M797 1475h86l-221 -226h-87z" />
    <glyph glyph-name="acircumflex" unicode="&#xe2;" horiz-adv-x="1355" 
d="M1108 756v268h61v-1024h-61v268q-56 -141 -181.5 -225t-289.5 -84q-233 0 -383 155.5t-150 397.5t150 397.5t383 155.5q164 0 289.5 -84t181.5 -225zM637 20q200 0 335.5 140t135.5 352q0 211 -136 351.5t-335 140.5q-205 0 -338 -139t-133 -353t133 -353t338 -139z
M481 1249h-80l195 226h82l194 -226h-79l-156 178z" />
    <glyph glyph-name="atilde" unicode="&#xe3;" horiz-adv-x="1355" 
d="M1108 756v268h61v-1024h-61v268q-56 -141 -181.5 -225t-289.5 -84q-233 0 -383 155.5t-150 397.5t150 397.5t383 155.5q164 0 289.5 -84t181.5 -225zM637 20q200 0 335.5 140t135.5 352q0 211 -136 351.5t-335 140.5q-205 0 -338 -139t-133 -353t133 -353t338 -139z
M422 1286l-51 33q22 44 69 73t97 29q40 0 79 -19t65.5 -42.5t61 -42.5t66.5 -19q41 0 77.5 22t51.5 56l55 -26q-22 -49 -72.5 -81t-107.5 -32q-35 0 -66.5 12.5t-55.5 30.5t-47 36.5t-49.5 31t-53.5 12.5q-37 0 -69 -20.5t-50 -53.5z" />
    <glyph glyph-name="adieresis" unicode="&#xe4;" horiz-adv-x="1355" 
d="M1108 756v268h61v-1024h-61v268q-56 -141 -181.5 -225t-289.5 -84q-233 0 -383 155.5t-150 397.5t150 397.5t383 155.5q164 0 289.5 -84t181.5 -225zM637 20q200 0 335.5 140t135.5 352q0 211 -136 351.5t-335 140.5q-205 0 -338 -139t-133 -353t133 -353t338 -139z
M432 1249q-28 0 -44.5 17t-16.5 45t16.5 44.5t44.5 16.5t45 -16.5t17 -44.5t-17 -45t-45 -17zM842 1249q-28 0 -45 17t-17 45t17 44.5t45 16.5t44.5 -16.5t16.5 -44.5t-16.5 -45t-44.5 -17z" />
    <glyph glyph-name="aring" unicode="&#xe5;" horiz-adv-x="1355" 
d="M1108 756v268h61v-1024h-61v268q-56 -141 -181.5 -225t-289.5 -84q-233 0 -383 155.5t-150 397.5t150 397.5t383 155.5q164 0 289.5 -84t181.5 -225zM637 20q200 0 335.5 140t135.5 352q0 211 -136 351.5t-335 140.5q-205 0 -338 -139t-133 -353t133 -353t338 -139z
M657 1188q-103 0 -170 66t-67 169t67 169.5t170 66.5q101 0 167.5 -66.5t66.5 -169.5t-66.5 -169t-167.5 -66zM655 1597q-75 0 -124.5 -49.5t-49.5 -124.5t49.5 -124.5t124.5 -49.5t124.5 49.5t49.5 124.5t-49.5 124.5t-124.5 49.5z" />
    <glyph glyph-name="ae" unicode="&#xe6;" horiz-adv-x="2256" 
d="M2152 532q0 -8 -1 -28.5t-1 -32.5h-979q19 -202 142 -326.5t309 -124.5q152 0 275 81.5t167 211.5l56 -18q-41 -146 -182.5 -241t-315.5 -95q-156 0 -276 79t-177 220v-258h-61v260q-62 -139 -187 -220t-284 -81q-232 0 -382.5 156t-150.5 397t150.5 397t382.5 156
q159 0 284 -81t187 -220v260h61v-246q62 131 183.5 209t267.5 78q232 0 382 -150.5t150 -382.5zM166 512q0 -212 133.5 -351t337.5 -141q204 0 337.5 139t133.5 353t-133.5 353t-337.5 139q-205 0 -338 -139t-133 -353zM1169 532h922q0 203 -135.5 337.5t-335.5 134.5
q-194 0 -322.5 -136.5t-128.5 -335.5z" />
    <glyph glyph-name="ccedilla" unicode="&#xe7;" horiz-adv-x="1216" 
d="M662 -184h-72l14 143q-219 12 -359.5 167t-140.5 386q0 241 150.5 397t382.5 156q171 0 305.5 -101t169.5 -257l-61 -11q-35 134 -151.5 221t-262.5 87q-205 0 -338 -139t-133 -353t133 -353t338 -139q147 0 263.5 81t150.5 206l59 -12q-34 -139 -158 -233t-286 -103
l-9 -82q111 0 175.5 -62.5t64.5 -162.5q0 -90 -59 -147.5t-152 -57.5q-82 0 -140 47.5t-73 124.5l59 12q12 -56 54 -89.5t102 -33.5q66 0 107 40.5t41 103.5q0 75 -47 119.5t-127 44.5z" />
    <glyph glyph-name="egrave" unicode="&#xe8;" horiz-adv-x="1294" 
d="M657 20q148 0 273.5 83t169.5 212l61 -10q-49 -150 -192 -248t-312 -98q-241 0 -397 155.5t-156 397.5t156 397.5t397 155.5q233 0 383 -155.5t150 -397.5v-20h-1024q6 -206 143.5 -339t347.5 -133zM166 553h960q-14 199 -144.5 325t-324.5 126q-204 0 -340.5 -126.5
t-150.5 -324.5zM412 1475h86l221 -226h-86z" />
    <glyph glyph-name="eacute" unicode="&#xe9;" horiz-adv-x="1294" 
d="M657 20q148 0 273.5 83t169.5 212l61 -10q-49 -150 -192 -248t-312 -98q-241 0 -397 155.5t-156 397.5t156 397.5t397 155.5q233 0 383 -155.5t150 -397.5v-20h-1024q6 -206 143.5 -339t347.5 -133zM166 553h960q-14 199 -144.5 325t-324.5 126q-204 0 -340.5 -126.5
t-150.5 -324.5zM817 1475h86l-221 -226h-86z" />
    <glyph glyph-name="ecircumflex" unicode="&#xea;" horiz-adv-x="1294" 
d="M657 20q148 0 273.5 83t169.5 212l61 -10q-49 -150 -192 -248t-312 -98q-241 0 -397 155.5t-156 397.5t156 397.5t397 155.5q233 0 383 -155.5t150 -397.5v-20h-1024q6 -206 143.5 -339t347.5 -133zM166 553h960q-14 199 -144.5 325t-324.5 126q-204 0 -340.5 -126.5
t-150.5 -324.5zM502 1249h-80l194 226h82l195 -226h-80l-156 178z" />
    <glyph glyph-name="edieresis" unicode="&#xeb;" horiz-adv-x="1294" 
d="M657 20q148 0 273.5 83t169.5 212l61 -10q-49 -150 -192 -248t-312 -98q-241 0 -397 155.5t-156 397.5t156 397.5t397 155.5q233 0 383 -155.5t150 -397.5v-20h-1024q6 -206 143.5 -339t347.5 -133zM166 553h960q-14 199 -144.5 325t-324.5 126q-204 0 -340.5 -126.5
t-150.5 -324.5zM453 1249q-28 0 -45 17t-17 45t17 44.5t45 16.5t44.5 -16.5t16.5 -44.5t-16.5 -45t-44.5 -17zM862 1249q-28 0 -44.5 17t-16.5 45t16.5 44.5t44.5 16.5t45 -16.5t17 -44.5t-17 -45t-45 -17z" />
    <glyph glyph-name="igrave" unicode="&#xec;" horiz-adv-x="444" 
d="M246 1024v-1024h-62v1024h62zM-29 1475h86l222 -226h-86z" />
    <glyph glyph-name="iacute" unicode="&#xed;" horiz-adv-x="444" 
d="M258 1024v-1024h-61v1024h61zM387 1475h86l-221 -226h-86z" />
    <glyph glyph-name="icircumflex" unicode="&#xee;" horiz-adv-x="352" 
d="M207 1024v-1024h-62v1024h62zM20 1249h-79l194 226h82l195 -226h-80l-156 178z" />
    <glyph glyph-name="idieresis" unicode="&#xef;" horiz-adv-x="352" 
d="M207 1024v-1024h-62v1024h62zM-29 1249q-28 0 -44.5 17t-16.5 45t16.5 44.5t44.5 16.5t45 -16.5t17 -44.5t-17 -45t-45 -17zM381 1249q-28 0 -45 17t-17 45t17 44.5t45 16.5t44.5 -16.5t16.5 -44.5t-16.5 -45t-44.5 -17z" />
    <glyph glyph-name="ntilde" unicode="&#xf1;" 
d="M664 1065q190 0 296.5 -130.5t106.5 -340.5v-594h-61v594q0 184 -89 297t-253 113q-168 0 -292 -112.5t-124 -277.5v-614h-62v1024h62v-205q49 112 163 179t253 67zM346 1286l-51 33q23 45 70 73.5t98 28.5q33 0 64 -12.5t55.5 -30.5t47.5 -36.5t50 -31t53 -12.5
q41 0 77.5 22t51.5 56l56 -26q-20 -49 -71 -81t-110 -32q-35 0 -66.5 12.5t-55.5 30.5t-47 36.5t-49.5 31t-53.5 12.5q-36 0 -68.5 -20.5t-50.5 -53.5z" />
    <glyph glyph-name="ograve" unicode="&#xf2;" horiz-adv-x="1273" 
d="M1169 512q0 -241 -150 -397t-382 -156t-382.5 156t-150.5 397t150.5 397t382.5 156t382 -156t150 -397zM1108 512q0 214 -133.5 353t-337.5 139q-205 0 -338 -139t-133 -353t133 -353t338 -139q204 0 337.5 139t133.5 353zM391 1475h86l221 -226h-86z" />
    <glyph glyph-name="oacute" unicode="&#xf3;" horiz-adv-x="1273" 
d="M1169 512q0 -241 -150 -397t-382 -156t-382.5 156t-150.5 397t150.5 397t382.5 156t382 -156t150 -397zM1108 512q0 214 -133.5 353t-337.5 139q-205 0 -338 -139t-133 -353t133 -353t338 -139q204 0 337.5 139t133.5 353zM797 1475h86l-221 -226h-87z" />
    <glyph glyph-name="ocircumflex" unicode="&#xf4;" horiz-adv-x="1273" 
d="M1169 512q0 -241 -150 -397t-382 -156t-382.5 156t-150.5 397t150.5 397t382.5 156t382 -156t150 -397zM1108 512q0 214 -133.5 353t-337.5 139q-205 0 -338 -139t-133 -353t133 -353t338 -139q204 0 337.5 139t133.5 353zM481 1249h-80l195 226h82l194 -226h-79
l-156 178z" />
    <glyph glyph-name="otilde" unicode="&#xf5;" horiz-adv-x="1273" 
d="M1169 512q0 -241 -150 -397t-382 -156t-382.5 156t-150.5 397t150.5 397t382.5 156t382 -156t150 -397zM1108 512q0 214 -133.5 353t-337.5 139q-205 0 -338 -139t-133 -353t133 -353t338 -139q204 0 337.5 139t133.5 353zM401 1286l-51 33q22 44 69 73t97 29
q40 0 79 -19t65.5 -42.5t61 -42.5t66.5 -19q41 0 78 22t52 56l55 -26q-22 -49 -72.5 -81t-107.5 -32q-35 0 -66.5 12.5t-56 30.5t-47.5 36.5t-49.5 31t-53.5 12.5q-37 0 -69 -20.5t-50 -53.5z" />
    <glyph glyph-name="odieresis" unicode="&#xf6;" horiz-adv-x="1273" 
d="M1169 512q0 -241 -150 -397t-382 -156t-382.5 156t-150.5 397t150.5 397t382.5 156t382 -156t150 -397zM1108 512q0 214 -133.5 353t-337.5 139q-205 0 -338 -139t-133 -353t133 -353t338 -139q204 0 337.5 139t133.5 353zM432 1249q-28 0 -44.5 17t-16.5 45t16.5 44.5
t44.5 16.5t45 -16.5t17 -44.5t-17 -45t-45 -17zM842 1249q-28 0 -45 17t-17 45t17 44.5t45 16.5t44.5 -16.5t16.5 -44.5t-16.5 -45t-44.5 -17z" />
    <glyph glyph-name="divide" unicode="&#xf7;" horiz-adv-x="1130" 
d="M565 41q-28 0 -44.5 16.5t-16.5 44.5t16.5 45t44.5 17t45 -17t17 -45t-17 -44.5t-45 -16.5zM104 553h922v-61h-922v61zM565 840q-28 0 -44.5 16.5t-16.5 44.5t16.5 45t44.5 17t45 -17t17 -45t-17 -44.5t-45 -16.5z" />
    <glyph glyph-name="oslash" unicode="&#xf8;" horiz-adv-x="1273" 
d="M885 1008l112 221h70l-129 -252q109 -73 170 -194.5t61 -270.5q0 -241 -150 -397t-382 -156q-106 0 -199 35l-80 -158h-69l92 184q-129 67 -203 196.5t-74 295.5q0 241 150.5 397t382.5 156q134 0 248 -57zM166 512q0 -146 65 -260.5t179 -175.5l446 876q-99 52 -219 52
q-205 0 -338 -139t-133 -353zM1108 512q0 130 -52.5 236.5t-146.5 171.5l-442 -871q82 -29 170 -29q204 0 337.5 139t133.5 353z" />
    <glyph glyph-name="ugrave" unicode="&#xf9;" 
d="M569 -41q-190 0 -296.5 130.5t-106.5 340.5v594h61v-594q0 -184 89 -297t253 -113q168 0 292 112.5t124 277.5v614h62v-1024h-62v205q-51 -112 -165 -179t-251 -67zM381 1475h86l221 -226h-86z" />
    <glyph glyph-name="uacute" unicode="&#xfa;" 
d="M569 -41q-190 0 -296.5 130.5t-106.5 340.5v594h61v-594q0 -184 89 -297t253 -113q168 0 292 112.5t124 277.5v614h62v-1024h-62v205q-51 -112 -165 -179t-251 -67zM745 1475h86l-221 -226h-86z" />
    <glyph glyph-name="ucircumflex" unicode="&#xfb;" 
d="M569 -41q-190 0 -296.5 130.5t-106.5 340.5v594h61v-594q0 -184 89 -297t253 -113q168 0 292 112.5t124 277.5v614h62v-1024h-62v205q-51 -112 -165 -179t-251 -67zM451 1249h-80l194 226h82l195 -226h-80l-156 178z" />
    <glyph glyph-name="udieresis" unicode="&#xfc;" 
d="M569 -41q-190 0 -296.5 130.5t-106.5 340.5v594h61v-594q0 -184 89 -297t253 -113q168 0 292 112.5t124 277.5v614h62v-1024h-62v205q-51 -112 -165 -179t-251 -67zM401 1249q-28 0 -44.5 17t-16.5 45t16.5 44.5t44.5 16.5t45 -16.5t17 -44.5t-17 -45t-45 -17zM811 1249
q-28 0 -44.5 17t-16.5 45t16.5 44.5t44.5 16.5t44.5 -16.5t16.5 -44.5t-16.5 -45t-44.5 -17z" />
    <glyph glyph-name="yacute" unicode="&#xfd;" horiz-adv-x="1146" 
d="M125 -430v61q65 -20 121 -20q31 0 59 10.5t51 26t47 45.5t42 58.5t41.5 75.5t40 84.5t42.5 98.5l-485 1014h70l448 -940l395 940h66l-430 -1024q-39 -93 -67 -152t-65.5 -122t-73.5 -97.5t-83 -57t-102 -22.5q-63 0 -117 21zM715 1475h86l-221 -226h-86z" />
    <glyph glyph-name="ydieresis" unicode="&#xff;" horiz-adv-x="1146" 
d="M125 -430v61q65 -20 121 -20q31 0 59 10.5t51 26t47 45.5t42 58.5t41.5 75.5t40 84.5t42.5 98.5l-485 1014h70l448 -940l395 940h66l-430 -1024q-39 -93 -67 -152t-65.5 -122t-73.5 -97.5t-83 -57t-102 -22.5q-63 0 -117 21zM371 1249q-28 0 -45 17t-17 45t17 44.5
t45 16.5t44.5 -16.5t16.5 -44.5t-16.5 -45t-44.5 -17zM780 1249q-28 0 -44.5 17t-16.5 45t16.5 44.5t44.5 16.5t45 -16.5t17 -44.5t-17 -45t-45 -17z" />
    <glyph glyph-name="Amacron" unicode="&#x100;" horiz-adv-x="1306" 
d="M694 1434l570 -1434h-66l-156 389h-780l-153 -389h-66l569 1434h82zM653 1372l-366 -921h733zM932 1761v-61h-561v61h561z" />
    <glyph glyph-name="amacron" unicode="&#x101;" horiz-adv-x="1355" 
d="M1108 756v268h61v-1024h-61v268q-56 -141 -181.5 -225t-289.5 -84q-233 0 -383 155.5t-150 397.5t150 397.5t383 155.5q164 0 289.5 -84t181.5 -225zM637 20q200 0 335.5 140t135.5 352q0 211 -136 351.5t-335 140.5q-205 0 -338 -139t-133 -353t133 -353t338 -139z
M918 1331v-61h-562v61h562z" />
    <glyph glyph-name="Abreve" unicode="&#x102;" horiz-adv-x="1306" 
d="M694 1434l570 -1434h-66l-156 389h-780l-153 -389h-66l569 1434h82zM653 1372l-366 -921h733zM815 1843h59q1 -89 -62 -147t-161 -58t-161.5 58t-63.5 147h61q0 -63 46.5 -103t117.5 -40t117.5 40t46.5 103z" />
    <glyph glyph-name="abreve" unicode="&#x103;" horiz-adv-x="1355" 
d="M1108 756v268h61v-1024h-61v268q-56 -141 -181.5 -225t-289.5 -84q-233 0 -383 155.5t-150 397.5t150 397.5t383 155.5q164 0 289.5 -84t181.5 -225zM637 20q200 0 335.5 140t135.5 352q0 211 -136 351.5t-335 140.5q-205 0 -338 -139t-133 -353t133 -353t338 -139z
M860 1475h62q1 -107 -68.5 -176.5t-177.5 -69.5q-106 0 -175 69.5t-71 176.5h62q2 -80 53.5 -132.5t130.5 -52.5q81 0 133.5 52.5t50.5 132.5z" />
    <glyph glyph-name="Aogonek" unicode="&#x104;" horiz-adv-x="1402" 
d="M1180 45l-138 344h-780l-153 -389h-66l569 1434h82l570 -1434h-66q-87 -27 -143 -94.5t-56 -151.5q0 -114 102 -189t259 -75v-61q-184 0 -304 91.5t-118 229.5q0 103 68.5 186t173.5 109zM653 1372l-366 -921h733z" />
    <glyph glyph-name="aogonek" unicode="&#x105;" horiz-adv-x="1480" 
d="M1108 41v227q-56 -141 -181.5 -225t-289.5 -84q-233 0 -383 155.5t-150 397.5t150 397.5t383 155.5q164 0 289.5 -84t181.5 -225v268h61v-1024h-30q-90 -26 -147 -95t-58 -153q0 -114 102 -189t260 -75v-61q-184 0 -304 91.5t-120 229.5q1 102 67 183.5t169 109.5z
M637 20q200 0 335.5 140t135.5 352q0 211 -136 351.5t-335 140.5q-205 0 -338 -139t-133 -353t133 -353t338 -139z" />
    <glyph glyph-name="Cacute" unicode="&#x106;" horiz-adv-x="1679" 
d="M1495 467l59 -14q-45 -214 -234 -359t-437 -145q-217 0 -390.5 99t-270.5 274.5t-97 394.5q0 220 97 395.5t270.5 274t390.5 98.5q123 0 237 -41t201 -111t148 -166t83 -204l-59 -11q-45 200 -216.5 335.5t-393.5 135.5q-199 0 -358 -89.5t-249 -251t-90 -365.5
q0 -152 52.5 -283.5t144.5 -224.5t221.5 -146t278.5 -53q228 0 400 131.5t212 325.5zM1087 1843l-180 -184h-86l180 184h86z" />
    <glyph glyph-name="cacute" unicode="&#x107;" horiz-adv-x="1216" 
d="M1112 707l-61 -11q-35 134 -151.5 221t-262.5 87q-205 0 -338 -139t-133 -353t133 -353t338 -139q147 0 263.5 81t150.5 206l59 -12q-37 -146 -170.5 -241t-302.5 -95q-232 0 -382.5 156t-150.5 397t150.5 397t382.5 156q171 0 305.5 -101t169.5 -257zM797 1475h86
l-221 -226h-87z" />
    <glyph glyph-name="Ccircumflex" unicode="&#x108;" horiz-adv-x="1679" 
d="M1495 467l59 -14q-45 -214 -234 -359t-437 -145q-217 0 -390.5 99t-270.5 274.5t-97 394.5q0 220 97 395.5t270.5 274t390.5 98.5q123 0 237 -41t201 -111t148 -166t83 -204l-59 -11q-45 200 -216.5 335.5t-393.5 135.5q-199 0 -358 -89.5t-249 -251t-90 -365.5
q0 -152 52.5 -283.5t144.5 -224.5t221.5 -146t278.5 -53q228 0 400 131.5t212 325.5zM731 1659h-92l203 184h82l200 -184h-92l-149 137z" />
    <glyph glyph-name="ccircumflex" unicode="&#x109;" horiz-adv-x="1216" 
d="M1112 707l-61 -11q-35 134 -151.5 221t-262.5 87q-205 0 -338 -139t-133 -353t133 -353t338 -139q147 0 263.5 81t150.5 206l59 -12q-37 -146 -170.5 -241t-302.5 -95q-232 0 -382.5 156t-150.5 397t150.5 397t382.5 156q171 0 305.5 -101t169.5 -257zM481 1249h-80
l195 226h82l194 -226h-79l-156 178z" />
    <glyph glyph-name="Cdotaccent" unicode="&#x10a;" horiz-adv-x="1679" 
d="M1495 467l59 -14q-45 -214 -234 -359t-437 -145q-217 0 -390.5 99t-270.5 274.5t-97 394.5q0 220 97 395.5t270.5 274t390.5 98.5q123 0 237 -41t201 -111t148 -166t83 -204l-59 -11q-45 200 -216.5 335.5t-393.5 135.5q-199 0 -358 -89.5t-249 -251t-90 -365.5
q0 -152 52.5 -283.5t144.5 -224.5t221.5 -146t278.5 -53q228 0 400 131.5t212 325.5zM883 1673q-27 0 -44.5 17.5t-17.5 44.5q0 28 17 44.5t45 16.5q27 0 44 -17t17 -44q0 -26 -17.5 -44t-43.5 -18z" />
    <glyph glyph-name="cdotaccent" unicode="&#x10b;" horiz-adv-x="1216" 
d="M1112 707l-61 -11q-35 134 -151.5 221t-262.5 87q-205 0 -338 -139t-133 -353t133 -353t338 -139q147 0 263.5 81t150.5 206l59 -12q-37 -146 -170.5 -241t-302.5 -95q-232 0 -382.5 156t-150.5 397t150.5 397t382.5 156q171 0 305.5 -101t169.5 -257zM639 1249
q-27 0 -44 17.5t-17 44.5q0 28 16.5 44.5t44.5 16.5q27 0 44 -17t17 -44q0 -26 -17.5 -44t-43.5 -18z" />
    <glyph glyph-name="Ccaron" unicode="&#x10c;" horiz-adv-x="1679" 
d="M1495 467l59 -14q-45 -214 -234 -359t-437 -145q-217 0 -390.5 99t-270.5 274.5t-97 394.5q0 220 97 395.5t270.5 274t390.5 98.5q123 0 237 -41t201 -111t148 -166t83 -204l-59 -11q-45 200 -216.5 335.5t-393.5 135.5q-199 0 -358 -89.5t-249 -251t-90 -365.5
q0 -152 52.5 -283.5t144.5 -224.5t221.5 -146t278.5 -53q228 0 400 131.5t212 325.5zM1018 1802h92l-201 -184h-84l-200 184h92l149 -137z" />
    <glyph glyph-name="ccaron" unicode="&#x10d;" horiz-adv-x="1216" 
d="M1112 707l-61 -11q-35 134 -151.5 221t-262.5 87q-205 0 -338 -139t-133 -353t133 -353t338 -139q147 0 263.5 81t150.5 206l59 -12q-37 -146 -170.5 -241t-302.5 -95q-232 0 -382.5 156t-150.5 397t150.5 397t382.5 156q171 0 305.5 -101t169.5 -257zM793 1475h79
l-194 -226h-82l-195 226h80l156 -179z" />
    <glyph glyph-name="Dcaron" unicode="&#x10e;" horiz-adv-x="1499" 
d="M186 0v1434h349q249 0 440 -89t295 -252t104 -376t-104 -376t-295 -252t-440 -89h-349zM1313 717q0 195 -96.5 343.5t-273.5 230t-408 81.5h-287v-1311h287q231 0 408 81.5t273.5 230.5t96.5 344zM854 1802h92l-201 -184h-83l-201 184h92l149 -137z" />
    <glyph glyph-name="dcaron" unicode="&#x10f;" horiz-adv-x="1540" 
d="M1108 756v739h61v-1495h-61v268q-56 -141 -181.5 -225t-289.5 -84q-232 0 -382.5 156t-150.5 397t150.5 397t382.5 156q164 0 289.5 -84t181.5 -225zM166 512q0 -214 133 -353t338 -139q204 0 337.5 139t133.5 353t-133.5 353t-337.5 139q-205 0 -338 -139t-133 -353z
M1405 1352h-4q-31 0 -49.5 17.5t-18.5 45.5q0 27 16.5 44.5t41.5 17.5q29 0 48 -27t19 -68q0 -93 -78 -192l-32 24q25 32 41 71t16 67z" />
    <glyph glyph-name="Dcroat" unicode="&#x110;" horiz-adv-x="1601" 
d="M289 866v568h348q249 0 440 -89t295.5 -252t104.5 -376t-104.5 -376t-295.5 -252t-440 -89h-348v805h-246v61h246zM1415 717q0 195 -96.5 343.5t-273.5 230t-408 81.5h-287v-506h512v-61h-512v-744h287q231 0 408 81.5t273.5 230.5t96.5 344z" />
    <glyph glyph-name="dcroat" unicode="&#x111;" horiz-adv-x="1464" 
d="M1108 756v530h-510v62h510v147h61v-147h211v-62h-211v-1286h-61v268q-56 -141 -181.5 -225t-289.5 -84q-232 0 -382.5 156t-150.5 397t150.5 397t382.5 156q164 0 289.5 -84t181.5 -225zM166 512q0 -214 133 -353t338 -139q204 0 337.5 139t133.5 353t-133.5 353
t-337.5 139q-205 0 -338 -139t-133 -353z" />
    <glyph glyph-name="Emacron" unicode="&#x112;" horiz-adv-x="1273" 
d="M248 61h921v-61h-983v1434h963v-62h-901v-594h819v-61h-819v-656zM958 1761v-61h-561v61h561z" />
    <glyph glyph-name="emacron" unicode="&#x113;" horiz-adv-x="1294" 
d="M657 20q148 0 273.5 83t169.5 212l61 -10q-49 -150 -192 -248t-312 -98q-241 0 -397 155.5t-156 397.5t156 397.5t397 155.5q233 0 383 -155.5t150 -397.5v-20h-1024q6 -206 143.5 -339t347.5 -133zM166 553h960q-14 199 -144.5 325t-324.5 126q-204 0 -340.5 -126.5
t-150.5 -324.5zM938 1331v-61h-561v61h561z" />
    <glyph glyph-name="Ebreve" unicode="&#x114;" horiz-adv-x="1273" 
d="M248 61h921v-61h-983v1434h963v-62h-901v-594h819v-61h-819v-656zM842 1802h59q1 -89 -62 -147t-161 -58t-161.5 58t-63.5 147h61q0 -63 46.5 -103t117.5 -40t117.5 40t46.5 103z" />
    <glyph glyph-name="ebreve" unicode="&#x115;" horiz-adv-x="1294" 
d="M657 20q148 0 273.5 83t169.5 212l61 -10q-49 -150 -192 -248t-312 -98q-241 0 -397 155.5t-156 397.5t156 397.5t397 155.5q233 0 383 -155.5t150 -397.5v-20h-1024q6 -206 143.5 -339t347.5 -133zM166 553h960q-14 199 -144.5 325t-324.5 126q-204 0 -340.5 -126.5
t-150.5 -324.5zM840 1475h61q1 -107 -68.5 -176.5t-177.5 -69.5q-106 0 -174.5 69.5t-70.5 176.5h61q2 -80 53.5 -132.5t130.5 -52.5q82 0 134.5 52.5t50.5 132.5z" />
    <glyph glyph-name="Edotaccent" unicode="&#x116;" horiz-adv-x="1273" 
d="M248 61h921v-61h-983v1434h963v-62h-901v-594h819v-61h-819v-656zM678 1673q-27 0 -44.5 17.5t-17.5 44.5q0 28 17 44.5t45 16.5q27 0 44 -17t17 -44q0 -26 -17.5 -44t-43.5 -18z" />
    <glyph glyph-name="edotaccent" unicode="&#x117;" horiz-adv-x="1294" 
d="M657 20q148 0 273.5 83t169.5 212l61 -10q-49 -150 -192 -248t-312 -98q-241 0 -397 155.5t-156 397.5t156 397.5t397 155.5q233 0 383 -155.5t150 -397.5v-20h-1024q6 -206 143.5 -339t347.5 -133zM166 553h960q-14 199 -144.5 325t-324.5 126q-204 0 -340.5 -126.5
t-150.5 -324.5zM659 1249q-27 0 -44 17.5t-17 44.5q0 28 16.5 44.5t44.5 16.5q27 0 44.5 -17t17.5 -44q0 -26 -18 -44t-44 -18z" />
    <glyph glyph-name="Eogonek" unicode="&#x118;" horiz-adv-x="1273" 
d="M887 0h-701v1434h963v-62h-901v-594h819v-61h-819v-656h921v-61h-163q-87 -26 -142 -94.5t-55 -151.5q-1 -114 101 -189t259 -75v-61q-184 0 -303.5 91.5t-117.5 229.5q0 75 37.5 141.5t101.5 108.5z" />
    <glyph glyph-name="eogonek" unicode="&#x119;" horiz-adv-x="1294" 
d="M676 -41q-251 0 -411.5 151.5t-160.5 401.5q0 242 156 397.5t397 155.5q233 0 383 -155.5t150 -397.5v-20h-1024q6 -206 143.5 -339t347.5 -133q148 0 273.5 83t169.5 212l61 -10q-40 -119 -140 -208.5t-230 -121.5q-65 -34 -105 -93.5t-41 -129.5q0 -114 102.5 -189
t260.5 -75v-61q-184 0 -304 91.5t-120 229.5q3 122 92 211zM166 553h960q-14 199 -144.5 325t-324.5 126q-204 0 -340.5 -126.5t-150.5 -324.5z" />
    <glyph glyph-name="Ecaron" unicode="&#x11a;" horiz-adv-x="1273" 
d="M248 61h921v-61h-983v1434h963v-62h-901v-594h819v-61h-819v-656zM834 1802h79l-194 -225h-82l-195 225h80l156 -178z" />
    <glyph glyph-name="ecaron" unicode="&#x11b;" horiz-adv-x="1294" 
d="M657 20q148 0 273.5 83t169.5 212l61 -10q-49 -150 -192 -248t-312 -98q-241 0 -397 155.5t-156 397.5t156 397.5t397 155.5q233 0 383 -155.5t150 -397.5v-20h-1024q6 -206 143.5 -339t347.5 -133zM166 553h960q-14 199 -144.5 325t-324.5 126q-204 0 -340.5 -126.5
t-150.5 -324.5zM813 1475h80l-195 -226h-82l-194 226h80l155 -179z" />
    <glyph glyph-name="Gcircumflex" unicode="&#x11c;" horiz-adv-x="1744" 
d="M1559 717h-676v61h735q13 -237 -76.5 -426.5t-262 -296t-396.5 -106.5q-217 0 -390.5 99t-270.5 274.5t-97 394.5q0 220 97 395.5t270.5 274t390.5 98.5q247 0 437 -144.5t234 -365.5l-59 -12q-46 200 -219 330t-393 130q-149 1 -278.5 -52t-221.5 -145.5t-144.5 -224.5
t-52.5 -284q0 -150 52.5 -281.5t144.5 -225t221.5 -147t278.5 -53.5q194 0 348 89.5t241 251t87 366.5zM731 1618h-92l203 184h82l200 -184h-92l-149 137z" />
    <glyph glyph-name="gcircumflex" unicode="&#x11d;" horiz-adv-x="1355" 
d="M127 -113l61 9q19 -151 151 -249t318 -98q195 -1 323 127t128 324v260q-62 -139 -186.5 -220t-284.5 -81q-232 0 -382.5 156t-150.5 397t150.5 397t382.5 156q159 0 284 -81t187 -220v260h61v-1024q0 -223 -144.5 -367.5t-367.5 -144.5q-209 0 -358 112.5t-172 286.5z
M637 20q205 0 338 139t133 353q0 213 -134 352.5t-337 139.5q-208 0 -339.5 -138.5t-131.5 -353.5q0 -213 134.5 -352.5t336.5 -139.5zM481 1249h-80l195 226h82l194 -226h-79l-156 178z" />
    <glyph glyph-name="Gbreve" unicode="&#x11e;" horiz-adv-x="1744" 
d="M1559 717h-676v61h735q13 -237 -76.5 -426.5t-262 -296t-396.5 -106.5q-217 0 -390.5 99t-270.5 274.5t-97 394.5q0 220 97 395.5t270.5 274t390.5 98.5q247 0 437 -144.5t234 -365.5l-59 -12q-46 200 -219 330t-393 130q-149 1 -278.5 -52t-221.5 -145.5t-144.5 -224.5
t-52.5 -284q0 -150 52.5 -281.5t144.5 -225t221.5 -147t278.5 -53.5q194 0 348 89.5t241 251t87 366.5zM1047 1802h59q1 -89 -62 -147t-161 -58t-162 58t-64 147h62q0 -63 46.5 -103t117.5 -40t117.5 40t46.5 103z" />
    <glyph glyph-name="gbreve" unicode="&#x11f;" horiz-adv-x="1355" 
d="M127 -113l61 9q19 -151 151 -249t318 -98q195 -1 323 127t128 324v260q-62 -139 -186.5 -220t-284.5 -81q-232 0 -382.5 156t-150.5 397t150.5 397t382.5 156q159 0 284 -81t187 -220v260h61v-1024q0 -223 -144.5 -367.5t-367.5 -144.5q-209 0 -358 112.5t-172 286.5z
M637 20q205 0 338 139t133 353q0 213 -134 352.5t-337 139.5q-208 0 -339.5 -138.5t-131.5 -353.5q0 -213 134.5 -352.5t336.5 -139.5zM842 1475h61q0 -107 -70 -176.5t-176 -69.5q-107 0 -176 69.5t-69 176.5h61q0 -80 52.5 -132.5t131.5 -52.5t132 53t53 132z" />
    <glyph glyph-name="Gdotaccent" unicode="&#x120;" horiz-adv-x="1744" 
d="M1559 717h-676v61h735q13 -237 -76.5 -426.5t-262 -296t-396.5 -106.5q-217 0 -390.5 99t-270.5 274.5t-97 394.5q0 220 97 395.5t270.5 274t390.5 98.5q247 0 437 -144.5t234 -365.5l-59 -12q-46 200 -219 330t-393 130q-149 1 -278.5 -52t-221.5 -145.5t-144.5 -224.5
t-52.5 -284q0 -150 52.5 -281.5t144.5 -225t221.5 -147t278.5 -53.5q194 0 348 89.5t241 251t87 366.5zM883 1673q-27 0 -44.5 17.5t-17.5 44.5q0 28 17 44.5t45 16.5q27 0 44 -17t17 -44q0 -26 -17.5 -44t-43.5 -18z" />
    <glyph glyph-name="gdotaccent" unicode="&#x121;" horiz-adv-x="1355" 
d="M127 -113l61 9q19 -151 151 -249t318 -98q195 -1 323 127t128 324v260q-62 -139 -186.5 -220t-284.5 -81q-232 0 -382.5 156t-150.5 397t150.5 397t382.5 156q159 0 284 -81t187 -220v260h61v-1024q0 -223 -144.5 -367.5t-367.5 -144.5q-209 0 -358 112.5t-172 286.5z
M637 20q205 0 338 139t133 353q0 213 -134 352.5t-337 139.5q-208 0 -339.5 -138.5t-131.5 -353.5q0 -213 134.5 -352.5t336.5 -139.5zM639 1249q-27 0 -44 17.5t-17 44.5q0 28 16.5 44.5t44.5 16.5q27 0 44 -17t17 -44q0 -26 -17.5 -44t-43.5 -18z" />
    <glyph glyph-name="Gcommaaccent" unicode="&#x122;" horiz-adv-x="1744" 
d="M1559 717h-676v61h735q13 -237 -76.5 -426.5t-262 -296t-396.5 -106.5q-217 0 -390.5 99t-270.5 274.5t-97 394.5q0 220 97 395.5t270.5 274t390.5 98.5q247 0 437 -144.5t234 -365.5l-59 -12q-46 200 -219 330t-393 130q-149 1 -278.5 -52t-221.5 -145.5t-144.5 -224.5
t-52.5 -284q0 -150 52.5 -281.5t144.5 -225t221.5 -147t278.5 -53.5q194 0 348 89.5t241 251t87 366.5zM893 -369h-4q-30 0 -49 18t-19 46q0 27 16.5 44t41.5 17q29 0 48 -26.5t19 -67.5q0 -93 -78 -192l-32 24q25 32 41 70.5t16 66.5z" />
    <glyph glyph-name="gcommaaccent" unicode="&#x123;" horiz-adv-x="1355" 
d="M127 -113l61 9q19 -151 151 -249t318 -98q195 -1 323 127t128 324v260q-62 -139 -186.5 -220t-284.5 -81q-232 0 -382.5 156t-150.5 397t150.5 397t382.5 156q159 0 284 -81t187 -220v260h61v-1024q0 -223 -144.5 -367.5t-367.5 -144.5q-209 0 -358 112.5t-172 286.5z
M637 20q205 0 338 139t133 353q0 213 -134 352.5t-337 139.5q-208 0 -339.5 -138.5t-131.5 -353.5q0 -213 134.5 -352.5t336.5 -139.5zM629 1354q30 0 50.5 -18t20.5 -48q0 -26 -16 -42.5t-41 -16.5q-29 0 -48.5 26.5t-19.5 67.5q0 94 78 193l33 -25q-57 -78 -57 -137z" />
    <glyph glyph-name="Itilde" unicode="&#x128;" horiz-adv-x="401" 
d="M227 1434v-1434h-61v1434h61zM-59 1649l-52 30q20 45 71 74t110 29q42 0 77 -16t55.5 -35.5t53 -35.5t70.5 -16q45 0 80.5 21.5t50.5 56.5l55 -26q-22 -50 -74 -81.5t-116 -31.5q-43 0 -78.5 16t-56 35t-52 35t-65.5 16q-42 0 -76.5 -19.5t-52.5 -51.5z" />
    <glyph glyph-name="itilde" unicode="&#x129;" horiz-adv-x="442" 
d="M248 1024v-1024h-62v1024h62zM-39 1286l-51 33q22 44 69 73t97 29q40 0 79 -19t65.5 -42.5t61 -42.5t66.5 -19q41 0 77.5 22t51.5 56l55 -26q-22 -49 -72.5 -81t-107.5 -32q-35 0 -66.5 12.5t-55.5 30.5t-47 36.5t-49.5 31t-53.5 12.5q-37 0 -69 -20.5t-50 -53.5z" />
    <glyph glyph-name="Imacron" unicode="&#x12a;" horiz-adv-x="401" 
d="M231 1434v-1434h-61v1434h61zM481 1761v-61h-561v61h561z" />
    <glyph glyph-name="imacron" unicode="&#x12b;" horiz-adv-x="360" 
d="M211 1024v-1024h-61v1024h61zM461 1331v-61h-561v61h561z" />
    <glyph glyph-name="Iogonek" unicode="&#x12e;" horiz-adv-x="436" 
d="M184 35v1399h62v-1434h-10q-89 -27 -146 -95.5t-57 -152.5q-1 -114 101 -189t259 -75v-61q-184 0 -304 91.5t-118 229.5q0 97 59 175.5t154 111.5z" />
    <glyph glyph-name="iogonek" unicode="&#x12f;" horiz-adv-x="425" 
d="M184 35v989h62v-1024h-10q-89 -27 -146 -95.5t-57 -152.5q-1 -114 101 -189t259 -75v-61q-184 0 -304 91.5t-118 229.5q0 96 59.5 175.5t153.5 111.5zM154 1311q0 27 17 44t44 17q26 0 43.5 -17.5t17.5 -43.5t-17.5 -44t-43.5 -18q-27 0 -44 17.5t-17 44.5z" />
    <glyph glyph-name="Idotaccent" unicode="&#x130;" horiz-adv-x="434" 
d="M248 1434v-1434h-62v1434h62zM217 1673q-27 0 -44 17.5t-17 44.5q0 28 16.5 44.5t44.5 16.5q27 0 44.5 -17t17.5 -44q0 -26 -18 -44t-44 -18z" />
    <glyph glyph-name="dotlessi" unicode="&#x131;" horiz-adv-x="393" 
d="M227 1024v-1024h-61v1024h61z" />
    <glyph glyph-name="IJ" unicode="&#x132;" horiz-adv-x="1296" 
d="M248 1434v-1434h-62v1434h62zM1069 430v1004h61v-1004q0 -227 -109.5 -349t-287.5 -122q-112 0 -237 41v63q137 -43 245 -43q148 0 238 104t90 306z" />
    <glyph glyph-name="ij" unicode="&#x133;" horiz-adv-x="712" 
d="M258 1024v-1024h-61v1024h61zM600 -227v1251h62v-1249q0 -98 -60.5 -162t-152.5 -64q-59 0 -138 27v64q85 -29 135 -29q67 0 110.5 45.5t43.5 116.5zM166 1311q0 27 17 44t44 17q26 0 44 -17.5t18 -43.5t-18 -44t-44 -18q-27 0 -44 17.5t-17 44.5zM569 1311q0 28 17 44.5
t45 16.5q27 0 44 -17t17 -44q0 -26 -17.5 -44t-43.5 -18q-27 0 -44.5 17.5t-17.5 44.5z" />
    <glyph glyph-name="Kcommaaccent" unicode="&#x136;" horiz-adv-x="1107" 
d="M186 1434h62v-637l690 637h92l-735 -676l749 -758h-86l-710 717v-717h-62v1434zM594 -391q-30 0 -51 17.5t-21 47.5q0 26 16.5 43t41.5 17q29 0 48 -26.5t19 -67.5q0 -94 -78 -193l-32 25q57 78 57 137z" />
    <glyph glyph-name="kcommaaccent" unicode="&#x137;" horiz-adv-x="1011" 
d="M186 1495h62v-926l547 455h96l-594 -492l610 -532h-92l-567 494v-494h-62v1495zM557 -371q-31 0 -51.5 17t-20.5 47q0 27 16.5 44t41.5 17q29 0 48 -26.5t19 -67.5q0 -93 -78 -192l-32 24q25 32 41 70.5t16 66.5z" />
    <glyph glyph-name="Lacute" unicode="&#x139;" horiz-adv-x="1130" 
d="M1067 0h-881v1434h62v-1373h819v-61zM453 1802l-181 -184h-86l181 184h86z" />
    <glyph glyph-name="lacute" unicode="&#x13a;" horiz-adv-x="606" 
d="M248 1495v-1495h-62v1495h62zM436 1796l-180 -184h-86l180 184h86z" />
    <glyph glyph-name="Lcommaaccent" unicode="&#x13b;" horiz-adv-x="1130" 
d="M1067 0h-881v1434h62v-1373h819v-61zM649 -391q-32 0 -51.5 17t-19.5 48q0 26 16 43t41 17q29 0 48 -26.5t19 -67.5q0 -95 -77 -193l-33 25q57 78 57 137z" />
    <glyph glyph-name="lcommaaccent" unicode="&#x13c;" horiz-adv-x="442" 
d="M248 1495v-1495h-62v1495h62zM229 -371q-30 0 -50.5 17t-20.5 47q0 26 16 43.5t41 17.5q29 0 48.5 -27t19.5 -67q0 -99 -76 -195l-35 27q26 32 41.5 70.5t15.5 66.5z" />
    <glyph glyph-name="Lcaron" unicode="&#x13d;" horiz-adv-x="1130" 
d="M1067 0h-881v1434h62v-1373h819v-61zM590 1350h-4q-31 0 -49.5 17.5t-18.5 45.5t16 45t41 17q29 0 48.5 -27t19.5 -68q0 -93 -78 -192l-33 24q25 33 41.5 72t16.5 66z" />
    <glyph glyph-name="lcaron" unicode="&#x13e;" horiz-adv-x="620" 
d="M248 1495v-1495h-62v1495h62zM485 1350h-4q-30 0 -48.5 17.5t-18.5 45.5t16 45t41 17q29 0 48.5 -27t19.5 -68q0 -93 -78 -192l-33 24q25 32 41 71t16 67z" />
    <glyph glyph-name="Lslash" unicode="&#x141;" horiz-adv-x="987" 
d="M43 512l225 141v781h62v-744l635 397v-71l-635 -398v-557h819v-61h-881v582l-225 -142v72z" />
    <glyph glyph-name="lslash" unicode="&#x142;" horiz-adv-x="757" 
d="M410 803v-803h-62v764l-348 -227v77l348 228v653h62v-614l348 227v-78z" />
    <glyph glyph-name="Nacute" unicode="&#x143;" horiz-adv-x="1417" 
d="M268 1434l901 -1354v1354h62v-1434h-82l-901 1352v-1352h-62v1434h82zM944 1802l-180 -184h-86l180 184h86z" />
    <glyph glyph-name="nacute" unicode="&#x144;" 
d="M664 1065q190 0 296.5 -130.5t106.5 -340.5v-594h-61v594q0 184 -89 297t-253 113q-168 0 -292 -112.5t-124 -277.5v-614h-62v1024h62v-205q49 112 163 179t253 67zM782 1475h86l-221 -226h-86z" />
    <glyph glyph-name="Ncommaaccent" unicode="&#x145;" horiz-adv-x="1417" 
d="M268 1434l901 -1354v1354h62v-1434h-82l-901 1352v-1352h-62v1434h82zM727 -391q-30 0 -51 17.5t-21 47.5q0 26 16.5 43t41.5 17q30 0 48.5 -26t18.5 -68q0 -98 -75 -193l-35 25q57 73 57 137z" />
    <glyph glyph-name="ncommaaccent" unicode="&#x146;" 
d="M664 1065q190 0 296.5 -130.5t106.5 -340.5v-594h-61v594q0 184 -89 297t-253 113q-168 0 -292 -112.5t-124 -277.5v-614h-62v1024h62v-205q49 112 163 179t253 67zM653 -391q-31 0 -51 16.5t-20 46.5q0 28 16 45t41 17q29 0 48.5 -26.5t19.5 -67.5q0 -94 -78 -193
l-33 25q25 32 41 70.5t16 66.5z" />
    <glyph glyph-name="Ncaron" unicode="&#x147;" horiz-adv-x="1417" 
d="M268 1434l901 -1354v1354h62v-1434h-82l-901 1352v-1352h-62v1434h82zM874 1802h93l-201 -184h-84l-201 184h92l150 -137z" />
    <glyph glyph-name="ncaron" unicode="&#x148;" 
d="M664 1065q190 0 296.5 -130.5t106.5 -340.5v-594h-61v594q0 184 -89 297t-253 113q-168 0 -292 -112.5t-124 -277.5v-614h-62v1024h62v-205q49 112 163 179t253 67zM799 1475h80l-195 -226h-82l-194 226h79l156 -179z" />
    <glyph glyph-name="Omacron" unicode="&#x14c;" horiz-adv-x="1765" 
d="M125 717q0 220 97 395.5t270.5 274t390.5 98.5q216 0 389 -98.5t270.5 -274t97.5 -395.5q0 -219 -97.5 -394.5t-270.5 -274.5t-389 -99q-217 0 -390.5 99t-270.5 274.5t-97 394.5zM186 717q0 -151 52.5 -282.5t144.5 -224.5t221.5 -146.5t278.5 -53.5q199 0 358 90.5
t248.5 252.5t89.5 364t-89.5 363.5t-248.5 252t-358 90.5t-358.5 -90.5t-249 -252t-89.5 -363.5zM1163 1761v-61h-561v61h561z" />
    <glyph glyph-name="omacron" unicode="&#x14d;" horiz-adv-x="1273" 
d="M1169 512q0 -241 -150 -397t-382 -156t-382.5 156t-150.5 397t150.5 397t382.5 156t382 -156t150 -397zM1108 512q0 214 -133.5 353t-337.5 139q-205 0 -338 -139t-133 -353t133 -353t338 -139q204 0 337.5 139t133.5 353zM918 1331v-61h-562v61h562z" />
    <glyph glyph-name="Obreve" unicode="&#x14e;" horiz-adv-x="1765" 
d="M125 717q0 220 97 395.5t270.5 274t390.5 98.5q216 0 389 -98.5t270.5 -274t97.5 -395.5q0 -219 -97.5 -394.5t-270.5 -274.5t-389 -99q-217 0 -390.5 99t-270.5 274.5t-97 394.5zM186 717q0 -151 52.5 -282.5t144.5 -224.5t221.5 -146.5t278.5 -53.5q199 0 358 90.5
t248.5 252.5t89.5 364t-89.5 363.5t-248.5 252t-358 90.5t-358.5 -90.5t-249 -252t-89.5 -363.5zM1047 1802h59q1 -89 -62 -147t-161 -58t-162 58t-64 147h62q0 -63 46.5 -103t117.5 -40t117.5 40t46.5 103z" />
    <glyph glyph-name="obreve" unicode="&#x14f;" horiz-adv-x="1273" 
d="M1169 512q0 -241 -150 -397t-382 -156t-382.5 156t-150.5 397t150.5 397t382.5 156t382 -156t150 -397zM1108 512q0 214 -133.5 353t-337.5 139q-205 0 -338 -139t-133 -353t133 -353t338 -139q204 0 337.5 139t133.5 353zM819 1475h62q1 -107 -68.5 -176.5t-177.5 -69.5
q-106 0 -175.5 69.5t-70.5 176.5h62q2 -80 53.5 -132.5t130.5 -52.5q81 0 133.5 52.5t50.5 132.5z" />
    <glyph glyph-name="Ohungarumlaut" unicode="&#x150;" horiz-adv-x="1765" 
d="M125 717q0 220 97 395.5t270.5 274t390.5 98.5q216 0 389 -98.5t270.5 -274t97.5 -395.5q0 -219 -97.5 -394.5t-270.5 -274.5t-389 -99q-217 0 -390.5 99t-270.5 274.5t-97 394.5zM186 717q0 -151 52.5 -282.5t144.5 -224.5t221.5 -146.5t278.5 -53.5q199 0 358 90.5
t248.5 252.5t89.5 364t-89.5 363.5t-248.5 252t-358 90.5t-358.5 -90.5t-249 -252t-89.5 -363.5zM848 1802h84l-168 -184h-86zM1174 1802h86l-170 -184h-84z" />
    <glyph glyph-name="ohungarumlaut" unicode="&#x151;" horiz-adv-x="1269" 
d="M1167 512q0 -241 -150 -397t-382 -156t-382.5 156t-150.5 397t150.5 397t382.5 156t382 -156t150 -397zM1106 512q0 214 -133.5 353t-337.5 139t-337.5 -139t-133.5 -353t133.5 -353t337.5 -139t337.5 139t133.5 353zM643 1475h92l-211 -226h-94zM971 1475h92l-211 -226
h-94z" />
    <glyph glyph-name="OE" unicode="&#x152;" horiz-adv-x="2154" 
d="M125 717q0 220 97 395.5t270.5 274t390.5 98.5q129 0 256 -51h891v-62h-840v-614h758v-62h-758v-635h860v-61h-913q-127 -51 -254 -51q-217 0 -390.5 99t-270.5 274.5t-97 394.5zM1128 59v1315q-113 49 -245 49q-199 0 -358.5 -90.5t-249 -252t-89.5 -363.5
q0 -152 52.5 -283.5t144.5 -224.5t221.5 -146t278.5 -53q132 0 245 49z" />
    <glyph glyph-name="oe" unicode="&#x153;" horiz-adv-x="2297" 
d="M1661 20q148 0 273 83t169 212l62 -10q-49 -150 -192 -248t-312 -98q-187 0 -326.5 97.5t-195.5 260.5q-55 -163 -189 -260.5t-313 -97.5q-232 0 -382.5 156t-150.5 397t150.5 397t382.5 156q179 0 313 -97.5t189 -260.5q56 163 195.5 260.5t326.5 97.5
q233 0 382.5 -155.5t149.5 -397.5v-20h-1024q6 -206 144 -339t348 -133zM1108 512q0 214 -133.5 353t-337.5 139q-205 0 -338 -139t-133 -353t133 -353t338 -139q204 0 337.5 139t133.5 353zM1169 553h961q-14 199 -144.5 325t-324.5 126q-204 0 -341 -126.5t-151 -324.5z
" />
    <glyph glyph-name="Racute" unicode="&#x154;" horiz-adv-x="1396" 
d="M186 0v1434h594q221 0 356.5 -115.5t135.5 -304.5q0 -165 -105 -275.5t-284 -136.5l374 -602h-73l-369 594h-567v-594h-62zM780 1372h-532v-717h532q193 0 311.5 99t118.5 260t-118 259.5t-312 98.5zM862 1802l-180 -184h-86l180 184h86z" />
    <glyph glyph-name="racute" unicode="&#x155;" horiz-adv-x="780" 
d="M539 1065q84 0 159 -35v-69q-76 43 -157 43q-133 0 -213 -112.5t-80 -297.5v-594h-62v1024h62v-182q36 106 110.5 164.5t180.5 58.5zM602 1475h86l-221 -226h-86z" />
    <glyph glyph-name="Rcommaaccent" unicode="&#x156;" horiz-adv-x="1396" 
d="M186 0v1434h594q221 0 356.5 -115.5t135.5 -304.5q0 -165 -105 -275.5t-284 -136.5l374 -602h-73l-369 594h-567v-594h-62zM780 1372h-532v-717h532q193 0 311.5 99t118.5 260t-118 259.5t-312 98.5zM717 -391q-30 0 -51 17.5t-21 47.5q0 26 16 43t41 17q29 0 48.5 -26.5
t19.5 -67.5q0 -97 -76 -193l-35 25q58 75 58 137z" />
    <glyph glyph-name="rcommaaccent" unicode="&#x157;" horiz-adv-x="753" 
d="M539 1065q84 0 159 -35v-69q-76 43 -157 43q-133 0 -213 -112.5t-80 -297.5v-594h-62v1024h62v-182q36 106 110.5 164.5t180.5 58.5zM229 -369q-30 0 -50.5 17t-20.5 47q0 27 16 44t41 17q29 0 48.5 -26.5t19.5 -67.5q0 -93 -78 -192l-33 24q25 32 41 70.5t16 66.5z" />
    <glyph glyph-name="Rcaron" unicode="&#x158;" horiz-adv-x="1396" 
d="M186 0v1434h594q221 0 356.5 -115.5t135.5 -304.5q0 -165 -105 -275.5t-284 -136.5l374 -602h-73l-369 594h-567v-594h-62zM780 1372h-532v-717h532q193 0 311.5 99t118.5 260t-118 259.5t-312 98.5zM813 1802h92l-200 -184h-84l-201 184h92l150 -137z" />
    <glyph glyph-name="rcaron" unicode="&#x159;" horiz-adv-x="780" 
d="M539 1065q84 0 159 -35v-69q-76 43 -157 43q-133 0 -213 -112.5t-80 -297.5v-594h-62v1024h62v-182q36 106 110.5 164.5t180.5 58.5zM598 1475h80l-195 -226h-82l-194 226h80l155 -179z" />
    <glyph glyph-name="Sacute" unicode="&#x15a;" horiz-adv-x="1411" 
d="M711 -51q-246 0 -406 143t-160 363h62q0 -196 142.5 -320.5t363.5 -124.5q212 0 351.5 102.5t139.5 252.5q0 65 -29 115.5t-79 82.5t-116 58.5t-140 43t-152.5 36t-153 37.5t-140 48t-115 66.5t-78.5 93.5t-29 129q0 173 146.5 291.5t373.5 118.5q240 0 399.5 -133
t159.5 -336h-61q0 177 -140.5 292t-357.5 115q-200 0 -329.5 -99t-129.5 -243q0 -71 35 -124t95 -86t137 -58t162.5 -44.5t171 -39.5t163 -49.5t137.5 -68.5t95.5 -101.5t36.5 -144.5q0 -120 -71 -215.5t-198 -148t-286 -52.5zM920 1802l-181 -184h-86l181 184h86z" />
    <glyph glyph-name="sacute" unicode="&#x15b;" horiz-adv-x="1034" 
d="M530 -41q-186 0 -306 101.5t-120 258.5h62q0 -132 101.5 -215.5t260.5 -83.5q147 0 243.5 70.5t96.5 175.5q0 64 -40.5 107.5t-105 66.5t-142.5 40.5t-155.5 36.5t-142 46.5t-105 79t-40.5 125.5q0 127 106.5 212t266.5 85q171 0 283 -95.5t112 -242.5h-61
q0 122 -94.5 199.5t-237.5 77.5q-133 0 -223 -67t-90 -165q0 -61 40.5 -103t105 -64t142 -39t155.5 -37t142.5 -48t105 -81.5t40.5 -129.5q0 -135 -114 -223t-286 -88zM666 1475h86l-222 -226h-86z" />
    <glyph glyph-name="Scircumflex" unicode="&#x15c;" horiz-adv-x="1411" 
d="M711 -51q-246 0 -406 143t-160 363h62q0 -196 142.5 -320.5t363.5 -124.5q212 0 351.5 102.5t139.5 252.5q0 65 -29 115.5t-79 82.5t-116 58.5t-140 43t-152.5 36t-153 37.5t-140 48t-115 66.5t-78.5 93.5t-29 129q0 173 146.5 291.5t373.5 118.5q240 0 399.5 -133
t159.5 -336h-61q0 177 -140.5 292t-357.5 115q-200 0 -329.5 -99t-129.5 -243q0 -71 35 -124t95 -86t137 -58t162.5 -44.5t171 -39.5t163 -49.5t137.5 -68.5t95.5 -101.5t36.5 -144.5q0 -120 -71 -215.5t-198 -148t-286 -52.5zM543 1618h-92l200 184h84l201 -184h-92
l-152 137z" />
    <glyph glyph-name="scircumflex" unicode="&#x15d;" horiz-adv-x="1034" 
d="M530 -41q-186 0 -306 101.5t-120 258.5h62q0 -132 101.5 -215.5t260.5 -83.5q147 0 243.5 70.5t96.5 175.5q0 64 -40.5 107.5t-105 66.5t-142.5 40.5t-155.5 36.5t-142 46.5t-105 79t-40.5 125.5q0 127 106.5 212t266.5 85q171 0 283 -95.5t112 -242.5h-61
q0 122 -94.5 199.5t-237.5 77.5q-133 0 -223 -67t-90 -165q0 -61 40.5 -103t105 -64t142 -39t155.5 -37t142.5 -48t105 -81.5t40.5 -129.5q0 -135 -114 -223t-286 -88zM350 1249h-80l195 226h82l194 -226h-79l-156 178z" />
    <glyph glyph-name="Scedilla" unicode="&#x15e;" horiz-adv-x="1411" 
d="M719 -184h-72l15 135q-228 15 -372.5 155t-144.5 349h62q0 -196 142.5 -320.5t363.5 -124.5q212 0 351.5 102.5t139.5 252.5q0 65 -29 115.5t-79 82.5t-116 58.5t-140 43t-152.5 36t-153 37.5t-140 48t-115 66.5t-78.5 93.5t-29 129q0 173 146.5 291.5t373.5 118.5
q240 0 399.5 -133t159.5 -336h-61q0 177 -140.5 292t-357.5 115q-200 0 -329.5 -99t-129.5 -243q0 -71 35 -124t95 -86t137 -58t162.5 -44.5t171 -39.5t163 -49.5t137.5 -68.5t95.5 -101.5t36.5 -144.5q0 -181 -153 -297t-390 -119l-8 -72q111 0 175 -62.5t64 -162.5
q0 -89 -59.5 -147t-151.5 -58q-82 0 -140 47.5t-73 124.5l60 12q12 -56 53.5 -89.5t99.5 -33.5q67 0 108.5 40.5t41.5 103.5q0 75 -47 119.5t-127 44.5z" />
    <glyph glyph-name="scedilla" unicode="&#x15f;" horiz-adv-x="1034" 
d="M530 -184h-71l16 145q-165 15 -268 114.5t-103 243.5h62q0 -132 101.5 -215.5t260.5 -83.5q147 0 243.5 70.5t96.5 175.5q0 64 -40.5 107.5t-105 66.5t-142.5 40.5t-155.5 36.5t-142 46.5t-105 79t-40.5 125.5q0 127 106.5 212t266.5 85q171 0 283 -95.5t112 -242.5h-61
q0 122 -94.5 199.5t-237.5 77.5q-133 0 -223 -67t-90 -165q0 -61 40.5 -103t105 -64t142 -39t155.5 -37t142.5 -48t105 -81.5t40.5 -129.5q0 -134 -111.5 -222t-283.5 -89l-9 -82q111 0 175.5 -62.5t64.5 -162.5q0 -90 -59 -147.5t-152 -57.5q-82 0 -140 47.5t-73 124.5
l59 12q12 -56 54 -89.5t102 -33.5q66 0 107 40.5t41 103.5q0 75 -47.5 119.5t-127.5 44.5z" />
    <glyph glyph-name="Scaron" unicode="&#x160;" horiz-adv-x="1411" 
d="M711 -51q-246 0 -406 143t-160 363h62q0 -196 142.5 -320.5t363.5 -124.5q212 0 351.5 102.5t139.5 252.5q0 65 -29 115.5t-79 82.5t-116 58.5t-140 43t-152.5 36t-153 37.5t-140 48t-115 66.5t-78.5 93.5t-29 129q0 173 146.5 291.5t373.5 118.5q240 0 399.5 -133
t159.5 -336h-61q0 177 -140.5 292t-357.5 115q-200 0 -329.5 -99t-129.5 -243q0 -71 35 -124t95 -86t137 -58t162.5 -44.5t171 -39.5t163 -49.5t137.5 -68.5t95.5 -101.5t36.5 -144.5q0 -120 -71 -215.5t-198 -148t-286 -52.5zM850 1802h90l-199 -184h-84l-202 184h94
l149 -137z" />
    <glyph glyph-name="scaron" unicode="&#x161;" horiz-adv-x="1034" 
d="M530 -41q-186 0 -306 101.5t-120 258.5h62q0 -132 101.5 -215.5t260.5 -83.5q147 0 243.5 70.5t96.5 175.5q0 64 -40.5 107.5t-105 66.5t-142.5 40.5t-155.5 36.5t-142 46.5t-105 79t-40.5 125.5q0 127 106.5 212t266.5 85q171 0 283 -95.5t112 -242.5h-61
q0 122 -94.5 199.5t-237.5 77.5q-133 0 -223 -67t-90 -165q0 -61 40.5 -103t105 -64t142 -39t155.5 -37t142.5 -48t105 -81.5t40.5 -129.5q0 -135 -114 -223t-286 -88zM662 1475h79l-194 -226h-82l-195 226h80l156 -179z" />
    <glyph glyph-name="Tcommaaccent" unicode="&#x162;" horiz-adv-x="1171" 
d="M555 1372h-512v62h1085v-62h-512v-1372h-61v1372zM600 -391q-31 0 -51.5 16.5t-20.5 46.5q0 26 16.5 44t41.5 18q29 0 48 -27t19 -67q0 -96 -75 -195l-35 27q25 32 41 70.5t16 66.5z" />
    <glyph glyph-name="tcommaaccent" unicode="&#x163;" horiz-adv-x="720" 
d="M248 205v758h-185v61h185v229h61v-229h287v-61h-287v-758q0 -82 45.5 -133.5t126.5 -51.5q63 0 135 21v-61q-61 -21 -143 -21q-101 0 -163 68t-62 178zM467 -391h-4q-31 0 -49.5 17.5t-18.5 45.5q0 27 16.5 44.5t41.5 17.5q29 0 48 -26.5t19 -67.5q0 -94 -78 -193l-32 25
q25 32 41 70.5t16 66.5z" />
    <glyph glyph-name="Tcaron" unicode="&#x164;" horiz-adv-x="1171" 
d="M555 1372h-512v62h1085v-62h-512v-1372h-61v1372zM735 1802h92l-200 -184h-84l-201 184h92l150 -137z" />
    <glyph glyph-name="tcaron" unicode="&#x165;" horiz-adv-x="720" 
d="M248 205v758h-185v61h185v229h61v-229h287v-61h-287v-758q0 -82 45.5 -133.5t126.5 -51.5q63 0 135 21v-61q-61 -21 -143 -21q-101 0 -163 68t-62 178zM545 1352h-4q-31 0 -49.5 17.5t-18.5 45.5t16 45t41 17q29 0 48.5 -27t19.5 -68q0 -93 -78 -192l-33 24
q25 33 41.5 72t16.5 66z" />
    <glyph glyph-name="Utilde" unicode="&#x168;" horiz-adv-x="1417" 
d="M1190 573v861h61v-861q0 -281 -149 -452.5t-393 -171.5q-245 0 -394 171.5t-149 452.5v861h61v-861q0 -257 131 -410t351 -153t350.5 153t130.5 410zM453 1649l-52 30q20 45 71 74t110 29q42 0 77 -16t55.5 -35.5t53 -35.5t70.5 -16q45 0 80.5 21.5t50.5 56.5l55 -26
q-22 -50 -74 -81.5t-116 -31.5q-43 0 -78.5 16t-56 35t-52 35t-65.5 16q-42 0 -76.5 -19.5t-52.5 -51.5z" />
    <glyph glyph-name="utilde" unicode="&#x169;" 
d="M569 -41q-190 0 -296.5 130.5t-106.5 340.5v594h61v-594q0 -184 89 -297t253 -113q168 0 292 112.5t124 277.5v614h62v-1024h-62v205q-51 -112 -165 -179t-251 -67zM371 1286l-52 33q22 44 69 73t97 29q33 0 64.5 -12.5t56 -30.5t48.5 -36.5t51 -31t53 -12.5
q41 0 77.5 22t51.5 56l55 -26q-22 -49 -72.5 -81t-107.5 -32q-35 0 -66.5 12.5t-56 30.5t-47.5 36.5t-49.5 31t-53.5 12.5q-37 0 -68.5 -20.5t-49.5 -53.5z" />
    <glyph glyph-name="Umacron" unicode="&#x16a;" horiz-adv-x="1417" 
d="M1190 573v861h61v-861q0 -281 -149 -452.5t-393 -171.5q-245 0 -394 171.5t-149 452.5v861h61v-861q0 -257 131 -410t351 -153t350.5 153t130.5 410zM989 1761v-61h-561v61h561z" />
    <glyph glyph-name="umacron" unicode="&#x16b;" 
d="M569 -41q-190 0 -296.5 130.5t-106.5 340.5v594h61v-594q0 -184 89 -297t253 -113q168 0 292 112.5t124 277.5v614h62v-1024h-62v205q-51 -112 -165 -179t-251 -67zM887 1331v-61h-561v61h561z" />
    <glyph glyph-name="Ubreve" unicode="&#x16c;" horiz-adv-x="1417" 
d="M1190 573v861h61v-861q0 -281 -149 -452.5t-393 -171.5q-245 0 -394 171.5t-149 452.5v861h61v-861q0 -257 131 -410t351 -153t350.5 153t130.5 410zM872 1802h60q1 -89 -62 -147t-161 -58t-162 58t-64 147h62q0 -63 46.5 -103t117.5 -40t117 40t46 103z" />
    <glyph glyph-name="ubreve" unicode="&#x16d;" 
d="M569 -41q-190 0 -296.5 130.5t-106.5 340.5v594h61v-594q0 -184 89 -297t253 -113q168 0 292 112.5t124 277.5v614h62v-1024h-62v205q-51 -112 -165 -179t-251 -67zM788 1434h62q1 -107 -68.5 -176.5t-177.5 -69.5q-106 0 -175 69.5t-71 176.5h62q2 -80 53.5 -132.5
t130.5 -52.5q81 0 133.5 52.5t50.5 132.5z" />
    <glyph glyph-name="Uring" unicode="&#x16e;" horiz-adv-x="1417" 
d="M1190 573v861h61v-861q0 -281 -149 -452.5t-393 -171.5q-245 0 -394 171.5t-149 452.5v861h61v-861q0 -257 131 -410t351 -153t350.5 153t130.5 410zM709 1538q-75 0 -124.5 49.5t-49.5 124.5t49.5 123.5t124.5 48.5t124.5 -48.5t49.5 -123.5t-50 -124.5t-124 -49.5z
M709 1823q-49 0 -81 -31t-32 -78q0 -51 31 -83t82 -32q50 0 82 32t32 83q0 48 -31.5 78.5t-82.5 30.5z" />
    <glyph glyph-name="uring" unicode="&#x16f;" 
d="M569 -41q-190 0 -296.5 130.5t-106.5 340.5v594h61v-594q0 -184 89 -297t253 -113q168 0 292 112.5t124 277.5v614h62v-1024h-62v205q-51 -112 -165 -179t-251 -67zM606 1126q-103 0 -170 66.5t-67 169.5t67 169t170 66q102 0 168 -66.5t66 -168.5q0 -103 -66.5 -169.5
t-167.5 -66.5zM604 1536q-75 0 -124.5 -49.5t-49.5 -124.5t49.5 -124.5t124.5 -49.5t124.5 49.5t49.5 124.5t-49.5 124.5t-124.5 49.5z" />
    <glyph glyph-name="Uhungarumlaut" unicode="&#x170;" horiz-adv-x="1417" 
d="M1190 573v861h61v-861q0 -281 -149 -452.5t-393 -171.5q-245 0 -394 171.5t-149 452.5v861h61v-861q0 -257 131 -410t351 -153t350.5 153t130.5 410zM674 1864h84l-168 -185h-86zM999 1864h86l-170 -185h-84z" />
    <glyph glyph-name="uhungarumlaut" unicode="&#x171;" 
d="M569 -41q-190 0 -296.5 130.5t-106.5 340.5v594h61v-594q0 -184 89 -297t253 -113q168 0 292 112.5t124 277.5v614h62v-1024h-62v205q-51 -112 -165 -179t-251 -67zM614 1475h93l-211 -226h-95zM942 1475h92l-211 -226h-94z" />
    <glyph glyph-name="Uogonek" unicode="&#x172;" horiz-adv-x="1417" 
d="M752 -49q-14 -2 -43 -2q-245 0 -394 171.5t-149 452.5v861h61v-861q0 -257 131 -410t351 -153t350.5 153t130.5 410v861h61v-861q0 -232 -104.5 -392.5t-284.5 -211.5q-61 -36 -96.5 -93t-36.5 -124q0 -114 102.5 -189t260.5 -75v-61q-184 0 -304 91.5t-120 229.5
q3 116 84 203z" />
    <glyph glyph-name="uogonek" unicode="&#x173;" horiz-adv-x="1378" 
d="M985 37v168q-51 -112 -165 -179t-251 -67q-190 0 -296.5 130.5t-106.5 340.5v594h61v-594q0 -184 89 -297t253 -113q168 0 292 112.5t124 277.5v614h62v-1024h-19q-85 -26 -140.5 -94.5t-56.5 -151.5q0 -114 102.5 -189t260.5 -75v-61q-184 0 -304 91.5t-120 229.5
q1 97 60.5 175.5t154.5 111.5z" />
    <glyph glyph-name="Wcircumflex" unicode="&#x174;" horiz-adv-x="1998" 
d="M1450 74l422 1360h63l-444 -1434h-82l-410 1354l-409 -1354h-82l-445 1434h64l422 -1360l409 1360h82zM844 1618h-92l202 184h82l201 -184h-92l-150 137z" />
    <glyph glyph-name="wcircumflex" unicode="&#x175;" horiz-adv-x="1777" 
d="M469 0l-365 1024h66l340 -956l336 956h82l340 -956l340 956h65l-364 -1024h-82l-340 954l-336 -954h-82zM733 1249h-80l195 226h82l194 -226h-80l-155 178z" />
    <glyph glyph-name="Ycircumflex" unicode="&#x176;" horiz-adv-x="1138" 
d="M539 594l-496 840h72l454 -772l455 772h72l-496 -840v-594h-61v594zM418 1618h-92l202 184h82l201 -184h-92l-150 137z" />
    <glyph glyph-name="ycircumflex" unicode="&#x177;" horiz-adv-x="1146" 
d="M125 -430v61q65 -20 121 -20q31 0 59 10.5t51 26t47 45.5t42 58.5t41.5 75.5t40 84.5t42.5 98.5l-485 1014h70l448 -940l395 940h66l-430 -1024q-39 -93 -67 -152t-65.5 -122t-73.5 -97.5t-83 -57t-102 -22.5q-63 0 -117 21zM420 1249h-80l195 226h81l195 -226h-80
l-156 178z" />
    <glyph glyph-name="Ydieresis" unicode="&#x178;" horiz-adv-x="1138" 
d="M539 594l-496 840h72l454 -772l455 772h72l-496 -840v-594h-61v594zM365 1669q-26 0 -44 18t-18 44t18 43.5t44 17.5t43.5 -17.5t17.5 -43.5t-17.5 -44t-43.5 -18zM774 1669q-26 0 -43.5 18t-17.5 44t17.5 43.5t43.5 17.5t44 -17.5t18 -43.5t-18 -44t-44 -18z" />
    <glyph glyph-name="Zacute" unicode="&#x179;" 
d="M63 41l994 1331h-973v62h1065v-41l-993 -1332h1013v-61h-1106v41zM842 1802l-180 -184h-87l181 184h86z" />
    <glyph glyph-name="zacute" unicode="&#x17a;" horiz-adv-x="1110" 
d="M887 963h-762v61h860v-41l-782 -922h803v-61h-902v41zM715 1475h86l-221 -226h-86z" />
    <glyph glyph-name="Zdotaccent" unicode="&#x17b;" 
d="M63 41l994 1331h-973v62h1065v-41l-993 -1332h1013v-61h-1106v41zM616 1673q-27 0 -44 17.5t-17 44.5q0 28 16.5 44.5t44.5 16.5q27 0 44.5 -17t17.5 -44q0 -26 -18 -44t-44 -18z" />
    <glyph glyph-name="zdotaccent" unicode="&#x17c;" horiz-adv-x="1110" 
d="M887 963h-762v61h860v-41l-782 -922h803v-61h-902v41zM557 1249q-27 0 -44 17.5t-17 44.5q0 28 16.5 44.5t44.5 16.5q27 0 44 -17t17 -44q0 -26 -17.5 -44t-43.5 -18z" />
    <glyph glyph-name="Zcaron" unicode="&#x17d;" 
d="M63 41l994 1331h-973v62h1065v-41l-993 -1332h1013v-61h-1106v41zM772 1802h92l-200 -184h-84l-201 184h92l150 -137z" />
    <glyph glyph-name="zcaron" unicode="&#x17e;" horiz-adv-x="1110" 
d="M887 963h-762v61h860v-41l-782 -922h803v-61h-902v41zM711 1475h80l-195 -226h-82l-195 226h80l156 -179z" />
    <glyph glyph-name="Aacutering" unicode="&#x1fa;" horiz-adv-x="1306" 
d="M694 1434l570 -1434h-66l-156 389h-780l-153 -389h-66l569 1434h82zM653 1372l-366 -921h733zM649 1456q-75 0 -124.5 49.5t-49.5 124.5t49.5 123.5t124.5 48.5t124.5 -48.5t49.5 -123.5t-50 -124.5t-124 -49.5zM649 1741q-49 0 -80.5 -31t-31.5 -78q0 -51 30.5 -82.5
t81.5 -31.5q50 0 82.5 31.5t32.5 82.5q0 48 -32 78.5t-83 30.5zM842 2007l-150 -184h-76l150 184h76z" />
    <glyph glyph-name="aacutering" unicode="&#x1fb;" horiz-adv-x="1355" 
d="M1108 756v268h61v-1024h-61v268q-56 -141 -181.5 -225t-289.5 -84q-233 0 -383 155.5t-150 397.5t150 397.5t383 155.5q164 0 289.5 -84t181.5 -225zM637 20q200 0 335.5 140t135.5 352q0 211 -136 351.5t-335 140.5q-205 0 -338 -139t-133 -353t133 -353t338 -139z
M670 1149q-75 0 -124.5 49.5t-49.5 124.5t49.5 123.5t124.5 48.5t124.5 -48.5t49.5 -123.5t-50 -124.5t-124 -49.5zM670 1434q-49 0 -81 -31t-32 -78q0 -51 31 -83t82 -32q50 0 82 32t32 83q0 48 -31.5 78.5t-82.5 30.5zM944 1802l-180 -184h-86l180 184h86z" />
    <glyph glyph-name="AEacute" unicode="&#x1fc;" horiz-adv-x="1787" 
d="M1681 61v-61h-839v328h-557l-174 -328h-68l758 1434h860v-60h-758v-616h676v-62h-676v-635h778zM842 389v989l-525 -989h525zM1313 1782l-180 -185h-86l180 185h86z" />
    <glyph glyph-name="aeacute" unicode="&#x1fd;" horiz-adv-x="2256" 
d="M2152 532q0 -8 -1 -28.5t-1 -32.5h-979q19 -202 142 -326.5t309 -124.5q152 0 275 81.5t167 211.5l56 -18q-41 -146 -182.5 -241t-315.5 -95q-156 0 -276 79t-177 220v-258h-61v260q-62 -139 -187 -220t-284 -81q-232 0 -382.5 156t-150.5 397t150.5 397t382.5 156
q159 0 284 -81t187 -220v260h61v-246q62 131 183.5 209t267.5 78q232 0 382 -150.5t150 -382.5zM166 512q0 -212 133.5 -351t337.5 -141q204 0 337.5 139t133.5 353t-133.5 353t-337.5 139q-205 0 -338 -139t-133 -353zM1169 532h922q0 203 -135.5 337.5t-335.5 134.5
q-194 0 -322.5 -136.5t-128.5 -335.5zM1286 1495h86l-221 -225h-86z" />
    <glyph glyph-name="Oslashacute" unicode="&#x1fe;" horiz-adv-x="1724" 
d="M1206 1405l180 356h70l-196 -387q159 -100 249 -271.5t90 -385.5q0 -219 -94.5 -394.5t-263 -274.5t-379.5 -99q-159 0 -295 57l-147 -293h-72l162 320q-179 93 -282 273t-103 411q0 220 94.5 395.5t263 274t379.5 98.5q184 0 344 -80zM186 717q0 -211 94.5 -376
t258.5 -253l639 1262q-143 73 -316 73q-194 0 -348.5 -90.5t-241 -252t-86.5 -363.5zM1538 717q0 195 -82 352.5t-225 249.5l-635 -1258q124 -51 266 -51q145 0 270.5 53t214.5 145.5t140 224.5t51 284zM1128 1802l-180 -184h-86l180 184h86z" />
    <glyph glyph-name="oslashacute" unicode="&#x1ff;" horiz-adv-x="1273" 
d="M885 1008l112 221h70l-129 -252q109 -73 170 -194.5t61 -270.5q0 -241 -150 -397t-382 -156q-106 0 -199 35l-80 -158h-69l92 184q-129 67 -203 196.5t-74 295.5q0 241 150.5 397t382.5 156q134 0 248 -57zM410 76l446 876q-99 52 -219 52q-205 0 -338 -139t-133 -353
q0 -146 65 -260.5t179 -175.5zM1108 512q0 130 -52.5 236.5t-146.5 171.5l-442 -871q82 -29 170 -29q204 0 337.5 139t133.5 353zM903 1475l-186 -226h-80l186 226h80z" />
    <glyph glyph-name="Scommaaccent" unicode="&#x218;" horiz-adv-x="1411" 
d="M711 -51q-246 0 -406 143t-160 363h62q0 -196 142.5 -320.5t363.5 -124.5q212 0 351.5 102.5t139.5 252.5q0 65 -29 115.5t-79 82.5t-116 58.5t-140 43t-152.5 36t-153 37.5t-140 48t-115 66.5t-78.5 93.5t-29 129q0 173 146.5 291.5t373.5 118.5q240 0 399.5 -133
t159.5 -336h-61q0 177 -140.5 292t-357.5 115q-200 0 -329.5 -99t-129.5 -243q0 -71 35 -124t95 -86t137 -58t162.5 -44.5t171 -39.5t163 -49.5t137.5 -68.5t95.5 -101.5t36.5 -144.5q0 -120 -71 -215.5t-198 -148t-286 -52.5zM707 -391h-5q-31 0 -49 18t-18 47
q0 27 15.5 43.5t41.5 16.5q29 0 48.5 -26.5t19.5 -67.5q0 -94 -78 -193l-33 25q58 79 58 137z" />
    <glyph glyph-name="scommaaccent" unicode="&#x219;" horiz-adv-x="1034" 
d="M530 -41q-186 0 -306 101.5t-120 258.5h62q0 -132 101.5 -215.5t260.5 -83.5q147 0 243.5 70.5t96.5 175.5q0 64 -40.5 107.5t-105 66.5t-142.5 40.5t-155.5 36.5t-142 46.5t-105 79t-40.5 125.5q0 127 106.5 212t266.5 85q171 0 283 -95.5t112 -242.5h-61
q0 122 -94.5 199.5t-237.5 77.5q-133 0 -223 -67t-90 -165q0 -61 40.5 -103t105 -64t142 -39t155.5 -37t142.5 -48t105 -81.5t40.5 -129.5q0 -135 -114 -223t-286 -88zM518 -391h-4q-31 0 -49.5 17.5t-18.5 45.5q0 27 16.5 44.5t41.5 17.5q29 0 48 -26.5t19 -67.5
q0 -95 -77 -193l-33 25q25 32 41 70.5t16 66.5z" />
    <glyph glyph-name="circumflex" unicode="&#x2c6;" horiz-adv-x="679" 
d="M104 1270l195 225h82l194 -225h-79l-156 178l-156 -178h-80z" />
    <glyph glyph-name="caron" unicode="&#x2c7;" horiz-adv-x="679" 
d="M496 1495h79l-194 -225h-82l-195 225h80l156 -178z" />
    <glyph glyph-name="breve" unicode="&#x2d8;" horiz-adv-x="700" 
d="M535 1495h61q0 -107 -69.5 -176.5t-176.5 -69.5t-176.5 69.5t-69.5 176.5h62q0 -79 52 -131.5t132 -52.5t132.5 52.5t52.5 131.5z" />
    <glyph glyph-name="dotaccent" unicode="&#x2d9;" horiz-adv-x="331" 
d="M166 1147q-28 0 -45 17.5t-17 43.5q0 28 17 45t45 17q26 0 43.5 -17t17.5 -45q0 -26 -17.5 -43.5t-43.5 -17.5z" />
    <glyph glyph-name="ring" unicode="&#x2da;" horiz-adv-x="679" 
d="M342 1106q-104 0 -171 66t-67 169t67 169.5t171 66.5q101 0 167 -66.5t66 -169.5t-66 -169t-167 -66zM340 1516q-75 0 -124.5 -50t-49.5 -125t49.5 -124.5t124.5 -49.5t124.5 49.5t49.5 124.5t-49.5 125t-124.5 50z" />
    <glyph glyph-name="ogonek" unicode="&#x2db;" horiz-adv-x="630" 
d="M348 43l21 -43q-89 -27 -146 -95.5t-57 -152.5q-1 -114 101 -189t259 -75v-61q-184 0 -304 91.5t-118 229.5q0 105 69 187.5t175 107.5z" />
    <glyph glyph-name="tilde" unicode="&#x2dc;" horiz-adv-x="831" 
d="M156 1286l-52 33q22 44 69 73t97 29q33 0 64.5 -12.5t56 -30.5t48.5 -36.5t51 -31t53 -12.5q41 0 77.5 22t51.5 56l55 -26q-22 -49 -72.5 -81t-107.5 -32q-35 0 -66.5 12.5t-56 30.5t-47.5 36.5t-49.5 31t-53.5 12.5q-37 0 -68.5 -20.5t-49.5 -53.5z" />
    <glyph glyph-name="hungarumlaut" unicode="&#x2dd;" horiz-adv-x="839" 
d="M317 1495h93l-211 -225h-95zM645 1495h92l-211 -225h-94z" />
    <glyph glyph-name="Wgrave" unicode="&#x1e80;" horiz-adv-x="1998" 
d="M1450 74l422 1360h63l-444 -1434h-82l-410 1354l-409 -1354h-82l-445 1434h64l422 -1360l409 1360h82zM950 1618l-180 184h86l180 -184h-86z" />
    <glyph glyph-name="wgrave" unicode="&#x1e81;" horiz-adv-x="1777" 
d="M469 0l-365 1024h66l340 -956l336 956h82l340 -956l340 956h65l-364 -1024h-82l-340 954l-336 -954h-82zM643 1475h86l221 -226h-86z" />
    <glyph glyph-name="Wacute" unicode="&#x1e82;" horiz-adv-x="1998" 
d="M1450 74l422 1360h63l-444 -1434h-82l-410 1354l-409 -1354h-82l-445 1434h64l422 -1360l409 1360h82zM1221 1802l-181 -184h-86l181 184h86z" />
    <glyph glyph-name="wacute" unicode="&#x1e83;" horiz-adv-x="1777" 
d="M469 0l-365 1024h66l340 -956l336 956h82l340 -956l340 956h65l-364 -1024h-82l-340 954l-336 -954h-82zM1049 1475h86l-222 -226h-86z" />
    <glyph glyph-name="Wdieresis" unicode="&#x1e84;" horiz-adv-x="1998" 
d="M1450 74l422 1360h63l-444 -1434h-82l-410 1354l-409 -1354h-82l-445 1434h64l422 -1360l409 1360h82zM770 1669q-26 0 -43.5 18t-17.5 44t17.5 43.5t43.5 17.5t43.5 -17.5t17.5 -43.5t-17.5 -44t-43.5 -18zM1221 1669q-26 0 -44 18t-18 44t18 43.5t44 17.5t43.5 -17.5
t17.5 -43.5t-17.5 -44t-43.5 -18z" />
    <glyph glyph-name="wdieresis" unicode="&#x1e85;" horiz-adv-x="1777" 
d="M469 0l-365 1024h66l340 -956l336 956h82l340 -956l340 956h65l-364 -1024h-82l-340 954l-336 -954h-82zM684 1249q-28 0 -44.5 17t-16.5 45t16.5 44.5t44.5 16.5t44.5 -16.5t16.5 -44.5t-16.5 -45t-44.5 -17zM1094 1249q-28 0 -45 17t-17 45t17 44.5t45 16.5t44.5 -16.5
t16.5 -44.5t-16.5 -45t-44.5 -17z" />
    <glyph glyph-name="Germandbls" unicode="&#x1e9e;" horiz-adv-x="1294" 
d="M227 983v-983h-61v983q0 209 129.5 345t327.5 136q172 0 287.5 -108t115.5 -262q0 -134 -86.5 -216t-239.5 -108q207 -27 328 -134.5t121 -285.5q0 -174 -114.5 -287.5t-289.5 -113.5q-89 0 -171 28t-138 72l35 49q117 -88 272 -88q152 0 248 95t96 247q-1 118 -70 206
t-188 133.5t-272 45.5h-63v62h69q177 0 289.5 80t112.5 213q0 129 -97.5 220t-244.5 91q-172 0 -284 -118.5t-112 -301.5z" />
    <glyph glyph-name="Ygrave" unicode="&#x1ef2;" horiz-adv-x="1138" 
d="M539 594l-496 840h72l454 -772l455 772h72l-496 -840v-594h-61v594zM545 1618l-180 184h86l180 -184h-86z" />
    <glyph glyph-name="ygrave" unicode="&#x1ef3;" horiz-adv-x="1060" 
d="M82 -430v61q65 -20 121 -20q31 0 59 10.5t51 26t47 46t42 58t42 75.5t40.5 84.5t43.5 98.5l-487 1014h70l448 -940l395 940h66l-430 -1024q-39 -93 -67 -152t-65.5 -122t-73 -97.5t-82.5 -57t-101 -22.5q-65 0 -119 21zM307 1475h86l221 -226h-86z" />
    <glyph glyph-name="endash" unicode="&#x2013;" horiz-adv-x="1335" 
d="M1251 678v-62h-1167v62h1167z" />
    <glyph glyph-name="emdash" unicode="&#x2014;" horiz-adv-x="1662" 
d="M43 678h1577v-62h-1577v62z" />
    <glyph glyph-name="quoteleft" unicode="&#x2018;" horiz-adv-x="348" 
d="M238 1229q0 -26 -18 -44t-44 -18q-32 0 -52 23.5t-20 60.5q0 74 32 143t81 101l27 -31q-34 -23 -55 -71.5t-21 -102.5q29 0 49.5 -17.5t20.5 -43.5z" />
    <glyph glyph-name="quoteright" unicode="&#x2019;" horiz-adv-x="348" 
d="M111 1413q0 27 17 44.5t44 17.5q31 0 51.5 -23.5t20.5 -60.5q0 -74 -32 -143t-81 -101l-27 31q33 24 54.5 72.5t21.5 101.5q-31 0 -50 17.5t-19 43.5z" />
    <glyph glyph-name="quotesinglbase" unicode="&#x201a;" horiz-adv-x="348" 
d="M111 41q0 27 17 44t44 17q31 0 51.5 -23.5t20.5 -60.5q0 -74 -32 -142.5t-81 -100.5l-27 30q33 24 54.5 73t21.5 102q-31 0 -50 17.5t-19 43.5z" />
    <glyph glyph-name="quotedblleft" unicode="&#x201c;" horiz-adv-x="591" 
d="M242 1229q0 -26 -18 -44t-44 -18q-31 0 -51 23.5t-20 60.5q0 74 31.5 143t80.5 101l27 -31q-33 -24 -54.5 -72.5t-21.5 -101.5q31 0 50.5 -17.5t19.5 -43.5zM477 1229q0 -27 -17 -44.5t-44 -17.5q-31 0 -51.5 23.5t-20.5 60.5q0 74 32 143t81 101l26 -31
q-33 -24 -54 -72.5t-21 -101.5q31 0 50 -17.5t19 -43.5z" />
    <glyph glyph-name="quotedblright" unicode="&#x201d;" horiz-adv-x="583" 
d="M115 1413q0 26 17.5 44t43.5 18q31 0 51.5 -23.5t20.5 -60.5q0 -74 -32 -143t-81 -101l-26 31q33 24 54 72.5t21 101.5q-31 0 -50 17.5t-19 43.5zM348 1413q0 26 18 44t44 18q32 0 51.5 -23.5t19.5 -60.5q0 -74 -31.5 -143t-80.5 -101l-27 31q34 23 55 71.5t21 102.5
q-29 0 -49.5 17.5t-20.5 43.5z" />
    <glyph glyph-name="quotedblbase" unicode="&#x201e;" horiz-adv-x="585" 
d="M109 41q0 26 17.5 43.5t43.5 17.5q31 0 51.5 -23.5t20.5 -60.5q0 -74 -32 -142.5t-81 -100.5l-27 30q33 24 54.5 73t21.5 102q-31 0 -50 17.5t-19 43.5zM344 41q0 27 17 44t45 17q31 0 51 -23.5t20 -60.5q0 -74 -31.5 -142.5t-80.5 -100.5l-27 30q33 24 54.5 73t21.5 102
q-31 0 -50.5 17.5t-19.5 43.5z" />
    <glyph glyph-name="bullet" unicode="&#x2022;" horiz-adv-x="331" 
d="M166 573q-27 0 -44.5 17.5t-17.5 44.5t17 44t45 17q26 0 43.5 -17.5t17.5 -43.5t-17.5 -44t-43.5 -18z" />
    <glyph glyph-name="ellipsis" unicode="&#x2026;" horiz-adv-x="864" 
d="M104 41q0 27 17 44t45 17q26 0 43.5 -17.5t17.5 -43.5t-17.5 -43.5t-43.5 -17.5q-28 0 -45 16.5t-17 44.5zM371 41q0 27 17 44t44 17q26 0 44 -17.5t18 -43.5t-18 -43.5t-44 -17.5q-28 0 -44.5 16.5t-16.5 44.5zM637 41q0 27 17 44t44 17q26 0 44 -17.5t18 -43.5
t-18 -43.5t-44 -17.5q-28 0 -44.5 16.5t-16.5 44.5z" />
    <glyph glyph-name="perthousand" unicode="&#x2030;" horiz-adv-x="3065" 
d="M1153 389q0 178 117 294t297 116t296.5 -115.5t116.5 -294.5q0 -178 -116.5 -293.5t-296.5 -115.5t-297 115.5t-117 293.5zM1919 391q0 151 -99 248.5t-251 97.5q-155 0 -256 -97.5t-101 -248.5q0 -152 101 -251t256 -99q152 0 251 99t99 251zM2134 387q0 178 118 294
t298 116q179 0 295 -116t116 -294q0 -179 -116 -294.5t-297 -115.5q-180 0 -297 116t-117 294zM2902 389q0 151 -99 248.5t-253 97.5t-254.5 -97.5t-100.5 -248.5q0 -152 100.5 -251t254.5 -99t253 99t99 251zM104 1106q0 178 117 294t297 116t297 -116t117 -294t-117 -294
t-297 -116t-297 116t-117 294zM870 1108q0 151 -99 248.5t-251 97.5q-155 0 -255.5 -97.5t-100.5 -248.5q0 -152 100.5 -251t255.5 -99q152 0 251 99t99 251zM1518 1495h69l-1022 -1495h-67z" />
    <glyph glyph-name="guilsinglleft" unicode="&#x2039;" horiz-adv-x="696" 
d="M592 1024l-428 -512l428 -512h-82l-426 512l428 512h80z" />
    <glyph glyph-name="guilsinglright" unicode="&#x203a;" horiz-adv-x="696" 
d="M612 512l-428 -512h-80l428 512l-428 512h80z" />
    <glyph glyph-name="lira" unicode="&#x20a4;" horiz-adv-x="1157" 
d="M125 758h205v327q0 173 99 286.5t247 113.5q152 0 257 -119.5t120 -306.5l-62 -10q-15 164 -102.5 269t-212.5 105q-121 0 -203 -96t-82 -242v-327h553v-62h-553q0 -76 -6 -143h559v-61h-563q-34 -356 -197 -431h863v-61h-943v102q87 11 141.5 100t73.5 290h-194v61h199
q6 65 6 143h-205v62z" />
    <glyph glyph-name="Euro" unicode="&#x20ac;" horiz-adv-x="1800" 
d="M1618 467l57 -14q-28 -140 -122.5 -254.5t-239 -182t-309.5 -67.5q-285 0 -488 167t-254 437h-158v61h148q-6 50 -6 103q0 45 8 123h-150v61h162q56 263 256.5 423.5t481.5 160.5q123 0 237 -41t201.5 -111t148.5 -166t84 -204l-61 -11q-43 200 -214.5 335.5
t-395.5 135.5q-253 0 -436.5 -143t-239.5 -379h800v-61h-811q-10 -65 -10 -123q0 -53 6 -103h815v-61h-804q51 -245 236 -394t444 -149q228 0 401 131.5t213 325.5z" />
    <glyph glyph-name="trademark" unicode="&#x2122;" horiz-adv-x="2134" 
d="M350 307v1065h-327v62h716v-62h-327v-1065h-62zM1907 1368l-430 -1061h-62l-430 1061v-1061h-61v1127h102l420 -1041l420 1041h102v-1127h-61v1061z" />
    <glyph glyph-name="minus" unicode="&#x2212;" horiz-adv-x="1048" 
d="M104 678h840v-62h-840v62z" />
    <glyph glyph-name="notequal" unicode="&#x2260;" horiz-adv-x="1171" 
d="M1067 856h-358l-162 -432h520v-62h-543l-166 -444h-67l166 444h-353v62h377l162 432h-539v62h562l145 385h66l-146 -385h336v-62z" />
    <glyph glyph-name="lessequal" unicode="&#x2264;" horiz-adv-x="864" 
d="M739 61v-61h-696v61h696zM43 676l696 368v-69l-643 -340l643 -342v-70l-696 371v82z" />
    <glyph glyph-name="greaterequal" unicode="&#x2265;" horiz-adv-x="864" 
d="M125 61h696v-61h-696v61zM125 293l643 342l-643 340v69l696 -368v-82l-696 -371v70z" />
    <glyph glyph-name="commaaccent" unicode="&#xf6c3;" horiz-adv-x="331" 
d="M176 -102h-4q-31 0 -49.5 17.5t-18.5 45.5q0 27 16.5 44.5t41.5 17.5q29 0 48 -27t19 -68q0 -94 -77 -192l-33 24q25 32 41 71t16 67z" />
    <glyph glyph-name="IJacute" horiz-adv-x="1277" 
d="M246 1434v-1434h-62v1434h62zM1067 430v1004h61v-1004q0 -228 -109 -349.5t-288 -121.5q-112 0 -237 41v63q137 -43 245 -43q149 0 238.5 104t89.5 306zM461 1802l-180 -184h-86l180 184h86zM1319 1802l-178 -184h-88l182 184h84z" />
    <glyph glyph-name="acute.case" horiz-adv-x="475" 
d="M190 1249h-86l181 185h86z" />
    <glyph glyph-name="breve.case" horiz-adv-x="657" 
d="M494 1495h59q1 -89 -62 -147t-161 -58t-162 58t-64 147h62q0 -63 46.5 -103t117.5 -40t117.5 40t46.5 103z" />
    <glyph glyph-name="caron.case" horiz-adv-x="694" 
d="M498 1413h92l-201 -184h-82l-203 184h93l151 -137z" />
    <glyph glyph-name="circumflex.case" horiz-adv-x="694" 
d="M104 1290l203 185h82l201 -185h-92l-150 137l-151 -137h-93z" />
    <glyph glyph-name="dieresis.case" horiz-adv-x="741" 
d="M166 1280q-26 0 -44 17.5t-18 43.5t18 44t44 18t43.5 -18t17.5 -44t-17.5 -43.5t-43.5 -17.5zM575 1280q-26 0 -43.5 17.5t-17.5 43.5t17.5 44t43.5 18t44 -18t18 -44t-18 -43.5t-44 -17.5z" />
    <glyph glyph-name="dotaccent.case" horiz-adv-x="331" 
d="M166 1202q-27 0 -44.5 17.5t-17.5 44.5q0 28 17 44.5t45 16.5q27 0 44 -17t17 -44q0 -26 -17.5 -44t-43.5 -18z" />
    <glyph glyph-name="grave.case" horiz-adv-x="475" 
d="M285 1270l-181 184h86l181 -184h-86z" />
    <glyph glyph-name="hungarumlaut.case" horiz-adv-x="788" 
d="M274 1495h84l-168 -184h-86zM600 1495h86l-170 -184h-84z" />
    <glyph glyph-name="ijacute" horiz-adv-x="792" 
d="M178 1024h62v-1024h-62v1024zM580 -227v1251h61v-1249q0 -99 -60 -162.5t-153 -63.5q-58 0 -137 27v64q85 -29 135 -29q69 0 111.5 45.5t42.5 116.5zM373 1495h80l-207 -246h-80zM772 1495h80l-207 -246h-80z" />
    <glyph glyph-name="ring.case" horiz-adv-x="557" 
d="M279 1108q-75 0 -125 49.5t-50 124.5t50 123.5t125 48.5q76 0 125 -48.5t49 -123.5t-50 -124.5t-124 -49.5zM281 1393q-51 0 -83 -30.5t-32 -78.5q0 -51 32 -83t83 -32q48 0 80 32.5t32 82.5q0 47 -31.5 78t-80.5 31z" />
    <glyph glyph-name="tilde.case" horiz-adv-x="831" 
d="M156 1239l-52 31q20 45 70.5 73.5t110.5 28.5q42 0 77 -16t55.5 -35t53 -35t70.5 -16q45 0 80.5 21.5t50.5 56.5l55 -27q-22 -50 -74 -81.5t-116 -31.5q-43 0 -78.5 16t-56 35.5t-52 35.5t-65.5 16q-42 0 -76.5 -20t-52.5 -52z" />
    </font>
</defs>
</svg>
