<?xml version="1.0" standalone="no"?>
<!DOCTYPE svg PUBLIC "-//W3C//DTD SVG 1.1//EN" "http://www.w3.org/Graphics/SVG/1.1/DTD/svg11.dtd" >
<svg xmlns="http://www.w3.org/2000/svg" xmlns:xlink="http://www.w3.org/1999/xlink" version="1.1">
<metadata>
Created by FontForge 20170731 at Mon Sep 26 11:52:37 2022
 By Aleksey,,,
Copyright (c) 2017 by Alexander Slobzheninov. All rights reserved.

</metadata>
<defs>
<font id="Objective-Italic" horiz-adv-x="1239" >
  <font-face 
    font-family="Objective"
    font-weight="400"
    font-style="italic"
    font-stretch="normal"
    units-per-em="2048"
    panose-1="0 0 0 0 0 0 0 0 0 0"
    ascent="1638"
    descent="-410"
    x-height="1034"
    cap-height="1444"
    bbox="-147 -606 2967.87 2064"
    underline-thickness="102"
    underline-position="-358"
    unicode-range="U+000D-F6C3"
  />
<missing-glyph horiz-adv-x="1024" 
 />
    <glyph glyph-name=".notdef" horiz-adv-x="1024" 
 />
    <glyph glyph-name=".null" horiz-adv-x="0" 
 />
    <glyph glyph-name="nonmarkingreturn" horiz-adv-x="682" 
 />
    <glyph glyph-name="NULL" horiz-adv-x="1497" 
d="M1303 0h-1108l127 1444h1108zM1169 127l105 1188h-823l-105 -1188h823z" />
    <glyph glyph-name="NULL" horiz-adv-x="1497" 
d="M1303 0h-1108l127 1444h1108zM1169 127l105 1188h-823l-105 -1188h823z" />
    <glyph glyph-name="CR" unicode="&#xd;" horiz-adv-x="61" 
 />
    <glyph glyph-name="space" unicode=" " horiz-adv-x="630" 
 />
    <glyph glyph-name="exclam" unicode="!" horiz-adv-x="501" 
d="M152 82q3 44 35.5 74t78.5 30q47 0 74.5 -29.5t24.5 -74.5q-5 -47 -37.5 -77t-79.5 -30q-46 0 -73 30t-23 77zM258 1065l35 379h172l-35 -379l-92 -633h-100z" />
    <glyph glyph-name="quotedbl" unicode="&#x22;" horiz-adv-x="665" 
d="M231 1444h140l-25 -285l-47 -368h-111l19 368zM549 1444h139l-24 -285l-46 -368h-110l16 368z" />
    <glyph glyph-name="numbersign" unicode="#" horiz-adv-x="1945" 
d="M1286 618h506l-10 -118h-537l-174 -500h-139l176 500h-360l-177 -500h-139l178 500h-463l11 118h493l113 316h-475l10 119h506l160 454h139l-160 -454h359l159 454h140l-160 -454h491l-10 -119h-524zM1262 934h-361l-113 -316h361z" />
    <glyph glyph-name="dollar" unicode="$" horiz-adv-x="1439" 
d="M793 -49l-19 -199h-160l19 203q-220 31 -347 172t-108 340h170q-14 -160 101 -263.5t309 -103.5q174 0 286 80t121 197q6 63 -23.5 109t-83 73.5t-125 47.5t-150.5 36t-158 34t-149.5 47t-123 69t-80.5 105.5t-20 152.5q15 180 156.5 301.5t359.5 138.5l16 188h160
l-16 -190q209 -26 330 -159.5t104 -323.5h-166q13 148 -92.5 242.5t-282.5 94.5q-168 0 -278 -76t-119 -190q-5 -61 24.5 -106t83.5 -71.5t125 -46.5t150.5 -36t158.5 -34.5t149 -48t122.5 -70.5t80 -108t19.5 -155q-15 -187 -163.5 -312t-380.5 -138z" />
    <glyph glyph-name="percent" unicode="%" horiz-adv-x="2082" 
d="M1634 805q183 0 288.5 -114.5t90.5 -297.5q-17 -185 -141.5 -299t-308.5 -114q-182 0 -287 114.5t-88 298.5q15 183 139.5 297.5t306.5 114.5zM1622 645q-111 0 -188 -70t-86 -182q-10 -112 54 -182t175 -70q113 0 189.5 70t86.5 182q9 113 -55 182.5t-176 69.5z
M651 1526q183 0 288.5 -115.5t90.5 -298.5q-17 -183 -142 -297.5t-308 -114.5t-288.5 114.5t-88.5 297.5q15 183 140 298.5t308 115.5zM637 1364q-113 0 -189.5 -70t-85.5 -182q-10 -112 54.5 -182t177.5 -70q112 0 187.5 69.5t86.5 182.5q9 113 -55 182.5t-176 69.5zM612 0
h-192l1184 1505h190z" />
    <glyph glyph-name="ampersand" unicode="&#x26;" horiz-adv-x="1619" 
d="M1513 0h-229l-168 164q-242 -215 -506 -215q-207 0 -332 115.5t-110 295.5q7 81 36.5 147.5t79 115.5t103.5 84t125 67q-134 164 -121 336q9 104 68.5 188t155.5 132t208 49q164 0 271.5 -101t115.5 -258l-161 -30q-5 104 -69 170.5t-165 66.5q-103 0 -176 -62.5
t-82 -162.5q-12 -146 137 -295q30 -29 219 -215.5t220 -216.5q112 132 190 321h162q-101 -238 -254 -417q226 -227 282 -279zM643 100q199 0 373 160q-114 118 -404 408q-126 -46 -195.5 -117t-78.5 -186q-10 -115 76 -190t229 -75z" />
    <glyph glyph-name="quotesingle" unicode="'" horiz-adv-x="346" 
d="M231 1444h140l-25 -285l-47 -368h-111l19 368z" />
    <glyph glyph-name="parenleft" unicode="(" horiz-adv-x="681" 
d="M174 571q25 277 137 534t271 404h163q-173 -158 -289 -410t-141 -528q-25 -283 47.5 -535t219.5 -405h-164q-132 147 -199.5 405t-44.5 535z" />
    <glyph glyph-name="parenright" unicode=")" horiz-adv-x="681" 
d="M606 571q-23 -278 -135 -535.5t-272 -404.5h-164q174 153 289.5 405t140.5 535q25 278 -46.5 529.5t-219.5 408.5h163q134 -147 201.5 -404t42.5 -534z" />
    <glyph glyph-name="asterisk" unicode="*" horiz-adv-x="1048" 
d="M1047 1167l-328 -174l297 -174l-68 -102l-291 180l-26 -354h-119l35 354l-320 -180l-51 102l324 174l-293 174l67 103l289 -183l29 357h119l-37 -357l321 183z" />
    <glyph glyph-name="plus" unicode="+" horiz-adv-x="1171" 
d="M1130 717l-12 -144h-401l-35 -389h-160l35 389h-401l12 144h401l31 368h160l-31 -368h401z" />
    <glyph glyph-name="comma" unicode="," horiz-adv-x="432" 
d="M113 80q4 45 36.5 73.5t77.5 28.5q53 0 81.5 -39t23.5 -104q-9 -95 -58 -182.5t-118 -130.5l-70 55q48 33 82.5 87t38.5 107q-45 0 -71 29t-23 76z" />
    <glyph glyph-name="hyphen" unicode="-" horiz-adv-x="1048" 
d="M993 567h-839l12 144h840z" />
    <glyph glyph-name="period" unicode="." horiz-adv-x="421" 
d="M113 82q3 45 35 74.5t79 29.5q46 0 74 -30t25 -74q-4 -47 -37.5 -77t-79.5 -30q-47 0 -74 30t-22 77z" />
    <glyph glyph-name="slash" unicode="/" horiz-adv-x="907" 
d="M182 -471h-155l784 1915h156z" />
    <glyph glyph-name="zero" unicode="0" horiz-adv-x="1517" 
d="M209 721q19 223 111 399t240.5 275.5t328.5 99.5q181 0 312.5 -99.5t192.5 -275.5t42 -399q-19 -221 -111 -397t-241 -275.5t-330 -99.5q-180 0 -311 99.5t-192 275.5t-42 397zM379 721q-16 -178 26 -319t136 -221.5t225 -80.5t239.5 80.5t176.5 221.5t84 319
q15 179 -28 320.5t-138 221.5t-226 80t-238.5 -80t-174.5 -221.5t-82 -320.5z" />
    <glyph glyph-name="one" unicode="1" horiz-adv-x="815" 
d="M727 1444l-127 -1444h-172l107 1217l-371 -269l16 203l410 293h137z" />
    <glyph glyph-name="two" unicode="2" horiz-adv-x="1296" 
d="M786 1495q214 0 344 -128.5t113 -322.5q-13 -142 -102 -260t-248 -235l-543 -397h791l-13 -152h-978l16 195l647 479q118 88 184 173t74 185q12 134 -72 222.5t-225 88.5q-136 0 -244.5 -97.5t-140.5 -250.5l-162 33q49 203 207.5 335t351.5 132z" />
    <glyph glyph-name="three" unicode="3" horiz-adv-x="1300" 
d="M551 715l-41 125l455 452h-670l14 152h916l-11 -115l-448 -448q199 -11 322 -141.5t106 -321.5q-19 -204 -177 -336.5t-384 -132.5q-212 0 -351.5 140.5t-138.5 354.5l154 27q5 -161 101 -266t241 -105q155 0 265 91t122 229q12 140 -81.5 230.5t-250.5 90.5
q-89 0 -143 -26z" />
    <glyph glyph-name="four" unicode="4" horiz-adv-x="1263" 
d="M786 0l31 328h-715l11 110l729 1006h243l-86 -965h181l-13 -151h-180l-29 -328h-172zM897 1272l-573 -793h505z" />
    <glyph glyph-name="five" unicode="5" horiz-adv-x="1306" 
d="M676 758h-367l135 686h740l-15 -152h-600l-71 -383h209q245 0 382.5 -135t118.5 -348q-19 -207 -174.5 -342t-376.5 -135q-212 0 -348.5 140t-134.5 355l154 27q-1 -161 93.5 -266t240.5 -105q152 0 259 91t119 231q12 149 -86 242.5t-278 93.5z" />
    <glyph glyph-name="six" unicode="6" horiz-adv-x="1284" 
d="M324 805l536 639h207l-481 -574q76 35 174 35q217 0 346.5 -132.5t112.5 -336.5q-19 -212 -182.5 -349.5t-395.5 -137.5q-233 0 -375 136.5t-125 334.5q16 185 183 385zM313 434q-14 -145 84 -239.5t262 -94.5q156 2 265.5 96t122.5 240q12 140 -81.5 232t-248.5 92
q-163 1 -277.5 -91t-126.5 -235z" />
    <glyph glyph-name="seven" unicode="7" horiz-adv-x="1056" 
d="M166 1444h975l-11 -103l-684 -1341h-184l660 1292h-770z" />
    <glyph glyph-name="eight" unicode="8" horiz-adv-x="1380" 
d="M821 1497q211 0 337.5 -108.5t111.5 -278.5q-9 -121 -86.5 -215.5t-190.5 -122.5q132 -31 209.5 -141.5t65.5 -251.5q-15 -187 -179.5 -307.5t-402.5 -120.5q-237 0 -380 120.5t-128 307.5q12 141 108.5 251.5t235.5 141.5q-106 28 -167 122t-52 216q15 169 161 278
t357 109zM750 688q-155 0 -264 -83t-119 -210q-11 -129 82.5 -212t248.5 -83q157 0 266 83t119 212q10 127 -84 210t-249 83zM807 1343q-135 0 -229 -70t-103 -179q-10 -110 72 -182t217 -72t229 72t105 182q9 109 -73.5 179t-217.5 70z" />
    <glyph glyph-name="nine" unicode="9" horiz-adv-x="1284" 
d="M1083 625l-534 -625h-207l471 551q-76 -31 -164 -31q-218 0 -346.5 135t-109.5 344q19 215 181 354.5t394 139.5q234 0 376.5 -138t123.5 -341q-17 -191 -185 -389zM1096 999q12 150 -86 246.5t-260 95.5q-155 0 -265.5 -97t-122.5 -245q-13 -146 79.5 -239.5
t248.5 -93.5q163 -2 278 92.5t128 240.5z" />
    <glyph glyph-name="colon" unicode=":" horiz-adv-x="421" 
d="M113 82q3 45 35 74.5t79 29.5q46 0 74 -30t25 -74q-4 -47 -37.5 -77t-79.5 -30q-47 0 -74 30t-22 77zM180 877q5 46 37.5 75t79.5 29q46 0 73 -29t23 -75q-3 -46 -35.5 -76.5t-78.5 -30.5q-47 0 -74.5 30.5t-24.5 76.5z" />
    <glyph glyph-name="semicolon" unicode=";" horiz-adv-x="432" 
d="M180 877q5 46 37.5 75t79.5 29q46 0 73 -29t23 -75q-3 -46 -35.5 -76.5t-78.5 -30.5q-47 0 -74.5 30.5t-24.5 76.5zM113 80q4 45 36.5 73.5t77.5 28.5q53 0 81.5 -39t23.5 -104q-9 -95 -58 -182.5t-118 -130.5l-70 55q48 33 82.5 87t38.5 107q-45 0 -71 29t-23 76z" />
    <glyph glyph-name="less" unicode="&#x3c;" horiz-adv-x="954" 
d="M920 1034l-13 -151l-676 -367l611 -366l-13 -150l-723 440l13 152z" />
    <glyph glyph-name="equal" unicode="=" horiz-adv-x="1171" 
d="M1108 457l-14 -144h-963l14 144h963zM1151 971l-12 -144h-963l12 144h963z" />
    <glyph glyph-name="greater" unicode="&#x3e;" horiz-adv-x="954" 
d="M137 150l674 366l-608 367l12 151l723 -442l-12 -152l-801 -440z" />
    <glyph glyph-name="question" unicode="?" horiz-adv-x="1230" 
d="M504 80q5 45 37.5 74.5t79.5 29.5q46 0 73 -29t23 -75q-3 -47 -36 -77t-79 -30q-47 0 -74 30t-24 77zM717 367h-158q7 84 26 148t53 113t73.5 84.5t97.5 73.5q51 32 80.5 54.5t64 56t52.5 72.5t22 86q10 123 -71 205.5t-212 82.5q-140 0 -241 -96t-131 -248l-158 31
q43 205 193.5 335t353.5 130q202 0 328.5 -125t109.5 -313q-4 -48 -15.5 -89t-34 -75t-44.5 -60.5t-58.5 -54.5t-64.5 -46.5t-74 -47.5q-98 -62 -140 -128.5t-52 -188.5z" />
    <glyph glyph-name="at" unicode="@" horiz-adv-x="2099" 
d="M326 532q-14 -161 27 -300t126.5 -237.5t213.5 -155t282 -56.5q75 0 159.5 20.5t137.5 49.5l-12 -142q-123 -63 -297 -63q-183 0 -338 67t-260 183.5t-157.5 281t-35.5 352.5q22 255 158.5 458.5t358 318t487.5 114.5q199 0 365 -67t277 -184.5t165.5 -283t37.5 -356.5
q-22 -241 -126.5 -393.5t-256.5 -152.5q-109 0 -174 78t-55 208q-46 -82 -156.5 -134t-238.5 -52q-182 0 -286 127t-87 319q17 196 157.5 323.5t338.5 127.5q199 0 315.5 -122.5t99.5 -311.5l-20 -262q-6 -77 26.5 -125.5t88.5 -48.5q87 0 145 115.5t76 303.5
q18 216 -66 389t-251.5 270t-387.5 97q-166 0 -314.5 -57t-258.5 -156.5t-180 -240t-84 -302.5zM1124 848q-131 0 -223 -89.5t-104 -226.5q-12 -135 65 -222t209 -87q129 0 221.5 87t104.5 222q12 138 -64.5 227t-208.5 89z" />
    <glyph glyph-name="A" unicode="A" horiz-adv-x="1441" 
d="M242 0h-183l666 1444h246l411 -1444h-182l-92 340h-717zM836 1292l-383 -819h620z" />
    <glyph glyph-name="B" unicode="B" horiz-adv-x="1441" 
d="M801 0h-606l127 1444h610q195 0 313 -110t103 -279q-9 -110 -82 -197t-176 -113q117 -28 184.5 -123.5t56.5 -218.5q-15 -175 -165 -289t-365 -114zM838 668h-414l-47 -516h414q152 0 256.5 73.5t115.5 186.5q9 113 -82 184.5t-243 71.5zM897 1292h-420l-41 -473h420
q132 0 222.5 66t99.5 170q9 103 -70 170t-211 67z" />
    <glyph glyph-name="C" unicode="C" horiz-adv-x="1681" 
d="M1434 481l161 -30q-72 -217 -276.5 -359.5t-448.5 -142.5q-161 0 -295 58t-224 159.5t-133.5 245t-29.5 309.5t83.5 310t177 246t252 160t305.5 58t298.5 -68t226 -188t109.5 -270l-167 -21q-26 170 -162.5 282.5t-319.5 112.5q-167 0 -306 -79.5t-225.5 -221.5
t-101.5 -321q-11 -133 22.5 -248.5t102.5 -197.5t172.5 -128.5t227.5 -46.5q182 0 337 108t214 273z" />
    <glyph glyph-name="D" unicode="D" horiz-adv-x="1599" 
d="M635 0h-440l127 1444h440q249 0 432 -90t272.5 -254t71.5 -379q-19 -214 -138 -378t-317.5 -253.5t-447.5 -89.5zM1370 721q23 261 -148 416t-474 155h-271l-100 -1140h270q303 0 501.5 155t221.5 414z" />
    <glyph glyph-name="E" unicode="E" horiz-adv-x="1320" 
d="M1169 819l-12 -143h-737l-47 -524h839l-12 -152h-1005l127 1444h985l-15 -152h-819l-41 -473h737z" />
    <glyph glyph-name="F" unicode="F" horiz-adv-x="1189" 
d="M477 1292l-49 -561h621l-13 -141h-620l-51 -590h-170l127 1444h911l-14 -152h-742z" />
    <glyph glyph-name="G" unicode="G" horiz-adv-x="1777" 
d="M1536 643l-582 2l13 152h753q-3 -182 -66.5 -339.5t-172 -269.5t-260 -175.5t-324.5 -63.5q-222 0 -391 99.5t-253 276t-65 396.5q19 222 134 398.5t301 276t409 99.5q150 0 282.5 -55.5t222 -154.5t116.5 -222l-162 -49q-32 143 -166 236t-307 93q-174 0 -319.5 -79
t-235.5 -221t-105 -322q-16 -177 49 -319t196.5 -222t305.5 -80q243 0 422.5 155.5t204.5 387.5z" />
    <glyph glyph-name="H" unicode="H" horiz-adv-x="1523" 
d="M1161 0l60 676h-799l-60 -676h-169l126 1444h170l-55 -617h799l55 617h170l-127 -1444h-170z" />
    <glyph glyph-name="I" unicode="I" horiz-adv-x="559" 
d="M365 0h-170l127 1444h170z" />
    <glyph glyph-name="J" unicode="J" horiz-adv-x="966" 
d="M637 432l90 1012h172l-88 -1010q-20 -213 -153 -344t-322 -131q-131 0 -256 41l12 147q116 -36 223 -36q133 0 222.5 86.5t99.5 234.5z" />
    <glyph glyph-name="K" unicode="K" horiz-adv-x="1265" 
d="M424 682l-59 -682h-170l127 1444h170l-56 -633l668 633h223l-745 -699l639 -745h-224z" />
    <glyph glyph-name="L" unicode="L" horiz-adv-x="1183" 
d="M492 1444l-115 -1292h739l-12 -152h-909l127 1444h170z" />
    <glyph glyph-name="M" unicode="M" horiz-adv-x="1937" 
d="M1036 0h-137l-428 1225l-106 -1225h-170l127 1444h249l418 -1206l631 1206h250l-127 -1444h-170l106 1227z" />
    <glyph glyph-name="N" unicode="N" horiz-adv-x="1529" 
d="M365 0h-170l127 1444h231l631 -1235l108 1235h172l-127 -1444h-231l-633 1235z" />
    <glyph glyph-name="O" unicode="O" horiz-adv-x="1802" 
d="M188 721q14 168 84.5 312t181 245.5t260.5 159t318 57.5q225 0 394 -98.5t252.5 -275t64.5 -400.5q-20 -224 -134.5 -400t-300.5 -274t-411 -98q-168 0 -308 57.5t-233 158.5t-138 244.5t-30 311.5zM358 721q-16 -178 49 -319.5t196.5 -221t305.5 -80.5q131 0 248 46.5
t203.5 128.5t142.5 197.5t68 248.5q23 272 -132.5 447t-420.5 175q-174 0 -319.5 -79.5t-235.5 -221.5t-105 -321z" />
    <glyph glyph-name="P" unicode="P" horiz-adv-x="1382" 
d="M799 528h-391l-48 -528h-165l127 1444h557q229 0 365.5 -129.5t119.5 -329.5q-19 -199 -178 -328t-387 -129zM842 1292h-369l-53 -610h368q163 0 278.5 86t125.5 217q13 133 -86 220t-264 87z" />
    <glyph glyph-name="Q" unicode="Q" horiz-adv-x="1802" 
d="M188 721q14 168 84.5 312t181 245.5t260.5 159t318 57.5q225 0 394 -98.5t252.5 -275t64.5 -400.5q-19 -202 -114.5 -365.5t-250.5 -265.5l269 -385h-203l-217 307q-154 -63 -330 -63q-168 0 -308 57.5t-233 158.5t-138 244.5t-30 311.5zM358 721q-16 -178 49 -319.5
t196.5 -221t305.5 -80.5q264 0 450.5 175.5t211.5 445.5q23 272 -132.5 447t-420.5 175q-174 0 -319.5 -79.5t-235.5 -221.5t-105 -321z" />
    <glyph glyph-name="R" unicode="R" horiz-adv-x="1495" 
d="M874 565h-460l-49 -565h-170l127 1444h636q229 0 365 -125t119 -320q-13 -147 -123 -261t-270 -148l317 -590h-199zM932 1292h-455l-49 -575h455q160 0 269.5 79t119.5 203q10 135 -84 214t-256 79z" />
    <glyph glyph-name="S" unicode="S" horiz-adv-x="1439" 
d="M741 -51q-266 0 -424.5 146t-138.5 372h170q-14 -160 101 -263.5t309 -103.5q174 0 286 80t121 197q6 63 -23.5 109t-83 73.5t-125 47.5t-150.5 36t-158 34t-149.5 47t-123 69t-80.5 105.5t-20 152.5q17 194 179.5 319t404.5 125q163 0 287.5 -62.5t187.5 -174t51 -252.5
h-166q13 148 -92.5 242.5t-282.5 94.5q-168 0 -278 -76t-119 -190q-5 -61 24.5 -106t83.5 -71.5t125 -46.5t150.5 -36t158.5 -34.5t149 -48t122.5 -70.5t80 -108t19.5 -155q-18 -197 -181.5 -324.5t-414.5 -127.5z" />
    <glyph glyph-name="T" unicode="T" horiz-adv-x="1222" 
d="M809 1292l-113 -1292h-170l113 1292h-483l14 152h1137l-15 -152h-483z" />
    <glyph glyph-name="U" unicode="U" horiz-adv-x="1533" 
d="M1233 586l76 858h170l-76 -858q-25 -280 -204 -458.5t-435 -178.5q-170 0 -297 81t-188.5 226.5t-45.5 329.5l76 858h170l-76 -858q-12 -132 29 -242.5t131 -177t213 -66.5q185 0 311.5 135.5t145.5 350.5z" />
    <glyph glyph-name="V" unicode="V" horiz-adv-x="1423" 
d="M840 0h-254l-400 1444h181l358 -1315l586 1315h180z" />
    <glyph glyph-name="W" unicode="W" horiz-adv-x="2203" 
d="M655 115l453 1329h250l211 -1329l489 1329h176l-536 -1444h-275l-211 1266l-430 -1266h-276l-285 1444h178z" />
    <glyph glyph-name="X" unicode="X" horiz-adv-x="1427" 
d="M766 657l-483 -657h-203l567 762l-422 682h207l352 -582l465 582h207l-551 -682l445 -762h-205z" />
    <glyph glyph-name="Y" unicode="Y" horiz-adv-x="1325" 
d="M797 537l-47 -537h-172l47 537l-439 907h189l350 -744l475 744h193z" />
    <glyph glyph-name="Z" unicode="Z" horiz-adv-x="1329" 
d="M1245 141l-12 -141h-1139l10 113l992 1187h-867l13 144h1097l-10 -113l-989 -1190h905z" />
    <glyph glyph-name="bracketleft" unicode="[" horiz-adv-x="921" 
d="M326 1505h661l-10 -121h-510l-143 -1634h510l-13 -119h-659z" />
    <glyph glyph-name="backslash" unicode="\" horiz-adv-x="907" 
d="M350 1444l449 -1915h-156l-448 1915h155z" />
    <glyph glyph-name="bracketright" unicode="]" horiz-adv-x="921" 
d="M188 1384l11 121h661l-164 -1874h-661l10 119h510l143 1634h-510z" />
    <glyph glyph-name="asciicircum" unicode="^" horiz-adv-x="1173" 
d="M1145 819h-158l-285 520l-370 -520h-160l457 625h170z" />
    <glyph glyph-name="underscore" unicode="_" horiz-adv-x="1024" 
d="M1024 0l-12 -133h-1024l12 133h1024z" />
    <glyph glyph-name="grave" unicode="`" horiz-adv-x="606" 
d="M418 1536l194 -283h-166l-206 283h178z" />
    <glyph glyph-name="a" unicode="a" horiz-adv-x="1370" 
d="M1126 850l17 184h155l-90 -1034h-155l16 182q-76 -104 -190 -163.5t-246 -59.5q-152 0 -267.5 71.5t-172.5 199t-43 286.5q22 243 185.5 401t395.5 158q132 0 234.5 -59.5t160.5 -165.5zM664 100q171 0 294 118t138 298q15 181 -86.5 298.5t-272.5 117.5
q-172 0 -294.5 -117.5t-137.5 -298.5q-15 -180 86.5 -298t272.5 -118z" />
    <glyph glyph-name="b" unicode="b" horiz-adv-x="1363" 
d="M330 178l-17 -178h-151l131 1505h156l-56 -645q75 101 186.5 158t241.5 57q114 0 209.5 -42t159.5 -115.5t95 -177.5t20 -224q-22 -241 -187 -399t-395 -158q-131 0 -233 58t-160 161zM1149 516q15 177 -87 292.5t-274 115.5t-293.5 -115.5t-136.5 -292.5
q-15 -175 87 -290t274 -115q171 0 293 114t137 291z" />
    <glyph glyph-name="c" unicode="c" horiz-adv-x="1249" 
d="M1204 696l-153 -20q-20 114 -111.5 188t-214.5 74q-164 0 -284.5 -120t-135.5 -302q-15 -183 83 -301.5t263 -118.5q125 0 228 72t143 184l152 -20q-33 -107 -113 -192.5t-190.5 -133t-231.5 -47.5q-155 0 -271.5 71t-174 198.5t-43.5 287.5q22 243 188 401t399 158
q187 0 319.5 -107.5t147.5 -271.5z" />
    <glyph glyph-name="d" unicode="d" horiz-adv-x="1363" 
d="M1122 860l56 645h155l-131 -1505h-151l16 178q-76 -103 -189 -161t-243 -58q-232 0 -369.5 158t-115.5 399q22 243 186.5 401t396.5 158q128 0 228.5 -57t160.5 -158zM305 516q-15 -178 87.5 -291.5t273.5 -113.5t293 115t137 290q15 177 -87 292.5t-274 115.5
t-293.5 -115.5t-136.5 -292.5z" />
    <glyph glyph-name="e" unicode="e" horiz-adv-x="1300" 
d="M659 100q116 0 222.5 59.5t152.5 147.5l135 -51q-60 -129 -205 -213t-307 -84q-160 0 -281 73t-180 203t-44 293q10 117 60 218.5t128.5 173.5t184 113.5t223.5 41.5q236 0 375.5 -155.5t117.5 -393.5q0 -26 -6 -61l-930 2q5 -163 103 -265t251 -102zM322 602l763 -2
q-9 149 -106 240.5t-250 91.5q-150 0 -261.5 -91.5t-145.5 -238.5z" />
    <glyph glyph-name="f" unicode="f" horiz-adv-x="774" 
d="M827 1520l-12 -136q-63 19 -115 19q-68 0 -113.5 -45.5t-51.5 -124.5l-19 -199h264l-10 -129h-264l-80 -905h-158l80 905h-168l10 129h168l19 215q13 135 95 216t202 81q80 0 153 -26z" />
    <glyph glyph-name="g" unicode="g" horiz-adv-x="1363" 
d="M139 -154l154 37q25 -113 119 -183.5t221 -70.5q169 0 284 103.5t132 283.5l14 164q-78 -100 -187.5 -154.5t-238.5 -54.5q-232 0 -369.5 154.5t-117.5 390.5q22 241 186.5 398t396.5 157q131 0 230 -55t159 -154l15 172h155l-88 -1018q-21 -244 -181.5 -386t-395.5 -142
q-187 0 -323 100t-165 258zM666 113q172 0 293.5 114t136.5 289q15 182 -86 299t-273 117t-294.5 -117.5t-137.5 -298.5q-15 -174 87.5 -288.5t273.5 -114.5z" />
    <glyph glyph-name="h" unicode="h" 
d="M764 1075q194 0 300 -128t87 -329l-53 -618h-156l53 618q12 139 -58.5 226.5t-205.5 87.5q-136 0 -242 -94t-118 -234l-54 -604h-155l131 1505h156l-54 -618q59 87 160 137.5t209 50.5z" />
    <glyph glyph-name="i" unicode="i" horiz-adv-x="528" 
d="M342 0h-156l90 1034h156zM274 1331q3 46 35.5 75.5t79.5 29.5q46 0 73.5 -29.5t24.5 -75.5q-5 -46 -37.5 -76t-78.5 -30q-47 0 -74.5 30t-22.5 76z" />
    <glyph glyph-name="j" unicode="j" horiz-adv-x="520" 
d="M166 -154l104 1188h156l-104 -1204q-12 -131 -94 -211t-203 -80q-93 0 -172 27l12 137q56 -20 131 -20q70 0 117 45.5t53 117.5zM268 1331q3 46 35.5 75.5t79.5 29.5q46 0 73.5 -29.5t24.5 -75.5q-5 -46 -37.5 -76t-78.5 -30q-47 0 -74.5 30t-22.5 76z" />
    <glyph glyph-name="k" unicode="k" horiz-adv-x="1054" 
d="M360 489l-43 -489h-155l131 1505h156l-78 -889l487 418h211l-559 -481l489 -553h-211z" />
    <glyph glyph-name="l" unicode="l" horiz-adv-x="477" 
d="M317 0h-157l131 1505h158z" />
    <glyph glyph-name="m" unicode="m" horiz-adv-x="1900" 
d="M373 621l-56 -621h-155l90 1034h151l-10 -129q56 80 139.5 125t182.5 45q126 0 219 -59t129 -158q58 100 157 157.5t220 57.5q182 0 286.5 -128t85.5 -327l-53 -618h-157l55 621q11 137 -58.5 224t-189.5 87q-129 0 -217.5 -87t-99.5 -224l-56 -621h-155l55 621
q11 140 -56.5 225.5t-191.5 85.5q-129 0 -217 -86t-98 -225z" />
    <glyph glyph-name="n" unicode="n" 
d="M766 1075q195 0 299.5 -128t85.5 -329l-53 -618h-156l53 618q12 140 -56 227t-202 87q-138 0 -246 -94t-120 -234l-54 -604h-155l90 1034h156l-13 -145q61 86 162 136t209 50z" />
    <glyph glyph-name="o" unicode="o" horiz-adv-x="1308" 
d="M1251 516q-22 -245 -190.5 -401t-411.5 -156t-383.5 156t-118.5 401q22 246 190 402.5t411 156.5t384 -156.5t119 -402.5zM1094 516q15 182 -86 299t-273 117t-294.5 -117.5t-137.5 -298.5q-15 -180 86.5 -298t272.5 -118q172 0 294.5 118t137.5 298z" />
    <glyph glyph-name="p" unicode="p" horiz-adv-x="1363" 
d="M332 174l-56 -645h-155l131 1505h151l-14 -178q75 103 187.5 161t244.5 58q152 0 267.5 -71.5t173 -199.5t43.5 -288q-22 -242 -186.5 -399.5t-395.5 -157.5q-130 0 -231 56t-160 159zM1149 516q15 179 -87.5 293.5t-273.5 114.5q-172 0 -293.5 -115.5t-136.5 -292.5
q-15 -175 87 -290t274 -115q171 0 293 115t137 290z" />
    <glyph glyph-name="q" unicode="q" horiz-adv-x="1363" 
d="M1126 856l15 178h151l-131 -1505h-155l55 645q-74 -102 -185 -158.5t-241 -56.5q-232 0 -369.5 158t-115.5 399q22 243 186.5 401t396.5 158q130 0 231.5 -58t161.5 -161zM305 516q-15 -175 87 -290t274 -115q171 0 293 115t137 290q15 177 -87 292.5t-274 115.5
q-171 0 -293 -114.5t-137 -293.5z" />
    <glyph glyph-name="r" unicode="r" horiz-adv-x="806" 
d="M694 1071q61 0 137 -29l-14 -143q-67 33 -149 33q-121 0 -203 -98t-96 -254l-52 -580h-155l90 1034h151l-12 -143q115 180 303 180z" />
    <glyph glyph-name="s" unicode="s" horiz-adv-x="1107" 
d="M565 -41q-200 0 -319.5 110t-102.5 277h152q-9 -107 71 -176.5t212 -69.5q119 0 201.5 52.5t88.5 130.5q3 41 -19 71t-61.5 47.5t-91.5 30t-110 23.5t-115.5 24t-108.5 34.5t-89.5 52t-58 80.5t-13.5 116q10 134 133 223.5t291 89.5q191 0 307.5 -99t103.5 -251l-153 2
q8 89 -70 147t-205 58q-101 0 -176 -50t-82 -124q-4 -51 32.5 -85t98 -52t136 -32t148.5 -33.5t134.5 -48t95 -83t27.5 -131.5q-14 -143 -143 -238.5t-314 -95.5z" />
    <glyph glyph-name="t" unicode="t" horiz-adv-x="794" 
d="M272 256l58 649h-170l10 129h176l45 242h127l-22 -242h268l-10 -129h-269l-57 -643q-6 -76 33 -122.5t112 -47.5q55 0 127 21l-12 -129q-84 -25 -166 -25q-127 0 -194.5 81.5t-55.5 215.5z" />
    <glyph glyph-name="u" unicode="u" 
d="M563 -41q-195 0 -299.5 128t-85.5 329l53 618h156l-53 -618q-12 -140 56.5 -228t203.5 -88q137 0 244.5 94.5t119.5 233.5l54 606h155l-90 -1034h-155l12 145q-59 -85 -161 -135.5t-210 -50.5z" />
    <glyph glyph-name="v" unicode="v" horiz-adv-x="1155" 
d="M1010 1034h168l-490 -1034h-219l-311 1034h168l262 -909z" />
    <glyph glyph-name="w" unicode="w" horiz-adv-x="1800" 
d="M1147 0l-174 852l-322 -852h-213l-260 1034h164l219 -880l336 880h182l193 -880l366 880h164l-442 -1034h-213z" />
    <glyph glyph-name="x" unicode="x" horiz-adv-x="1136" 
d="M1049 0h-191l-252 438l-327 -438h-191l412 537l-301 497h184l240 -403l311 403h184l-387 -497z" />
    <glyph glyph-name="y" unicode="y" horiz-adv-x="1165" 
d="M94 -426l12 137q79 -28 134 -28q32 0 59.5 8.5t51.5 28.5t41.5 38.5t38.5 53.5t33 57.5t34.5 67t33.5 65.5l-374 1032h172l295 -839l397 839h166l-504 -1048q-25 -51 -38.5 -78t-37.5 -72.5t-40 -70t-40.5 -60.5t-45 -55.5t-48.5 -43t-55 -35.5t-60 -20t-69 -8
q-79 0 -156 31z" />
    <glyph glyph-name="z" unicode="z" horiz-adv-x="1138" 
d="M1034 0h-930l9 102l743 789h-653l12 143h889l-8 -102l-746 -791h697z" />
    <glyph glyph-name="braceleft" unicode="{" horiz-adv-x="759" 
d="M551 -250h119l-11 -119h-186q-103 0 -161.5 66t-49.5 170l43 495q6 60 -27 98t-90 38h-20l14 159h21q57 0 96 38t45 98l41 475q9 106 79 171.5t173 65.5h186l-10 -121h-119q-66 0 -109.5 -41.5t-49.5 -109.5l-41 -455q-6 -82 -60 -137t-133 -61l-20 -2l20 -3
q77 -5 121 -59t37 -137l-41 -477q-6 -68 30.5 -110t102.5 -42z" />
    <glyph glyph-name="bar" unicode="|" horiz-adv-x="536" 
d="M473 1505l-172 -1976h-147l172 1976h147z" />
    <glyph glyph-name="braceright" unicode="}" horiz-adv-x="759" 
d="M221 -369h-186l10 119h119q66 0 111 42t51 110l41 477q8 84 60.5 138t133.5 58l21 3l-21 2q-79 6 -122.5 60t-37.5 138l41 455q6 67 -31.5 109t-103.5 42h-119l11 121h186q103 0 161.5 -65.5t49.5 -171.5l-41 -475q-6 -60 26.5 -98t90.5 -38h20l-14 -159h-21
q-58 0 -96.5 -37.5t-44.5 -98.5l-43 -495q-9 -104 -79 -170t-173 -66z" />
    <glyph glyph-name="asciitilde" unicode="~" horiz-adv-x="1333" 
d="M479 823q54 0 112.5 -24.5t109.5 -59.5t100 -69.5t101 -59t97 -24.5q60 1 119.5 35t102.5 90l61 -97q-56 -73 -141.5 -119t-161.5 -46q-54 0 -112 24t-108.5 58.5t-99.5 69.5t-102 59t-100 24q-60 0 -122.5 -34.5t-113.5 -92.5l-59 94q58 76 148 124t169 48z" />
    <glyph glyph-name="exclamdown" unicode="&#xa1;" horiz-adv-x="497" 
d="M326 -92l-33 -379h-172l33 379l92 631h100zM434 891q-5 -46 -37 -75.5t-78 -29.5q-47 0 -75 29.5t-23 75.5q4 47 37 76.5t80 29.5q46 0 73 -29.5t23 -76.5z" />
    <glyph glyph-name="cent" unicode="&#xa2;" horiz-adv-x="1249" 
d="M723 -35l-16 -186h-158l14 184q-202 26 -317.5 179t-95.5 374q20 222 162 374.5t350 178.5l14 176h158l-15 -176q158 -23 265 -125.5t120 -247.5l-153 -20q-20 114 -111.5 188t-214.5 74q-164 0 -284.5 -120t-135.5 -302q-15 -183 83 -301.5t263 -118.5q125 0 228 72
t143 184l152 -20q-42 -143 -166.5 -243.5t-284.5 -123.5z" />
    <glyph glyph-name="sterling" unicode="&#xa3;" 
d="M840 1358q-108 0 -175.5 -80t-78.5 -209l-25 -283h514l-12 -141h-522q-15 -123 -40 -212.5t-60.5 -146.5t-74.5 -90t-90 -55h867l-13 -141h-1026l17 182q41 8 72.5 22t64 46t55.5 81t41.5 128.5t28.5 185.5h-201l13 141h204l25 283q15 190 130 308t296 118
q180 0 277.5 -118.5t97.5 -311.5l-154 -29q3 145 -56.5 233.5t-174.5 88.5z" />
    <glyph glyph-name="currency" unicode="&#xa4;" horiz-adv-x="1533" 
d="M1196 942l217 188l86 -102l-211 -184q94 -140 76 -328q-15 -191 -133 -328l180 -184l-104 -102l-185 190q-156 -108 -356 -108t-334 106l-217 -188l-90 100l213 186q-93 139 -78 328q18 192 135 328l-178 186l107 100l182 -188q154 107 354 107q201 0 336 -107zM1208 516
q15 177 -86.5 291.5t-273.5 114.5q-171 0 -292 -114.5t-136 -291.5t85 -290t273 -113q172 0 293.5 113.5t136.5 289.5z" />
    <glyph glyph-name="yen" unicode="&#xa5;" horiz-adv-x="1400" 
d="M657 467h-489l10 125h447l-418 852h192l363 -766l489 766h197l-567 -852h446l-10 -125h-488l-16 -176h487l-10 -127h-487l-15 -164h-172l15 164h-490l11 127h489z" />
    <glyph glyph-name="section" unicode="&#xa7;" horiz-adv-x="1257" 
d="M752 1444q166 0 281.5 -102t129.5 -259l-164 -18q-3 98 -78.5 162.5t-187.5 64.5q-117 0 -195.5 -51t-86.5 -131q-3 -31 6 -57.5t22.5 -45t41.5 -35t50.5 -26t64.5 -20.5t67.5 -16.5t74.5 -14.5q42 -8 67.5 -13t65 -14.5t64 -18t57 -22.5t52 -28.5t40.5 -35.5t31.5 -45
t16 -55t2.5 -67q-7 -96 -85 -170t-194 -96q89 -25 140 -100t42 -173q-13 -165 -149 -269.5t-332 -104.5q-170 0 -287 101.5t-129 258.5l168 20q5 -100 79.5 -164.5t188.5 -64.5q121 0 201.5 54.5t89.5 148.5q2 27 -2.5 50.5t-12.5 41t-26 33t-33 26t-43 20.5t-47 16
t-54.5 13t-55 10l-58.5 9q-50 8 -86.5 15t-81.5 19.5t-76.5 27t-62.5 37t-49 50t-27.5 65.5t-5.5 83q7 97 82.5 170.5t188.5 95.5q-81 27 -127 102t-37 173q12 151 143.5 250.5t315.5 99.5zM639 772q-121 -6 -204 -60.5t-89 -125.5q-3 -38 7 -68t34.5 -50t49.5 -33.5
t67 -22.5t70 -13.5t73 -9.5q7 -1 30 -4t34 -4q129 6 211 58t88 130q2 27 -3.5 49.5t-15 39.5t-28.5 31.5t-35.5 24t-43 18t-45.5 13t-49.5 9t-46.5 6t-45 4.5q-38 3 -59 8z" />
    <glyph glyph-name="dieresis" unicode="&#xa8;" horiz-adv-x="901" 
d="M317 1217q-47 0 -74 29t-24 75q4 46 37 74t80 28q46 0 73 -28.5t23 -73.5q-3 -45 -36 -74.5t-79 -29.5zM797 1217q-46 0 -74 29t-25 75q4 45 37.5 73.5t79.5 28.5q47 0 73.5 -28t22.5 -74q-3 -46 -35 -75t-79 -29z" />
    <glyph glyph-name="copyright" unicode="&#xa9;" horiz-adv-x="1918" 
d="M170 518q15 175 90.5 327.5t194.5 261t279.5 170.5t340.5 62q242 0 424 -104.5t272.5 -292t69.5 -424.5q-16 -179 -92 -332.5t-195 -261.5t-280 -169.5t-342 -61.5q-241 0 -422 105t-271 293.5t-69 426.5zM289 518q-18 -207 59 -370.5t233 -255t363 -91.5q155 0 293 53.5
t240 148t166.5 227.5t78.5 288q18 203 -58 365.5t-232 255t-363 92.5t-379 -92.5t-277.5 -255t-123.5 -365.5zM1524 709l-113 -25q-25 120 -124.5 195t-233.5 75q-180 0 -308 -123t-145 -315t89 -315t292 -123q136 0 254 81.5t164 207.5l96 -27q-51 -164 -199.5 -270.5
t-326.5 -106.5q-158 0 -276.5 70.5t-177 197t-44.5 285.5q22 243 189.5 398t408.5 155q175 0 303.5 -101.5t151.5 -258.5z" />
    <glyph glyph-name="guillemotleft" unicode="&#xab;" horiz-adv-x="1306" 
d="M512 0l-367 516l457 518h186l-460 -518l370 -516h-186zM993 0l-366 516l456 518h189l-463 -518l373 -516h-189z" />
    <glyph glyph-name="logicalnot" unicode="&#xac;" horiz-adv-x="1314" 
d="M168 725h1085l-51 -582h-123l39 447h-962z" />
    <glyph glyph-name="registered" unicode="&#xae;" horiz-adv-x="1918" 
d="M170 520q15 174 90.5 326.5t194 261t279.5 171t341 62.5q242 0 424 -104.5t272.5 -292t69.5 -424.5q-20 -238 -143.5 -426.5t-323.5 -293.5t-442 -105q-180 0 -329.5 61.5t-249.5 169.5t-149 261.5t-34 332.5zM1722 520q14 151 -27.5 283t-127 226t-214.5 148t-284 54
q-207 0 -379 -92.5t-277.5 -254.5t-123.5 -364q-18 -207 59 -371t232.5 -255t363.5 -91q155 0 293 53.5t240 147.5t166.5 227.5t78.5 288.5zM1245 23l-194 403h-267l-34 -403h-123l88 1011h440q142 0 227.5 -86.5t73.5 -218.5q-9 -112 -84.5 -191.5t-191.5 -99.5l204 -415
h-139zM1333 735q9 92 -48.5 145.5t-160.5 53.5h-295l-36 -410h305q96 0 162 58.5t73 152.5z" />
    <glyph glyph-name="macron" unicode="&#xaf;" horiz-adv-x="833" 
d="M840 1272h-625l10 108h625z" />
    <glyph glyph-name="degree" unicode="&#xb0;" horiz-adv-x="1030" 
d="M578 711q-186 0 -289 109t-88 288q17 180 138.5 289.5t307.5 109.5q185 0 288.5 -109.5t86.5 -289.5q-15 -178 -137 -287.5t-307 -109.5zM639 1395q-130 0 -216.5 -79t-98.5 -208q-11 -128 61.5 -206.5t202.5 -78.5q129 0 214.5 78.5t96.5 206.5q12 129 -59.5 208
t-200.5 79z" />
    <glyph glyph-name="plusminus" unicode="&#xb1;" horiz-adv-x="1161" 
d="M1069 145l-12 -145h-953l13 145h952zM1126 788l-14 -145h-395l-23 -262h-162l23 262h-395l14 145h395l21 246h162l-21 -246h395z" />
    <glyph glyph-name="acute" unicode="&#xb4;" horiz-adv-x="606" 
d="M381 1253h-166l244 283h178z" />
    <glyph glyph-name="paragraph" unicode="&#xb6;" horiz-adv-x="1460" 
d="M686 1444h727l-12 -123h-189l-155 -1778h-142l156 1778h-256l-156 -1778h-141l100 1125q-206 0 -322 107t-99 280q17 175 152 282t337 107z" />
    <glyph glyph-name="periodcentered" unicode="&#xb7;" horiz-adv-x="421" 
d="M254 481q-47 0 -75 30t-23 75q5 46 36 75t78 29q46 0 74.5 -29.5t24.5 -74.5q-5 -45 -37.5 -75t-77.5 -30z" />
    <glyph glyph-name="cedilla" unicode="&#xb8;" horiz-adv-x="655" 
d="M276 -219h-100l51 239h117l-35 -155q104 0 163 -59t50 -156q-7 -90 -75 -146.5t-168 -56.5q-86 0 -143.5 47t-63.5 121l104 23q7 -38 38 -63.5t69 -25.5q49 0 82 30.5t36 76.5q5 56 -30 90.5t-95 34.5z" />
    <glyph glyph-name="guillemotright" unicode="&#xbb;" horiz-adv-x="1302" 
d="M584 516l-371 518h188l367 -518l-457 -516h-188zM1067 516l-373 518h189l366 -518l-456 -516h-189z" />
    <glyph glyph-name="questiondown" unicode="&#xbf;" horiz-adv-x="1230" 
d="M606 651h158q-10 -111 -43.5 -190.5t-81.5 -129t-127 -100.5q-44 -29 -65 -43.5t-55 -43.5t-50.5 -52t-32 -57.5t-18.5 -73.5q-11 -122 70.5 -204.5t213.5 -82.5q139 0 240.5 95t134.5 247l156 -30q-43 -204 -193.5 -333.5t-353.5 -129.5t-329 124.5t-109 313.5
q5 57 23.5 105t41 82t63.5 70t73 58.5t88 57.5q99 61 142.5 128t53.5 189zM817 938q-5 -46 -37.5 -76.5t-77.5 -30.5q-47 0 -75 30.5t-23 76.5t37.5 76t79.5 30q46 0 73 -30t23 -76z" />
    <glyph glyph-name="Agrave" unicode="&#xc0;" horiz-adv-x="1441" 
d="M242 0h-183l666 1444h246l411 -1444h-182l-92 340h-717zM836 1292l-383 -819h620zM569 1870h195l190 -225h-188z" />
    <glyph glyph-name="Aacute" unicode="&#xc1;" horiz-adv-x="1441" 
d="M242 0h-183l666 1444h246l411 -1444h-182l-92 340h-717zM836 1292l-383 -819h620zM952 1645h-188l233 225h195z" />
    <glyph glyph-name="Acircumflex" unicode="&#xc2;" horiz-adv-x="1441" 
d="M242 0h-183l666 1444h246l411 -1444h-182l-92 340h-717zM836 1292l-383 -819h620zM1194 1628h-158l-155 154l-179 -154h-157l260 242h168z" />
    <glyph glyph-name="Atilde" unicode="&#xc3;" horiz-adv-x="1441" 
d="M242 0h-183l666 1444h246l411 -1444h-182l-92 340h-717zM836 1292l-383 -819h620zM616 1692l-77 61q31 61 93.5 98t135.5 37q47 0 87.5 -18t63.5 -39t54.5 -39t64.5 -18q83 0 140 92l79 -62q-33 -61 -97 -99t-142 -38q-51 0 -91.5 18t-61.5 39.5t-50 39.5t-59 18
q-77 0 -140 -90z" />
    <glyph glyph-name="Adieresis" unicode="&#xc4;" horiz-adv-x="1441" 
d="M242 0h-183l666 1444h246l411 -1444h-182l-92 340h-717zM836 1292l-383 -819h620zM647 1655q-46 0 -73.5 29t-24.5 75q4 46 37.5 75.5t79.5 29.5q47 0 74 -29.5t22 -75.5q-3 -46 -35.5 -75t-79.5 -29zM1096 1655q-46 0 -74 29t-25 75q4 46 37.5 75.5t79.5 29.5
q47 0 74 -29.5t22 -75.5q-3 -46 -35 -75t-79 -29z" />
    <glyph glyph-name="Aring" unicode="&#xc5;" horiz-adv-x="1441" 
d="M242 0h-183l666 1444h246l411 -1444h-182l-92 340h-717zM836 1292l-383 -819h620zM856 1544q-84 0 -134 52t-42 130q6 79 65 131t142 52t131.5 -52t42.5 -131q-7 -79 -65 -130.5t-140 -51.5zM879 1812q-38 0 -65 -23t-30 -60q-3 -38 19.5 -63.5t60.5 -25.5q37 0 64 25.5
t30 63.5q3 36 -19.5 59.5t-59.5 23.5z" />
    <glyph glyph-name="AE" unicode="&#xc6;" horiz-adv-x="1923" 
d="M1759 662h-616l-45 -510h717l-13 -152h-872l26 293h-526l-180 -293h-191l875 1444h977l-15 -154h-696l-43 -485h615zM969 438l75 881l-532 -881h457z" />
    <glyph glyph-name="Ccedilla" unicode="&#xc7;" horiz-adv-x="1681" 
d="M868 -219h-102l37 170q-197 16 -343 118.5t-218 272.5t-54 379q14 166 83.5 310t177 246t252 160t305.5 58t298.5 -68t226 -188t109.5 -270l-167 -21q-26 170 -162.5 282.5t-319.5 112.5q-167 0 -306 -79.5t-225.5 -221.5t-101.5 -321q-11 -133 22.5 -248.5t102.5 -197.5
t172.5 -128.5t227.5 -46.5q182 0 337 108t214 273l161 -30q-68 -206 -257 -346.5t-420 -153.5l-19 -86q104 0 163 -59t50 -156q-7 -90 -75.5 -146.5t-168.5 -56.5q-86 0 -143 47t-63 121l104 23q8 -38 38 -63.5t70 -25.5q47 0 80.5 30.5t36.5 76.5q5 56 -29 90.5t-94 34.5z
" />
    <glyph glyph-name="Egrave" unicode="&#xc8;" horiz-adv-x="1320" 
d="M1169 819l-12 -143h-737l-47 -524h839l-12 -152h-1005l127 1444h985l-15 -152h-819l-41 -473h737zM567 1870h197l190 -225h-188z" />
    <glyph glyph-name="Eacute" unicode="&#xc9;" horiz-adv-x="1320" 
d="M1169 819l-12 -143h-737l-47 -524h839l-12 -152h-1005l127 1444h985l-15 -152h-819l-41 -473h737zM920 1645h-189l234 225h194z" />
    <glyph glyph-name="Ecircumflex" unicode="&#xca;" horiz-adv-x="1320" 
d="M1169 819l-12 -143h-737l-47 -524h839l-12 -152h-1005l127 1444h985l-15 -152h-819l-41 -473h737zM1161 1628h-157l-156 154l-178 -154h-158l260 242h168z" />
    <glyph glyph-name="Edieresis" unicode="&#xcb;" horiz-adv-x="1320" 
d="M1169 819l-12 -143h-737l-47 -524h839l-12 -152h-1005l127 1444h985l-15 -152h-819l-41 -473h737zM614 1655q-46 0 -73.5 29t-24.5 75q4 46 37.5 75.5t79.5 29.5q47 0 74 -29.5t22 -75.5q-3 -46 -35.5 -75t-79.5 -29zM1063 1655q-46 0 -73.5 29t-24.5 75q4 46 37 75.5
t79 29.5t73.5 -29.5t23.5 -75.5q-3 -45 -36 -74.5t-79 -29.5z" />
    <glyph glyph-name="Igrave" unicode="&#xcc;" horiz-adv-x="565" 
d="M369 0h-170l127 1444h170zM125 1870h197l190 -225h-188z" />
    <glyph glyph-name="Iacute" unicode="&#xcd;" horiz-adv-x="569" 
d="M369 0h-172l127 1444h172zM510 1645h-188l231 225h195z" />
    <glyph glyph-name="Icircumflex" unicode="&#xce;" horiz-adv-x="555" 
d="M365 0h-172l126 1444h173zM741 1595h-157l-154 154l-180 -154h-158l262 244h170z" />
    <glyph glyph-name="Idieresis" unicode="&#xcf;" horiz-adv-x="561" 
d="M367 0h-172l127 1444h172zM203 1655q-47 0 -74.5 29t-24.5 75q5 46 37.5 75.5t79.5 29.5q46 0 73 -29.5t23 -75.5q-3 -45 -35.5 -74.5t-78.5 -29.5zM651 1655q-47 0 -74 29t-24 75q5 46 37.5 75.5t79.5 29.5q46 0 73 -29.5t23 -75.5q-3 -45 -36 -74.5t-79 -29.5z" />
    <glyph glyph-name="Ntilde" unicode="&#xd1;" horiz-adv-x="1529" 
d="M365 0h-170l127 1444h231l631 -1235l108 1235h172l-127 -1444h-231l-633 1235zM653 1692l-78 61q31 61 94.5 98t137.5 37q47 0 87 -18t62.5 -39t54 -39t64.5 -18q41 0 78 25.5t61 66.5l80 -62q-31 -61 -95.5 -99t-141.5 -38q-51 0 -92 18t-62 39.5t-50 39.5t-60 18
q-74 0 -140 -90z" />
    <glyph glyph-name="Ograve" unicode="&#xd2;" horiz-adv-x="1802" 
d="M188 721q14 168 84.5 312t181 245.5t260.5 159t318 57.5q225 0 394 -98.5t252.5 -275t64.5 -400.5q-20 -224 -134.5 -400t-300.5 -274t-411 -98q-168 0 -308 57.5t-233 158.5t-138 244.5t-30 311.5zM358 721q-16 -178 49 -319.5t196.5 -221t305.5 -80.5q131 0 248 46.5
t203.5 128.5t142.5 197.5t68 248.5q23 272 -132.5 447t-420.5 175q-174 0 -319.5 -79.5t-235.5 -221.5t-105 -321zM760 1870h196l191 -225h-189z" />
    <glyph glyph-name="Oacute" unicode="&#xd3;" horiz-adv-x="1802" 
d="M188 721q14 168 84.5 312t181 245.5t260.5 159t318 57.5q225 0 394 -98.5t252.5 -275t64.5 -400.5q-20 -224 -134.5 -400t-300.5 -274t-411 -98q-168 0 -308 57.5t-233 158.5t-138 244.5t-30 311.5zM358 721q-16 -178 49 -319.5t196.5 -221t305.5 -80.5q131 0 248 46.5
t203.5 128.5t142.5 197.5t68 248.5q23 272 -132.5 447t-420.5 175q-174 0 -319.5 -79.5t-235.5 -221.5t-105 -321zM1112 1645h-188l231 225h197z" />
    <glyph glyph-name="Ocircumflex" unicode="&#xd4;" horiz-adv-x="1802" 
d="M188 721q14 168 84.5 312t181 245.5t260.5 159t318 57.5q225 0 394 -98.5t252.5 -275t64.5 -400.5q-20 -224 -134.5 -400t-300.5 -274t-411 -98q-168 0 -308 57.5t-233 158.5t-138 244.5t-30 311.5zM358 721q-16 -178 49 -319.5t196.5 -221t305.5 -80.5q131 0 248 46.5
t203.5 128.5t142.5 197.5t68 248.5q23 272 -132.5 447t-420.5 175q-174 0 -319.5 -79.5t-235.5 -221.5t-105 -321zM1368 1636h-156l-155 154l-178 -154h-160l262 244h168z" />
    <glyph glyph-name="Otilde" unicode="&#xd5;" horiz-adv-x="1802" 
d="M188 721q14 168 84.5 312t181 245.5t260.5 159t318 57.5q225 0 394 -98.5t252.5 -275t64.5 -400.5q-20 -224 -134.5 -400t-300.5 -274t-411 -98q-168 0 -308 57.5t-233 158.5t-138 244.5t-30 311.5zM358 721q-16 -178 49 -319.5t196.5 -221t305.5 -80.5q131 0 248 46.5
t203.5 128.5t142.5 197.5t68 248.5q23 272 -132.5 447t-420.5 175q-174 0 -319.5 -79.5t-235.5 -221.5t-105 -321zM788 1692l-79 61q33 61 95 98t136 37q47 0 87 -18t62.5 -39t54 -39t64.5 -18q85 0 142 92l80 -62q-33 -61 -97.5 -99t-142.5 -38q-42 0 -75.5 12t-55.5 28.5
t-42 33.5t-42.5 29t-48.5 12q-75 0 -138 -90z" />
    <glyph glyph-name="Odieresis" unicode="&#xd6;" horiz-adv-x="1802" 
d="M188 721q14 168 84.5 312t181 245.5t260.5 159t318 57.5q225 0 394 -98.5t252.5 -275t64.5 -400.5q-20 -224 -134.5 -400t-300.5 -274t-411 -98q-168 0 -308 57.5t-233 158.5t-138 244.5t-30 311.5zM358 721q-16 -178 49 -319.5t196.5 -221t305.5 -80.5q131 0 248 46.5
t203.5 128.5t142.5 197.5t68 248.5q23 272 -132.5 447t-420.5 175q-174 0 -319.5 -79.5t-235.5 -221.5t-105 -321zM823 1655q-46 0 -73.5 29t-24.5 75q4 46 37.5 75.5t79.5 29.5t73 -29.5t23 -75.5q-3 -45 -36 -74.5t-79 -29.5zM1272 1655q-47 0 -74 29t-24 75q5 46 37 75.5
t79 29.5q46 0 73 -29.5t23 -75.5q-3 -45 -35.5 -74.5t-78.5 -29.5z" />
    <glyph glyph-name="multiply" unicode="&#xd7;" horiz-adv-x="808" 
d="M737 383l-104 -94l-184 219l-226 -219l-86 94l228 223l-189 223l105 95l184 -219l223 219l88 -95l-227 -223z" />
    <glyph glyph-name="Oslash" unicode="&#xd8;" horiz-adv-x="1761" 
d="M1307 1436l192 325l162 2l-229 -393q144 -103 216 -272.5t54 -376.5q-19 -220 -131.5 -396.5t-294.5 -276t-399 -99.5q-134 0 -261 43l-161 -279h-162l199 338q-161 98 -242.5 274t-61.5 396q19 222 132 399t294.5 276t397.5 99q165 0 295 -59zM358 721q-15 -169 43 -306
t174 -218l652 1099q-103 47 -230 47q-168 0 -308.5 -80t-228 -222t-102.5 -320zM1530 721q13 159 -36.5 289t-150.5 213l-643 -1092q88 -31 189 -31q255 0 435.5 175.5t205.5 445.5z" />
    <glyph glyph-name="Ugrave" unicode="&#xd9;" horiz-adv-x="1533" 
d="M1233 586l76 858h170l-76 -858q-25 -280 -204 -458.5t-435 -178.5q-170 0 -297 81t-188.5 226.5t-45.5 329.5l76 858h170l-76 -858q-12 -132 29 -242.5t131 -177t213 -66.5q185 0 311.5 135.5t145.5 350.5zM631 1870h194l191 -225h-189z" />
    <glyph glyph-name="Uacute" unicode="&#xda;" horiz-adv-x="1533" 
d="M1233 586l76 858h170l-76 -858q-25 -280 -204 -458.5t-435 -178.5q-170 0 -297 81t-188.5 226.5t-45.5 329.5l76 858h170l-76 -858q-12 -132 29 -242.5t131 -177t213 -66.5q185 0 311.5 135.5t145.5 350.5zM973 1645h-187l232 225h194z" />
    <glyph glyph-name="Ucircumflex" unicode="&#xdb;" horiz-adv-x="1533" 
d="M1233 586l76 858h170l-76 -858q-25 -280 -204 -458.5t-435 -178.5q-170 0 -297 81t-188.5 226.5t-45.5 329.5l76 858h170l-76 -858q-12 -132 29 -242.5t131 -177t213 -66.5q185 0 311.5 135.5t145.5 350.5zM1235 1636h-158l-155 154l-179 -154h-157l260 244h170z" />
    <glyph glyph-name="Udieresis" unicode="&#xdc;" horiz-adv-x="1533" 
d="M1233 586l76 858h170l-76 -858q-25 -280 -204 -458.5t-435 -178.5q-170 0 -297 81t-188.5 226.5t-45.5 329.5l76 858h170l-76 -858q-12 -132 29 -242.5t131 -177t213 -66.5q185 0 311.5 135.5t145.5 350.5zM688 1655q-46 0 -73.5 29t-24.5 75q4 46 37.5 75.5t79.5 29.5
q47 0 74 -29.5t22 -75.5q-3 -46 -35.5 -75t-79.5 -29zM1137 1655q-46 0 -74 29t-25 75q4 46 37.5 75.5t79.5 29.5q47 0 74 -29.5t22 -75.5q-3 -46 -35 -75t-79 -29z" />
    <glyph glyph-name="Yacute" unicode="&#xdd;" horiz-adv-x="1325" 
d="M797 537l-47 -537h-172l47 537l-439 907h189l350 -744l475 744h193zM868 1645h-188l231 225h197z" />
    <glyph glyph-name="germandbls" unicode="&#xdf;" horiz-adv-x="1400" 
d="M428 967l-84 -967h-170l86 983q19 216 170 356t369 140q199 0 321 -112t107 -280q-10 -126 -84 -213t-182 -102q159 -20 250.5 -134.5t74.5 -277.5q-15 -179 -148.5 -295t-320.5 -116q-142 0 -287 76l66 137q118 -64 223 -64q122 0 205 77.5t94 199.5q12 147 -73 234
t-261 87h-86l13 144h88q103 0 175 65.5t81 169.5q9 109 -68 180.5t-205 71.5q-143 0 -241 -98.5t-113 -261.5z" />
    <glyph glyph-name="agrave" unicode="&#xe0;" horiz-adv-x="1370" 
d="M1126 850l17 184h155l-90 -1034h-155l16 182q-76 -104 -190 -163.5t-246 -59.5q-152 0 -267.5 71.5t-172.5 199t-43 286.5q22 243 185.5 401t395.5 158q132 0 234.5 -59.5t160.5 -165.5zM664 100q171 0 294 118t138 298q15 181 -86.5 298.5t-272.5 117.5
q-172 0 -294.5 -117.5t-137.5 -298.5q-15 -180 86.5 -298t272.5 -118zM676 1526l194 -283h-165l-209 283h180z" />
    <glyph glyph-name="aacute" unicode="&#xe1;" horiz-adv-x="1370" 
d="M1126 850l17 184h155l-90 -1034h-155l16 182q-76 -104 -190 -163.5t-246 -59.5q-152 0 -267.5 71.5t-172.5 199t-43 286.5q22 243 185.5 401t395.5 158q132 0 234.5 -59.5t160.5 -165.5zM664 100q171 0 294 118t138 298q15 181 -86.5 298.5t-272.5 117.5
q-172 0 -294.5 -117.5t-137.5 -298.5q-15 -180 86.5 -298t272.5 -118zM1102 1526l-256 -283h-166l242 283h180z" />
    <glyph glyph-name="acircumflex" unicode="&#xe2;" horiz-adv-x="1370" 
d="M1126 850l17 184h155l-90 -1034h-155l16 182q-76 -104 -190 -163.5t-246 -59.5q-152 0 -267.5 71.5t-172.5 199t-43 286.5q22 243 185.5 401t395.5 158q132 0 234.5 -59.5t160.5 -165.5zM664 100q171 0 294 118t138 298q15 181 -86.5 298.5t-272.5 117.5
q-172 0 -294.5 -117.5t-137.5 -298.5q-15 -180 86.5 -298t272.5 -118zM1081 1243h-151l-150 193l-184 -193h-150l259 283h165z" />
    <glyph glyph-name="atilde" unicode="&#xe3;" horiz-adv-x="1370" 
d="M1126 850l17 184h155l-90 -1034h-155l16 182q-76 -104 -190 -163.5t-246 -59.5q-152 0 -267.5 71.5t-172.5 199t-43 286.5q22 243 185.5 401t395.5 158q132 0 234.5 -59.5t160.5 -165.5zM664 100q171 0 294 118t138 298q15 181 -86.5 298.5t-272.5 117.5
q-172 0 -294.5 -117.5t-137.5 -298.5q-15 -180 86.5 -298t272.5 -118zM520 1290l-82 47q34 61 97.5 98.5t134.5 37.5q38 0 70.5 -12.5t56 -29.5t45.5 -34.5t48 -30t54 -12.5q40 0 75 21.5t56 56.5l84 -48q-33 -61 -97 -99t-140 -38q-51 0 -92.5 18.5t-64.5 40t-54.5 40
t-63.5 18.5q-77 0 -127 -74z" />
    <glyph glyph-name="adieresis" unicode="&#xe4;" horiz-adv-x="1370" 
d="M1126 850l17 184h155l-90 -1034h-155l16 182q-76 -104 -190 -163.5t-246 -59.5q-152 0 -267.5 71.5t-172.5 199t-43 286.5q22 243 185.5 401t395.5 158q132 0 234.5 -59.5t160.5 -165.5zM664 100q171 0 294 118t138 298q15 181 -86.5 298.5t-272.5 117.5
q-172 0 -294.5 -117.5t-137.5 -298.5q-15 -180 86.5 -298t272.5 -118zM526 1284q-47 0 -75 29.5t-25 75.5q4 45 37.5 73.5t81.5 28.5q46 0 73 -28.5t23 -73.5q-3 -45 -36 -75t-79 -30zM1006 1284q-46 0 -74 29.5t-25 75.5q4 45 37.5 73.5t79.5 28.5q47 0 73.5 -28t22.5 -74
q-3 -46 -35 -75.5t-79 -29.5z" />
    <glyph glyph-name="aring" unicode="&#xe5;" horiz-adv-x="1370" 
d="M1126 850l17 184h155l-90 -1034h-155l16 182q-76 -104 -190 -163.5t-246 -59.5q-152 0 -267.5 71.5t-172.5 199t-43 286.5q22 243 185.5 401t395.5 158q132 0 234.5 -59.5t160.5 -165.5zM664 100q171 0 294 118t138 298q15 181 -86.5 298.5t-272.5 117.5
q-172 0 -294.5 -117.5t-137.5 -298.5q-15 -180 86.5 -298t272.5 -118zM778 1198q-107 0 -170.5 66.5t-54.5 169.5t84 169t182 66t169.5 -66t53.5 -169t-83 -169.5t-181 -66.5zM811 1573q-63 0 -106.5 -39t-47.5 -100q-5 -62 31 -102t98 -40q60 0 104 40.5t48 101.5
q6 61 -30 100t-97 39z" />
    <glyph glyph-name="ae" unicode="&#xe6;" horiz-adv-x="2217" 
d="M2161 530q-1 -16 -6.5 -49t-6.5 -43h-913q11 -153 110.5 -245.5t256.5 -92.5q226 0 350 197l129 -55q-59 -123 -197.5 -203t-294.5 -80q-140 0 -250.5 65t-154.5 173l-17 -197h-125l15 172q-78 -100 -190 -156.5t-242 -56.5q-150 0 -264 71.5t-169.5 199t-41.5 286.5
q22 243 183.5 401t389.5 158q129 0 231.5 -57t163.5 -158l15 174h124l-16 -188q66 108 175 168.5t249 60.5q236 0 376 -154.5t120 -390.5zM305 516q-15 -185 86 -304.5t273 -119.5q170 0 292.5 118t139.5 306q17 185 -85 305.5t-274 120.5q-173 0 -294 -120t-138 -306z
M1239 571h766q8 158 -91.5 259.5t-264.5 101.5q-155 0 -268.5 -101.5t-141.5 -259.5z" />
    <glyph glyph-name="ccedilla" unicode="&#xe7;" horiz-adv-x="1249" 
d="M653 -219h-102l37 180q-214 19 -336 173t-102 382q22 243 188 401t399 158q187 0 319.5 -107.5t147.5 -271.5l-153 -20q-20 114 -111.5 188t-214.5 74q-164 0 -284.5 -120t-135.5 -302q-15 -183 83 -301.5t263 -118.5q125 0 228 72t143 184l152 -20q-42 -146 -173.5 -248
t-295.5 -121l-21 -98q104 0 163 -59t50 -156q-7 -90 -75.5 -146.5t-168.5 -56.5q-86 0 -143.5 47t-63.5 121l105 23q8 -38 38 -63.5t68 -25.5q49 0 82.5 30.5t36.5 76.5q5 56 -29 90.5t-94 34.5z" />
    <glyph glyph-name="egrave" unicode="&#xe8;" horiz-adv-x="1300" 
d="M659 100q116 0 222.5 59.5t152.5 147.5l135 -51q-60 -129 -205 -213t-307 -84q-160 0 -281 73t-180 203t-44 293q10 117 60 218.5t128.5 173.5t184 113.5t223.5 41.5q236 0 375.5 -155.5t117.5 -393.5q0 -26 -6 -61l-930 2q5 -163 103 -265t251 -102zM322 602l763 -2
q-9 149 -106 240.5t-250 91.5q-150 0 -261.5 -91.5t-145.5 -238.5zM680 1526l194 -283h-165l-209 283h180z" />
    <glyph glyph-name="eacute" unicode="&#xe9;" horiz-adv-x="1300" 
d="M659 100q116 0 222.5 59.5t152.5 147.5l135 -51q-60 -129 -205 -213t-307 -84q-160 0 -281 73t-180 203t-44 293q10 117 60 218.5t128.5 173.5t184 113.5t223.5 41.5q236 0 375.5 -155.5t117.5 -393.5q0 -26 -6 -61l-930 2q5 -163 103 -265t251 -102zM322 602l763 -2
q-9 149 -106 240.5t-250 91.5q-150 0 -261.5 -91.5t-145.5 -238.5zM1090 1526l-256 -283h-166l241 283h181z" />
    <glyph glyph-name="ecircumflex" unicode="&#xea;" horiz-adv-x="1300" 
d="M659 100q116 0 222.5 59.5t152.5 147.5l135 -51q-60 -129 -205 -213t-307 -84q-160 0 -281 73t-180 203t-44 293q10 117 60 218.5t128.5 173.5t184 113.5t223.5 41.5q236 0 375.5 -155.5t117.5 -393.5q0 -26 -6 -61l-930 2q5 -163 103 -265t251 -102zM322 602l763 -2
q-9 149 -106 240.5t-250 91.5q-150 0 -261.5 -91.5t-145.5 -238.5zM1085 1243h-151l-150 193l-184 -193h-149l258 283h165z" />
    <glyph glyph-name="edieresis" unicode="&#xeb;" horiz-adv-x="1300" 
d="M659 100q116 0 222.5 59.5t152.5 147.5l135 -51q-60 -129 -205 -213t-307 -84q-160 0 -281 73t-180 203t-44 293q10 117 60 218.5t128.5 173.5t184 113.5t223.5 41.5q236 0 375.5 -155.5t117.5 -393.5q0 -26 -6 -61l-930 2q5 -163 103 -265t251 -102zM322 602l763 -2
q-9 149 -106 240.5t-250 91.5q-150 0 -261.5 -91.5t-145.5 -238.5zM522 1227q-46 0 -73 29t-23 75q3 45 36 75t79 30q47 0 74 -29.5t24 -75.5q-5 -46 -37.5 -75t-79.5 -29zM1004 1227q-47 0 -74.5 29t-22.5 75q3 46 35.5 75.5t79.5 29.5t74 -29.5t24 -75.5q-5 -46 -37 -75
t-79 -29z" />
    <glyph glyph-name="igrave" unicode="&#xec;" horiz-adv-x="487" 
d="M324 0h-158l90 1034h158zM252 1526l194 -283h-165l-209 283h180z" />
    <glyph glyph-name="iacute" unicode="&#xed;" horiz-adv-x="487" 
d="M326 0h-156l90 1034h156zM682 1526l-258 -283h-166l244 283h180z" />
    <glyph glyph-name="icircumflex" unicode="&#xee;" horiz-adv-x="466" 
d="M309 0h-155l90 1034h155zM659 1243h-151l-150 193l-186 -193h-147l256 283h168z" />
    <glyph glyph-name="idieresis" unicode="&#xef;" horiz-adv-x="479" 
d="M319 0h-157l90 1034h158zM106 1227q-47 0 -74 29t-22 75q3 46 35.5 75.5t79.5 29.5t74 -29.5t24 -75.5q-5 -46 -37.5 -75t-79.5 -29zM588 1227q-47 0 -74 29t-22 75q3 46 35 75.5t79 29.5q46 0 74 -29.5t25 -75.5q-4 -45 -37.5 -74.5t-79.5 -29.5z" />
    <glyph glyph-name="ntilde" unicode="&#xf1;" 
d="M766 1075q195 0 299.5 -128t85.5 -329l-53 -618h-156l53 618q12 140 -56 227t-202 87q-138 0 -246 -94t-120 -234l-54 -604h-155l90 1034h156l-13 -145q61 86 162 136t209 50zM469 1290l-80 47q34 61 96.5 98.5t132.5 37.5q47 0 87.5 -18.5t65 -41t57.5 -41t67 -18.5
q39 0 74.5 22t56.5 56l82 -48q-31 -61 -96 -99t-142 -38q-49 0 -90.5 18.5t-64.5 40t-54.5 40t-64.5 18.5q-77 0 -127 -74z" />
    <glyph glyph-name="ograve" unicode="&#xf2;" horiz-adv-x="1310" 
d="M1253 516q-22 -244 -191 -400.5t-411 -156.5q-243 0 -383 156t-118 401q22 246 189.5 402.5t410.5 156.5q159 0 279 -71t179 -198.5t45 -289.5zM1096 516q15 182 -86 299t-273 117t-294.5 -117.5t-137.5 -298.5q-15 -180 86.5 -298t272.5 -118q172 0 294.5 118t137.5 298
zM664 1526l194 -283h-166l-209 283h181z" />
    <glyph glyph-name="oacute" unicode="&#xf3;" horiz-adv-x="1310" 
d="M1253 516q-22 -244 -191 -400.5t-411 -156.5q-243 0 -383 156t-118 401q22 246 189.5 402.5t410.5 156.5q159 0 279 -71t179 -198.5t45 -289.5zM1096 516q15 182 -86 299t-273 117t-294.5 -117.5t-137.5 -298.5q-15 -180 86.5 -298t272.5 -118q172 0 294.5 118t137.5 298
zM1090 1526l-259 -283h-165l243 283h181z" />
    <glyph glyph-name="ocircumflex" unicode="&#xf4;" horiz-adv-x="1310" 
d="M1253 516q-22 -244 -191 -400.5t-411 -156.5q-243 0 -383 156t-118 401q22 246 189.5 402.5t410.5 156.5q159 0 279 -71t179 -198.5t45 -289.5zM1096 516q15 182 -86 299t-273 117t-294.5 -117.5t-137.5 -298.5q-15 -180 86.5 -298t272.5 -118q172 0 294.5 118t137.5 298
zM1083 1243h-149l-152 193l-184 -193h-149l258 283h167z" />
    <glyph glyph-name="otilde" unicode="&#xf5;" horiz-adv-x="1310" 
d="M1253 516q-22 -244 -191 -400.5t-411 -156.5q-243 0 -383 156t-118 401q22 246 189.5 402.5t410.5 156.5q159 0 279 -71t179 -198.5t45 -289.5zM1096 516q15 182 -86 299t-273 117t-294.5 -117.5t-137.5 -298.5q-15 -180 86.5 -298t272.5 -118q172 0 294.5 118t137.5 298
zM518 1290l-80 47q34 61 97 98.5t133 37.5q46 0 86.5 -18.5t65 -41t57.5 -41t67 -18.5q39 0 74.5 22t54.5 56l84 -48q-31 -61 -95.5 -99t-141.5 -38q-51 0 -92.5 18.5t-64 40t-54 40t-64.5 18.5q-77 0 -127 -74z" />
    <glyph glyph-name="odieresis" unicode="&#xf6;" horiz-adv-x="1310" 
d="M1253 516q-22 -244 -191 -400.5t-411 -156.5q-243 0 -383 156t-118 401q22 246 189.5 402.5t410.5 156.5q159 0 279 -71t179 -198.5t45 -289.5zM1096 516q15 182 -86 299t-273 117t-294.5 -117.5t-137.5 -298.5q-15 -180 86.5 -298t272.5 -118q172 0 294.5 118t137.5 298
zM522 1227q-47 0 -74 29t-22 75q3 46 35.5 75.5t79.5 29.5q46 0 73.5 -29.5t24.5 -75.5q-4 -45 -37.5 -74.5t-79.5 -29.5zM1004 1227q-47 0 -75 29t-24 75q3 46 36.5 75.5t80.5 29.5q46 0 73.5 -29.5t24.5 -75.5q-4 -46 -37 -75t-79 -29z" />
    <glyph glyph-name="divide" unicode="&#xf7;" horiz-adv-x="1130" 
d="M569 41q-43 0 -68.5 27t-21.5 69q3 40 33.5 66t73.5 26q41 0 66 -26t22 -66q-4 -43 -34 -69.5t-71 -26.5zM639 854q-43 0 -67.5 26.5t-20.5 69.5q3 40 33 66t73 26q41 0 66 -26t22 -66q-4 -42 -34 -69t-72 -27zM1081 631l-12 -144h-922l13 144h921z" />
    <glyph glyph-name="oslash" unicode="&#xf8;" horiz-adv-x="1320" 
d="M963 1038l110 191h150l-148 -252q101 -73 150.5 -193t36.5 -268q-22 -244 -192 -400.5t-413 -156.5q-83 0 -170 23l-84 -146h-149l115 197q-117 71 -174.5 197t-44.5 286q22 246 191.5 402.5t414.5 156.5q114 0 207 -37zM291 516q-10 -116 29.5 -211t117.5 -153l455 772
q-70 28 -148 28q-183 0 -310 -122.5t-144 -313.5zM1118 516q18 214 -114 340l-449 -760q49 -14 115 -14q179 0 305 122t143 312z" />
    <glyph glyph-name="ugrave" unicode="&#xf9;" 
d="M563 -41q-195 0 -299.5 128t-85.5 329l53 618h156l-53 -618q-12 -140 56.5 -228t203.5 -88q137 0 244.5 94.5t119.5 233.5l54 606h155l-90 -1034h-155l12 145q-59 -85 -161 -135.5t-210 -50.5zM637 1526l194 -285h-165l-209 283z" />
    <glyph glyph-name="uacute" unicode="&#xfa;" 
d="M563 -41q-195 0 -299.5 128t-85.5 329l53 618h156l-53 -618q-12 -140 56.5 -228t203.5 -88q137 0 244.5 94.5t119.5 233.5l54 606h155l-90 -1034h-155l12 145q-59 -85 -161 -135.5t-210 -50.5zM1055 1524l-258 -283h-166l243 283h181z" />
    <glyph glyph-name="ucircumflex" unicode="&#xfb;" 
d="M563 -41q-195 0 -299.5 128t-85.5 329l53 618h156l-53 -618q-12 -140 56.5 -228t203.5 -88q137 0 244.5 94.5t119.5 233.5l54 606h155l-90 -1034h-155l12 145q-59 -85 -161 -135.5t-210 -50.5zM1038 1241h-151l-152 193l-184 -193h-148l256 285h168z" />
    <glyph glyph-name="udieresis" unicode="&#xfc;" 
d="M563 -41q-195 0 -299.5 128t-85.5 329l53 618h156l-53 -618q-12 -140 56.5 -228t203.5 -88q137 0 244.5 94.5t119.5 233.5l54 606h155l-90 -1034h-155l12 145q-59 -85 -161 -135.5t-210 -50.5zM475 1225q-47 0 -74 29.5t-22 74.5q3 46 35.5 75.5t79.5 29.5t74 -29.5
t24 -75.5q-5 -45 -37.5 -74.5t-79.5 -29.5zM956 1225q-47 0 -74 29.5t-22 74.5q3 46 35.5 75.5t79.5 29.5q46 0 73.5 -29.5t24.5 -75.5q-5 -44 -38 -74t-79 -30z" />
    <glyph glyph-name="yacute" unicode="&#xfd;" horiz-adv-x="1165" 
d="M94 -426l12 137q79 -28 134 -28q32 0 59.5 8.5t51.5 28.5t41.5 38.5t38.5 53.5t33 57.5t34.5 67t33.5 65.5l-374 1032h172l295 -839l397 839h166l-504 -1048q-25 -51 -38.5 -78t-37.5 -72.5t-40 -70t-40.5 -60.5t-45 -55.5t-48.5 -43t-55 -35.5t-60 -20t-69 -8
q-79 0 -156 31zM1044 1526l-258 -283h-165l243 283h180z" />
    <glyph glyph-name="ydieresis" unicode="&#xff;" horiz-adv-x="1165" 
d="M94 -426l12 137q79 -28 134 -28q32 0 59.5 8.5t51.5 28.5t41.5 38.5t38.5 53.5t33 57.5t34.5 67t33.5 65.5l-374 1032h172l295 -839l397 839h166l-504 -1048q-25 -51 -38.5 -78t-37.5 -72.5t-40 -70t-40.5 -60.5t-45 -55.5t-48.5 -43t-55 -35.5t-60 -20t-69 -8
q-79 0 -156 31zM449 1227q-46 0 -73.5 29.5t-23.5 74.5q3 45 36 75t79 30q47 0 74 -29.5t24 -75.5q-5 -46 -37 -75t-79 -29zM930 1227q-47 0 -74 29t-22 75q3 46 35 75.5t79 29.5t74.5 -29.5t24.5 -75.5q-5 -46 -37.5 -75t-79.5 -29z" />
    <glyph glyph-name="Amacron" unicode="&#x100;" horiz-adv-x="1441" 
d="M242 0h-183l666 1444h246l411 -1444h-182l-92 340h-717zM836 1292l-383 -819h620zM1186 1694h-625l10 108h625z" />
    <glyph glyph-name="amacron" unicode="&#x101;" horiz-adv-x="1370" 
d="M1126 850l17 184h155l-90 -1034h-155l16 182q-76 -104 -190 -163.5t-246 -59.5q-152 0 -267.5 71.5t-172.5 199t-43 286.5q22 243 185.5 401t395.5 158q132 0 234.5 -59.5t160.5 -165.5zM664 100q171 0 294 118t138 298q15 181 -86.5 298.5t-272.5 117.5
q-172 0 -294.5 -117.5t-137.5 -298.5q-15 -180 86.5 -298t272.5 -118zM1079 1296h-626l10 109h627z" />
    <glyph glyph-name="Abreve" unicode="&#x102;" horiz-adv-x="1441" 
d="M242 0h-183l666 1444h246l411 -1444h-182l-92 340h-717zM836 1292l-383 -819h620zM1049 1878h120q-7 -107 -92 -176.5t-207 -69.5q-123 0 -197 69.5t-65 176.5h123q-4 -57 38.5 -94t111.5 -37t117 37t51 94z" />
    <glyph glyph-name="abreve" unicode="&#x103;" horiz-adv-x="1370" 
d="M1126 850l17 184h155l-90 -1034h-155l16 182q-76 -104 -190 -163.5t-246 -59.5q-152 0 -267.5 71.5t-172.5 199t-43 286.5q22 243 185.5 401t395.5 158q132 0 234.5 -59.5t160.5 -165.5zM664 100q171 0 294 118t138 298q15 181 -86.5 298.5t-272.5 117.5
q-172 0 -294.5 -117.5t-137.5 -298.5q-15 -180 86.5 -298t272.5 -118zM922 1493h125q-11 -117 -94 -193.5t-201 -76.5q-117 0 -186 76.5t-60 193.5h125q-6 -67 31 -110.5t100 -43.5q64 0 109 43t51 111z" />
    <glyph glyph-name="Aogonek" unicode="&#x104;" horiz-adv-x="1540" 
d="M1202 0h-2l-92 340h-717l-149 -340h-183l666 1444h246l411 -1444h-22q-226 -60 -240 -207q-9 -111 79.5 -178t240.5 -72l-8 -114q-196 0 -314 96.5t-106 245.5q6 74 56 133.5t134 95.5zM836 1292l-383 -819h620z" />
    <glyph glyph-name="aogonek" unicode="&#x105;" horiz-adv-x="1474" 
d="M1053 8l16 174q-76 -104 -190 -163.5t-246 -59.5q-152 0 -267.5 71.5t-172.5 199t-43 286.5q22 243 185.5 401t395.5 158q132 0 234.5 -59.5t160.5 -165.5l17 184h155l-90 -1034h-16q-228 -60 -242 -207q-9 -111 80 -178t242 -72l-8 -114q-197 0 -314.5 95.5
t-105.5 246.5q7 79 62 141t147 96zM664 100q171 0 294 118t138 298q15 181 -86.5 298.5t-272.5 117.5q-172 0 -294.5 -117.5t-137.5 -298.5q-15 -180 86.5 -298t272.5 -118z" />
    <glyph glyph-name="Cacute" unicode="&#x106;" horiz-adv-x="1681" 
d="M1434 481l161 -30q-72 -217 -276.5 -359.5t-448.5 -142.5q-161 0 -295 58t-224 159.5t-133.5 245t-29.5 309.5t83.5 310t177 246t252 160t305.5 58t298.5 -68t226 -188t109.5 -270l-167 -21q-26 170 -162.5 282.5t-319.5 112.5q-167 0 -306 -79.5t-225.5 -221.5
t-101.5 -321q-11 -133 22.5 -248.5t102.5 -197.5t172.5 -128.5t227.5 -46.5q182 0 337 108t214 273zM1065 1653h-186l229 225h195z" />
    <glyph glyph-name="cacute" unicode="&#x107;" horiz-adv-x="1249" 
d="M1204 696l-153 -20q-20 114 -111.5 188t-214.5 74q-164 0 -284.5 -120t-135.5 -302q-15 -183 83 -301.5t263 -118.5q125 0 228 72t143 184l152 -20q-33 -107 -113 -192.5t-190.5 -133t-231.5 -47.5q-155 0 -271.5 71t-174 198.5t-43.5 287.5q22 243 188 401t399 158
q187 0 319.5 -107.5t147.5 -271.5zM1092 1526l-256 -283h-166l243 283h179z" />
    <glyph glyph-name="Ccircumflex" unicode="&#x108;" horiz-adv-x="1681" 
d="M1434 481l161 -30q-72 -217 -276.5 -359.5t-448.5 -142.5q-161 0 -295 58t-224 159.5t-133.5 245t-29.5 309.5t83.5 310t177 246t252 160t305.5 58t298.5 -68t226 -188t109.5 -270l-167 -21q-26 170 -162.5 282.5t-319.5 112.5q-167 0 -306 -79.5t-225.5 -221.5
t-101.5 -321q-11 -133 22.5 -248.5t102.5 -197.5t172.5 -128.5t227.5 -46.5q182 0 337 108t214 273zM1341 1636h-157l-156 154l-178 -154h-158l260 244h170z" />
    <glyph glyph-name="ccircumflex" unicode="&#x109;" horiz-adv-x="1249" 
d="M1204 696l-153 -20q-20 114 -111.5 188t-214.5 74q-164 0 -284.5 -120t-135.5 -302q-15 -183 83 -301.5t263 -118.5q125 0 228 72t143 184l152 -20q-33 -107 -113 -192.5t-190.5 -133t-231.5 -47.5q-155 0 -271.5 71t-174 198.5t-43.5 287.5q22 243 188 401t399 158
q187 0 319.5 -107.5t147.5 -271.5zM1071 1243h-149l-152 193l-184 -193h-150l258 283h166z" />
    <glyph glyph-name="Cdotaccent" unicode="&#x10a;" horiz-adv-x="1681" 
d="M1434 481l161 -30q-72 -217 -276.5 -359.5t-448.5 -142.5q-161 0 -295 58t-224 159.5t-133.5 245t-29.5 309.5t83.5 310t177 246t252 160t305.5 58t298.5 -68t226 -188t109.5 -270l-167 -21q-26 170 -162.5 282.5t-319.5 112.5q-167 0 -306 -79.5t-225.5 -221.5
t-101.5 -321q-11 -133 22.5 -248.5t102.5 -197.5t172.5 -128.5t227.5 -46.5q182 0 337 108t214 273zM987 1655q-47 0 -74.5 28t-23.5 72q6 44 37.5 71t77.5 27q48 0 75 -27t23 -71q-5 -44 -36.5 -72t-78.5 -28z" />
    <glyph glyph-name="cdotaccent" unicode="&#x10b;" horiz-adv-x="1249" 
d="M1204 696l-153 -20q-20 114 -111.5 188t-214.5 74q-164 0 -284.5 -120t-135.5 -302q-15 -183 83 -301.5t263 -118.5q125 0 228 72t143 184l152 -20q-33 -107 -113 -192.5t-190.5 -133t-231.5 -47.5q-155 0 -271.5 71t-174 198.5t-43.5 287.5q22 243 188 401t399 158
q187 0 319.5 -107.5t147.5 -271.5zM750 1227q-46 0 -73.5 30t-23.5 76q5 46 37 75.5t78 29.5q47 0 75 -29.5t23 -75.5t-37 -76t-79 -30z" />
    <glyph glyph-name="Ccaron" unicode="&#x10c;" horiz-adv-x="1681" 
d="M1434 481l161 -30q-72 -217 -276.5 -359.5t-448.5 -142.5q-161 0 -295 58t-224 159.5t-133.5 245t-29.5 309.5t83.5 310t177 246t252 160t305.5 58t298.5 -68t226 -188t109.5 -270l-167 -21q-26 170 -162.5 282.5t-319.5 112.5q-167 0 -306 -79.5t-225.5 -221.5
t-101.5 -321q-11 -133 22.5 -248.5t102.5 -197.5t172.5 -128.5t227.5 -46.5q182 0 337 108t214 273zM709 1870h159l152 -154l180 154h158l-260 -242h-170z" />
    <glyph glyph-name="ccaron" unicode="&#x10d;" horiz-adv-x="1249" 
d="M1204 696l-153 -20q-20 114 -111.5 188t-214.5 74q-164 0 -284.5 -120t-135.5 -302q-15 -183 83 -301.5t263 -118.5q125 0 228 72t143 184l152 -20q-33 -107 -113 -192.5t-190.5 -133t-231.5 -47.5q-155 0 -271.5 71t-174 198.5t-43.5 287.5q22 243 188 401t399 158
q187 0 319.5 -107.5t147.5 -271.5zM459 1526h149l152 -193l182 193h152l-260 -283h-166z" />
    <glyph glyph-name="Dcaron" unicode="&#x10e;" horiz-adv-x="1599" 
d="M635 0h-440l127 1444h440q249 0 432 -90t272.5 -254t71.5 -379q-19 -214 -138 -378t-317.5 -253.5t-447.5 -89.5zM1370 721q23 261 -148 416t-474 155h-271l-100 -1140h270q303 0 501.5 155t221.5 414zM584 1870h157l152 -154l182 154h158l-260 -242h-170z" />
    <glyph glyph-name="dcaron" unicode="&#x10f;" horiz-adv-x="1566" 
d="M1122 860l56 645h155l-131 -1505h-151l16 178q-76 -103 -189 -161t-243 -58q-232 0 -369.5 158t-115.5 399q22 243 186.5 401t396.5 158q128 0 228.5 -57t160.5 -158zM305 516q-15 -178 87.5 -291.5t273.5 -113.5t293 115t137 290q15 177 -87 292.5t-274 115.5
t-293.5 -115.5t-136.5 -292.5zM1571 1300q-40 0 -62.5 26t-19.5 67q5 41 31.5 66.5t66.5 25.5q47 0 74 -34.5t22 -88.5q-6 -75 -48.5 -148.5t-102.5 -117.5l-53 45q36 31 62 75.5t30 83.5z" />
    <glyph glyph-name="Dcroat" unicode="&#x110;" horiz-adv-x="1693" 
d="M354 756h-229l12 143h230l49 545h440q249 0 432 -90t272.5 -254t71.5 -379q-19 -214 -138 -378t-317.5 -253.5t-447.5 -89.5h-440zM1464 721q23 261 -148 416t-474 155h-271l-34 -393h419l-12 -143h-420l-53 -604h270q303 0 501.5 155t221.5 414z" />
    <glyph glyph-name="dcroat" unicode="&#x111;" horiz-adv-x="1464" 
d="M1122 860l35 393h-432l10 117h432l11 135h155l-10 -135h195l-11 -117h-194l-111 -1253h-151l16 178q-76 -103 -189 -161t-243 -58q-232 0 -369.5 158t-115.5 399q22 243 186.5 401t396.5 158q128 0 228.5 -57t160.5 -158zM305 516q-15 -178 87.5 -291.5t273.5 -113.5
t293 115t137 290q15 177 -87 292.5t-274 115.5t-293.5 -115.5t-136.5 -292.5z" />
    <glyph glyph-name="Emacron" unicode="&#x112;" horiz-adv-x="1320" 
d="M1169 819l-12 -143h-737l-47 -524h839l-12 -152h-1005l127 1444h985l-15 -152h-819l-41 -473h737zM1153 1694h-625l11 108h624z" />
    <glyph glyph-name="emacron" unicode="&#x113;" horiz-adv-x="1300" 
d="M659 100q116 0 222.5 59.5t152.5 147.5l135 -51q-60 -129 -205 -213t-307 -84q-160 0 -281 73t-180 203t-44 293q10 117 60 218.5t128.5 173.5t184 113.5t223.5 41.5q236 0 375.5 -155.5t117.5 -393.5q0 -26 -6 -61l-930 2q5 -163 103 -265t251 -102zM322 602l763 -2
q-9 149 -106 240.5t-250 91.5q-150 0 -261.5 -91.5t-145.5 -238.5zM1081 1296h-624l10 109h625z" />
    <glyph glyph-name="Ebreve" unicode="&#x114;" horiz-adv-x="1320" 
d="M1169 819l-12 -143h-737l-47 -524h839l-12 -152h-1005l127 1444h985l-15 -152h-819l-41 -473h737zM1016 1870h121q-7 -107 -93 -176.5t-208 -69.5q-123 0 -196.5 69.5t-64.5 176.5h123q-5 -57 37 -94t111 -37t118 37t52 94z" />
    <glyph glyph-name="ebreve" unicode="&#x115;" horiz-adv-x="1300" 
d="M659 100q116 0 222.5 59.5t152.5 147.5l135 -51q-60 -129 -205 -213t-307 -84q-160 0 -281 73t-180 203t-44 293q10 117 60 218.5t128.5 173.5t184 113.5t223.5 41.5q236 0 375.5 -155.5t117.5 -393.5q0 -26 -6 -61l-930 2q5 -163 103 -265t251 -102zM322 602l763 -2
q-9 149 -106 240.5t-250 91.5q-150 0 -261.5 -91.5t-145.5 -238.5zM934 1493h123q-9 -117 -92.5 -193.5t-200.5 -76.5q-118 0 -187.5 76.5t-58.5 193.5h125q-6 -67 31 -110.5t100 -43.5t108.5 43.5t51.5 110.5z" />
    <glyph glyph-name="Edotaccent" unicode="&#x116;" horiz-adv-x="1320" 
d="M1169 819l-12 -143h-737l-47 -524h839l-12 -152h-1005l127 1444h985l-15 -152h-819l-41 -473h737zM840 1655q-49 0 -76.5 27.5t-22.5 72.5q4 44 36 71t79 27q48 0 75 -27t23 -71q-5 -45 -36 -72.5t-78 -27.5z" />
    <glyph glyph-name="edotaccent" unicode="&#x117;" horiz-adv-x="1300" 
d="M659 100q116 0 222.5 59.5t152.5 147.5l135 -51q-60 -129 -205 -213t-307 -84q-160 0 -281 73t-180 203t-44 293q10 117 60 218.5t128.5 173.5t184 113.5t223.5 41.5q236 0 375.5 -155.5t117.5 -393.5q0 -26 -6 -61l-930 2q5 -163 103 -265t251 -102zM322 602l763 -2
q-9 149 -106 240.5t-250 91.5q-150 0 -261.5 -91.5t-145.5 -238.5zM766 1243q-47 0 -74 30t-22 77q3 46 35 75t79 29q46 0 74 -29t25 -75q-4 -47 -37.5 -77t-79.5 -30z" />
    <glyph glyph-name="Eogonek" unicode="&#x118;" horiz-adv-x="1320" 
d="M924 0h-729l127 1444h985l-15 -152h-819l-41 -473h737l-12 -143h-737l-47 -524h839l-12 -152h-119q-227 -60 -241 -207q-9 -111 79 -178t240 -72l-8 -114q-195 0 -312.5 95.5t-105.5 246.5q6 74 56.5 133.5t134.5 95.5z" />
    <glyph glyph-name="eogonek" unicode="&#x119;" horiz-adv-x="1300" 
d="M627 -41q-229 11 -363 170.5t-112 398.5q10 117 60 218.5t128.5 173.5t184 113.5t223.5 41.5q236 0 375.5 -155.5t117.5 -393.5q0 -26 -6 -61l-930 2q5 -163 103 -265t251 -102q116 0 222.5 59.5t152.5 147.5l135 -51q-49 -105 -156 -182t-237 -103q-150 -62 -160 -180
q-9 -111 79.5 -178t240.5 -72l-8 -114q-196 0 -313 96t-105 246q9 115 117 190zM322 602l763 -2q-9 149 -106 240.5t-250 91.5q-150 0 -261.5 -91.5t-145.5 -238.5z" />
    <glyph glyph-name="Ecaron" unicode="&#x11a;" horiz-adv-x="1320" 
d="M1169 819l-12 -143h-737l-47 -524h839l-12 -152h-1005l127 1444h985l-15 -152h-819l-41 -473h737zM539 1870h155l154 -162l182 162h156l-262 -252h-168z" />
    <glyph glyph-name="ecaron" unicode="&#x11b;" horiz-adv-x="1300" 
d="M659 100q116 0 222.5 59.5t152.5 147.5l135 -51q-60 -129 -205 -213t-307 -84q-160 0 -281 73t-180 203t-44 293q10 117 60 218.5t128.5 173.5t184 113.5t223.5 41.5q236 0 375.5 -155.5t117.5 -393.5q0 -26 -6 -61l-930 2q5 -163 103 -265t251 -102zM322 602l763 -2
q-9 149 -106 240.5t-250 91.5q-150 0 -261.5 -91.5t-145.5 -238.5zM473 1526h150l151 -193l182 193h152l-260 -283h-166z" />
    <glyph glyph-name="Gcircumflex" unicode="&#x11c;" horiz-adv-x="1777" 
d="M1536 643l-582 2l13 152h753q-3 -182 -66.5 -339.5t-172 -269.5t-260 -175.5t-324.5 -63.5q-222 0 -391 99.5t-253 276t-65 396.5q19 222 134 398.5t301 276t409 99.5q150 0 282.5 -55.5t222 -154.5t116.5 -222l-162 -49q-32 143 -166 236t-307 93q-174 0 -319.5 -79
t-235.5 -221t-105 -322q-16 -177 49 -319t196.5 -222t305.5 -80q243 0 422.5 155.5t204.5 387.5zM1368 1628h-158l-153 154l-178 -154h-160l260 242h170z" />
    <glyph glyph-name="gcircumflex" unicode="&#x11d;" horiz-adv-x="1363" 
d="M139 -154l154 37q25 -113 119 -183.5t221 -70.5q169 0 284 103.5t132 283.5l14 164q-78 -100 -187.5 -154.5t-238.5 -54.5q-232 0 -369.5 154.5t-117.5 390.5q22 241 186.5 398t396.5 157q131 0 230 -55t159 -154l15 172h155l-88 -1018q-21 -244 -181.5 -386t-395.5 -142
q-187 0 -323 100t-165 258zM666 113q172 0 293.5 114t136.5 289q15 182 -86 299t-273 117t-294.5 -117.5t-137.5 -298.5q-15 -174 87.5 -288.5t273.5 -114.5zM1081 1243h-151l-150 193l-186 -193h-148l256 283h168z" />
    <glyph glyph-name="Gbreve" unicode="&#x11e;" horiz-adv-x="1777" 
d="M1536 643l-582 2l13 152h753q-3 -182 -66.5 -339.5t-172 -269.5t-260 -175.5t-324.5 -63.5q-222 0 -391 99.5t-253 276t-65 396.5q19 222 134 398.5t301 276t409 99.5q150 0 282.5 -55.5t222 -154.5t116.5 -222l-162 -49q-32 143 -166 236t-307 93q-174 0 -319.5 -79
t-235.5 -221t-105 -322q-16 -177 49 -319t196.5 -222t305.5 -80q243 0 422.5 155.5t204.5 387.5zM1225 1870h121q-9 -107 -95 -176.5t-209 -69.5q-121 0 -194 69.5t-64 176.5h123q-5 -57 36 -94t110 -37t118.5 37t53.5 94z" />
    <glyph glyph-name="gbreve" unicode="&#x11f;" horiz-adv-x="1363" 
d="M139 -154l154 37q25 -113 119 -183.5t221 -70.5q169 0 284 103.5t132 283.5l14 164q-78 -100 -187.5 -154.5t-238.5 -54.5q-232 0 -369.5 154.5t-117.5 390.5q22 241 186.5 398t396.5 157q131 0 230 -55t159 -154l15 172h155l-88 -1018q-21 -244 -181.5 -386t-395.5 -142
q-187 0 -323 100t-165 258zM666 113q172 0 293.5 114t136.5 289q15 182 -86 299t-273 117t-294.5 -117.5t-137.5 -298.5q-15 -174 87.5 -288.5t273.5 -114.5zM934 1493h125q-10 -117 -94 -193.5t-201 -76.5t-186.5 76.5t-59.5 193.5h125q-6 -67 31 -110.5t100 -43.5
t108.5 43.5t51.5 110.5z" />
    <glyph glyph-name="Gdotaccent" unicode="&#x120;" horiz-adv-x="1777" 
d="M1536 643l-582 2l13 152h753q-3 -182 -66.5 -339.5t-172 -269.5t-260 -175.5t-324.5 -63.5q-222 0 -391 99.5t-253 276t-65 396.5q19 222 134 398.5t301 276t409 99.5q150 0 282.5 -55.5t222 -154.5t116.5 -222l-162 -49q-32 143 -166 236t-307 93q-174 0 -319.5 -79
t-235.5 -221t-105 -322q-16 -177 49 -319t196.5 -222t305.5 -80q243 0 422.5 155.5t204.5 387.5zM1047 1655q-47 0 -75 28t-24 72q6 44 37.5 71t77.5 27q48 0 75 -27t23 -71q-5 -45 -36 -72.5t-78 -27.5z" />
    <glyph glyph-name="gdotaccent" unicode="&#x121;" horiz-adv-x="1363" 
d="M139 -154l154 37q25 -113 119 -183.5t221 -70.5q169 0 284 103.5t132 283.5l14 164q-78 -100 -187.5 -154.5t-238.5 -54.5q-232 0 -369.5 154.5t-117.5 390.5q22 241 186.5 398t396.5 157q131 0 230 -55t159 -154l15 172h155l-88 -1018q-21 -244 -181.5 -386t-395.5 -142
q-187 0 -323 100t-165 258zM666 113q172 0 293.5 114t136.5 289q15 182 -86 299t-273 117t-294.5 -117.5t-137.5 -298.5q-15 -174 87.5 -288.5t273.5 -114.5zM762 1243q-47 0 -74 30t-22 77q3 46 35 75t79 29q46 0 74 -29t25 -75q-4 -47 -37.5 -77t-79.5 -30z" />
    <glyph glyph-name="Gcommaaccent" unicode="&#x122;" horiz-adv-x="1777" 
d="M1536 643l-582 2l13 152h753q-3 -182 -66.5 -339.5t-172 -269.5t-260 -175.5t-324.5 -63.5q-222 0 -391 99.5t-253 276t-65 396.5q19 222 134 398.5t301 276t409 99.5q150 0 282.5 -55.5t222 -154.5t116.5 -222l-162 -49q-32 143 -166 236t-307 93q-174 0 -319.5 -79
t-235.5 -221t-105 -322q-16 -177 49 -319t196.5 -222t305.5 -80q243 0 422.5 155.5t204.5 387.5zM868 -399q-38 0 -60.5 25.5t-19.5 66.5t31 66.5t68 25.5q47 0 73.5 -34t22.5 -89q-7 -76 -49.5 -149.5t-104.5 -116.5l-51 45q36 31 61.5 76t28.5 84z" />
    <glyph glyph-name="gcommaaccent" unicode="&#x123;" horiz-adv-x="1363" 
d="M139 -154l154 37q25 -113 119 -183.5t221 -70.5q169 0 284 103.5t132 283.5l14 164q-78 -100 -187.5 -154.5t-238.5 -54.5q-232 0 -369.5 154.5t-117.5 390.5q22 241 186.5 398t396.5 157q131 0 230 -55t159 -154l15 172h155l-88 -1018q-21 -244 -181.5 -386t-395.5 -142
q-187 0 -323 100t-165 258zM666 113q172 0 293.5 114t136.5 289q15 182 -86 299t-273 117t-294.5 -117.5t-137.5 -298.5q-15 -174 87.5 -288.5t273.5 -114.5zM791 1391q40 0 62 -26t17 -67q-3 -42 -29 -67t-67 -25q-46 0 -72 34t-22 89q6 76 48 149.5t103 116.5l52 -45
q-37 -31 -62 -75t-30 -84z" />
    <glyph glyph-name="Itilde" unicode="&#x128;" horiz-adv-x="573" 
d="M362 0h-172l127 1444h172zM162 1692l-80 61q33 61 95.5 98t135.5 37q47 0 87.5 -18t63.5 -39t55 -39t65 -18q82 0 139 92l80 -62q-33 -61 -97.5 -99t-142.5 -38q-51 0 -91.5 18t-61.5 39.5t-50 39.5t-59 18q-76 0 -139 -90z" />
    <glyph glyph-name="itilde" unicode="&#x129;" horiz-adv-x="518" 
d="M319 0h-157l90 1034h158zM98 1290l-80 47q34 61 97 98.5t133 37.5q47 0 87.5 -18.5t64.5 -41t57 -41t67 -18.5q39 0 74.5 22t56.5 56l82 -48q-31 -61 -95.5 -99t-141.5 -38q-49 0 -90.5 18.5t-65 40t-55 40t-64.5 18.5q-77 0 -127 -74z" />
    <glyph glyph-name="Imacron" unicode="&#x12a;" horiz-adv-x="530" 
d="M350 0h-172l127 1444h172zM725 1694h-627l11 108h626z" />
    <glyph glyph-name="imacron" unicode="&#x12b;" horiz-adv-x="456" 
d="M307 0h-157l90 1034h157zM653 1296h-624l10 109h625z" />
    <glyph glyph-name="Iogonek" unicode="&#x12e;" horiz-adv-x="557" 
d="M197 0h-2l127 1444h170l-127 -1444h-11q-225 -60 -239 -207q-10 -111 78.5 -178t240.5 -72l-8 -114q-197 0 -314.5 95.5t-105.5 246.5q6 74 56.5 133.5t134.5 95.5z" />
    <glyph glyph-name="iogonek" unicode="&#x12f;" horiz-adv-x="491" 
d="M178 4l90 1030h156l-90 -1034h-6q-232 -60 -246 -209q-9 -111 79 -178t240 -72l-8 -114q-196 0 -314 96.5t-104 245.5q8 78 61 139.5t142 95.5zM264 1331q3 45 36 75t79 30q47 0 74 -29.5t24 -75.5q-5 -46 -37.5 -76t-79.5 -30q-46 0 -73 30t-23 76z" />
    <glyph glyph-name="Idotaccent" unicode="&#x130;" horiz-adv-x="559" 
d="M365 0h-170l127 1444h170zM424 1655q-47 0 -74.5 28t-23.5 72q6 44 37 71t77 27q49 0 76.5 -27t22.5 -71q-5 -45 -35.5 -72.5t-79.5 -27.5z" />
    <glyph glyph-name="dotlessi" unicode="&#x131;" horiz-adv-x="471" 
d="M313 0h-155l90 1034h155z" />
    <glyph glyph-name="IJ" unicode="&#x132;" horiz-adv-x="1429" 
d="M365 0h-170l127 1444h170zM1106 432l90 1012h172l-88 -1010q-20 -213 -153 -344t-322 -131q-130 0 -258 41l12 147q119 -36 225 -36q131 0 220.5 86.5t101.5 234.5z" />
    <glyph glyph-name="ij" unicode="&#x133;" horiz-adv-x="944" 
d="M342 0h-156l90 1034h156zM618 -154l105 1188h156l-105 -1204q-12 -131 -94 -211t-203 -80q-93 0 -172 27l12 137q59 -20 132 -20q70 0 116.5 45.5t52.5 117.5zM274 1331q3 46 35.5 75.5t79.5 29.5q46 0 73.5 -29.5t24.5 -75.5q-5 -46 -37.5 -76t-78.5 -30q-47 0 -74.5 30
t-22.5 76zM721 1331q3 46 35.5 75.5t79.5 29.5q46 0 73.5 -29.5t24.5 -75.5q-4 -46 -37.5 -76t-79.5 -30q-47 0 -74 30t-22 76z" />
    <glyph glyph-name="Kcommaaccent" unicode="&#x136;" horiz-adv-x="1265" 
d="M424 682l-59 -682h-170l127 1444h170l-56 -633l668 633h223l-745 -699l639 -745h-224zM629 -399q-40 0 -61.5 25.5t-18.5 66.5t30 66.5t68 25.5q46 0 72 -34t22 -89q-7 -76 -49 -148.5t-104 -115.5l-51 43q37 31 63 76t29 84z" />
    <glyph glyph-name="kcommaaccent" unicode="&#x137;" horiz-adv-x="1054" 
d="M360 489l-43 -489h-155l131 1505h156l-78 -889l487 418h211l-559 -481l489 -553h-211zM522 -383q-40 0 -62.5 26t-17.5 66q3 41 31 67.5t68 26.5q47 0 73 -34.5t21 -90.5q-6 -74 -48.5 -147.5t-103.5 -116.5l-51 43q35 32 60 77t30 83z" />
    <glyph glyph-name="Lacute" unicode="&#x139;" horiz-adv-x="1183" 
d="M492 1444l-115 -1292h739l-12 -152h-909l127 1444h170zM524 1645h-186l231 225h195z" />
    <glyph glyph-name="lacute" unicode="&#x13a;" horiz-adv-x="714" 
d="M317 0h-155l131 1505h156zM487 1659h-188l229 225h197z" />
    <glyph glyph-name="Lcommaaccent" unicode="&#x13b;" horiz-adv-x="1183" 
d="M492 1444l-115 -1292h739l-12 -152h-909l127 1444h170zM616 -399q-39 0 -60.5 25t-18.5 67q3 41 30 66.5t68 25.5q46 0 72 -34t22 -89q-7 -76 -49.5 -148.5t-104.5 -115.5l-51 43q37 31 63 76t29 84z" />
    <glyph glyph-name="lcommaaccent" unicode="&#x13c;" horiz-adv-x="497" 
d="M317 0h-155l131 1505h156zM205 -397q-39 0 -61 26t-19 66q3 41 30 66.5t68 25.5q46 0 72 -34t22 -89q-8 -75 -50 -148t-103 -116l-51 43q38 33 63.5 77t28.5 83z" />
    <glyph glyph-name="Lcaron" unicode="&#x13d;" horiz-adv-x="1183" 
d="M492 1444l-115 -1292h739l-12 -152h-909l127 1444h170zM776 1315q-39 0 -61 26t-19 66q3 41 30.5 67.5t68.5 26.5q47 0 74 -34.5t22 -90.5q-6 -74 -49.5 -147t-104.5 -117l-53 43q37 33 63 77.5t29 82.5z" />
    <glyph glyph-name="lcaron" unicode="&#x13e;" horiz-adv-x="700" 
d="M317 0h-155l131 1505h156zM705 1300q-39 -1 -62 25t-20 68q5 40 32 66t66 26q47 0 74 -34.5t22 -88.5q-6 -76 -48 -149.5t-103 -116.5l-52 45q35 32 61 76t30 83z" />
    <glyph glyph-name="Lslash" unicode="&#x141;" horiz-adv-x="1048" 
d="M285 0l45 514l-238 -137l14 151l236 138l70 778h170l-60 -674l604 348l-14 -151l-604 -349l-41 -466h739l-12 -152h-909z" />
    <glyph glyph-name="lslash" unicode="&#x142;" horiz-adv-x="886" 
d="M600 918l336 204l-14 -151l-334 -205l-68 -766h-155l57 666l-332 -203l12 151l334 203l60 688h155z" />
    <glyph glyph-name="Nacute" unicode="&#x143;" horiz-adv-x="1529" 
d="M365 0h-170l127 1444h231l631 -1235l108 1235h172l-127 -1444h-231l-633 1235zM995 1645h-188l231 225h195z" />
    <glyph glyph-name="nacute" unicode="&#x144;" 
d="M766 1075q195 0 299.5 -128t85.5 -329l-53 -618h-156l53 618q12 140 -56 227t-202 87q-138 0 -246 -94t-120 -234l-54 -604h-155l90 1034h156l-13 -145q61 86 162 136t209 50zM1098 1526l-258 -283h-166l244 283h180z" />
    <glyph glyph-name="Ncommaaccent" unicode="&#x145;" horiz-adv-x="1529" 
d="M365 0h-170l127 1444h231l631 -1235l108 1235h172l-127 -1444h-231l-633 1235zM723 -401q-38 -1 -60.5 25t-17.5 67q3 40 30 66t68 26q46 0 72.5 -34.5t20.5 -88.5q-6 -76 -48 -149.5t-104 -116.5l-51 45q37 31 62 75.5t28 84.5z" />
    <glyph glyph-name="ncommaaccent" unicode="&#x146;" 
d="M766 1075q195 0 299.5 -128t85.5 -329l-53 -618h-156l53 618q12 140 -56 227t-202 87q-138 0 -246 -94t-120 -234l-54 -604h-155l90 1034h156l-13 -145q61 86 162 136t209 50zM594 -403q-40 0 -62.5 26t-17.5 66q3 41 30.5 67.5t67.5 26.5q47 0 74 -35t21 -90
q-6 -75 -48 -148t-104 -116l-51 43q36 33 61.5 77.5t28.5 82.5z" />
    <glyph glyph-name="Ncaron" unicode="&#x147;" horiz-adv-x="1529" 
d="M365 0h-170l127 1444h231l631 -1235l108 1235h172l-127 -1444h-231l-633 1235zM598 1870h158l151 -154l183 154h157l-262 -242h-168z" />
    <glyph glyph-name="ncaron" unicode="&#x148;" 
d="M766 1075q195 0 299.5 -128t85.5 -329l-53 -618h-156l53 618q12 140 -56 227t-202 87q-138 0 -246 -94t-120 -234l-54 -604h-155l90 1034h156l-13 -145q61 86 162 136t209 50zM469 1526h147l154 -193l182 193h152l-260 -283h-168z" />
    <glyph glyph-name="Omacron" unicode="&#x14c;" horiz-adv-x="1802" 
d="M188 721q14 168 84.5 312t181 245.5t260.5 159t318 57.5q225 0 394 -98.5t252.5 -275t64.5 -400.5q-20 -224 -134.5 -400t-300.5 -274t-411 -98q-168 0 -308 57.5t-233 158.5t-138 244.5t-30 311.5zM358 721q-16 -178 49 -319.5t196.5 -221t305.5 -80.5q131 0 248 46.5
t203.5 128.5t142.5 197.5t68 248.5q23 272 -132.5 447t-420.5 175q-174 0 -319.5 -79.5t-235.5 -221.5t-105 -321zM1362 1694h-625l11 108h624z" />
    <glyph glyph-name="omacron" unicode="&#x14d;" horiz-adv-x="1310" 
d="M1253 516q-22 -244 -191 -400.5t-411 -156.5q-243 0 -383 156t-118 401q22 246 189.5 402.5t410.5 156.5q159 0 279 -71t179 -198.5t45 -289.5zM1096 516q15 182 -86 299t-273 117t-294.5 -117.5t-137.5 -298.5q-15 -180 86.5 -298t272.5 -118q172 0 294.5 118t137.5 298
zM1081 1296h-626l10 109h627z" />
    <glyph glyph-name="Obreve" unicode="&#x14e;" horiz-adv-x="1802" 
d="M188 721q14 168 84.5 312t181 245.5t260.5 159t318 57.5q225 0 394 -98.5t252.5 -275t64.5 -400.5q-20 -224 -134.5 -400t-300.5 -274t-411 -98q-168 0 -308 57.5t-233 158.5t-138 244.5t-30 311.5zM358 721q-16 -178 49 -319.5t196.5 -221t305.5 -80.5q131 0 248 46.5
t203.5 128.5t142.5 197.5t68 248.5q23 272 -132.5 447t-420.5 175q-174 0 -319.5 -79.5t-235.5 -221.5t-105 -321zM1225 1870h121q-9 -107 -95 -176.5t-209 -69.5q-121 0 -194 69.5t-64 176.5h123q-4 -57 37 -94t109 -37q70 0 118.5 37t53.5 94z" />
    <glyph glyph-name="obreve" unicode="&#x14f;" horiz-adv-x="1310" 
d="M1253 516q-22 -244 -191 -400.5t-411 -156.5q-243 0 -383 156t-118 401q22 246 189.5 402.5t410.5 156.5q159 0 279 -71t179 -198.5t45 -289.5zM1096 516q15 182 -86 299t-273 117t-294.5 -117.5t-137.5 -298.5q-15 -180 86.5 -298t272.5 -118q172 0 294.5 118t137.5 298
zM932 1493h125q-11 -117 -94 -193.5t-201 -76.5q-117 0 -186 76.5t-60 193.5h125q-6 -67 31 -110.5t100 -43.5q64 0 109 43t51 111z" />
    <glyph glyph-name="Ohungarumlaut" unicode="&#x150;" horiz-adv-x="1802" 
d="M188 721q14 168 84.5 312t181 245.5t260.5 159t318 57.5q225 0 394 -98.5t252.5 -275t64.5 -400.5q-20 -224 -134.5 -400t-300.5 -274t-411 -98q-168 0 -308 57.5t-233 158.5t-138 244.5t-30 311.5zM358 721q-16 -178 49 -319.5t196.5 -221t305.5 -80.5q131 0 248 46.5
t203.5 128.5t142.5 197.5t68 248.5q23 272 -132.5 447t-420.5 175q-174 0 -319.5 -79.5t-235.5 -221.5t-105 -321zM1167 1870l-233 -242h-141l208 242h166zM1505 1870l-243 -242h-140l219 242h164z" />
    <glyph glyph-name="ohungarumlaut" unicode="&#x151;" horiz-adv-x="1308" 
d="M1251 516q-22 -245 -190.5 -401t-411.5 -156t-383.5 156t-118.5 401q22 246 190 402.5t411 156.5t384 -156.5t119 -402.5zM1094 516q15 182 -86 299t-273 117t-294.5 -117.5t-137.5 -298.5q-15 -180 86.5 -298t272.5 -118q172 0 294.5 118t137.5 298zM948 1518l-256 -275
h-149l229 273zM1284 1516l-262 -273h-152l244 273h170z" />
    <glyph glyph-name="OE" unicode="&#x152;" horiz-adv-x="2189" 
d="M188 721q19 221 131.5 394.5t293.5 268.5t399 95q139 0 252 -35h911l-14 -152h-750l-43 -487h668l-13 -143h-667l-45 -510h770l-13 -152h-931q-126 -35 -256 -35q-218 0 -382.5 95.5t-247 268t-63.5 392.5zM1143 154l98 1134q-88 37 -233 37q-171 0 -313.5 -75.5
t-232 -214t-104.5 -314.5q-23 -264 126.5 -433t402.5 -169q153 0 256 35z" />
    <glyph glyph-name="oe" unicode="&#x153;" horiz-adv-x="2248" 
d="M1610 100q115 0 221 59.5t154 147.5l133 -51q-60 -129 -204.5 -213t-307.5 -84q-156 0 -274.5 69.5t-180.5 192.5q-79 -123 -210.5 -192.5t-289.5 -69.5q-243 0 -383 156t-118 401q22 246 189.5 402.5t410.5 156.5q155 0 272 -68t178 -188q83 120 212 188t284 68
q236 0 375.5 -155t117.5 -394q0 -26 -6 -61l-928 2q3 -163 101.5 -265t253.5 -102zM1096 516q15 182 -86 299t-273 117t-294.5 -117.5t-137.5 -298.5q-15 -180 86.5 -298t272.5 -118q172 0 294.5 118t137.5 298zM1270 602l764 -2q-9 149 -106.5 240.5t-250.5 91.5
q-150 0 -261.5 -91.5t-145.5 -238.5z" />
    <glyph glyph-name="Racute" unicode="&#x154;" horiz-adv-x="1495" 
d="M874 565h-460l-49 -565h-170l127 1444h636q229 0 365 -125t119 -320q-13 -147 -123 -261t-270 -148l317 -590h-199zM932 1292h-455l-49 -575h455q160 0 269.5 79t119.5 203q10 135 -84 214t-256 79zM973 1645h-189l232 225h196z" />
    <glyph glyph-name="racute" unicode="&#x155;" horiz-adv-x="835" 
d="M694 1071q61 0 137 -29l-14 -143q-67 33 -149 33q-121 0 -203 -98t-96 -254l-52 -580h-155l90 1034h151l-12 -143q115 180 303 180zM899 1526l-258 -283h-166l244 283h180z" />
    <glyph glyph-name="Rcommaaccent" unicode="&#x156;" horiz-adv-x="1495" 
d="M874 565h-460l-49 -565h-170l127 1444h636q229 0 365 -125t119 -320q-13 -147 -123 -261t-270 -148l317 -590h-199zM932 1292h-455l-49 -575h455q160 0 269.5 79t119.5 203q10 135 -84 214t-256 79zM719 -401q-39 0 -61.5 25.5t-18.5 66.5q3 41 30.5 66.5t67.5 25.5
q47 0 73.5 -34.5t20.5 -88.5q-6 -76 -47.5 -149.5t-103.5 -116.5l-51 45q36 31 61.5 76t28.5 84z" />
    <glyph glyph-name="rcommaaccent" unicode="&#x157;" horiz-adv-x="796" 
d="M694 1071q61 0 137 -29l-14 -143q-67 33 -149 33q-121 0 -203 -98t-96 -254l-52 -580h-155l90 1034h151l-12 -143q115 180 303 180zM205 -397q-40 0 -61.5 25.5t-18.5 66.5t30 66.5t68 25.5q46 0 72 -34.5t22 -88.5q-8 -77 -50 -150t-103 -116l-51 45q37 31 63 76t29 84z
" />
    <glyph glyph-name="Rcaron" unicode="&#x158;" horiz-adv-x="1495" 
d="M874 565h-460l-49 -565h-170l127 1444h636q229 0 365 -125t119 -320q-13 -147 -123 -261t-270 -148l317 -590h-199zM932 1292h-455l-49 -575h455q160 0 269.5 79t119.5 203q10 135 -84 214t-256 79zM563 1870h158l151 -154l183 154h157l-260 -242h-170z" />
    <glyph glyph-name="rcaron" unicode="&#x159;" horiz-adv-x="806" 
d="M694 1071q61 0 137 -29l-14 -143q-67 33 -149 33q-121 0 -203 -98t-96 -254l-52 -580h-155l90 1034h151l-12 -143q115 180 303 180zM266 1526h148l153 -193l183 193h151l-260 -283h-168z" />
    <glyph glyph-name="Sacute" unicode="&#x15a;" horiz-adv-x="1439" 
d="M741 -51q-266 0 -424.5 146t-138.5 372h170q-14 -160 101 -263.5t309 -103.5q174 0 286 80t121 197q6 63 -23.5 109t-83 73.5t-125 47.5t-150.5 36t-158 34t-149.5 47t-123 69t-80.5 105.5t-20 152.5q17 194 179.5 319t404.5 125q163 0 287.5 -62.5t187.5 -174t51 -252.5
h-166q13 148 -92.5 242.5t-282.5 94.5q-168 0 -278 -76t-119 -190q-5 -61 24.5 -106t83.5 -71.5t125 -46.5t150.5 -36t158.5 -34.5t149 -48t122.5 -70.5t80 -108t19.5 -155q-18 -197 -181.5 -324.5t-414.5 -127.5zM944 1645h-186l231 225h195z" />
    <glyph glyph-name="sacute" unicode="&#x15b;" horiz-adv-x="1107" 
d="M565 -41q-200 0 -319.5 110t-102.5 277h152q-9 -107 71 -176.5t212 -69.5q119 0 201.5 52.5t88.5 130.5q3 41 -19 71t-61.5 47.5t-91.5 30t-110 23.5t-115.5 24t-108.5 34.5t-89.5 52t-58 80.5t-13.5 116q10 134 133 223.5t291 89.5q191 0 307.5 -99t103.5 -251l-153 2
q8 89 -70 147t-205 58q-101 0 -176 -50t-82 -124q-4 -51 32.5 -85t98 -52t136 -32t148.5 -33.5t134.5 -48t95 -83t27.5 -131.5q-14 -143 -143 -238.5t-314 -95.5zM977 1526l-258 -283h-166l244 283h180z" />
    <glyph glyph-name="Scircumflex" unicode="&#x15c;" horiz-adv-x="1439" 
d="M741 -51q-266 0 -424.5 146t-138.5 372h170q-14 -160 101 -263.5t309 -103.5q174 0 286 80t121 197q6 63 -23.5 109t-83 73.5t-125 47.5t-150.5 36t-158 34t-149.5 47t-123 69t-80.5 105.5t-20 152.5q17 194 179.5 319t404.5 125q163 0 287.5 -62.5t187.5 -174t51 -252.5
h-166q13 148 -92.5 242.5t-282.5 94.5q-168 0 -278 -76t-119 -190q-5 -61 24.5 -106t83.5 -71.5t125 -46.5t150.5 -36t158.5 -34.5t149 -48t122.5 -70.5t80 -108t19.5 -155q-18 -197 -181.5 -324.5t-414.5 -127.5zM1186 1628h-158l-156 154l-178 -154h-157l260 242h170z" />
    <glyph glyph-name="scircumflex" unicode="&#x15d;" horiz-adv-x="1107" 
d="M565 -41q-200 0 -319.5 110t-102.5 277h152q-9 -107 71 -176.5t212 -69.5q119 0 201.5 52.5t88.5 130.5q3 41 -19 71t-61.5 47.5t-91.5 30t-110 23.5t-115.5 24t-108.5 34.5t-89.5 52t-58 80.5t-13.5 116q10 134 133 223.5t291 89.5q191 0 307.5 -99t103.5 -251l-153 2
q8 89 -70 147t-205 58q-101 0 -176 -50t-82 -124q-4 -51 32.5 -85t98 -52t136 -32t148.5 -33.5t134.5 -48t95 -83t27.5 -131.5q-14 -143 -143 -238.5t-314 -95.5zM956 1243h-151l-150 193l-184 -193h-149l258 283h165z" />
    <glyph glyph-name="Scedilla" unicode="&#x15e;" horiz-adv-x="1439" 
d="M696 -219h-100l35 176q-220 29 -346 169.5t-107 340.5h170q-14 -160 101 -263.5t309 -103.5q174 0 286 80t121 197q6 63 -23.5 109t-83 73.5t-125 47.5t-150.5 36t-158 34t-149.5 47t-123 69t-80.5 105.5t-20 152.5q17 194 179.5 319t404.5 125q163 0 287.5 -62.5
t187.5 -174t51 -252.5h-166q13 148 -92.5 242.5t-282.5 94.5q-168 0 -278 -76t-119 -190q-5 -61 24.5 -106t83.5 -71.5t125 -46.5t150.5 -36t158.5 -34.5t149 -48t122.5 -70.5t80 -108t19.5 -155q-9 -96 -55.5 -179t-122.5 -143t-183 -94.5t-231 -35.5l-18 -84
q104 0 163 -59t50 -156q-7 -91 -75 -147t-169 -56q-85 0 -143 47t-64 121l107 23q6 -38 36 -63.5t70 -25.5q47 0 80.5 30.5t36.5 76.5q5 56 -29 90.5t-94 34.5z" />
    <glyph glyph-name="scedilla" unicode="&#x15f;" horiz-adv-x="1107" 
d="M553 -219h-100l36 182q-168 22 -264.5 127t-81.5 256h152q-9 -107 71 -176.5t212 -69.5q119 0 201.5 52.5t88.5 130.5q3 41 -19 71t-61.5 47.5t-91.5 30t-110 23.5t-115.5 24t-108.5 34.5t-89.5 52t-58 80.5t-13.5 116q10 134 133 223.5t291 89.5q191 0 307.5 -99
t103.5 -251l-153 2q8 89 -70 147t-205 58q-101 0 -176 -50t-82 -124q-4 -51 32.5 -85t98 -52t136 -32t148.5 -33.5t134.5 -48t95 -83t27.5 -131.5q-12 -135 -129 -228t-287 -104l-22 -96q106 0 164 -59t49 -156q-7 -91 -75 -147t-169 -56q-85 0 -142 47t-63 121l105 23
q8 -38 38 -63.5t68 -25.5q47 0 81.5 30.5t37.5 76.5q4 56 -30.5 90.5t-94.5 34.5z" />
    <glyph glyph-name="Scaron" unicode="&#x160;" horiz-adv-x="1439" 
d="M741 -51q-266 0 -424.5 146t-138.5 372h170q-14 -160 101 -263.5t309 -103.5q174 0 286 80t121 197q6 63 -23.5 109t-83 73.5t-125 47.5t-150.5 36t-158 34t-149.5 47t-123 69t-80.5 105.5t-20 152.5q17 194 179.5 319t404.5 125q163 0 287.5 -62.5t187.5 -174t51 -252.5
h-166q13 148 -92.5 242.5t-282.5 94.5q-168 0 -278 -76t-119 -190q-5 -61 24.5 -106t83.5 -71.5t125 -46.5t150.5 -36t158.5 -34.5t149 -48t122.5 -70.5t80 -108t19.5 -155q-18 -197 -181.5 -324.5t-414.5 -127.5zM547 1870h160l151 -154l182 154h156l-260 -242h-168z" />
    <glyph glyph-name="scaron" unicode="&#x161;" horiz-adv-x="1107" 
d="M565 -41q-200 0 -319.5 110t-102.5 277h152q-9 -107 71 -176.5t212 -69.5q119 0 201.5 52.5t88.5 130.5q3 41 -19 71t-61.5 47.5t-91.5 30t-110 23.5t-115.5 24t-108.5 34.5t-89.5 52t-58 80.5t-13.5 116q10 134 133 223.5t291 89.5q191 0 307.5 -99t103.5 -251l-153 2
q8 89 -70 147t-205 58q-101 0 -176 -50t-82 -124q-4 -51 32.5 -85t98 -52t136 -32t148.5 -33.5t134.5 -48t95 -83t27.5 -131.5q-14 -143 -143 -238.5t-314 -95.5zM344 1526h148l153 -193l182 193h152l-260 -283h-168z" />
    <glyph glyph-name="Tcommaaccent" unicode="&#x162;" horiz-adv-x="1222" 
d="M809 1292l-113 -1292h-170l113 1292h-483l14 152h1137l-15 -152h-483zM567 -401q-40 0 -62 25.5t-18 66.5q3 40 31 66t68 26q47 0 73.5 -34.5t20.5 -88.5q-6 -76 -48 -149.5t-104 -116.5l-51 45q36 31 61.5 76t28.5 84z" />
    <glyph glyph-name="tcommaaccent" unicode="&#x163;" horiz-adv-x="794" 
d="M272 256l58 649h-170l10 129h176l45 242h127l-22 -242h268l-10 -129h-269l-57 -643q-6 -76 33 -122.5t112 -47.5q55 0 127 21l-12 -129q-84 -25 -166 -25q-127 0 -194.5 81.5t-55.5 215.5zM444 -403q-39 0 -61.5 26t-17.5 66q3 41 30.5 67.5t67.5 26.5q47 0 73.5 -35
t20.5 -90q-6 -75 -48 -148t-103 -116l-52 43q36 33 61.5 77.5t28.5 82.5z" />
    <glyph glyph-name="Tcaron" unicode="&#x164;" horiz-adv-x="1222" 
d="M809 1292l-113 -1292h-170l113 1292h-483l14 152h1137l-15 -152h-483zM451 1870h157l152 -154l182 154h158l-260 -242h-170z" />
    <glyph glyph-name="tcaron" unicode="&#x165;" horiz-adv-x="794" 
d="M272 256l58 649h-170l10 129h176l45 242h127l-22 -242h268l-10 -129h-269l-57 -643q-6 -76 33 -122.5t112 -47.5q55 0 127 21l-12 -129q-84 -25 -166 -25q-127 0 -194.5 81.5t-55.5 215.5zM733 1370q-39 0 -62 26t-20 66q5 42 31.5 68t67.5 26q47 0 73.5 -34.5
t22.5 -89.5q-6 -74 -49.5 -148t-104.5 -117l-51 43q36 32 61.5 76.5t30.5 83.5z" />
    <glyph glyph-name="Utilde" unicode="&#x168;" horiz-adv-x="1533" 
d="M1233 586l76 858h170l-76 -858q-25 -280 -204 -458.5t-435 -178.5q-170 0 -297 81t-188.5 226.5t-45.5 329.5l76 858h170l-76 -858q-12 -132 29 -242.5t131 -177t213 -66.5q185 0 311.5 135.5t145.5 350.5zM653 1692l-78 61q31 60 94 97.5t136 37.5q47 0 87.5 -18
t63.5 -39t54.5 -39t64.5 -18q82 0 139 92l80 -62q-33 -61 -97 -99t-142 -38q-51 0 -91.5 18t-61.5 39.5t-50 39.5t-59 18q-77 0 -140 -90z" />
    <glyph glyph-name="utilde" unicode="&#x169;" 
d="M563 -41q-195 0 -299.5 128t-85.5 329l53 618h156l-53 -618q-12 -140 56.5 -228t203.5 -88q137 0 244.5 94.5t119.5 233.5l54 606h155l-90 -1034h-155l12 145q-59 -85 -161 -135.5t-210 -50.5zM471 1290l-80 45q32 60 96 97.5t134 37.5q46 0 86.5 -18.5t65 -40.5
t57.5 -40.5t67 -18.5q39 0 74.5 22t56.5 56l82 -46q-31 -62 -96 -100.5t-142 -38.5q-41 0 -75 12.5t-57 29.5t-44 34.5t-46 30t-52 12.5q-77 0 -127 -74z" />
    <glyph glyph-name="Umacron" unicode="&#x16a;" horiz-adv-x="1533" 
d="M1233 586l76 858h170l-76 -858q-25 -280 -204 -458.5t-435 -178.5q-170 0 -297 81t-188.5 226.5t-45.5 329.5l76 858h170l-76 -858q-12 -132 29 -242.5t131 -177t213 -66.5q185 0 311.5 135.5t145.5 350.5zM1229 1694h-627l10 108h627z" />
    <glyph glyph-name="umacron" unicode="&#x16b;" 
d="M563 -41q-195 0 -299.5 128t-85.5 329l53 618h156l-53 -618q-12 -140 56.5 -228t203.5 -88q137 0 244.5 94.5t119.5 233.5l54 606h155l-90 -1034h-155l12 145q-59 -85 -161 -135.5t-210 -50.5zM1034 1294h-624l10 109h624z" />
    <glyph glyph-name="Ubreve" unicode="&#x16c;" horiz-adv-x="1533" 
d="M1233 586l76 858h170l-76 -858q-25 -280 -204 -458.5t-435 -178.5q-170 0 -297 81t-188.5 226.5t-45.5 329.5l76 858h170l-76 -858q-12 -132 29 -242.5t131 -177t213 -66.5q185 0 311.5 135.5t145.5 350.5zM1092 1870h120q-9 -107 -95 -176.5t-208 -69.5t-195 69t-65 177
h123q-5 -57 37 -94t111 -37t118.5 37t53.5 94z" />
    <glyph glyph-name="ubreve" unicode="&#x16d;" 
d="M563 -41q-195 0 -299.5 128t-85.5 329l53 618h156l-53 -618q-12 -140 56.5 -228t203.5 -88q137 0 244.5 94.5t119.5 233.5l54 606h155l-90 -1034h-155l12 145q-59 -85 -161 -135.5t-210 -50.5zM883 1483h125q-9 -118 -91.5 -194.5t-201.5 -76.5q-117 0 -186.5 76
t-61.5 195h125q-6 -67 32 -110.5t101 -43.5q65 0 109.5 43.5t48.5 110.5z" />
    <glyph glyph-name="Uring" unicode="&#x16e;" horiz-adv-x="1533" 
d="M1233 586l76 858h170l-76 -858q-25 -280 -204 -458.5t-435 -178.5q-170 0 -297 81t-188.5 226.5t-45.5 329.5l76 858h170l-76 -858q-12 -132 29 -242.5t131 -177t213 -66.5q185 0 311.5 135.5t145.5 350.5zM905 1563q-101 0 -161 62t-54 159q10 98 81.5 160.5t172.5 62.5
t159.5 -62.5t49.5 -160.5q-8 -97 -77.5 -159t-170.5 -62zM936 1911q-57 0 -96.5 -35t-42.5 -90q-5 -56 27.5 -92.5t88.5 -36.5q55 0 94 36.5t44 92.5q4 55 -27.5 90t-87.5 35z" />
    <glyph glyph-name="uring" unicode="&#x16f;" 
d="M563 -41q-195 0 -299.5 128t-85.5 329l53 618h156l-53 -618q-12 -140 56.5 -228t203.5 -88q137 0 244.5 94.5t119.5 233.5l54 606h155l-90 -1034h-155l12 145q-59 -85 -161 -135.5t-210 -50.5zM707 1135q-107 0 -170 66t-54 169q7 104 83 170t184 66q107 0 169 -65.5
t54 -170.5q-9 -103 -84 -169t-182 -66zM739 1509q-62 0 -104 -39t-45 -100q-6 -62 29 -101.5t96 -39.5q62 0 105.5 40t49.5 101q4 61 -32.5 100t-98.5 39z" />
    <glyph glyph-name="Uhungarumlaut" unicode="&#x170;" horiz-adv-x="1533" 
d="M1233 586l76 858h170l-76 -858q-25 -280 -204 -458.5t-435 -178.5q-170 0 -297 81t-188.5 226.5t-45.5 329.5l76 858h170l-76 -858q-12 -132 29 -242.5t131 -177t213 -66.5q185 0 311.5 135.5t145.5 350.5zM1034 1882l-233 -242h-144l211 242h166zM1372 1882l-244 -242
h-141l219 242h166z" />
    <glyph glyph-name="uhungarumlaut" unicode="&#x171;" horiz-adv-x="1175" 
d="M563 -41q-195 0 -299.5 128t-85.5 329l53 618h156l-53 -618q-12 -140 56.5 -228t203.5 -88q137 0 244.5 94.5t119.5 233.5l54 606h155l-90 -1034h-155l12 145q-59 -85 -161 -135.5t-210 -50.5zM870 1516l-254 -275h-151l231 275h174zM1208 1516l-262 -275h-151l243 275
h170z" />
    <glyph glyph-name="Uogonek" unicode="&#x172;" horiz-adv-x="1533" 
d="M748 -51q-165 4 -288 86t-183 226t-44 325l76 858h170l-76 -858q-12 -132 29 -242.5t131 -177t213 -66.5q185 0 311.5 135.5t145.5 350.5l76 858h170l-76 -858q-22 -243 -163 -413.5t-353 -211.5q-127 -61 -137 -170q-9 -111 80 -178t241 -72l-8 -114q-196 0 -314 96.5
t-106 245.5q9 103 105 180z" />
    <glyph glyph-name="uogonek" unicode="&#x173;" horiz-adv-x="1353" 
d="M922 8l12 137q-59 -85 -161 -135.5t-210 -50.5q-195 0 -299.5 128t-85.5 329l53 618h156l-53 -618q-12 -140 56.5 -228t203.5 -88q137 0 244.5 94.5t119.5 233.5l54 606h155l-90 -1034h-18q-216 -61 -230 -205q-9 -109 81 -176t243 -72l-10 -114q-197 0 -314.5 95.5
t-105.5 246.5q7 76 59 137t140 96z" />
    <glyph glyph-name="Wcircumflex" unicode="&#x174;" horiz-adv-x="2203" 
d="M655 115l453 1329h250l211 -1329l489 1329h176l-536 -1444h-275l-211 1266l-430 -1266h-276l-285 1444h178zM1569 1628h-158l-156 154l-178 -154h-157l260 242h168z" />
    <glyph glyph-name="wcircumflex" unicode="&#x175;" horiz-adv-x="1800" 
d="M1147 0l-174 852l-322 -852h-213l-260 1034h164l219 -880l336 880h182l193 -880l366 880h164l-442 -1034h-213zM1327 1243h-149l-152 193l-184 -193h-148l256 283h168z" />
    <glyph glyph-name="Ycircumflex" unicode="&#x176;" horiz-adv-x="1325" 
d="M797 537l-47 -537h-172l47 537l-439 907h189l350 -744l475 744h193zM1128 1628h-157l-154 154l-178 -154h-160l262 242h168z" />
    <glyph glyph-name="ycircumflex" unicode="&#x177;" horiz-adv-x="1165" 
d="M94 -426l12 137q79 -28 134 -28q32 0 59.5 8.5t51.5 28.5t41.5 38.5t38.5 53.5t33 57.5t34.5 67t33.5 65.5l-374 1032h172l295 -839l397 839h166l-504 -1048q-25 -51 -38.5 -78t-37.5 -72.5t-40 -70t-40.5 -60.5t-45 -55.5t-48.5 -43t-55 -35.5t-60 -20t-69 -8
q-79 0 -156 31zM1012 1243h-152l-149 193l-187 -193h-147l256 283h168z" />
    <glyph glyph-name="Ydieresis" unicode="&#x178;" horiz-adv-x="1325" 
d="M797 537l-47 -537h-172l47 537l-439 907h189l350 -744l475 744h193zM584 1655q-46 0 -74 29t-25 75q4 46 37.5 75.5t79.5 29.5t73 -29.5t23 -75.5q-3 -45 -35.5 -74.5t-78.5 -29.5zM1032 1655q-47 0 -74 29t-24 75q5 46 37.5 75.5t79.5 29.5q46 0 73 -29.5t23 -75.5
q-3 -45 -36 -74.5t-79 -29.5z" />
    <glyph glyph-name="Zacute" unicode="&#x179;" horiz-adv-x="1329" 
d="M1245 141l-12 -141h-1139l10 113l992 1187h-867l13 144h1097l-10 -113l-989 -1190h905zM891 1645h-189l232 225h196z" />
    <glyph glyph-name="zacute" unicode="&#x17a;" horiz-adv-x="1138" 
d="M1034 0h-930l9 102l743 789h-653l12 143h889l-8 -102l-746 -791h697zM1001 1526l-256 -283h-165l243 283h178z" />
    <glyph glyph-name="Zdotaccent" unicode="&#x17b;" horiz-adv-x="1329" 
d="M1245 141l-12 -141h-1139l10 113l992 1187h-867l13 144h1097l-10 -113l-989 -1190h905zM809 1655q-47 0 -74.5 28t-23.5 72q6 44 37 71t77 27q49 0 76.5 -27t22.5 -71q-5 -45 -35.5 -72.5t-79.5 -27.5z" />
    <glyph glyph-name="zdotaccent" unicode="&#x17c;" horiz-adv-x="1138" 
d="M1034 0h-930l9 102l743 789h-653l12 143h889l-8 -102l-746 -791h697zM678 1251q-46 0 -73 30t-23 77q5 46 36.5 75t77.5 29q47 0 75 -29t24 -75q-5 -47 -37.5 -77t-79.5 -30z" />
    <glyph glyph-name="Zcaron" unicode="&#x17d;" horiz-adv-x="1329" 
d="M1245 141l-12 -141h-1139l10 113l992 1187h-867l13 144h1097l-10 -113l-989 -1190h905zM494 1870h157l152 -154l182 154h158l-260 -242h-170z" />
    <glyph glyph-name="zcaron" unicode="&#x17e;" horiz-adv-x="1138" 
d="M1034 0h-930l9 102l743 789h-653l12 143h889l-8 -102l-746 -791h697zM385 1526h150l151 -193l184 193h150l-260 -283h-166z" />
    <glyph glyph-name="Aacutering" unicode="&#x1fa;" horiz-adv-x="1441" 
d="M242 0h-183l666 1444h246l411 -1444h-182l-92 340h-717zM836 1292l-383 -819h620zM850 1487q-83 0 -133 51t-45 131q9 80 66.5 131t140.5 51q84 0 134 -52t42 -130q-6 -79 -64 -130.5t-141 -51.5zM872 1755q-37 0 -64 -24t-30 -62t20 -63t60 -25q38 0 64.5 25.5
t29.5 62.5q3 38 -19.5 62t-60.5 24zM975 1886h-176l178 178h184z" />
    <glyph glyph-name="aacutering" unicode="&#x1fb;" horiz-adv-x="1370" 
d="M1126 850l17 184h155l-90 -1034h-155l16 182q-76 -104 -190 -163.5t-246 -59.5q-152 0 -267.5 71.5t-172.5 199t-43 286.5q22 243 185.5 401t395.5 158q132 0 234.5 -59.5t160.5 -165.5zM664 100q171 0 294 118t138 298q15 181 -86.5 298.5t-272.5 117.5
q-172 0 -294.5 -117.5t-137.5 -298.5q-15 -180 86.5 -298t272.5 -118zM772 1174q-84 0 -133.5 51.5t-42.5 130.5q6 79 64.5 129.5t142.5 50.5q83 0 132 -50.5t44 -129.5q-8 -80 -66 -131t-141 -51zM797 1442q-39 0 -66.5 -24t-30.5 -62t19.5 -63t60.5 -25q39 0 66 25t28 63
q3 37 -18 61.5t-59 24.5zM911 1628h-188l229 225h197z" />
    <glyph glyph-name="AEacute" unicode="&#x1fc;" horiz-adv-x="1923" 
d="M1759 662h-616l-45 -510h717l-13 -152h-872l26 293h-526l-180 -293h-191l875 1444h977l-15 -154h-696l-43 -485h615zM969 438l75 881l-532 -881h457zM1343 1624h-188l231 225h197z" />
    <glyph glyph-name="aeacute" unicode="&#x1fd;" horiz-adv-x="2217" 
d="M2161 530q-1 -16 -6.5 -49t-6.5 -43h-913q11 -153 110.5 -245.5t256.5 -92.5q226 0 350 197l129 -55q-59 -123 -197.5 -203t-294.5 -80q-140 0 -250.5 65t-154.5 173l-17 -197h-125l15 172q-78 -100 -190 -156.5t-242 -56.5q-150 0 -264 71.5t-169.5 199t-41.5 286.5
q22 243 183.5 401t389.5 158q129 0 231.5 -57t163.5 -158l15 174h124l-16 -188q66 108 175 168.5t249 60.5q236 0 376 -154.5t120 -390.5zM305 516q-15 -185 86 -304.5t273 -119.5q170 0 292.5 118t139.5 306q17 185 -85 305.5t-274 120.5q-173 0 -294 -120t-138 -306z
M1239 571h766q8 158 -91.5 259.5t-264.5 101.5q-155 0 -268.5 -101.5t-141.5 -259.5zM1567 1536l-256 -283h-166l244 283h178z" />
    <glyph glyph-name="Oslashacute" unicode="&#x1fe;" horiz-adv-x="1761" 
d="M1307 1436l192 325l162 2l-229 -393q144 -103 216 -272.5t54 -376.5q-19 -220 -131.5 -396.5t-294.5 -276t-399 -99.5q-134 0 -261 43l-161 -279h-162l199 338q-161 98 -242.5 274t-61.5 396q19 222 132 399t294.5 276t397.5 99q165 0 295 -59zM358 721q-15 -169 43 -306
t174 -218l652 1099q-103 47 -230 47q-168 0 -308.5 -80t-228 -222t-102.5 -320zM1530 721q13 159 -36.5 289t-150.5 213l-643 -1092q88 -31 189 -31q255 0 435.5 175.5t205.5 445.5zM1085 1628h-188l231 225h195z" />
    <glyph glyph-name="oslashacute" unicode="&#x1ff;" horiz-adv-x="1320" 
d="M963 1038l110 191h150l-148 -252q101 -73 150.5 -193t36.5 -268q-22 -244 -192 -400.5t-413 -156.5q-83 0 -170 23l-84 -146h-149l115 197q-117 71 -174.5 197t-44.5 286q22 246 191.5 402.5t414.5 156.5q114 0 207 -37zM438 152l455 772q-70 28 -148 28
q-183 0 -310 -122.5t-144 -313.5q-10 -116 29.5 -211t117.5 -153zM1118 516q18 214 -114 340l-449 -760q49 -14 115 -14q179 0 305 122t143 312zM852 1243h-164l232 250h178z" />
    <glyph glyph-name="Scommaaccent" unicode="&#x218;" horiz-adv-x="1439" 
d="M741 -51q-266 0 -424.5 146t-138.5 372h170q-14 -160 101 -263.5t309 -103.5q174 0 286 80t121 197q6 63 -23.5 109t-83 73.5t-125 47.5t-150.5 36t-158 34t-149.5 47t-123 69t-80.5 105.5t-20 152.5q17 194 179.5 319t404.5 125q163 0 287.5 -62.5t187.5 -174t51 -252.5
h-166q13 148 -92.5 242.5t-282.5 94.5q-168 0 -278 -76t-119 -190q-5 -61 24.5 -106t83.5 -71.5t125 -46.5t150.5 -36t158.5 -34.5t149 -48t122.5 -70.5t80 -108t19.5 -155q-18 -197 -181.5 -324.5t-414.5 -127.5zM676 -403q-38 0 -60.5 26t-17.5 66q3 42 30 68t68 26
q46 0 72 -35t20 -90q-6 -75 -48 -148t-103 -116l-51 43q37 32 62 77t28 83z" />
    <glyph glyph-name="scommaaccent" unicode="&#x219;" horiz-adv-x="1107" 
d="M565 -41q-200 0 -319.5 110t-102.5 277h152q-9 -107 71 -176.5t212 -69.5q119 0 201.5 52.5t88.5 130.5q3 41 -19 71t-61.5 47.5t-91.5 30t-110 23.5t-115.5 24t-108.5 34.5t-89.5 52t-58 80.5t-13.5 116q10 134 133 223.5t291 89.5q191 0 307.5 -99t103.5 -251l-153 2
q8 89 -70 147t-205 58q-101 0 -176 -50t-82 -124q-4 -51 32.5 -85t98 -52t136 -32t148.5 -33.5t134.5 -48t95 -83t27.5 -131.5q-14 -143 -143 -238.5t-314 -95.5zM492 -403q-40 0 -62.5 26t-17.5 66q3 42 30 68t68 26q46 0 72 -35t20 -90q-6 -75 -48 -148t-103 -116l-52 43
q37 33 63.5 77.5t29.5 82.5z" />
    <glyph glyph-name="circumflex" unicode="&#x2c6;" horiz-adv-x="841" 
d="M698 1253l-149 193l-187 -193h-147l256 285h168l211 -285h-152z" />
    <glyph glyph-name="caron" unicode="&#x2c7;" horiz-adv-x="841" 
d="M240 1536h147l152 -193l184 193l151 2l-260 -285h-168z" />
    <glyph glyph-name="breve" unicode="&#x2d8;" horiz-adv-x="747" 
d="M651 1505h123q-7 -118 -90 -195t-201 -77t-187 76.5t-60 195.5h122q-5 -68 33.5 -111.5t102.5 -43.5q63 0 107 43.5t50 111.5z" />
    <glyph glyph-name="dotaccent" unicode="&#x2d9;" horiz-adv-x="421" 
d="M311 1147q-47 0 -74 30t-22 76q3 46 35.5 75.5t79.5 29.5q46 0 73.5 -29.5t24.5 -75.5q-4 -46 -37.5 -76t-79.5 -30z" />
    <glyph glyph-name="ring" unicode="&#x2da;" horiz-adv-x="696" 
d="M446 1106q-108 0 -171 66t-54 169q9 104 83 170t183 66q107 0 169 -66t53 -170q-9 -103 -82.5 -169t-180.5 -66zM479 1481q-63 0 -105.5 -39t-47.5 -101t30.5 -100.5t98.5 -38.5q61 0 104 39t47 100q6 61 -30.5 100.5t-96.5 39.5z" />
    <glyph glyph-name="ogonek" unicode="&#x2db;" horiz-adv-x="655" 
d="M358 25l80 -25q-234 -61 -248 -209q-9 -111 79.5 -178t240.5 -72l-8 -114q-196 0 -313 96t-105 246q7 93 81 161.5t193 94.5z" />
    <glyph glyph-name="tilde" unicode="&#x2dc;" horiz-adv-x="923" 
d="M297 1233l-80 45q33 61 95 99t132 38q46 0 86.5 -19t65 -41.5t58 -41.5t67.5 -19q39 0 75.5 22t57.5 56l82 -45q-33 -63 -97 -101t-141 -38q-41 0 -75 12.5t-57 30t-44 34.5t-46 29.5t-52 12.5q-77 0 -127 -74z" />
    <glyph glyph-name="hungarumlaut" unicode="&#x2dd;" horiz-adv-x="925" 
d="M618 1528l-253 -275h-150l229 275h174zM954 1528l-260 -275h-149l239 275h170z" />
    <glyph glyph-name="Wgrave" unicode="&#x1e80;" horiz-adv-x="2203" 
d="M655 115l453 1329h250l211 -1329l489 1329h176l-536 -1444h-275l-211 1266l-430 -1266h-276l-285 1444h178zM942 1870h197l190 -225h-188z" />
    <glyph glyph-name="wgrave" unicode="&#x1e81;" horiz-adv-x="1800" 
d="M1147 0l-174 852l-322 -852h-213l-260 1034h164l219 -880l336 880h182l193 -880l366 880h164l-442 -1034h-213zM907 1526l195 -283h-166l-209 283h180z" />
    <glyph glyph-name="Wacute" unicode="&#x1e82;" horiz-adv-x="2203" 
d="M655 115l453 1329h250l211 -1329l489 1329h176l-536 -1444h-275l-211 1266l-430 -1266h-276l-285 1444h178zM1327 1645h-188l233 225h195z" />
    <glyph glyph-name="wacute" unicode="&#x1e83;" horiz-adv-x="1800" 
d="M1147 0l-174 852l-322 -852h-213l-260 1034h164l219 -880l336 880h182l193 -880l366 880h164l-442 -1034h-213zM1333 1526l-258 -283h-166l244 283h180z" />
    <glyph glyph-name="Wdieresis" unicode="&#x1e84;" horiz-adv-x="2203" 
d="M655 115l453 1329h250l211 -1329l489 1329h176l-536 -1444h-275l-211 1266l-430 -1266h-276l-285 1444h178zM1020 1655q-47 0 -74 29t-24 75q5 46 37 75.5t79 29.5q46 0 73.5 -29.5t23.5 -75.5q-3 -45 -36 -74.5t-79 -29.5zM1477 1655q-46 0 -74 29t-25 75
q4 46 37.5 75.5t79.5 29.5t73 -29.5t23 -75.5q-3 -45 -35.5 -74.5t-78.5 -29.5z" />
    <glyph glyph-name="wdieresis" unicode="&#x1e85;" horiz-adv-x="1800" 
d="M1147 0l-174 852l-322 -852h-213l-260 1034h164l219 -880l336 880h182l193 -880l366 880h164l-442 -1034h-213zM766 1227q-47 0 -74 29t-22 75q3 46 35 75.5t79 29.5t74.5 -29.5t24.5 -75.5q-5 -46 -37.5 -75t-79.5 -29zM1247 1227q-47 0 -74 29t-22 75q3 46 35.5 75.5
t79.5 29.5q46 0 73.5 -29.5t24.5 -75.5q-4 -45 -37.5 -74.5t-79.5 -29.5z" />
    <glyph glyph-name="Germandbls" unicode="&#x1e9e;" horiz-adv-x="1400" 
d="M428 967l-84 -967h-170l86 983q19 216 170 356t369 140q199 0 321 -112t107 -280q-10 -126 -84 -213t-182 -102q159 -20 250.5 -134.5t74.5 -277.5q-15 -179 -148.5 -295t-320.5 -116q-142 0 -287 76l66 137q118 -64 223 -64q122 0 205 77.5t94 199.5q12 147 -73 234
t-261 87h-86l13 144h88q103 0 175 65.5t81 169.5q9 109 -68 180.5t-205 71.5q-143 0 -241 -98.5t-113 -261.5z" />
    <glyph glyph-name="Ygrave" unicode="&#x1ef2;" horiz-adv-x="1325" 
d="M797 537l-47 -537h-172l47 537l-439 907h189l350 -744l475 744h193zM524 1870h197l190 -225h-188z" />
    <glyph glyph-name="ygrave" unicode="&#x1ef3;" horiz-adv-x="1146" 
d="M86 -426l12 137q79 -28 133 -28q27 0 52.5 8t44.5 19t40 33.5t34.5 39.5t32.5 50t28.5 52.5t29.5 59t29 57.5l-375 1032h175l294 -839l396 839h168l-506 -1048q-24 -50 -38 -78t-37 -72.5t-39.5 -70t-40.5 -60.5t-45 -55.5t-48.5 -43.5t-55 -35t-60 -20t-68.5 -8
q-78 0 -156 31zM602 1526l195 -283h-166l-209 283h180z" />
    <glyph glyph-name="endash" unicode="&#x2013;" horiz-adv-x="1366" 
d="M1317 567h-1167l12 144h1167z" />
    <glyph glyph-name="emdash" unicode="&#x2014;" horiz-adv-x="1693" 
d="M1698 711l-12 -144h-1577l12 144h1577z" />
    <glyph glyph-name="quoteleft" unicode="&#x2018;" horiz-adv-x="432" 
d="M426 1151q-3 -44 -35.5 -73t-77.5 -29q-53 0 -81.5 39.5t-22.5 103.5q7 95 56.5 183.5t117.5 129.5l72 -55q-49 -30 -82.5 -85t-38.5 -110q46 0 71 -28.5t21 -75.5z" />
    <glyph glyph-name="quoteright" unicode="&#x2019;" horiz-adv-x="432" 
d="M227 1378q3 44 35.5 73.5t77.5 29.5q54 0 82 -39.5t22 -104.5q-7 -95 -56.5 -183.5t-117.5 -129.5l-71 55q49 30 82 85t38 108q-45 0 -70.5 29.5t-21.5 76.5z" />
    <glyph glyph-name="quotesinglbase" unicode="&#x201a;" horiz-adv-x="432" 
d="M113 80q4 45 36.5 73.5t77.5 28.5q53 0 81.5 -39t23.5 -104q-9 -95 -58 -182.5t-118 -130.5l-70 55q48 33 82.5 87t38.5 107q-45 0 -71 29t-23 76z" />
    <glyph glyph-name="quotedblleft" unicode="&#x201c;" horiz-adv-x="765" 
d="M430 1151q-3 -44 -35 -73t-78 -29q-53 0 -81.5 39.5t-22.5 103.5q7 95 56.5 183.5t117.5 129.5l74 -55q-49 -30 -82.5 -85t-38.5 -110q45 0 69.5 -28.5t20.5 -75.5zM756 1151q-3 -44 -36 -73t-79 -29q-53 0 -81.5 39.5t-22.5 103.5q7 95 57 183.5t119 129.5l71 -55
q-49 -30 -82 -85t-38 -110q45 0 70.5 -28.5t21.5 -75.5z" />
    <glyph glyph-name="quotedblright" unicode="&#x201d;" horiz-adv-x="759" 
d="M231 1380q5 46 37 75.5t78 29.5q53 0 82 -40t23 -104q-7 -96 -57 -183.5t-120 -129.5l-71 55q49 30 83 84t40 109q-45 0 -72 29.5t-23 74.5zM555 1380q5 46 37 75.5t78 29.5q53 0 81.5 -40t22.5 -104q-7 -96 -57 -184t-119 -129l-72 55q49 30 83 84t40 109
q-45 0 -71.5 29.5t-22.5 74.5z" />
    <glyph glyph-name="quotedblbase" unicode="&#x201e;" horiz-adv-x="759" 
d="M119 82q3 44 34.5 73t77.5 29q52 0 81 -39t24 -104q-9 -96 -58 -184t-118 -129l-72 55q48 31 83.5 85.5t39.5 106.5q-46 0 -71.5 30t-20.5 77zM442 82q3 44 35.5 73t77.5 29q52 0 80.5 -39t23.5 -104q-9 -96 -58 -184t-118 -129l-69 55q48 31 82.5 85.5t38.5 106.5
q-46 0 -72 30t-21 77z" />
    <glyph glyph-name="bullet" unicode="&#x2022;" horiz-adv-x="458" 
d="M274 512q-55 0 -87 34.5t-27 88.5t42.5 88.5t92.5 34.5q56 0 88.5 -34.5t28.5 -88.5t-43 -88.5t-95 -34.5z" />
    <glyph glyph-name="ellipsis" unicode="&#x2026;" horiz-adv-x="1101" 
d="M113 82q3 45 35 74.5t79 29.5q46 0 74 -30t25 -74q-4 -47 -37.5 -77t-79.5 -30q-47 0 -74 30t-22 77zM453 82q3 45 35 74.5t79 29.5q46 0 74 -30t25 -74q-4 -47 -37.5 -77t-79.5 -30q-47 0 -74 30t-22 77zM793 82q3 45 35 74.5t79 29.5q46 0 74 -30t25 -74
q-4 -47 -37.5 -77t-79.5 -30q-47 0 -74 30t-22 77z" />
    <glyph glyph-name="perthousand" unicode="&#x2030;" horiz-adv-x="3035" 
d="M1188 393q15 183 139.5 297.5t306.5 114.5q183 0 288.5 -114.5t90.5 -297.5q-17 -184 -142 -298.5t-308 -114.5t-287.5 114.5t-87.5 298.5zM1853 393q9 113 -55 182.5t-176 69.5q-113 0 -190 -70t-86 -182q-10 -112 54 -182t177 -70t189.5 70t86.5 182zM2138 391
q15 184 140.5 299t308.5 115t288.5 -115t90.5 -299q-17 -183 -142.5 -297t-308.5 -114q-184 0 -289 114t-88 297zM2804 393q9 111 -54.5 181.5t-175.5 70.5q-113 0 -190 -70.5t-86 -181.5q-10 -114 53.5 -183t177.5 -69q113 0 189 69t86 183zM203 1112q15 183 140 298.5
t308 115.5t288.5 -115.5t90.5 -298.5q-17 -183 -142 -297.5t-308 -114.5q-185 0 -289.5 114.5t-87.5 297.5zM868 1112q9 113 -55 182.5t-176 69.5q-114 0 -191 -70t-86 -182q-10 -112 55 -182t179 -70q112 0 187.5 69.5t86.5 182.5zM1794 1505l-1184 -1505h-190l1184 1505
h190z" />
    <glyph glyph-name="guilsinglleft" unicode="&#x2039;" horiz-adv-x="770" 
d="M479 0l-366 516l456 518h189l-463 -518l373 -516h-189z" />
    <glyph glyph-name="guilsinglright" unicode="&#x203a;" horiz-adv-x="770" 
d="M565 516l-370 518h186l369 -518l-457 -516h-189z" />
    <glyph glyph-name="lira" unicode="&#x20a4;" 
d="M391 707h-211l13 110h208l23 250q15 189 130.5 307.5t293.5 118.5q177 0 278 -119t101 -311l-154 -25q0 143 -59.5 230.5t-171.5 87.5q-107 0 -177 -80.5t-79 -208.5l-23 -250h514l-10 -110h-514q-1 -9 -6 -55.5t-10 -69.5h520l-10 -111h-537q-34 -151 -94.5 -231.5
t-143.5 -116.5h869l-11 -123h-1026l15 174q81 12 141 79t92 222h-190l8 107h207q4 21 14 125z" />
    <glyph glyph-name="Euro" unicode="&#x20ac;" horiz-adv-x="1867" 
d="M1620 481l160 -30q-71 -217 -275 -359.5t-448 -142.5q-276 0 -460 159.5t-220 421.5h-225l10 117h209q0 106 16 162h-211l8 115h230q84 258 294.5 414.5t483.5 156.5q161 0 298.5 -68t226.5 -188t110 -270l-168 -21q-26 170 -162 282.5t-319 112.5q-201 0 -359 -114
t-229 -305h624l-8 -115h-649q-14 -62 -14 -162h649l-10 -117h-629q37 -196 175.5 -313t340.5 -117q182 0 337 108t214 273z" />
    <glyph glyph-name="trademark" unicode="&#x2122;" horiz-adv-x="2256" 
d="M909 1321h-311l-88 -1014h-137l88 1014h-307l12 123h756zM2210 1444l-101 -1137h-131l82 940l-461 -940h-108l-297 940l-82 -940h-131l100 1137h197l285 -940l446 940h201z" />
    <glyph glyph-name="minus" unicode="&#x2212;" horiz-adv-x="1048" 
d="M1006 711l-13 -144h-839l12 144h840z" />
    <glyph glyph-name="notequal" unicode="&#x2260;" horiz-adv-x="1171" 
d="M1030 1303l-158 -336h279l-12 -144h-332l-168 -366h469l-14 -144h-523l-180 -395h-145l182 395h-297l14 144h351l168 366h-488l12 144h541l158 336h143z" />
    <glyph glyph-name="lessequal" unicode="&#x2264;" horiz-adv-x="919" 
d="M811 0h-721l14 141h719zM846 387l-15 -143l-690 331l13 158l749 332l-12 -147l-602 -265z" />
    <glyph glyph-name="greaterequal" unicode="&#x2265;" horiz-adv-x="919" 
d="M842 141l-13 -141h-720l12 141h721zM893 733l-12 -158l-752 -331l14 143l602 266l-557 265l13 147z" />
    <glyph glyph-name="commaaccent" unicode="&#xf6c3;" horiz-adv-x="403" 
d="M186 -68q-39 0 -61 26.5t-19 66.5q3 41 30.5 66.5t68.5 25.5q46 0 72 -34t22 -89q-8 -75 -50.5 -148t-103.5 -116l-51 43q38 33 63.5 76.5t28.5 82.5z" />
    <glyph glyph-name="IJacute" horiz-adv-x="1431" 
d="M365 0h-170l127 1444h170zM1106 432l90 1012h172l-88 -1010q-20 -213 -153 -344t-324 -131q-128 0 -256 41l12 147q119 -36 225 -36q131 0 220.5 86.5t101.5 234.5zM526 1645h-186l231 225h195zM1382 1645h-188l231 225h197z" />
    <glyph glyph-name="acute.case" horiz-adv-x="614" 
d="M215 1266l231 225h195l-238 -225h-188z" />
    <glyph glyph-name="breve.case" horiz-adv-x="770" 
d="M676 1505h121q-9 -108 -93.5 -178t-207.5 -70q-121 0 -195 70.5t-65 177.5h122q-4 -58 37.5 -95.5t110.5 -37.5q70 0 117.5 37t52.5 96z" />
    <glyph glyph-name="caron.case" horiz-adv-x="858" 
d="M236 1487h157l152 -154l182 154h158l-262 -242h-170z" />
    <glyph glyph-name="circumflex.case" horiz-adv-x="858" 
d="M702 1227l-153 153l-180 -153h-158l262 241h170l217 -241h-158z" />
    <glyph glyph-name="dieresis.case" horiz-adv-x="868" 
d="M315 1192q-47 0 -74 29t-24 75q4 46 37 74.5t80 28.5q46 0 73 -29t23 -74q-3 -45 -36 -74.5t-79 -29.5zM764 1192q-47 0 -74 29t-24 75q5 46 37 74.5t79 28.5q46 0 73.5 -29t23.5 -74q-3 -45 -36 -74.5t-79 -29.5z" />
    <glyph glyph-name="dotaccent.case" horiz-adv-x="421" 
d="M313 1176q-48 0 -74 27.5t-22 72.5q5 43 36.5 70.5t78.5 27.5t74 -27.5t24 -70.5q-4 -45 -36.5 -72.5t-80.5 -27.5z" />
    <glyph glyph-name="grave.case" horiz-adv-x="614" 
d="M236 1495h194l191 -225h-187z" />
    <glyph glyph-name="hungarumlaut.case" horiz-adv-x="901" 
d="M590 1505l-234 -243h-141l209 243h166zM928 1505l-244 -243h-139l219 243h164z" />
    <glyph glyph-name="ijacute" horiz-adv-x="968" 
d="M422 1034l-90 -1034h-158l90 1034h158zM653 -158l105 1192h157l-104 -1196q-10 -129 -92.5 -209t-204.5 -80q-96 0 -172 27l10 121q68 -19 131 -19q70 0 117 45t53 119zM682 1505l-250 -256h-166l238 256h178zM1167 1505l-252 -256h-163l237 256h178z" />
    <glyph glyph-name="ring.case" horiz-adv-x="589" 
d="M393 1106q-84 0 -133 51.5t-43 130.5q8 80 66 131t141 51t132 -51.5t42 -130.5t-65 -130.5t-140 -51.5zM418 1374q-38 0 -65.5 -23.5t-30.5 -60.5q-3 -38 19 -63t60 -25q37 0 64.5 25t30.5 63q3 37 -18.5 60.5t-59.5 23.5z" />
    <glyph glyph-name="tilde.case" horiz-adv-x="923" 
d="M299 1272l-78 61q31 61 94.5 99t137.5 38q47 0 87 -18t62.5 -40t54 -40t64.5 -18q82 0 139 92l80 -60q-31 -62 -96 -100.5t-142 -38.5q-51 0 -92 18t-62 39.5t-50 39.5t-60 18q-73 0 -139 -90z" />
    </font>
</defs>
</svg>
