<?xml version="1.0" standalone="no"?>
<!DOCTYPE svg PUBLIC "-//W3C//DTD SVG 1.1//EN" "http://www.w3.org/Graphics/SVG/1.1/DTD/svg11.dtd" >
<svg xmlns="http://www.w3.org/2000/svg" xmlns:xlink="http://www.w3.org/1999/xlink" version="1.1">
<metadata>
Created by FontForge 20170731 at Mon Sep 26 11:52:36 2022
 By Aleksey,,,
Copyright (c) 2017 by Alexander Slobzheninov. All rights reserved.

</metadata>
<defs>
<font id="Objective-ExtraBoldItalic" horiz-adv-x="1294" >
  <font-face 
    font-family="Objective Extra Bold"
    font-weight="800"
    font-style="italic"
    font-stretch="normal"
    units-per-em="2048"
    panose-1="0 0 0 0 0 0 0 0 0 0"
    ascent="1638"
    descent="-410"
    x-height="1057"
    cap-height="1466"
    bbox="-143 -768 3207.15 2281"
    underline-thickness="102"
    underline-position="-358"
    unicode-range="U+000D-F6C3"
  />
<missing-glyph horiz-adv-x="1024" 
 />
    <glyph glyph-name=".notdef" horiz-adv-x="1024" 
 />
    <glyph glyph-name=".null" horiz-adv-x="0" 
 />
    <glyph glyph-name="nonmarkingreturn" horiz-adv-x="682" 
 />
    <glyph glyph-name="NULL" horiz-adv-x="1519" 
d="M1503 1466l-129 -1466h-1231l129 1466h1231zM514 295h543l76 879h-543z" />
    <glyph glyph-name="NULL" horiz-adv-x="1519" 
d="M1503 1466l-129 -1466h-1231l129 1466h1231zM514 295h543l76 879h-543z" />
    <glyph glyph-name="CR" unicode="&#xd;" horiz-adv-x="61" 
 />
    <glyph glyph-name="space" unicode=" " horiz-adv-x="620" 
 />
    <glyph glyph-name="exclam" unicode="!" horiz-adv-x="704" 
d="M147 174q9 92 77 152.5t163 60.5q96 0 152 -60t47 -153q-8 -92 -74.5 -151.5t-163.5 -59.5q-95 0 -151.5 59.5t-49.5 151.5zM645 1065l-151 -555h-195l-55 555l37 401h401z" />
    <glyph glyph-name="quotedbl" unicode="&#x22;" horiz-adv-x="864" 
d="M371 719h-185l-10 461l27 286h282l-26 -286zM803 719h-182l-13 461l27 286h285l-27 -286z" />
    <glyph glyph-name="numbersign" unicode="#" horiz-adv-x="1888" 
d="M1319 403l-143 -403h-332l141 403h-250l-143 -403h-332l143 403h-294l22 261h365l75 210h-319l24 263h390l139 391h334l-140 -391h250l140 391h333l-141 -391h334l-25 -263h-403l-76 -210h358l-22 -261h-428zM1079 664l74 210h-250l-76 -210h252z" />
    <glyph glyph-name="dollar" unicode="$" horiz-adv-x="1486" 
d="M948 -29l-20 -221h-410l21 221q-201 50 -312 187.5t-94 324.5h385q-8 -94 65 -155.5t193 -61.5q97 0 160.5 41t69.5 103q4 41 -23.5 68.5t-76.5 43t-113.5 26.5t-136 23t-142 29t-133.5 48.5t-109.5 76.5t-70 119t-15.5 170q17 184 149 313t337 172l16 180h410l-17 -190
q183 -51 283.5 -181t87.5 -302h-371q7 84 -60.5 139t-176.5 55q-94 0 -155 -37t-66 -96q-4 -39 23.5 -65t76.5 -40.5t113.5 -25t135.5 -22.5t141.5 -28.5t133 -48.5t109 -77t69.5 -119t15 -170q-17 -186 -150 -319t-342 -181z" />
    <glyph glyph-name="percent" unicode="%" horiz-adv-x="2254" 
d="M1800 877q200 0 317.5 -129t100.5 -328q-17 -198 -157 -326.5t-339 -128.5q-198 0 -315 128.5t-100 326.5q17 200 156 328.5t337 128.5zM1774 571q-66 0 -111 -42.5t-51 -108.5t32.5 -108t104.5 -42q67 0 112.5 42t51.5 108t-33 108.5t-106 42.5zM668 1565
q198 0 315 -129t98 -328q-17 -198 -156 -326.5t-337 -128.5q-199 0 -317 128.5t-101 326.5q19 200 159 328.5t339 128.5zM641 1257q-68 0 -114 -41.5t-52 -107.5q-5 -67 33.5 -109.5t105.5 -42.5q66 0 111.5 43t50.5 109q6 66 -31.5 107.5t-103.5 41.5zM1946 1528
l-1164 -1528h-340l1164 1528h340z" />
    <glyph glyph-name="ampersand" unicode="&#x26;" horiz-adv-x="1759" 
d="M1681 0h-432l-100 96q-243 -147 -500 -147q-255 0 -399 120t-125 328q13 151 98 245t226 155q-83 139 -72 276q17 191 168.5 315.5t363.5 124.5q198 0 332 -113t143 -286l-342 -59q-4 75 -48 123.5t-107 48.5q-61 0 -107 -45.5t-53 -116.5q-9 -112 102 -221
q18 -18 177.5 -175t179.5 -177q71 89 121 204h350q-86 -221 -266 -407q23 -24 144.5 -145.5t145.5 -143.5zM741 252q100 0 193 49q-132 124 -287 279q-51 -21 -83 -60.5t-36 -93.5q-6 -75 54.5 -124.5t158.5 -49.5z" />
    <glyph glyph-name="quotesingle" unicode="'" horiz-adv-x="430" 
d="M371 719h-185l-10 461l27 286h282l-26 -286z" />
    <glyph glyph-name="parenleft" unicode="(" horiz-adv-x="780" 
d="M131 580q25 285 136.5 542.5t271.5 405.5h356q-170 -176 -283.5 -431.5t-136.5 -516.5q-23 -262 46 -518.5t208 -430.5h-356q-134 150 -201 407.5t-41 541.5z" />
    <glyph glyph-name="parenright" unicode=")" horiz-adv-x="780" 
d="M752 580q-26 -286 -137.5 -543.5t-272.5 -405.5h-356q170 174 284.5 430.5t137.5 518.5q23 260 -47 516t-209 432h356q134 -147 201.5 -405t42.5 -543z" />
    <glyph glyph-name="asterisk" unicode="*" horiz-adv-x="1058" 
d="M913 678l-198 141l-6 -254h-260l38 254l-223 -141l-110 225l233 113l-215 112l152 226l198 -140l6 252h260l-38 -252l223 140l110 -226l-235 -112l217 -113z" />
    <glyph glyph-name="plus" unicode="+" horiz-adv-x="1110" 
d="M754 184h-365l27 312h-299l24 282h299l27 307h364l-26 -307h299l-25 -282h-299z" />
    <glyph glyph-name="comma" unicode="," horiz-adv-x="589" 
d="M88 174q9 92 75 151.5t156 59.5q103 0 159 -81t46 -216q-10 -121 -84.5 -248t-177.5 -202l-188 47q79 67 132.5 144.5t57.5 133.5q-85 0 -134.5 59.5t-41.5 151.5z" />
    <glyph glyph-name="hyphen" unicode="-" horiz-adv-x="987" 
d="M983 793l-29 -314h-839l28 314h840z" />
    <glyph glyph-name="period" unicode="." horiz-adv-x="585" 
d="M88 174q9 92 77 152.5t163 60.5q96 0 151.5 -60t46.5 -153q-8 -92 -74 -151.5t-163 -59.5q-95 0 -151.5 59.5t-49.5 151.5z" />
    <glyph glyph-name="slash" unicode="/" horiz-adv-x="1026" 
d="M1139 1466l-822 -1937h-340l822 1937h340z" />
    <glyph glyph-name="zero" unicode="0" horiz-adv-x="1583" 
d="M164 733q20 225 124 404t271 280t367 101q199 0 348 -101t221.5 -280t52.5 -404q-19 -225 -123 -404t-271 -279.5t-366 -100.5q-200 0 -349.5 100.5t-221.5 279.5t-53 404zM588 733q-15 -178 49.5 -292.5t183.5 -114.5q118 0 203 114.5t100 292.5q15 179 -49 293.5
t-182 114.5q-120 0 -205 -114.5t-100 -293.5z" />
    <glyph glyph-name="one" unicode="1" horiz-adv-x="1011" 
d="M506 1006l-373 -256l37 413l432 303h375l-129 -1466h-430z" />
    <glyph glyph-name="two" unicode="2" horiz-adv-x="1368" 
d="M834 1518q158 0 282 -62t190 -176.5t54 -257.5q-12 -140 -94 -252t-219 -186l-486 -267h701l-29 -317h-1139l33 375l643 381q91 55 135.5 110.5t50.5 124.5q7 81 -37.5 130.5t-121.5 49.5q-79 0 -146 -70t-90 -177l-377 73q41 225 225.5 373t424.5 148z" />
    <glyph glyph-name="three" unicode="3" horiz-adv-x="1366" 
d="M217 1149l29 317h1106l-21 -231l-342 -320q154 -40 242.5 -166.5t73.5 -293.5q-19 -221 -202.5 -363.5t-447.5 -142.5t-416 153.5t-147 395.5l393 55q2 -115 54.5 -185.5t144.5 -70.5q86 0 145.5 55.5t67.5 141.5q7 86 -43.5 141t-136.5 55q-67 0 -117 -24l-65 229
l303 254h-621z" />
    <glyph glyph-name="four" unicode="4" horiz-adv-x="1411" 
d="M84 522l612 944h600l-75 -856h165l-26 -317h-166l-27 -293h-444l29 293h-686zM821 1126l-319 -516h276z" />
    <glyph glyph-name="five" unicode="5" horiz-adv-x="1388" 
d="M377 1466h946l-29 -317h-632l-35 -197h252q223 0 352 -135.5t110 -347.5q-13 -151 -101 -270t-231.5 -184.5t-316.5 -65.5q-264 0 -415 152.5t-146 396.5l393 55q0 -115 52 -185.5t145 -70.5q84 0 142.5 54t66.5 138q8 90 -50 147.5t-161 57.5h-467z" />
    <glyph glyph-name="six" unicode="6" horiz-adv-x="1404" 
d="M291 862l471 604h479l-403 -499q63 14 123 14q202 0 317 -131.5t96 -341.5q-22 -249 -212 -404t-476 -155q-275 0 -433 151t-136 389q14 167 174 373zM563 508q-9 -94 38 -152.5t130 -58.5q80 0 136 58.5t65 152.5q7 90 -39.5 146.5t-126.5 56.5q-83 0 -139.5 -56
t-63.5 -147z" />
    <glyph glyph-name="seven" unicode="7" horiz-adv-x="1097" 
d="M590 0h-457l563 1120h-571l31 346h1058l-22 -256z" />
    <glyph glyph-name="eight" unicode="8" horiz-adv-x="1456" 
d="M862 1526q247 0 396.5 -116t134.5 -298q-11 -115 -80.5 -210t-167.5 -126q119 -26 188.5 -131.5t57.5 -238.5q-17 -196 -204.5 -322.5t-461.5 -126.5t-440.5 127t-149.5 322q12 133 100.5 238.5t210.5 131.5q-92 31 -144.5 125t-43.5 209q11 120 92 215t215 148t297 53z
M782 614q-78 0 -133 -44t-59 -113q-7 -70 40 -115t126 -45q78 0 131 44.5t61 115.5q4 69 -42.5 113t-123.5 44zM834 1186q-73 0 -125 -41.5t-58 -104.5q-5 -66 39 -109.5t117 -43.5q72 0 123 43.5t55 109.5q6 63 -36.5 104.5t-114.5 41.5z" />
    <glyph glyph-name="nine" unicode="9" horiz-adv-x="1404" 
d="M1241 604l-469 -604h-481l403 502q-61 -17 -123 -17q-201 0 -316.5 133.5t-96.5 342.5q22 248 212.5 402.5t475.5 154.5q275 0 432 -151t137 -390q-7 -87 -54.5 -185t-119.5 -188zM971 958q8 94 -39 153.5t-129 59.5q-82 -2 -138 -60.5t-63 -152.5q-8 -90 37.5 -146
t126.5 -56q82 0 140 56t65 146z" />
    <glyph glyph-name="colon" unicode=":" horiz-adv-x="585" 
d="M88 174q9 92 77 152.5t163 60.5q96 0 151.5 -60t46.5 -153q-8 -92 -74 -151.5t-163 -59.5q-95 0 -151.5 59.5t-49.5 151.5zM152 893q7 92 74.5 151.5t162.5 59.5q96 0 152.5 -59t48.5 -152q-8 -92 -74.5 -151.5t-163.5 -59.5q-95 0 -151.5 59.5t-48.5 151.5z" />
    <glyph glyph-name="semicolon" unicode=";" horiz-adv-x="589" 
d="M88 174q9 92 75 151.5t156 59.5q103 0 159 -81t46 -216q-10 -121 -84.5 -248t-177.5 -202l-188 47q79 67 132.5 144.5t57.5 133.5q-85 0 -134.5 59.5t-41.5 151.5zM152 893q7 92 74.5 151.5t162.5 59.5q96 0 152.5 -59t48.5 -152q-8 -92 -74.5 -151.5t-163.5 -59.5
q-95 0 -151.5 59.5t-48.5 151.5z" />
    <glyph glyph-name="less" unicode="&#x3c;" horiz-adv-x="886" 
d="M834 315l-29 -333l-756 372l31 348l821 371l-29 -332l-530 -213z" />
    <glyph glyph-name="equal" unicode="=" horiz-adv-x="1110" 
d="M119 514h962l-26 -299h-963zM166 1042h962l-26 -299h-963z" />
    <glyph glyph-name="greater" unicode="&#x3e;" horiz-adv-x="884" 
d="M174 1073l756 -371l-31 -348l-821 -372l28 333l533 213l-494 213z" />
    <glyph glyph-name="question" unicode="?" horiz-adv-x="1341" 
d="M457 174q9 92 75.5 151.5t161.5 59.5q97 0 153.5 -59.5t47.5 -151.5q-8 -92 -74.5 -151.5t-163.5 -59.5q-95 0 -151.5 59.5t-48.5 151.5zM879 461h-351q12 150 67.5 241.5t172.5 163.5q38 23 55 35t45 35.5t41 48.5t15 55q6 63 -35 104.5t-107 41.5q-82 0 -142 -63
t-81 -165l-389 72q37 215 219 351.5t438 136.5q246 0 397 -123t134 -314q-10 -123 -85.5 -215t-195.5 -151q-95 -46 -142.5 -100t-55.5 -154z" />
    <glyph glyph-name="at" unicode="@" horiz-adv-x="2125" 
d="M414 532q-16 -179 41.5 -322t175.5 -223.5t274 -80.5q83 0 173 22.5t153 57.5l-23 -269q-65 -33 -154.5 -53t-170.5 -20q-177 0 -325.5 66.5t-248.5 183.5t-149.5 282.5t-32.5 355.5q17 191 105.5 356.5t228 283t328.5 184.5t399 67q211 0 388.5 -67t296.5 -184.5
t179 -283t43 -356.5q-15 -160 -73 -278.5t-167.5 -188t-259.5 -69.5q-127 0 -212 62.5t-91 160.5q-49 -61 -139.5 -98t-187.5 -37q-169 0 -263 124.5t-75 323.5q17 196 165 323.5t357 127.5q217 0 340 -128.5t104 -334.5l-14 -178q-14 -141 74 -141q126 0 153 331
q12 140 -29.5 261.5t-126 208t-209.5 135.5t-274 49q-198 0 -364.5 -84t-269.5 -233.5t-119 -336.5zM1124 700q-72 0 -122 -47t-56 -121q-6 -73 36 -120t114 -47t123 47t57 120t-37 120.5t-115 47.5z" />
    <glyph glyph-name="A" unicode="A" horiz-adv-x="1601" 
d="M1253 1466l330 -1466h-465l-45 221h-508l-82 -221h-465l588 1466h647zM897 1092l-217 -560h338z" />
    <glyph glyph-name="B" unicode="B" horiz-adv-x="1597" 
d="M944 0h-801l129 1466h758q247 0 390 -114t128 -291q-9 -117 -73 -202.5t-160 -113.5q110 -26 169.5 -121.5t47.5 -230.5q-17 -180 -178 -286.5t-410 -106.5zM899 610h-258l-25 -293h258q86 0 142.5 39t62.5 101q5 68 -44.5 110.5t-135.5 42.5zM915 1149h-227l-22 -266
h227q82 0 135 36.5t57 96.5q6 60 -41 96.5t-129 36.5z" />
    <glyph glyph-name="C" unicode="C" horiz-adv-x="1714" 
d="M1272 584l409 -47q-31 -168 -145 -302.5t-287 -210t-372 -75.5q-172 0 -316 59t-240.5 162t-144 249t-33.5 314q15 168 88.5 314t187.5 249.5t268 162.5t325 59q197 0 355.5 -76.5t249 -212.5t93.5 -307l-412 -43q-15 114 -101 188t-204 74q-164 0 -276 -113t-129 -295
q-15 -181 77.5 -294t254.5 -113q118 0 217.5 72.5t134.5 185.5z" />
    <glyph glyph-name="D" unicode="D" horiz-adv-x="1667" 
d="M143 0l129 1466h607q378 0 590.5 -201.5t183.5 -531.5q-18 -218 -137 -384.5t-317.5 -257.5t-448.5 -91h-607zM1208 733q17 182 -82.5 292t-277.5 110h-176l-70 -803h176q178 0 296.5 109.5t133.5 291.5z" />
    <glyph glyph-name="E" unicode="E" horiz-adv-x="1288" 
d="M602 348h639l-31 -348h-1067l129 1466h1047l-31 -346h-618l-21 -223h537l-25 -299h-536z" />
    <glyph glyph-name="F" unicode="F" horiz-adv-x="1239" 
d="M1108 485h-477l-43 -485h-445l129 1466h1043l-33 -376h-598l-25 -277h478z" />
    <glyph glyph-name="G" unicode="G" horiz-adv-x="1769" 
d="M1313 588h-375l23 258h798q3 -192 -60.5 -359t-176.5 -285t-274.5 -185.5t-348.5 -67.5q-176 0 -324 59t-247.5 162t-149 249t-35.5 314q15 168 90 314t192.5 249.5t276 162.5t334.5 59t322 -63t236.5 -175t111.5 -254l-416 -76q-20 84 -100.5 137.5t-188.5 53.5
q-165 0 -281.5 -115t-131.5 -293q-15 -177 86 -292t274 -115q136 0 241 75t124 187z" />
    <glyph glyph-name="H" unicode="H" horiz-adv-x="1660" 
d="M586 0h-445l129 1466h445l-47 -536h489l47 536h445l-129 -1466h-445l51 584h-489z" />
    <glyph glyph-name="I" unicode="I" horiz-adv-x="731" 
d="M717 1466l-129 -1466h-445l129 1466h445z" />
    <glyph glyph-name="J" unicode="J" horiz-adv-x="1032" 
d="M506 537l82 929h444l-88 -989q-20 -230 -181 -374t-390 -144q-177 0 -305 41l28 330q81 -23 178 -23q94 0 158.5 63t73.5 167z" />
    <glyph glyph-name="K" unicode="K" horiz-adv-x="1542" 
d="M272 1466h445l-51 -567l464 567h523l-604 -698l481 -768h-524l-363 623l-55 -623h-445z" />
    <glyph glyph-name="L" unicode="L" horiz-adv-x="1191" 
d="M1124 0h-981l129 1466h445l-96 -1089h536z" />
    <glyph glyph-name="M" unicode="M" horiz-adv-x="2134" 
d="M573 0h-430l129 1466h568l268 -997l434 997h578l-129 -1466h-430l81 940l-411 -940h-328l-248 940z" />
    <glyph glyph-name="N" unicode="N" horiz-adv-x="1665" 
d="M735 1466l420 -931l82 931h414l-129 -1466h-463l-420 930l-82 -930h-414l129 1466h463z" />
    <glyph glyph-name="O" unicode="O" horiz-adv-x="1806" 
d="M143 733q20 231 138.5 409.5t315 277t439.5 98.5t422.5 -98.5t266.5 -277t67 -409.5q-15 -173 -88 -319t-189 -248.5t-275 -159.5t-341 -57t-331 57t-247.5 159.5t-145.5 248.5t-32 319zM588 733q-15 -181 80 -293t264 -114q170 0 285.5 113t130.5 294
q17 181 -78.5 294.5t-265.5 113.5q-169 0 -284 -113t-132 -295z" />
    <glyph glyph-name="P" unicode="P" horiz-adv-x="1517" 
d="M887 408h-281l-35 -408h-428l129 1466h713q177 0 309 -66t197 -186t51 -276q-20 -236 -202.5 -383t-452.5 -147zM868 1149h-196l-37 -424h196q111 0 185.5 59t81.5 154q8 94 -56 152.5t-174 58.5z" />
    <glyph glyph-name="Q" unicode="Q" horiz-adv-x="1806" 
d="M143 733q20 231 138.5 409.5t315 277t439.5 98.5t422.5 -98.5t266.5 -277t67 -409.5q-17 -199 -108 -360.5t-242 -266.5l246 -393h-408l-164 260q-102 -24 -217 -24q-182 0 -331 57t-247.5 159.5t-145.5 248.5t-32 319zM588 733q-15 -181 80 -293t264 -114q169 0 285 113
t131 294q17 181 -78.5 294.5t-265.5 113.5q-169 0 -284 -113t-132 -295z" />
    <glyph glyph-name="R" unicode="R" horiz-adv-x="1613" 
d="M143 0l129 1466h748q270 0 424.5 -140.5t134.5 -369.5q-13 -145 -104 -255.5t-236 -165.5l297 -535h-489l-213 479h-205l-41 -479h-445zM907 1149h-219l-33 -383h219q104 0 179 52t82 138q7 89 -58 141t-170 52z" />
    <glyph glyph-name="S" unicode="S" horiz-adv-x="1486" 
d="M735 -51q-186 0 -328.5 68.5t-215 191t-58.5 274.5h385q-8 -94 65 -155.5t193 -61.5q97 0 160.5 41t69.5 103q4 41 -23.5 68.5t-76.5 43t-113.5 26.5t-136 23t-142 29t-133.5 48.5t-109.5 76.5t-70 119t-15.5 170q20 226 208 365t466 139q182 0 321.5 -65.5t211 -182.5
t59.5 -264h-371q7 84 -60.5 139t-176.5 55q-94 0 -155 -37t-66 -96q-4 -39 23.5 -65t76.5 -40.5t113.5 -25t135.5 -22.5t141.5 -28.5t133 -48.5t109 -77t69.5 -119t15 -170q-13 -153 -107.5 -272t-250.5 -184.5t-347 -65.5z" />
    <glyph glyph-name="T" unicode="T" horiz-adv-x="1323" 
d="M537 1104h-414l33 362h1269l-32 -362h-414l-96 -1104h-443z" />
    <glyph glyph-name="U" unicode="U" horiz-adv-x="1636" 
d="M1122 631l74 835h444l-75 -852q-17 -195 -117 -346.5t-264.5 -235t-368.5 -83.5q-310 0 -486.5 184.5t-150.5 480.5l76 852h444l-73 -835q-11 -122 47 -210.5t176 -94.5q110 0 186 85t88 220z" />
    <glyph glyph-name="V" unicode="V" horiz-adv-x="1587" 
d="M606 1466l217 -1140l416 1140h461l-565 -1466h-680l-308 1468z" />
    <glyph glyph-name="W" unicode="W" horiz-adv-x="2529" 
d="M1800 391l369 1075h446l-522 -1466h-614l-136 885l-292 -885h-613l-266 1466h449l182 -1075l373 1075h440z" />
    <glyph glyph-name="X" unicode="X" horiz-adv-x="1736" 
d="M582 774l-406 692h508l266 -460l353 460h520l-559 -692l436 -774h-520l-271 530l-360 -530h-510z" />
    <glyph glyph-name="Y" unicode="Y" horiz-adv-x="1482" 
d="M567 500l-422 966h463l217 -585l299 585h471l-583 -966l-43 -500h-445z" />
    <glyph glyph-name="Z" unicode="Z" horiz-adv-x="1384" 
d="M113 291l694 831h-600l31 344h1167l-27 -288l-671 -834h620l-31 -344h-1208z" />
    <glyph glyph-name="bracketleft" unicode="[" horiz-adv-x="866" 
d="M631 1268l-121 -1377h328l-23 -260h-704l165 1897h705l-23 -260h-327z" />
    <glyph glyph-name="backslash" unicode="\" horiz-adv-x="1028" 
d="M147 1466h340l482 -1937h-340z" />
    <glyph glyph-name="bracketright" unicode="]" horiz-adv-x="866" 
d="M690 -369h-704l22 260h328l121 1377h-328l23 260h704z" />
    <glyph glyph-name="asciicircum" unicode="^" horiz-adv-x="1261" 
d="M506 819h-361l424 647h381l310 -647h-357l-166 410z" />
    <glyph glyph-name="underscore" unicode="_" horiz-adv-x="1024" 
d="M-23 0h1024l-22 -266h-1024z" />
    <glyph glyph-name="grave" unicode="`" horiz-adv-x="722" 
d="M209 1540h350l195 -350h-277z" />
    <glyph glyph-name="a" unicode="a" horiz-adv-x="1392" 
d="M961 922l12 135h393l-92 -1057h-393l12 135q-65 -84 -153 -130t-189 -46q-215 0 -334 157.5t-96 411.5q22 254 168.5 412t361.5 158q205 0 310 -176zM700 303q89 0 153 64t73 161q8 98 -45 162t-142 64q-90 0 -152.5 -63.5t-70.5 -162.5q-9 -97 42.5 -161t141.5 -64z" />
    <glyph glyph-name="b" unicode="b" horiz-adv-x="1372" 
d="M250 1528h395l-51 -582q136 152 328 152q211 0 328.5 -158t95.5 -412q-23 -254 -168.5 -411.5t-356.5 -157.5q-193 0 -301 152l-10 -111h-393zM952 528q8 97 -44.5 160.5t-141.5 63.5q-90 0 -152.5 -63.5t-70.5 -160.5q-9 -96 42.5 -158.5t141.5 -62.5q89 0 152.5 62
t72.5 159z" />
    <glyph glyph-name="c" unicode="c" horiz-adv-x="1292" 
d="M1282 662l-367 -48q-9 68 -59 112t-119 44q-87 0 -150.5 -68.5t-70.5 -173.5q-9 -105 41 -173t137 -68q69 0 127 43.5t80 111.5l359 -43q-41 -191 -211.5 -315.5t-386.5 -124.5q-255 0 -409.5 161.5t-131.5 407.5q22 247 203 408.5t438 161.5q143 0 260.5 -55.5
t186.5 -155.5t73 -225z" />
    <glyph glyph-name="d" unicode="d" horiz-adv-x="1372" 
d="M944 946l51 582h394l-134 -1528h-393l10 111q-130 -152 -329 -152q-211 0 -328 158t-94 411q22 254 166.5 412t355.5 158q193 0 301 -152zM516 528q-9 -97 43 -159t141 -62t153 63t73 158q8 97 -45 160.5t-142 63.5q-90 0 -152.5 -63.5t-70.5 -160.5z" />
    <glyph glyph-name="e" unicode="e" horiz-adv-x="1325" 
d="M707 244q63 0 112.5 30t75.5 78l338 -55q-47 -148 -208 -243t-363 -95q-262 0 -413 159t-128 414q22 251 203 408.5t444 157.5q262 0 407 -157t123 -413q-13 -101 -14 -106h-768q12 -84 61 -131t130 -47zM532 629h379q0 77 -49 131.5t-127 54.5q-74 0 -126.5 -50
t-76.5 -136z" />
    <glyph glyph-name="f" unicode="f" horiz-adv-x="874" 
d="M954 1532l-26 -320q-50 13 -97 13q-55 0 -90.5 -29t-40.5 -76l-6 -63h219l-24 -293h-219l-68 -764h-393l67 764h-135l25 293h135l8 84q17 193 131 310.5t283 117.5q122 0 231 -37z" />
    <glyph glyph-name="g" unicode="g" horiz-adv-x="1372" 
d="M109 -104l346 41q12 -65 64 -107.5t122 -42.5q91 0 152.5 63t70.5 170l10 115q-135 -141 -329 -141q-135 0 -236.5 67t-151.5 189t-36 278q22 252 168.5 411t351.5 159q199 0 303 -152l10 111h394l-93 -1051q-20 -236 -191.5 -377t-432.5 -141q-221 0 -367.5 114.5
t-154.5 293.5zM700 307q89 0 153 63t73 158q8 98 -45 162t-142 64q-90 0 -152.5 -63.5t-70.5 -162.5q-9 -96 42.5 -158.5t141.5 -62.5z" />
    <glyph glyph-name="h" unicode="h" 
d="M918 1098q169 0 263 -112t79 -294l-62 -692h-395l51 588q6 74 -28.5 120t-98.5 46q-65 0 -111.5 -48t-52.5 -124l-51 -582h-395l133 1528h395l-51 -582q58 72 144 112t180 40z" />
    <glyph glyph-name="i" unicode="i" horiz-adv-x="673" 
d="M627 1057l-92 -1057h-396l92 1057h396zM238 1378q7 92 75 151.5t164 59.5q95 0 151.5 -59.5t49.5 -151.5q-7 -93 -74.5 -153t-163.5 -60t-152.5 60t-49.5 153z" />
    <glyph glyph-name="j" unicode="j" horiz-adv-x="688" 
d="M152 -20l94 1077h393l-98 -1129q-17 -186 -135 -298.5t-295 -112.5q-145 0 -254 37l28 303q67 -13 115 -13q63 2 105.5 39t46.5 97zM252 1378q7 92 74.5 151.5t162.5 59.5q96 0 152.5 -59t48.5 -152q-7 -94 -73.5 -153.5t-163.5 -59.5q-95 0 -151.5 59.5t-49.5 153.5z
" />
    <glyph glyph-name="k" unicode="k" horiz-adv-x="1300" 
d="M250 1528h395l-74 -846l340 375h461l-467 -502l385 -555h-465l-276 424l-37 -424h-395z" />
    <glyph glyph-name="l" unicode="l" horiz-adv-x="626" 
d="M643 1528l-133 -1528h-393l133 1528h393z" />
    <glyph glyph-name="m" unicode="m" horiz-adv-x="1966" 
d="M117 0l92 1057h379l-10 -131q53 83 140.5 127.5t186.5 44.5q107 0 186.5 -47t116.5 -131q54 81 156 129.5t209 48.5q177 0 275 -113t81 -295l-59 -690h-395l51 586q6 71 -29 118t-102 50q-67 0 -111.5 -47t-50.5 -121l-51 -586h-394l52 586q6 75 -28 121.5t-95 46.5
q-64 0 -106 -46t-48 -122l-51 -586h-395z" />
    <glyph glyph-name="n" unicode="n" 
d="M924 1098q162 0 255 -118t78 -302l-59 -678h-395l51 588q6 74 -27.5 120t-97.5 46q-65 0 -112.5 -48t-53.5 -124l-51 -582h-395l92 1057h381l-12 -152q67 90 155.5 141.5t190.5 51.5z" />
    <glyph glyph-name="o" unicode="o" horiz-adv-x="1343" 
d="M1317 528q-23 -255 -202.5 -412t-446.5 -157q-269 0 -420.5 157t-128.5 412q22 255 201 412.5t448 157.5q267 0 419 -157.5t130 -412.5zM924 528q8 100 -44 163t-143 63t-153.5 -63t-69.5 -163q-9 -100 42 -162.5t142 -62.5t154 62.5t72 162.5z" />
    <glyph glyph-name="p" unicode="p" horiz-adv-x="1372" 
d="M522 111l-51 -582h-395l133 1528h393l-8 -109q134 150 328 150q211 0 328.5 -158t95.5 -412q-23 -254 -168.5 -411.5t-356.5 -157.5q-191 0 -299 152zM952 528q8 97 -44.5 160.5t-141.5 63.5q-90 0 -152.5 -63.5t-70.5 -160.5q-9 -96 42.5 -158.5t141.5 -62.5
q89 0 152.5 62.5t72.5 158.5z" />
    <glyph glyph-name="q" unicode="q" horiz-adv-x="1372" 
d="M1214 -471h-393l51 582q-136 -152 -329 -152q-211 0 -328 158t-94 411q22 254 166.5 412t355.5 158q198 0 303 -150l8 109h394zM516 528q-9 -96 42.5 -158.5t141.5 -62.5q89 0 153 63t73 158q8 97 -45 160.5t-142 63.5t-152 -63.5t-71 -160.5z" />
    <glyph glyph-name="r" unicode="r" horiz-adv-x="925" 
d="M870 1098q47 0 117 -25l-31 -350q-97 43 -182 43q-87 0 -146.5 -61t-68.5 -160l-47 -545h-395l92 1057h379l-13 -133q52 79 131.5 126.5t163.5 47.5z" />
    <glyph glyph-name="s" unicode="s" horiz-adv-x="1175" 
d="M573 -49q-218 0 -350 111.5t-117 283.5h320q-6 -61 44.5 -101t133.5 -40q65 0 111 28.5t47 69.5q3 33 -23.5 53.5t-71.5 27.5t-103 15.5t-119 15t-118 27.5t-100 53t-66 92t-16 142q17 164 163.5 270.5t353.5 106.5q220 0 353.5 -105t119.5 -266l-332 2q2 50 -44 82.5
t-118 32.5q-58 0 -99 -26t-44 -64q-3 -34 32.5 -55t95 -31.5t131.5 -20t143 -27.5t129 -48t90.5 -88t25.5 -140q-15 -176 -174.5 -288.5t-397.5 -112.5z" />
    <glyph glyph-name="t" unicode="t" horiz-adv-x="880" 
d="M223 387l33 377h-135l24 293h152l63 276h338l-24 -276h221l-25 -293h-221l-28 -330q-6 -60 24.5 -96.5t87.5 -36.5q51 0 101 12l-27 -317q-119 -37 -242 -37q-170 0 -264.5 120t-77.5 308z" />
    <glyph glyph-name="u" unicode="u" 
d="M463 -41q-162 0 -255.5 118.5t-78.5 303.5l59 676h396l-52 -586q-6 -76 27.5 -122t97.5 -46q65 0 112.5 49t53.5 125l51 580h396l-92 -1057h-379l12 152q-68 -91 -157.5 -142t-190.5 -51z" />
    <glyph glyph-name="v" unicode="v" horiz-adv-x="1302" 
d="M369 0l-258 1057h419l148 -760l278 760h420l-442 -1057h-565z" />
    <glyph glyph-name="w" unicode="w" horiz-adv-x="1933" 
d="M338 0l-207 1057h408l110 -660l240 660h340l141 -670l225 670h394l-394 -1057h-485l-92 596l-193 -596h-487z" />
    <glyph glyph-name="x" unicode="x" horiz-adv-x="1380" 
d="M518 0h-479l399 549l-291 508h467l144 -295l192 295h469l-383 -508l305 -549h-479l-143 328z" />
    <glyph glyph-name="y" unicode="y" horiz-adv-x="1298" 
d="M170 -444l25 276q40 -16 110 -16q89 0 142.5 37.5t91.5 128.5l-428 1075h428l192 -582l236 582h405l-498 -1106q-102 -226 -216 -330t-265 -104q-123 0 -223 39z" />
    <glyph glyph-name="z" unicode="z" horiz-adv-x="1177" 
d="M612 743h-438l27 314h960l-22 -256l-465 -488h442l-26 -313h-1002l23 256z" />
    <glyph glyph-name="braceleft" unicode="{" horiz-adv-x="901" 
d="M750 -109h122l-22 -260h-371q-123 0 -191 75t-57 198l33 372q5 63 -29.5 101.5t-97.5 38.5h-20l30 348h21q63 0 104 38t47 101l31 352q11 123 91.5 198t203.5 75h371l-23 -260h-123q-64 0 -106.5 -39.5t-48.5 -104.5l-23 -256q-11 -118 -88 -193.5t-196 -82.5l-21 -2
l21 -2q118 -6 182 -82.5t53 -194.5l-25 -276q-5 -65 31.5 -104.5t100.5 -39.5z" />
    <glyph glyph-name="bar" unicode="|" horiz-adv-x="632" 
d="M276 1528h347l-174 -1999h-347z" />
    <glyph glyph-name="braceright" unicode="}" horiz-adv-x="901" 
d="M356 -369h-370l22 260h123q65 0 108.5 40t47.5 104l24 276q11 117 88.5 194t194.5 83l20 2l-20 2q-116 8 -180 83.5t-54 192.5l23 256q6 64 -30 104t-101 40h-123l23 260h370q123 0 191.5 -75t58.5 -198l-31 -352q-6 -63 29 -101t98 -38h21l-31 -348h-20
q-63 0 -105.5 -38.5t-46.5 -101.5l-33 -372q-10 -123 -92 -198t-205 -75z" />
    <glyph glyph-name="asciitilde" unicode="~" horiz-adv-x="1314" 
d="M483 883q66 0 142.5 -33.5t133 -73t122 -73t112.5 -33.5q55 0 111.5 26.5t97.5 69.5l84 -252q-73 -77 -169 -124.5t-175 -47.5q-66 0 -144 33.5t-137 73t-127 73t-118 33.5q-48 0 -101.5 -27t-95.5 -71l-84 254q76 76 173.5 124t174.5 48z" />
    <glyph glyph-name="exclamdown" unicode="&#xa1;" horiz-adv-x="700" 
d="M143 -70l154 555h195l53 -555l-35 -401h-401zM641 821q-7 -92 -74.5 -151.5t-163.5 -59.5q-95 0 -151.5 59.5t-48.5 151.5q7 92 74.5 151.5t162.5 59.5t151.5 -59.5t49.5 -151.5z" />
    <glyph glyph-name="cent" unicode="&#xa2;" horiz-adv-x="1292" 
d="M805 -25l-19 -215h-333l18 228q-175 55 -271.5 200t-78.5 340q17 196 138.5 342.5t307.5 200.5l17 193h334l-17 -181q166 -37 270.5 -151.5t110.5 -269.5l-367 -48q-9 68 -59 112t-119 44q-87 0 -150.5 -68.5t-70.5 -173.5q-9 -105 41 -173t137 -68q69 0 127 43.5
t80 111.5l359 -43q-33 -157 -158.5 -272t-296.5 -152z" />
    <glyph glyph-name="sterling" unicode="&#xa3;" horiz-adv-x="1390" 
d="M932 1190q-54 0 -89.5 -43.5t-41.5 -112.5l-15 -176h420l-22 -240h-443q-63 -214 -282 -305h882l-26 -313h-1241l30 354q192 56 238 264h-195l23 240h205l16 193q17 204 165.5 335.5t369.5 131.5q216 0 349.5 -124.5t135.5 -318.5l-352 -55q-2 75 -36 122.5t-91 47.5z
" />
    <glyph glyph-name="currency" unicode="&#xa4;" horiz-adv-x="1486" 
d="M1137 995l137 148l213 -182l-148 -156q66 -120 54 -277q-15 -152 -101 -278l125 -158l-252 -178l-110 145q-138 -63 -307 -63t-295 63l-156 -145l-209 176l158 160q-66 123 -51 278q12 155 98 277l-117 156l244 182l115 -146q137 64 305 64t297 -66zM999 528
q9 106 -42 173t-142 67t-153.5 -67t-71.5 -173t40.5 -171.5t141.5 -65.5q91 0 154.5 66t72.5 171z" />
    <glyph glyph-name="yen" unicode="&#xa5;" horiz-adv-x="1589" 
d="M545 643l-377 823h479l227 -618l320 618h485l-516 -823h293l-16 -188h-379l-8 -103h379l-17 -188h-379l-14 -164h-444l14 164h-385l16 188h385l8 103h-385l17 188h297z" />
    <glyph glyph-name="section" unicode="&#xa7;" horiz-adv-x="1331" 
d="M782 1444q196 0 326 -89t154 -247l-334 -45q-3 68 -52 111t-122 43q-65 0 -109 -27t-47 -68q-2 -20 5.5 -37t29 -31t40 -23.5t58.5 -20.5t62.5 -16.5t72.5 -16.5q192 -42 272 -79q176 -81 162 -239q-9 -100 -85 -174t-193 -104q79 -39 122 -112.5t34 -176.5
q-15 -178 -173.5 -293.5t-386.5 -115.5q-199 0 -331.5 98.5t-143.5 251.5l330 45q6 -66 58.5 -110t127.5 -44q64 0 109 26.5t49 69.5q1 18 -3 33.5t-16 28.5t-23.5 23t-35 19.5t-39.5 16t-48 14.5l-50 12.5t-55 12.5q-53 11 -87.5 19.5t-84 24.5t-81.5 31.5t-67 40.5
t-54.5 53.5t-30.5 68.5t-7 86q7 96 73.5 170.5t168.5 103.5q-70 37 -107 108t-28 171q15 172 164 279.5t376 107.5zM612 705q-48 -4 -82.5 -33.5t-37.5 -63.5q-3 -33 21.5 -58t58 -38t81.5 -23q60 -10 135 -30q57 6 96 33.5t42 64.5q4 45 -35.5 69.5t-102.5 35.5
q-10 2 -51 12.5t-76.5 19t-48.5 11.5z" />
    <glyph glyph-name="dieresis" unicode="&#xa8;" horiz-adv-x="1081" 
d="M365 1145q-83 0 -132.5 51.5t-42.5 130.5q6 78 64 129t141 51t131.5 -51t42.5 -129q-8 -80 -64.5 -131t-139.5 -51zM918 1145q-82 0 -132 51.5t-43 130.5q6 78 64.5 129t140.5 51q83 0 131.5 -51t42.5 -129q-8 -80 -64.5 -131t-139.5 -51z" />
    <glyph glyph-name="copyright" unicode="&#xa9;" horiz-adv-x="2113" 
d="M127 537q24 274 164.5 484.5t373 326.5t521.5 116t501.5 -115.5t316 -326.5t79.5 -485q-18 -209 -104.5 -385t-225 -299t-327 -192t-404.5 -69t-392.5 69t-293 192t-172 299t-37.5 385zM387 537q-18 -212 57 -375t229.5 -252.5t366.5 -89.5q321 0 537 198t244 519
q18 206 -57.5 365t-231 247t-367.5 88q-321 0 -535.5 -194t-242.5 -506zM1642 659l-268 -41q-11 96 -74.5 158t-152.5 62q-111 0 -193 -87t-92 -223q-12 -133 54.5 -221t177.5 -88q90 0 166 64t104 163l252 -47q-34 -185 -189 -304.5t-360 -119.5q-116 0 -214 40.5t-165 112
t-99.5 175.5t-21.5 225q20 241 187 397t405 156q202 0 338.5 -119.5t144.5 -302.5z" />
    <glyph glyph-name="guillemotleft" unicode="&#xab;" horiz-adv-x="1499" 
d="M918 1057l-410 -514l317 -543h-403l-301 543l393 514h404zM1513 1057l-409 -514l317 -543h-401l-303 543l395 514h401z" />
    <glyph glyph-name="logicalnot" unicode="&#xac;" horiz-adv-x="1316" 
d="M956 143l31 342h-870l26 312h1149l-57 -654h-279z" />
    <glyph glyph-name="registered" unicode="&#xae;" horiz-adv-x="2113" 
d="M127 537q24 274 164.5 484.5t373 326.5t521.5 116t501.5 -115.5t316 -326.5t79.5 -485q-18 -209 -104.5 -385t-225 -299t-327 -192t-404.5 -69t-392.5 69t-293 192t-172 299t-37.5 385zM1821 537q18 206 -57.5 365t-231 247t-367.5 88q-321 0 -535.5 -194t-242.5 -506
q-18 -212 57 -375t229.5 -252.5t366.5 -89.5q321 0 537 198t244 519zM915 20h-278l90 1037h500q178 0 281 -89.5t89 -232.5q-9 -106 -77.5 -183.5t-180.5 -111.5l181 -420h-314l-131 394h-125zM1313 729q6 69 -35 109.5t-125 40.5h-162l-26 -301h165q75 0 126 40.5t57 110.5
z" />
    <glyph glyph-name="macron" unicode="&#xaf;" horiz-adv-x="874" 
d="M928 1448l-21 -229h-727l21 229h727z" />
    <glyph glyph-name="degree" unicode="&#xb0;" horiz-adv-x="1118" 
d="M616 664q-218 0 -340.5 124t-103.5 326q17 203 161.5 328t362.5 125t341 -125t106 -328q-19 -202 -164 -326t-363 -124zM674 1321q-94 0 -154.5 -56.5t-68.5 -150.5q-9 -94 42.5 -150.5t145.5 -56.5t155 56.5t70 150.5q8 94 -44 150.5t-146 56.5z" />
    <glyph glyph-name="plusminus" unicode="&#xb1;" horiz-adv-x="1110" 
d="M96 256h963l-23 -256h-962zM743 401h-307l19 203h-328l23 256h327l17 197h307l-17 -197h328l-22 -256h-328z" />
    <glyph glyph-name="acute" unicode="&#xb4;" horiz-adv-x="753" 
d="M784 1540l-329 -350h-277l256 350h350z" />
    <glyph glyph-name="paragraph" unicode="&#xb6;" horiz-adv-x="1724" 
d="M1706 1190h-201l-141 -1612h-344l141 1612h-172l-141 -1612h-344l88 1018q-212 0 -329.5 119.5t-98.5 316.5q19 195 158 314.5t348 119.5h1061z" />
    <glyph glyph-name="periodcentered" unicode="&#xb7;" horiz-adv-x="585" 
d="M330 424q-95 0 -152 60.5t-49 152.5q7 92 74.5 151.5t163.5 59.5t152 -59t48 -152t-74.5 -153t-162.5 -60z" />
    <glyph glyph-name="cedilla" unicode="&#xb8;" horiz-adv-x="641" 
d="M223 -256h-104l80 307h200l-55 -209q95 0 148 -53t45 -141q-7 -91 -86 -146t-199 -55q-77 0 -136 37t-79 98l115 82q9 -30 35 -48.5t57 -18.5q35 0 57 20t25 51q3 34 -26 55t-77 21z" />
    <glyph glyph-name="guillemotright" unicode="&#xbb;" horiz-adv-x="1497" 
d="M877 543l-398 -543h-401l411 543l-319 514h401zM1473 543l-398 -543h-401l411 543l-319 514h401z" />
    <glyph glyph-name="questiondown" unicode="&#xbf;" horiz-adv-x="1341" 
d="M555 563h348q-13 -151 -68 -242t-171 -161q-84 -54 -112 -83q-41 -43 -46 -93q-5 -63 36.5 -104.5t108.5 -41.5q80 0 140.5 63.5t82.5 164.5l390 -72q-39 -215 -221.5 -351.5t-438.5 -136.5q-245 0 -395 124t-133 315q10 122 84.5 213.5t193.5 150.5q97 46 145 100
t56 154zM981 850q-7 -92 -74.5 -151.5t-163.5 -59.5t-152 59t-48 152q9 94 75 153.5t162 59.5t153 -60t48 -153z" />
    <glyph glyph-name="Agrave" unicode="&#xc0;" horiz-adv-x="1601" 
d="M1253 1466l330 -1466h-465l-45 221h-508l-82 -221h-465l588 1466h647zM897 1092l-217 -560h338zM788 1626l-270 305h359l204 -305h-293z" />
    <glyph glyph-name="Aacute" unicode="&#xc1;" horiz-adv-x="1601" 
d="M1253 1466l330 -1466h-465l-45 221h-508l-82 -221h-465l588 1466h647zM897 1092l-217 -560h338zM1393 1931l-326 -305h-293l262 305h357z" />
    <glyph glyph-name="Acircumflex" unicode="&#xc2;" horiz-adv-x="1601" 
d="M1253 1466l330 -1466h-465l-45 221h-508l-82 -221h-465l588 1466h647zM897 1092l-217 -560h338zM807 1622h-258l231 309h381l174 -309h-258l-121 162z" />
    <glyph glyph-name="Atilde" unicode="&#xc3;" horiz-adv-x="1601" 
d="M1253 1466l330 -1466h-465l-45 221h-508l-82 -221h-465l588 1466h647zM897 1092l-217 -560h338zM688 1690l-172 98q39 90 124 150.5t179 60.5q49 0 95.5 -16.5t75 -37t61 -37t57.5 -16.5q31 0 62 22t53 58l174 -96q-37 -88 -127.5 -149.5t-188.5 -61.5q-51 0 -97.5 16.5
t-74 37t-58 37t-54.5 16.5q-57 0 -109 -82z" />
    <glyph glyph-name="Adieresis" unicode="&#xc4;" horiz-adv-x="1601" 
d="M1253 1466l330 -1466h-465l-45 221h-508l-82 -221h-465l588 1466h647zM897 1092l-217 -560h338zM670 1612q-82 0 -130.5 52.5t-41.5 135.5t64.5 136t139.5 53q84 0 133 -53t42 -136t-65.5 -135.5t-141.5 -52.5zM1214 1612q-84 0 -132.5 52.5t-41.5 135.5t65.5 136
t141.5 53t131 -53t41 -136t-64.5 -135.5t-140.5 -52.5z" />
    <glyph glyph-name="Aring" unicode="&#xc5;" horiz-adv-x="1601" 
d="M1253 1466l330 -1466h-465l-45 221h-508l-82 -221h-465l588 1466h647zM897 1092l-217 -560h338zM938 1561q-128 0 -201.5 69.5t-64.5 181.5q10 114 94.5 183t212.5 69t201 -69.5t63 -182.5q-9 -112 -93 -181.5t-212 -69.5zM967 1886q-34 0 -56.5 -20t-25.5 -54
q-2 -33 16 -53t51 -20t56 20.5t24 52.5q3 34 -15 54t-50 20z" />
    <glyph glyph-name="AE" unicode="&#xc6;" horiz-adv-x="2097" 
d="M2050 348l-31 -348h-956l18 211h-452l-119 -211h-492l850 1466h1260l-31 -346h-541l-20 -227h459l-27 -299h-459l-20 -246h561zM1108 510l57 659l-370 -659h313z" />
    <glyph glyph-name="Ccedilla" unicode="&#xc7;" horiz-adv-x="1714" 
d="M829 -256h-104l55 209q-203 21 -354.5 126t-226 275.5t-56.5 378.5q15 168 88.5 314t187.5 249.5t268 162.5t325 59q197 0 355.5 -76.5t249 -212.5t93.5 -307l-412 -43q-15 114 -101 188t-204 74q-164 0 -276 -113t-129 -295q-15 -181 77.5 -294t254.5 -113
q118 0 217.5 72.5t134.5 185.5l409 -47q-41 -232 -235.5 -392.5t-464.5 -189.5l-31 -113q95 0 148 -53t45 -141q-7 -91 -86 -146t-199 -55q-77 0 -136 37t-79 98l115 82q9 -30 35 -48.5t57 -18.5q35 0 57 20t25 51q3 34 -26 55t-77 21z" />
    <glyph glyph-name="Egrave" unicode="&#xc8;" horiz-adv-x="1288" 
d="M602 348h639l-31 -348h-1067l129 1466h1047l-31 -346h-618l-21 -223h537l-25 -299h-536zM696 1626l-270 305h358l205 -305h-293z" />
    <glyph glyph-name="Eacute" unicode="&#xc9;" horiz-adv-x="1288" 
d="M602 348h639l-31 -348h-1067l129 1466h1047l-31 -346h-618l-21 -223h537l-25 -299h-536zM1260 1931l-326 -305h-293l262 305h357z" />
    <glyph glyph-name="Ecircumflex" unicode="&#xca;" horiz-adv-x="1288" 
d="M602 348h639l-31 -348h-1067l129 1466h1047l-31 -346h-618l-21 -223h537l-25 -299h-536zM674 1622h-258l231 309h381l174 -309h-258l-121 162z" />
    <glyph glyph-name="Edieresis" unicode="&#xcb;" horiz-adv-x="1288" 
d="M602 348h639l-31 -348h-1067l129 1466h1047l-31 -346h-618l-21 -223h537l-25 -299h-536zM537 1612q-82 0 -130.5 52.5t-41.5 135.5t64.5 136t139.5 53q83 0 132 -53t42 -136t-65 -135.5t-141 -52.5zM1079 1612q-82 0 -130.5 52.5t-41.5 135.5t65 136t140 53q83 0 132 -53
t42 -136t-65.5 -135.5t-141.5 -52.5z" />
    <glyph glyph-name="Igrave" unicode="&#xcc;" horiz-adv-x="731" 
d="M717 1466l-129 -1466h-445l129 1466h445zM352 1626l-270 305h358l205 -305h-293z" />
    <glyph glyph-name="Iacute" unicode="&#xcd;" horiz-adv-x="739" 
d="M717 1466l-129 -1466h-445l129 1466h445zM958 1931l-327 -305h-291l260 305h358z" />
    <glyph glyph-name="Icircumflex" unicode="&#xce;" horiz-adv-x="731" 
d="M717 1466l-129 -1466h-445l129 1466h445zM371 1610h-256l227 309h383l174 -309h-256l-121 164z" />
    <glyph glyph-name="Idieresis" unicode="&#xcf;" horiz-adv-x="716" 
d="M711 1466l-129 -1466h-445l129 1466h445zM229 1612q-84 0 -132.5 52.5t-41.5 135.5t65.5 136t141.5 53t131 -53t41 -136t-64.5 -135.5t-140.5 -52.5zM772 1612q-84 0 -132.5 52.5t-41.5 135.5t65.5 136t141.5 53t131 -53t41 -136t-64.5 -135.5t-140.5 -52.5z" />
    <glyph glyph-name="Ntilde" unicode="&#xd1;" horiz-adv-x="1665" 
d="M735 1466l420 -931l82 931h414l-129 -1466h-463l-420 930l-82 -930h-414l129 1466h463zM723 1690l-172 98q39 90 124 150.5t179 60.5q49 0 95.5 -16.5t75 -37t61 -37t57.5 -16.5q65 0 114 80l175 -96q-37 -88 -127.5 -149.5t-188.5 -61.5q-51 0 -97.5 16.5t-74.5 37
t-58.5 37t-54.5 16.5q-56 0 -108 -82z" />
    <glyph glyph-name="Ograve" unicode="&#xd2;" horiz-adv-x="1806" 
d="M143 733q20 231 138.5 409.5t315 277t439.5 98.5t422.5 -98.5t266.5 -277t67 -409.5q-15 -173 -88 -319t-189 -248.5t-275 -159.5t-341 -57t-331 57t-247.5 159.5t-145.5 248.5t-32 319zM588 733q-15 -181 80 -293t264 -114q170 0 285.5 113t130.5 294
q17 181 -78.5 294.5t-265.5 113.5q-169 0 -284 -113t-132 -295zM897 1626l-270 305h358l205 -305h-293z" />
    <glyph glyph-name="Oacute" unicode="&#xd3;" horiz-adv-x="1806" 
d="M143 733q20 231 138.5 409.5t315 277t439.5 98.5t422.5 -98.5t266.5 -277t67 -409.5q-15 -173 -88 -319t-189 -248.5t-275 -159.5t-341 -57t-331 57t-247.5 159.5t-145.5 248.5t-32 319zM588 733q-15 -181 80 -293t264 -114q170 0 285.5 113t130.5 294
q17 181 -78.5 294.5t-265.5 113.5q-169 0 -284 -113t-132 -295zM1491 1931l-328 -305h-291l261 305h358z" />
    <glyph glyph-name="Ocircumflex" unicode="&#xd4;" horiz-adv-x="1806" 
d="M143 733q20 231 138.5 409.5t315 277t439.5 98.5t422.5 -98.5t266.5 -277t67 -409.5q-15 -173 -88 -319t-189 -248.5t-275 -159.5t-341 -57t-331 57t-247.5 159.5t-145.5 248.5t-32 319zM588 733q-15 -181 80 -293t264 -114q170 0 285.5 113t130.5 294
q17 181 -78.5 294.5t-265.5 113.5q-169 0 -284 -113t-132 -295zM909 1622h-258l232 309h381l174 -309h-256l-123 162z" />
    <glyph glyph-name="Otilde" unicode="&#xd5;" horiz-adv-x="1806" 
d="M143 733q20 231 138.5 409.5t315 277t439.5 98.5t422.5 -98.5t266.5 -277t67 -409.5q-15 -173 -88 -319t-189 -248.5t-275 -159.5t-341 -57t-331 57t-247.5 159.5t-145.5 248.5t-32 319zM588 733q-15 -181 80 -293t264 -114q170 0 285.5 113t130.5 294
q17 181 -78.5 294.5t-265.5 113.5q-169 0 -284 -113t-132 -295zM793 1690l-175 98q39 89 124.5 150t179.5 61q49 0 95.5 -16.5t75 -37t61.5 -37t58 -16.5q30 0 61.5 22t51.5 58l176 -96q-39 -88 -129 -149.5t-188 -61.5q-51 0 -97.5 16.5t-74.5 37t-58.5 37t-54.5 16.5
q-57 0 -106 -82z" />
    <glyph glyph-name="Odieresis" unicode="&#xd6;" horiz-adv-x="1806" 
d="M143 733q20 231 138.5 409.5t315 277t439.5 98.5t422.5 -98.5t266.5 -277t67 -409.5q-15 -173 -88 -319t-189 -248.5t-275 -159.5t-341 -57t-331 57t-247.5 159.5t-145.5 248.5t-32 319zM588 733q-15 -181 80 -293t264 -114q170 0 285.5 113t130.5 294
q17 181 -78.5 294.5t-265.5 113.5q-169 0 -284 -113t-132 -295zM774 1612q-84 0 -132.5 52.5t-41.5 135.5t65.5 136t141.5 53t131 -53t41 -136t-64.5 -135.5t-140.5 -52.5zM1317 1612q-84 0 -132.5 52.5t-41.5 135.5t65.5 136t141.5 53t131 -53t41 -136t-64.5 -135.5
t-140.5 -52.5z" />
    <glyph glyph-name="multiply" unicode="&#xd7;" horiz-adv-x="974" 
d="M315 195l-204 223l206 194l-174 193l246 223l172 -190l205 190l205 -223l-207 -193l172 -194l-244 -223l-170 192z" />
    <glyph glyph-name="Oslash" unicode="&#xd8;" horiz-adv-x="1765" 
d="M1284 1477l172 284h240l-228 -375q151 -106 226 -275.5t57 -377.5q-14 -168 -87 -314t-188 -249t-269.5 -162t-327.5 -59q-139 0 -261 39l-163 -275h-240l217 363q-153 103 -230 274.5t-59 382.5q15 168 88.5 314t188.5 249.5t269.5 162.5t326.5 59q143 0 268 -41z
M588 733q-15 -170 76 -278l407 671q-54 15 -88 15q-157 0 -268.5 -115t-126.5 -293zM1307 733q14 159 -70 275l-406 -672q31 -10 80 -10q157 0 269 114.5t127 292.5z" />
    <glyph glyph-name="Ugrave" unicode="&#xd9;" horiz-adv-x="1636" 
d="M1122 631l74 835h444l-75 -852q-17 -195 -117 -346.5t-264.5 -235t-368.5 -83.5q-310 0 -486.5 184.5t-150.5 480.5l76 852h444l-73 -835q-11 -122 47 -210.5t176 -94.5q110 0 186 85t88 220zM811 1626l-270 305h358l205 -305h-293z" />
    <glyph glyph-name="Uacute" unicode="&#xda;" horiz-adv-x="1636" 
d="M1122 631l74 835h444l-75 -852q-17 -195 -117 -346.5t-264.5 -235t-368.5 -83.5q-310 0 -486.5 184.5t-150.5 480.5l76 852h444l-73 -835q-11 -122 47 -210.5t176 -94.5q110 0 186 85t88 220zM1405 1931l-328 -305h-291l263 305h356z" />
    <glyph glyph-name="Ucircumflex" unicode="&#xdb;" horiz-adv-x="1636" 
d="M1122 631l74 835h444l-75 -852q-17 -195 -117 -346.5t-264.5 -235t-368.5 -83.5q-310 0 -486.5 184.5t-150.5 480.5l76 852h444l-73 -835q-11 -122 47 -210.5t176 -94.5q110 0 186 85t88 220zM823 1622h-256l230 309h383l172 -309h-256l-123 162z" />
    <glyph glyph-name="Udieresis" unicode="&#xdc;" horiz-adv-x="1636" 
d="M1122 631l74 835h444l-75 -852q-17 -195 -117 -346.5t-264.5 -235t-368.5 -83.5q-310 0 -486.5 184.5t-150.5 480.5l76 852h444l-73 -835q-11 -122 47 -210.5t176 -94.5q110 0 186 85t88 220zM688 1612q-84 0 -132.5 52.5t-41.5 135.5t65.5 136t141.5 53t131 -53t41 -136
t-64.5 -135.5t-140.5 -52.5zM1231 1612q-82 0 -130.5 52.5t-41.5 135.5t65 136t140 53q83 0 131 -53t41 -136t-64.5 -135.5t-140.5 -52.5z" />
    <glyph glyph-name="Yacute" unicode="&#xdd;" horiz-adv-x="1482" 
d="M567 500l-422 966h463l217 -585l299 585h471l-583 -966l-43 -500h-445zM1329 1931l-328 -305h-292l262 305h358z" />
    <glyph glyph-name="germandbls" unicode="&#xdf;" horiz-adv-x="1599" 
d="M653 993l-86 -993h-444l86 983q20 236 215.5 383t490.5 147q269 0 422 -122t136 -320q-9 -95 -69.5 -166t-156.5 -102q135 -30 217.5 -146.5t69.5 -273.5q-15 -188 -161.5 -311t-354.5 -123q-82 0 -176 22t-166 56l90 258q80 -41 149 -41q71 0 122 51.5t57 130.5
q9 100 -50 161.5t-172 61.5h-94l21 238h98q72 0 119.5 41.5t52.5 107.5q8 80 -44.5 130.5t-143.5 50.5q-93 0 -156 -61.5t-72 -162.5z" />
    <glyph glyph-name="agrave" unicode="&#xe0;" horiz-adv-x="1392" 
d="M961 922l12 135h393l-92 -1057h-393l12 135q-65 -84 -153 -130t-189 -46q-215 0 -334 157.5t-96 411.5q22 254 168.5 412t361.5 158q205 0 310 -176zM700 303q89 0 153 64t73 161q8 98 -45 162t-142 64q-90 0 -152.5 -63.5t-70.5 -162.5q-9 -97 42.5 -161t141.5 -64z
M397 1552h351l194 -350h-276z" />
    <glyph glyph-name="aacute" unicode="&#xe1;" horiz-adv-x="1392" 
d="M961 922l12 135h393l-92 -1057h-393l12 135q-65 -84 -153 -130t-189 -46q-215 0 -334 157.5t-96 411.5q22 254 168.5 412t361.5 158q205 0 310 -176zM700 303q89 0 153 64t73 161q8 98 -45 162t-142 64q-90 0 -152.5 -63.5t-70.5 -162.5q-9 -97 42.5 -161t141.5 -64z
M874 1552h351l-330 -350h-277z" />
    <glyph glyph-name="acircumflex" unicode="&#xe2;" horiz-adv-x="1392" 
d="M961 922l12 135h393l-92 -1057h-393l12 135q-65 -84 -153 -130t-189 -46q-215 0 -334 157.5t-96 411.5q22 254 168.5 412t361.5 158q205 0 310 -176zM700 303q89 0 153 64t73 161q8 98 -45 162t-142 64q-90 0 -152.5 -63.5t-70.5 -162.5q-9 -97 42.5 -161t141.5 -64z
M643 1202h-266l241 350h381l181 -350h-267l-116 203z" />
    <glyph glyph-name="atilde" unicode="&#xe3;" horiz-adv-x="1392" 
d="M961 922l12 135h393l-92 -1057h-393l12 135q-65 -84 -153 -130t-189 -46q-215 0 -334 157.5t-96 411.5q22 254 168.5 412t361.5 158q205 0 310 -176zM700 303q89 0 153 64t73 161q8 98 -45 162t-142 64q-90 0 -152.5 -63.5t-70.5 -162.5q-9 -97 42.5 -161t141.5 -64z
M541 1249l-174 92q39 89 125 150t180 61q48 0 94 -16.5t75 -36.5t62.5 -36.5t59.5 -16.5q30 0 59.5 21t50.5 55l176 -90q-39 -90 -128.5 -151.5t-188.5 -61.5q-51 0 -98 16.5t-74.5 36.5t-58.5 36.5t-56 16.5q-58 0 -104 -76z" />
    <glyph glyph-name="adieresis" unicode="&#xe4;" horiz-adv-x="1392" 
d="M961 922l12 135h393l-92 -1057h-393l12 135q-65 -84 -153 -130t-189 -46q-215 0 -334 157.5t-96 411.5q22 254 168.5 412t361.5 158q205 0 310 -176zM700 303q89 0 153 64t73 161q8 98 -45 162t-142 64q-90 0 -152.5 -63.5t-70.5 -162.5q-9 -97 42.5 -161t141.5 -64z
M502 1204q-83 0 -131.5 51t-42.5 131q7 79 65.5 130t141.5 51t131.5 -50.5t40.5 -130.5q-6 -79 -64 -130.5t-141 -51.5zM1055 1204q-82 0 -130 51t-42 131q7 79 64.5 130t139.5 51q84 0 133 -51t42 -130q-6 -79 -64.5 -130.5t-142.5 -51.5z" />
    <glyph glyph-name="aring" unicode="&#xe5;" horiz-adv-x="1392" 
d="M961 922l12 135h393l-92 -1057h-393l12 135q-65 -84 -153 -130t-189 -46q-215 0 -334 157.5t-96 411.5q22 254 168.5 412t361.5 158q205 0 310 -176zM700 303q89 0 153 64t73 161q8 98 -45 162t-142 64q-90 0 -152.5 -63.5t-70.5 -162.5q-9 -97 42.5 -161t141.5 -64z
M782 1176q-145 0 -226 79.5t-69 208.5q11 129 106.5 209t240.5 80q142 0 223.5 -80t70.5 -209q-12 -129 -107.5 -208.5t-238.5 -79.5zM817 1575q-51 0 -83.5 -30.5t-35.5 -80.5q-5 -50 22.5 -80t78.5 -30q48 0 81.5 30.5t37.5 79.5q3 49 -25.5 80t-75.5 31z" />
    <glyph glyph-name="ae" unicode="&#xe6;" horiz-adv-x="2138" 
d="M2114 539q-3 -40 -17 -123h-770q8 -77 62.5 -124.5t138.5 -47.5q62 0 112 27.5t76 76.5l328 -57q-62 -145 -208.5 -238.5t-313.5 -93.5q-129 0 -230 54.5t-141 142.5l-14 -156h-234l12 141q-68 -87 -161 -134.5t-201 -47.5q-215 0 -335 158t-97 411q22 254 169.5 412
t362.5 158q107 0 191.5 -48t138.5 -135l12 142h234l-15 -160q60 91 169.5 146t244.5 55q153 0 269 -71.5t173.5 -199t43.5 -288.5zM514 528q-10 -115 45 -186.5t152 -71.5t165 71t78 187q9 116 -45.5 188t-152.5 72q-97 0 -165 -72.5t-77 -187.5zM1339 606h385q0 81 -49 137
t-127 56q-75 0 -130.5 -50.5t-78.5 -142.5z" />
    <glyph glyph-name="ccedilla" unicode="&#xe7;" horiz-adv-x="1292" 
d="M592 -256h-105l62 225q-209 36 -328.5 189.5t-99.5 369.5q22 247 203 408.5t438 161.5q143 0 260.5 -55.5t186.5 -155.5t73 -225l-367 -48q-9 68 -59 112t-119 44q-87 0 -150.5 -68.5t-70.5 -173.5q-9 -105 41 -173t137 -68q69 0 127 43.5t80 111.5l359 -43
q-38 -171 -180.5 -291t-331.5 -143l-33 -123q94 0 146 -53t44 -141q-7 -91 -85.5 -146t-198.5 -55q-77 0 -136 37t-79 98l114 82q10 -31 36 -49t58 -18q33 0 55 20t25 51q3 34 -25 55t-77 21z" />
    <glyph glyph-name="egrave" unicode="&#xe8;" horiz-adv-x="1325" 
d="M707 244q63 0 112.5 30t75.5 78l338 -55q-47 -148 -208 -243t-363 -95q-262 0 -413 159t-128 414q22 251 203 408.5t444 157.5q262 0 407 -157t123 -413q-13 -101 -14 -106h-768q12 -84 61 -131t130 -47zM532 629h379q0 77 -49 131.5t-127 54.5q-74 0 -126.5 -50
t-76.5 -136zM395 1552h353l192 -350h-276z" />
    <glyph glyph-name="eacute" unicode="&#xe9;" horiz-adv-x="1325" 
d="M707 244q63 0 112.5 30t75.5 78l338 -55q-47 -148 -208 -243t-363 -95q-262 0 -413 159t-128 414q22 251 203 408.5t444 157.5q262 0 407 -157t123 -413q-13 -101 -14 -106h-768q12 -84 61 -131t130 -47zM532 629h379q0 77 -49 131.5t-127 54.5q-74 0 -126.5 -50
t-76.5 -136zM868 1552h351l-330 -350h-277z" />
    <glyph glyph-name="ecircumflex" unicode="&#xea;" horiz-adv-x="1325" 
d="M707 244q63 0 112.5 30t75.5 78l338 -55q-47 -148 -208 -243t-363 -95q-262 0 -413 159t-128 414q22 251 203 408.5t444 157.5q262 0 407 -157t123 -413q-13 -101 -14 -106h-768q12 -84 61 -131t130 -47zM532 629h379q0 77 -49 131.5t-127 54.5q-74 0 -126.5 -50
t-76.5 -136zM641 1202h-264l239 350h381l183 -350h-267l-118 203z" />
    <glyph glyph-name="edieresis" unicode="&#xeb;" horiz-adv-x="1325" 
d="M707 244q63 0 112.5 30t75.5 78l338 -55q-47 -148 -208 -243t-363 -95q-262 0 -413 159t-128 414q22 251 203 408.5t444 157.5q262 0 407 -157t123 -413q-13 -101 -14 -106h-768q12 -84 61 -131t130 -47zM532 629h379q0 77 -49 131.5t-127 54.5q-74 0 -126.5 -50
t-76.5 -136zM500 1186q-83 0 -132.5 51t-43.5 131q8 78 65.5 129t140.5 51t131.5 -51t40.5 -129q-6 -80 -62.5 -131t-139.5 -51zM1053 1186q-82 0 -131 51.5t-43 130.5q8 78 65 129t139 51q83 0 132.5 -51t41.5 -129q-6 -80 -63.5 -131t-140.5 -51z" />
    <glyph glyph-name="igrave" unicode="&#xec;" horiz-adv-x="636" 
d="M612 1057l-92 -1057h-393l92 1057h393zM43 1552h350l195 -350h-277z" />
    <glyph glyph-name="iacute" unicode="&#xed;" horiz-adv-x="634" 
d="M606 1057l-92 -1057h-395l92 1057h395zM512 1552h350l-327 -350h-277z" />
    <glyph glyph-name="icircumflex" unicode="&#xee;" horiz-adv-x="636" 
d="M606 1057l-92 -1057h-393l92 1057h393zM287 1202h-267l242 350h381l182 -350h-266l-119 203z" />
    <glyph glyph-name="idieresis" unicode="&#xef;" horiz-adv-x="634" 
d="M606 1057l-92 -1057h-393l92 1057h393zM145 1186q-83 0 -132.5 51t-43.5 131q8 78 66 129t141 51t131.5 -51t40.5 -129q-6 -80 -63 -131t-140 -51zM698 1186q-82 0 -131 51.5t-43 130.5q8 78 65.5 129t139.5 51q83 0 132.5 -51t41.5 -129q-6 -79 -64 -130.5t-141 -51.5z
" />
    <glyph glyph-name="ntilde" unicode="&#xf1;" 
d="M924 1098q162 0 255 -118t78 -302l-59 -678h-395l51 588q6 74 -27.5 120t-97.5 46q-65 0 -112.5 -48t-53.5 -124l-51 -582h-395l92 1057h381l-12 -152q67 90 155.5 141.5t190.5 51.5zM504 1249l-172 92q39 89 125 150t178 61q62 0 118 -26.5t99 -53t74 -26.5q66 0 112 76
l174 -90q-37 -89 -127 -151t-188 -62q-52 0 -99 16.5t-74 36.5t-58 36.5t-56 16.5q-57 0 -106 -76z" />
    <glyph glyph-name="ograve" unicode="&#xf2;" horiz-adv-x="1345" 
d="M1319 528q-23 -255 -202.5 -412t-446.5 -157q-269 0 -420.5 157t-128.5 412q22 255 201 412.5t448 157.5q267 0 419 -157.5t130 -412.5zM926 528q8 100 -44 163t-143 63q-92 0 -153.5 -63t-69.5 -163q-9 -100 41.5 -162.5t142.5 -62.5q91 0 154 62.5t72 162.5zM391 1552
h352l193 -350h-277z" />
    <glyph glyph-name="oacute" unicode="&#xf3;" horiz-adv-x="1345" 
d="M1319 528q-23 -255 -202.5 -412t-446.5 -157q-269 0 -420.5 157t-128.5 412q22 255 201 412.5t448 157.5q267 0 419 -157.5t130 -412.5zM926 528q8 100 -44 163t-143 63q-92 0 -153.5 -63t-69.5 -163q-9 -100 41.5 -162.5t142.5 -62.5q91 0 154 62.5t72 162.5zM868 1552
h351l-330 -350h-277z" />
    <glyph glyph-name="ocircumflex" unicode="&#xf4;" horiz-adv-x="1345" 
d="M1319 528q-23 -255 -202.5 -412t-446.5 -157q-269 0 -420.5 157t-128.5 412q22 255 201 412.5t448 157.5q267 0 419 -157.5t130 -412.5zM926 528q8 100 -44 163t-143 63q-92 0 -153.5 -63t-69.5 -163q-9 -100 41.5 -162.5t142.5 -62.5q91 0 154 62.5t72 162.5zM643 1202
h-266l241 350h381l181 -350h-267l-116 203z" />
    <glyph glyph-name="otilde" unicode="&#xf5;" horiz-adv-x="1345" 
d="M1319 528q-23 -255 -202.5 -412t-446.5 -157q-269 0 -420.5 157t-128.5 412q22 255 201 412.5t448 157.5q267 0 419 -157.5t130 -412.5zM926 528q8 100 -44 163t-143 63q-92 0 -153.5 -63t-69.5 -163q-9 -100 41.5 -162.5t142.5 -62.5q91 0 154 62.5t72 162.5zM539 1249
l-172 92q39 89 125 150t178 61q62 0 118 -26.5t99 -53t74 -26.5q66 0 112 76l174 -90q-37 -89 -127 -151t-188 -62q-51 0 -98 16.5t-74.5 36.5t-58.5 36.5t-56 16.5q-57 0 -106 -76z" />
    <glyph glyph-name="odieresis" unicode="&#xf6;" horiz-adv-x="1345" 
d="M1319 528q-23 -255 -202.5 -412t-446.5 -157q-269 0 -420.5 157t-128.5 412q22 255 201 412.5t448 157.5q267 0 419 -157.5t130 -412.5zM926 528q8 100 -44 163t-143 63q-92 0 -153.5 -63t-69.5 -163q-9 -100 41.5 -162.5t142.5 -62.5q91 0 154 62.5t72 162.5zM500 1186
q-82 0 -131 51.5t-43 130.5q8 78 65 129t139 51q83 0 132.5 -51t42.5 -129q-6 -79 -64 -130.5t-141 -51.5zM1055 1186q-83 0 -132.5 51t-43.5 131q8 78 65.5 129t140.5 51t131.5 -51t40.5 -129q-6 -80 -62.5 -131t-139.5 -51z" />
    <glyph glyph-name="divide" unicode="&#xf7;" horiz-adv-x="1069" 
d="M539 41q-81 0 -129.5 50.5t-42.5 127.5q8 77 64.5 127.5t137.5 50.5t129.5 -50.5t40.5 -127.5q-6 -77 -62.5 -127.5t-137.5 -50.5zM143 788h922l-25 -282h-921zM612 889q-81 0 -129.5 50.5t-40.5 127.5q6 78 62.5 128t138.5 50t130 -50t42 -128q-8 -77 -65 -127.5
t-138 -50.5z" />
    <glyph glyph-name="oslash" unicode="&#xf8;" horiz-adv-x="1380" 
d="M977 1073l92 156h199l-135 -221q118 -72 175 -196.5t44 -283.5q-23 -255 -207 -412t-459 -157q-88 0 -182 23l-86 -146h-199l127 207q-121 73 -180.5 198.5t-44.5 286.5q22 255 205 412.5t460 157.5q102 0 191 -25zM465 528q-12 -127 55 -204l299 491q-24 6 -57 6
q-119 0 -203 -81.5t-94 -211.5zM1008 528q9 119 -50 197l-294 -483q21 -6 47 -6q120 0 202.5 81.5t94.5 210.5z" />
    <glyph glyph-name="ugrave" unicode="&#xf9;" 
d="M463 -41q-162 0 -255.5 118.5t-78.5 303.5l59 676h396l-52 -586q-6 -76 27.5 -122t97.5 -46q65 0 112.5 49t53.5 125l51 580h396l-92 -1057h-379l12 152q-68 -91 -157.5 -142t-190.5 -51zM360 1552h353l192 -350h-276z" />
    <glyph glyph-name="uacute" unicode="&#xfa;" 
d="M463 -41q-162 0 -255.5 118.5t-78.5 303.5l59 676h396l-52 -586q-6 -76 27.5 -122t97.5 -46q65 0 112.5 49t53.5 125l51 580h396l-92 -1057h-379l12 152q-68 -91 -157.5 -142t-190.5 -51zM838 1552h350l-330 -350h-276z" />
    <glyph glyph-name="ucircumflex" unicode="&#xfb;" 
d="M463 -41q-162 0 -255.5 118.5t-78.5 303.5l59 676h396l-52 -586q-6 -76 27.5 -122t97.5 -46q65 0 112.5 49t53.5 125l51 580h396l-92 -1057h-379l12 152q-68 -91 -157.5 -142t-190.5 -51zM606 1202h-266l242 350h381l182 -350h-268l-117 203z" />
    <glyph glyph-name="udieresis" unicode="&#xfc;" 
d="M463 -41q-162 0 -255.5 118.5t-78.5 303.5l59 676h396l-52 -586q-6 -76 27.5 -122t97.5 -46q65 0 112.5 49t53.5 125l51 580h396l-92 -1057h-379l12 152q-68 -91 -157.5 -142t-190.5 -51zM465 1186q-83 0 -132.5 51t-43.5 129q8 80 66 131t141 51t131.5 -51t40.5 -131
q-6 -78 -63 -129t-140 -51zM1018 1186q-82 0 -131 51t-43 129q7 79 65 130.5t140 51.5q83 0 132 -51.5t42 -130.5q-6 -78 -64 -129t-141 -51z" />
    <glyph glyph-name="yacute" unicode="&#xfd;" horiz-adv-x="1298" 
d="M170 -444l25 276q40 -16 110 -16q89 0 142.5 37.5t91.5 128.5l-428 1075h428l192 -582l236 582h405l-498 -1106q-102 -226 -216 -330t-265 -104q-123 0 -223 39zM856 1552h350l-329 -350h-277z" />
    <glyph glyph-name="ydieresis" unicode="&#xff;" horiz-adv-x="1298" 
d="M170 -444l25 276q40 -16 110 -16q89 0 142.5 37.5t91.5 128.5l-428 1075h428l192 -582l236 582h405l-498 -1106q-102 -226 -216 -330t-265 -104q-123 0 -223 39zM477 1186q-82 0 -131 51.5t-43 130.5q8 78 65.5 129t139.5 51q83 0 132.5 -51t41.5 -129q-6 -79 -64 -130.5
t-141 -51.5zM1030 1186q-82 0 -131 51.5t-43 130.5q8 78 65.5 129t139.5 51q84 0 133 -51t41 -129q-6 -80 -63.5 -131t-141.5 -51z" />
    <glyph glyph-name="Amacron" unicode="&#x100;" horiz-adv-x="1601" 
d="M1253 1466l330 -1466h-465l-45 221h-508l-82 -221h-465l588 1466h647zM897 1092l-217 -560h338zM1331 1896l-20 -229h-727l20 229h727z" />
    <glyph glyph-name="amacron" unicode="&#x101;" horiz-adv-x="1392" 
d="M961 922l12 135h393l-92 -1057h-393l12 135q-65 -84 -153 -130t-189 -46q-215 0 -334 157.5t-96 411.5q22 254 168.5 412t361.5 158q205 0 310 -176zM700 303q89 0 153 64t73 161q8 98 -45 162t-142 64q-90 0 -152.5 -63.5t-70.5 -162.5q-9 -97 42.5 -161t141.5 -64z
M1137 1477l-21 -228h-727l21 228h727z" />
    <glyph glyph-name="Abreve" unicode="&#x102;" horiz-adv-x="1601" 
d="M1253 1466l330 -1466h-465l-45 221h-508l-82 -221h-465l588 1466h647zM897 1092l-217 -560h338zM1073 1931h232q-12 -138 -113 -223.5t-250 -85.5t-233 85.5t-72 223.5h231q-4 -49 22 -79.5t71 -30.5q46 0 77 30.5t35 79.5z" />
    <glyph glyph-name="abreve" unicode="&#x103;" horiz-adv-x="1392" 
d="M961 922l12 135h393l-92 -1057h-393l12 135q-65 -84 -153 -130t-189 -46q-215 0 -334 157.5t-96 411.5q22 254 168.5 412t361.5 158q205 0 310 -176zM700 303q89 0 153 64t73 161q8 98 -45 162t-142 64q-90 0 -152.5 -63.5t-70.5 -162.5q-9 -97 42.5 -161t141.5 -64z
M868 1542h234q-14 -165 -103.5 -255.5t-255.5 -90.5q-165 0 -239 91t-60 255h234q-6 -64 17.5 -104.5t66.5 -40.5q42 0 72 40.5t34 104.5z" />
    <glyph glyph-name="Aogonek" unicode="&#x104;" horiz-adv-x="1667" 
d="M1354 0h-236l-45 221h-508l-82 -221h-465l588 1466h647l330 -1466h-8q-212 -69 -221 -197q-7 -86 64 -140.5t196 -57.5l-15 -176q-222 0 -352.5 90.5t-118.5 232.5q7 82 67.5 147t158.5 101zM897 1092l-217 -560h338z" />
    <glyph glyph-name="aogonek" unicode="&#x105;" horiz-adv-x="1454" 
d="M1042 0h-161l12 135q-65 -84 -153 -130t-189 -46q-215 0 -334 157.5t-96 411.5q22 254 168.5 412t361.5 158q205 0 310 -176l12 135h393l-92 -1057h-10q-215 -70 -224 -197q-7 -86 65.5 -140.5t197.5 -57.5l-15 -176q-222 0 -352.5 90.5t-118.5 232.5q7 82 67 147
t158 101zM700 303q89 0 153 64t73 161q8 98 -45 162t-142 64q-90 0 -152.5 -63.5t-70.5 -162.5q-9 -97 42.5 -161t141.5 -64z" />
    <glyph glyph-name="Cacute" unicode="&#x106;" horiz-adv-x="1714" 
d="M1272 584l409 -47q-31 -168 -145 -302.5t-287 -210t-372 -75.5q-172 0 -316 59t-240.5 162t-144 249t-33.5 314q15 168 88.5 314t187.5 249.5t268 162.5t325 59q197 0 355.5 -76.5t249 -212.5t93.5 -307l-412 -43q-15 114 -101 188t-204 74q-164 0 -276 -113t-129 -295
q-15 -181 77.5 -294t254.5 -113q118 0 217.5 72.5t134.5 185.5zM1460 1931l-325 -305h-293l262 305h356z" />
    <glyph glyph-name="cacute" unicode="&#x107;" horiz-adv-x="1292" 
d="M1282 662l-367 -48q-9 68 -59 112t-119 44q-87 0 -150.5 -68.5t-70.5 -173.5q-9 -105 41 -173t137 -68q69 0 127 43.5t80 111.5l359 -43q-41 -191 -211.5 -315.5t-386.5 -124.5q-255 0 -409.5 161.5t-131.5 407.5q22 247 203 408.5t438 161.5q143 0 260.5 -55.5
t186.5 -155.5t73 -225zM854 1552h350l-330 -350h-276z" />
    <glyph glyph-name="Ccircumflex" unicode="&#x108;" horiz-adv-x="1714" 
d="M1272 584l409 -47q-31 -168 -145 -302.5t-287 -210t-372 -75.5q-172 0 -316 59t-240.5 162t-144 249t-33.5 314q15 168 88.5 314t187.5 249.5t268 162.5t325 59q197 0 355.5 -76.5t249 -212.5t93.5 -307l-412 -43q-15 114 -101 188t-204 74q-164 0 -276 -113t-129 -295
q-15 -181 77.5 -294t254.5 -113q118 0 217.5 72.5t134.5 185.5zM885 1622h-258l231 309h381l174 -309h-256l-123 162z" />
    <glyph glyph-name="ccircumflex" unicode="&#x109;" horiz-adv-x="1292" 
d="M1282 662l-367 -48q-9 68 -59 112t-119 44q-87 0 -150.5 -68.5t-70.5 -173.5q-9 -105 41 -173t137 -68q69 0 127 43.5t80 111.5l359 -43q-41 -191 -211.5 -315.5t-386.5 -124.5q-255 0 -409.5 161.5t-131.5 407.5q22 247 203 408.5t438 161.5q143 0 260.5 -55.5
t186.5 -155.5t73 -225zM621 1202h-265l242 350h381l180 -350h-266l-117 203z" />
    <glyph glyph-name="Cdotaccent" unicode="&#x10a;" horiz-adv-x="1714" 
d="M1272 584l409 -47q-31 -168 -145 -302.5t-287 -210t-372 -75.5q-172 0 -316 59t-240.5 162t-144 249t-33.5 314q15 168 88.5 314t187.5 249.5t268 162.5t325 59q197 0 355.5 -76.5t249 -212.5t93.5 -307l-412 -43q-15 114 -101 188t-204 74q-164 0 -276 -113t-129 -295
q-15 -181 77.5 -294t254.5 -113q118 0 217.5 72.5t134.5 185.5zM1010 1626q-89 0 -142 55t-45 140q7 86 69 140t152 54q91 0 143.5 -54t45.5 -140q-8 -85 -70.5 -140t-152.5 -55z" />
    <glyph glyph-name="cdotaccent" unicode="&#x10b;" horiz-adv-x="1292" 
d="M1282 662l-367 -48q-9 68 -59 112t-119 44q-87 0 -150.5 -68.5t-70.5 -173.5q-9 -105 41 -173t137 -68q69 0 127 43.5t80 111.5l359 -43q-41 -191 -211.5 -315.5t-386.5 -124.5q-255 0 -409.5 161.5t-131.5 407.5q22 247 203 408.5t438 161.5q143 0 260.5 -55.5
t186.5 -155.5t73 -225zM758 1212q-88 0 -142 55.5t-47 141.5q7 85 71.5 141t152.5 56q89 0 141.5 -56t44.5 -141q-7 -86 -69.5 -141.5t-151.5 -55.5z" />
    <glyph glyph-name="Ccaron" unicode="&#x10c;" horiz-adv-x="1714" 
d="M1272 584l409 -47q-31 -168 -145 -302.5t-287 -210t-372 -75.5q-172 0 -316 59t-240.5 162t-144 249t-33.5 314q15 168 88.5 314t187.5 249.5t268 162.5t325 59q197 0 355.5 -76.5t249 -212.5t93.5 -307l-412 -43q-15 114 -101 188t-204 74q-164 0 -276 -113t-129 -295
q-15 -181 77.5 -294t254.5 -113q118 0 217.5 72.5t134.5 185.5zM1188 1960l266 2l-244 -340h-381l-182 338h268l119 -193z" />
    <glyph glyph-name="ccaron" unicode="&#x10d;" horiz-adv-x="1292" 
d="M1282 662l-367 -48q-9 68 -59 112t-119 44q-87 0 -150.5 -68.5t-70.5 -173.5q-9 -105 41 -173t137 -68q69 0 127 43.5t80 111.5l359 -43q-41 -191 -211.5 -315.5t-386.5 -124.5q-255 0 -409.5 161.5t-131.5 407.5q22 247 203 408.5t438 161.5q143 0 260.5 -55.5
t186.5 -155.5t73 -225zM924 1552h266l-244 -350h-381l-180 350h266l119 -202z" />
    <glyph glyph-name="Dcaron" unicode="&#x10e;" horiz-adv-x="1667" 
d="M143 0l129 1466h607q378 0 590.5 -201.5t183.5 -531.5q-18 -218 -137 -384.5t-317.5 -257.5t-448.5 -91h-607zM1208 733q17 182 -82.5 292t-277.5 110h-176l-70 -803h176q178 0 296.5 109.5t133.5 291.5zM1073 1960l268 2l-243 -340h-381l-182 338h268l119 -193z" />
    <glyph glyph-name="dcaron" unicode="&#x10f;" horiz-adv-x="1693" 
d="M944 946l51 582h394l-134 -1528h-393l10 111q-130 -152 -329 -152q-211 0 -328 158t-94 411q22 254 166.5 412t355.5 158q193 0 301 -152zM516 528q-9 -97 43 -159t141 -62t153 63t73 158q8 97 -45 160.5t-142 63.5q-90 0 -152.5 -63.5t-70.5 -160.5zM1589 1184
q-64 0 -100.5 47.5t-30.5 120.5q6 77 56.5 124.5t125.5 47.5q85 0 132.5 -60.5t39.5 -158.5q-9 -109 -70 -219t-147 -171l-153 46q60 44 101 107t46 116z" />
    <glyph glyph-name="Dcroat" unicode="&#x110;" horiz-adv-x="1722" 
d="M279 903l49 563h604q378 0 590.5 -201.5t183.5 -531.5q-18 -218 -137 -384.5t-317.5 -257.5t-448.5 -91h-604l57 664h-180l22 239h181zM1264 733q17 182 -83.5 292t-279.5 110h-176l-18 -232h211l-23 -239h-211l-29 -332h176q179 0 298.5 109.5t134.5 291.5z" />
    <glyph glyph-name="dcroat" unicode="&#x111;" horiz-adv-x="1413" 
d="M944 946l23 242h-291l16 201h291l12 139h394l-13 -139h142l-17 -201h-141l-105 -1188h-393l10 111q-130 -152 -329 -152q-211 0 -328 158t-94 411q22 254 166.5 412t355.5 158q193 0 301 -152zM516 528q-9 -97 43 -159t141 -62t153 63t73 158q8 97 -45 160.5t-142 63.5
q-90 0 -152.5 -63.5t-70.5 -160.5z" />
    <glyph glyph-name="Emacron" unicode="&#x112;" horiz-adv-x="1288" 
d="M602 348h639l-31 -348h-1067l129 1466h1047l-31 -346h-618l-21 -223h537l-25 -299h-536zM1198 1896l-20 -229h-727l20 229h727z" />
    <glyph glyph-name="emacron" unicode="&#x113;" horiz-adv-x="1325" 
d="M707 244q63 0 112.5 30t75.5 78l338 -55q-47 -148 -208 -243t-363 -95q-262 0 -413 159t-128 414q22 251 203 408.5t444 157.5q262 0 407 -157t123 -413q-13 -101 -14 -106h-768q12 -84 61 -131t130 -47zM532 629h379q0 77 -49 131.5t-127 54.5q-74 0 -126.5 -50
t-76.5 -136zM1165 1477l-20 -228h-727l20 228h727z" />
    <glyph glyph-name="Ebreve" unicode="&#x114;" horiz-adv-x="1288" 
d="M602 348h639l-31 -348h-1067l129 1466h1047l-31 -346h-618l-21 -223h537l-25 -299h-536zM940 1931h231q-12 -138 -112.5 -223.5t-249.5 -85.5t-233 85.5t-72 223.5h231q-4 -49 21.5 -79.5t70.5 -30.5q46 0 77.5 30.5t35.5 79.5z" />
    <glyph glyph-name="ebreve" unicode="&#x115;" horiz-adv-x="1325" 
d="M707 244q63 0 112.5 30t75.5 78l338 -55q-47 -148 -208 -243t-363 -95q-262 0 -413 159t-128 414q22 251 203 408.5t444 157.5q262 0 407 -157t123 -413q-13 -101 -14 -106h-768q12 -84 61 -131t130 -47zM532 629h379q0 77 -49 131.5t-127 54.5q-74 0 -126.5 -50
t-76.5 -136zM903 1542h234q-14 -164 -104.5 -255t-256.5 -91q-164 0 -238.5 91.5t-60.5 254.5h234q-6 -64 17.5 -104.5t66.5 -40.5t72.5 40t35.5 105z" />
    <glyph glyph-name="Edotaccent" unicode="&#x116;" horiz-adv-x="1288" 
d="M602 348h639l-31 -348h-1067l129 1466h1047l-31 -346h-618l-21 -223h537l-25 -299h-536zM809 1626q-89 0 -141.5 55t-44.5 140q7 86 69 140t152 54q91 0 143 -54t45 -140q-8 -85 -70.5 -140t-152.5 -55z" />
    <glyph glyph-name="edotaccent" unicode="&#x117;" horiz-adv-x="1325" 
d="M707 244q63 0 112.5 30t75.5 78l338 -55q-47 -148 -208 -243t-363 -95q-262 0 -413 159t-128 414q22 251 203 408.5t444 157.5q262 0 407 -157t123 -413q-13 -101 -14 -106h-768q12 -84 61 -131t130 -47zM532 629h379q0 77 -49 131.5t-127 54.5q-74 0 -126.5 -50
t-76.5 -136zM778 1217q-89 0 -142 55t-46 141t70.5 141.5t152.5 55.5t141.5 -55.5t44.5 -141.5q-7 -86 -69.5 -141t-151.5 -55z" />
    <glyph glyph-name="Eogonek" unicode="&#x118;" horiz-adv-x="1288" 
d="M915 0h-772l129 1466h1047l-31 -346h-618l-21 -223h537l-25 -299h-536l-23 -250h639l-31 -348h-73q-215 -70 -224 -197q-8 -87 64.5 -142t198.5 -56l-15 -176q-222 0 -352.5 90.5t-118.5 232.5q7 82 67 147t158 101z" />
    <glyph glyph-name="eogonek" unicode="&#x119;" horiz-adv-x="1325" 
d="M614 -39q-242 14 -378.5 170.5t-114.5 400.5q22 251 203 408.5t444 157.5q262 0 407 -157t123 -413q-13 -101 -14 -106h-768q12 -84 61 -131t130 -47q63 0 112.5 30t75.5 78l338 -55q-32 -97 -118 -175t-204 -120l11 -2q-219 -70 -228 -199q-7 -86 64 -140.5t196 -57.5
l-14 -176q-221 0 -351 90.5t-118 232.5q12 132 143 211zM532 629h379q0 77 -49 131.5t-127 54.5q-74 0 -126.5 -50t-76.5 -136z" />
    <glyph glyph-name="Ecaron" unicode="&#x11a;" horiz-adv-x="1288" 
d="M602 348h639l-31 -348h-1067l129 1466h1047l-31 -346h-618l-21 -223h537l-25 -299h-536zM977 1960l268 2l-244 -340h-380l-183 338h269l118 -193z" />
    <glyph glyph-name="ecaron" unicode="&#x11b;" horiz-adv-x="1325" 
d="M707 244q63 0 112.5 30t75.5 78l338 -55q-47 -148 -208 -243t-363 -95q-262 0 -413 159t-128 414q22 251 203 408.5t444 157.5q262 0 407 -157t123 -413q-13 -101 -14 -106h-768q12 -84 61 -131t130 -47zM532 629h379q0 77 -49 131.5t-127 54.5q-74 0 -126.5 -50
t-76.5 -136zM942 1552h266l-241 -350h-381l-180 350h266l119 -202z" />
    <glyph glyph-name="Gcircumflex" unicode="&#x11c;" horiz-adv-x="1769" 
d="M1313 588h-375l23 258h798q3 -192 -60.5 -359t-176.5 -285t-274.5 -185.5t-348.5 -67.5q-176 0 -324 59t-247.5 162t-149 249t-35.5 314q15 168 90 314t192.5 249.5t276 162.5t334.5 59t322 -63t236.5 -175t111.5 -254l-416 -76q-20 84 -100.5 137.5t-188.5 53.5
q-165 0 -281.5 -115t-131.5 -293q-15 -177 86 -292t274 -115q136 0 241 75t124 187zM909 1622h-258l232 309h381l174 -309h-258l-121 162z" />
    <glyph glyph-name="gcircumflex" unicode="&#x11d;" horiz-adv-x="1372" 
d="M109 -104l346 41q12 -65 64 -107.5t122 -42.5q91 0 152.5 63t70.5 170l10 115q-135 -141 -329 -141q-135 0 -236.5 67t-151.5 189t-36 278q22 252 168.5 411t351.5 159q199 0 303 -152l10 111h394l-93 -1051q-20 -236 -191.5 -377t-432.5 -141q-221 0 -367.5 114.5
t-154.5 293.5zM700 307q89 0 153 63t73 158q8 98 -45 162t-142 64q-90 0 -152.5 -63.5t-70.5 -162.5q-9 -96 42.5 -158.5t141.5 -62.5zM633 1202h-264l241 350h381l180 -350h-266l-117 203z" />
    <glyph glyph-name="Gbreve" unicode="&#x11e;" horiz-adv-x="1769" 
d="M1313 588h-375l23 258h798q3 -192 -60.5 -359t-176.5 -285t-274.5 -185.5t-348.5 -67.5q-176 0 -324 59t-247.5 162t-149 249t-35.5 314q15 168 90 314t192.5 249.5t276 162.5t334.5 59t322 -63t236.5 -175t111.5 -254l-416 -76q-20 84 -100.5 137.5t-188.5 53.5
q-165 0 -281.5 -115t-131.5 -293q-15 -177 86 -292t274 -115q136 0 241 75t124 187zM1176 1931h231q-12 -138 -113 -223.5t-250 -85.5t-233 85.5t-72 223.5h232q-4 -49 21.5 -79.5t70.5 -30.5q46 0 77.5 30.5t35.5 79.5z" />
    <glyph glyph-name="gbreve" unicode="&#x11f;" horiz-adv-x="1372" 
d="M109 -104l346 41q12 -65 64 -107.5t122 -42.5q91 0 152.5 63t70.5 170l10 115q-135 -141 -329 -141q-135 0 -236.5 67t-151.5 189t-36 278q22 252 168.5 411t351.5 159q199 0 303 -152l10 111h394l-93 -1051q-20 -236 -191.5 -377t-432.5 -141q-221 0 -367.5 114.5
t-154.5 293.5zM700 307q89 0 153 63t73 158q8 98 -45 162t-142 64q-90 0 -152.5 -63.5t-70.5 -162.5q-9 -96 42.5 -158.5t141.5 -62.5zM895 1542h233q-14 -165 -103.5 -255.5t-256.5 -90.5q-164 0 -237.5 91.5t-59.5 254.5h231q-4 -64 19.5 -104.5t64.5 -40.5q43 0 73 40
t36 105z" />
    <glyph glyph-name="Gdotaccent" unicode="&#x120;" horiz-adv-x="1769" 
d="M1313 588h-375l23 258h798q3 -192 -60.5 -359t-176.5 -285t-274.5 -185.5t-348.5 -67.5q-176 0 -324 59t-247.5 162t-149 249t-35.5 314q15 168 90 314t192.5 249.5t276 162.5t334.5 59t322 -63t236.5 -175t111.5 -254l-416 -76q-20 84 -100.5 137.5t-188.5 53.5
q-165 0 -281.5 -115t-131.5 -293q-15 -177 86 -292t274 -115q136 0 241 75t124 187zM1044 1626q-89 0 -140.5 55t-45.5 140q9 86 70.5 140t150.5 54q91 0 143.5 -54t45.5 -140q-8 -85 -70.5 -140t-153.5 -55z" />
    <glyph glyph-name="gdotaccent" unicode="&#x121;" horiz-adv-x="1372" 
d="M109 -104l346 41q12 -65 64 -107.5t122 -42.5q91 0 152.5 63t70.5 170l10 115q-135 -141 -329 -141q-135 0 -236.5 67t-151.5 189t-36 278q22 252 168.5 411t351.5 159q199 0 303 -152l10 111h394l-93 -1051q-20 -236 -191.5 -377t-432.5 -141q-221 0 -367.5 114.5
t-154.5 293.5zM700 307q89 0 153 63t73 158q8 98 -45 162t-142 64q-90 0 -152.5 -63.5t-70.5 -162.5q-9 -96 42.5 -158.5t141.5 -62.5zM770 1217q-88 0 -141.5 55t-46.5 141t71 141.5t152 55.5q89 0 141.5 -55.5t44.5 -141.5q-7 -86 -69.5 -141t-151.5 -55z" />
    <glyph glyph-name="Gcommaaccent" unicode="&#x122;" horiz-adv-x="1769" 
d="M1313 588h-375l23 258h798q3 -192 -60.5 -359t-176.5 -285t-274.5 -185.5t-348.5 -67.5q-176 0 -324 59t-247.5 162t-149 249t-35.5 314q15 168 90 314t192.5 249.5t276 162.5t334.5 59t322 -63t236.5 -175t111.5 -254l-416 -76q-20 84 -100.5 137.5t-188.5 53.5
q-165 0 -281.5 -115t-131.5 -293q-15 -177 86 -292t274 -115q136 0 241 75t124 187zM842 -500q-65 0 -101 47.5t-30 120.5q6 78 55.5 125t124.5 47q86 0 134 -60.5t40 -158.5q-9 -108 -71 -217.5t-148 -171.5l-152 45q60 44 101.5 107t46.5 116z" />
    <glyph glyph-name="gcommaaccent" unicode="&#x123;" horiz-adv-x="1372" 
d="M109 -104l346 41q12 -65 64 -107.5t122 -42.5q91 0 152.5 63t70.5 170l10 115q-135 -141 -329 -141q-135 0 -236.5 67t-151.5 189t-36 278q22 252 168.5 411t351.5 159q199 0 303 -152l10 111h394l-93 -1051q-20 -236 -191.5 -377t-432.5 -141q-221 0 -367.5 114.5
t-154.5 293.5zM700 307q89 0 153 63t73 158q8 98 -45 162t-142 64q-90 0 -152.5 -63.5t-70.5 -162.5q-9 -96 42.5 -158.5t141.5 -62.5zM815 1516q64 0 99.5 -47.5t29.5 -120.5q-7 -78 -57 -125t-125 -47q-86 0 -132.5 60t-37.5 159q9 109 69.5 218t145.5 171l154 -45
q-59 -44 -100.5 -107.5t-45.5 -115.5z" />
    <glyph glyph-name="Itilde" unicode="&#x128;" horiz-adv-x="722" 
d="M717 1466l-129 -1466h-445l129 1466h445zM254 1690l-174 98q39 89 125 150t178 61q50 0 96.5 -16.5t75.5 -37t61.5 -37t57.5 -16.5q65 0 114 80l175 -96q-39 -88 -128.5 -149.5t-187.5 -61.5q-52 0 -99 16.5t-74.5 37t-58 37t-53.5 16.5q-59 0 -108 -82z" />
    <glyph glyph-name="itilde" unicode="&#x129;" horiz-adv-x="641" 
d="M596 1057l-92 -1057h-393l92 1057h393zM174 1249l-174 92q39 89 125 150t180 61q62 0 118 -26.5t99 -53t74 -26.5q30 0 60 21t51 55l176 -90q-39 -90 -128.5 -151.5t-187.5 -61.5q-52 0 -99 16.5t-74.5 36.5t-58.5 36.5t-56 16.5q-59 0 -105 -76z" />
    <glyph glyph-name="Imacron" unicode="&#x12a;" horiz-adv-x="722" 
d="M713 1466l-129 -1466h-445l129 1466h445zM891 1896l-21 -229h-727l21 229h727z" />
    <glyph glyph-name="imacron" unicode="&#x12b;" horiz-adv-x="657" 
d="M616 1057l-92 -1057h-393l92 1057h393zM821 1477l-20 -228h-727l20 228h727z" />
    <glyph glyph-name="Iogonek" unicode="&#x12e;" horiz-adv-x="770" 
d="M360 0h-217l129 1466h445l-129 -1466h-6q-215 -70 -224 -197q-8 -87 64 -142t196 -56l-14 -176q-222 0 -351.5 90t-117.5 233q7 83 66.5 148t158.5 100z" />
    <glyph glyph-name="iogonek" unicode="&#x12f;" horiz-adv-x="688" 
d="M303 0h-166l92 1057h396l-93 -1057h-8q-214 -70 -223 -197q-8 -87 64.5 -142t197.5 -56l-14 -176q-222 0 -352.5 90t-118.5 233q7 82 67 147t158 101zM236 1378q7 92 75 151.5t162 59.5q97 0 154 -59.5t49 -151.5q-7 -93 -75 -153t-165 -60q-94 0 -150.5 60t-49.5 153z
" />
    <glyph glyph-name="Idotaccent" unicode="&#x130;" horiz-adv-x="731" 
d="M717 1466l-129 -1466h-445l129 1466h445zM506 1626q-89 0 -140.5 55t-43.5 140q7 86 69 140t150 54q91 0 143 -54t45 -140q-8 -85 -70.5 -140t-152.5 -55z" />
    <glyph glyph-name="dotlessi" unicode="&#x131;" horiz-adv-x="628" 
d="M604 1057l-92 -1057h-395l92 1057h395z" />
    <glyph glyph-name="IJ" unicode="&#x132;" horiz-adv-x="1716" 
d="M717 1466l-129 -1466h-445l129 1466h445zM1176 537l81 929h445l-88 -989q-20 -230 -181.5 -374t-390.5 -144q-177 0 -305 41l29 330q81 -23 178 -23q94 0 158.5 63t73.5 167z" />
    <glyph glyph-name="ij" unicode="&#x133;" horiz-adv-x="1308" 
d="M627 1057l-92 -1057h-396l92 1057h396zM772 -20l94 1077h394l-99 -1129q-17 -186 -135 -298.5t-295 -112.5q-145 0 -254 37l29 303q67 -13 115 -13q63 2 105 39t46 97zM238 1378q7 92 75 151.5t164 59.5q95 0 151.5 -59.5t49.5 -151.5q-7 -93 -74.5 -153t-163.5 -60
t-152.5 60t-49.5 153zM872 1378q7 92 74.5 151.5t163.5 59.5t152.5 -59t48.5 -152q-7 -94 -74 -153.5t-164 -59.5q-95 0 -151.5 59.5t-49.5 153.5z" />
    <glyph glyph-name="Kcommaaccent" unicode="&#x136;" horiz-adv-x="1542" 
d="M272 1466h445l-51 -567l464 567h523l-604 -698l481 -768h-524l-363 623l-55 -623h-445zM721 -498q-64 0 -100.5 47.5t-30.5 120.5q6 77 56.5 124.5t125.5 47.5q85 0 133 -60.5t39 -158.5q-9 -109 -70 -219t-147 -170l-154 43q60 46 102 109.5t46 115.5z" />
    <glyph glyph-name="kcommaaccent" unicode="&#x137;" horiz-adv-x="1300" 
d="M250 1528h395l-74 -846l340 375h461l-467 -502l385 -555h-465l-276 424l-37 -424h-395zM590 -494q-65 0 -101 47.5t-30 120.5q6 77 55.5 124.5t124.5 47.5q86 0 134.5 -60.5t39.5 -158.5q-9 -109 -70 -218.5t-147 -170.5l-154 45q60 44 101.5 107t46.5 116z" />
    <glyph glyph-name="Lacute" unicode="&#x139;" horiz-adv-x="1191" 
d="M1124 0h-981l129 1466h445l-96 -1089h536zM954 1931l-327 -305h-291l262 305h356z" />
    <glyph glyph-name="lacute" unicode="&#x13a;" horiz-adv-x="843" 
d="M645 1528l-133 -1528h-395l133 1528h395zM897 1952l-326 -334h-284l254 334h356z" />
    <glyph glyph-name="Lcommaaccent" unicode="&#x13b;" horiz-adv-x="1191" 
d="M1124 0h-981l129 1466h445l-96 -1089h536zM563 -498q-65 0 -101 47.5t-30 120.5q6 77 55.5 124.5t124.5 47.5q86 0 134.5 -60.5t39.5 -158.5q-9 -109 -71 -219t-148 -170l-151 43q60 46 101 109t46 116z" />
    <glyph glyph-name="lcommaaccent" unicode="&#x13c;" horiz-adv-x="634" 
d="M645 1528l-133 -1528h-395l133 1528h395zM242 -498q-64 0 -100.5 47.5t-30.5 120.5q6 77 55.5 123.5t124.5 46.5q87 0 135 -59.5t39 -157.5q-9 -109 -70 -219t-147 -170l-154 43q61 46 102.5 108.5t45.5 116.5z" />
    <glyph glyph-name="Lcaron" unicode="&#x13d;" horiz-adv-x="1202" 
d="M1124 0h-981l129 1466h445l-96 -1089h536zM944 1190q-65 0 -101 47t-30 121q6 76 55.5 123t124.5 47q86 0 134.5 -60t39.5 -157q-9 -109 -71 -219t-148 -170l-151 43q60 47 101.5 109.5t45.5 115.5z" />
    <glyph glyph-name="lcaron" unicode="&#x13e;" horiz-adv-x="974" 
d="M645 1528l-133 -1528h-395l133 1528h395zM872 1184q-65 0 -101 47.5t-30 120.5q6 77 56 124.5t125 47.5q86 0 134 -60.5t40 -158.5q-9 -109 -71 -218.5t-148 -171.5l-154 46q60 44 102.5 107.5t46.5 115.5z" />
    <glyph glyph-name="Lslash" unicode="&#x141;" horiz-adv-x="1067" 
d="M72 608l221 131l63 727h445l-41 -450l491 291l-28 -328l-492 -289l-26 -313h536l-33 -377h-981l37 412l-221 -131z" />
    <glyph glyph-name="lslash" unicode="&#x142;" horiz-adv-x="1011" 
d="M768 752l-66 -752h-393l43 500l-276 -168l28 327l277 168l61 701h394l-39 -449l276 168l-29 -327z" />
    <glyph glyph-name="Nacute" unicode="&#x143;" horiz-adv-x="1665" 
d="M735 1466l420 -931l82 931h414l-129 -1466h-463l-420 930l-82 -930h-414l129 1466h463zM1427 1931l-325 -305h-293l262 305h356z" />
    <glyph glyph-name="nacute" unicode="&#x144;" 
d="M924 1098q162 0 255 -118t78 -302l-59 -678h-395l51 588q6 74 -27.5 120t-97.5 46q-65 0 -112.5 -48t-53.5 -124l-51 -582h-395l92 1057h381l-12 -152q67 90 155.5 141.5t190.5 51.5zM909 1552h351l-328 -350h-277z" />
    <glyph glyph-name="Ncommaaccent" unicode="&#x145;" horiz-adv-x="1665" 
d="M735 1466l420 -931l82 931h414l-129 -1466h-463l-420 930l-82 -930h-414l129 1466h463zM768 -498q-65 0 -101 46.5t-30 119.5q6 78 55.5 125t124.5 47q86 0 134 -60.5t40 -158.5q-9 -108 -71 -217.5t-148 -169.5l-151 43q59 45 101 108t46 117z" />
    <glyph glyph-name="ncommaaccent" unicode="&#x146;" 
d="M924 1098q162 0 255 -118t78 -302l-59 -678h-395l51 588q6 74 -27.5 120t-97.5 46q-65 0 -112.5 -48t-53.5 -124l-51 -582h-395l92 1057h381l-12 -152q67 90 155.5 141.5t190.5 51.5zM590 -498q-65 0 -101 46.5t-30 119.5q6 78 55.5 125t124.5 47q86 0 134 -60.5
t40 -158.5q-9 -108 -70 -217.5t-147 -169.5l-154 43q60 44 102 107.5t46 117.5z" />
    <glyph glyph-name="Ncaron" unicode="&#x147;" horiz-adv-x="1665" 
d="M735 1466l420 -931l82 931h414l-129 -1466h-463l-420 930l-82 -930h-414l129 1466h463zM1141 1960l266 2l-244 -340h-381l-182 338h268l119 -193z" />
    <glyph glyph-name="ncaron" unicode="&#x148;" 
d="M924 1098q162 0 255 -118t78 -302l-59 -678h-395l51 588q6 74 -27.5 120t-97.5 46q-65 0 -112.5 -48t-53.5 -124l-51 -582h-395l92 1057h381l-12 -152q67 90 155.5 141.5t190.5 51.5zM979 1552h266l-241 -350h-381l-181 350h267l118 -202z" />
    <glyph glyph-name="Omacron" unicode="&#x14c;" horiz-adv-x="1806" 
d="M143 733q20 231 138.5 409.5t315 277t439.5 98.5t422.5 -98.5t266.5 -277t67 -409.5q-15 -173 -88 -319t-189 -248.5t-275 -159.5t-341 -57t-331 57t-247.5 159.5t-145.5 248.5t-32 319zM588 733q-15 -181 80 -293t264 -114q170 0 285.5 113t130.5 294
q17 181 -78.5 294.5t-265.5 113.5q-169 0 -284 -113t-132 -295zM1434 1896l-21 -229h-727l21 229h727z" />
    <glyph glyph-name="omacron" unicode="&#x14d;" horiz-adv-x="1345" 
d="M1319 528q-23 -255 -202.5 -412t-446.5 -157q-269 0 -420.5 157t-128.5 412q22 255 201 412.5t448 157.5q267 0 419 -157.5t130 -412.5zM926 528q8 100 -44 163t-143 63q-92 0 -153.5 -63t-69.5 -163q-9 -100 41.5 -162.5t142.5 -62.5q91 0 154 62.5t72 162.5zM1165 1477
l-20 -228h-727l20 228h727z" />
    <glyph glyph-name="Obreve" unicode="&#x14e;" horiz-adv-x="1806" 
d="M143 733q20 231 138.5 409.5t315 277t439.5 98.5t422.5 -98.5t266.5 -277t67 -409.5q-15 -173 -88 -319t-189 -248.5t-275 -159.5t-341 -57t-331 57t-247.5 159.5t-145.5 248.5t-32 319zM588 733q-15 -181 80 -293t264 -114q170 0 285.5 113t130.5 294
q17 181 -78.5 294.5t-265.5 113.5q-169 0 -284 -113t-132 -295zM1176 1931h231q-12 -138 -113 -223.5t-250 -85.5t-233 85.5t-72 223.5h232q-3 -49 22.5 -79.5t69.5 -30.5q46 0 77.5 30.5t35.5 79.5z" />
    <glyph glyph-name="obreve" unicode="&#x14f;" horiz-adv-x="1345" 
d="M1319 528q-23 -255 -202.5 -412t-446.5 -157q-269 0 -420.5 157t-128.5 412q22 255 201 412.5t448 157.5q267 0 419 -157.5t130 -412.5zM926 528q8 100 -44 163t-143 63q-92 0 -153.5 -63t-69.5 -163q-9 -100 41.5 -162.5t142.5 -62.5q91 0 154 62.5t72 162.5zM905 1542
h232q-14 -165 -103.5 -255.5t-255.5 -90.5q-165 0 -239 91t-60 255h234q-6 -64 17.5 -104.5t66.5 -40.5q41 0 71.5 40.5t36.5 104.5z" />
    <glyph glyph-name="Ohungarumlaut" unicode="&#x150;" horiz-adv-x="1806" 
d="M143 733q20 231 138.5 409.5t315 277t439.5 98.5t422.5 -98.5t266.5 -277t67 -409.5q-15 -173 -88 -319t-189 -248.5t-275 -159.5t-341 -57t-331 57t-247.5 159.5t-145.5 248.5t-32 319zM588 733q-15 -181 80 -293t264 -114q170 0 285.5 113t130.5 294
q17 181 -78.5 294.5t-265.5 113.5q-169 0 -284 -113t-132 -295zM922 1931h335l-282 -309h-270zM1360 1931h334l-318 -309h-268z" />
    <glyph glyph-name="ohungarumlaut" unicode="&#x151;" horiz-adv-x="1343" 
d="M1317 528q-23 -255 -202.5 -412t-446.5 -157q-269 0 -420.5 157t-128.5 412q22 255 201 412.5t448 157.5q267 0 419 -157.5t130 -412.5zM924 528q8 100 -44 163t-143 63t-153.5 -63t-69.5 -163q-9 -100 42 -162.5t142 -62.5t154 62.5t72 162.5zM655 1548h349l-299 -346
h-259zM1094 1548h360l-346 -346h-270z" />
    <glyph glyph-name="OE" unicode="&#x152;" horiz-adv-x="2150" 
d="M143 733q15 175 79.5 319t170 246t253.5 158.5t325 56.5q128 0 243 -47h965l-31 -346h-538l-21 -227h457l-27 -299h-456l-21 -246h559l-30 -348h-984q-116 -45 -253 -45q-236 0 -400 97t-237.5 272.5t-53.5 408.5zM1118 395l60 676q-73 64 -195 64q-157 0 -268.5 -113
t-126.5 -289q-15 -177 75 -289t246 -112q120 0 209 63z" />
    <glyph glyph-name="oe" unicode="&#x153;" horiz-adv-x="2131" 
d="M1509 244q63 0 115.5 30.5t79.5 77.5l317 -73q-53 -140 -204 -230t-334 -90q-269 0 -396 168q-149 -168 -417 -168q-269 0 -420.5 157t-128.5 412q22 255 201 412.5t448 157.5q265 0 389 -168q155 168 430 168q252 0 395 -157.5t121 -412.5q-13 -101 -14 -106l-766 2
q11 -85 59.5 -132.5t124.5 -47.5zM926 528q8 100 -44 163t-143 63q-92 0 -153.5 -63t-69.5 -163q-9 -100 41.5 -162.5t142.5 -62.5q91 0 154 62.5t72 162.5zM1339 629h379q0 77 -49 131.5t-127 54.5q-74 0 -126.5 -50t-76.5 -136z" />
    <glyph glyph-name="Racute" unicode="&#x154;" horiz-adv-x="1613" 
d="M143 0l129 1466h748q270 0 424.5 -140.5t134.5 -369.5q-13 -145 -104 -255.5t-236 -165.5l297 -535h-489l-213 479h-205l-41 -479h-445zM907 1149h-219l-33 -383h219q104 0 179 52t82 138q7 89 -58 141t-170 52zM1386 1931l-327 -305h-293l262 305h358z" />
    <glyph glyph-name="racute" unicode="&#x155;" horiz-adv-x="954" 
d="M870 1098q47 0 117 -25l-31 -350q-97 43 -182 43q-87 0 -146.5 -61t-68.5 -160l-47 -545h-395l92 1057h379l-13 -133q52 79 131.5 126.5t163.5 47.5zM707 1552h350l-330 -350h-276z" />
    <glyph glyph-name="Rcommaaccent" unicode="&#x156;" horiz-adv-x="1613" 
d="M143 0l129 1466h748q270 0 424.5 -140.5t134.5 -369.5q-13 -145 -104 -255.5t-236 -165.5l297 -535h-489l-213 479h-205l-41 -479h-445zM907 1149h-219l-33 -383h219q104 0 179 52t82 138q7 89 -58 141t-170 52zM741 -500q-64 0 -99.5 47.5t-29.5 120.5q6 78 56 125
t125 47q86 0 133 -60t39 -159q-9 -109 -70 -218t-147 -169l-154 43q60 44 101 107t46 116z" />
    <glyph glyph-name="rcommaaccent" unicode="&#x157;" horiz-adv-x="923" 
d="M870 1098q47 0 117 -25l-31 -350q-97 43 -182 43q-87 0 -146.5 -61t-68.5 -160l-47 -545h-395l92 1057h379l-13 -133q52 79 131.5 126.5t163.5 47.5zM250 -498q-64 0 -99.5 46.5t-29.5 119.5q6 78 55.5 125t124.5 47q86 0 133 -60t39 -159q-9 -108 -70 -217.5
t-147 -169.5l-154 43q60 44 102 107.5t46 117.5z" />
    <glyph glyph-name="Rcaron" unicode="&#x158;" horiz-adv-x="1613" 
d="M143 0l129 1466h748q270 0 424.5 -140.5t134.5 -369.5q-13 -145 -104 -255.5t-236 -165.5l297 -535h-489l-213 479h-205l-41 -479h-445zM907 1149h-219l-33 -383h219q104 0 179 52t82 138q7 89 -58 141t-170 52zM1092 1960l268 2l-244 -340h-381l-182 338h268l119 -193z
" />
    <glyph glyph-name="rcaron" unicode="&#x159;" horiz-adv-x="923" 
d="M870 1098q47 0 117 -25l-31 -350q-97 43 -182 43q-87 0 -146.5 -61t-68.5 -160l-47 -545h-395l92 1057h379l-13 -133q52 79 131.5 126.5t163.5 47.5zM776 1552h266l-243 -350h-381l-180 350h266l119 -202z" />
    <glyph glyph-name="Sacute" unicode="&#x15a;" horiz-adv-x="1486" 
d="M735 -51q-186 0 -328.5 68.5t-215 191t-58.5 274.5h385q-8 -94 65 -155.5t193 -61.5q97 0 160.5 41t69.5 103q4 41 -23.5 68.5t-76.5 43t-113.5 26.5t-136 23t-142 29t-133.5 48.5t-109.5 76.5t-70 119t-15.5 170q20 226 208 365t466 139q182 0 321.5 -65.5t211 -182.5
t59.5 -264h-371q7 84 -60.5 139t-176.5 55q-94 0 -155 -37t-66 -96q-4 -39 23.5 -65t76.5 -40.5t113.5 -25t135.5 -22.5t141.5 -28.5t133 -48.5t109 -77t69.5 -119t15 -170q-13 -153 -107.5 -272t-250.5 -184.5t-347 -65.5zM1323 1931l-328 -305h-290l262 305h356z" />
    <glyph glyph-name="sacute" unicode="&#x15b;" horiz-adv-x="1175" 
d="M573 -49q-218 0 -350 111.5t-117 283.5h320q-6 -61 44.5 -101t133.5 -40q65 0 111 28.5t47 69.5q3 33 -23.5 53.5t-71.5 27.5t-103 15.5t-119 15t-118 27.5t-100 53t-66 92t-16 142q17 164 163.5 270.5t353.5 106.5q220 0 353.5 -105t119.5 -266l-332 2q2 50 -44 82.5
t-118 32.5q-58 0 -99 -26t-44 -64q-3 -34 32.5 -55t95 -31.5t131.5 -20t143 -27.5t129 -48t90.5 -88t25.5 -140q-15 -176 -174.5 -288.5t-397.5 -112.5zM780 1552h353l-330 -350h-277z" />
    <glyph glyph-name="Scircumflex" unicode="&#x15c;" horiz-adv-x="1486" 
d="M735 -51q-186 0 -328.5 68.5t-215 191t-58.5 274.5h385q-8 -94 65 -155.5t193 -61.5q97 0 160.5 41t69.5 103q4 41 -23.5 68.5t-76.5 43t-113.5 26.5t-136 23t-142 29t-133.5 48.5t-109.5 76.5t-70 119t-15.5 170q20 226 208 365t466 139q182 0 321.5 -65.5t211 -182.5
t59.5 -264h-371q7 84 -60.5 139t-176.5 55q-94 0 -155 -37t-66 -96q-4 -39 23.5 -65t76.5 -40.5t113.5 -25t135.5 -22.5t141.5 -28.5t133 -48.5t109 -77t69.5 -119t15 -170q-13 -153 -107.5 -272t-250.5 -184.5t-347 -65.5zM737 1622h-258l232 309h381l174 -309h-258
l-121 162z" />
    <glyph glyph-name="scircumflex" unicode="&#x15d;" horiz-adv-x="1175" 
d="M573 -49q-218 0 -350 111.5t-117 283.5h320q-6 -61 44.5 -101t133.5 -40q65 0 111 28.5t47 69.5q3 33 -23.5 53.5t-71.5 27.5t-103 15.5t-119 15t-118 27.5t-100 53t-66 92t-16 142q17 164 163.5 270.5t353.5 106.5q220 0 353.5 -105t119.5 -266l-332 2q2 50 -44 82.5
t-118 32.5q-58 0 -99 -26t-44 -64q-3 -34 32.5 -55t95 -31.5t131.5 -20t143 -27.5t129 -48t90.5 -88t25.5 -140q-15 -176 -174.5 -288.5t-397.5 -112.5zM549 1202h-264l241 350h381l180 -350h-266l-116 203z" />
    <glyph glyph-name="Scedilla" unicode="&#x15e;" horiz-adv-x="1486" 
d="M645 -256h-104l57 215q-226 35 -355 179t-110 345h385q-8 -94 65 -155.5t193 -61.5q97 0 160.5 41t69.5 103q4 41 -23.5 68.5t-76.5 43t-113.5 26.5t-136 23t-142 29t-133.5 48.5t-109.5 76.5t-70 119t-15.5 170q20 226 208 365t466 139q182 0 321.5 -65.5t211 -182.5
t59.5 -264h-371q7 84 -60.5 139t-176.5 55q-94 0 -155 -37t-66 -96q-4 -39 23.5 -65t76.5 -40.5t113.5 -25t135.5 -22.5t141.5 -28.5t133 -48.5t109 -77t69.5 -119t15 -170q-19 -219 -197 -362t-446 -158l-29 -109q94 0 146 -53t44 -141q-7 -91 -85.5 -146t-198.5 -55
q-77 0 -136 37t-79 98l114 82q10 -31 36.5 -49t58.5 -18q33 0 55 20t25 51q3 34 -26 55t-77 21z" />
    <glyph glyph-name="scedilla" unicode="&#x15f;" horiz-adv-x="1175" 
d="M541 -256h-105l56 213q-185 20 -292 127t-94 262h320q-6 -61 44.5 -101t133.5 -40q65 0 111 28.5t47 69.5q3 33 -23.5 53.5t-71.5 27.5t-103 15.5t-119 15t-118 27.5t-100 53t-66 92t-16 142q17 164 163.5 270.5t353.5 106.5q220 0 353.5 -105t119.5 -266l-332 2
q2 50 -44 82.5t-118 32.5q-58 0 -99 -26t-44 -64q-3 -34 32.5 -55t95 -31.5t131.5 -20t143 -27.5t129 -48t90.5 -88t25.5 -140q-13 -152 -136 -258.5t-315 -134.5l-30 -117q94 0 146 -53t44 -141q-7 -91 -86 -146t-199 -55q-77 0 -136 37t-79 98l115 82q10 -31 36 -49
t58 -18q33 0 55 20t25 51q3 34 -25 55t-77 21z" />
    <glyph glyph-name="Scaron" unicode="&#x160;" horiz-adv-x="1486" 
d="M735 -51q-186 0 -328.5 68.5t-215 191t-58.5 274.5h385q-8 -94 65 -155.5t193 -61.5q97 0 160.5 41t69.5 103q4 41 -23.5 68.5t-76.5 43t-113.5 26.5t-136 23t-142 29t-133.5 48.5t-109.5 76.5t-70 119t-15.5 170q20 226 208 365t466 139q182 0 321.5 -65.5t211 -182.5
t59.5 -264h-371q7 84 -60.5 139t-176.5 55q-94 0 -155 -37t-66 -96q-4 -39 23.5 -65t76.5 -40.5t113.5 -25t135.5 -22.5t141.5 -28.5t133 -48.5t109 -77t69.5 -119t15 -170q-13 -153 -107.5 -272t-250.5 -184.5t-347 -65.5zM1034 1960l269 2l-244 -340h-381l-182 338h268
l119 -193z" />
    <glyph glyph-name="scaron" unicode="&#x161;" horiz-adv-x="1175" 
d="M573 -49q-218 0 -350 111.5t-117 283.5h320q-6 -61 44.5 -101t133.5 -40q65 0 111 28.5t47 69.5q3 33 -23.5 53.5t-71.5 27.5t-103 15.5t-119 15t-118 27.5t-100 53t-66 92t-16 142q17 164 163.5 270.5t353.5 106.5q220 0 353.5 -105t119.5 -266l-332 2q2 50 -44 82.5
t-118 32.5q-58 0 -99 -26t-44 -64q-3 -34 32.5 -55t95 -31.5t131.5 -20t143 -27.5t129 -48t90.5 -88t25.5 -140q-15 -176 -174.5 -288.5t-397.5 -112.5zM821 1552h266l-241 -350h-383l-178 350h264l121 -202z" />
    <glyph glyph-name="Tcommaaccent" unicode="&#x162;" horiz-adv-x="1323" 
d="M537 1104h-414l33 362h1269l-32 -362h-414l-96 -1104h-443zM592 -498q-64 0 -100.5 47t-30.5 119q6 78 56.5 125t125.5 47q85 0 132.5 -60.5t39.5 -158.5q-9 -108 -70 -217.5t-147 -169.5l-154 43q60 44 102 107.5t46 117.5z" />
    <glyph glyph-name="tcommaaccent" unicode="&#x163;" horiz-adv-x="880" 
d="M223 387l33 377h-135l24 293h152l63 276h338l-24 -276h221l-25 -293h-221l-28 -330q-6 -60 24.5 -96.5t87.5 -36.5q51 0 101 12l-27 -317q-119 -37 -242 -37q-170 0 -264.5 120t-77.5 308zM449 -498q-64 0 -101 47t-31 119q6 78 57 125t126 47q85 0 132.5 -60.5
t39.5 -158.5q-9 -108 -70 -217.5t-147 -169.5l-154 43q60 44 102 107.5t46 117.5z" />
    <glyph glyph-name="Tcaron" unicode="&#x164;" horiz-adv-x="1323" 
d="M537 1104h-414l33 362h1269l-32 -362h-414l-96 -1104h-443zM969 1960l268 2l-244 -340h-381l-182 338h268l119 -193z" />
    <glyph glyph-name="tcaron" unicode="&#x165;" horiz-adv-x="997" 
d="M223 387l33 377h-135l24 293h152l63 276h338l-24 -276h221l-25 -293h-221l-28 -330q-6 -60 24.5 -96.5t87.5 -36.5q51 0 101 12l-27 -317q-119 -37 -242 -37q-170 0 -264.5 120t-77.5 308zM893 1419q-65 0 -101 46.5t-30 119.5q6 78 55.5 125t124.5 47q86 0 134 -60.5
t40 -158.5q-9 -108 -71 -217.5t-148 -169.5l-154 43q60 45 103 108t47 117z" />
    <glyph glyph-name="Utilde" unicode="&#x168;" horiz-adv-x="1636" 
d="M1122 631l74 835h444l-75 -852q-17 -195 -117 -346.5t-264.5 -235t-368.5 -83.5q-310 0 -486.5 184.5t-150.5 480.5l76 852h444l-73 -835q-11 -122 47 -210.5t176 -94.5q110 0 186 85t88 220zM707 1690l-175 98q39 89 125.5 150t178.5 61q50 0 96.5 -16.5t75.5 -37
t61 -37t57 -16.5q31 0 62 22t53 58l174 -96q-39 -88 -128 -149.5t-187 -61.5q-52 0 -99 16.5t-74.5 37t-58 37t-53.5 16.5q-59 0 -108 -82z" />
    <glyph glyph-name="utilde" unicode="&#x169;" 
d="M463 -41q-162 0 -255.5 118.5t-78.5 303.5l59 676h396l-52 -586q-6 -76 27.5 -122t97.5 -46q65 0 112.5 49t53.5 125l51 580h396l-92 -1057h-379l12 152q-68 -91 -157.5 -142t-190.5 -51zM504 1249l-174 92q39 89 125 150t180 61q61 0 117 -26.5t99.5 -53t74.5 -26.5
q30 0 59.5 21t50.5 55l176 -92q-39 -88 -128.5 -149.5t-188.5 -61.5q-51 0 -98 16.5t-74.5 36.5t-58.5 36.5t-56 16.5q-58 0 -104 -76z" />
    <glyph glyph-name="Umacron" unicode="&#x16a;" horiz-adv-x="1636" 
d="M1122 631l74 835h444l-75 -852q-17 -195 -117 -346.5t-264.5 -235t-368.5 -83.5q-310 0 -486.5 184.5t-150.5 480.5l76 852h444l-73 -835q-11 -122 47 -210.5t176 -94.5q110 0 186 85t88 220zM1348 1896l-21 -229h-727l21 229h727z" />
    <glyph glyph-name="umacron" unicode="&#x16b;" 
d="M463 -41q-162 0 -255.5 118.5t-78.5 303.5l59 676h396l-52 -586q-6 -76 27.5 -122t97.5 -46q65 0 112.5 49t53.5 125l51 580h396l-92 -1057h-379l12 152q-68 -91 -157.5 -142t-190.5 -51zM1128 1477l-20 -230h-727l20 230h727z" />
    <glyph glyph-name="Ubreve" unicode="&#x16c;" horiz-adv-x="1636" 
d="M1122 631l74 835h444l-75 -852q-17 -195 -117 -346.5t-264.5 -235t-368.5 -83.5q-310 0 -486.5 184.5t-150.5 480.5l76 852h444l-73 -835q-11 -122 47 -210.5t176 -94.5q110 0 186 85t88 220zM1090 1931h233q-12 -138 -112.5 -223.5t-249.5 -85.5q-150 0 -235 85.5
t-73 223.5h234q-4 -49 21 -79.5t71 -30.5q45 0 76.5 30.5t34.5 79.5z" />
    <glyph glyph-name="ubreve" unicode="&#x16d;" 
d="M463 -41q-162 0 -255.5 118.5t-78.5 303.5l59 676h396l-52 -586q-6 -76 27.5 -122t97.5 -46q65 0 112.5 49t53.5 125l51 580h396l-92 -1057h-379l12 152q-68 -91 -157.5 -142t-190.5 -51zM868 1540h234q-14 -163 -104.5 -253.5t-256.5 -90.5t-239.5 90.5t-59.5 253.5h234
q-6 -64 17.5 -103.5t66.5 -39.5t72.5 39t35.5 104z" />
    <glyph glyph-name="Uring" unicode="&#x16e;" horiz-adv-x="1636" 
d="M1122 631l74 835h444l-75 -852q-17 -195 -117 -346.5t-264.5 -235t-368.5 -83.5q-310 0 -486.5 184.5t-150.5 480.5l76 852h444l-73 -835q-11 -122 47 -210.5t176 -94.5q110 0 186 85t88 220zM958 1589q-144 0 -225.5 80t-70.5 209q12 129 108 209t240 80q143 0 224 -80
t69 -209q-10 -129 -106 -209t-239 -80zM993 1989q-51 0 -83.5 -30.5t-37.5 -80.5t23.5 -80.5t79.5 -30.5q47 0 80 31t37 80t-23.5 80t-75.5 31z" />
    <glyph glyph-name="uring" unicode="&#x16f;" 
d="M463 -41q-162 0 -255.5 118.5t-78.5 303.5l59 676h396l-52 -586q-6 -76 27.5 -122t97.5 -46q65 0 112.5 49t53.5 125l51 580h396l-92 -1057h-379l12 152q-68 -91 -157.5 -142t-190.5 -51zM739 1159q-144 0 -226 80t-71 209q10 129 105.5 208t240.5 79t226.5 -79
t70.5 -208t-106 -209t-240 -80zM772 1556q-50 0 -82.5 -29.5t-36.5 -78.5t23.5 -80t77.5 -31q49 0 82 30.5t38 80.5q4 49 -24 78.5t-78 29.5z" />
    <glyph glyph-name="Uhungarumlaut" unicode="&#x170;" horiz-adv-x="1636" 
d="M1122 631l74 835h444l-75 -852q-17 -195 -117 -346.5t-264.5 -235t-368.5 -83.5q-310 0 -486.5 184.5t-150.5 480.5l76 852h444l-73 -835q-11 -122 47 -210.5t176 -94.5q110 0 186 85t88 220zM829 1931h336l-284 -309h-271zM1266 1931h336l-318 -309h-270z" />
    <glyph glyph-name="uhungarumlaut" unicode="&#x171;" horiz-adv-x="1265" 
d="M463 -41q-162 0 -255.5 118.5t-78.5 303.5l59 676h396l-52 -586q-6 -76 27.5 -122t97.5 -46q65 0 112.5 49t53.5 125l51 580h396l-92 -1057h-379l12 152q-68 -91 -157.5 -142t-190.5 -51zM596 1548h346l-297 -348h-260zM1032 1548h363l-346 -346h-271z" />
    <glyph glyph-name="Uogonek" unicode="&#x172;" horiz-adv-x="1636" 
d="M745 -49q-280 22 -436 203t-131 460l76 852h444l-73 -835q-11 -122 47 -210.5t176 -94.5q110 0 186 85t88 220l74 835h444l-75 -852q-22 -255 -182.5 -431t-409.5 -220q-129 -65 -135 -162q-8 -86 64 -140.5t198 -57.5l-15 -176q-222 0 -352.5 90.5t-118.5 232.5
q12 124 131 201z" />
    <glyph glyph-name="uogonek" unicode="&#x173;" horiz-adv-x="1353" 
d="M938 0h-139l12 152q-68 -91 -157.5 -142t-190.5 -51q-162 0 -255.5 118.5t-78.5 303.5l59 676h396l-52 -586q-6 -76 27.5 -122t97.5 -46q65 0 112.5 49t53.5 125l51 580h396l-92 -1057h-19q-210 -69 -219 -195q-8 -87 64.5 -142t197.5 -56l-14 -176q-222 0 -352.5 89.5
t-118.5 231.5q7 82 66 147t155 101z" />
    <glyph glyph-name="Wcircumflex" unicode="&#x174;" horiz-adv-x="2529" 
d="M1800 391l369 1075h446l-522 -1466h-614l-136 885l-292 -885h-613l-266 1466h449l182 -1075l373 1075h440zM1270 1622h-258l231 309h381l174 -309h-258l-121 162z" />
    <glyph glyph-name="wcircumflex" unicode="&#x175;" horiz-adv-x="1933" 
d="M338 0l-207 1057h408l110 -660l240 660h340l141 -670l225 670h394l-394 -1057h-485l-92 596l-193 -596h-487zM936 1202h-264l239 350h383l181 -350h-267l-116 203z" />
    <glyph glyph-name="Ycircumflex" unicode="&#x176;" horiz-adv-x="1482" 
d="M567 500l-422 966h463l217 -585l299 585h471l-583 -966l-43 -500h-445zM748 1622h-259l232 309h381l174 -309h-256l-123 162z" />
    <glyph glyph-name="ycircumflex" unicode="&#x177;" horiz-adv-x="1298" 
d="M170 -444l25 276q40 -16 110 -16q89 0 142.5 37.5t91.5 128.5l-428 1075h428l192 -582l236 582h405l-498 -1106q-102 -226 -216 -330t-265 -104q-123 0 -223 39zM618 1202h-264l240 350h383l180 -350h-266l-117 203z" />
    <glyph glyph-name="Ydieresis" unicode="&#x178;" horiz-adv-x="1482" 
d="M567 500l-422 966h463l217 -585l299 585h471l-583 -966l-43 -500h-445zM612 1612q-84 0 -132.5 52.5t-41.5 135.5t65.5 136t141.5 53t131 -53t41 -136t-64.5 -135.5t-140.5 -52.5zM1155 1612q-84 0 -132.5 52.5t-41.5 135.5t65.5 136t141.5 53t131 -53t41 -136
t-64.5 -135.5t-140.5 -52.5z" />
    <glyph glyph-name="Zacute" unicode="&#x179;" horiz-adv-x="1384" 
d="M113 291l694 831h-600l31 344h1167l-27 -288l-671 -834h620l-31 -344h-1208zM1284 1931l-326 -305h-292l262 305h356z" />
    <glyph glyph-name="zacute" unicode="&#x17a;" horiz-adv-x="1177" 
d="M612 743h-438l27 314h960l-22 -256l-465 -488h442l-26 -313h-1002l23 256zM786 1552h351l-330 -350h-277z" />
    <glyph glyph-name="Zdotaccent" unicode="&#x17b;" horiz-adv-x="1384" 
d="M113 291l694 831h-600l31 344h1167l-27 -288l-671 -834h620l-31 -344h-1208zM834 1626q-89 0 -142 55t-45 140q7 86 69 140t152 54q91 0 143.5 -54t45.5 -140q-8 -85 -70.5 -140t-152.5 -55z" />
    <glyph glyph-name="zdotaccent" unicode="&#x17c;" horiz-adv-x="1177" 
d="M612 743h-438l27 314h960l-22 -256l-465 -488h442l-26 -313h-1002l23 256zM696 1221q-89 0 -141 55t-45 141q6 85 69 141t152 56t142 -56t47 -141q-7 -86 -70.5 -141t-153.5 -55z" />
    <glyph glyph-name="Zcaron" unicode="&#x17d;" horiz-adv-x="1384" 
d="M113 291l694 831h-600l31 344h1167l-27 -288l-671 -834h620l-31 -344h-1208zM997 1960l267 2l-244 -340h-381l-182 338h268l119 -193z" />
    <glyph glyph-name="zcaron" unicode="&#x17e;" horiz-adv-x="1177" 
d="M612 743h-438l27 314h960l-22 -256l-465 -488h442l-26 -313h-1002l23 256zM860 1552h266l-241 -350h-381l-180 350h266l119 -202z" />
    <glyph glyph-name="Aacutering" unicode="&#x1fa;" horiz-adv-x="1601" 
d="M1253 1466l330 -1466h-465l-45 221h-508l-82 -221h-465l588 1466h647zM897 1092l-217 -560h338zM932 1509q-127 0 -200 69.5t-64 182.5q10 114 94.5 183t212.5 69t201 -69.5t63 -182.5q-9 -112 -94 -182t-213 -70zM961 1835q-34 0 -55.5 -20t-24.5 -54q-3 -33 15.5 -53
t51.5 -20q32 0 54.5 20.5t25.5 52.5q3 33 -15.5 53.5t-51.5 20.5zM1380 2281l-272 -227h-291l238 227h325z" />
    <glyph glyph-name="aacutering" unicode="&#x1fb;" horiz-adv-x="1392" 
d="M961 922l12 135h393l-92 -1057h-393l12 135q-65 -84 -153 -130t-189 -46q-215 0 -334 157.5t-96 411.5q22 254 168.5 412t361.5 158q205 0 310 -176zM700 303q89 0 153 64t73 161q8 98 -45 162t-142 64q-90 0 -152.5 -63.5t-70.5 -162.5q-9 -97 42.5 -161t141.5 -64z
M784 1141q-127 0 -200 69.5t-64 182.5q11 113 95.5 182.5t211.5 69.5q128 0 200.5 -70t62.5 -182q-9 -112 -93.5 -182t-212.5 -70zM813 1466q-34 0 -56.5 -20.5t-25.5 -52.5q-2 -33 17 -53.5t51 -20.5q33 0 56 21t24 53q3 32 -15.5 52.5t-50.5 20.5zM1268 1925l-244 -229
h-276l208 229h312z" />
    <glyph glyph-name="AEacute" unicode="&#x1fc;" horiz-adv-x="2097" 
d="M2050 348l-31 -348h-956l18 211h-452l-119 -211h-492l850 1466h1260l-31 -346h-541l-20 -227h459l-27 -299h-459l-20 -246h561zM1108 510l57 659l-370 -659h313zM1780 1894l-326 -303h-293l260 303h359z" />
    <glyph glyph-name="aeacute" unicode="&#x1fd;" horiz-adv-x="2138" 
d="M2114 539q-3 -40 -17 -123h-770q8 -77 62.5 -124.5t138.5 -47.5q62 0 112 27.5t76 76.5l328 -57q-62 -145 -208.5 -238.5t-313.5 -93.5q-129 0 -230 54.5t-141 142.5l-14 -156h-234l12 141q-68 -87 -161 -134.5t-201 -47.5q-215 0 -335 158t-97 411q22 254 169.5 412
t362.5 158q107 0 191.5 -48t138.5 -135l12 142h234l-15 -160q60 91 169.5 146t244.5 55q153 0 269 -71.5t173.5 -199t43.5 -288.5zM514 528q-10 -115 45 -186.5t152 -71.5t165 71t78 187q9 116 -45.5 188t-152.5 72q-97 0 -165 -72.5t-77 -187.5zM1339 606h385q0 81 -49 137
t-127 56q-75 0 -130.5 -50.5t-78.5 -142.5zM1249 1540h353l-330 -350h-277z" />
    <glyph glyph-name="Oslashacute" unicode="&#x1fe;" horiz-adv-x="1765" 
d="M1284 1477l172 284h240l-228 -375q151 -106 226 -275.5t57 -377.5q-14 -168 -87 -314t-188 -249t-269.5 -162t-327.5 -59q-139 0 -261 39l-163 -275h-240l217 363q-153 103 -230 274.5t-59 382.5q15 168 88.5 314t188.5 249.5t269.5 162.5t326.5 59q143 0 268 -41z
M588 733q-15 -170 76 -278l407 671q-54 15 -88 15q-157 0 -268.5 -115t-126.5 -293zM1307 733q14 159 -70 275l-406 -672q31 -10 80 -10q157 0 269 114.5t127 292.5zM1468 1911l-325 -305h-293l260 305h358z" />
    <glyph glyph-name="oslashacute" unicode="&#x1ff;" horiz-adv-x="1380" 
d="M977 1073l92 156h199l-135 -221q118 -72 175 -196.5t44 -283.5q-23 -255 -207 -412t-459 -157q-88 0 -182 23l-86 -146h-199l127 207q-121 73 -180.5 198.5t-44.5 286.5q22 255 205 412.5t460 157.5q102 0 191 -25zM520 324l299 491q-24 6 -57 6q-119 0 -203 -81.5
t-94 -211.5q-12 -127 55 -204zM1008 528q9 119 -50 197l-294 -483q21 -6 47 -6q120 0 202.5 81.5t94.5 210.5zM1237 1542l-330 -340h-276l256 340h350z" />
    <glyph glyph-name="Scommaaccent" unicode="&#x218;" horiz-adv-x="1486" 
d="M735 -51q-186 0 -328.5 68.5t-215 191t-58.5 274.5h385q-8 -94 65 -155.5t193 -61.5q97 0 160.5 41t69.5 103q4 41 -23.5 68.5t-76.5 43t-113.5 26.5t-136 23t-142 29t-133.5 48.5t-109.5 76.5t-70 119t-15.5 170q20 226 208 365t466 139q182 0 321.5 -65.5t211 -182.5
t59.5 -264h-371q7 84 -60.5 139t-176.5 55q-94 0 -155 -37t-66 -96q-4 -39 23.5 -65t76.5 -40.5t113.5 -25t135.5 -22.5t141.5 -28.5t133 -48.5t109 -77t69.5 -119t15 -170q-13 -153 -107.5 -272t-250.5 -184.5t-347 -65.5zM659 -500q-65 0 -101 47.5t-30 120.5q6 78 56 125
t125 47q86 0 134 -60.5t40 -158.5q-9 -109 -71 -218t-148 -169l-152 43q59 45 101 108t46 115z" />
    <glyph glyph-name="scommaaccent" unicode="&#x219;" horiz-adv-x="1175" 
d="M573 -49q-218 0 -350 111.5t-117 283.5h320q-6 -61 44.5 -101t133.5 -40q65 0 111 28.5t47 69.5q3 33 -23.5 53.5t-71.5 27.5t-103 15.5t-119 15t-118 27.5t-100 53t-66 92t-16 142q17 164 163.5 270.5t353.5 106.5q220 0 353.5 -105t119.5 -266l-332 2q2 50 -44 82.5
t-118 32.5q-58 0 -99 -26t-44 -64q-3 -34 32.5 -55t95 -31.5t131.5 -20t143 -27.5t129 -48t90.5 -88t25.5 -140q-15 -176 -174.5 -288.5t-397.5 -112.5zM516 -498q-64 0 -100.5 47t-30.5 119q6 78 56.5 125t125.5 47q85 0 132.5 -60.5t39.5 -158.5q-9 -108 -70 -217.5
t-147 -169.5l-153 43q60 44 101 107.5t46 117.5z" />
    <glyph glyph-name="circumflex" unicode="&#x2c6;" horiz-adv-x="950" 
d="M178 1190l242 350h381l180 -350h-266l-119 203l-152 -203h-266z" />
    <glyph glyph-name="caron" unicode="&#x2c7;" horiz-adv-x="950" 
d="M745 1540h267l-242 -350h-381l-180 350h266l117 -203z" />
    <glyph glyph-name="breve" unicode="&#x2d8;" horiz-adv-x="806" 
d="M633 1528h231q-14 -164 -102.5 -254t-253.5 -90q-166 0 -240.5 90.5t-60.5 253.5h233q-5 -65 18 -104.5t66 -39.5t74 40t35 104z" />
    <glyph glyph-name="dotaccent" unicode="&#x2d9;" horiz-adv-x="557" 
d="M379 1147q-90 0 -143 55t-46 141t70.5 141.5t153.5 55.5q89 0 141.5 -55.5t44.5 -141.5q-7 -86 -69.5 -141t-151.5 -55z" />
    <glyph glyph-name="ring" unicode="&#x2da;" horiz-adv-x="790" 
d="M494 1114q-145 0 -227 79t-70 208q11 129 106 209t240 80q144 0 226 -80t71 -209q-12 -129 -107 -208t-239 -79zM528 1511q-50 0 -83 -30t-37 -80q-4 -49 23 -79t77 -30t83.5 30t37.5 79t-23.5 79.5t-77.5 30.5z" />
    <glyph glyph-name="ogonek" unicode="&#x2db;" horiz-adv-x="645" 
d="M354 20l148 -20q-219 -70 -228 -199q-7 -86 65 -140.5t198 -57.5l-15 -176q-222 0 -352.5 90.5t-118.5 232.5q9 98 90.5 170t212.5 100z" />
    <glyph glyph-name="tilde" unicode="&#x2dc;" horiz-adv-x="1021" 
d="M360 1200l-174 92q39 89 125 150t178 61q62 0 118 -26.5t99 -53t74 -26.5q32 0 62 21t51 55l176 -93q-39 -88 -129 -149.5t-188 -61.5q-51 0 -98 16.5t-74.5 37t-58.5 37t-56 16.5q-59 0 -105 -76z" />
    <glyph glyph-name="hungarumlaut" unicode="&#x2dd;" horiz-adv-x="1126" 
d="M389 1536h346l-297 -348h-260zM825 1536h363l-346 -346h-271z" />
    <glyph glyph-name="Wgrave" unicode="&#x1e80;" horiz-adv-x="2529" 
d="M1800 391l369 1075h446l-522 -1466h-614l-136 885l-292 -885h-613l-266 1466h449l182 -1075l373 1075h440zM1251 1626l-270 305h358l205 -305h-293z" />
    <glyph glyph-name="wgrave" unicode="&#x1e81;" horiz-adv-x="1933" 
d="M338 0l-207 1057h408l110 -660l240 660h340l141 -670l225 670h394l-394 -1057h-485l-92 596l-193 -596h-487zM686 1552h350l195 -350h-277z" />
    <glyph glyph-name="Wacute" unicode="&#x1e82;" horiz-adv-x="2529" 
d="M1800 391l369 1075h446l-522 -1466h-614l-136 885l-292 -885h-613l-266 1466h449l182 -1075l373 1075h440zM1855 1931l-327 -305h-291l262 305h356z" />
    <glyph glyph-name="wacute" unicode="&#x1e83;" horiz-adv-x="1933" 
d="M338 0l-207 1057h408l110 -660l240 660h340l141 -670l225 670h394l-394 -1057h-485l-92 596l-193 -596h-487zM1163 1552h350l-329 -350h-277z" />
    <glyph glyph-name="Wdieresis" unicode="&#x1e84;" horiz-adv-x="2529" 
d="M1800 391l369 1075h446l-522 -1466h-614l-136 885l-292 -885h-613l-266 1466h449l182 -1075l373 1075h440zM1135 1612q-84 0 -132.5 52.5t-41.5 135.5q8 83 65.5 136t140.5 53t131 -53t41 -136q-8 -83 -64.5 -135.5t-139.5 -52.5zM1677 1612q-84 0 -132.5 52.5
t-41.5 135.5t65.5 136t141.5 53t131 -53t41 -136t-64.5 -135.5t-140.5 -52.5z" />
    <glyph glyph-name="wdieresis" unicode="&#x1e85;" horiz-adv-x="1933" 
d="M338 0l-207 1057h408l110 -660l240 660h340l141 -670l225 670h394l-394 -1057h-485l-92 596l-193 -596h-487zM795 1186q-82 0 -131 51.5t-43 130.5q8 78 65 129t139 51q83 0 132.5 -51t41.5 -129q-6 -80 -63.5 -131t-140.5 -51zM1348 1186q-82 0 -131 51.5t-43 130.5
q8 78 65 129t139 51q84 0 133 -51t41 -129q-6 -80 -63 -131t-141 -51z" />
    <glyph glyph-name="Germandbls" unicode="&#x1e9e;" horiz-adv-x="1599" 
d="M653 993l-86 -993h-444l86 983q20 236 215.5 383t490.5 147q269 0 422 -122t136 -320q-9 -95 -69.5 -166t-156.5 -102q135 -30 217.5 -146.5t69.5 -273.5q-15 -188 -161.5 -311t-354.5 -123q-82 0 -176 22t-166 56l90 258q80 -41 149 -41q71 0 122 51.5t57 130.5
q9 100 -50 161.5t-172 61.5h-94l21 238h98q72 0 119.5 41.5t52.5 107.5q8 80 -44.5 130.5t-143.5 50.5q-93 0 -156 -61.5t-72 -162.5z" />
    <glyph glyph-name="Ygrave" unicode="&#x1ef2;" horiz-adv-x="1482" 
d="M567 500l-422 966h463l217 -585l299 585h471l-583 -966l-43 -500h-445zM735 1626l-270 305h358l205 -305h-293z" />
    <glyph glyph-name="ygrave" unicode="&#x1ef3;" horiz-adv-x="1298" 
d="M170 -444l25 276q40 -16 110 -16q89 0 142.5 37.5t91.5 128.5l-428 1075h428l192 -582l236 582h405l-498 -1106q-102 -226 -216 -330t-265 -104q-123 0 -223 39zM375 1552h350l193 -350h-275z" />
    <glyph glyph-name="endash" unicode="&#x2013;" horiz-adv-x="1314" 
d="M1311 793l-29 -314h-1167l28 314h1168z" />
    <glyph glyph-name="emdash" unicode="&#x2014;" horiz-adv-x="1673" 
d="M117 793h1577l-29 -314h-1577z" />
    <glyph glyph-name="quoteleft" unicode="&#x2018;" horiz-adv-x="589" 
d="M600 985q-7 -91 -73 -151t-156 -60q-103 0 -159 81t-44 216q10 121 84.5 248.5t177.5 202.5l188 -47q-80 -67 -135 -145t-59 -134q86 0 135 -59t41 -152z" />
    <glyph glyph-name="quoteright" unicode="&#x2019;" horiz-adv-x="589" 
d="M190 1325q7 92 74 151.5t158 59.5q103 0 159 -81t44 -214q-10 -122 -85 -249t-178 -201l-188 45q78 66 132.5 144.5t60.5 133.5q-85 0 -135.5 59.5t-41.5 151.5z" />
    <glyph glyph-name="quotesinglbase" unicode="&#x201a;" horiz-adv-x="589" 
d="M88 174q9 92 75 151.5t156 59.5q103 0 159 -81t46 -216q-10 -121 -84.5 -248t-177.5 -202l-188 47q79 67 132.5 144.5t57.5 133.5q-85 0 -134.5 59.5t-41.5 151.5z" />
    <glyph glyph-name="quotedblleft" unicode="&#x201c;" horiz-adv-x="1142" 
d="M606 985q-7 -91 -74 -151t-157 -60q-103 0 -159 81t-44 216q10 121 84.5 248.5t177.5 202.5l189 -47q-80 -67 -134.5 -144.5t-58.5 -134.5q85 0 134.5 -59.5t41.5 -151.5zM1149 985q-7 -91 -73 -151t-156 -60q-104 0 -159.5 81t-43.5 216q10 121 83.5 248.5t176.5 202.5
l188 -47q-80 -66 -134 -144t-58 -135q85 0 134.5 -59.5t41.5 -151.5z" />
    <glyph glyph-name="quotedblright" unicode="&#x201d;" horiz-adv-x="1136" 
d="M197 1341q9 92 74 151.5t155 59.5q103 0 159 -81t46 -214q-11 -123 -85 -250t-179 -200l-187 45q79 67 134 145t59 133q-86 0 -135 59t-41 152zM739 1341q9 92 74.5 151.5t155.5 59.5q103 0 159 -81t46 -214q-10 -123 -84.5 -249.5t-178.5 -200.5l-188 45q79 66 133 144
t59 134q-85 0 -134.5 59.5t-41.5 151.5z" />
    <glyph glyph-name="quotedblbase" unicode="&#x201e;" horiz-adv-x="1136" 
d="M94 174q9 92 74.5 151.5t155.5 59.5q103 0 158.5 -81t45.5 -214q-11 -123 -84.5 -250t-177.5 -200l-186 45q78 67 132 145t58 133q-86 0 -135 59t-41 152zM637 174q9 92 74 151.5t155 59.5q103 0 159 -81t46 -214q-10 -123 -83.5 -249.5t-176.5 -200.5l-188 45
q78 66 132 144.5t58 133.5q-85 0 -134.5 59.5t-41.5 151.5z" />
    <glyph glyph-name="bullet" unicode="&#x2022;" horiz-adv-x="720" 
d="M391 358q-126 0 -199.5 77.5t-62.5 199.5q10 121 97.5 198.5t213.5 77.5q125 0 197.5 -77.5t62.5 -198.5t-97 -199t-212 -78z" />
    <glyph glyph-name="ellipsis" unicode="&#x2026;" horiz-adv-x="1679" 
d="M88 174q9 92 77 152.5t163 60.5q96 0 151.5 -60t46.5 -153q-8 -92 -74 -151.5t-163 -59.5q-95 0 -151.5 59.5t-49.5 151.5zM635 174q9 92 76.5 152.5t162.5 60.5q96 0 152 -60t47 -153q-8 -92 -74 -151.5t-163 -59.5q-95 0 -151.5 59.5t-49.5 151.5zM1182 174
q9 92 76.5 152.5t162.5 60.5q96 0 152 -60t47 -153q-8 -92 -74.5 -151.5t-163.5 -59.5q-95 0 -151.5 59.5t-48.5 151.5z" />
    <glyph glyph-name="perthousand" unicode="&#x2030;" horiz-adv-x="3241" 
d="M1307 420q17 200 156 328.5t337 128.5q200 0 317.5 -129t100.5 -328q-17 -198 -157 -326.5t-339 -128.5q-198 0 -315 128.5t-100 326.5zM1913 420q6 66 -33.5 108.5t-105.5 42.5t-111 -42.5t-51 -108.5t32.5 -108t104.5 -42t112 42t52 108zM2294 420q17 200 156.5 328.5
t338.5 128.5q198 0 315.5 -129t100.5 -328q-17 -198 -156 -326.5t-337 -128.5q-199 0 -317 128.5t-101 326.5zM2900 420q6 66 -33 108.5t-106 42.5q-66 0 -111 -42.5t-51 -108.5t32.5 -108t104.5 -42q67 0 112.5 42t51.5 108zM170 1108q19 200 159 328.5t339 128.5
q198 0 315 -129t98 -328q-17 -198 -156 -326.5t-337 -128.5q-199 0 -317 128.5t-101 326.5zM776 1108q6 66 -32 107.5t-105 41.5q-66 0 -112 -41.5t-52 -107.5q-5 -66 33 -109t104 -43q67 0 113 43t51 109zM1606 1528h340l-1164 -1528h-340z" />
    <glyph glyph-name="guilsinglleft" unicode="&#x2039;" horiz-adv-x="841" 
d="M860 1057l-407 -514l315 -543h-401l-301 543l393 514h401z" />
    <glyph glyph-name="guilsinglright" unicode="&#x203a;" horiz-adv-x="841" 
d="M872 543l-397 -543h-401l411 543l-319 514h401z" />
    <glyph glyph-name="lira" unicode="&#x20a4;" horiz-adv-x="1390" 
d="M158 913h221l12 136q17 205 166 337t365 132q225 0 353 -122.5t136 -320.5l-354 -55q-5 78 -34.5 124t-86.5 46t-93 -47.5t-44 -124.5l-8 -105h419l-16 -184h-420q-2 -25 -10 -76h424l-17 -184h-499q-73 -127 -215 -193h882l-24 -276h-1241l30 352q110 27 166 133h-149
l14 168h221l6 76h-221z" />
    <glyph glyph-name="Euro" unicode="&#x20ac;" horiz-adv-x="1857" 
d="M1417 584l408 -47q-46 -255 -273.5 -421.5t-531.5 -166.5q-285 0 -480.5 153.5t-240.5 407.5h-195l17 184h166q-1 5 -1 12t0.5 15t0.5 12l6 43h-166l16 187h195q92 251 313 403t506 152q196 0 354 -76.5t248.5 -212.5t93.5 -307l-411 -43q-14 114 -99.5 188t-203.5 74
q-105 0 -191 -47t-141 -131h332l-17 -187h-385l-6 -43q0 -4 -0.5 -12t-0.5 -15t1 -12h385l-16 -184h-334q40 -87 118 -135.5t181 -48.5q117 0 217 73t135 185z" />
    <glyph glyph-name="trademark" unicode="&#x2122;" horiz-adv-x="2459" 
d="M315 307l78 883h-262l25 276h850l-25 -276h-260l-78 -883h-328zM2097 987l-307 -680h-227l-187 680l-59 -680h-311l102 1159h383l221 -737l346 737h393l-102 -1159h-311z" />
    <glyph glyph-name="minus" unicode="&#x2212;" horiz-adv-x="987" 
d="M143 793h840l-29 -314h-839z" />
    <glyph glyph-name="notequal" unicode="&#x2260;" horiz-adv-x="1110" 
d="M1102 743h-320l-94 -229h393l-26 -299h-486l-120 -297h-236l121 297h-242l27 299h336l94 229h-410l27 299h506l114 281h232l-115 -281h225z" />
    <glyph glyph-name="lessequal" unicode="&#x2264;" horiz-adv-x="927" 
d="M877 254l-23 -254h-780l22 254h781zM150 874l798 193l-22 -240l-564 -125l543 -127l-22 -239l-764 190z" />
    <glyph glyph-name="greaterequal" unicode="&#x2265;" horiz-adv-x="927" 
d="M96 254h781l-23 -254h-780zM125 575l563 127l-543 125l23 240l762 -193l-31 -348l-797 -190z" />
    <glyph glyph-name="commaaccent" unicode="&#xf6c3;" horiz-adv-x="505" 
d="M213 -76q-65 0 -101 47.5t-30 120.5q6 77 55.5 124.5t124.5 47.5q86 0 134.5 -60.5t39.5 -158.5q-9 -108 -71 -217.5t-148 -171.5l-151 45q60 44 101 107t46 116z" />
    <glyph glyph-name="IJacute" horiz-adv-x="1722" 
d="M715 1466l-129 -1466h-443l129 1466h443zM1176 537l81 929h443l-88 -989q-20 -230 -181 -374t-391 -144q-178 0 -303 41l29 330q81 -23 176 -23q96 0 160.5 63t73.5 167zM963 1931l-328 -305h-291l260 305h359zM1944 1931l-328 -305h-293l262 305h359z" />
    <glyph glyph-name="acute.case" horiz-adv-x="739" 
d="M473 1225h-293l260 303h357z" />
    <glyph glyph-name="breve.case" horiz-adv-x="817" 
d="M643 1528h231q-11 -138 -110 -223.5t-250 -85.5q-149 0 -234 85.5t-73 223.5h233q-3 -48 22.5 -78.5t69.5 -30.5q46 0 77 31t34 78z" />
    <glyph glyph-name="caron.case" horiz-adv-x="933" 
d="M735 1528h258l-229 -309h-381l-176 309h258l121 -162z" />
    <glyph glyph-name="circumflex.case" horiz-adv-x="933" 
d="M180 1208l230 310h381l176 -310h-258l-121 162l-150 -162h-258z" />
    <glyph glyph-name="dieresis.case" horiz-adv-x="1069" 
d="M362 1122q-83 0 -132 53t-42 136t65.5 135.5t141.5 52.5t131 -52.5t41 -135.5q-8 -83 -65 -136t-140 -53zM905 1122q-83 0 -132 53t-42 136t65.5 135.5t141.5 52.5t131 -52.5t41 -135.5q-8 -83 -65 -136t-140 -53z" />
    <glyph glyph-name="dotaccent.case" horiz-adv-x="557" 
d="M379 1153q-89 0 -141 54.5t-45 140.5q6 84 68.5 139t152.5 55q89 0 141.5 -54.5t46.5 -139.5q-7 -86 -70 -140.5t-153 -54.5z" />
    <glyph glyph-name="grave.case" horiz-adv-x="739" 
d="M506 1526l-273 303h359l205 -303h-291z" />
    <glyph glyph-name="hungarumlaut.case" horiz-adv-x="1110" 
d="M397 1528h336l-282 -309h-271zM834 1528h335l-315 -309h-270z" />
    <glyph glyph-name="ijacute" horiz-adv-x="1292" 
d="M215 1057h393l-92 -1057h-393zM784 -23l95 1080h393l-96 -1096q-15 -185 -133 -298.5t-295 -113.5q-147 0 -256 37l24 271q48 -13 117 -13q63 0 105 36.5t46 96.5zM516 1528h350l-325 -338h-277zM1165 1528h353l-328 -338h-277z" />
    <glyph glyph-name="ring.case" horiz-adv-x="716" 
d="M455 1106q-127 0 -199 69.5t-63 182.5q9 112 94 182t213 70q127 0 199 -69.5t63 -182.5q-9 -112 -94 -182t-213 -70zM483 1432q-33 0 -55 -20.5t-25 -53.5q-3 -32 16.5 -53t51.5 -21q33 0 55 20.5t25 53.5t-16 53.5t-52 20.5z" />
    <glyph glyph-name="tilde.case" horiz-adv-x="1021" 
d="M365 1247l-175 96q39 89 124.5 150t179.5 61q49 0 95.5 -16.5t75 -36.5t61.5 -36.5t58 -16.5q31 0 62 22.5t51 59.5l176 -96q-39 -89 -129 -151t-188 -62q-51 0 -97.5 17t-74.5 37t-58.5 37t-54.5 17q-57 0 -106 -82z" />
    </font>
</defs>
</svg>
