<?xml version="1.0" standalone="no"?>
<!DOCTYPE svg PUBLIC "-//W3C//DTD SVG 1.1//EN" "http://www.w3.org/Graphics/SVG/1.1/DTD/svg11.dtd" >
<svg xmlns="http://www.w3.org/2000/svg" xmlns:xlink="http://www.w3.org/1999/xlink" version="1.1">
<metadata>
Created by FontForge 20170731 at Mon Sep 26 11:52:37 2022
 By Aleksey,,,
Copyright (c) 2017 by Alexander Slobzheninov. All rights reserved.
</metadata>
<defs>
<font id="Objective-BoldItalic" horiz-adv-x="1273" >
  <font-face 
    font-family="Objective"
    font-weight="700"
    font-style="italic"
    font-stretch="normal"
    units-per-em="2048"
    panose-1="0 0 0 0 0 0 0 0 0 0"
    ascent="1638"
    descent="-410"
    x-height="1049"
    cap-height="1458"
    bbox="-145 -709 3106.76 2200"
    underline-thickness="102"
    underline-position="-358"
    unicode-range="U+000D-F6C3"
  />
<missing-glyph horiz-adv-x="1024" 
 />
    <glyph glyph-name=".notdef" horiz-adv-x="1024" 
 />
    <glyph glyph-name=".null" horiz-adv-x="0" 
 />
    <glyph glyph-name="nonmarkingreturn" horiz-adv-x="682" 
 />
    <glyph glyph-name="NULL" horiz-adv-x="1519" 
d="M1481 1458l-127 -1458h-1188l127 1458h1188zM457 233h645l86 992h-645z" />
    <glyph glyph-name="NULL" horiz-adv-x="1519" 
d="M1481 1458l-127 -1458h-1188l127 1458h1188zM457 233h645l86 992h-645z" />
    <glyph glyph-name="CR" unicode="&#xd;" horiz-adv-x="61" 
 />
    <glyph glyph-name="space" unicode=" " horiz-adv-x="626" 
 />
    <glyph glyph-name="exclam" unicode="!" horiz-adv-x="641" 
d="M154 141q6 75 60.5 123.5t131.5 48.5q78 0 124 -48.5t40 -123.5q-6 -76 -60.5 -125t-132.5 -49q-77 0 -123 49t-40 125zM571 1065l-129 -580h-159l-29 580l35 393h317z" />
    <glyph glyph-name="quotedbl" unicode="&#x22;" horiz-adv-x="794" 
d="M348 745h-160v426l25 287h233l-24 -287zM737 745h-159v426l24 287h234l-25 -287z" />
    <glyph glyph-name="numbersign" unicode="#" horiz-adv-x="1912" 
d="M1294 442l-155 -442h-262l155 442h-287l-157 -442h-262l159 442h-360l18 209h416l86 242h-379l19 209h434l149 418h262l-149 -418h287l147 418h262l-149 -418h395l-18 -209h-451l-86 -242h414l-19 -209h-469zM1108 651l84 242h-287l-86 -242h289z" />
    <glyph glyph-name="dollar" unicode="$" horiz-adv-x="1470" 
d="M891 -39l-19 -209h-319l20 213q-207 43 -323.5 182.5t-99.5 331.5h309q-9 -119 79 -194.5t236 -75.5q124 0 203.5 54t85.5 134q4 49 -24 83.5t-78.5 54t-117 33.5t-140.5 27.5t-147.5 30.5t-139 48t-114 74t-73 114t-16.5 164q15 183 149 310t345 161l16 182h319
l-16 -188q192 -43 299 -175t92 -312h-299q10 107 -70 176t-212 69q-120 0 -199.5 -50.5t-85.5 -127.5q-4 -47 24 -80t78.5 -51.5t117.5 -32.5t141 -27t147.5 -30.5t139 -48.5t114.5 -74.5t73.5 -115.5t16.5 -165q-17 -188 -155.5 -319t-356.5 -166z" />
    <glyph glyph-name="percent" unicode="%" horiz-adv-x="2183" 
d="M1733 848q193 0 304.5 -122.5t96.5 -315.5q-19 -194 -151.5 -316.5t-325.5 -122.5q-192 0 -304 123t-93 316q15 192 148 315t325 123zM1710 592q-79 0 -133.5 -51t-60.5 -131q-7 -82 38 -132.5t125 -50.5q82 0 136.5 50.5t62.5 132.5q6 80 -40.5 131t-127.5 51zM659 1548
q194 0 305.5 -122.5t94.5 -315.5t-149.5 -315.5t-325.5 -122.5q-192 0 -305.5 123t-96.5 315q17 193 151 315.5t326 122.5zM637 1292q-80 0 -136 -50.5t-63 -131.5q-6 -80 41.5 -131t126.5 -51q81 0 136 51t61 131q7 82 -38.5 132t-127.5 50zM1892 1520l-1175 -1520h-291
l1173 1520h293z" />
    <glyph glyph-name="ampersand" unicode="&#x26;" horiz-adv-x="1708" 
d="M1624 0h-367l-122 119q-244 -170 -504 -170q-235 0 -371 118.5t-119 315.5q7 80 35.5 145.5t75 113t99 82t120.5 64.5q-99 141 -88 297q17 179 158.5 297.5t335.5 118.5q186 0 310.5 -108.5t133.5 -276.5l-279 -49q-5 84 -55 138.5t-125 54.5t-130 -50.5t-62 -132.5
q-9 -125 112 -243q24 -24 190.5 -189.5t192.5 -191.5q88 108 148 243h282q-86 -220 -262 -409q20 -20 146.5 -144.5t144.5 -142.5zM702 199q134 0 259 88q-23 22 -164.5 161t-163.5 162q-158 -63 -172 -207q-8 -89 59.5 -146.5t181.5 -57.5z" />
    <glyph glyph-name="quotesingle" unicode="'" horiz-adv-x="405" 
d="M348 745h-160v426l25 287h233l-24 -287z" />
    <glyph glyph-name="parenleft" unicode="(" horiz-adv-x="747" 
d="M150 575q25 282 136.5 540t270.5 405h287q-171 -168 -286 -423t-138 -522q-25 -270 45.5 -524.5t212.5 -419.5h-287q-133 148 -200 406t-41 538z" />
    <glyph glyph-name="parenright" unicode=")" horiz-adv-x="747" 
d="M700 575q-26 -283 -137.5 -540.5t-271.5 -403.5h-287q172 164 286.5 418.5t139.5 525.5q23 266 -48 521t-212 424h287q134 -147 201 -405t42 -540z" />
    <glyph glyph-name="asterisk" unicode="*" horiz-adv-x="1056" 
d="M928 692l-234 156l-12 -291h-209l37 291l-258 -156l-90 180l268 136l-244 135l121 180l232 -156l12 291h209l-37 -291l260 156l88 -180l-268 -135l244 -136z" />
    <glyph glyph-name="plus" unicode="+" horiz-adv-x="1134" 
d="M731 184h-293l29 338h-336l21 236h335l29 327h293l-29 -327h334l-20 -236h-334z" />
    <glyph glyph-name="comma" unicode="," horiz-adv-x="534" 
d="M100 139q6 75 59.5 123.5t127.5 48.5q85 0 131 -66t37 -173q-9 -113 -75 -226.5t-157 -177.5l-145 53q68 53 115 122t53 124q-70 0 -111 48.5t-35 123.5z" />
    <glyph glyph-name="hyphen" unicode="-" horiz-adv-x="1011" 
d="M993 762l-22 -252h-840l23 252h839z" />
    <glyph glyph-name="period" unicode="." horiz-adv-x="528" 
d="M98 141q6 75 61 123.5t132 48.5q78 0 124 -48.5t40 -123.5q-6 -76 -60.5 -125t-132.5 -49q-77 0 -123.5 49t-40.5 125z" />
    <glyph glyph-name="slash" unicode="/" horiz-adv-x="983" 
d="M1075 1458l-805 -1929h-274l805 1929h274z" />
    <glyph glyph-name="zero" unicode="0" horiz-adv-x="1564" 
d="M182 729q19 224 118.5 402t259.5 278t353 100q145 0 264 -58.5t197 -161.5t114.5 -247.5t22.5 -312.5q-19 -224 -118.5 -402t-260 -278t-354.5 -100q-193 0 -336 100t-211 278t-49 402zM518 729q-19 -212 61 -348.5t224 -136.5t249 137t124 348t-62 348t-225 137
t-248 -136.5t-123 -348.5z" />
    <glyph glyph-name="one" unicode="1" horiz-adv-x="948" 
d="M520 1079l-375 -262l29 340l428 301h287l-127 -1458h-336z" />
    <glyph glyph-name="two" unicode="2" horiz-adv-x="1349" 
d="M817 1509q152 0 271.5 -61t182 -171t50.5 -247t-97.5 -252.5t-226.5 -204.5l-508 -313h734l-23 -260h-1083l26 313l645 418q100 65 153 130.5t60 146.5q9 98 -50 161.5t-160 63.5q-99 0 -181 -81t-108 -204l-301 60q46 218 220 359.5t396 141.5z" />
    <glyph glyph-name="three" unicode="3" horiz-adv-x="1345" 
d="M246 1198l22 260h1039l-17 -192l-377 -363q168 -31 268 -159.5t85 -303.5q-19 -214 -193.5 -352.5t-425.5 -138.5q-245 0 -393 148.5t-145 381.5l305 47q5 -133 74 -217t180 -84q110 0 188.5 68t87.5 172t-58 172t-177 68q-72 0 -123 -23l-60 195l355 321h-635z" />
    <glyph glyph-name="four" unicode="4" horiz-adv-x="1366" 
d="M100 489l654 969h471l-78 -899h170l-23 -258h-170l-26 -301h-344l26 301h-696zM854 1174l-408 -615h357z" />
    <glyph glyph-name="five" unicode="5" horiz-adv-x="1359" 
d="M401 1458h869l-23 -260h-616l-49 -258h233q233 0 364.5 -136.5t112.5 -350.5q-19 -221 -190.5 -362.5t-419.5 -141.5q-246 0 -392 149t-140 383l303 45q0 -133 67.5 -217t179.5 -84q108 0 185 68t86 170q9 112 -61.5 182t-200.5 70h-437z" />
    <glyph glyph-name="six" unicode="6" horiz-adv-x="1366" 
d="M311 850l490 608h383l-430 -522q66 18 135 18q209 0 330 -133t104 -340q-22 -235 -202.5 -383.5t-446.5 -148.5q-260 0 -413.5 146t-133.5 368q7 88 56 189t128 198zM473 481q-10 -112 56.5 -184t179.5 -70q109 0 184.5 71t85.5 183q9 107 -54.5 176.5t-172.5 69.5
q-113 0 -191.5 -69t-87.5 -177z" />
    <glyph glyph-name="seven" unicode="7" horiz-adv-x="1083" 
d="M537 0h-359l598 1182h-641l25 276h1026l-17 -201z" />
    <glyph glyph-name="eight" unicode="8" horiz-adv-x="1431" 
d="M850 1516q235 0 376 -113.5t124 -292.5q-9 -115 -81 -210t-173 -126q122 -28 194 -135.5t60 -243.5q-11 -127 -97 -227.5t-227.5 -156.5t-312.5 -56q-260 0 -418 124t-141 316q12 134 102 242.5t215 136.5q-94 31 -149 125.5t-46 208.5q15 178 177.5 293t396.5 115z
M772 639q-106 0 -178 -58t-80 -147q-9 -91 54 -149t169 -58t178.5 58t81.5 149q7 89 -56.5 147t-168.5 58zM825 1243q-95 0 -161 -52t-74 -132q-6 -82 51 -134.5t152 -52.5t161 52.5t72 134.5q8 80 -49 132t-152 52z" />
    <glyph glyph-name="nine" unicode="9" horiz-adv-x="1366" 
d="M1184 608l-492 -608h-381l430 522q-66 -18 -133 -18q-210 0 -332.5 133t-103.5 340q13 155 99.5 276t230 188.5t319.5 67.5q259 0 412.5 -145.5t134.5 -368.5q-19 -185 -184 -387zM1022 977q9 113 -56.5 184t-179.5 70q-107 0 -184 -72t-86 -182q-9 -107 54.5 -176.5
t170.5 -69.5q114 0 193 69t88 177z" />
    <glyph glyph-name="colon" unicode=":" horiz-adv-x="528" 
d="M98 141q6 75 61 123.5t132 48.5q78 0 124 -48.5t40 -123.5q-6 -76 -60.5 -125t-132.5 -49q-77 0 -123.5 49t-40.5 125zM164 883q6 76 60.5 125t131.5 49q78 0 124 -49t40 -125q-8 -75 -62 -123.5t-132 -48.5q-77 0 -123 48.5t-39 123.5z" />
    <glyph glyph-name="semicolon" unicode=";" horiz-adv-x="534" 
d="M164 883q6 76 60.5 125t131.5 49q78 0 124 -49t40 -125q-8 -75 -62 -123.5t-132 -48.5q-77 0 -123 48.5t-39 123.5zM100 139q6 75 59.5 123.5t127.5 48.5q85 0 131 -66t37 -173q-9 -113 -75 -226.5t-157 -177.5l-145 53q68 53 115 122t53 124q-70 0 -111 48.5t-35 123.5z
" />
    <glyph glyph-name="less" unicode="&#x3c;" horiz-adv-x="911" 
d="M838 256l-23 -266l-745 395l24 279l813 395l-22 -266l-586 -269z" />
    <glyph glyph-name="equal" unicode="=" horiz-adv-x="1134" 
d="M129 494h963l-21 -244h-962zM174 1016h963l-21 -244h-962z" />
    <glyph glyph-name="greater" unicode="&#x3e;" horiz-adv-x="911" 
d="M190 1059l744 -395l-25 -279l-811 -395l23 266l581 268l-534 269z" />
    <glyph glyph-name="question" unicode="?" horiz-adv-x="1304" 
d="M479 139q6 75 60.5 124.5t132.5 49.5t124 -49.5t40 -124.5t-60.5 -124.5t-132.5 -49.5t-124 49.5t-40 124.5zM823 426h-282q13 156 70 248.5t171 165.5q43 27 65.5 43.5t52.5 43.5t45 57t18 65q6 82 -49 137t-144 55q-101 0 -176.5 -74.5t-99.5 -191.5l-306 57
q40 209 211 343t406 134q229 0 370.5 -123.5t124.5 -312.5q-11 -126 -83.5 -212t-198.5 -156q-63 -34 -100.5 -67t-62.5 -85.5t-32 -126.5z" />
    <glyph glyph-name="at" unicode="@" horiz-adv-x="2121" 
d="M387 532q-17 -191 47.5 -344t196.5 -239t307 -86q81 0 169 22t146 54l-18 -224q-65 -34 -151.5 -52.5t-163.5 -18.5q-144 0 -271 42.5t-224.5 122.5t-165.5 188t-97.5 245.5t-16.5 289.5q22 255 163.5 458.5t371.5 318t506 114.5q207 0 380 -67t289.5 -184.5t174.5 -283
t41 -356.5q-15 -159 -71 -279.5t-155.5 -190.5t-230.5 -70q-120 0 -198 69t-77 175q-50 -67 -149 -109.5t-207 -42.5q-174 0 -270.5 126t-79.5 322q17 197 162 324t352 127q210 0 331.5 -126.5t104.5 -326.5l-18 -213q-5 -62 15 -103.5t71 -41.5q70 0 116 99t60 261
q17 197 -62 354.5t-236 246t-362 88.5q-206 0 -378.5 -88.5t-278.5 -246t-123 -354.5zM1126 754q-93 0 -158 -63t-73 -159q-9 -95 44.5 -156t147.5 -61q93 0 159 61t75 156q8 96 -47.5 159t-147.5 63z" />
    <glyph glyph-name="A" unicode="A" horiz-adv-x="1550" 
d="M1153 1458l360 -1458h-360l-63 264h-586l-105 -264h-362l616 1458h500zM879 1163l-279 -651h442z" />
    <glyph glyph-name="B" unicode="B" horiz-adv-x="1546" 
d="M897 0h-731l127 1458h706q226 0 361.5 -113.5t120.5 -287.5q-9 -114 -75.5 -199.5t-162.5 -112.5q109 -28 170 -123t51 -223q-15 -179 -173 -289t-394 -110zM883 627h-318l-33 -367h318q109 0 183.5 51t82.5 129q7 83 -58.5 135t-174.5 52zM915 1198h-301l-28 -338h301
q98 0 165.5 47.5t73.5 120.5q6 75 -53.5 122.5t-157.5 47.5z" />
    <glyph glyph-name="C" unicode="C" horiz-adv-x="1699" 
d="M1327 543l318 -41q-57 -241 -275 -397t-498 -156q-167 0 -306.5 58.5t-233 161t-139 247.5t-31.5 313q19 224 134.5 402t302 278t409.5 100q182 0 332 -72.5t240 -202t101 -292.5l-323 -37q-20 135 -123 222t-244 87q-195 0 -330.5 -135.5t-154.5 -349.5
q-19 -213 93 -349t306 -136q138 0 258 85t164 214z" />
    <glyph glyph-name="D" unicode="D" horiz-adv-x="1650" 
d="M166 0l127 1458h547q378 0 591.5 -200.5t184.5 -528.5q-19 -217 -138 -382.5t-317.5 -256t-447.5 -90.5h-547zM1274 729q19 211 -107 336t-350 125h-213l-82 -922h213q224 0 372 125t167 336z" />
    <glyph glyph-name="E" unicode="E" horiz-adv-x="1306" 
d="M522 276h713l-25 -276h-1044l127 1458h1024l-25 -276h-692l-27 -314h611l-21 -241h-610z" />
    <glyph glyph-name="F" unicode="F" horiz-adv-x="1224" 
d="M1083 522h-528l-45 -522h-344l127 1458h993l-24 -295h-650l-32 -379h528z" />
    <glyph glyph-name="G" unicode="G" horiz-adv-x="1777" 
d="M1397 602h-451l19 225h782q2 -251 -106.5 -452t-302.5 -313.5t-437 -112.5q-231 0 -407 100t-263.5 278t-68.5 402q14 168 87 313t188 247.5t270.5 161t328.5 58.5q250 0 431.5 -128.5t218.5 -329.5l-322 -70q-26 102 -125.5 167.5t-228.5 65.5q-201 0 -343 -136.5
t-161 -348.5q-19 -211 102 -348t326 -137q173 0 306.5 103t156.5 255z" />
    <glyph glyph-name="H" unicode="H" horiz-adv-x="1617" 
d="M508 0h-344l127 1458h344l-49 -563h602l49 563h344l-127 -1458h-344l53 616h-602z" />
    <glyph glyph-name="I" unicode="I" horiz-adv-x="673" 
d="M637 1458l-127 -1458h-344l127 1458h344z" />
    <glyph glyph-name="J" unicode="J" horiz-adv-x="1013" 
d="M557 494l84 964h344l-86 -999q-20 -221 -171.5 -360.5t-365.5 -139.5q-160 0 -288 41l22 264q107 -28 195 -28q108 0 182 71t84 187z" />
    <glyph glyph-name="K" unicode="K" horiz-adv-x="1447" 
d="M293 1458h344l-51 -594l536 594h416l-657 -700l542 -758h-417l-441 643l-55 -643h-344z" />
    <glyph glyph-name="L" unicode="L" horiz-adv-x="1193" 
d="M1120 0h-954l127 1458h344l-100 -1163h610z" />
    <glyph glyph-name="M" unicode="M" horiz-adv-x="2066" 
d="M502 0h-336l127 1458h455l319 -1067l500 1067h461l-127 -1458h-336l92 1042l-496 -1042h-258l-309 1042z" />
    <glyph glyph-name="N" unicode="N" horiz-adv-x="1622" 
d="M678 1458l489 -1042l90 1042h328l-127 -1458h-385l-491 1040l-90 -1040h-326l127 1458h385z" />
    <glyph glyph-name="O" unicode="O" horiz-adv-x="1810" 
d="M162 729q20 228 136.5 405.5t308.5 276t429 98.5q236 0 411.5 -98.5t262 -276t66.5 -405.5q-20 -229 -137.5 -406.5t-309.5 -275.5t-428 -98q-177 0 -322.5 57t-242 159t-143 247.5t-31.5 316.5zM506 729q-19 -213 99 -348t321 -137q204 0 345.5 135.5t160.5 349.5
t-98.5 349.5t-321.5 135.5t-345.5 -135.5t-160.5 -349.5z" />
    <glyph glyph-name="P" unicode="P" horiz-adv-x="1472" 
d="M856 453h-319l-39 -453h-332l127 1458h653q255 0 403.5 -140.5t129.5 -363.5q-20 -221 -194 -361t-429 -140zM860 1198h-258l-43 -485h258q129 0 219 68t99 173q9 107 -68 175.5t-207 68.5z" />
    <glyph glyph-name="Q" unicode="Q" horiz-adv-x="1810" 
d="M162 729q20 228 136.5 405.5t308.5 276t429 98.5q236 0 411.5 -98.5t262 -276t66.5 -405.5q-17 -199 -110 -361t-245 -268l256 -387h-338l-182 273q-118 -37 -256 -37q-177 0 -322.5 57t-242 159t-143 247.5t-31.5 316.5zM506 729q-19 -213 99 -348t321 -137
q203 0 345 136t161 349q19 214 -98.5 349.5t-321.5 135.5t-345.5 -135.5t-160.5 -349.5z" />
    <glyph glyph-name="R" unicode="R" horiz-adv-x="1576" 
d="M166 0l127 1458h706q167 0 293 -61t189 -171.5t51 -252.5q-13 -145 -110.5 -257.5t-245.5 -158.5l303 -557h-385l-242 510h-297l-45 -510h-344zM922 1198h-308l-39 -444h308q123 0 209.5 61t95.5 158q9 105 -66 165t-200 60z" />
    <glyph glyph-name="S" unicode="S" horiz-adv-x="1470" 
d="M741 -51q-278 0 -444.5 150t-146.5 380h309q-9 -119 79 -194.5t236 -75.5q124 0 203.5 54t85.5 134q4 49 -24 83.5t-78.5 54t-117 33.5t-140.5 27.5t-147.5 30.5t-139 48t-114 74t-73 114t-16.5 164q19 215 196 349t441 134q131 0 241 -38t185 -104.5t112.5 -160.5
t28.5 -202h-299q10 107 -70 176t-212 69q-120 0 -199.5 -50.5t-85.5 -127.5q-4 -47 24 -80t78.5 -51.5t117.5 -32.5t141 -27t147.5 -30.5t139 -48.5t114.5 -74.5t73.5 -115.5t16.5 -165q-19 -219 -202 -358t-460 -139z" />
    <glyph glyph-name="T" unicode="T" horiz-adv-x="1288" 
d="M573 1171h-438l25 287h1220l-24 -287h-438l-103 -1171h-344z" />
    <glyph glyph-name="U" unicode="U" horiz-adv-x="1607" 
d="M1165 612l74 846h344l-74 -854q-17 -191 -112 -340.5t-250.5 -232t-345.5 -82.5q-290 0 -457 182.5t-141 472.5l73 854h347l-74 -846q-13 -149 61.5 -257t214.5 -111q137 0 231.5 103t108.5 265z" />
    <glyph glyph-name="V" unicode="V" horiz-adv-x="1533" 
d="M522 1458l269 -1204l475 1204h358l-594 -1458h-524l-342 1458h358z" />
    <glyph glyph-name="W" unicode="W" horiz-adv-x="2418" 
d="M1716 283l412 1175h348l-522 -1458h-496l-158 1030l-337 -1030h-498l-270 1458h350l207 -1175l397 1175h381z" />
    <glyph glyph-name="X" unicode="X" horiz-adv-x="1634" 
d="M610 770l-413 688h399l299 -506l393 506h406l-555 -688l440 -770h-405l-312 578l-405 -578h-400z" />
    <glyph glyph-name="Y" unicode="Y" horiz-adv-x="1439" 
d="M596 508l-434 950h364l269 -647l364 647h371l-590 -950l-45 -508h-344z" />
    <glyph glyph-name="Z" unicode="Z" horiz-adv-x="1372" 
d="M115 225l800 963h-696l23 270h1142l-18 -225l-788 -963h725l-25 -270h-1184z" />
    <glyph glyph-name="bracketleft" unicode="[" horiz-adv-x="894" 
d="M575 1311l-129 -1471h398l-19 -209h-692l166 1889h692l-18 -209h-398z" />
    <glyph glyph-name="backslash" unicode="\" horiz-adv-x="985" 
d="M164 1458h274l469 -1929h-274z" />
    <glyph glyph-name="bracketright" unicode="]" horiz-adv-x="892" 
d="M696 -369h-692l19 209h397l129 1471h-397l18 209h692z" />
    <glyph glyph-name="asciicircum" unicode="^" horiz-adv-x="1226" 
d="M444 819h-286l430 639h305l319 -639h-284l-205 449z" />
    <glyph glyph-name="underscore" unicode="_" horiz-adv-x="1024" 
d="M-18 0h1024l-19 -219h-1024z" />
    <glyph glyph-name="grave" unicode="`" horiz-adv-x="686" 
d="M221 1542h291l195 -328h-242z" />
    <glyph glyph-name="a" unicode="a" horiz-adv-x="1384" 
d="M1024 903l12 146h307l-92 -1049h-307l12 145q-70 -89 -165.5 -137.5t-206.5 -48.5q-221 0 -348 158t-105 407q23 249 177.5 407.5t375.5 158.5q111 0 198 -49t142 -138zM688 229q120 0 204 83.5t95 211.5q12 128 -58 211.5t-190 83.5t-204.5 -83.5t-96.5 -211.5
q-11 -128 59.5 -211.5t190.5 -83.5z" />
    <glyph glyph-name="b" unicode="b" horiz-adv-x="1370" 
d="M266 1520h307l-53 -598q70 80 163.5 124t199.5 44q220 0 344.5 -158.5t101.5 -407.5q-22 -249 -175 -407t-372 -158q-107 0 -193 44t-143 124l-10 -127h-303zM1022 524q11 125 -59 207t-189 82q-120 0 -205 -82t-96 -207t59.5 -206.5t190.5 -81.5q119 0 204 81t95 207z
" />
    <glyph glyph-name="c" unicode="c" horiz-adv-x="1277" 
d="M1253 674l-290 -37q-12 85 -77 139.5t-153 54.5q-113 0 -198 -87.5t-97 -219.5q-10 -133 58 -220t182 -87q90 0 164 54.5t104 140.5l283 -37q-29 -119 -114.5 -214.5t-206.5 -148.5t-255 -53q-163 0 -287.5 72.5t-186.5 201.5t-48 291q22 246 198 406t425 160
q206 0 348 -117.5t151 -298.5z" />
    <glyph glyph-name="d" unicode="d" horiz-adv-x="1370" 
d="M1010 922l53 598h307l-133 -1520h-303l10 127q-69 -80 -162.5 -124t-201.5 -44q-144 0 -251.5 71.5t-159.5 200.5t-38 293q23 249 177 407.5t372 158.5q106 0 190.5 -44t139.5 -124zM438 524q-10 -126 60.5 -207t189.5 -81q120 0 204 81.5t95 206.5t-59 207t-189 82
q-120 0 -205 -82t-96 -207z" />
    <glyph glyph-name="e" unicode="e" horiz-adv-x="1314" 
d="M688 195q82 0 151.5 39t102.5 100l264 -60q-54 -137 -208 -226t-339 -89q-254 0 -401.5 160t-124.5 413q22 246 197.5 402t429.5 156q252 0 395 -156.5t121 -405.5q-1 -7 -4.5 -43t-7.5 -49l-822 2q9 -111 75.5 -177t170.5 -66zM457 623h516q-6 101 -72.5 166t-169.5 65
q-100 0 -172 -62.5t-102 -168.5z" />
    <glyph glyph-name="f" unicode="f" horiz-adv-x="841" 
d="M909 1528l-20 -252q-58 14 -103 14q-60 0 -99 -36t-44 -93l-10 -112h235l-20 -234h-236l-71 -815h-308l72 815h-147l20 234h148l10 131q15 172 118 276.5t255 104.5q103 0 200 -33z" />
    <glyph glyph-name="g" unicode="g" horiz-adv-x="1370" 
d="M123 -129l278 43q19 -80 86 -131t154 -51q119 0 199 77t92 211l10 125q-143 -159 -360 -159t-344 150.5t-107 387.5q22 247 176 405t371 158q219 0 334 -163l12 125h305l-90 -1037q-14 -160 -96 -279.5t-214 -182t-298 -62.5q-203 0 -345.5 107.5t-162.5 275.5zM688 238
q120 0 204 80.5t95 205.5q12 128 -58 211.5t-190 83.5t-204.5 -83.5t-96.5 -211.5q-11 -125 59.5 -205.5t190.5 -80.5z" />
    <glyph glyph-name="h" unicode="h" 
d="M858 1090q179 0 278.5 -119t82.5 -307l-58 -664h-307l53 602q8 97 -39.5 157t-138.5 60q-90 0 -159 -65t-78 -164l-52 -590h-307l133 1520h307l-51 -590q58 75 148.5 117.5t187.5 42.5z" />
    <glyph glyph-name="i" unicode="i" horiz-adv-x="622" 
d="M557 1049l-92 -1049h-307l92 1049h307zM252 1362q6 75 61 123.5t133 48.5t123 -48.5t39 -123.5q-6 -76 -60 -125t-132 -49t-124 49t-40 125z" />
    <glyph glyph-name="j" unicode="j" horiz-adv-x="626" 
d="M158 -68l98 1117h307l-102 -1155q-13 -166 -118.5 -267.5t-262.5 -101.5q-131 0 -225 33l22 243q46 -14 123 -14q66 0 109 40t49 105zM258 1362q6 75 61.5 123.5t133.5 48.5q76 0 121.5 -48.5t39.5 -123.5q-6 -76 -60.5 -125t-131.5 -49q-78 0 -124 49t-40 125z" />
    <glyph glyph-name="k" unicode="k" horiz-adv-x="1204" 
d="M266 1520h307l-75 -858l389 387h373l-498 -492l418 -557h-373l-328 451l-39 -451h-307z" />
    <glyph glyph-name="l" unicode="l" horiz-adv-x="569" 
d="M571 1520l-133 -1520h-307l133 1520h307z" />
    <glyph glyph-name="m" unicode="m" horiz-adv-x="1941" 
d="M133 0l92 1049h295l-12 -125q57 79 141.5 122.5t181.5 43.5q113 0 198 -50t124 -137q56 85 156.5 134.5t210.5 49.5q179 0 281 -119.5t85 -308.5l-57 -659h-307l53 598q8 95 -40.5 156.5t-135.5 64.5q-89 0 -149 -62t-68 -159l-54 -598h-307l53 598q8 100 -37.5 160.5
t-131.5 60.5q-88 0 -145.5 -60.5t-65.5 -160.5l-54 -598h-307z" />
    <glyph glyph-name="n" unicode="n" 
d="M860 1090q177 0 276.5 -122.5t82.5 -312.5l-58 -655h-307l53 602q8 97 -39.5 157t-136.5 60q-92 0 -161 -65t-78 -164l-52 -590h-307l92 1049h299l-12 -142q63 85 155 134t193 49z" />
    <glyph glyph-name="o" unicode="o" horiz-adv-x="1333" 
d="M1294 524q-22 -251 -197.5 -408t-434.5 -157q-258 0 -406.5 157.5t-126.5 407.5q15 165 100 294t224 200.5t309 71.5q259 0 407 -157.5t125 -408.5zM987 524q12 129 -58.5 212t-191.5 83q-120 0 -204.5 -83t-96.5 -212q-11 -129 59.5 -212t190.5 -83q121 0 205.5 83
t95.5 212z" />
    <glyph glyph-name="p" unicode="p" horiz-adv-x="1370" 
d="M451 127l-52 -598h-307l133 1520h303l-12 -127q70 79 165 123.5t202 44.5q144 0 251 -72t158.5 -201t36.5 -293q-22 -249 -174.5 -407t-372.5 -158q-214 0 -331 168zM1022 524q12 126 -58.5 207.5t-189.5 81.5q-120 0 -205 -82t-96 -207t59.5 -206.5t190.5 -81.5
t204 81.5t95 206.5z" />
    <glyph glyph-name="q" unicode="q" horiz-adv-x="1370" 
d="M1196 -471h-307l51 598q-68 -80 -161 -124t-199 -44q-144 0 -251.5 71.5t-159.5 200.5t-38 293q23 249 177 407.5t372 158.5q108 0 193.5 -44t140.5 -124l12 127h303zM438 524q-11 -125 59.5 -206.5t190.5 -81.5t204 81.5t95 206.5t-59 207t-189 82t-204 -81.5
t-97 -207.5z" />
    <glyph glyph-name="r" unicode="r" horiz-adv-x="878" 
d="M803 1087q60 0 123 -26l-23 -273q-89 39 -170 39q-99 0 -166 -75.5t-78 -194.5l-49 -557h-307l92 1049h295l-12 -134q55 80 132 126t163 46z" />
    <glyph glyph-name="s" unicode="s" horiz-adv-x="1155" 
d="M575 -45q-213 0 -340 111.5t-112 283.5h260q-6 -78 54.5 -128t160.5 -50q85 0 144 35.5t63 89.5q3 34 -18.5 56t-60 34t-88.5 20t-105 16.5t-110 19.5t-103.5 33.5t-85 54.5t-54.5 85.5t-12 124.5q9 101 75 182t172.5 126t233.5 45q210 0 337.5 -102.5t115.5 -260.5h-271
q4 64 -52.5 105t-149.5 41q-73 0 -126 -33.5t-57 -83.5q-3 -36 24.5 -60t75 -36t109 -24t125.5 -22t124.5 -31.5t106.5 -51t71.5 -82t19.5 -123.5q-14 -163 -161.5 -269t-365.5 -106z" />
    <glyph glyph-name="t" unicode="t" horiz-adv-x="854" 
d="M244 340l41 475h-148l21 234h161l58 264h258l-23 -264h238l-21 -234h-237l-39 -444q-6 -66 28.5 -107t98.5 -41q42 0 108 15l-22 -246q-104 -33 -213 -33q-155 0 -239.5 106t-69.5 275z" />
    <glyph glyph-name="u" unicode="u" 
d="M504 -41q-176 0 -275 122t-82 312l58 656h307l-53 -603q-8 -97 39.5 -157t136.5 -60q92 0 161 65.5t78 164.5l52 590h307l-92 -1049h-299l12 141q-63 -85 -155.5 -133.5t-194.5 -48.5z" />
    <glyph glyph-name="v" unicode="v" horiz-adv-x="1243" 
d="M403 0l-274 1049h328l186 -816l328 816h329l-458 -1049h-439z" />
    <glyph glyph-name="w" unicode="w" horiz-adv-x="1882" 
d="M375 0l-225 1049h319l149 -742l271 742h287l153 -748l279 748h309l-412 -1049h-389l-117 690l-235 -690h-389z" />
    <glyph glyph-name="x" unicode="x" horiz-adv-x="1294" 
d="M430 0h-373l406 545l-297 504h364l181 -334l237 334h365l-387 -504l311 -545h-373l-184 367z" />
    <glyph glyph-name="y" unicode="y" horiz-adv-x="1245" 
d="M139 -436l21 227q64 -22 123 -22q47 0 85 15.5t67.5 48.5t50.5 68t46 89l-403 1059h336l225 -676l293 676h320l-502 -1086q-48 -107 -94 -182.5t-101.5 -135t-121.5 -89t-144 -29.5q-113 0 -201 37z" />
    <glyph glyph-name="z" unicode="z" horiz-adv-x="1165" 
d="M698 797h-514l23 252h936l-19 -201l-567 -596h537l-23 -252h-977l19 201z" />
    <glyph glyph-name="braceleft" unicode="{" horiz-adv-x="849" 
d="M678 -160h123l-19 -209h-305q-115 0 -178.5 70t-54.5 186l37 424q6 60 -28 97.5t-95 37.5h-21l25 279h20q61 0 101.5 37.5t46.5 97.5l35 404q11 116 87 186t191 70h305l-18 -209h-123q-64 0 -107 -39.5t-49 -104.5l-28 -336q-9 -102 -79 -169.5t-173 -73.5l-21 -2l21 -2
q102 -6 159.5 -73.5t49.5 -170.5l-33 -356q-5 -65 31 -104.5t100 -39.5z" />
    <glyph glyph-name="bar" unicode="|" horiz-adv-x="604" 
d="M299 1520h274l-174 -1991h-274z" />
    <glyph glyph-name="braceright" unicode="}" horiz-adv-x="849" 
d="M309 -369h-305l19 209h122q65 0 108.5 40t47.5 104l33 356q7 103 76 170.5t172 73.5l20 2l-20 2q-102 6 -158 73t-47 170l29 336q6 64 -30.5 104t-101.5 40h-122l18 209h305q114 0 179 -70.5t55 -185.5l-35 -404q-6 -60 28 -97.5t95 -37.5h20l-24 -279h-21
q-61 0 -101 -37t-46 -98l-37 -424q-9 -115 -86.5 -185.5t-192.5 -70.5z" />
    <glyph glyph-name="asciitilde" unicode="~" horiz-adv-x="1339" 
d="M492 860q54 0 112.5 -23t109 -55t99.5 -64.5t99 -55.5t92 -23q59 0 118 31.5t103 83.5l78 -193q-70 -81 -164.5 -130.5t-175.5 -49.5q-54 0 -113.5 23t-111.5 55.5t-102 64.5t-102.5 55t-95.5 23q-54 0 -111.5 -32t-103.5 -83l-78 193q69 81 166.5 130.5t180.5 49.5z" />
    <glyph glyph-name="exclamdown" unicode="&#xa1;" horiz-adv-x="636" 
d="M152 -78l129 580h161l29 -580l-35 -393h-319zM571 846q-6 -75 -60.5 -123.5t-131.5 -48.5q-78 0 -124 48.5t-40 123.5q7 76 62 125t133 49q77 0 122.5 -49t38.5 -125z" />
    <glyph glyph-name="cent" unicode="&#xa2;" horiz-adv-x="1277" 
d="M776 -29l-18 -204h-273l19 210q-184 45 -287 194t-86 353q19 206 147.5 354t321.5 193l16 186h273l-17 -180q163 -33 268.5 -142t112.5 -261l-290 -37q-12 85 -77 139.5t-153 54.5q-113 0 -198 -87.5t-97 -219.5q-10 -133 58 -220t182 -87q90 0 164 54.5t104 140.5
l283 -37q-38 -151 -162 -261.5t-291 -142.5z" />
    <glyph glyph-name="sterling" unicode="&#xa3;" horiz-adv-x="1337" 
d="M899 1251q-76 0 -122 -56t-54 -148l-18 -216h454l-18 -206h-471q-33 -158 -101 -243t-174 -130h877l-23 -252h-1163l27 293q48 12 84 31.5t69.5 56t56.5 97.5t35 147h-196l18 206h205l18 226q18 200 152.5 326t343.5 126q205 0 325 -122t122 -316l-281 -45
q-2 102 -44.5 163.5t-121.5 61.5z" />
    <glyph glyph-name="currency" unicode="&#xa4;" horiz-adv-x="1507" 
d="M1159 977l168 160l166 -154l-172 -164q76 -123 61 -295q-12 -167 -112 -297l147 -166l-198 -151l-140 160q-146 -78 -323 -78q-182 0 -307 78l-181 -160l-164 151l177 166q-74 124 -62 297q14 162 113 295l-139 164l194 156l139 -160q146 78 322 78q179 0 311 -80z
M1075 524q12 132 -57.5 215.5t-190.5 83.5q-120 0 -204.5 -83.5t-96.5 -215.5q-11 -132 59 -215.5t191 -83.5q122 0 205 83.5t94 215.5z" />
    <glyph glyph-name="yen" unicode="&#xa5;" horiz-adv-x="1521" 
d="M575 625l-391 833h375l277 -672l374 672h381l-528 -833h348l-16 -170h-418l-10 -119h417l-14 -172h-418l-14 -164h-344l14 164h-424l15 172h424l10 119h-424l16 170h350z" />
    <glyph glyph-name="section" unicode="&#xa7;" horiz-adv-x="1306" 
d="M774 1444q183 0 308.5 -93.5t148.5 -250.5l-277 -35q-5 75 -62.5 123.5t-143.5 48.5q-82 0 -138.5 -33.5t-60.5 -85.5q-1 -15 1 -29t10 -25.5t16 -21.5t24.5 -19t28.5 -16t35 -14.5t38 -12t43 -11.5t44 -10.5t47 -10.5q44 -9 69.5 -15t67 -16.5t67 -20t60 -24.5t55 -30.5
t43 -37.5t34 -46.5t18 -55.5t3.5 -67q-7 -98 -84.5 -173.5t-193.5 -101.5q83 -31 129 -106t37 -174q-9 -114 -80.5 -205t-189.5 -141.5t-261 -50.5q-185 0 -312 99t-142 253l276 37q8 -75 68 -124.5t145 -49.5t141 34.5t60 94.5q2 25 -5.5 46.5t-19 36.5t-36 29t-44 22
t-57 18t-60.5 14.5t-67 13.5q-59 12 -101 22t-95 28t-88 40.5t-66 53.5t-44 74.5t-9 96.5q9 97 79 171.5t175 99.5q-73 33 -114 107t-32 171q14 164 157 268.5t355 104.5zM623 729q-72 -6 -125 -45t-56 -84q-3 -29 9 -52.5t31.5 -38.5t51 -26.5t58 -17.5t61.5 -12
q35 -7 107 -23q82 6 135.5 43t58.5 90q2 29 -10 52t-31 37t-50 24t-55 15t-58 9q-11 2 -62 14.5t-65 14.5z" />
    <glyph glyph-name="dieresis" unicode="&#xa8;" horiz-adv-x="1024" 
d="M348 1167q-69 0 -110.5 44t-36.5 110q6 67 55.5 111.5t118.5 44.5q70 0 111.5 -44t35.5 -112q-5 -66 -54.5 -110t-119.5 -44zM881 1167q-69 0 -111 44t-37 110q6 67 55.5 111.5t118.5 44.5q70 0 111 -44t35 -112q-5 -66 -53.5 -110t-118.5 -44z" />
    <glyph glyph-name="copyright" unicode="&#xa9;" horiz-adv-x="2045" 
d="M145 530q22 258 156 460.5t355.5 315.5t492.5 113t472 -112t299.5 -314.5t76.5 -462.5q-17 -198 -100 -366t-214.5 -285.5t-310 -183.5t-381.5 -66t-370 66t-277 183.5t-163 285.5t-36 366zM354 530q-18 -210 57.5 -373t230.5 -253t366 -90q318 0 535 199t245 517
q17 204 -59 364.5t-231.5 250.5t-364.5 90q-210 0 -382 -90t-276 -250.5t-121 -364.5zM1604 672l-211 -33q-15 105 -93.5 173.5t-183.5 68.5q-136 0 -236.5 -101t-113.5 -256q-12 -155 69.5 -255.5t219.5 -100.5q110 0 203.5 72t125.5 182l193 -39q-40 -180 -193 -296
t-348 -116q-118 0 -216.5 40.5t-165.5 112.5t-100 175.5t-22 224.5q22 241 190.5 397t407.5 156q192 0 326.5 -114t147.5 -291z" />
    <glyph glyph-name="guillemotleft" unicode="&#xab;" horiz-adv-x="1435" 
d="M877 1049l-428 -517l335 -532h-325l-326 532l418 517h326zM1430 1049l-429 -517l336 -532h-325l-326 532l418 517h326z" />
    <glyph glyph-name="logicalnot" unicode="&#xac;" horiz-adv-x="1318" 
d="M1004 143l32 381h-905l23 246h1126l-55 -627h-221z" />
    <glyph glyph-name="registered" unicode="&#xae;" horiz-adv-x="2045" 
d="M145 530q22 258 156 460.5t355.5 315.5t492.5 113t472 -112t299.5 -314.5t76.5 -462.5q-17 -198 -100 -366t-214.5 -285.5t-310 -183.5t-381.5 -66t-370 66t-277 183.5t-163 285.5t-36 366zM1788 530q17 204 -59 364.5t-231.5 250.5t-364.5 90q-210 0 -382 -90
t-276 -250.5t-121 -364.5q-18 -210 57.5 -373t230.5 -253t366 -90q318 0 535 199t245 517zM856 20h-219l90 1029h477q165 0 260.5 -88.5t83.5 -227.5q-9 -108 -80 -186.5t-184 -106.5l191 -420h-250l-156 398h-178zM1323 731q7 78 -40 122t-138 44h-213l-29 -340h219
q83 0 139 47.5t62 126.5z" />
    <glyph glyph-name="macron" unicode="&#xaf;" horiz-adv-x="864" 
d="M903 1417l-16 -186h-692l16 186h692z" />
    <glyph glyph-name="degree" unicode="&#xb0;" horiz-adv-x="1081" 
d="M600 682q-204 0 -319.5 118.5t-96.5 311.5q17 193 152.5 311.5t339.5 118.5t319.5 -118.5t98.5 -311.5q-19 -194 -154.5 -312t-339.5 -118zM657 1346q-104 0 -174 -65t-77 -169q-9 -104 49.5 -168.5t162.5 -64.5t174.5 64.5t79.5 168.5q8 104 -51.5 169t-163.5 65z" />
    <glyph glyph-name="plusminus" unicode="&#xb1;" horiz-adv-x="1134" 
d="M104 219h963l-18 -219h-963zM731 393h-258l19 221h-353l21 222h352l18 213h258l-18 -213h352l-20 -222h-352z" />
    <glyph glyph-name="acute" unicode="&#xb4;" horiz-adv-x="702" 
d="M735 1542l-303 -328h-239l249 328h293z" />
    <glyph glyph-name="paragraph" unicode="&#xb6;" horiz-adv-x="1632" 
d="M1595 1237h-196l-148 -1671h-270l147 1671h-200l-148 -1671h-270l94 1057q-210 0 -327.5 114.5t-100.5 302.5q19 188 156 303t344 115h938z" />
    <glyph glyph-name="periodcentered" unicode="&#xb7;" horiz-adv-x="528" 
d="M303 442q-77 0 -123.5 48.5t-40.5 123.5q7 75 62.5 123.5t132.5 48.5q78 0 123.5 -48.5t38.5 -123.5q-6 -75 -60.5 -123.5t-132.5 -48.5z" />
    <glyph glyph-name="cedilla" unicode="&#xb8;" horiz-adv-x="649" 
d="M246 -246h-107l70 287h172l-47 -191q98 0 152 -54.5t46 -145.5t-82 -147t-186 -56q-82 0 -141 40.5t-72 106.5l115 60q9 -32 35.5 -52t58.5 -20q38 0 63.5 22.5t28.5 59.5q3 40 -26 65t-80 25z" />
    <glyph glyph-name="guillemotright" unicode="&#xbb;" horiz-adv-x="1433" 
d="M842 532l-420 -532h-326l432 532l-340 517h326zM1395 532l-420 -532h-326l432 532l-340 517h326z" />
    <glyph glyph-name="questiondown" unicode="&#xbf;" horiz-adv-x="1304" 
d="M571 598h283q-10 -106 -41 -182.5t-79 -129t-124 -100.5q-40 -27 -52 -35.5t-43 -33.5t-43 -41.5t-25 -43.5t-15 -55q-7 -83 48 -137.5t145 -54.5q102 0 177 74t99 192l305 -57q-40 -211 -211 -344t-407 -133q-229 0 -370 123.5t-124 312.5q11 126 84 212t199 154
q93 51 138.5 111t55.5 168zM920 885q-6 -75 -61.5 -123.5t-133.5 -48.5t-123 48.5t-39 123.5q6 76 60.5 125t132.5 49t124 -49t40 -125z" />
    <glyph glyph-name="Agrave" unicode="&#xc0;" horiz-adv-x="1550" 
d="M1153 1458l360 -1458h-360l-63 264h-586l-105 -264h-362l616 1458h500zM879 1163l-279 -651h442zM782 1636l-245 277h303l204 -277h-262z" />
    <glyph glyph-name="Aacute" unicode="&#xc1;" horiz-adv-x="1550" 
d="M1153 1458l360 -1458h-360l-63 264h-586l-105 -264h-362l616 1458h500zM879 1163l-279 -651h442zM1329 1913l-295 -277h-262l252 277h305z" />
    <glyph glyph-name="Acircumflex" unicode="&#xc2;" horiz-adv-x="1550" 
d="M1153 1458l360 -1458h-360l-63 264h-586l-105 -264h-362l616 1458h500zM879 1163l-279 -651h442zM770 1626h-225l250 287h303l196 -289l-223 2l-137 160z" />
    <glyph glyph-name="Atilde" unicode="&#xc3;" horiz-adv-x="1550" 
d="M1153 1458l360 -1458h-360l-63 264h-586l-105 -264h-362l616 1458h500zM879 1163l-279 -651h442zM666 1696l-138 86q36 78 114 131t165 53q49 0 93 -17.5t70.5 -39t59 -39t60.5 -17.5q34 0 68 25t56 64l140 -87q-36 -78 -117 -131t-172 -53q-53 0 -98 17.5t-70.5 38
t-55 38t-55.5 17.5q-61 0 -120 -86z" />
    <glyph glyph-name="Adieresis" unicode="&#xc4;" horiz-adv-x="1550" 
d="M1153 1458l360 -1458h-360l-63 264h-586l-105 -264h-362l616 1458h500zM879 1163l-279 -651h442zM668 1628q-70 0 -112 45t-36 115q6 69 55.5 113.5t118.5 44.5q70 0 111 -44.5t35 -113.5q-6 -71 -54 -115.5t-118 -44.5zM1176 1628q-70 0 -112 45t-36 115
q6 69 55.5 113.5t118.5 44.5q71 0 112.5 -44.5t35.5 -113.5q-6 -70 -54.5 -115t-119.5 -45z" />
    <glyph glyph-name="Aring" unicode="&#xc5;" horiz-adv-x="1550" 
d="M1153 1458l360 -1458h-360l-63 264h-586l-105 -264h-362l616 1458h500zM879 1163l-279 -651h442zM909 1554q-109 0 -172.5 63t-54.5 163t83.5 161.5t184.5 61.5q109 0 173 -62.5t55 -160.5q-9 -100 -84 -163t-185 -63zM936 1855q-34 0 -56.5 -20.5t-25.5 -54.5t16.5 -55
t53.5 -21t57.5 21t26.5 55q1 34 -18.5 54.5t-53.5 20.5z" />
    <glyph glyph-name="AE" unicode="&#xc6;" horiz-adv-x="2041" 
d="M1968 276l-24 -276h-926l20 242h-479l-141 -242h-381l858 1458h1155l-25 -278h-595l-27 -318h514l-23 -244h-516l-28 -342h618zM1061 485l63 740l-428 -740h365z" />
    <glyph glyph-name="Ccedilla" unicode="&#xc7;" horiz-adv-x="1699" 
d="M844 -246h-107l47 199q-199 20 -346.5 124t-220.5 274t-55 378q19 224 134.5 402t302 278t409.5 100q182 0 332 -72.5t240 -202t101 -292.5l-323 -37q-20 135 -123 222t-244 87q-195 0 -330.5 -135.5t-154.5 -349.5q-19 -213 93 -349t306 -136q138 0 258 85t164 214
l318 -41q-52 -221 -244.5 -373.5t-444.5 -175.5l-24 -103q97 0 151 -54.5t47 -145.5q-8 -91 -82 -147t-188 -56q-82 0 -140.5 40.5t-70.5 106.5l113 60q9 -32 36 -52t60 -20q37 0 63 23t29 59q3 40 -26 65t-80 25z" />
    <glyph glyph-name="Egrave" unicode="&#xc8;" horiz-adv-x="1306" 
d="M522 276h713l-25 -276h-1044l127 1458h1024l-25 -276h-692l-27 -314h611l-21 -241h-610zM725 1636l-246 277h303l203 -277h-260z" />
    <glyph glyph-name="Eacute" unicode="&#xc9;" horiz-adv-x="1306" 
d="M522 276h713l-25 -276h-1044l127 1458h1024l-25 -276h-692l-27 -314h611l-21 -241h-610zM1229 1913l-295 -277h-260l252 277h303z" />
    <glyph glyph-name="Ecircumflex" unicode="&#xca;" horiz-adv-x="1306" 
d="M522 276h713l-25 -276h-1044l127 1458h1024l-25 -276h-692l-27 -314h611l-21 -241h-610zM672 1626h-226l248 287h305l195 -289l-223 2l-135 160z" />
    <glyph glyph-name="Edieresis" unicode="&#xcb;" horiz-adv-x="1306" 
d="M522 276h713l-25 -276h-1044l127 1458h1024l-25 -276h-692l-27 -314h611l-21 -241h-610zM569 1628q-71 0 -112 45t-35 115q6 69 55 113.5t119 44.5t110.5 -44.5t34.5 -113.5q-6 -71 -54 -115.5t-118 -44.5zM1077 1628q-69 0 -111 45t-36 115q6 69 55.5 113.5t118.5 44.5
q70 0 110.5 -44.5t34.5 -113.5q-6 -71 -54 -115.5t-118 -44.5z" />
    <glyph glyph-name="Igrave" unicode="&#xcc;" horiz-adv-x="675" 
d="M637 1458l-127 -1458h-344l127 1458h344zM342 1636l-246 277h303l203 -277h-260z" />
    <glyph glyph-name="Iacute" unicode="&#xcd;" horiz-adv-x="681" 
d="M637 1458l-127 -1458h-344l127 1458h344zM887 1913l-295 -277h-260l252 277h303z" />
    <glyph glyph-name="Icircumflex" unicode="&#xce;" horiz-adv-x="675" 
d="M637 1458l-127 -1458h-344l127 1458h344zM328 1602h-226l250 288h303l197 -288h-225l-135 161z" />
    <glyph glyph-name="Idieresis" unicode="&#xcf;" horiz-adv-x="667" 
d="M633 1458l-127 -1458h-344l127 1458h344zM223 1628q-71 0 -112 45t-35 115q6 69 55 113.5t119 44.5t110.5 -44.5t34.5 -113.5q-6 -71 -54 -115.5t-118 -44.5zM731 1628q-69 0 -111 45t-36 115q6 69 55.5 113.5t118.5 44.5q70 0 111.5 -44.5t35.5 -113.5
q-6 -70 -54.5 -115t-119.5 -45z" />
    <glyph glyph-name="Ntilde" unicode="&#xd1;" horiz-adv-x="1622" 
d="M678 1458l489 -1042l90 1042h328l-127 -1458h-385l-491 1040l-90 -1040h-326l127 1458h385zM700 1696l-137 86q36 78 114 131t165 53q49 0 93 -17.5t70.5 -39t58.5 -39t60 -17.5q34 0 68.5 25t56.5 64l140 -87q-38 -78 -118.5 -131t-170.5 -53q-53 0 -98 17.5t-70.5 38
t-55 38t-55.5 17.5q-62 0 -121 -86z" />
    <glyph glyph-name="Ograve" unicode="&#xd2;" horiz-adv-x="1810" 
d="M162 729q20 228 136.5 405.5t308.5 276t429 98.5q236 0 411.5 -98.5t262 -276t66.5 -405.5q-20 -229 -137.5 -406.5t-309.5 -275.5t-428 -98q-177 0 -322.5 57t-242 159t-143 247.5t-31.5 316.5zM506 729q-19 -213 99 -348t321 -137q204 0 345.5 135.5t160.5 349.5
t-98.5 349.5t-321.5 135.5t-345.5 -135.5t-160.5 -349.5zM922 1636l-246 277h303l203 -277h-260z" />
    <glyph glyph-name="Oacute" unicode="&#xd3;" horiz-adv-x="1810" 
d="M162 729q20 228 136.5 405.5t308.5 276t429 98.5q236 0 411.5 -98.5t262 -276t66.5 -405.5q-20 -229 -137.5 -406.5t-309.5 -275.5t-428 -98q-177 0 -322.5 57t-242 159t-143 247.5t-31.5 316.5zM506 729q-19 -213 99 -348t321 -137q204 0 345.5 135.5t160.5 349.5
t-98.5 349.5t-321.5 135.5t-345.5 -135.5t-160.5 -349.5zM1444 1913l-295 -277h-262l252 277h305z" />
    <glyph glyph-name="Ocircumflex" unicode="&#xd4;" horiz-adv-x="1810" 
d="M162 729q20 228 136.5 405.5t308.5 276t429 98.5q236 0 411.5 -98.5t262 -276t66.5 -405.5q-20 -229 -137.5 -406.5t-309.5 -275.5t-428 -98q-177 0 -322.5 57t-242 159t-143 247.5t-31.5 316.5zM506 729q-19 -213 99 -348t321 -137q204 0 345.5 135.5t160.5 349.5
t-98.5 349.5t-321.5 135.5t-345.5 -135.5t-160.5 -349.5zM897 1626h-225l248 287h305l194 -289l-223 2l-135 160z" />
    <glyph glyph-name="Otilde" unicode="&#xd5;" horiz-adv-x="1810" 
d="M162 729q20 228 136.5 405.5t308.5 276t429 98.5q236 0 411.5 -98.5t262 -276t66.5 -405.5q-20 -229 -137.5 -406.5t-309.5 -275.5t-428 -98q-177 0 -322.5 57t-242 159t-143 247.5t-31.5 316.5zM506 729q-19 -213 99 -348t321 -137q204 0 345.5 135.5t160.5 349.5
t-98.5 349.5t-321.5 135.5t-345.5 -135.5t-160.5 -349.5zM793 1696l-140 86q38 78 115.5 131t163.5 53q49 0 93 -17.5t71 -39t59 -39t59 -17.5q35 0 69 24.5t58 64.5l140 -87q-38 -79 -118.5 -131.5t-172.5 -52.5q-52 0 -96.5 17.5t-70 38t-55.5 38t-57 17.5q-59 0 -118 -86
z" />
    <glyph glyph-name="Odieresis" unicode="&#xd6;" horiz-adv-x="1810" 
d="M162 729q20 228 136.5 405.5t308.5 276t429 98.5q236 0 411.5 -98.5t262 -276t66.5 -405.5q-20 -229 -137.5 -406.5t-309.5 -275.5t-428 -98q-177 0 -322.5 57t-242 159t-143 247.5t-31.5 316.5zM506 729q-19 -213 99 -348t321 -137q204 0 345.5 135.5t160.5 349.5
t-98.5 349.5t-321.5 135.5t-345.5 -135.5t-160.5 -349.5zM795 1628q-71 0 -113.5 45t-36.5 115q6 69 55.5 113.5t120.5 44.5q70 0 111 -44.5t35 -113.5q-6 -71 -54 -115.5t-118 -44.5zM1303 1628q-70 0 -112 45t-36 115q6 69 55.5 113.5t118.5 44.5q70 0 111 -44.5
t35 -113.5q-6 -71 -54 -115.5t-118 -44.5z" />
    <glyph glyph-name="multiply" unicode="&#xd7;" horiz-adv-x="913" 
d="M285 229l-164 177l213 202l-176 203l192 176l176 -199l209 201l164 -178l-215 -203l176 -202l-190 -177l-176 201z" />
    <glyph glyph-name="Oslash" unicode="&#xd8;" horiz-adv-x="1769" 
d="M1290 1462l180 299l218 2l-230 -385q147 -103 221 -272.5t56 -376.5q-19 -224 -135.5 -402t-304.5 -278t-414 -100q-136 0 -258 39l-162 -275h-217l211 355q-156 101 -234 274t-59 387q19 224 135.5 402t304.5 278t414 100q150 0 274 -47zM506 729q-9 -116 24 -211.5
t101 -157.5l495 830q-58 24 -135 24q-192 0 -329 -137t-156 -348zM1391 729q9 108 -20.5 200t-90.5 156l-492 -825q49 -16 117 -16q192 0 329.5 136.5t156.5 348.5z" />
    <glyph glyph-name="Ugrave" unicode="&#xd9;" horiz-adv-x="1607" 
d="M1165 612l74 846h344l-74 -854q-17 -191 -112 -340.5t-250.5 -232t-345.5 -82.5q-290 0 -457 182.5t-141 472.5l73 854h347l-74 -846q-13 -149 61.5 -257t214.5 -111q137 0 231.5 103t108.5 265zM819 1636l-246 277h306l202 -277h-262z" />
    <glyph glyph-name="Uacute" unicode="&#xda;" horiz-adv-x="1607" 
d="M1165 612l74 846h344l-74 -854q-17 -191 -112 -340.5t-250.5 -232t-345.5 -82.5q-290 0 -457 182.5t-141 472.5l73 854h347l-74 -846q-13 -149 61.5 -257t214.5 -111q137 0 231.5 103t108.5 265zM1341 1913l-294 -277h-261l252 277h303z" />
    <glyph glyph-name="Ucircumflex" unicode="&#xdb;" horiz-adv-x="1607" 
d="M1165 612l74 846h344l-74 -854q-17 -191 -112 -340.5t-250.5 -232t-345.5 -82.5q-290 0 -457 182.5t-141 472.5l73 854h347l-74 -846q-13 -149 61.5 -257t214.5 -111q137 0 231.5 103t108.5 265zM795 1626h-224l248 287h305l195 -289l-223 2l-138 160z" />
    <glyph glyph-name="Udieresis" unicode="&#xdc;" horiz-adv-x="1607" 
d="M1165 612l74 846h344l-74 -854q-17 -191 -112 -340.5t-250.5 -232t-345.5 -82.5q-290 0 -457 182.5t-141 472.5l73 854h347l-74 -846q-13 -149 61.5 -257t214.5 -111q137 0 231.5 103t108.5 265zM692 1628q-69 0 -111 45t-36 115q6 69 55.5 113.5t118.5 44.5
q70 0 111.5 -44.5t35.5 -113.5q-6 -70 -54.5 -115t-119.5 -45zM1202 1628q-71 0 -113 45t-36 115q6 69 55.5 113.5t120.5 44.5q70 0 110.5 -44.5t34.5 -113.5q-6 -71 -54 -115.5t-118 -44.5z" />
    <glyph glyph-name="Yacute" unicode="&#xdd;" horiz-adv-x="1439" 
d="M596 508l-434 950h364l269 -647l364 647h371l-590 -950l-45 -508h-344zM1257 1913l-294 -277h-261l252 277h303z" />
    <glyph glyph-name="germandbls" unicode="&#xdf;" horiz-adv-x="1529" 
d="M575 981l-86 -981h-344l86 983q20 229 198 373.5t443 144.5q244 0 386.5 -118t125.5 -306q-9 -105 -73 -184t-158 -102q139 -27 222.5 -143t70.5 -273q-17 -185 -159.5 -305.5t-342.5 -120.5q-161 0 -319 74l84 219q92 -47 176 -47q89 0 150 60t69 153q11 116 -53.5 186
t-198.5 70h-92l18 208h96q76 0 128.5 50.5t60.5 128.5q7 89 -53.5 145.5t-163.5 56.5q-111 0 -186 -74t-85 -198z" />
    <glyph glyph-name="agrave" unicode="&#xe0;" horiz-adv-x="1384" 
d="M1024 903l12 146h307l-92 -1049h-307l12 145q-70 -89 -165.5 -137.5t-206.5 -48.5q-221 0 -348 158t-105 407q23 249 177.5 407.5t375.5 158.5q111 0 198 -49t142 -138zM688 229q120 0 204 83.5t95 211.5q12 128 -58 211.5t-190 83.5t-204.5 -83.5t-96.5 -211.5
q-11 -128 59.5 -211.5t190.5 -83.5zM436 1546l291 2l193 -329h-240z" />
    <glyph glyph-name="aacute" unicode="&#xe1;" horiz-adv-x="1384" 
d="M1024 903l12 146h307l-92 -1049h-307l12 145q-70 -89 -165.5 -137.5t-206.5 -48.5q-221 0 -348 158t-105 407q23 249 177.5 407.5t375.5 158.5q111 0 198 -49t142 -138zM688 229q120 0 204 83.5t95 211.5q12 128 -58 211.5t-190 83.5t-204.5 -83.5t-96.5 -211.5
q-11 -128 59.5 -211.5t190.5 -83.5zM895 1546h291l-303 -327h-240z" />
    <glyph glyph-name="acircumflex" unicode="&#xe2;" horiz-adv-x="1384" 
d="M1024 903l12 146h307l-92 -1049h-307l12 145q-70 -89 -165.5 -137.5t-206.5 -48.5q-221 0 -348 158t-105 407q23 249 177.5 407.5t375.5 158.5q111 0 198 -49t142 -138zM688 229q120 0 204 83.5t95 211.5q12 128 -58 211.5t-190 83.5t-204.5 -83.5t-96.5 -211.5
q-11 -128 59.5 -211.5t190.5 -83.5zM625 1219h-226l252 329h303l197 -329h-225l-133 200z" />
    <glyph glyph-name="atilde" unicode="&#xe3;" horiz-adv-x="1384" 
d="M1024 903l12 146h307l-92 -1049h-307l12 145q-70 -89 -165.5 -137.5t-206.5 -48.5q-221 0 -348 158t-105 407q23 249 177.5 407.5t375.5 158.5q111 0 198 -49t142 -138zM688 229q120 0 204 83.5t95 211.5q12 128 -58 211.5t-190 83.5t-204.5 -83.5t-96.5 -211.5
q-11 -128 59.5 -211.5t190.5 -83.5zM530 1268l-139 73q37 79 116 132t165 53q48 0 92 -17.5t71 -38t59.5 -38t61.5 -17.5q35 0 67.5 21t53.5 55l140 -76q-36 -79 -115.5 -131.5t-171.5 -52.5q-52 0 -97.5 17t-72 38t-58 38t-59.5 17q-64 0 -113 -73z" />
    <glyph glyph-name="adieresis" unicode="&#xe4;" horiz-adv-x="1384" 
d="M1024 903l12 146h307l-92 -1049h-307l12 145q-70 -89 -165.5 -137.5t-206.5 -48.5q-221 0 -348 158t-105 407q23 249 177.5 407.5t375.5 158.5q111 0 198 -49t142 -138zM688 229q120 0 204 83.5t95 211.5q12 128 -58 211.5t-190 83.5t-204.5 -83.5t-96.5 -211.5
q-11 -128 59.5 -211.5t190.5 -83.5zM510 1241q-70 0 -110.5 44t-34.5 112q5 66 53.5 109.5t118.5 43.5t111 -43t36 -110q-6 -68 -55 -112t-119 -44zM1040 1241q-69 0 -110 44t-35 112q4 66 53.5 109.5t118.5 43.5q70 0 112.5 -43.5t37.5 -109.5q-6 -67 -56 -111.5
t-121 -44.5z" />
    <glyph glyph-name="aring" unicode="&#xe5;" horiz-adv-x="1384" 
d="M1024 903l12 146h307l-92 -1049h-307l12 145q-70 -89 -165.5 -137.5t-206.5 -48.5q-221 0 -348 158t-105 407q23 249 177.5 407.5t375.5 158.5q111 0 198 -49t142 -138zM688 229q120 0 204 83.5t95 211.5q12 128 -58 211.5t-190 83.5t-204.5 -83.5t-96.5 -211.5
q-11 -128 59.5 -211.5t190.5 -83.5zM782 1186q-129 0 -203.5 74t-64.5 192q10 120 97 193t216 73q131 0 205 -73t64 -193q-11 -119 -97.5 -192.5t-216.5 -73.5zM815 1571q-53 0 -89 -32.5t-40 -86.5q-4 -52 26 -85.5t83 -33.5q52 0 88 33t41 86q4 54 -26 86.5t-83 32.5z" />
    <glyph glyph-name="ae" unicode="&#xe6;" horiz-adv-x="2166" 
d="M2128 537q-3 -53 -17 -115h-821q12 -106 84.5 -166.5t179.5 -60.5q161 0 242 131l256 -62q-60 -133 -202.5 -219t-303.5 -86q-132 0 -236 57.5t-147 149.5l-14 -166h-197l13 145q-71 -89 -170 -137.5t-213 -48.5q-221 0 -347 158t-104 407q23 250 176.5 408t374.5 158
q113 0 202 -49t148 -138l12 146h197l-14 -166q62 96 168.5 151.5t242.5 55.5q154 0 271.5 -71.5t175 -197.5t43.5 -284zM438 524q-12 -140 60 -229.5t196 -89.5q123 0 210.5 88t99.5 231q12 141 -59 230.5t-195 89.5q-125 0 -212.5 -89.5t-99.5 -230.5zM1300 596h523
q5 107 -62.5 178.5t-179.5 71.5q-103 0 -179 -67.5t-102 -182.5z" />
    <glyph glyph-name="ccedilla" unicode="&#xe7;" horiz-adv-x="1277" 
d="M618 -246h-106l51 211q-210 29 -330.5 183t-101.5 376q22 246 198 406t425 160q206 0 348 -117.5t151 -298.5l-290 -37q-12 85 -77 139.5t-153 54.5q-113 0 -198 -87.5t-97 -219.5q-10 -133 58 -220t182 -87q90 0 164 54.5t104 140.5l283 -37q-39 -161 -176.5 -274
t-317.5 -136l-28 -115q98 0 152 -54.5t46 -145.5t-82 -147t-188 -56q-82 0 -139.5 40.5t-71.5 106.5l113 60q10 -32 37 -52t59 -20q38 0 63.5 22.5t28.5 59.5q3 40 -26.5 65t-80.5 25z" />
    <glyph glyph-name="egrave" unicode="&#xe8;" horiz-adv-x="1314" 
d="M688 195q82 0 151.5 39t102.5 100l264 -60q-54 -137 -208 -226t-339 -89q-254 0 -401.5 160t-124.5 413q22 246 197.5 402t429.5 156q252 0 395 -156.5t121 -405.5q-1 -7 -4.5 -43t-7.5 -49l-822 2q9 -111 75.5 -177t170.5 -66zM457 623h516q-6 101 -72.5 166t-169.5 65
q-100 0 -172 -62.5t-102 -168.5zM434 1546l291 2l195 -329h-240z" />
    <glyph glyph-name="eacute" unicode="&#xe9;" horiz-adv-x="1314" 
d="M688 195q82 0 151.5 39t102.5 100l264 -60q-54 -137 -208 -226t-339 -89q-254 0 -401.5 160t-124.5 413q22 246 197.5 402t429.5 156q252 0 395 -156.5t121 -405.5q-1 -7 -4.5 -43t-7.5 -49l-822 2q9 -111 75.5 -177t170.5 -66zM457 623h516q-6 101 -72.5 166t-169.5 65
q-100 0 -172 -62.5t-102 -168.5zM881 1546h290l-301 -327h-239z" />
    <glyph glyph-name="ecircumflex" unicode="&#xea;" horiz-adv-x="1314" 
d="M688 195q82 0 151.5 39t102.5 100l264 -60q-54 -137 -208 -226t-339 -89q-254 0 -401.5 160t-124.5 413q22 246 197.5 402t429.5 156q252 0 395 -156.5t121 -405.5q-1 -7 -4.5 -43t-7.5 -49l-822 2q9 -111 75.5 -177t170.5 -66zM457 623h516q-6 101 -72.5 166t-169.5 65
q-100 0 -172 -62.5t-102 -168.5zM623 1219h-226l254 329h303l197 -329h-227l-131 200z" />
    <glyph glyph-name="edieresis" unicode="&#xeb;" horiz-adv-x="1314" 
d="M688 195q82 0 151.5 39t102.5 100l264 -60q-54 -137 -208 -226t-339 -89q-254 0 -401.5 160t-124.5 413q22 246 197.5 402t429.5 156q252 0 395 -156.5t121 -405.5q-1 -7 -4.5 -43t-7.5 -49l-822 2q9 -111 75.5 -177t170.5 -66zM457 623h516q-6 101 -72.5 166t-169.5 65
q-100 0 -172 -62.5t-102 -168.5zM504 1200q-69 0 -110.5 44.5t-35.5 111.5t54.5 110t117.5 43q71 0 113.5 -43t36.5 -110q-6 -68 -56 -112t-120 -44zM1036 1200q-70 0 -110.5 44t-34.5 112t54 110.5t118 42.5q71 0 112 -43t35 -110q-6 -68 -55 -112t-119 -44z" />
    <glyph glyph-name="igrave" unicode="&#xec;" horiz-adv-x="579" 
d="M541 1049l-92 -1049h-308l92 1049h308zM51 1546l291 2l195 -329h-240z" />
    <glyph glyph-name="iacute" unicode="&#xed;" horiz-adv-x="579" 
d="M537 1049l-93 -1049h-307l92 1049h308zM506 1546h291l-301 -327h-240z" />
    <glyph glyph-name="icircumflex" unicode="&#xee;" horiz-adv-x="579" 
d="M535 1049l-93 -1049h-307l92 1049h308zM246 1219h-226l252 329h303l197 -329h-227l-131 200z" />
    <glyph glyph-name="idieresis" unicode="&#xef;" horiz-adv-x="585" 
d="M539 1049l-93 -1049h-307l92 1049h308zM131 1200q-69 0 -110 44t-35 112q6 67 54.5 110t117.5 43q71 0 113 -43t36 -110q-6 -68 -56 -112t-120 -44zM664 1200q-70 0 -111 44t-35 112t54 110.5t118 42.5q71 0 112.5 -43t35.5 -110q-6 -68 -55 -112t-119 -44z" />
    <glyph glyph-name="ntilde" unicode="&#xf1;" 
d="M860 1090q177 0 276.5 -122.5t82.5 -312.5l-58 -655h-307l53 602q8 97 -39.5 157t-136.5 60q-92 0 -161 -65t-78 -164l-52 -590h-307l92 1049h299l-12 -142q63 85 155 134t193 49zM492 1268l-140 73q37 79 116 132t165 53q48 0 92 -17.5t71 -38t60 -38t62 -17.5
q35 0 67 21t53 55l140 -76q-36 -79 -115.5 -131.5t-171.5 -52.5q-52 0 -97.5 17t-72 38t-58 38t-59.5 17q-63 0 -112 -73z" />
    <glyph glyph-name="ograve" unicode="&#xf2;" horiz-adv-x="1335" 
d="M1294 524q-22 -251 -197 -408t-433 -157t-406.5 157.5t-126.5 407.5q15 165 100 294t224 200.5t309 71.5q258 0 405.5 -157.5t124.5 -408.5zM987 524q12 129 -57.5 212t-190.5 83t-205 -83t-96 -212q-11 -129 59 -212t191 -83t204.5 83t94.5 212zM426 1546l291 2
l192 -329h-239z" />
    <glyph glyph-name="oacute" unicode="&#xf3;" horiz-adv-x="1335" 
d="M1294 524q-22 -251 -197 -408t-433 -157t-406.5 157.5t-126.5 407.5q15 165 100 294t224 200.5t309 71.5q258 0 405.5 -157.5t124.5 -408.5zM987 524q12 129 -57.5 212t-190.5 83t-205 -83t-96 -212q-11 -129 59 -212t191 -83t204.5 83t94.5 212zM885 1546h291l-304 -327
h-239z" />
    <glyph glyph-name="ocircumflex" unicode="&#xf4;" horiz-adv-x="1335" 
d="M1294 524q-22 -251 -197 -408t-433 -157t-406.5 157.5t-126.5 407.5q15 165 100 294t224 200.5t309 71.5q258 0 405.5 -157.5t124.5 -408.5zM987 524q12 129 -57.5 212t-190.5 83t-205 -83t-96 -212q-11 -129 59 -212t191 -83t204.5 83t94.5 212zM625 1219h-224l252 329
h303l197 -329h-227l-131 200z" />
    <glyph glyph-name="otilde" unicode="&#xf5;" horiz-adv-x="1335" 
d="M1294 524q-22 -251 -197 -408t-433 -157t-406.5 157.5t-126.5 407.5q15 165 100 294t224 200.5t309 71.5q258 0 405.5 -157.5t124.5 -408.5zM987 524q12 129 -57.5 212t-190.5 83t-205 -83t-96 -212q-11 -129 59 -212t191 -83t204.5 83t94.5 212zM532 1268l-139 73
q37 80 115 132.5t164 52.5q49 0 93 -17.5t70.5 -38t59 -38t61.5 -17.5q35 0 68 21t55 55l140 -76q-38 -79 -118 -131.5t-171 -52.5q-52 0 -97 17t-71 38t-57.5 38t-59.5 17q-67 0 -113 -73z" />
    <glyph glyph-name="odieresis" unicode="&#xf6;" horiz-adv-x="1335" 
d="M1294 524q-22 -251 -197 -408t-433 -157t-406.5 157.5t-126.5 407.5q15 165 100 294t224 200.5t309 71.5q258 0 405.5 -157.5t124.5 -408.5zM987 524q12 129 -57.5 212t-190.5 83t-205 -83t-96 -212q-11 -129 59 -212t191 -83t204.5 83t94.5 212zM506 1200
q-69 0 -110.5 44.5t-35.5 111.5t54.5 110t117.5 43q71 0 113.5 -43t36.5 -110q-6 -68 -56 -112t-120 -44zM1038 1200q-69 0 -110 44t-35 112q6 67 54.5 110t117.5 43q71 0 112 -43t35 -110q-6 -68 -55 -112t-119 -44z" />
    <glyph glyph-name="divide" unicode="&#xf7;" horiz-adv-x="1093" 
d="M551 41q-66 0 -106.5 41.5t-34.5 105.5q6 65 52.5 106.5t112.5 41.5q68 0 108 -42t34 -106q-6 -65 -52.5 -106t-113.5 -41zM150 733h921l-20 -235h-922zM623 877q-66 0 -106 41.5t-34 105.5q4 64 51.5 105.5t114.5 41.5t107 -41t35 -106q-6 -64 -53 -105.5t-115 -41.5z
" />
    <glyph glyph-name="oslash" unicode="&#xf8;" horiz-adv-x="1359" 
d="M969 1063l98 166h188l-139 -234q109 -75 162.5 -196.5t40.5 -274.5q-22 -251 -200.5 -408t-442.5 -157q-79 0 -172 21l-86 -144h-187l123 205q-118 71 -177 196.5t-46 286.5q15 165 101.5 294t228 200.5t315.5 71.5q97 0 193 -27zM401 524q-12 -168 88 -262l357 594
q-40 12 -90 12q-142 0 -242 -96t-113 -248zM1049 524q15 147 -70 248l-350 -586q34 -6 67 -6q143 0 242 96t111 248z" />
    <glyph glyph-name="ugrave" unicode="&#xf9;" 
d="M504 -41q-176 0 -275 122t-82 312l58 656h307l-53 -603q-8 -97 39.5 -157t136.5 -60q92 0 161 65.5t78 164.5l52 590h307l-92 -1049h-299l12 141q-63 -85 -155.5 -133.5t-194.5 -48.5zM395 1546h291l193 -329h-240z" />
    <glyph glyph-name="uacute" unicode="&#xfa;" 
d="M504 -41q-176 0 -275 122t-82 312l58 656h307l-53 -603q-8 -97 39.5 -157t136.5 -60q92 0 161 65.5t78 164.5l52 590h307l-92 -1049h-299l12 141q-63 -85 -155.5 -133.5t-194.5 -48.5zM854 1546h291l-303 -329h-240z" />
    <glyph glyph-name="ucircumflex" unicode="&#xfb;" 
d="M504 -41q-176 0 -275 122t-82 312l58 656h307l-53 -603q-8 -97 39.5 -157t136.5 -60q92 0 161 65.5t78 164.5l52 590h307l-92 -1049h-299l12 141q-63 -85 -155.5 -133.5t-194.5 -48.5zM584 1217l-226 2l252 327h303l197 -329h-227l-131 200z" />
    <glyph glyph-name="udieresis" unicode="&#xfc;" 
d="M504 -41q-176 0 -275 122t-82 312l58 656h307l-53 -603q-8 -97 39.5 -157t136.5 -60q92 0 161 65.5t78 164.5l52 590h307l-92 -1049h-299l12 141q-63 -85 -155.5 -133.5t-194.5 -48.5zM465 1198q-70 0 -112 44t-36 112q6 67 55 110t120 43t112 -43t35 -110
q-6 -68 -55 -112t-119 -44zM995 1198q-69 0 -110 44t-35 112q6 67 54.5 110t117.5 43q71 0 113 -43t36 -110q-6 -68 -56 -112t-120 -44z" />
    <glyph glyph-name="yacute" unicode="&#xfd;" horiz-adv-x="1245" 
d="M139 -436l21 227q64 -22 123 -22q47 0 85 15.5t67.5 48.5t50.5 68t46 89l-403 1059h336l225 -676l293 676h320l-502 -1086q-48 -107 -94 -182.5t-101.5 -135t-121.5 -89t-144 -29.5q-113 0 -201 37zM862 1546h291l-301 -327h-240z" />
    <glyph glyph-name="ydieresis" unicode="&#xff;" horiz-adv-x="1245" 
d="M139 -436l21 227q64 -22 123 -22q47 0 85 15.5t67.5 48.5t50.5 68t46 89l-403 1059h336l225 -676l293 676h320l-502 -1086q-48 -107 -94 -182.5t-101.5 -135t-121.5 -89t-144 -29.5q-113 0 -201 37zM463 1200q-70 0 -112 44t-36 112q6 67 54.5 110t119.5 43q70 0 112 -43
t36 -110t-55.5 -111.5t-118.5 -44.5zM993 1200q-69 0 -110 44t-35 112q6 67 54.5 110t117.5 43q71 0 113 -43t36 -110q-6 -68 -56 -112t-120 -44z" />
    <glyph glyph-name="Amacron" unicode="&#x100;" horiz-adv-x="1550" 
d="M1153 1458l360 -1458h-360l-63 264h-586l-105 -264h-362l616 1458h500zM879 1163l-279 -651h442zM1288 1862l-16 -185h-692l16 185h692z" />
    <glyph glyph-name="amacron" unicode="&#x101;" horiz-adv-x="1384" 
d="M1024 903l12 146h307l-92 -1049h-307l12 145q-70 -89 -165.5 -137.5t-206.5 -48.5q-221 0 -348 158t-105 407q23 249 177.5 407.5t375.5 158.5q111 0 198 -49t142 -138zM688 229q120 0 204 83.5t95 211.5q12 128 -58 211.5t-190 83.5t-204.5 -83.5t-96.5 -211.5
q-11 -128 59.5 -211.5t190.5 -83.5zM1122 1456l-16 -186h-692l16 186h692z" />
    <glyph glyph-name="Abreve" unicode="&#x102;" horiz-adv-x="1550" 
d="M1153 1458l360 -1458h-360l-63 264h-586l-105 -264h-362l616 1458h500zM879 1163l-279 -651h442zM1071 1913h195q-12 -128 -108.5 -208.5t-237.5 -80.5q-140 0 -221.5 81t-69.5 208h192q-4 -52 28.5 -84.5t86.5 -32.5q56 0 93.5 32.5t41.5 84.5z" />
    <glyph glyph-name="abreve" unicode="&#x103;" horiz-adv-x="1384" 
d="M1024 903l12 146h307l-92 -1049h-307l12 145q-70 -89 -165.5 -137.5t-206.5 -48.5q-221 0 -348 158t-105 407q23 249 177.5 407.5t375.5 158.5q111 0 198 -49t142 -138zM688 229q120 0 204 83.5t95 211.5q12 128 -58 211.5t-190 83.5t-204.5 -83.5t-96.5 -211.5
q-11 -128 59.5 -211.5t190.5 -83.5zM883 1524h194q-11 -145 -98.5 -231.5t-235.5 -86.5q-146 0 -219 86t-61 232h196q-6 -64 21.5 -105t77.5 -41q51 0 85 40.5t40 105.5z" />
    <glyph glyph-name="Aogonek" unicode="&#x104;" horiz-adv-x="1630" 
d="M1307 0h-154l-63 264h-586l-105 -264h-362l616 1458h500l360 -1458h-8q-221 -66 -231 -197q-9 -96 69 -155t213 -62l-12 -157q-213 0 -337.5 93t-112.5 240q6 79 62 140.5t151 97.5zM879 1163l-279 -651h442z" />
    <glyph glyph-name="aogonek" unicode="&#x105;" horiz-adv-x="1462" 
d="M1042 0h-98l12 145q-70 -89 -165.5 -137.5t-206.5 -48.5q-221 0 -348 158t-105 407q23 249 177.5 407.5t375.5 158.5q111 0 198 -49t142 -138l12 146h307l-92 -1049h-12q-219 -66 -229 -197q-9 -96 69 -155t213 -62l-12 -157q-213 0 -338 93t-113 240q6 79 62 140.5
t151 97.5zM688 229q120 0 204 83.5t95 211.5q12 128 -58 211.5t-190 83.5t-204.5 -83.5t-96.5 -211.5q-11 -128 59.5 -211.5t190.5 -83.5z" />
    <glyph glyph-name="Cacute" unicode="&#x106;" horiz-adv-x="1699" 
d="M1327 543l318 -41q-57 -241 -275 -397t-498 -156q-167 0 -306.5 58.5t-233 161t-139 247.5t-31.5 313q19 224 134.5 402t302 278t409.5 100q182 0 332 -72.5t240 -202t101 -292.5l-323 -37q-20 135 -123 222t-244 87q-195 0 -330.5 -135.5t-154.5 -349.5
q-19 -213 93 -349t306 -136q138 0 258 85t164 214zM1403 1913l-295 -277h-260l252 277h303z" />
    <glyph glyph-name="cacute" unicode="&#x107;" horiz-adv-x="1277" 
d="M1253 674l-290 -37q-12 85 -77 139.5t-153 54.5q-113 0 -198 -87.5t-97 -219.5q-10 -133 58 -220t182 -87q90 0 164 54.5t104 140.5l283 -37q-29 -119 -114.5 -214.5t-206.5 -148.5t-255 -53q-163 0 -287.5 72.5t-186.5 201.5t-48 291q22 246 198 406t425 160
q206 0 348 -117.5t151 -298.5zM877 1546h290l-301 -327h-239z" />
    <glyph glyph-name="Ccircumflex" unicode="&#x108;" horiz-adv-x="1699" 
d="M1327 543l318 -41q-57 -241 -275 -397t-498 -156q-167 0 -306.5 58.5t-233 161t-139 247.5t-31.5 313q19 224 134.5 402t302 278t409.5 100q182 0 332 -72.5t240 -202t101 -292.5l-323 -37q-20 135 -123 222t-244 87q-195 0 -330.5 -135.5t-154.5 -349.5
q-19 -213 93 -349t306 -136q138 0 258 85t164 214zM866 1626h-223l248 287h305l195 -289l-224 2l-137 160z" />
    <glyph glyph-name="ccircumflex" unicode="&#x109;" horiz-adv-x="1277" 
d="M1253 674l-290 -37q-12 85 -77 139.5t-153 54.5q-113 0 -198 -87.5t-97 -219.5q-10 -133 58 -220t182 -87q90 0 164 54.5t104 140.5l283 -37q-29 -119 -114.5 -214.5t-206.5 -148.5t-255 -53q-163 0 -287.5 72.5t-186.5 201.5t-48 291q22 246 198 406t425 160
q206 0 348 -117.5t151 -298.5zM606 1219h-225l252 329h303l199 -329h-228l-131 200z" />
    <glyph glyph-name="Cdotaccent" unicode="&#x10a;" horiz-adv-x="1699" 
d="M1327 543l318 -41q-57 -241 -275 -397t-498 -156q-167 0 -306.5 58.5t-233 161t-139 247.5t-31.5 313q19 224 134.5 402t302 278t409.5 100q182 0 332 -72.5t240 -202t101 -292.5l-323 -37q-20 135 -123 222t-244 87q-195 0 -330.5 -135.5t-154.5 -349.5
q-19 -213 93 -349t306 -136q138 0 258 85t164 214zM997 1636q-75 0 -118 44.5t-37 115.5q6 70 58 115t126 45t117 -45t37 -115t-57.5 -115t-125.5 -45z" />
    <glyph glyph-name="cdotaccent" unicode="&#x10b;" horiz-adv-x="1277" 
d="M1253 674l-290 -37q-12 85 -77 139.5t-153 54.5q-113 0 -198 -87.5t-97 -219.5q-10 -133 58 -220t182 -87q90 0 164 54.5t104 140.5l283 -37q-29 -119 -114.5 -214.5t-206.5 -148.5t-255 -53q-163 0 -287.5 72.5t-186.5 201.5t-48 291q22 246 198 406t425 160
q206 0 348 -117.5t151 -298.5zM756 1214q-74 0 -118 47t-38 119q6 71 58.5 117.5t125.5 46.5t116.5 -46.5t37.5 -117.5q-6 -72 -57.5 -119t-124.5 -47z" />
    <glyph glyph-name="Ccaron" unicode="&#x10c;" horiz-adv-x="1699" 
d="M1327 543l318 -41q-57 -241 -275 -397t-498 -156q-167 0 -306.5 58.5t-233 161t-139 247.5t-31.5 313q19 224 134.5 402t302 278t409.5 100q182 0 332 -72.5t240 -202t101 -292.5l-323 -37q-20 135 -123 222t-244 87q-195 0 -330.5 -135.5t-154.5 -349.5
q-19 -213 93 -349t306 -136q138 0 258 85t164 214zM1196 1931h229l-256 -307h-305l-198 307h229l133 -178z" />
    <glyph glyph-name="ccaron" unicode="&#x10d;" horiz-adv-x="1277" 
d="M1253 674l-290 -37q-12 85 -77 139.5t-153 54.5q-113 0 -198 -87.5t-97 -219.5q-10 -133 58 -220t182 -87q90 0 164 54.5t104 140.5l283 -37q-29 -119 -114.5 -214.5t-206.5 -148.5t-255 -53q-163 0 -287.5 72.5t-186.5 201.5t-48 291q22 246 198 406t425 160
q206 0 348 -117.5t151 -298.5zM934 1546l227 2l-254 -329h-303l-196 327h225l135 -198z" />
    <glyph glyph-name="Dcaron" unicode="&#x10e;" horiz-adv-x="1650" 
d="M166 0l127 1458h547q378 0 591.5 -200.5t184.5 -528.5q-19 -217 -138 -382.5t-317.5 -256t-447.5 -90.5h-547zM1274 729q19 211 -107 336t-350 125h-213l-82 -922h213q224 0 372 125t167 336zM1081 1931h232l-258 -307h-305l-199 307h231l133 -178z" />
    <glyph glyph-name="dcaron" unicode="&#x10f;" horiz-adv-x="1644" 
d="M1010 922l53 598h307l-133 -1520h-303l10 127q-69 -80 -162.5 -124t-201.5 -44q-144 0 -251.5 71.5t-159.5 200.5t-38 293q23 249 177 407.5t372 158.5q106 0 190.5 -44t139.5 -124zM438 524q-10 -126 60.5 -207t189.5 -81q120 0 204 81.5t95 206.5t-59 207t-189 82
q-120 0 -205 -82t-96 -207zM1585 1227q-55 0 -85 38.5t-25 100.5q6 64 47 102.5t104 38.5q71 0 111.5 -50.5t34.5 -131.5q-9 -97 -64.5 -194.5t-132.5 -151.5l-115 47q51 38 86.5 95t38.5 106z" />
    <glyph glyph-name="Dcroat" unicode="&#x110;" horiz-adv-x="1720" 
d="M315 905l47 553h549q378 0 592 -200.5t185 -528.5q-19 -217 -138 -382.5t-318 -256t-448 -90.5h-548l61 696h-199l19 209h198zM1343 729q19 211 -105.5 336t-348.5 125h-213l-25 -285h285l-18 -209h-285l-39 -428h213q224 0 370.5 125t165.5 336z" />
    <glyph glyph-name="dcroat" unicode="&#x111;" horiz-adv-x="1433" 
d="M1010 922l26 290h-340l15 170h340l12 138h307l-12 -138h160l-15 -170h-160l-106 -1212h-303l10 127q-69 -80 -162.5 -124t-201.5 -44q-144 0 -251.5 71.5t-159.5 200.5t-38 293q23 249 177 407.5t372 158.5q106 0 190.5 -44t139.5 -124zM438 524q-10 -126 60.5 -207
t189.5 -81q120 0 204 81.5t95 206.5t-59 207t-189 82q-120 0 -205 -82t-96 -207z" />
    <glyph glyph-name="Emacron" unicode="&#x112;" horiz-adv-x="1306" 
d="M522 276h713l-25 -276h-1044l127 1458h1024l-25 -276h-692l-27 -314h611l-21 -241h-610zM1190 1862l-16 -185h-693l17 185h692z" />
    <glyph glyph-name="emacron" unicode="&#x113;" horiz-adv-x="1314" 
d="M688 195q82 0 151.5 39t102.5 100l264 -60q-54 -137 -208 -226t-339 -89q-254 0 -401.5 160t-124.5 413q22 246 197.5 402t429.5 156q252 0 395 -156.5t121 -405.5q-1 -7 -4.5 -43t-7.5 -49l-822 2q9 -111 75.5 -177t170.5 -66zM457 623h516q-6 101 -72.5 166t-169.5 65
q-100 0 -172 -62.5t-102 -168.5zM1139 1456l-17 -186h-692l16 186h693z" />
    <glyph glyph-name="Ebreve" unicode="&#x114;" horiz-adv-x="1306" 
d="M522 276h713l-25 -276h-1044l127 1458h1024l-25 -276h-692l-27 -314h611l-21 -241h-610zM973 1913h192q-12 -128 -107.5 -208.5t-236.5 -80.5t-223 81t-70 208h195q-4 -52 28.5 -84.5t86.5 -32.5q56 0 93.5 32.5t41.5 84.5z" />
    <glyph glyph-name="ebreve" unicode="&#x115;" horiz-adv-x="1314" 
d="M688 195q82 0 151.5 39t102.5 100l264 -60q-54 -137 -208 -226t-339 -89q-254 0 -401.5 160t-124.5 413q22 246 197.5 402t429.5 156q252 0 395 -156.5t121 -405.5q-1 -7 -4.5 -43t-7.5 -49l-822 2q9 -111 75.5 -177t170.5 -66zM457 623h516q-6 101 -72.5 166t-169.5 65
q-100 0 -172 -62.5t-102 -168.5zM911 1524h195q-12 -146 -99 -232t-235 -86q-146 0 -219 86t-61 232h194q-6 -64 22 -105t78 -41q49 0 84 40.5t41 105.5z" />
    <glyph glyph-name="Edotaccent" unicode="&#x116;" horiz-adv-x="1306" 
d="M522 276h713l-25 -276h-1044l127 1458h1024l-25 -276h-692l-27 -314h611l-21 -241h-610zM823 1636q-74 0 -117 44.5t-38 115.5q7 70 58.5 115t125.5 45q75 0 118.5 -44.5t37.5 -115.5q-6 -70 -58 -115t-127 -45z" />
    <glyph glyph-name="edotaccent" unicode="&#x117;" horiz-adv-x="1314" 
d="M688 195q82 0 151.5 39t102.5 100l264 -60q-54 -137 -208 -226t-339 -89q-254 0 -401.5 160t-124.5 413q22 246 197.5 402t429.5 156q252 0 395 -156.5t121 -405.5q-1 -7 -4.5 -43t-7.5 -49l-822 2q9 -111 75.5 -177t170.5 -66zM457 623h516q-6 101 -72.5 166t-169.5 65
q-100 0 -172 -62.5t-102 -168.5zM772 1227q-74 0 -118 47t-38 119q8 71 60 117t125 46q74 0 118 -46.5t37 -116.5q-6 -72 -58 -119t-126 -47z" />
    <glyph glyph-name="Eogonek" unicode="&#x118;" horiz-adv-x="1306" 
d="M926 0h-760l127 1458h1024l-25 -276h-692l-27 -314h611l-21 -241h-610l-31 -351h713l-25 -276h-88q-221 -66 -231 -197q-9 -96 69.5 -155t213.5 -62l-13 -157q-214 0 -339 92.5t-111 240.5q6 79 62.5 140.5t152.5 97.5z" />
    <glyph glyph-name="eogonek" unicode="&#x119;" horiz-adv-x="1314" 
d="M616 -39q-236 14 -370.5 171.5t-112.5 399.5q22 246 197.5 402t429.5 156q252 0 395 -156.5t121 -405.5q-1 -7 -4.5 -43t-7.5 -49l-822 2q9 -111 75.5 -177t170.5 -66q82 0 151.5 39t102.5 100l264 -60q-35 -89 -117.5 -161.5t-191.5 -112.5h2q-228 -67 -237 -199
q-9 -96 68.5 -155t213.5 -62l-12 -157q-213 0 -339 93t-112 240q9 124 135 201zM457 623h516q-6 101 -72.5 166t-169.5 65q-100 0 -172 -62.5t-102 -168.5z" />
    <glyph glyph-name="Ecaron" unicode="&#x11a;" horiz-adv-x="1306" 
d="M522 276h713l-25 -276h-1044l127 1458h1024l-25 -276h-692l-27 -314h611l-21 -241h-610zM1004 1931h231l-258 -307h-305l-199 307h232l133 -178z" />
    <glyph glyph-name="ecaron" unicode="&#x11b;" horiz-adv-x="1314" 
d="M688 195q82 0 151.5 39t102.5 100l264 -60q-54 -137 -208 -226t-339 -89q-254 0 -401.5 160t-124.5 413q22 246 197.5 402t429.5 156q252 0 395 -156.5t121 -405.5q-1 -7 -4.5 -43t-7.5 -49l-822 2q9 -111 75.5 -177t170.5 -66zM457 623h516q-6 101 -72.5 166t-169.5 65
q-100 0 -172 -62.5t-102 -168.5zM950 1546l228 2l-254 -329h-303l-195 327h223l135 -198z" />
    <glyph glyph-name="Gcircumflex" unicode="&#x11c;" horiz-adv-x="1777" 
d="M1397 602h-451l19 225h782q2 -251 -106.5 -452t-302.5 -313.5t-437 -112.5q-231 0 -407 100t-263.5 278t-68.5 402q14 168 87 313t188 247.5t270.5 161t328.5 58.5q250 0 431.5 -128.5t218.5 -329.5l-322 -70q-26 102 -125.5 167.5t-228.5 65.5q-201 0 -343 -136.5
t-161 -348.5q-19 -211 102 -348t326 -137q173 0 306.5 103t156.5 255zM895 1626h-223l248 287h305l194 -289l-223 2l-137 160z" />
    <glyph glyph-name="gcircumflex" unicode="&#x11d;" horiz-adv-x="1370" 
d="M123 -129l278 43q19 -80 86 -131t154 -51q119 0 199 77t92 211l10 125q-143 -159 -360 -159t-344 150.5t-107 387.5q22 247 176 405t371 158q219 0 334 -163l12 125h305l-90 -1037q-14 -160 -96 -279.5t-214 -182t-298 -62.5q-203 0 -345.5 107.5t-162.5 275.5zM688 238
q120 0 204 80.5t95 205.5q12 128 -58 211.5t-190 83.5t-204.5 -83.5t-96.5 -211.5q-11 -125 59.5 -205.5t190.5 -80.5zM618 1219h-225l252 329h303l199 -329h-227l-132 200z" />
    <glyph glyph-name="Gbreve" unicode="&#x11e;" horiz-adv-x="1777" 
d="M1397 602h-451l19 225h782q2 -251 -106.5 -452t-302.5 -313.5t-437 -112.5q-231 0 -407 100t-263.5 278t-68.5 402q14 168 87 313t188 247.5t270.5 161t328.5 58.5q250 0 431.5 -128.5t218.5 -329.5l-322 -70q-26 102 -125.5 167.5t-228.5 65.5q-201 0 -343 -136.5
t-161 -348.5q-19 -211 102 -348t326 -137q173 0 306.5 103t156.5 255zM1198 1913h193q-12 -128 -107.5 -208.5t-236.5 -80.5t-223 81t-70 208h194q-4 -52 27.5 -84.5t87.5 -32.5t93.5 32.5t41.5 84.5z" />
    <glyph glyph-name="gbreve" unicode="&#x11f;" horiz-adv-x="1370" 
d="M123 -129l278 43q19 -80 86 -131t154 -51q119 0 199 77t92 211l10 125q-143 -159 -360 -159t-344 150.5t-107 387.5q22 247 176 405t371 158q219 0 334 -163l12 125h305l-90 -1037q-14 -160 -96 -279.5t-214 -182t-298 -62.5q-203 0 -345.5 107.5t-162.5 275.5zM688 238
q120 0 204 80.5t95 205.5q12 128 -58 211.5t-190 83.5t-204.5 -83.5t-96.5 -211.5q-11 -125 59.5 -205.5t190.5 -80.5zM907 1524h195q-12 -146 -99 -232t-235 -86q-147 0 -220 86.5t-61 231.5h195q-6 -64 22 -105t78 -41q49 0 84 40.5t41 105.5z" />
    <glyph glyph-name="Gdotaccent" unicode="&#x120;" horiz-adv-x="1777" 
d="M1397 602h-451l19 225h782q2 -251 -106.5 -452t-302.5 -313.5t-437 -112.5q-231 0 -407 100t-263.5 278t-68.5 402q14 168 87 313t188 247.5t270.5 161t328.5 58.5q250 0 431.5 -128.5t218.5 -329.5l-322 -70q-26 102 -125.5 167.5t-228.5 65.5q-201 0 -343 -136.5
t-161 -348.5q-19 -211 102 -348t326 -137q173 0 306.5 103t156.5 255zM1049 1636q-75 0 -118.5 44.5t-37.5 115.5q7 70 58.5 115t125.5 45q75 0 118.5 -44.5t37.5 -115.5q-8 -71 -58.5 -115.5t-125.5 -44.5z" />
    <glyph glyph-name="gdotaccent" unicode="&#x121;" horiz-adv-x="1370" 
d="M123 -129l278 43q19 -80 86 -131t154 -51q119 0 199 77t92 211l10 125q-143 -159 -360 -159t-344 150.5t-107 387.5q22 247 176 405t371 158q219 0 334 -163l12 125h305l-90 -1037q-14 -160 -96 -279.5t-214 -182t-298 -62.5q-203 0 -345.5 107.5t-162.5 275.5zM688 238
q120 0 204 80.5t95 205.5q12 128 -58 211.5t-190 83.5t-204.5 -83.5t-96.5 -211.5q-11 -125 59.5 -205.5t190.5 -80.5zM768 1227q-74 0 -118 47t-38 119q8 71 60 117t125 46q74 0 117 -46.5t36 -116.5q-6 -72 -57.5 -119t-124.5 -47z" />
    <glyph glyph-name="Gcommaaccent" unicode="&#x122;" horiz-adv-x="1777" 
d="M1397 602h-451l19 225h782q2 -251 -106.5 -452t-302.5 -313.5t-437 -112.5q-231 0 -407 100t-263.5 278t-68.5 402q14 168 87 313t188 247.5t270.5 161t328.5 58.5q250 0 431.5 -128.5t218.5 -329.5l-322 -70q-26 102 -125.5 167.5t-228.5 65.5q-201 0 -343 -136.5
t-161 -348.5q-19 -211 102 -348t326 -137q173 0 306.5 103t156.5 255zM852 -461q-55 0 -85.5 38.5t-25.5 100.5q6 64 47.5 103t104.5 39q72 0 111.5 -50t33.5 -132q-9 -97 -64.5 -195t-131.5 -152l-115 47q51 38 86.5 95t38.5 106z" />
    <glyph glyph-name="gcommaaccent" unicode="&#x123;" horiz-adv-x="1370" 
d="M123 -129l278 43q19 -80 86 -131t154 -51q119 0 199 77t92 211l10 125q-143 -159 -360 -159t-344 150.5t-107 387.5q22 247 176 405t371 158q219 0 334 -163l12 125h305l-90 -1037q-14 -160 -96 -279.5t-214 -182t-298 -62.5q-203 0 -345.5 107.5t-162.5 275.5zM688 238
q120 0 204 80.5t95 205.5q12 128 -58 211.5t-190 83.5t-204.5 -83.5t-96.5 -211.5q-11 -125 59.5 -205.5t190.5 -80.5zM811 1468q55 0 85.5 -39t25.5 -100q-6 -65 -47.5 -104t-104.5 -39q-72 0 -111.5 50t-33.5 132q9 98 64.5 196t131.5 150l115 -45q-51 -40 -86 -96
t-39 -105z" />
    <glyph glyph-name="Itilde" unicode="&#x128;" horiz-adv-x="681" 
d="M637 1458l-127 -1458h-344l127 1458h344zM225 1696l-139 86q38 78 115.5 131t163.5 53q49 0 93 -17.5t71 -39t59 -39t59 -17.5q35 0 69 24.5t58 64.5l139 -87q-38 -79 -118.5 -131.5t-171.5 -52.5q-52 0 -96.5 17.5t-70 38t-55.5 38t-57 17.5q-60 0 -119 -86z" />
    <glyph glyph-name="itilde" unicode="&#x129;" horiz-adv-x="600" 
d="M528 1049l-92 -1049h-307l92 1049h307zM147 1268l-141 73q39 80 117 132.5t164 52.5q48 0 92 -17.5t71 -38t59.5 -38t61.5 -17.5q35 0 67.5 21t53.5 55l142 -76q-38 -79 -118 -131.5t-171 -52.5q-52 0 -97 17t-71 38t-57.5 38t-59.5 17q-67 0 -113 -73z" />
    <glyph glyph-name="Imacron" unicode="&#x12a;" horiz-adv-x="657" 
d="M629 1458l-127 -1458h-344l127 1458h344zM840 1862l-17 -185h-692l16 185h693z" />
    <glyph glyph-name="imacron" unicode="&#x12b;" horiz-adv-x="585" 
d="M539 1049l-93 -1049h-307l92 1049h308zM766 1456l-16 -186h-693l17 186h692z" />
    <glyph glyph-name="Iogonek" unicode="&#x12e;" horiz-adv-x="696" 
d="M303 0h-137l127 1458h344l-127 -1458h-8q-222 -66 -232 -197q-9 -96 69.5 -155t213.5 -62l-12 -157q-214 0 -339.5 92.5t-111.5 240.5q6 79 62 140.5t151 97.5z" />
    <glyph glyph-name="iogonek" unicode="&#x12f;" horiz-adv-x="614" 
d="M256 0h-102l92 1049h307l-92 -1049h-6q-226 -67 -236 -197q-9 -95 70 -154.5t213 -64.5l-13 -157q-212 0 -338 93.5t-112 239.5q6 79 63.5 141.5t153.5 98.5zM248 1362q6 75 61 123.5t133 48.5t123 -48.5t39 -123.5q-6 -76 -60 -125t-132 -49t-124 49t-40 125z" />
    <glyph glyph-name="Idotaccent" unicode="&#x130;" horiz-adv-x="673" 
d="M637 1458l-127 -1458h-344l127 1458h344zM481 1636q-75 0 -118 44.5t-37 115.5q6 70 58 115t126 45t117 -45t37 -115t-57.5 -115t-125.5 -45z" />
    <glyph glyph-name="dotlessi" unicode="&#x131;" horiz-adv-x="573" 
d="M532 1049l-92 -1049h-307l92 1049h307z" />
    <glyph glyph-name="IJ" unicode="&#x132;" horiz-adv-x="1613" 
d="M637 1458l-127 -1458h-344l127 1458h344zM1147 494l84 964h346l-86 -999q-20 -221 -172 -360.5t-367 -139.5q-158 0 -286 41l22 264q107 -28 195 -28q108 0 181 71t83 187z" />
    <glyph glyph-name="ij" unicode="&#x133;" horiz-adv-x="1183" 
d="M557 1049l-92 -1049h-307l92 1049h307zM715 -68l98 1117h307l-102 -1155q-13 -166 -119 -267.5t-264 -101.5q-129 0 -223 33l22 243q46 -14 121 -14q66 0 110 40t50 105zM252 1362q6 75 61 123.5t133 48.5t123 -48.5t39 -123.5q-6 -76 -60 -125t-132 -49t-124 49t-40 125
zM813 1362q6 74 62 123t133 49q78 0 122.5 -48.5t38.5 -123.5q-6 -76 -60 -125t-132 -49q-77 0 -123.5 49t-40.5 125z" />
    <glyph glyph-name="Kcommaaccent" unicode="&#x136;" horiz-adv-x="1447" 
d="M293 1458h344l-51 -594l536 594h416l-657 -700l542 -758h-417l-441 643l-55 -643h-344zM690 -459q-56 0 -86.5 39.5t-25.5 102.5q6 63 47 102t104 39q72 0 113 -50t35 -132q-9 -98 -65 -195.5t-134 -151.5l-113 46q50 40 86 97t39 103z" />
    <glyph glyph-name="kcommaaccent" unicode="&#x137;" horiz-adv-x="1204" 
d="M266 1520h307l-75 -858l389 387h373l-498 -492l418 -557h-373l-328 451l-39 -451h-307zM561 -449q-55 0 -85.5 39t-24.5 101q4 64 46 103.5t105 39.5q72 0 111.5 -50t31.5 -132q-7 -98 -63 -195.5t-133 -150.5l-115 45q52 40 87 95t40 105z" />
    <glyph glyph-name="Lacute" unicode="&#x139;" horiz-adv-x="1193" 
d="M1120 0h-954l127 1458h344l-100 -1163h610zM893 1913l-293 -277h-262l252 277h303z" />
    <glyph glyph-name="lacute" unicode="&#x13a;" horiz-adv-x="802" 
d="M573 1520l-133 -1520h-307l133 1520h307zM844 1933l-297 -295h-256l250 295h303z" />
    <glyph glyph-name="Lcommaaccent" unicode="&#x13b;" horiz-adv-x="1193" 
d="M1120 0h-954l127 1458h344l-100 -1163h610zM584 -459q-55 0 -85.5 40t-25.5 102q6 63 46.5 102t103.5 39q72 0 112.5 -50t34.5 -132q-9 -98 -65 -195.5t-134 -151.5l-112 46q50 40 86 97t39 103z" />
    <glyph glyph-name="lcommaaccent" unicode="&#x13c;" horiz-adv-x="585" 
d="M573 1520l-133 -1520h-307l133 1520h307zM225 -459q-55 0 -85 39t-25 101q6 65 47 104t104 39q72 0 112 -50.5t34 -133.5q-9 -97 -65 -195t-132 -150l-115 46q51 39 86.5 95t38.5 105z" />
    <glyph glyph-name="Lcaron" unicode="&#x13d;" horiz-adv-x="1200" 
d="M1120 0h-954l127 1458h344l-100 -1163h610zM883 1237q-55 0 -86 39.5t-25 99.5q4 64 46.5 104t105.5 40q71 0 110.5 -50.5t32.5 -132.5q-7 -97 -63.5 -194t-135.5 -152l-112 45q52 40 87 95.5t40 105.5z" />
    <glyph glyph-name="lcaron" unicode="&#x13e;" horiz-adv-x="872" 
d="M573 1520l-133 -1520h-307l133 1520h307zM813 1227q-55 0 -85.5 38.5t-25.5 100.5q6 64 47.5 102.5t104.5 38.5q71 0 111 -50t34 -132q-9 -97 -64.5 -194.5t-133.5 -151.5l-113 47q51 38 86.5 95t38.5 106z" />
    <glyph glyph-name="Lslash" unicode="&#x141;" horiz-adv-x="1064" 
d="M88 578l225 133l66 747h346l-47 -534l530 309l-24 -264l-529 -310l-30 -364h610l-27 -295h-956l39 446l-228 -133z" />
    <glyph glyph-name="lslash" unicode="&#x142;" horiz-adv-x="974" 
d="M707 754l-66 -754h-307l49 557l-297 -180l23 264l297 180l61 699h307l-45 -502l297 180l-22 -264z" />
    <glyph glyph-name="Nacute" unicode="&#x143;" horiz-adv-x="1622" 
d="M678 1458l489 -1042l90 1042h328l-127 -1458h-385l-491 1040l-90 -1040h-326l127 1458h385zM1364 1913l-295 -277h-262l252 277h305z" />
    <glyph glyph-name="nacute" unicode="&#x144;" 
d="M860 1090q177 0 276.5 -122.5t82.5 -312.5l-58 -655h-307l53 602q8 97 -39.5 157t-136.5 60q-92 0 -161 -65t-78 -164l-52 -590h-307l92 1049h299l-12 -142q63 85 155 134t193 49zM913 1546h291l-301 -327h-239z" />
    <glyph glyph-name="Ncommaaccent" unicode="&#x145;" horiz-adv-x="1622" 
d="M678 1458l489 -1042l90 1042h328l-127 -1458h-385l-491 1040l-90 -1040h-326l127 1458h385zM752 -461q-55 0 -85.5 39t-25.5 100q6 65 47.5 104.5t104.5 39.5q71 0 111 -50t34 -132q-9 -98 -65 -195.5t-134 -151.5l-112 45q52 40 87 96t38 105z" />
    <glyph glyph-name="ncommaaccent" unicode="&#x146;" 
d="M860 1090q177 0 276.5 -122.5t82.5 -312.5l-58 -655h-307l53 602q8 97 -39.5 157t-136.5 60q-92 0 -161 -65t-78 -164l-52 -590h-307l92 1049h299l-12 -142q63 85 155 134t193 49zM588 -461q-55 0 -85.5 39t-25.5 100q6 65 46.5 104.5t103.5 39.5q72 0 112.5 -50
t34.5 -132q-9 -98 -65 -195.5t-134 -151.5l-112 45q51 41 86.5 97t38.5 104z" />
    <glyph glyph-name="Ncaron" unicode="&#x147;" horiz-adv-x="1622" 
d="M678 1458l489 -1042l90 1042h328l-127 -1458h-385l-491 1040l-90 -1040h-326l127 1458h385zM1126 1931h230l-256 -307h-305l-199 307h229l133 -178z" />
    <glyph glyph-name="ncaron" unicode="&#x148;" 
d="M860 1090q177 0 276.5 -122.5t82.5 -312.5l-58 -655h-307l53 602q8 97 -39.5 157t-136.5 60q-92 0 -161 -65t-78 -164l-52 -590h-307l92 1049h299l-12 -142q63 85 155 134t193 49zM971 1546l227 2l-254 -329h-303l-195 327h226l133 -198z" />
    <glyph glyph-name="Omacron" unicode="&#x14c;" horiz-adv-x="1810" 
d="M162 729q20 228 136.5 405.5t308.5 276t429 98.5q236 0 411.5 -98.5t262 -276t66.5 -405.5q-20 -229 -137.5 -406.5t-309.5 -275.5t-428 -98q-177 0 -322.5 57t-242 159t-143 247.5t-31.5 316.5zM506 729q-19 -213 99 -348t321 -137q204 0 345.5 135.5t160.5 349.5
t-98.5 349.5t-321.5 135.5t-345.5 -135.5t-160.5 -349.5zM1415 1862l-16 -185h-692l16 185h692z" />
    <glyph glyph-name="omacron" unicode="&#x14d;" horiz-adv-x="1335" 
d="M1294 524q-22 -251 -197 -408t-433 -157t-406.5 157.5t-126.5 407.5q15 165 100 294t224 200.5t309 71.5q258 0 405.5 -157.5t124.5 -408.5zM987 524q12 129 -57.5 212t-190.5 83t-205 -83t-96 -212q-11 -129 59 -212t191 -83t204.5 83t94.5 212zM1141 1456l-17 -186
h-692l17 186h692z" />
    <glyph glyph-name="Obreve" unicode="&#x14e;" horiz-adv-x="1810" 
d="M162 729q20 228 136.5 405.5t308.5 276t429 98.5q236 0 411.5 -98.5t262 -276t66.5 -405.5q-20 -229 -137.5 -406.5t-309.5 -275.5t-428 -98q-177 0 -322.5 57t-242 159t-143 247.5t-31.5 316.5zM506 729q-19 -213 99 -348t321 -137q204 0 345.5 135.5t160.5 349.5
t-98.5 349.5t-321.5 135.5t-345.5 -135.5t-160.5 -349.5zM1198 1913h193q-12 -128 -107.5 -208.5t-236.5 -80.5t-223 81t-70 208h194q-4 -52 27.5 -84.5t87.5 -32.5t93.5 32.5t41.5 84.5z" />
    <glyph glyph-name="obreve" unicode="&#x14f;" horiz-adv-x="1335" 
d="M1294 524q-22 -251 -197 -408t-433 -157t-406.5 157.5t-126.5 407.5q15 165 100 294t224 200.5t309 71.5q258 0 405.5 -157.5t124.5 -408.5zM987 524q12 129 -57.5 212t-190.5 83t-205 -83t-96 -212q-11 -129 59 -212t191 -83t204.5 83t94.5 212zM913 1524h195
q-11 -145 -98.5 -231.5t-235.5 -86.5q-146 0 -219 86t-61 232h194q-5 -65 23 -105.5t77 -40.5t84 40.5t41 105.5z" />
    <glyph glyph-name="Ohungarumlaut" unicode="&#x150;" horiz-adv-x="1810" 
d="M162 729q20 228 136.5 405.5t308.5 276t429 98.5q236 0 411.5 -98.5t262 -276t66.5 -405.5q-20 -229 -137.5 -406.5t-309.5 -275.5t-428 -98q-177 0 -322.5 57t-242 159t-143 247.5t-31.5 316.5zM506 729q-19 -213 99 -348t321 -137q204 0 345.5 135.5t160.5 349.5
t-98.5 349.5t-321.5 135.5t-345.5 -135.5t-160.5 -349.5zM954 1913h277l-270 -289h-226zM1352 1913h274l-295 -289h-221z" />
    <glyph glyph-name="ohungarumlaut" unicode="&#x151;" horiz-adv-x="1333" 
d="M1294 524q-22 -251 -197.5 -408t-434.5 -157q-258 0 -406.5 157.5t-126.5 407.5q15 165 100 294t224 200.5t309 71.5q259 0 407 -157.5t125 -408.5zM987 524q12 129 -58.5 212t-191.5 83q-120 0 -204.5 -83t-96.5 -212q-11 -129 59.5 -212t190.5 -83q121 0 205.5 83
t95.5 212zM705 1540h284l-282 -321h-222zM1104 1540h291l-316 -321h-227z" />
    <glyph glyph-name="OE" unicode="&#x152;" horiz-adv-x="2168" 
d="M162 729q31 346 255.5 557t569.5 211q139 0 246 -39h946l-25 -276h-614l-27 -320h533l-23 -244h-532l-29 -342h635l-24 -276h-965q-119 -39 -256 -39q-345 0 -532 211t-158 557zM1128 307l74 844q-81 51 -209 51q-195 0 -331.5 -131.5t-155.5 -341.5
q-19 -208 92.5 -340.5t300.5 -132.5q142 0 229 51z" />
    <glyph glyph-name="oe" unicode="&#x153;" horiz-adv-x="2174" 
d="M1544 195q82 0 153 39t105 100l250 -70q-56 -132 -203.5 -218.5t-320.5 -86.5q-287 0 -414 199q-162 -199 -450 -199q-258 0 -406.5 157.5t-126.5 407.5q15 165 100 294t224 200.5t309 71.5q285 0 412 -195q77 93 192 144t260 51q246 0 388 -156.5t120 -405.5
q-1 -10 -5.5 -44.5t-6.5 -45.5h-824q9 -111 75.5 -177t168.5 -66zM987 524q12 129 -57.5 212t-190.5 83t-205 -83t-96 -212q-11 -129 59 -212t191 -83t204.5 83t94.5 212zM1317 623h514q-5 101 -71 167t-169 66q-100 0 -173 -63.5t-101 -169.5z" />
    <glyph glyph-name="Racute" unicode="&#x154;" horiz-adv-x="1576" 
d="M166 0l127 1458h706q167 0 293 -61t189 -171.5t51 -252.5q-13 -145 -110.5 -257.5t-245.5 -158.5l303 -557h-385l-242 510h-297l-45 -510h-344zM922 1198h-308l-39 -444h308q123 0 209.5 61t95.5 158q9 105 -66 165t-200 60zM1335 1913l-295 -277h-260l252 277h303z" />
    <glyph glyph-name="racute" unicode="&#x155;" horiz-adv-x="911" 
d="M803 1087q60 0 123 -26l-23 -273q-89 39 -170 39q-99 0 -166 -75.5t-78 -194.5l-49 -557h-307l92 1049h295l-12 -134q55 80 132 126t163 46zM711 1546h290l-301 -327h-239z" />
    <glyph glyph-name="Rcommaaccent" unicode="&#x156;" horiz-adv-x="1576" 
d="M166 0l127 1458h706q167 0 293 -61t189 -171.5t51 -252.5q-13 -145 -110.5 -257.5t-245.5 -158.5l303 -557h-385l-242 510h-297l-45 -510h-344zM922 1198h-308l-39 -444h308q123 0 209.5 61t95.5 158q9 105 -66 165t-200 60zM735 -461q-55 0 -85 39t-25 100
q6 65 47 104.5t104 39.5q71 0 111.5 -50.5t34.5 -131.5q-9 -98 -64.5 -195.5t-132.5 -151.5l-115 45q52 40 87 96t38 105z" />
    <glyph glyph-name="rcommaaccent" unicode="&#x157;" horiz-adv-x="876" 
d="M803 1087q60 0 123 -26l-23 -273q-89 39 -170 39q-99 0 -166 -75.5t-78 -194.5l-49 -557h-307l92 1049h295l-12 -134q55 80 132 126t163 46zM231 -461q-55 0 -85 39t-25 100q6 65 47 104.5t104 39.5q71 0 111.5 -50.5t34.5 -131.5q-9 -98 -64.5 -195.5t-132.5 -151.5
l-115 45q52 40 87 96t38 105z" />
    <glyph glyph-name="Rcaron" unicode="&#x158;" horiz-adv-x="1576" 
d="M166 0l127 1458h706q167 0 293 -61t189 -171.5t51 -252.5q-13 -145 -110.5 -257.5t-245.5 -158.5l303 -557h-385l-242 510h-297l-45 -510h-344zM922 1198h-308l-39 -444h308q123 0 209.5 61t95.5 158q9 105 -66 165t-200 60zM1087 1931h230l-256 -307h-305l-199 307h229
l134 -178z" />
    <glyph glyph-name="rcaron" unicode="&#x159;" horiz-adv-x="878" 
d="M803 1087q60 0 123 -26l-23 -273q-89 39 -170 39q-99 0 -166 -75.5t-78 -194.5l-49 -557h-307l92 1049h295l-12 -134q55 80 132 126t163 46zM768 1546l227 2l-254 -329h-303l-196 327h225l135 -198z" />
    <glyph glyph-name="Sacute" unicode="&#x15a;" horiz-adv-x="1470" 
d="M741 -51q-278 0 -444.5 150t-146.5 380h309q-9 -119 79 -194.5t236 -75.5q124 0 203.5 54t85.5 134q4 49 -24 83.5t-78.5 54t-117 33.5t-140.5 27.5t-147.5 30.5t-139 48t-114 74t-73 114t-16.5 164q19 215 196 349t441 134q131 0 241 -38t185 -104.5t112.5 -160.5
t28.5 -202h-299q10 107 -70 176t-212 69q-120 0 -199.5 -50.5t-85.5 -127.5q-4 -47 24 -80t78.5 -51.5t117.5 -32.5t141 -27t147.5 -30.5t139 -48.5t114.5 -74.5t73.5 -115.5t16.5 -165q-19 -219 -202 -358t-460 -139zM1278 1913l-295 -277h-260l252 277h303z" />
    <glyph glyph-name="sacute" unicode="&#x15b;" horiz-adv-x="1155" 
d="M575 -45q-213 0 -340 111.5t-112 283.5h260q-6 -78 54.5 -128t160.5 -50q85 0 144 35.5t63 89.5q3 34 -18.5 56t-60 34t-88.5 20t-105 16.5t-110 19.5t-103.5 33.5t-85 54.5t-54.5 85.5t-12 124.5q9 101 75 182t172.5 126t233.5 45q210 0 337.5 -102.5t115.5 -260.5h-271
q4 64 -52.5 105t-149.5 41q-73 0 -126 -33.5t-57 -83.5q-3 -36 24.5 -60t75 -36t109 -24t125.5 -22t124.5 -31.5t106.5 -51t71.5 -82t19.5 -123.5q-14 -163 -161.5 -269t-365.5 -106zM788 1546h291l-301 -327h-239z" />
    <glyph glyph-name="Scircumflex" unicode="&#x15c;" horiz-adv-x="1470" 
d="M741 -51q-278 0 -444.5 150t-146.5 380h309q-9 -119 79 -194.5t236 -75.5q124 0 203.5 54t85.5 134q4 49 -24 83.5t-78.5 54t-117 33.5t-140.5 27.5t-147.5 30.5t-139 48t-114 74t-73 114t-16.5 164q19 215 196 349t441 134q131 0 241 -38t185 -104.5t112.5 -160.5
t28.5 -202h-299q10 107 -70 176t-212 69q-120 0 -199.5 -50.5t-85.5 -127.5q-4 -47 24 -80t78.5 -51.5t117.5 -32.5t141 -27t147.5 -30.5t139 -48.5t114.5 -74.5t73.5 -115.5t16.5 -165q-19 -219 -202 -358t-460 -139zM719 1626h-223l247 287h306l194 -289l-223 2l-137 160z
" />
    <glyph glyph-name="scircumflex" unicode="&#x15d;" horiz-adv-x="1155" 
d="M575 -45q-213 0 -340 111.5t-112 283.5h260q-6 -78 54.5 -128t160.5 -50q85 0 144 35.5t63 89.5q3 34 -18.5 56t-60 34t-88.5 20t-105 16.5t-110 19.5t-103.5 33.5t-85 54.5t-54.5 85.5t-12 124.5q9 101 75 182t172.5 126t233.5 45q210 0 337.5 -102.5t115.5 -260.5h-271
q4 64 -52.5 105t-149.5 41q-73 0 -126 -33.5t-57 -83.5q-3 -36 24.5 -60t75 -36t109 -24t125.5 -22t124.5 -31.5t106.5 -51t71.5 -82t19.5 -123.5q-14 -163 -161.5 -269t-365.5 -106zM518 1219h-225l254 329h303l197 -329h-228l-131 200z" />
    <glyph glyph-name="Scedilla" unicode="&#x15e;" horiz-adv-x="1470" 
d="M666 -246h-107l49 205q-223 35 -349 177t-109 343h309q-9 -119 79 -194.5t236 -75.5q124 0 203.5 54t85.5 134q4 49 -24 83.5t-78.5 54t-117 33.5t-140.5 27.5t-147.5 30.5t-139 48t-114 74t-73 114t-16.5 164q19 215 196 349t441 134q131 0 241 -38t185 -104.5
t112.5 -160.5t28.5 -202h-299q10 107 -70 176t-212 69q-120 0 -199.5 -50.5t-85.5 -127.5q-4 -47 24 -80t78.5 -51.5t117.5 -32.5t141 -27t147.5 -30.5t139 -48.5t114.5 -74.5t73.5 -115.5t16.5 -165q-19 -211 -191 -349t-434 -148l-24 -99q98 0 152 -54.5t46 -145.5
t-82 -147t-186 -56q-82 0 -141 40.5t-72 106.5l115 60q9 -32 35.5 -52t58.5 -20q38 0 63.5 22.5t28.5 59.5q3 40 -26 65t-80 25z" />
    <glyph glyph-name="scedilla" unicode="&#x15f;" horiz-adv-x="1155" 
d="M551 -246h-107l50 205q-179 22 -281.5 129t-89.5 262h260q-6 -78 54.5 -128t160.5 -50q85 0 144 35.5t63 89.5q3 34 -18.5 56t-60 34t-88.5 20t-105 16.5t-110 19.5t-103.5 33.5t-85 54.5t-54.5 85.5t-12 124.5q9 101 75 182t172.5 126t233.5 45q210 0 337.5 -102.5
t115.5 -260.5h-271q4 64 -52.5 105t-149.5 41q-73 0 -126 -33.5t-57 -83.5q-3 -36 24.5 -60t75 -36t109 -24t125.5 -22t124.5 -31.5t106.5 -51t71.5 -82t19.5 -123.5q-12 -146 -131.5 -247t-304.5 -124l-27 -109q98 0 152.5 -54.5t46.5 -145.5t-82.5 -147t-188.5 -56
q-80 0 -139 40.5t-72 106.5l115 60q9 -32 35.5 -52t58.5 -20q38 0 63.5 22.5t28.5 59.5q3 40 -26 65t-80 25z" />
    <glyph glyph-name="Scaron" unicode="&#x160;" horiz-adv-x="1470" 
d="M741 -51q-278 0 -444.5 150t-146.5 380h309q-9 -119 79 -194.5t236 -75.5q124 0 203.5 54t85.5 134q4 49 -24 83.5t-78.5 54t-117 33.5t-140.5 27.5t-147.5 30.5t-139 48t-114 74t-73 114t-16.5 164q19 215 196 349t441 134q131 0 241 -38t185 -104.5t112.5 -160.5
t28.5 -202h-299q10 107 -70 176t-212 69q-120 0 -199.5 -50.5t-85.5 -127.5q-4 -47 24 -80t78.5 -51.5t117.5 -32.5t141 -27t147.5 -30.5t139 -48.5t114.5 -74.5t73.5 -115.5t16.5 -165q-19 -219 -202 -358t-460 -139zM1040 1931h232l-258 -307h-305l-199 307h231l133 -178z
" />
    <glyph glyph-name="scaron" unicode="&#x161;" horiz-adv-x="1155" 
d="M575 -45q-213 0 -340 111.5t-112 283.5h260q-6 -78 54.5 -128t160.5 -50q85 0 144 35.5t63 89.5q3 34 -18.5 56t-60 34t-88.5 20t-105 16.5t-110 19.5t-103.5 33.5t-85 54.5t-54.5 85.5t-12 124.5q9 101 75 182t172.5 126t233.5 45q210 0 337.5 -102.5t115.5 -260.5h-271
q4 64 -52.5 105t-149.5 41q-73 0 -126 -33.5t-57 -83.5q-3 -36 24.5 -60t75 -36t109 -24t125.5 -22t124.5 -31.5t106.5 -51t71.5 -82t19.5 -123.5q-14 -163 -161.5 -269t-365.5 -106zM827 1546l228 2l-254 -329h-303l-195 327h225l134 -198z" />
    <glyph glyph-name="Tcommaaccent" unicode="&#x162;" horiz-adv-x="1288" 
d="M573 1171h-438l25 287h1220l-24 -287h-438l-103 -1171h-344zM582 -461q-55 0 -86.5 40t-26.5 102q6 63 47.5 102t104.5 39q72 0 112.5 -50t34.5 -132q-9 -98 -65 -195.5t-134 -151.5l-112 45q50 40 86 97t39 104z" />
    <glyph glyph-name="tcommaaccent" unicode="&#x163;" horiz-adv-x="854" 
d="M244 340l41 475h-148l21 234h161l58 264h258l-23 -264h238l-21 -234h-237l-39 -444q-6 -66 28.5 -107t98.5 -41q42 0 108 15l-22 -246q-104 -33 -213 -33q-155 0 -239.5 106t-69.5 275zM446 -461q-55 0 -85 39t-25 100q6 65 47 104.5t104 39.5q72 0 112 -50t34 -132
q-9 -98 -64.5 -195.5t-132.5 -151.5l-114 45q51 40 86 96t38 105z" />
    <glyph glyph-name="Tcaron" unicode="&#x164;" horiz-adv-x="1288" 
d="M573 1171h-438l25 287h1220l-24 -287h-438l-103 -1171h-344zM965 1931h229l-256 -307h-305l-199 307h230l133 -178z" />
    <glyph glyph-name="tcaron" unicode="&#x165;" horiz-adv-x="923" 
d="M244 340l41 475h-148l21 234h161l58 264h258l-23 -264h238l-21 -234h-237l-39 -444q-6 -66 28.5 -107t98.5 -41q42 0 108 15l-22 -246q-104 -33 -213 -33q-155 0 -239.5 106t-69.5 275zM834 1401q-55 0 -86 39.5t-25 99.5q4 64 46 103.5t105 39.5q71 0 111 -50.5
t33 -131.5q-7 -97 -63 -194t-134 -152l-114 45q52 40 87 95.5t40 105.5z" />
    <glyph glyph-name="Utilde" unicode="&#x168;" horiz-adv-x="1607" 
d="M1165 612l74 846h344l-74 -854q-17 -191 -112 -340.5t-250.5 -232t-345.5 -82.5q-290 0 -457 182.5t-141 472.5l73 854h347l-74 -846q-13 -149 61.5 -257t214.5 -111q137 0 231.5 103t108.5 265zM690 1696l-137 86q36 78 114 131t164 53q49 0 93.5 -17.5t71 -39t59 -39
t59.5 -17.5q35 0 69 24.5t58 64.5l137 -87q-36 -79 -116 -131.5t-172 -52.5q-52 0 -97 17.5t-70.5 38t-55.5 38t-56 17.5q-62 0 -121 -86z" />
    <glyph glyph-name="utilde" unicode="&#x169;" 
d="M504 -41q-176 0 -275 122t-82 312l58 656h307l-53 -603q-8 -97 39.5 -157t136.5 -60q92 0 161 65.5t78 164.5l52 590h307l-92 -1049h-299l12 141q-63 -85 -155.5 -133.5t-194.5 -48.5zM489 1266l-139 73q37 79 115.5 132t163.5 53q49 0 93 -17.5t71 -38t60 -38t62 -17.5
q35 0 68 21.5t53 56.5l140 -76q-36 -79 -116 -131.5t-171 -52.5q-52 0 -97.5 17t-72 38t-58 38t-59.5 17q-65 0 -113 -75z" />
    <glyph glyph-name="Umacron" unicode="&#x16a;" horiz-adv-x="1607" 
d="M1165 612l74 846h344l-74 -854q-17 -191 -112 -340.5t-250.5 -232t-345.5 -82.5q-290 0 -457 182.5t-141 472.5l73 854h347l-74 -846q-13 -149 61.5 -257t214.5 -111q137 0 231.5 103t108.5 265zM1315 1862l-17 -185h-692l17 185h692z" />
    <glyph glyph-name="umacron" unicode="&#x16b;" 
d="M504 -41q-176 0 -275 122t-82 312l58 656h307l-53 -603q-8 -97 39.5 -157t136.5 -60q92 0 161 65.5t78 164.5l52 590h307l-92 -1049h-299l12 141q-63 -85 -155.5 -133.5t-194.5 -48.5zM1100 1454l-17 -184h-694l17 184h694z" />
    <glyph glyph-name="Ubreve" unicode="&#x16c;" horiz-adv-x="1607" 
d="M1165 612l74 846h344l-74 -854q-17 -191 -112 -340.5t-250.5 -232t-345.5 -82.5q-290 0 -457 182.5t-141 472.5l73 854h347l-74 -846q-13 -149 61.5 -257t214.5 -111q137 0 231.5 103t108.5 265zM1098 1913h192q-12 -127 -108 -208t-236 -81q-141 0 -223 81t-70 208h195
q-4 -52 27.5 -84.5t87.5 -32.5t93.5 32.5t41.5 84.5z" />
    <glyph glyph-name="ubreve" unicode="&#x16d;" 
d="M504 -41q-176 0 -275 122t-82 312l58 656h307l-53 -603q-8 -97 39.5 -157t136.5 -60q92 0 161 65.5t78 164.5l52 590h307l-92 -1049h-299l12 141q-63 -85 -155.5 -133.5t-194.5 -48.5zM870 1524h197q-12 -147 -99.5 -232.5t-234.5 -85.5t-220 86t-62 232h196
q-6 -64 22.5 -106t78.5 -42q49 0 82.5 41.5t39.5 106.5z" />
    <glyph glyph-name="Uring" unicode="&#x16e;" horiz-adv-x="1607" 
d="M1165 612l74 846h344l-74 -854q-17 -191 -112 -340.5t-250.5 -232t-345.5 -82.5q-290 0 -457 182.5t-141 472.5l73 854h347l-74 -846q-13 -149 61.5 -257t214.5 -111q137 0 231.5 103t108.5 265zM944 1581q-130 0 -204.5 73.5t-63.5 192.5q11 120 97 193.5t216 73.5
q129 0 202.5 -73.5t63.5 -193.5q-11 -119 -96.5 -192.5t-214.5 -73.5zM977 1966q-54 0 -90 -32.5t-39 -86.5q-5 -53 24.5 -85.5t83.5 -32.5q53 0 89 33t40 85q4 54 -25.5 86.5t-82.5 32.5z" />
    <glyph glyph-name="uring" unicode="&#x16f;" 
d="M504 -41q-176 0 -275 122t-82 312l58 656h307l-53 -603q-8 -97 39.5 -157t136.5 -60q92 0 161 65.5t78 164.5l52 590h307l-92 -1049h-299l12 141q-63 -85 -155.5 -133.5t-194.5 -48.5zM727 1149q-130 0 -204.5 74.5t-63.5 193.5q9 118 96.5 192t218.5 74q129 0 202 -73.5
t64 -192.5q-11 -119 -97.5 -193.5t-215.5 -74.5zM762 1536q-54 0 -90 -33t-39 -86q-5 -53 24 -86t82 -33q52 0 88 33t41 86t-24.5 86t-81.5 33z" />
    <glyph glyph-name="Uhungarumlaut" unicode="&#x170;" horiz-adv-x="1607" 
d="M1165 612l74 846h344l-74 -854q-17 -191 -112 -340.5t-250.5 -232t-345.5 -82.5q-290 0 -457 182.5t-141 472.5l73 854h347l-74 -846q-13 -149 61.5 -257t214.5 -111q137 0 231.5 103t108.5 265zM850 1913h274l-270 -289h-223zM1247 1913h275l-295 -289h-223z" />
    <glyph glyph-name="uhungarumlaut" unicode="&#x171;" horiz-adv-x="1222" 
d="M504 -41q-176 0 -275 122t-82 312l58 656h307l-53 -603q-8 -97 39.5 -157t136.5 -60q92 0 161 65.5t78 164.5l52 590h307l-92 -1049h-299l12 141q-63 -85 -155.5 -133.5t-194.5 -48.5zM633 1538l285 2l-283 -323h-221zM1032 1538h291l-315 -321h-228z" />
    <glyph glyph-name="Uogonek" unicode="&#x172;" horiz-adv-x="1607" 
d="M748 -49q-176 11 -305.5 96t-192.5 230t-47 327l73 854h347l-74 -846q-13 -149 61.5 -257t214.5 -111q137 0 231.5 103t108.5 265l74 846h344l-74 -854q-23 -253 -177.5 -426.5t-391.5 -216.5q-127 -63 -133 -160q-9 -96 69.5 -155t213.5 -62l-13 -157q-213 0 -338.5 93
t-111.5 240q9 115 121 191z" />
    <glyph glyph-name="uogonek" unicode="&#x173;" horiz-adv-x="1349" 
d="M926 0h-84l12 141q-63 -85 -155.5 -133.5t-194.5 -48.5q-176 0 -275 122t-82 312l58 656h307l-53 -603q-8 -97 39.5 -157t136.5 -60q92 0 161 65.5t78 164.5l52 590h307l-92 -1049h-21q-214 -67 -223 -195q-9 -96 70 -155t213 -62l-13 -157q-212 0 -337 93t-113 240
q6 77 61 138.5t148 97.5z" />
    <glyph glyph-name="Wcircumflex" unicode="&#x174;" horiz-adv-x="2418" 
d="M1716 283l412 1175h348l-522 -1458h-496l-158 1030l-337 -1030h-498l-270 1458h350l207 -1175l397 1175h381zM1200 1626h-225l250 287h303l196 -289l-225 2l-135 160z" />
    <glyph glyph-name="wcircumflex" unicode="&#x175;" horiz-adv-x="1882" 
d="M375 0l-225 1049h319l149 -742l271 742h287l153 -748l279 748h309l-412 -1049h-389l-117 690l-235 -690h-389zM899 1219h-225l252 329h303l196 -329h-227l-131 200z" />
    <glyph glyph-name="Ycircumflex" unicode="&#x176;" horiz-adv-x="1439" 
d="M596 508l-434 950h364l269 -647l364 647h371l-590 -950l-45 -508h-344zM711 1626h-226l250 287h303l197 -289l-223 2l-138 160z" />
    <glyph glyph-name="ycircumflex" unicode="&#x177;" horiz-adv-x="1245" 
d="M139 -436l21 227q64 -22 123 -22q47 0 85 15.5t67.5 48.5t50.5 68t46 89l-403 1059h336l225 -676l293 676h320l-502 -1086q-48 -107 -94 -182.5t-101.5 -135t-121.5 -89t-144 -29.5q-113 0 -201 37zM582 1219h-226l252 329h303l197 -329h-227l-131 200z" />
    <glyph glyph-name="Ydieresis" unicode="&#x178;" horiz-adv-x="1439" 
d="M596 508l-434 950h364l269 -647l364 647h371l-590 -950l-45 -508h-344zM608 1628q-69 0 -111 45t-36 115q6 69 55.5 113.5t118.5 44.5q70 0 111.5 -44.5t35.5 -113.5q-6 -70 -54.5 -115t-119.5 -45zM1116 1628q-69 0 -111 45t-36 115q6 69 55.5 113.5t118.5 44.5
q70 0 111.5 -44.5t35.5 -113.5q-6 -70 -54.5 -115t-119.5 -45z" />
    <glyph glyph-name="Zacute" unicode="&#x179;" horiz-adv-x="1372" 
d="M115 225l800 963h-696l23 270h1142l-18 -225l-788 -963h725l-25 -270h-1184zM1235 1913l-295 -277h-260l252 277h303z" />
    <glyph glyph-name="zacute" unicode="&#x17a;" horiz-adv-x="1165" 
d="M698 797h-514l23 252h936l-19 -201l-567 -596h537l-23 -252h-977l19 201zM799 1546h291l-302 -327h-239z" />
    <glyph glyph-name="Zdotaccent" unicode="&#x17b;" horiz-adv-x="1372" 
d="M115 225l800 963h-696l23 270h1142l-18 -225l-788 -963h725l-25 -270h-1184zM829 1636q-74 0 -117 44.5t-38 115.5q7 70 58.5 115t125.5 45q75 0 118.5 -44.5t37.5 -115.5q-6 -70 -58 -115t-127 -45z" />
    <glyph glyph-name="zdotaccent" unicode="&#x17c;" horiz-adv-x="1165" 
d="M698 797h-514l23 252h936l-19 -201l-567 -596h537l-23 -252h-977l19 201zM692 1233q-74 0 -117.5 46t-37.5 118t58 118t126 46q73 0 116 -46t37 -118t-57 -118t-125 -46z" />
    <glyph glyph-name="Zcaron" unicode="&#x17d;" horiz-adv-x="1372" 
d="M115 225l800 963h-696l23 270h1142l-18 -225l-788 -963h725l-25 -270h-1184zM999 1931h230l-258 -307h-303l-201 307h231l133 -178z" />
    <glyph glyph-name="zcaron" unicode="&#x17e;" horiz-adv-x="1165" 
d="M698 797h-514l23 252h936l-19 -201l-567 -596h537l-23 -252h-977l19 201zM868 1546l228 2l-256 -329h-303l-195 327h225l135 -198z" />
    <glyph glyph-name="Aacutering" unicode="&#x1fa;" horiz-adv-x="1550" 
d="M1153 1458l360 -1458h-360l-63 264h-586l-105 -264h-362l616 1458h500zM879 1163l-279 -651h442zM905 1503q-109 0 -172.5 63t-54.5 163t82.5 161.5t183.5 61.5q109 0 173 -62.5t57 -160.5q-9 -100 -84 -163t-185 -63zM932 1804q-34 0 -56.5 -20.5t-25.5 -54.5t16.5 -55
t53.5 -21t57.5 21t26.5 55q1 34 -18.5 54.5t-53.5 20.5zM1309 2200l-242 -207h-256l217 207h281z" />
    <glyph glyph-name="aacutering" unicode="&#x1fb;" horiz-adv-x="1384" 
d="M1024 903l12 146h307l-92 -1049h-307l12 145q-70 -89 -165.5 -137.5t-206.5 -48.5q-221 0 -348 158t-105 407q23 249 177.5 407.5t375.5 158.5q111 0 198 -49t142 -138zM688 229q120 0 204 83.5t95 211.5q12 128 -58 211.5t-190 83.5t-204.5 -83.5t-96.5 -211.5
q-11 -128 59.5 -211.5t190.5 -83.5zM778 1157q-110 0 -174 62.5t-55 160.5q9 100 84 163t184 63q110 0 174.5 -63t55.5 -163t-83.5 -161.5t-185.5 -61.5zM805 1456q-34 0 -56.5 -21t-25.5 -55t16.5 -54.5t53.5 -20.5t56 21t25 56q3 32 -16 53t-53 21zM1225 1901l-246 -232
h-252l221 232h277z" />
    <glyph glyph-name="AEacute" unicode="&#x1fc;" horiz-adv-x="2041" 
d="M1968 276l-24 -276h-926l20 242h-479l-141 -242h-381l858 1458h1155l-25 -278h-595l-27 -318h514l-23 -244h-516l-28 -342h618zM1061 485l63 740l-428 -740h365zM1710 1884l-293 -276h-260l250 276h303z" />
    <glyph glyph-name="aeacute" unicode="&#x1fd;" horiz-adv-x="2166" 
d="M2128 537q-3 -53 -17 -115h-821q12 -106 84.5 -166.5t179.5 -60.5q161 0 242 131l256 -62q-60 -133 -202.5 -219t-303.5 -86q-132 0 -236 57.5t-147 149.5l-14 -166h-197l13 145q-71 -89 -170 -137.5t-213 -48.5q-221 0 -347 158t-104 407q23 250 176.5 408t374.5 158
q113 0 202 -49t148 -138l12 146h197l-14 -166q62 96 168.5 151.5t242.5 55.5q154 0 271.5 -71.5t175 -197.5t43.5 -284zM438 524q-12 -140 60 -229.5t196 -89.5q123 0 210.5 88t99.5 231q12 141 -59 230.5t-195 89.5q-125 0 -212.5 -89.5t-99.5 -230.5zM1300 596h523
q5 107 -62.5 178.5t-179.5 71.5q-103 0 -179 -67.5t-102 -182.5zM1303 1542h290l-301 -328h-239z" />
    <glyph glyph-name="Oslashacute" unicode="&#x1fe;" horiz-adv-x="1769" 
d="M1290 1462l180 299l218 2l-230 -385q147 -103 221 -272.5t56 -376.5q-19 -224 -135.5 -402t-304.5 -278t-414 -100q-136 0 -258 39l-162 -275h-217l211 355q-156 101 -234 274t-59 387q19 224 135.5 402t304.5 278t414 100q150 0 274 -47zM506 729q-9 -116 24 -211.5
t101 -157.5l495 830q-58 24 -135 24q-192 0 -329 -137t-156 -348zM1391 729q9 108 -20.5 200t-90.5 156l-492 -825q49 -16 117 -16q192 0 329.5 136.5t156.5 348.5zM1413 1892l-295 -276h-260l252 276h303z" />
    <glyph glyph-name="oslashacute" unicode="&#x1ff;" horiz-adv-x="1359" 
d="M969 1063l98 166h188l-139 -234q109 -75 162.5 -196.5t40.5 -274.5q-22 -251 -200.5 -408t-442.5 -157q-79 0 -172 21l-86 -144h-187l123 205q-118 71 -177 196.5t-46 286.5q15 165 101.5 294t228 200.5t315.5 71.5q97 0 193 -27zM489 262l357 594q-40 12 -90 12
q-142 0 -242 -96t-113 -248q-12 -168 88 -262zM1049 524q15 147 -70 248l-350 -586q34 -6 67 -6q143 0 242 96t111 248zM1188 1524l-299 -305h-240l248 305h291z" />
    <glyph glyph-name="Scommaaccent" unicode="&#x218;" horiz-adv-x="1470" 
d="M741 -51q-278 0 -444.5 150t-146.5 380h309q-9 -119 79 -194.5t236 -75.5q124 0 203.5 54t85.5 134q4 49 -24 83.5t-78.5 54t-117 33.5t-140.5 27.5t-147.5 30.5t-139 48t-114 74t-73 114t-16.5 164q19 215 196 349t441 134q131 0 241 -38t185 -104.5t112.5 -160.5
t28.5 -202h-299q10 107 -70 176t-212 69q-120 0 -199.5 -50.5t-85.5 -127.5q-4 -47 24 -80t78.5 -51.5t117.5 -32.5t141 -27t147.5 -30.5t139 -48.5t114.5 -74.5t73.5 -115.5t16.5 -165q-19 -219 -202 -358t-460 -139zM666 -461q-55 0 -85.5 39t-25.5 100q6 65 47.5 104.5
t104.5 39.5q71 0 111 -50t34 -132q-9 -99 -65 -197t-134 -150l-112 45q52 40 87 96t38 105z" />
    <glyph glyph-name="scommaaccent" unicode="&#x219;" horiz-adv-x="1155" 
d="M575 -45q-213 0 -340 111.5t-112 283.5h260q-6 -78 54.5 -128t160.5 -50q85 0 144 35.5t63 89.5q3 34 -18.5 56t-60 34t-88.5 20t-105 16.5t-110 19.5t-103.5 33.5t-85 54.5t-54.5 85.5t-12 124.5q9 101 75 182t172.5 126t233.5 45q210 0 337.5 -102.5t115.5 -260.5h-271
q4 64 -52.5 105t-149.5 41q-73 0 -126 -33.5t-57 -83.5q-3 -36 24.5 -60t75 -36t109 -24t125.5 -22t124.5 -31.5t106.5 -51t71.5 -82t19.5 -123.5q-14 -163 -161.5 -269t-365.5 -106zM506 -461q-55 0 -85.5 39t-25.5 100q6 65 46.5 104.5t103.5 39.5q72 0 112.5 -50
t34.5 -132q-9 -98 -64.5 -195.5t-133.5 -151.5l-113 45q51 41 86.5 97t38.5 104z" />
    <glyph glyph-name="circumflex" unicode="&#x2c6;" horiz-adv-x="925" 
d="M193 1214l251 330h304l196 -330h-225l-133 201l-168 -201h-225z" />
    <glyph glyph-name="caron" unicode="&#x2c7;" horiz-adv-x="925" 
d="M748 1542l225 2l-254 -330h-303l-195 328h225l134 -199z" />
    <glyph glyph-name="breve" unicode="&#x2d8;" horiz-adv-x="786" 
d="M639 1520h195q-11 -145 -99.5 -231.5t-236.5 -86.5q-146 0 -218.5 86t-60.5 232h197q-6 -65 21.5 -105.5t76.5 -40.5t84 40.5t41 105.5z" />
    <glyph glyph-name="dotaccent" unicode="&#x2d9;" horiz-adv-x="512" 
d="M356 1147q-73 0 -117 47t-38 119q6 70 58 116t126 46q73 0 116.5 -45.5t37.5 -116.5q-6 -72 -58 -119t-125 -47z" />
    <glyph glyph-name="ring" unicode="&#x2da;" horiz-adv-x="753" 
d="M473 1110q-129 0 -203 73.5t-63 192.5q10 120 97 193t216 73q131 0 204.5 -73t63.5 -193q-11 -119 -98 -192.5t-217 -73.5zM508 1495q-53 0 -89 -32.5t-40 -86.5q-5 -53 25.5 -86t82.5 -33t88 33t41 86q4 54 -25.5 86.5t-82.5 32.5z" />
    <glyph glyph-name="ogonek" unicode="&#x2db;" horiz-adv-x="651" 
d="M358 20l125 -20q-228 -67 -237 -199q-9 -96 68.5 -155t213.5 -62l-12 -157q-213 0 -338.5 93t-111.5 240q7 95 84.5 163.5t207.5 96.5z" />
    <glyph glyph-name="tilde" unicode="&#x2dc;" horiz-adv-x="991" 
d="M338 1208l-139 74q36 79 114.5 131.5t165.5 52.5q48 0 92 -17.5t71 -38.5t60 -38.5t62 -17.5q34 0 66 21.5t53 56.5l141 -76q-36 -79 -116.5 -132t-172.5 -53q-52 0 -97 17.5t-70.5 38t-57 38t-59.5 17.5q-31 0 -61.5 -20.5t-51.5 -53.5z" />
    <glyph glyph-name="hungarumlaut" unicode="&#x2dd;" horiz-adv-x="1052" 
d="M412 1536h284l-282 -322h-221zM811 1536h291l-316 -322h-227z" />
    <glyph glyph-name="Wgrave" unicode="&#x1e80;" horiz-adv-x="2418" 
d="M1716 283l412 1175h348l-522 -1458h-496l-158 1030l-337 -1030h-498l-270 1458h350l207 -1175l397 1175h381zM1212 1636l-245 277h303l205 -277h-263z" />
    <glyph glyph-name="wgrave" unicode="&#x1e81;" horiz-adv-x="1882" 
d="M375 0l-225 1049h319l149 -742l271 742h287l153 -748l279 748h309l-412 -1049h-389l-117 690l-235 -690h-389zM698 1546l291 2l193 -329h-240z" />
    <glyph glyph-name="Wacute" unicode="&#x1e82;" horiz-adv-x="2418" 
d="M1716 283l412 1175h348l-522 -1458h-496l-158 1030l-337 -1030h-498l-270 1458h350l207 -1175l397 1175h381zM1759 1913l-295 -277h-262l252 277h305z" />
    <glyph glyph-name="wacute" unicode="&#x1e83;" horiz-adv-x="1882" 
d="M375 0l-225 1049h319l149 -742l271 742h287l153 -748l279 748h309l-412 -1049h-389l-117 690l-235 -690h-389zM1157 1546h291l-303 -327h-240z" />
    <glyph glyph-name="Wdieresis" unicode="&#x1e84;" horiz-adv-x="2418" 
d="M1716 283l412 1175h348l-522 -1458h-496l-158 1030l-337 -1030h-498l-270 1458h350l207 -1175l397 1175h381zM1098 1628q-70 0 -112 45t-36 115q6 69 55.5 113.5t118.5 44.5q71 0 112.5 -44.5t35.5 -113.5q-6 -70 -54.5 -115t-119.5 -45zM1608 1628q-71 0 -113.5 45
t-36.5 115q6 69 55.5 113.5t120.5 44.5q70 0 111 -44.5t35 -113.5q-6 -71 -54 -115.5t-118 -44.5z" />
    <glyph glyph-name="wdieresis" unicode="&#x1e85;" horiz-adv-x="1882" 
d="M375 0l-225 1049h319l149 -742l271 742h287l153 -748l279 748h309l-412 -1049h-389l-117 690l-235 -690h-389zM780 1200q-70 0 -111.5 44t-35.5 112q6 67 54.5 110t119.5 43q69 0 111 -43t36 -110t-55.5 -111.5t-118.5 -44.5zM1311 1200q-69 0 -110.5 44.5t-35.5 111.5
t54.5 110t117.5 43q71 0 113.5 -43t36.5 -110q-6 -68 -56 -112t-120 -44z" />
    <glyph glyph-name="Germandbls" unicode="&#x1e9e;" horiz-adv-x="1529" 
d="M575 981l-86 -981h-344l86 983q20 229 198 373.5t443 144.5q244 0 386.5 -118t125.5 -306q-9 -105 -73 -184t-158 -102q139 -27 222.5 -143t70.5 -273q-17 -185 -159.5 -305.5t-342.5 -120.5q-161 0 -319 74l84 219q92 -47 176 -47q89 0 150 60t69 153q11 116 -53.5 186
t-198.5 70h-92l18 208h96q76 0 128.5 50.5t60.5 128.5q7 89 -53.5 145.5t-163.5 56.5q-111 0 -186 -74t-85 -198z" />
    <glyph glyph-name="Ygrave" unicode="&#x1ef2;" horiz-adv-x="1439" 
d="M596 508l-434 950h364l269 -647l364 647h371l-590 -950l-45 -508h-344zM735 1636l-246 277h304l202 -277h-260z" />
    <glyph glyph-name="ygrave" unicode="&#x1ef3;" horiz-adv-x="1245" 
d="M139 -436l21 227q64 -22 123 -22q47 0 85 15.5t67.5 48.5t50.5 68t46 89l-403 1059h336l225 -676l293 676h320l-502 -1086q-48 -107 -94 -182.5t-101.5 -135t-121.5 -89t-144 -29.5q-113 0 -201 37zM393 1546l291 2l193 -329h-240z" />
    <glyph glyph-name="endash" unicode="&#x2013;" horiz-adv-x="1339" 
d="M1321 762l-23 -252h-1167l23 252h1167z" />
    <glyph glyph-name="emdash" unicode="&#x2014;" horiz-adv-x="1685" 
d="M121 762h1577l-23 -252h-1577z" />
    <glyph glyph-name="quoteleft" unicode="&#x2018;" horiz-adv-x="534" 
d="M539 1044q-7 -75 -61 -123.5t-128 -48.5q-85 0 -130.5 66.5t-35.5 175.5q9 114 74 226.5t158 175.5l143 -54q-68 -53 -115 -121.5t-51 -123.5q71 0 111.5 -48.5t34.5 -124.5z" />
    <glyph glyph-name="quoteright" unicode="&#x2019;" horiz-adv-x="534" 
d="M205 1343q7 75 60.5 124t127.5 49q85 0 130.5 -66.5t35.5 -175.5q-9 -114 -74 -227.5t-157 -174.5l-144 54q68 53 115 121.5t51 123.5q-70 0 -110.5 47.5t-34.5 124.5z" />
    <glyph glyph-name="quotesinglbase" unicode="&#x201a;" horiz-adv-x="534" 
d="M100 139q6 75 59.5 123.5t127.5 48.5q85 0 131 -66t37 -173q-9 -113 -75 -226.5t-157 -177.5l-145 53q68 53 115 122t53 124q-70 0 -111 48.5t-35 123.5z" />
    <glyph glyph-name="quotedblleft" unicode="&#x201c;" horiz-adv-x="1007" 
d="M545 1044q-7 -74 -62 -123t-129 -49q-85 0 -130.5 66.5t-35.5 175.5q9 114 74 226.5t158 175.5l143 -54q-68 -53 -115 -121.5t-51 -123.5q71 0 112.5 -48.5t35.5 -124.5zM1008 1044q-7 -74 -61.5 -123t-127.5 -49q-86 0 -131.5 66.5t-34.5 175.5q9 114 73.5 226.5
t156.5 175.5l145 -54q-69 -52 -115 -120.5t-51 -124.5q71 0 111.5 -48.5t34.5 -124.5z" />
    <glyph glyph-name="quotedblright" unicode="&#x201d;" horiz-adv-x="1001" 
d="M211 1354q6 75 59 123.5t127 48.5q85 0 131 -66.5t37 -173.5q-10 -114 -74.5 -227t-154.5 -176l-148 53q69 52 115 121t51 125q-70 0 -109.5 48t-33.5 124zM674 1354q6 74 59.5 123t126.5 49q86 0 131.5 -66t36.5 -174q-10 -114 -74.5 -227t-154.5 -176l-148 53
q69 52 115 121t51 125q-70 0 -109.5 48t-33.5 124z" />
    <glyph glyph-name="quotedblbase" unicode="&#x201e;" horiz-adv-x="1001" 
d="M104 141q6 75 59.5 123.5t127.5 48.5q85 0 131 -66t37 -175q-9 -113 -74.5 -226.5t-155.5 -175.5l-147 54q69 53 116.5 121.5t51.5 123.5q-71 0 -111.5 48t-34.5 124zM567 141q6 74 60 123t127 49q86 0 131.5 -66t36.5 -175q-9 -114 -74 -227t-156 -175l-147 54
q69 53 116.5 121.5t51.5 123.5q-69 0 -110.5 48t-35.5 124z" />
    <glyph glyph-name="bullet" unicode="&#x2022;" horiz-adv-x="626" 
d="M350 414q-100 0 -158.5 62t-50.5 159q9 97 78.5 159t169.5 62t158 -62t49 -159q-7 -97 -76.5 -159t-169.5 -62z" />
    <glyph glyph-name="ellipsis" unicode="&#x2026;" horiz-adv-x="1468" 
d="M98 141q6 75 61 123.5t132 48.5q78 0 124 -48.5t40 -123.5q-6 -76 -60.5 -125t-132.5 -49q-77 0 -123.5 49t-40.5 125zM569 141q6 75 60.5 123.5t132.5 48.5q77 0 123.5 -48.5t40.5 -123.5q-6 -76 -61 -125t-132 -49q-78 0 -124 49t-40 125zM1038 141q6 75 61 123.5
t132 48.5q78 0 124 -48.5t40 -123.5q-6 -76 -60.5 -125t-132.5 -49q-77 0 -123.5 49t-40.5 125z" />
    <glyph glyph-name="perthousand" unicode="&#x2030;" horiz-adv-x="3153" 
d="M1260 410q15 192 148 315t325 123q193 0 304.5 -122.5t96.5 -315.5q-19 -194 -151.5 -316.5t-325.5 -122.5q-192 0 -304 123t-93 316zM1878 410q6 80 -41.5 131t-126.5 51t-133.5 -51t-60.5 -131q-7 -82 38 -132.5t125 -50.5t136 51t63 132zM2228 410q15 192 148.5 315
t326.5 123q192 0 304.5 -123t97.5 -315q-19 -194 -152 -316.5t-325 -122.5q-194 0 -306.5 123t-93.5 316zM2847 410q6 80 -40.5 131t-127.5 51q-79 0 -134 -51t-61 -131q-7 -81 38.5 -132t125.5 -51q82 0 136.5 50.5t62.5 132.5zM182 1110q17 193 151 315.5t326 122.5
q194 0 305.5 -122.5t94.5 -315.5t-149.5 -315.5t-325.5 -122.5q-192 0 -305.5 123t-96.5 315zM801 1110q8 82 -37 132t-127 50t-137 -50t-62 -132q-6 -80 40.5 -131t127.5 -51t135 51t60 131zM1599 1520h293l-1175 -1520h-293z" />
    <glyph glyph-name="guilsinglleft" unicode="&#x2039;" horiz-adv-x="821" 
d="M827 1049l-430 -517l338 -532h-325l-326 532l418 517h325z" />
    <glyph glyph-name="guilsinglright" unicode="&#x203a;" horiz-adv-x="821" 
d="M831 532l-419 -532h-326l432 532l-340 517h326z" />
    <glyph glyph-name="lira" unicode="&#x20a4;" horiz-adv-x="1337" 
d="M172 881h217l14 174q17 200 152.5 326t339.5 126q209 0 327.5 -120t123.5 -316l-283 -45q-5 104 -44.5 164.5t-117.5 60.5q-76 0 -123.5 -59t-56.5 -156l-12 -155h454l-14 -160h-455q-2 -16 -12 -94h459l-15 -160h-512q-68 -178 -225 -246h879l-19 -221h-1163l25 287
q65 14 113 56.5t79 135.5h-168l15 148h215q6 35 10 94h-217z" />
    <glyph glyph-name="Euro" unicode="&#x20ac;" horiz-adv-x="1869" 
d="M1495 543l320 -41q-57 -241 -276 -397t-499 -156q-279 0 -469 155t-233 412h-215l14 162h191q0 64 10 108h-191l15 162h217q87 254 303 407.5t494 153.5q182 0 332 -72.5t240.5 -202t102.5 -292.5l-325 -37q-19 135 -122.5 222t-244.5 87q-138 0 -249 -71t-173 -195h437
l-15 -162h-477q-2 -18 -5 -54t-5 -54h475l-14 -162h-437q40 -127 139.5 -199.5t237.5 -72.5t258 85t164 214z" />
    <glyph glyph-name="trademark" unicode="&#x2122;" horiz-adv-x="2390" 
d="M338 307l82 930h-279l19 221h817l-19 -221h-280l-82 -930h-258zM2087 1081l-365 -774h-182l-229 774l-68 -774h-244l101 1151h317l244 -809l377 809h325l-100 -1151h-244z" />
    <glyph glyph-name="minus" unicode="&#x2212;" horiz-adv-x="1011" 
d="M154 762h839l-22 -252h-840z" />
    <glyph glyph-name="notequal" unicode="&#x2260;" horiz-adv-x="1134" 
d="M1116 772h-321l-121 -278h418l-21 -244h-498l-143 -332h-209l146 332h-258l20 244h338l123 278h-436l20 244h518l129 299h205l-131 -299h242z" />
    <glyph glyph-name="lessequal" unicode="&#x2264;" horiz-adv-x="929" 
d="M862 217l-18 -217h-758l18 217h758zM158 823l780 246l-18 -211l-574 -174l543 -174l-19 -209l-737 244z" />
    <glyph glyph-name="greaterequal" unicode="&#x2265;" horiz-adv-x="929" 
d="M104 217h758l-18 -217h-758zM131 510l571 174l-540 174l18 211l735 -246l-24 -278l-778 -244z" />
    <glyph glyph-name="commaaccent" unicode="&#xf6c3;" horiz-adv-x="471" 
d="M203 -68q-55 0 -85.5 39t-25.5 101q6 65 47.5 104t104.5 39q72 0 111.5 -50t31.5 -132q-7 -98 -62 -195.5t-132 -150.5l-115 45q51 38 85.5 94t39.5 106z" />
    <glyph glyph-name="IJacute" horiz-adv-x="1619" 
d="M635 1458l-127 -1458h-344l127 1458h344zM1147 494l84 964h344l-86 -999q-20 -222 -171 -361t-366 -139q-161 0 -286 41l22 264q103 -28 195 -28q108 0 181 71t83 187zM899 1913l-295 -277h-262l254 277h303zM1827 1913l-295 -277h-260l252 277h303z" />
    <glyph glyph-name="acute.case" horiz-adv-x="702" 
d="M455 1243h-260l251 277h304z" />
    <glyph glyph-name="breve.case" horiz-adv-x="808" 
d="M664 1520h192q-11 -128 -106 -208.5t-236 -80.5t-223.5 80.5t-71.5 208.5h195q-4 -52 27 -84.5t87 -32.5t94 32.5t42 84.5z" />
    <glyph glyph-name="caron.case" horiz-adv-x="919" 
d="M743 1520h224l-246 -289h-305l-197 289h225l136 -160z" />
    <glyph glyph-name="circumflex.case" horiz-adv-x="919" 
d="M193 1208l245 289h305l197 -289h-223l-137 160l-162 -160h-225z" />
    <glyph glyph-name="dieresis.case" horiz-adv-x="1001" 
d="M346 1141q-69 0 -110 44.5t-35 114.5q4 69 53.5 113.5t118.5 44.5q70 0 112 -44.5t37 -113.5q-6 -70 -55.5 -114.5t-120.5 -44.5zM856 1141q-71 0 -112 44.5t-35 114.5q4 69 53.5 113.5t120.5 44.5q70 0 111 -44.5t36 -113.5q-6 -70 -54.5 -114.5t-119.5 -44.5z" />
    <glyph glyph-name="dotaccent.case" horiz-adv-x="512" 
d="M358 1159q-75 0 -119 45t-38 115q7 70 58.5 115t125.5 45q75 0 118 -45t36 -115q-6 -71 -56 -115.5t-125 -44.5z" />
    <glyph glyph-name="grave.case" horiz-adv-x="702" 
d="M481 1421l-245 277h303l202 -277h-260z" />
    <glyph glyph-name="hungarumlaut.case" horiz-adv-x="1036" 
d="M412 1520h274l-266 -289h-225zM809 1520h274l-292 -289h-224z" />
    <glyph glyph-name="ijacute" horiz-adv-x="1179" 
d="M236 1049h307l-92 -1049h-308zM741 -70l99 1119h307l-98 -1131q-15 -166 -120 -267.5t-263 -101.5q-129 0 -226 33l19 215q57 -14 125 -14q66 0 108.5 40.5t48.5 106.5zM512 1520h291l-299 -306h-240zM1104 1520h291l-299 -306h-240z" />
    <glyph glyph-name="ring.case" horiz-adv-x="669" 
d="M432 1106q-110 0 -174 62.5t-55 162.5q8 98 82 160.5t184 62.5t173.5 -62.5t57.5 -162.5q-9 -98 -84 -160.5t-184 -62.5zM459 1407q-34 0 -57.5 -21t-26.5 -55t17 -56t54 -22q33 0 56 22t26 56q3 33 -16.5 54.5t-52.5 21.5z" />
    <glyph glyph-name="tilde.case" horiz-adv-x="991" 
d="M342 1262l-139 84q37 80 114.5 132t163.5 52q49 0 93.5 -17.5t72 -38t60 -38t59.5 -17.5q74 0 125 88l139 -86q-38 -80 -117.5 -132t-171.5 -52q-52 0 -97 17.5t-70 38t-55 38t-56 17.5q-65 0 -121 -86z" />
    </font>
</defs>
</svg>
